<?xml version="1.0" encoding="UTF-8" standalone="no"?>
<!-- Created with Inkscape (http://www.inkscape.org/) -->
<svg id="svg2" xmlns:rdf="http://www.w3.org/1999/02/22-rdf-syntax-ns#" xmlns="http://www.w3.org/2000/svg" height="244.55" viewBox="-0.2 -236 169.07499 244.54905" width="169.01" version="1.1" xmlns:cc="http://creativecommons.org/ns#" xmlns:xlink="http://www.w3.org/1999/xlink" xmlns:dc="http://purl.org/dc/elements/1.1/">
 <metadata id="metadata709">
  <rdf:RDF>
   <cc:Work rdf:about="">
    <dc:format>image/svg+xml</dc:format>
    <dc:type rdf:resource="http://purl.org/dc/dcmitype/StillImage"/>
   </cc:Work>
  </rdf:RDF>
 </metadata>
 <defs id="defs4">
  <g id="club-0">
   <path id="path3229" d="m3.35 4.66c0-1.81-1.51-3.28-3.38-3.28s-3.38 1.47-3.38 3.28 1.51 3.28 3.38 3.28 3.38-1.47 3.38-3.28z"/>
   <path id="path3231" d="m7.71-1.55c0-1.81-1.51-3.28-3.38-3.28s-3.38 1.47-3.38 3.28 1.51 3.28 3.38 3.28 3.38-1.47 3.38-3.28z"/>
   <path id="path3233" d="m-0.95-1.57c0-0.66-0.2-1.28-0.55-1.8-0.6-0.89-1.65-1.48-2.83-1.48-1.87 0-3.38 1.47-3.38 3.28s1.51 3.28 3.38 3.28 3.38-1.47 3.38-3.28z"/>
   <path id="path3235" d="m3.94-7.94c-1.67 0-2.55 1.36-3.01 2.72s-0.5 2.72-0.5 2.72h-0.86s-0.16-5.43-3.5-5.44h7.87z"/>
   <path id="path3237" d="m-2.32 2.25c1.9-1.9 1.9-4.75 1.9-4.75l0.85-0.01s0 2.91 1.85 4.76"/>
   <path id="path3239" d="m-1.94-3.85c1.9 1.9 4.75 1.9 4.75 1.9v0.85s-2.91 0-4.76 1.85"/>
   <path id="path3241" d="m1.87-3.86c-1.9 1.9-4.75 1.9-4.75 1.9v0.85s2.91 0 4.76 1.85"/>
  </g>
  <g id="base-5">
   <path id="path3226" stroke="#000" stroke-width="2.5" fill="#fff" d="m0 0c0 3.78 3.09 6.87 6.87 6.87h152.84c3.77 0 6.86-3.09 6.86-6.87v-228.4c0-3.78-3.09-6.87-6.86-6.87h-152.84c-3.78 0-6.87 3.09-6.87 6.87v228.4z"/>
  </g>
  <g id="n_3-6">
   <text id="text3193" font-size="43px" font-weight="bold" font-family="Bitstream Vera Serif" transform="scale(.56453 1.0574)">3</text>
  </g>
 </defs>
 <g id="3_club" transform="translate(-334.1 .47452)">
  <use id="use3869" xlink:href="#base-5" height="1" width="1" y="0" x="335.14999"/>
  <use id="use3871" xlink:href="#n_3-6" height="1" width="1" y="-199.117" x="339.14999"/>
  <use id="use3873" xlink:href="#n_3-6" transform="matrix(-1,0,0,-1,997.45,-60.56)" height="1" width="1" y="-30.280001" x="498.72501"/>
  <use id="use3875" xlink:href="#club-0" transform="matrix(-1 0 0 -1 697.6 -370.23)" height="1" width="1" y="-185.117" x="348.79999"/>
  <use id="use3877" xlink:href="#club-0" height="1" width="1" y="-44.279999" x="489.07501"/>
  <use id="use3879" xlink:href="#club-0" transform="scale(2.4)" height="1" width="1" y="-14.599" x="174.55701"/>
  <use id="use3881" xlink:href="#club-0" transform="matrix(-2.4 0 0 -2.4 837.87 -243.14)" height="1" width="1" y="-50.653599" x="174.55701"/>
  <use id="use3883" xlink:href="#club-0" transform="matrix(-2.4 0 0 -2.4 837.87 -397.02)" height="1" width="1" y="-82.712502" x="174.55701"/>
 </g>
</svg>
