<?xml version="1.0" encoding="UTF-8" standalone="no"?>
<!-- Created with Inkscape (http://www.inkscape.org/) -->
<svg id="svg2" xmlns:rdf="http://www.w3.org/1999/02/22-rdf-syntax-ns#" xmlns="http://www.w3.org/2000/svg" height="244.55" width="169.01" version="1.1" xmlns:cc="http://creativecommons.org/ns#" xmlns:xlink="http://www.w3.org/1999/xlink" viewBox="-0.2 -236 169.07499 244.54905" xmlns:dc="http://purl.org/dc/elements/1.1/">
 <metadata id="metadata1469">
  <rdf:RDF>
   <cc:Work rdf:about="">
    <dc:format>image/svg+xml</dc:format>
    <dc:type rdf:resource="http://purl.org/dc/dcmitype/StillImage"/>
   </cc:Work>
  </rdf:RDF>
 </metadata>
 <defs id="defs4">
  <g id="queen_3-58">
   <path id="path35077" fill="#e61408" d="m306.81 374.26-2.28-7.45 0.61-2.25 2-1.4-0.11-2.41c-2.05-5.22-4-10.46-6.24-15.6-1.57-0.44-3.02-0.79-4.63-1-3.96 5.86-7.82 11.76-11.59 17.75l9.79 8.56 10.97 14.73 2.29-0.14c-0.42-3.62-0.92-7.14-0.81-10.79"/>
   <path id="path35079" fill="#f8c20f" d="m338.57 390.97c-3.92 2.97-7.68 5.2-12.04 7.48l-5.13 1.5c0.27 1.24 0.57 2.43 0.92 3.65-0.54 1.76-1.15 3.29-1.96 4.95l2.1-0.65 0.3-0.84-0.16-0.98 2.28-0.08 0.5-0.89-1.47-1.44 3.44-1.76 2.89 1.36 1.55 2.92 1.37-0.09-0.04-1.16-1.52-1.39-0.38-1.35 2.36-2.74 2.66 0.17 0.27 0.5-1.81 1.54 0.32 1.07 1.32-0.06 1.66-0.79 0.88 1.28 1.23 0.51 0.64-0.77-0.43-1.4-1.47-0.75 2.46-0.72-0.06-1.43-3.74 1.1c0.52-1.18 1.06-2.33 1.63-3.48l2.21-1.08 3.03 0.01 1.26 2.15 1.8 0.6-0.08-1.23-1.8-0.99-0.91-0.85 0.17-0.95c0.37-0.99 0.88-1.84 1.42-2.75l1.71-0.45 0.5 0.32-1.4 1.84 1.09 0.42 1.3-0.68 1.92-0.31 0.55-1.25c-1.55-0.5-3.02-1.31-4.55-1.91-0.95-1.08-1.86-2.06-2.96-2.99-1.87 1.75-3.79 3.29-5.83 4.84"/>
   <path id="path35081" fill="#f8c20f" d="m325.62 337.38c3 0.01 5.85-0.29 8.83-0.5 1.34 2.77 2.56 5.6 3.82 8.41l3.19-0.89-0.13-0.43h-0.05l-0.61-1.96-0.03-0.37-0.14-0.46c-0.31-3.27-0.17-6.64-0.57-9.88-0.44-3.64-0.48-8.15-2.25-11.48l-2.21-2.86-3.29-2.29-3.48-0.58-4.58 0.38-2.5 0.77c-0.9 1.15-1.79 2.14-2.84 3.16l-1.72 0.47-1.97-0.11-1.71-1.15-0.61 0.6c-3.84 6.59-8.55 12.55-12.13 19.31l1.61 1.31 2.07 1.15c4.26-0.35 8.13-1.38 12.23-2.56l1.85-1.47c2.49 0.35 4.8 0.77 7.22 1.43"/>
   <path id="path35083" fill="#e61408" d="m345.15 288.45-0.2-19.62-0.65-0.29c-7.53 11.84-15.28 23.58-22.44 35.65l22.21 5.3 1.08-21.04"/>
   <path id="path35085" fill="#e61408" d="m325.96 313.89 5.65 0.37c1.29 0.9 2.57 1.79 3.86 2.69 0.8 1.03 1.59 2.06 2.39 3.09 2 7.27 2.13 14.49 2.81 21.96l0.61 1.96c0.59 0.06 1.19 0.12 1.78 0.18l4.87-2.07-0.04-22.33-1.07-4.9-24.53-6.03c-0.46 2.2-0.68 4.23-0.82 6.47 1.5-0.47 2.99-0.93 4.49-1.39"/>
   <path id="path35087" fill="#e61408" d="m372.13 339.87-0.34 0.82c-1.31 1.84-2.61 3.67-3.59 5.71l-0.93-0.13-1.45 0.99-2.99-0.15c-2.32-0.83-4.64-1.63-6.94-2.5l-3.5-0.51c-1.99 3.25-3.86 6.5-5.66 9.86-2.91 12.61-5.38 25.43-9.69 37.65l1.53-0.63c1.84-1.39 3.61-2.76 5.3-4.33 1.33-5.71 1.7-11.42 1.68-17.28l1.54-2.6c8.79-6.1 17.06-12.69 24.66-20.24l-0.62-0.02 0.91-0.1 1.52-1.99 1.43-3.58-0.14-4.06-1.01-0.85-1.25 3.25-0.46 0.69"/>
   <path id="path35089" fill="#1c1585" d="m375.95 320.07-3.95 0.73-1.07-0.11-0.54 0.12-0.29-0.21c-0.72-0.12-1.44-0.27-2.16-0.42l-1.72-1.24c-0.7-0.86-1.46-1.69-2.06-2.63l-0.38-0.28c-2.07-3.85-4.38-7.61-6.56-11.41l-4.07 0.01c-1.88 3.77-3.81 7.5-5.8 11.21 1.22 8.73 0.78 17.58 0.66 26.38l2.87 0.02c0.77-1.35 1.41-2.75 2.08-4.16 1.85-2.58 3.76-5.03 5.78-7.49l0.31-0.22c1.2-1.36 2.84-2.42 4.23-3.58l4.42-2.49 4.61-1.32 6.42-0.56 2.89 0.58 2.06-0.29 2.42-4.16-0.69-0.77c-3.13 0.86-6.3 1.56-9.46 2.29"/>
   <path id="path35091" fill="#e61408" d="m386.81 304.34-0.04-0.03h-0.47c-1.97-1.1-3.55-2.86-5.4-4.15-2.03-1.42-4.04-2.66-6.2-3.88l-1.18-0.1h0.01l-0.81 1.13-1.34-0.11-0.98 0.7 0.58 1.54-1.12 1.16-1.73-0.76-0.35-0.06-0.7 0.51 0.13 0.84-0.32 1.19-1.19 0.6-0.38 1.32 2.25 3.68 1.06 1.15 1.07 0.64 1 0.28c5.53-0.77 10.62-2.48 15.93-4.18l0.18-1.47"/>
   <path id="path35093" fill="#f8c20f" d="m397.14 284.98-0.3 2.32c-1.43 4.5-3.29 8.65-5.5 12.82l0.62-2.31c-0.2-5.33-0.62-10.5-1.56-15.76l-1.99-4.47-1.63-2.16-2.14-1.83-2.68-1.05-3.25-0.22-3.36 0.43-0.72 0.47-1.12 2.71-1.2 1.52-2.15 0.79-1.73 0.17c-0.27 3.48-0.55 6.95-0.88 10.43l2.86 4.72-1.51-1.12-2.03-0.7-2.71 2.65-2.81 1.64 1.58 3.86c-0.92-1.69-1.82-3.38-2.82-5.02l-0.91-0.92-0.99 1.23c-0.49 1.57-0.98 3.11-1.33 4.72l-1.28 1.87c3.33 5.84 6.36 11.94 10.62 17.16l1.72 1.24c1.36 0.28 2.68 0.47 4.06 0.62 6.42-1.17 12.73-2.58 18.83-4.93l2.09-2.43 4.34-8.41c0.71-6.54 0.58-13.19 0.69-19.76l-0.81-0.28m-10.36 20.92c-5.28 1.84-10.53 3.35-16.08 4.1-0.55-0.16-1.1-0.31-1.65-0.47-0.78-0.85-1.57-1.7-2.35-2.55-0.95-1.78-1.91-3.56-2.85-5.35l1.4 1.53c0.55-0.28 1.09-0.55 1.64-0.83l0.32-1.19c-0.08-0.5-0.15-0.99-0.23-1.49 0.38 0.07 0.77 0.13 1.15 0.2l1.73 0.76 1.12-1.16c-0.21-0.55-0.41-1.09-0.62-1.64l0.45-0.65c0.63 0.05 1.27 0.11 1.9 0.16l0.81-1.13c-1-0.89-1.97-1.85-3.08-2.6l1.29 0.53c2.19 1.63 4.56 2.83 6.79 4.38 2.58 1.8 5.06 4.3 7.78 5.82 0.66-0.01 1.32-0.01 1.98-0.02l-1.5 1.6"/>
   <path id="path35095" fill="#f8c20f" d="m372.31 322.98-4.61 1.32-4.42 2.49c-4.09 3.39-7.23 6.98-10.32 11.29-0.55 1.17-1.11 2.34-1.66 3.51l1.22 1.73c3.42 1.31 6.86 2.55 10.31 3.79l2.99 0.15c0.97-0.67 1.94-1.33 2.91-2 1.28-2.03 2.56-4.06 3.85-6.09 0.44-1.14 0.88-2.29 1.32-3.43l0.26-1.48 8-9.78 0.28-1.31c-1.24-0.25-2.47-0.5-3.71-0.75l-6.42 0.56"/>
   <path id="path35097" d="m322.85 406.5c0.92-0.23 2.16 0.21 2.76-0.78 0.3-0.5 0.17-0.66-0.25-1-0.29-0.23-0.86-0.8-0.5-1.19 0.59-0.63 2.11-1.02 2.95-0.91 0.4 0.05 1.08 0.05 1.39 0.33 0.73 0.62 1.14 0.85 1.41 1.8 0.27 0.93 0.86 1.56 1.69 2.03 0.76 0.43 1.05-0.58 1.07-1.15 0.03-1.02-0.87-1.76-1.46-2.51-0.4-0.52-0.03-1.03 0.18-1.55 0.39-0.98 1.63-1.5 2.58-1.75 0.51-0.13 0.99 0 1.44 0.25-0.78 0.22-2.32 1.6-1.7 2.5 0.59 0.84 2.74 0.2 3.44-0.24 0.31 1.03 2.17 2.25 3.24 2.26 0-0.7-0.01-1.39-0.06-2.09-0.05-0.61-0.43-1.12-0.67-1.66 0.52-0.17 1-0.43 1.26-0.92 0.33-0.62 0.99-1.55-0.12-1.57-0.62-0.01-1.27-0.06-1.88 0.11-0.56 0.16-1.01 0.57-1.5 0.88-0.01-1.06 0.78-2.22 1.55-2.92 0.95-0.86 1.96-1.06 3.18-1.16 1.16-0.1 1.78 1.13 2.19 2.02 0.48 1.05 1.86 1.05 2.84 1.1 0-0.67 0.02-1.74-0.5-2.25-0.61-0.6-1.79-0.68-2.23-1.53-0.73-1.4 1.28-3.94 2.77-3.72-0.52 0.51-1.95 1.71-1.14 2.5 0.64 0.62 1.98 0.07 2.69-0.14 1.04-0.31 2.36 0.15 3.28-0.52 0.53-0.39 0.88-0.49 0.8-1.17-0.11-0.95-1.52-0.73-2.11-0.86-0.51-0.11-0.91-0.5-1.36-0.75-0.5-0.28-1.08-0.38-1.6-0.62-0.96-0.45-1.4-1.2-2.09-1.93-0.29-0.31-0.68-0.5-0.98-0.8-0.36-0.35-0.44-0.85-0.57-1.32-0.28-1 0.19-2.14 0.37-3.12 0.26-1.52 0.23-3.13 0.38-4.67 0.13-1.38 0.41-2.69 0.36-4.09-0.05-1.42-0.2-2.94 0.35-4.29 1.17-2.93 4.7-4.56 7.14-6.24 1.49-1.03 2.92-2.14 4.38-3.22 1.49-1.1 2.69-2.52 4.09-3.73 1.43-1.23 2.78-2.55 4.22-3.77 1.25-1.06 2.55-2.06 3.77-3.16 2.27-2.06 4.43-4.5 5.2-7.55 0.55-2.21-0.48-4.46 0.07-6.63 0.36-1.37 1.51-2.58 2.29-3.73 0.97-1.42 2.05-2.76 3.16-4.08 1.09-1.29 2.27-2.54 3.25-3.92 1.01-1.42 1.82-2.96 2.6-4.5 0.58-1.15 2.15-1.25 3.22-1.64 1.37-0.5 2.52-1.66 3.33-2.84 1.02-1.49 1.69-3.19 2.64-4.72 0.88-1.41 1.55-2.86 1.65-4.54-0.71 0.58-1.01 1.58-1.39 2.38-0.55 1.16-1.25 2.24-1.83 3.38-0.89 1.75-1.8 3.76-3.5 4.87-2.55 1.69-5.97 2.25-8.9 2.97-3.29 0.81-6.58 1.66-9.96 2-2.13 0.21-4.27-0.61-5.68-2.21-2.33-2.63-3.87-5.87-5.52-8.94-0.82-1.53-1.52-3.11-2.34-4.63-0.4-0.76-0.83-1.5-1.27-2.25-0.09-0.14-1.02-1.58-0.1-1.33 0.39 0.11 0.59 1.06 0.72 1.36 0.31 0.72 0.66 1.43 1 2.13 0.8 1.65 1.8 3.19 2.67 4.8 1.53 2.83 2.87 6.3 5.36 8.44 2.58 2.22 5.77 2 8.89 1.38 3.66-0.72 7.22-1.87 10.87-2.62 1.49-0.31 2.94-0.68 4.09-1.74 1.19-1.09 2.02-2.39 2.78-3.8 0.79-1.45 1.62-2.86 2.3-4.36 0.68-1.49 1.83-2.91 2.02-4.54 0 0-0.6-0.22-0.72-0.3-0.46-0.35-0.54-1-0.77-1.5-1.29 1.1-0.45 3.33-0.94 4.74-0.16 0.47-1.11 2.08-1.77 1.25-0.46-0.57 0.44-1.49 0.7-2-1.3-0.67-1.98 0.94-1.96 2.01 0.03 1.36 0.22 2.7-0.16 4.03-0.24 0.84-1.09 2.58-2.16 2.53-0.71-0.03-0.89-0.62-0.58-1.11 0.34-0.54 0.66-0.9 1.33-0.98-0.23-1.24-1.87-0.87-2.39-0.06-0.96 1.5-1.99 5.13-4.14 5.37-0.5 0.06-1.14-0.19-1.43-0.58-0.11-0.14 0.22-0.57 0.3-0.71 0.2-0.38 0.22-0.3 0.65-0.26 0.18 0.02 0.42 0.1 0.59 0.1 0.42 0.01 0.36 0.23 0.52-0.23 0.19-0.53-0.19-1-0.53-1.34-0.29-0.28-1.33-0.08-1.72-0.09-1.22 0-2.55 1.97-3.19 2.81-0.62 0.81-1.74 2.31-2.95 2.02-0.56-0.13-2.13-0.47-1.26-1.37 0.55-0.56 1.6-0.26 2.28-0.24-0.07-0.48-0.28-0.88-0.59-1.26-0.38-0.46-0.98-0.25-1.5-0.21-2.36 0.18-3.3 2.54-5.51 3.02-0.7 0.15-1.68-0.01-1.99-0.75-0.19-0.43-0.1-0.41 0.22-0.76 0.33-0.36 0.8-0.61 1.16-0.12 0.33 0.46 0.79 0.33 0.87-0.23 0.17-1.38-1.15-1.72-2.2-1.94-0.49-0.11-1.02 0.06-1.49-0.14-0.57-0.25-1.12-0.54-1.61-0.92-0.96-0.75-0.01-2.46 1.02-1.49 0.4 0.37 0.44 0.67 0.86 0.1 0.12-0.16 0.24-0.61 0.39-0.56 0.82 0.26 1.51 0.87 2.33 1.18 0.85 0.32 1.77 0.48 2.68 0.45 2.14-0.07 4.37-0.76 6.44-1.27 2.19-0.54 4.3-1.37 6.47-2.01 1.66-0.49 3.56-0.99 4.75-2.35 2.17-2.46 3.82-5.38 5.08-8.4 0.67-1.61 1.38-3.22 2.12-4.8 0.32-0.67 0.79-1.33 1.02-2.03 0.22-0.69 0.1-1.45 0.1-2.16-0.94 1.05-1.24 2.9-1.81 4.18-0.75 1.7-1.46 3.4-2.33 5.04-0.76 1.42-1.53 2.85-2.31 4.26-0.72 1.31-1.55 2.7-2.83 3.54-2.86 1.86-6.12 2.68-9.37 3.58-1.6 0.44-3.21 0.81-4.83 1.15-1.6 0.33-3.33 0.63-4.94 0.18-1.31-0.38-2.26-1.77-2.96-2.85-0.98-1.51-1.84-3.12-2.72-4.7-0.85-1.52-1.72-3.03-2.53-4.58-0.72-1.38-1.95-3.11-1.92-4.72 1.08 1.22 1.75 2.72 2.47 4.16 0.79 1.57 1.64 3.11 2.45 4.67 0.82 1.58 1.72 3.13 2.68 4.63 0.79 1.22 1.68 2.16 3.15 2.46 1.5 0.32 3.4-0.2 4.85-0.6 1.77-0.5 3.56-0.92 5.34-1.37 1.57-0.39 3.1-0.89 4.64-1.39 1.33-0.43 2.76-0.96 3.72-2.03 2.33-2.62 3.85-5.81 5.22-9.01 0.73-1.7 1.47-3.4 2.15-5.12 0.34-0.87 0.69-1.73 0.83-2.65 0.13-0.86 0.62-1.7 0.55-2.58 0.08 0.17 0.16 0.33 0.25 0.5 0.48-0.6 0.35-1.6 0.31-2.31-0.08-1.2-0.04-2.41-0.03-3.61 0.01-2.5-0.63-4.93-1.21-7.33-0.67 0.53-0.34 1.34-0.21 2.04 0.2 1.03-0.04 1.98 0.27 3.02 0.29 0.97 0.19 1.93 0.25 2.92 0.07 1.12 0.05 2.14-0.11 3.26-0.5-0.08-2-0.38-2 0.49 0 0.85 1.5 0.58 2 0.51 0.12 2.08-0.87 4.11-1.63 5.99-0.44 1.08-0.88 2.17-1.38 3.23-0.37 0.8-0.76 1.76-1.53 2.26 0.1-0.53-0.19-1.04-0.21-1.56-0.03-0.74-0.02-1.47-0.02-2.21 0-0.59-0.16-1.16-0.21-1.74-0.06-0.77 0.01-1.52-0.12-2.29-0.21-1.28-0.39-2.57-0.54-3.86-0.11-0.93-0.13-2.15-0.83-2.86-0.54 1.02 0.19 2.88 0.36 3.95 0.24 1.5 0.35 3.02 0.6 4.52 0.47 2.81 0.47 6.1-0.18 8.87-0.3 1.27-1.67 4.19-3.12 4.39 0.01-2.53 0.46-5.1 0.22-7.63-0.22-2.43-0.28-4.85-0.67-7.27-0.34-2.1-0.87-4.19-1.74-6.14-0.43-0.96-0.94-1.89-1.55-2.75-0.31-0.43-0.63-0.85-0.99-1.24-0.31-0.34-0.84-0.66-0.93-1.14-0.28-1.41-0.54-3.34 0.29-4.62 0.2 0.85 0.22 1.69 0.24 2.55 0.01 0.54 0.11 1.3 0.74 1.46 0-0.79-0.29-2.79 0.79-2.84 1.32-0.06 2.75 2.25 3.39 3.19 0.5 0.73 0.93 1.52 1.24 2.35 0.28 0.75 0.55 1.67 1.29 2.09 0.15-0.72-0.42-1.49-0.68-2.12-0.37-0.93-0.69-1.79-1.22-2.64-0.48-0.77-1.02-1.51-1.64-2.18-0.77-0.82-1.75-1.4-2.52-2.22-0.51-0.54-0.63-1.31-0.63-2.02 0-0.13 0.12-1.09-0.07-1.09-0.83 0-0.26 2-1.19 2.5 0.11-0.6-0.22-1.19-0.23-1.79-0.01-0.77-0.01-1.54 0-2.31 0-0.11 0.11-0.9-0.07-0.9-0.45 0-0.42 0.11-0.43 0.52 0 0.24 0.16 4.67-0.77 3.98-0.43-0.33-0.24-1.63-0.24-2.1 0-1.47 0.01-2.93 0.02-4.4-0.7 0.49-0.55 1.69-0.52 2.42 0.05 1.26 0.06 2.6-0.26 3.83-0.6-0.89-0.3-1.85-0.74-2.75-0.91 0.62-0.24 2.11-1.26 2.75 0-0.52 0.07-2-0.66-2.01-0.1 0-0.13 0.8-0.14 0.88-0.06 0.43-0.33 0.89-0.7 1.12 0.02-0.65 0.06-1.29 0.15-1.93 0.08-0.62-0.3-1.17-0.29-1.78 0.03-1.16 0.78-2.15 0.92-3.29 0.26 0.51 0.25 1.07 0.22 1.62-0.01 0.24 0.34 0.68 0.49 0.32 0.17-0.39 0.05-1.13 0.07-1.55 0.03-0.71 0.04-1.48-0.28-2.14-0.33 0.38-0.08 1.07-0.01 1.5-0.77-0.66-1.4-1.16-1.99-2.01-0.39 0.28-0.43 0.82-0.68 1.19-0.31 0.45-0.63 0.61-0.46 1.21 0.3 1.06 0.88 1.96 0.87 3.09-0.68-0.36-1.61-0.22-2 0.49 0.77 0.41 1.5 0.56 1.87 1.41 0.28 0.63 0.29 1.69-0.38 2.1 0-0.66 0.18-2.12-0.74-2.25-0.08 0.44-0.24 0.89-0.51 1.25-0.22-0.68-0.51-1.33-0.74-2-0.36 0.4-0.28 1.05-0.43 1.54-0.17 0.54-0.6 0.08-0.66-0.24-0.27-1.55-0.07-2.97 0.04-4.52 0.12-1.59 0.11-2.96 0.69-4.47 1.19-3.11 2.34-6.23 3.53-9.34 1.14-2.97 2.23-5.95 3.44-8.89 0.61-1.47 1.25-2.94 1.79-4.44 0.45-1.26 0.81-2.59 1.73-3.6 0.07 0.35 0.34 0.69 0.5 1 0.43-0.55-0.1-1.48-0.21-2.06-0.14-0.72 0.41-1.67 0.01-2.33-0.37-0.62-1.62-0.72-2.24-0.9-1.32-0.37-2.64-0.78-3.92-1.27-1.23-0.46-2.39-1.04-3.59-1.56-0.54-0.23-2.18-1.06-2.73-0.48-1.34 1.37-2.26 3.34-3.29 4.95-1.19 1.86-2.41 3.71-3.62 5.57-2.36 3.62-4.55 7.36-6.99 10.93-2.36 3.44-4.43 7.06-6.76 10.53-1.18 1.76-2.26 3.58-3.4 5.36-0.5 0.79-1 1.59-1.54 2.35-0.54 0.75-1.17 1.56-1.35 2.49 0.81-0.4 0.75-0.22 0.76 0.6 0.06 3.08-0.09 6.15-0.07 9.23 0.01 1.41 0.1 2.86-0.03 4.27-0.12 1.37-0.76 2.63-1.28 3.89-1.2 2.89-2.33 5.8-3.43 8.72-1.07 2.83-2.29 5.61-3.33 8.46-0.15 0.41-0.97 1.52-1.55 1.01-0.73-0.64-1.06-0.81-0.91-1.81 0.11-0.73 0.21-1.43 0.21-2.17-0.61 0.43-0.65 1.29-0.94 1.91-0.14 0.29-0.53 1.31-0.87 1.34-0.54 0.04-0.94 0.08-1.46-0.05-0.83-0.21-1.81-0.56-1.97-1.48-0.19-1.05 0.13-2.21 0.28-3.25 0.18-1.16 0.39-2.3 0.5-3.46 0.11-1.2 0.36-2.39 0.54-3.58 0.14-0.93 0.66-2 0.47-2.95-1.1 0.64-1.79 2.33-2.48 3.36-1.12 1.66-2.12 3.39-3.19 5.08-2.03 3.23-4.07 6.46-6.19 9.63-2.07 3.11-3.94 6.32-5.96 9.46-1 1.54-1.95 3.11-2.95 4.65-0.53 0.81-1.08 1.6-1.4 2.52-0.31 0.88-0.48 1.81-0.74 2.71-0.2-0.32-0.44-0.62-0.5-1-1.79 1.52-2.54 3.87-3.85 5.76-0.83 1.2-1.54 2.42-2.28 3.68-0.75 1.26-1.71 2.38-2.56 3.58-1.7 2.43-2.98 5.13-4.62 7.61-0.79 1.18-1.54 2.39-2.37 3.55-0.67 0.93-1.63 1.91-1.83 3.08-0.09 0.55 0.04 0.34 0.48 0.66 0.5 0.37 0.95 0.79 1.44 1.18 1.14 0.93 2.08 2.17 3.01 3.29 1.91 2.3 3.42 4.88 5.03 7.39 1.71 2.66 3.05 5.47 4.32 8.36 0.59 1.33 1.13 2.65 1.59 4.02 0.48 1.41 1.14 2.82 1.13 4.33-1.65-1.84-2.8-4.1-4.22-6.11-1.58-2.23-3.17-4.45-4.87-6.58-1.65-2.05-3.39-4.03-5.12-6.02-0.86-0.98-1.78-1.86-2.75-2.73-0.56-0.5-1.1-1.01-1.65-1.52-0.39-0.35-0.84-0.92-1.38-1.04-0.46-0.1-0.39-0.13-0.61 0.3-0.1 0.2-0.24 0.34-0.29 0.58 0.97-0.13 1.77 0.78 2.38 1.4 1.01 1.01 2.03 2.01 3.01 3.05 2 2.12 4.02 4.34 5.83 6.62 1.78 2.23 3.44 4.57 5.14 6.86 0.91 1.22 1.74 2.46 2.5 3.77 0.63 1.08 1.55 2.14 1.76 3.4-1-0.12-1.67-1.3-2.24-2.01-0.87-1.07-1.6-2.24-2.49-3.3-1.98-2.35-3.8-4.83-5.81-7.15-1.87-2.17-3.87-4.32-5.95-6.29-0.88-0.83-1.79-1.61-2.66-2.45-0.84-0.81-1.8-1.71-3-1.9 0.03 0.25-0.3 0.59-0.25 0.75 0.05 0.17 0.68 0.43 0.81 0.52 0.46 0.32 0.92 0.66 1.37 1 0.92 0.7 1.76 1.45 2.58 2.25 1.84 1.79 3.62 3.6 5.39 5.45 3.44 3.58 6.43 7.64 9.43 11.6 0.73 0.96 1.43 1.93 2.1 2.93 0.56 0.84 0.85 1.8 1.39 2.64s1.44 1.35 2.12 2.06c0.78 0.8 1.2 1.96 1.76 2.92 1.13 1.92 2.61 3.37 4.72 4.17 0.97 0.37 2 0.68 3.03 0.84 0.46 0.07 1.86 0.47 1.98 1.05 0.16 0.81 0.29 1.52 0.64 2.27 0.4 0.86 0.24 1.46-0.02 2.33-0.25 0.82-0.36 1.8-0.8 2.54-0.35 0.58-0.92 1.09-0.93 1.82 1.17-0.02 3.88-0.69 3.02-2.42m-1.25 1.5c-0.02-0.64 0.29-1.25 1.01-1.24 0.1 0.64-0.38 1.22-1.01 1.24m10.01-3.95c0.65 0.13 2.05 1.54 1.15 1.88-1.13 0.44-1.53-1.12-1.15-1.88m-8 1.71c0.29-0.53 0.96-0.79 1.5-0.49-0.27 0.55-0.96 0.66-1.5 0.49m-1-0.26c-0.13-0.06-0.5-0.13-0.5-0.33 0-0.27-0.02-0.55 0.35-0.42 0.32 0.13 0.42 0.56 0.15 0.75m0.25-1.75c-0.05-0.52 0.29-0.7 0.75-0.75 0.11 0.56-0.19 0.87-0.75 0.75m16.01-1.68c0.38-0.19 0.72-0.21 1.13-0.13 0.26 0.05 0.66 0.73 0.5 0.92-0.38 0.47-0.42 0.65-0.99 0.38-0.37-0.18-0.58-0.77-0.64-1.17m-3.75 0.24c0.28-0.89 1.24-1.62 2.17-1.27 0.28 0.1-0.4 0.97-0.56 1.09-0.59 0.43-0.88 0.3-1.61 0.18m-5.5-0.27c-0.15-0.85 1.1-1.04 1.75-0.99-0.24 1-0.83 1.16-1.75 0.99m-5.5 0.22c-0.05-0.25 0.12-0.88 0.5-0.5 0.38 0.39-0.25 0.55-0.5 0.5m1.5-0.48c-0.52-0.52-0.98-1.24-0.99-2 0.66 0.15 1.61 1.36 0.99 2m-3.5-0.28c0.05-0.33 0.22-1.54 0.82-0.93 0.68 0.69-0.29 0.85-0.82 0.93m5.01-0.22c-0.6-0.4-1-1.29-0.99-2 0.58 0.31 1.52 1.3 0.99 2m12.25-0.95c0.02-0.6 1.13-1.85 1.58-1.15 0.61 0.93-0.93 0.97-1.58 1.15m-8.25-0.78c-0.46-0.69-1.02-1.38-0.99-2.25 0.69 0.12 1.82 1.76 0.99 2.25m-3-0.01c0.05-0.36 0.4-0.58 0.75-0.5-0.16 0.28-0.45 0.37-0.75 0.5m8.01-0.73c0-0.63-0.09-0.71 0.47-0.97 0.3-0.14 0.7-0.27 1.03-0.27 0.15 0.86-0.72 1.51-1.5 1.24m-15 0.19c-0.2-0.94-1.12-0.95-1.9-0.98-1.16-0.04-2.43-0.38-3.49-0.84-1.17-0.5-2.09-1.32-2.95-2.24-0.83-0.89-1.84-1.95-1.88-3.24 0.95 0.03 2.05 1.09 2.24 2.01 0.49-1.26-1.2-2.37-1.99-3.01 1.17-1.02 2.83 1.27 3.74 1.77-0.18-0.56-0.42-1.16-0.49-1.75 1.01 0.04 2.18 0.9 2.58 1.82 0.48 1.09 1.09 2.08 1.9 2.95-0.17-0.71-0.1-1.5-0.12-2.22-0.02-0.81 1.18-1.52 1.76-1.93 0.29-0.21 0.72-0.46 0.86-0.82 0.15-0.35-0.24-0.95 0.04-1.26 0.17-0.21 0.77-0.21 1-0.25 0.05 0.68 0.22 1.29-0.09 1.91-0.21 0.42-0.91 0.85-1.31 1.11-1.29 0.83-1.35 1.85-0.37 2.98-0.04-1.05-0.04-1.59 0.78-2.38 0.45-0.43 1.35-1.01 1.99-1.11 0.07 0.39-0.15 0.88-0.26 1.25 0.36-0.27 0.81-0.42 1.25-0.49-0.08 0.62-0.49 1.19-0.76 1.75 1-0.9 2.11-1.47 2.76-2.71 0.55-1.07 0.89-2.52 2.33-2.67 0.4-0.04 1-0.26 1.32 0.03s0.29 0.99 0.36 1.38c-0.5-0.06-0.67-0.57-0.75-1-1.26 0.27-1.56 1.71-1.72 2.8-0.21 1.42-0.62 2.83-1.86 3.72-1.32 0.94-2.97 1.16-4.55 1.19-0.92 0.02-1.86 0.03-2.78-0.1-0.77-0.1-1.59-0.55-2.37-0.42 1.69 1.32 3.92 1.07 5.92 0.99 2.29-0.09 4.47-0.9 6.34-2.22 3.72-2.64 4.63-7.77 4.01-12.04-0.21-1.43-0.42-2.75-0.42-4.2-0.01-1.5-0.01-2.98-0.15-4.48-0.15-1.48-0.26-2.95-0.32-4.43-0.05-1.36-0.52-2.89-0.31-4.24 0.32-2.06 3.19-3.39 4.79-4.3 0.57-0.32 0.6-0.15 0.76 0.4 0.29 0.98 0.07 2.05 0.04 3.05-0.05 1.38-0.2 2.75-0.28 4.13-0.15 2.8-0.75 5.54-0.98 8.33-0.21 2.52-0.6 5.13-1.1 7.62-0.54 2.7-1.67 5.14-2.53 7.73 1.24-1.59 2.01-3.52 2.47-5.47 0.19-0.81 0.37-2.99 1.67-2.66 0.46 0.12 0.61 0.71 0.88 1.06 0.33 0.44 0.83 0.3 1.27 0.1 0.15 1.68-0.69 3.47-1.55 4.86-0.46 0.75-0.91 1.55-1.51 2.2-0.69 0.74-1.66 1.23-2.53 1.75-3.58 2.12-7.48 4.39-11.74 4.57m11.5-0.19c-0.68-0.45-1.25-1.43-1.24-2.26 0.67 0.27 1.81 1.51 1.24 2.26m13.01-2.45c0.81-0.45 1.63 0.44 1.49 1.26-0.77 0.03-1.4-0.48-1.49-1.26m-10.5-0.05c0.5-0.87 1.77-2 2.76-1.24 0.19-0.9-0.87-1.2-1.49-1.51 0.51-0.77 1.53-1.44 2.32-1.88 0.47-0.27 0.58-0.49 0.86 0.05 0.27 0.52 0.32 0.93 0.87 1.23 0.29 0.16 1.18-0.15 1.3-0.47 0.17-0.46 0.02-0.91-0.38-1.18-0.29-0.2-0.73-0.09-0.67-0.53 0.17-1.24 1.77-1.83 2.51-2.65 0.33-0.38 0.55-0.19 0.76 0.17 0.29 0.5 0.69 0.97 1.23 1.21 0.99 0.42-2.99 3.56-3.3 3.82-0.88 0.75-1.79 1.42-2.75 2.05-0.37 0.24-0.8 0.52-1.24 0.62-0.43 0.1-0.16-0.14-0.47-0.27-0.72-0.32-1.57 0.47-2.31 0.58m-10-1.05c1.3-0.9 2.39-2.58 2.27-4.24-0.69 0.5-0.79 1.51-1.19 2.2-0.29 0.52-1.47 1.36-1.08 2.04m17.26-0.92c0.11-0.77 1.02-1.41 1.76-1.49-0.04 0.45 0.02 0.99-0.41 1.24-0.45 0.27-0.84 0.25-1.35 0.25m-14.25-0.05c0.12-0.71 0.26-1.57 0.51-2.25 0.34-0.91 0.98-1 1.9-0.99 0.69 0-0.16 1.56-0.36 1.77-0.61 0.61-1.14 1.33-2.05 1.47m19.75-1.42c-0.38-0.76 0.55-1.5 1.26-1.49 0.11 0.79-0.55 1.32-1.26 1.49m-31.23-3.89c-0.64-0.55-1.36-0.72-2.13-0.34-0.53 0.26-1.3 1.23-1.94 1.05-1.13-0.31-1.4-1.56-1.75-2.55-0.44-1.23-1.32-2.89-0.65-4.18 0.91 0.47 1.7 0.8 2.75 0.6 0.79-0.15 2.11-0.55 2.51-1.32-0.66 0-1.31 0.1-1.96 0.23-0.58 0.12-1.19 0.53-1.8 0.29-0.19-0.08-0.87-0.22-0.96-0.41-0.22-0.43-0.62-0.97-0.68-1.46s0.26-0.94 0.16-1.43c1.31 0.04 2.32 1.66 3.74 1.12 0.56-0.21 1.31-0.64 1.65-1.15 0.35-0.51 0.67-1.33 1.36-1.45 0 0.67 0.01 1.35-0.15 2-0.15 0.6-0.51 1.13-0.62 1.75 1.63-1.04 1.34-3.89 1.17-5.51-0.11-1.08-0.31-2.14-0.5-3.2-0.16-0.95-0.34-2.14 0.26-2.98 0.78-1.09 3.04 0.15 4.13 0.21-0.01 0.53-0.28 1.04-0.51 1.5 0.93-0.55 1.37-2.01-0.01-2.31-1.27-0.28-2.48-0.68-3.72-0.17-0.4 0.17-1.23 0.54-1.4 0.95-0.26 0.63 0.6 1.49 0.75 2.1 0.26 1.03 0.13 2.1 0.13 3.15-0.62-0.1-1.16-0.54-1.75-0.76 0.17 0.33 0.33 0.67 0.5 1-0.59 0.28-1.27 0.05-1.88 0.2-0.71 0.18-1.4 0.42-2.12 0.53 0.1-0.64 0.49-1.17 0.76-1.75-0.75 0.26-1.22 1.13-2.01 1.24-0.63-3.72 0.64-7.5 2.19-10.83 0.63-1.36 1.26-2.75 1.94-4.08 0.61-1.19 1.42-2.46 2.74-2.95 2.57-0.96 5.12-0.83 7.75-0.25 2.69 0.59 4.94 1.94 7.2 3.46-0.59-1.14-1.73-1.73-2.8-2.35-1.31-0.76-2.57-1.21-4.03-1.61-1.39-0.39-2.85-0.78-4.31-0.66-1.29 0.1-2.53 0.82-3.84 0.72-1.37-0.1-0.92-1.87-0.82-2.84 0.11-1.07-0.31-2.06 0.82-2.74 1.33-0.79 3.12-1.88 4.71-1.95 0.64-0.03 1.26 0.43 1.89 0.26 0.4-0.11 1.27-0.72 1.68-0.59 0.13 0.04 0.32 0.42 0.44 0.54 0.66 0.68 1.5 0.36 2.32 0.52 0.51 0.1 0.9 0.47 1.34 0.73 0.46 0.27 0.96 0.36 1.46 0.53 0.82 0.29 1.56 1.07 2.21 1.63 0.74 0.65 1.51 1.58 1.91 2.48 0.37 0.83 0.34 1.97 0.21 2.85-0.14 0.96-0.2 2.16-0.76 2.98-0.9 1.32-3.06 1.83-3.19 3.63-0.19 2.59 0.06 5.26 0.3 7.84 0.24 2.62 0.35 5.22 0.38 7.85 0.01 0.92 0.31 2.18-0.17 3.01-0.46 0.81-0.97 2.03-1.73 2.57-0.84 0.6-1.81 0.76-2.57 1.55-0.85 0.88-1.15 2.04-1.85 3.02-1-0.61-1.41-2.11-2.52-2.54-0.79-0.31-1.18-0.69-1.77 0-0.26 0.29-0.46 0.5-0.5 0.9-0.02 0.26-0.03 0.62-0.24 0.81-0.93 0.79-2.3 1.71-3.46 1.04-0.39-0.22-1.25-0.75-1.25-1.25-0.01-0.83 0.14-1.04 0.99-1.23m32.74 2.15c0.05-0.36 0.4-0.58 0.75-0.5-0.17 0.27-0.49 0.32-0.75 0.5m-11.5-0.56c0.08-1.97 1.27-4.04 1.95-5.86 0.78-2.09 1.17-4.29 1.63-6.47 0.43-2.02 1.11-3.96 1.56-5.98 0.5-2.25 0.79-4.54 1.25-6.79 0.8-3.92 2.77-7.34 4.96-10.64 1.18-1.78 2.38-3.54 3.61-5.28 0.85-1.19 2.08-3.65 3.74-3.85 1.6-0.2 3.24 1.06 4.74 1.45-0.23 1.28-2.15 2.35-3.04 3.14-1.53 1.35-3.03 2.73-4.5 4.14-2.74 2.61-4.99 5.19-6.42 8.74-0.63 1.58-1.41 3.17-1.87 4.81-0.54 1.96-1.07 3.93-1.62 5.89-0.56 1.97-1.19 3.9-1.9 5.83-0.62 1.67-1.57 3.54-1.57 5.35 0.67-0.43 0.94-1.31 1.18-2.02 0.33-0.99 0.77-1.94 1.08-2.94 0.7-2.2 1.3-4.41 2.29-6.51 0.44 0.46 0.1 1.33 0.04 1.86-0.12 0.93-0.21 1.89-0.3 2.83-0.15 1.77-0.17 3.66-0.58 5.4-0.35 1.52-0.86 2.93-2.08 3.96-1.23 1.06-2.47 2.64-4.15 2.94m-29.49-1.62c-0.96-0.8-0.99-1.83-0.99-3 0.83 0.21 1.61 1.28 1.99 2.01-0.52 0.1-0.7 0.6-1 0.99m23-0.4c-0.15-0.8 1.05-0.52 0 0m13.75-0.19c-0.05-0.25 0.12-0.88 0.5-0.5s-0.25 0.55-0.5 0.5m-35.49-1.4c-0.41-0.24-0.63-0.51-0.83-0.94-0.47-1.05 0.66-1.45 0.96-0.32 0.09 0.37 0.16 0.95-0.13 1.26m21.25-0.16c0.12-0.52 0.23-1 0.76-1.25 0.05 0.58-0.05 1.37-0.76 1.25m-22.74-2.85c-1.07-3.31-0.78-6.68-1.3-10.07-0.28-1.78-0.68-3.47-1.28-5.17-0.34-0.97-1.17-2.69-0.21-3.56 1.57-1.42 3.95-2.42 6.02-2.86 0.42-0.09 1.13-0.31 1.12 0.22 0 0.94-0.49 1.86-0.82 2.71-0.39 1-0.86 1.98-1.2 3-0.33 0.99-0.59 2.01-0.78 3.04-0.19 0.99-0.53 2.19-0.46 3.2 0.13 2.09 0.66 3.97 0.26 6.09-0.15 0.77-0.27 1.49-0.35 2.26-0.08 0.59-0.31 1.15-1 1.14m29.25-0.13c0.17-0.26 2.33-3.62 1.93-3.78-0.45-0.17-0.57-0.5-0.66-0.97-0.67 0.32-1.22 0.76-2 0.74 0.02 0.59 0.22 1.16 0.36 1.73 0.14 0.58 0.1 1.18 0.13 1.77-0.28-0.01-0.57-0.06-0.84-0.13-0.92-0.2-0.68-0.85-0.63-1.72 0.08-1.21 0.34-2.4 0.52-3.6 0.17-1.12 0.19-2.29 0.55-3.37 0.29-0.86 1.02-1.59 1.21-2.46 0.14-0.65-0.46-1.33-0.4-2.04 0.04-0.57 0.32-1.22 0.65-1.68-1.06-0.35-0.99-1.63-0.89-2.53 0.17-1.47 0.25-2.94 0.28-4.42 0.03-1.75-0.09-3.4 0.14-5.14 0.1-0.8 0.34-1.5 0.68-2.22 0.31-0.65 0.97-1.22 1.1-1.93-0.36-0.08-0.69-0.18-1.04-0.29-0.49-0.16-0.46-0.29-0.34-0.75 0.21-0.76 0.53-1.52 0.89-2.22-0.29-0.08-0.8-0.06-0.96-0.37-0.25-0.49 0.09-1.49 0.19-2 0.23-1.12 2.22-1.31 3.1-1.56 2.03-0.58 3.99-1.38 6.05-1.84 0.66-0.15 4.8-0.83 4.57 0.68-0.13 0.8-0.86 1.67-1.26 2.36-0.58 1-1.15 2.01-1.69 3.03-0.41 0.78-0.77 1.59-1.26 2.33-0.41 0.61-1.14 1.11-1.4 1.79-0.22 0.58-0.28 1.22-0.37 1.83-0.15 0.93-0.46 1.84-0.71 2.75-0.56 2.08-0.94 4.18-1.31 6.29-0.17 0.98-0.36 1.95-0.57 2.92-0.08 0.38-0.16 0.78-0.38 1.11-0.16 0.23-0.83 0.39-0.83 0.6 0.01 0.38 0.44 2 0.04 2.18-0.41 0.18-0.87 0.28-1.3 0.41 0.09 0.5 0.39 0.93 0.52 1.42 0.16 0.57 0.1 1.18 0.1 1.76 0 1.34-0.53 2.6-0.88 3.87-0.33 1.19-0.47 2.57-1.05 3.67-0.3 0.56-1.56 1.9-2.24 1.78m-6.73-3.27c-0.67 0.11-1.23 0.71-1.82 1.02-0.65 0.33-1.32 0.66-2.06 0.69-0.85 0.04-1.71 0.25-2.56 0.2-0.68-0.05-1.37-0.32-2.05-0.2 0.67 2 3.28 1.25 4.73 0.87 1.45-0.39 3.29-0.97 3.76-2.58m-8.76 2.2c-0.22-0.51-0.41-0.88-1-1 0.22 0.41 0.48 0.93 1 1m6.28-7.96c0.15 0.43 0.36 0.82 0.49 1.25-1.95 0-3.8-0.51-5.75-0.02 0.14-0.58 0.49-1.14 0.51-1.75-0.77 0.22-1.78 1.07-2.12 1.76-0.36 0.75-0.56 0.84-0.13 1.54 0.29 0.48 0.72 0.81 1.22 1.07 1.06 0.55 2.06 0.54 3.21 0.49 0.91-0.05 1.8-1.32 2.79-1.09-1.25 0.99-3.58 2.56-5.25 1.83-0.53-0.24-0.98-0.59-1.5-0.86 0.13 1.08 1.54 1.73 2.49 1.75 1.08 0.03 2.05-0.47 2.97-0.98 0.9-0.5 1.93-0.93 2.71-1.6 0.33-0.28 0.26-0.34 0.2-0.79-0.09-0.89-0.88-2.41-1.84-2.6m-16.52 4.68c0.3-0.21 0.63-0.29 1-0.25-0.11-0.46-0.07-1.15 0.51-1.25 0 0.33-0.17 0.81 0.02 1.12s1.15 0.12 1.47 0.14c-0.57 0.99-2.21 0.81-3 0.24m12.5-0.71c-0.27-0.16-0.25-0.4-0.25-0.67 0-0.18 0.65-0.08 0.75-0.08-0.12 0.3-0.22 0.56-0.5 0.75m-1.24-0.76c0.17-1.19 2.15-2.02 2.75-0.74-0.5-0.13-1.06-0.19-1.53 0.07-0.4 0.23-0.75 0.61-1.22 0.67m-1-0.25c-0.05-0.25 0.13-0.88 0.5-0.5 0.38 0.4-0.25 0.56-0.5 0.5m-10.17-0.2v-0.17h0.08c0.02 0.1-0.05 0.09-0.08 0.17m2.92-0.07c-0.51-0.26-0.96-0.49-1.25-1.01 0.41 0.06 1.66 0.41 1.25 1.01m12.5-0.2c0.05-0.36 0.4-0.58 0.75-0.5-0.17 0.28-0.46 0.37-0.75 0.5m-21-0.35c-0.67-0.88-1.04-1.95-1.47-2.96-0.46-1.08-0.99-2.12-1.5-3.17-1.08-2.19-2.34-4.31-3.63-6.39-1.31-2.11-2.81-4.05-4.34-6-0.74-0.94-1.48-1.89-2.27-2.79-0.39-0.44-0.79-0.88-1.22-1.29-0.16-0.15-1.23-0.88-1.19-1.08 0.29-1.38 1.33-2.45 2.07-3.6 0.46-0.71 1.26-2.06 2.22-1.18 4.22 3.84 6.65 9.54 9.36 14.45 0.7 1.26-0.02 2.31 0.1 3.62 0.11 1.23 0.74 2.39 1.09 3.57 0.38 1.27 0.65 2.51 0.88 3.82 0.15 0.9 0.53 2.21-0.1 3m14.3-9.69c-0.41-0.34-1-0.25-1.5-0.26 0.33-0.24 1.9-1.05 2.1-0.46 0.09 0.24 0.28 0.49 0.4 0.73 0.2-0.15 0.98-1.1 0.69-1.29-1.22-0.77-2.75-0.36-4.1-0.22-0.59 0.06-2.74 0.26-2.71 1.23 0.03 0.63 1.03 0.75 1.53 0.76 1.19 0.02 2.54 0.18 3.59-0.49m-3.75-0.01c-0.07-0.85 1.16-0.5 1.76-0.49-0.43 0.42-1.19 0.49-1.76 0.49m30.5-1.36c0.58-3.74 2.92-6.9 5.45-9.59 1.39-1.47 2.88-2.82 4.37-4.18 1.49-1.37 2.89-3.04 4.66-4.07 1.33-0.77 2.78-0.2 4.2-0.21 1.59-0.01 3.13-0.46 4.65-0.86-0.46 0.96-1.35 1.61-2.13 2.29-0.97 0.85-1.92 1.71-2.9 2.54-2.08 1.76-3.98 3.71-6.03 5.5-1.95 1.7-4.05 3.18-6.2 4.61-1.11 0.74-2.24 1.49-3.27 2.34-0.78 0.68-1.7 1.59-2.8 1.63m-6.25-0.04c0.45-0.57 0.43-1.18 0.01-1.75-0.76 0.35-0.65 1.35-0.01 1.75m-24.5-0.6c0.83-0.74 1.31-1.09 2.43-1.08 0.79 0 1.32 0.72 2.07 0.85-0.12-0.68-0.44-0.96-0.95-1.38-0.24-0.2-1.29-0.44-1.6-0.38-0.69 0.16-2.75 0.93-1.95 1.99m26.51-1.39c0.13-0.99-0.68-1.25-1.5-1.26 0.08 1.1 0.39 1.35 1.5 1.26m-37.5-0.16c-1.94-3.03-3.58-6.25-5.53-9.28-0.92-1.44-1.92-2.85-2.95-4.22-0.7-0.92-2.14-2.07-2.2-3.29-0.02-0.39 0.29-1.1 0.51-1.43 0.39-0.57 0.82-0.63 1.46-0.75 1.02-0.19 2.12 0.29 3.02 0.72 1.46 0.7 1.92 2.48 2.39 3.89 0.71 2.13 1.59 4.21 2.35 6.33 0.61 1.69 1.23 3.39 1.82 5.09 0.39 1.12 0.64 2.63-0.87 2.94m35.25-0.35c-0.09-0.4-0.32-0.72-0.75-0.81-0.43-0.08-1.31 0.16-0.9 0.74 0.34 0.49 1.22 0.3 1.65 0.07m-20.49-1.09c-0.45-0.33-1.04-0.03-1.54-0.09-0.71-0.08-1.58-0.59-2.21-0.92 0.14 1.02 0.95 1.26 1.8 1.52 0.73 0.22 1.33-0.11 1.95-0.51m-12.5 0.21c0-0.71 0.18-1.51-0.28-2.11-0.5-0.65-1.1-1.3-1.2-2.16 0.9 0.23 1.44 1.29 2.24 1.76 0.28-1.13 0.26-2.29 0.26-3.44 0-0.42-0.17-0.32-0.54-0.39-0.47-0.09-0.81-0.45-1.21-0.68 0.07 0.66-0.77 2.07-1.38 1.08-0.87-1.41-1.32-3.13-1.89-4.68-0.67-1.8-1.32-3.6-2-5.39-0.15-0.4-0.28-0.65 0.28-0.7 0.73-0.06 2.16-0.33 2.82 0.02 0.48 0.25 0.96 0.32 1.03 0.87 0.05 0.44-0.04 1.03 0.19 1.42 0.46 0.78 0.93 1.64 1.73 2.13 0.03-1.14 0-2.44 0.52-3.5 0.71 0.42 0.87 1.33 1.06 2.05 0.07 0.27 0.23 0.65 0.13 0.92-0.1 0.3-1.18 0.64-1.46 0.78 0.53 0.41 1.14 0.57 1.74 0.86 0.42 0.2 0.43 1.12 0.48 1.51 0.12 0.93 0.32 1.86 0.47 2.79 0.26 1.53 1.02 3.55 0.65 5.09-0.2 0.86-0.74 0.85-1.54 1.12-0.22 0.07-1.1-0.72-1.35-0.86 0 0.56-0.27 1.2-0.75 1.51m33.5-0.12c0.21-0.75 0.63-1.41 0.81-2.18 0.2-0.81-0.51-1.51-0.54-2.32-2.11 0.43-1.46 3.47-0.27 4.5m-12.5-0.79c-0.09-0.59-0.45-1.23-0.99-1.5 0.09 0.57 0.5 1.19 0.99 1.5m-18.49-1.83c-0.3-0.03-0.64 0-0.92 0.11-0.47 0.19-0.28 0.45-0.16 0.89 0.21 0.76 1.17-0.43 1.08-1m16.99 1.07c-0.1-0.36-0.31-0.68-0.49-1-0.27 0.37 0.08 0.92 0.49 1m-14.75-0.31c-0.69-0.72-0.61-2.02-0.7-2.94-0.15-1.44-0.48-2.86-0.52-4.32 0.92 0.9 0.68 2.49 0.99 3.64 0.26 1 0.99 2.68 0.23 3.62m13.26-0.44c0.16-0.8-1.05-0.54 0 0m-1.5-0.27c-0.13-0.29-0.19-0.6-0.5-0.75 0.12 0.3 0.24 0.55 0.5 0.75m-0.75 0c-0.22-0.29-0.4-0.61-0.75-0.75 0.03 0.39 0.35 0.73 0.75 0.75m-10.25-0.29c0.16-0.89-0.27-1.8-0.41-2.67-0.19-1.17-0.27-2.4-0.32-3.59 0.64 0.61 0.62 1.73 0.76 2.53 0.22 1.26 0.41 2.43 0.46 3.72-0.16 0.01-0.33 0.02-0.49 0.01m33.01-2.1c0.05-1.29 0.71-2.44 1.24-3.58 0.57-1.22 1.14-2.44 1.72-3.66 0.53-1.13 1.05-2.27 1.69-3.35 0.43-0.72 1.1-2.15 2.07-2.19 0.63-0.02 1.24-0.11 1.84 0.09 0.55 0.19 0.52 0.29 0.26 0.77-0.55 1.04-1.38 1.96-2.08 2.9-0.83 1.12-1.65 2.25-2.47 3.38-0.73 1-1.43 2.03-2.13 3.05-0.61 0.92-1.16 2.01-2.14 2.59m-10-0.5c-0.19-0.04-0.65-0.38-0.64-0.58 0.01-0.1 0.55-0.77 0.64-0.79 0.24-0.06 0.64 0.36 0.64 0.58 0 0.29-0.47 0.58-0.64 0.79m9.27-3.51c-0.58 0.33-0.82 1.16-0.51 1.75 0.8-0.23 0.98-1.13 0.51-1.75m-11-0.3c0.59-0.15 0.53 0.32 0.75 0.75 0.26-0.44 0.78-0.37 0.75 0.15-0.05 0.71-1.52 0.94-1.64 0.22-0.07-0.4-0.06-0.75 0.14-1.12m10.5-1.2c-0.59 0.1-1.64 0.35-0.91 0.99 0.21 0.18 0.66 0.12 0.86-0.05 0.28-0.25 0.13-0.63 0.05-0.94m-20.23-3.6c-0.46-0.66-1.53-1.67-2.4-1.31-0.9 0.36-1.39 0.42-2.34 0.3-0.85-0.11-1.52 0.38-2.26 0.73-0.72 0.35-1.31 0.49-1.91 1.06-0.62 0.58-1.31 1.27-2.16 1.48-0.56 0.14-0.87 0.21-1.22-0.37-0.48-0.78-3.99-6.6-2.48-6.79 2.95-0.37 5.55-1.65 8.27-2.73 1.36-0.54 2.35-0.67 3.79-0.33 1.46 0.35 2.93 0.54 4.4 0.84 1.14 0.23 2.38-0.03 3.53-0.14 0.51-0.05 2.02-0.39 2.38 0.15 1.22 1.86 2.21 3.86 3.38 5.76 0.5 0.8 1.19 1.59 1.39 2.54 0.25 1.16-0.08 2.47-0.15 3.64-1-0.01-1.72-0.75-2.34-1.45-0.74-0.84-1.51-1.3-2.49-1.84-0.46-0.26-0.8-0.6-1.22-0.92-0.5-0.38-1.1-0.44-1.7-0.48-1.05-0.07-1.92-1.07-2.98-0.76-0.52 0.15-0.95 0.51-1.49 0.62m-10.77 4.72c-0.05-0.25 0.12-0.88 0.5-0.5s-0.25 0.55-0.5 0.5m-5.5-0.03c0.09-0.35 0.07-2.33-0.74-1.75-0.66 0.46 0.16 1.68 0.74 1.75m23.76-2.14c0.22 0.3 0.29 0.62 0.24 1 0.27-0.32 0.51-0.66 0.76-1 0.58 0.37 0.52 1.74-0.26 1.83-0.96 0.09-1.04-1.24-0.74-1.83m-17.75-0.33c0.21 0.22 0.19 0.46 0.25 0.75 0.28-0.24 0.51-0.46 0.75-0.75 0.38 0.25 0.59 1.35-0.06 1.44-0.13 0.02-0.86-0.38-0.94-0.48-0.18-0.23-0.09-0.71 0-0.96m-9.71-9.79c0.82-0.44 1.88-0.47 2.79-0.49 1.36-0.04 2.68-0.32 4-0.62 1.21-0.28 2.42-0.57 3.59-1.02 1.16-0.44 2.14-1.31 3.29-1.7 1.15-0.4 2.24 0 3.38 0.29 1.31 0.33 2.66 0.54 3.99 0.75 1.39 0.22 2.77 0.14 4.17 0.12 1.18-0.02 2.28-0.63 3.47-0.53 0.68 0.06 1.13 0.22 1.36 0.96 0.5 1.61 1.11 3.1 1.84 4.62 0.34 0.71 0.79 1.38 0.89 2.18 0.1 0.77-0.06 1.56-0.06 2.33-1.19-0.01-1.83-1.54-2.31-2.41-0.41-0.74-0.77-1.52-1.06-2.32-0.2-0.56-0.26-1.37-0.68-1.82-0.58-0.63-0.66-0.72-1.51-0.76-0.94-0.05-1.87 0.23-2.79 0.39-1.2 0.21-2.32-0.07-3.52-0.14-1.04-0.07-2.09-0.24-3.08-0.59-0.99-0.36-2.12-0.94-3.14-0.35-1.59 0.93-3.29 1.86-5.07 2.36-1.91 0.54-3.91 0.7-5.82 1.27 0.4 1.61 1.25 3.12 2.1 4.53 0.78 1.29 1.87 2.66 1.86 4.24-0.43-0.01-1.37 0.09-1.69-0.31-1.16-1.5-0.48-3.82-1.79-5.22-0.41-0.44-1.04-0.5-1.55-0.76-0.54-0.28-0.9-0.68-1.24-1.18-0.8-1.16-1.08-2.48-1.42-3.82m2.46 10.01c-0.26-0.08-0.57-0.24-0.85-0.13-0.21 0.08-0.59 0.48-0.41 0.76 0.43 0.65 1.11-0.32 1.26-0.63m41-1.07c-0.69-0.48-1.03-1.16-0.99-2-0.5 0.28-0.88 0.73-1.36 1.04-0.5 0.32-0.65 0.15-0.59 0.77 0.03 0.32-0.03 0.93 0.15 1.21 0.41 0.68 0.89 1.18 1.67 0.48 0.45-0.4 1.01-0.89 1.12-1.5m-19.25-0.34c0.16 0.01 1.99 0.28 1.99 0.37 0 0.31-0.09 0.49-0.2 0.78-0.15 0.4-0.9 0.53-1.25 0.37-0.47-0.25-0.45-1.08-0.54-1.52m-12 1.44c0-0.43 0.05-0.87 0.25-1.25-0.33 0.16-0.67 0.33-1 0.49-0.01-0.38 0.06-0.67 0.31-0.95 0.14-0.16 0.86-0.14 0.93 0.08 0.24 0.68 0.68 1.66-0.49 1.63m9.01-2.45c0.47 0.13 1.53 0.33 1.5 0.9-0.01 0.1-0.17 0.44-0.22 0.49-0.33 0.27-1.09 0.2-1.34-0.12-0.27-0.32-0.12-0.93 0.06-1.27m-4.25 0.22c0.63-0.27 1.32-0.63 2-0.74 0.16 0.53 0.28 1.43-0.34 1.72-0.68 0.32-1.52-0.29-1.66-0.98m-3.25-0.01c0.48-0.11 0.79-0.18 0.97-0.66 0.1-0.27 0.98 0.38 0.88 0.71-0.15 0.53-0.14 1.2-0.86 1.13-0.56-0.05-0.99-0.66-0.99-1.18m47.25-1.62c-1.02 0.07-2.29 0.26-3.24-0.24-0.47-0.24-0.87-0.63-0.78-1.12 0.2-1.1 1-2.11 1.63-3 0.66-0.92 1.4-1.78 2.25-2.51 0.87-0.75 1.87-1.4 2.9-1.92 0.91-0.46 2.42-0.99 3.42-0.62 0.45 0.17 0.38 0.19 0.41 0.68 0.08 1.59-1.5 3.58-2.44 4.76-1.24 1.52-2.42 3-4.15 3.97m3.26-0.65c0.04-1.67 1.41-2.99 2.26-4.3 1.07-1.66 2.22-3.53 2.79-5.43 0.7 0.5 0.72 1.8 0.74 2.57 0.03 1.27-0.32 2.51-0.84 3.66-0.85 1.86-2.55 4.26-4.95 3.5m-10-1.06c0.42-1.5 1.46-2.78 2.43-3.96 1.04-1.26 2.18-2.41 3.47-3.41 1.3-1.02 2.68-1.89 4.27-2.38 1.35-0.41 3.04-0.88 4.38-0.19-0.45 1.32-2.2 1.45-3.35 1.67-1.68 0.32-3.24 1.21-4.48 2.37-1.37 1.27-2.68 2.75-3.69 4.32-0.7 1.09-1.58 2.63-3.03 1.58m-55.98-4.74c0.94 0.03 1.17 1.09 1.43 1.8 0.16 0.42 1.27 2.48 0.4 2.59-1.36 0.19-1.83-3.44-1.83-4.39m-1.74-1.51c1.1 0.21 1.2 1.8 1.41 2.66 0.19 0.82 1.01 2.55 0 3.14-0.3 0.17-1.26-0.04-1.32-0.45-0.28-1.73-0.1-3.6-0.09-5.35m-4.52 4.74c0.05-1.95 1.98-3.97 3.03-5.49 0.86 0.5 0.97 1.81 1.01 2.69 0.04 0.89 0.19 2.35-0.29 3.12-0.61 1-3.01-0.13-3.75-0.32m24.1-22.65c0.71-0.38 2.49-0.28 2.21 0.91-0.25 1.07-0.98 1.99-2.24 1.77-0.55-0.1-1.08-0.02-1.37-0.51-0.27-0.47-0.8-1.08-0.83-1.63-0.06-1.36 0.21-2.53 1.15-3.54 0.87-0.93 1.41-1.83 2.61-2.38 1.27-0.57 2.65-1.03 4.04-1.05 1.56-0.02 3.23-0.24 4.75 0.21 4.35 1.34 6.79 5.4 7.52 9.73 0.3 1.78 0.41 3.59 0.66 5.38 0.12 0.84 0.22 1.52 0.08 2.35s0.07 1.75 0.13 2.58c0.1 1.62 0.2 3.27 0.42 4.88 0.11 0.78 0.22 1.57 0.34 2.34 0.11 0.71 0.55 1.58 0.41 2.3-1.7 0.06-1.7-2.89-1.83-4-0.28-2.4-0.5-4.85-0.62-7.26-0.11-2.4-0.09-4.75-0.57-7.12-0.44-2.19-1.3-4.23-2.49-6.12-1.63-2.58-4.97-3.79-7.88-3.81-2.19-0.02-4.88 0.83-6.18 2.73-0.53 0.8-0.5 1.36-0.31 2.24m34.65 23.15c-0.03-2.24 1.87-4.08 3.15-5.73 1.63-2.1 3.37-4.18 5.4-5.9 1.92-1.62 4.15-2.83 6.46-3.8 1.17-0.49 2.41-0.89 3.68-0.94 1.23-0.05 2.57-0.24 3.72 0.31 0.41 0.2 0.39 0.07 0.3 0.55-0.2 0.94-1.32 2.14-1.98 2.8-0.75 0.75-1.68 1.42-2.67 1.82-0.67 0.28-0.76 0.18-1.04-0.45-0.22-0.51-0.62-1.07-0.72-1.6-0.74 0.81-1.41 1.81-1.91 2.79-0.38 0.75-2.32-1.43-2.84-1.56 0 0.96-0.12 2.04-0.49 2.94-0.12 0.28-2.45-0.98-2.77-1.2-0.29 0.95 0.57 3.67-1.17 3.34-0.6-0.12-1.6-0.44-1.75 0.38-0.13 0.74 0.09 1.43 0.03 2.18-0.06 0.78-1.15 0.52-1.63 0.64-1.87 0.46 0.03 2.77-1.56 3.18-0.78 0.21-1.41 0.25-2.21 0.25m-17.25-0.08c-0.48-0.54-1.7-2.76-0.32-2.75 0.59 0 0.62 2.38 0.32 2.75m4.25-0.29c-1.82 0.16-2.04-3.09-2.14-4.28-0.25-3.05-0.08-6.13-0.46-9.18-0.38-3.12-0.42-6.45-1.64-9.39-1.02-2.47-2.9-5.35-5.43-6.47-0.84-0.37-1.7-0.68-2.6-0.84-0.86-0.16-2.02-0.46-2.89-0.3-1.04 0.19-2.09 0.28-3.11 0.57-0.47 0.13-2.02 0.92-2.31 0.17-0.42-1.04 0.02-2.27 0.3-3.29 0.15-0.55 1-0.34 1.4-0.34 1.09 0 2.19 0.09 3.26 0.3 2.21 0.45 4.44 0.76 6.64 1.27 2.19 0.51 4.36 1.22 6.47 2.01 1.67 0.63 3.94 1.24 5.22 2.55 0.53 0.55 1.12 1.07 1.5 1.74 0.49 0.87 0.46 2.01 0.57 2.98 0.23 2.19 0.1 4.46 0.17 6.66 0.07 2.11-0.19 4.19-0.15 6.31 0.04 2.21 0.16 4.46-0.04 6.67-0.08 0.86-0.5 1.36-1.28 1.68-1.14 0.47-2.31 0.86-3.48 1.18m11.5-0.29c-0.87-0.17-2.34-0.85-2.11-1.95 0.31-1.43 1.15-2.71 1.91-3.94 0.89-1.45 1.92-2.8 2.95-4.16 1.89-2.51 4.09-4.63 6.74-6.34 2.51-1.62 5.47-3.12 8.42-3.71 1.69-0.34 3.41-0.58 5.14-0.56 1.36 0.02 3.54-0.12 4.59 0.9 0.3 0.29 0 1.15-0.25 1.47-0.68 0.89-1.37 1.85-2.47 2.2-1.04 0.33-2.25-0.33-3.31-0.35-1.37-0.04-2.72 0.16-4.01 0.62-2.67 0.95-5.4 2.51-7.57 4.32-2.22 1.85-4.29 3.92-6 6.25-0.74 1.01-1.55 2.02-2.13 3.13-0.39 0.74-0.91 2.09-1.9 2.12m-5.43-17.36c1.09 0.59 1.46 1.88 2.49 2.51-0.22-1.37-1.24-2.61-2.09-3.65-0.68-0.84-0.81-3.04 0.37-3.6 0.25 0.52 0.2 1.19 0.24 1.75 0.34-0.05 0.67-0.15 1-0.25 0 0.58 0 1.17-0.01 1.75 1.34 0.04 2.04-1.02 2.86-1.89 1.02-1.07 2.11-2.27 3.43-2.97 1.05-0.55 2.63-1.03 3.04-2.27 0.48-1.45 0.42-2.97 1.21-4.33 1.26 0.69 0.89 2.21 0.63 3.35-0.21 0.92 0.02 2.83-0.89 3.38-1.92 1.15-4.07 2.25-5.66 3.86-1.18 1.19-3.08 2.85-3.16 4.63 0.88-0.98 1.58-2.11 2.41-3.13 0.78-0.95 1.74-1.68 2.75-2.36 0.86-0.58 1.68-1.07 2.63-1.49 0.77-0.34 1.67-0.77 1.97-1.63 0.44-1.28 0.23-2.71 1.04-3.86 0.85 0.52 1.37 1.42 1.96 2.19 0.67 0.89 1.59 1.54 2.49 2.19 2.53 1.81 6.42 0.68 9.16 0.06 1.72-0.39 3.43-0.81 5.14-1.24 1.19-0.3 2.75-1.12 3.99-0.85-0.63 1.68-1.75 4.94-4.05 4.44-3.48-0.74-6.69-0.9-10.15 0.01-3.29 0.86-6.44 2.35-9.18 4.36-2.66 1.95-4.91 4.41-6.9 7.02-1.09 1.43-2.06 2.91-3.01 4.44-0.58 0.94-1.03 2.72-2.06 3.25-2.14 1.09-1.84-2.72-1.77-3.82 0.23-3.93 0.19-7.92 0.12-11.85m6.19 15.27c-0.13-0.43-0.43-0.56-0.81-0.73-0.66-0.3-0.44 0.58-0.45 0.97 0.43 0.01 0.87-0.05 1.26-0.24m-17.46-8.58c0.02 1.36 0.4 2.68 0.45 4.03 0.02 0.71 0.14 1.43 0 2.13-0.06 0.29 0.01 0.91-0.27 1.1-0.19 0.13-0.71 0.67-0.95 0.43-0.55-0.53-0.77-1.23-1-1.94-0.2-0.59-0.63-1.4-0.43-2.04 0.31-1 0.96-3.48 2.2-3.71m-32.78 6.1c0.12-0.69 0.29-1.47 0.61-2.1 0.21-0.4 0.2-0.47 0.65-0.18s1.17 1.16 1.2 1.71c0.05 0.68 0.12 0.68-0.51 0.96-0.58 0.26-1.47-0.03-1.95-0.39m4.75 0.29c-0.53-1.01 0.96-4.73 2.13-3.12 0.42 0.58 1.08 1.7 0.5 2.36-0.42 0.47-2.06 0.61-2.63 0.76m-6-0.04c-1.02-0.55-2.04-1.8-1.99-3.01 0.84 0.17 2.54 2.15 1.99 3.01m4.5-0.72c-0.88-1.24-2.08-2.66-1.6-4.31 0.28-0.96 0.63-1.89 0.95-2.83 0.12-0.35 0.58-1.67 1.06-0.9 0.61 0.97 2 2.86 1.69 4.04-0.23 0.86-0.91 4.22-2.1 4m48.7-0.3c0.19-0.13 0.48-0.43 0.38-0.7-0.12-0.33-0.63-0.27-0.96-0.32 0 0.43-0.18 1.45 0.58 1.02m-52.7-0.23c-0.78-0.95-1.26-1.57-1.65-2.72-0.16-0.49 0.85-2.64 1.45-2.43 1.8 0.63 1.6 4.28 0.2 5.15m10-0.19c0.13-0.8 0.45-1.58 0.72-2.34 0.33-0.94 1.1-1.19 1.79-0.4 1.48 1.67-1.12 2.74-2.51 2.74m-0.99-0.51c-0.61-0.82-1.71-2.06-1.69-3.16 0.03-1.3 0.73-2.64 1.12-3.85 0.13-0.41 0.12-0.62 0.61-0.37 0.97 0.5 1.94 2.57 1.75 3.59-0.23 1.16-0.65 3.14-1.79 3.79m16.5-0.18c0-1.14 0.66-2.13 1.14-3.11 0.4-0.8 0.81-1.69 1.64-2.13 0.86 1.41 1.58 2.62 1.51 4.31-0.06 0.95-3.71 0.92-4.29 0.93m-3.73-5.51c0.83-0.16 1.04 1.43 1.24 1.98 0.43 1.15 0.99 2.27 0.99 3.53-0.95-0.01-2.7 0.22-3.53-0.32-0.5-0.34-0.46-0.37-0.49-0.97-0.03-0.8 0.42-1.5 0.77-2.18 0.34-0.68 0.61-1.4 1.02-2.04m2.73 4.51c-0.55-1.75-2.04-3.63-2.03-5.51 0.01-1.1 0.72-2.1 1.15-3.08 0.21-0.49 0.54-2.06 1.31-1.79 0.78 0.28 1.12 1.32 1.42 2 0.43 0.96 1.16 2.02 1 3.13-0.18 1.17-0.79 2.23-1.22 3.32-0.26 0.64-0.73 2.01-1.63 1.93m-9.75-0.55c0.04-0.96 0.52-2.26 1.08-3.05 0.65-0.97 1.12-0.12 1.42 0.63 0.31 0.79 0.9 2.05 0.75 2.92-1.06 0.05-2.25-0.68-3.25-0.5m-1.25-0.01c-0.83-0.87-1.64-1.74-1.59-2.99 0.05-1.19 0.54-2.38 0.87-3.52 0.56 0.55 0.75 1.77 0.99 2.5 0.67-0.81 0.63-1.73 0.76-2.75 1.48 0.78 1.02 2.23 0.81 3.57-0.16 1.05-0.9 2.65-1.84 3.19m17-0.17c-0.49-1.58-1.71-2.87-1.9-4.56-0.11-0.84 0.55-1.68 0.85-2.42 0.23-0.6 0.56-1.61 1.31-1.72 0.5-0.08 0.85 1.07 0.99 1.39 0.4 0.93 1.02 1.76 1.02 2.82 0.01 1.05-0.5 2-0.88 2.95-0.22 0.59-0.6 1.63-1.39 1.54m-12-0.06c-0.54-1.74-2.12-3.67-1.41-5.56 0.38-0.99 0.84-1.95 1.24-2.94 0.18-0.44 0.3-0.63 0.77-0.34 0.46 0.29 0.81 0.7 1.18 1.1-0.21-0.59-1.08-1.67-0.94-2.28 0.25-1.08 0.51-2.12 0.89-3.16 0.22-0.6 0.45-1.73 1.08-2.06 0.95-0.49 2.59 3.91 2.81 4.43 0.31 0.73-0.37 1.77-0.69 2.4-0.24 0.48-0.53 0.96-0.72 1.47-0.08 0.22-0.2 0.86-0.43 0.96-0.52 0.22-1.7-1.43-1.99-1.76 0.15 0.76 0.69 1.37 0.88 2.13 0.18 0.72 0.14 1.42-0.07 2.14-0.33 1.08-1.25 3.46-2.6 3.47m37.39-1.09v-1.01c-0.43 0-0.91-0.11-1.01 0.42-0.11 0.63 0.59 0.55 1.01 0.59m-54.63-0.22c-0.25-0.55-0.48-1.1-0.62-1.69-0.13-0.61 0.15-1.21 0.3-1.78 0.14-0.55 0.63-0.96 0.94-1.42 0.33-0.5 0.62-1.05 1.16-1.35 0.36 1.2 0.4 1.98-0.01 3.21-0.24 0.71-0.73 3.23-1.77 3.03m5-0.98c-0.57-1.63-1.77-2.93-1.64-4.74 0.11-1.66 0.91-3.44 1.44-5.02 1.28 1.03 1.76 3.49 2.18 4.98 0.27 0.95-0.46 1.99-0.69 2.89-0.15 0.59-0.39 2.06-1.29 1.89m5.54-7.73c-0.24 1-1.25 1.37-0.76 2.5 0.42-0.23 0.76-0.5 0.99-0.93 0.09-0.17 0.35-0.85 0.62-0.8 0.96 0.18 1.62 0.51 1.89 1.49-0.39-0.15-0.73-0.25-1.15-0.26-0.1 0-0.57-0.86-0.85-1 0.09 0.79-0.52 1.39-0.75 2.09-0.34 1.04-0.01 2.31-0.27 3.4-1-0.14-2.21-2.47-2.14-3.39 0.06-0.81 0.03-1.64 0.57-2.32 0.35-0.44 1.28-0.9 1.85-0.78m47.73 4.21c-0.26-0.04-0.59 0-0.8 0.18-0.18 0.16-0.39 0.7-0.21 0.94 0.15 0.19 0.73 0.12 0.82-0.09 0.16-0.34 0.16-0.66 0.19-1.03m-43.5 0.05c-0.45-0.89-0.68-2.03-0.97-2.98-0.37-1.21 0.48-2.09 1.74-2.01 1.44 0.09 1.34 1.29 0.94 2.32-0.26 0.67-0.74 2.87-1.71 2.67m17.25-0.17c-0.82-0.76-1.29-1.9-1.79-2.88-0.64-1.26 0.1-2.12 0.32-3.37 1.05 0.22 1.14 2.03 1.26 2.85 0.13 0.9 0.94 2.62 0.21 3.4m-5.5-0.02c-0.96-1.56-1.91-2.98-2.36-4.78-0.2-0.82 0.52-1.87 0.87-2.57 0.26-0.51 0.62-1.73 1.52-1.15 0.35 0.22 0.8 1.39 0.99 1.74 0.44 0.8 0.83 1.63 1.08 2.51 0.26 0.91-0.48 1.81-0.78 2.62-0.19 0.5-0.55 1.78-1.32 1.63m35.7-1.34c0.63-0.27 0.11-1.68-0.64-1.26-0.59 0.34-0.1 1.64 0.64 1.26m-48.18-2.72c-0.27 0.51-0.02 2.08 0.74 1.63 0.96-0.55-0.09-1.43-0.74-1.63m-6.76 1.48c-0.27-0.16-0.25-0.4-0.25-0.67 0-0.19 0.65-0.08 0.75-0.07-0.12 0.28-0.22 0.55-0.5 0.74m58.89-0.49c0.05-0.15 0.27-0.56 0.23-0.7-0.06-0.18-0.57-0.42-0.74-0.31-0.54 0.34 0.02 1.29 0.51 1.01m7.86-0.23c0.02-0.18 0-1.14-0.24-1.25-0.45-0.2-0.89 0.77-1 1 0.38 0.21 0.82 0.24 1.24 0.25m-3.49-1.51c-0.5 0-1.95-0.04-1.25 0.72 0.58 0.63 1.4 0.11 1.25-0.72m-59.98-5.26c0.2 0 1.75-0.04 1.75 0.04 0.02 1.03 0.09 1.95 0.4 2.94 0.3 0.98 0.5 1.75 0.16 2.75-0.17 0.49-0.99 0.04-1.17-0.35-0.4-0.87-0.57-1.5-0.7-2.45-0.14-0.98-0.45-1.94-0.44-2.93m-2.01 3.24c0.43-1.61-1.71-2.83-0.85-4.3 0.3-0.51 1.27 0.6 1.49 0.92 0.54 0.79 1.01 1.48 1.17 2.45 0.19 1.08-0.02 1.53-0.47 2.53-0.31 0.68-1.2 0.97-1.92 0.83-1.21-0.24-1.43-0.46-1.35-1.68 0.03-0.35-0.01-0.83 0.49-0.83 0.48-0.02 0.99-0.1 1.44 0.08m20.24 1.34c-0.52-0.97-1.14-1.88-1.65-2.87-0.36-0.71-1.44-3.37 0.32-2.69 1.29 0.49 2.01 1.88 2.6 3 0.4 0.77-0.2 1.65-0.45 2.36-0.12 0.34-0.48 0.2-0.82 0.2m-5.24-0.69c-1.13-0.71-1.87-1.84-2.45-3.03-0.6-1.24-0.71-2.92 1.04-3.04 1.63-0.12 2.47 1.03 3.05 2.37 0.47 1.08-0.9 3.03-1.64 3.7m23.5-1.73c0.4-2.05 0.93-4 1.53-5.99 0.63 0.67 0.05 2.16-0.17 2.9-0.19 0.64-0.33 3.28-1.36 3.09m-40.99-0.18c0.25-0.41 0.47-0.77 1-0.5-0.21 0.28-0.66 0.45-1 0.5m12.5-0.2c-0.59-0.57-1.17-0.96-1.91-1.34-0.98-0.5 0.93-1.45 1.38-1.66 0.13-0.06 0.88-0.32 1.04-0.25 0.29 0.12 0.39 0.87 0.41 1.13 0.06 0.68-0.32 1.75-0.92 2.12m27.25-0.62c0.39-3.17 1.17-6.35 1.92-9.46 0.28-1.16 0.53-2.31 0.72-3.49 0.13-0.84 0.31-2.12 1.17-2.54-0.17 2.96-1.11 5.99-1.74 8.88-0.3 1.38-0.67 2.72-0.92 4.11-0.09 0.59-0.23 2.62-1.15 2.5m3.25-0.99c0.07-1.6 0.7-3.06 0.98-4.62 0.15-0.83 0.24-2.64 1.3-2.87-0.41 1.57-0.59 3.21-1.01 4.77-0.16 0.58-0.36 2.84-1.27 2.72m-4.49-0.27c0.01-1.82 0.68-3.55 1.06-5.31 0.34-1.57 0.46-3.24 1.23-4.68 0.51 0.63 0.17 1.57 0 2.25-0.25 1.06-0.46 2.14-0.71 3.21-0.24 1.02-0.47 2.04-0.73 3.06-0.12 0.46-0.13 1.65-0.85 1.47m6.25-0.48c-0.02-1.63 0.5-3.57 0.99-5.13 0.24-0.77 0.44-1.55 0.56-2.34 0.11-0.69 0.23-1.5 0.73-2.02 0.37 0.75-0.06 1.7-0.21 2.45-0.21 1.02-0.44 2.04-0.6 3.07-0.18 1.22-0.23 3.3-1.47 3.97m-42.24-1.93c0.41-0.01 0.95 0.11 1.04-0.39 0.11-0.65 0.11-1.07 0.48-1.62 0.24-0.35 0.88-0.3 1.25-0.29 0.54 0.01 1.08-0.15 1.49-0.51 0.82-0.72 1.17-1.94 1.6-2.9 0.14-0.3 1.38-0.43 1.6-0.21 0.31 0.32 0.06 1.51 0.05 1.93-0.05 1.89-0.44 3.97-2.21 5-0.91 0.53-1.87 0.79-2.93 0.74-0.96-0.06-2.37-0.61-2.37-1.75m16.74 1.58c-0.16-0.32-0.42-0.65-0.49-1 0.35 0.08 0.76 0.13 1.01 0.41 0.39 0.45-0.02 0.68-0.52 0.59m18-0.17c0.01-1.22 0.42-2.34 0.61-3.53 0.1-0.64 0.16-1.95 0.91-2.22 0.09 0.43-0.14 0.87-0.2 1.29-0.1 0.71-0.21 1.4-0.35 2.1-0.11 0.58-0.09 2.48-0.97 2.36m9.25-0.72c0.01-1.06 0.37-2.08 0.62-3.09 0.19-0.76 0.16-2.05 0.62-2.7 0.1-0.15 0.01-0.42 0.22-0.44 0.26-0.02 0.33-0.02 0.34 0.24 0.03 0.66-0.15 1.35-0.28 1.99-0.25 1.2-0.33 3.36-1.52 4m-40.62-0.43c0.47-0.36-0.1-0.98-0.51-0.76-0.53 0.29 0.16 0.94 0.51 0.76m2.26-0.99c0-0.18 0.08-1.55-0.52-0.95-0.25 0.27-0.07 1.34 0.52 0.95m0.88-2.5c0.17-0.59-0.04-1.26-0.74-1.25 0 0.57-0.01 1.4 0.74 1.25m-4-0.01c0.03-1.15 0.99-2.71 2.01-3.24 0 1.41-0.12 3.3-2.01 3.24m30.05-11.36c1.17-0.16 0.74 2.89 0.74 3.5 0.89-0.57 1.14-2.03 2.26-2.24 0 0.59-0.32 2.78 0.23 3.25 0.39 0.32 0.64-0.31 0.77-0.57 0.24-0.49 0.76-0.93 1.24-1.17 0.58 1.15 0 2.41-0.64 3.4-0.56 0.88-1.21 2.23-2.1 2.81-0.89 0.6-1.43 0.22-2.29-0.31-0.82-0.51-1.22-0.95-1.48-1.88-0.3-1.09-0.33-2.38-0.21-3.5 0.13-1.38 0.89-2.13 1.48-3.29m8.46 8.53c0.08-1.69 0.24-3.96 1.03-5.49 0.76 0.47 0.3 1.84 0.14 2.51-0.25 1.03-0.41 2.17-1.17 2.98m-34.99-0.91c0.01-1.53-0.04-3.4 1.52-4.24 0.01 0.42 0.14 0.83 0.15 1.25 0 0.51-0.14 1.02-0.13 1.53 0.01 0.32 0.2 1.21-0.04 1.47-0.15 0.16-1.26-0.01-1.5-0.01m46.02-6.29c0.86-0.14 1.06-0.7 1.51-1.38 0.46-0.71 0.35-1 0.26-1.86 0.66 0.17 2.4 1.33 2.86 0.51 0.16-0.29 0.91-1.22 0.83-1.54-0.12-0.5-0.29-0.97-0.43-1.46 0.79 0 1.35 0.21 2.11-0.18 0.76-0.38 1.41-0.87 2.27-0.51 1.99 0.79 3.92 2.23 5.67 3.46 1.88 1.32 3.52 2.95 5.39 4.27 0.25 0.18-0.58 0.9-0.73 0.97-2.27 1.07-4.67 1.67-7.1 2.27-2.51 0.63-5.02 1.4-7.62 1.45-1.47 0.03-2.5-0.91-3.24-2.1-0.72-1.12-1.82-2.51-1.78-3.9m-3.01 3.74c0.36-0.22 0.62-0.5 0.88-0.83 0.24-0.31 0.67 0.19 0.87 0.44 0.48 0.61 1.42 1.82 1.24 2.65-0.88-0.14-1.72-0.41-2.57-0.63-0.49-0.13-1.4-0.25-1.67-0.75-0.49-0.92-0.93-1.37 0.1-1.97 0.3-0.18 0.57-0.36 0.83 0.02 0.21 0.32 0.38 0.66 0.32 1.07m-20.99-3.6c-1.21 0.61-1.83 2.95-3.26 3.03-0.46 0.02-1.09-0.4-1.16-0.85-0.22-1.38 0.83-3.16 1.27-4.44 0.62-1.79 1.23-3.57 1.91-5.34 0.68-1.76 1.44-3.48 2.17-5.22 0.38-0.9 0.73-2.95 1.89-3.16-0.61 3.41-0.3 6.9-0.3 10.34 0 0.8-0.08 1.58-0.17 2.37-0.09 0.83 0.04 1.65 0.03 2.48-0.02 1.93-0.14 3.87-0.16 5.81-1.02-0.09-2.33-0.21-2.34-1.49 0.01-1.18 0.12-2.34 0.12-3.53m17.76-1.43c0.64-0.34 0.69-0.88 0.36-1.44-0.42-0.74-0.98-0.9-1.62-1.42-0.72-0.58-0.74-0.92-0.28-1.74 0.17-0.31 0.35-0.5 0.62-0.72 0.4-0.33 0.52-0.06 0.72 0.28 0.83 1.39 1.36 2.95 2.21 4.32 0.55 0.88 1.72 2.1 1.48 3.24-1.34-0.03-2.71-0.59-3.83-1.28-0.5-0.31-0.81-1.06-0.77-1.62 0.01-0.15 0.55-0.48 0.69-0.42 0.29 0.15 0.42 0.48 0.42 0.8m-34.26 1.6c0-0.97-0.01-1.8-0.24-2.75-0.57 0.86-0.42 2.22-1.45 2.64-0.17 0.07-0.97 0.03-1.07-0.16-0.24-0.47 0.67-1.36 0.89-1.72 0.69-1.12 1.37-2.25 2.06-3.37 0.69-1.1 1.4-2.19 2.02-3.33 0.51-0.94 1.06-2.04 2.07-2.54-0.02 1.85-0.3 3.58-0.59 5.39-0.15 0.95-0.15 1.91-0.3 2.86-0.11 0.68 0.01 1.67-0.36 2.28-0.31 0.51-0.62 1.03-1.33 0.93-0.49-0.05-1.21-0.3-1.7-0.23m61.25 0.28c-0.43-0.81-0.31-1.87-0.22-2.75 0.13-1.29 0.25-2.56 0.26-3.85 0-2.51-0.18-4.96-0.63-7.43-0.7-3.79-1.95-7.93-5.56-9.92-3.02-1.66-6.35 0.71-7.4 3.66-1.13 3.2-1.62 6.33-1.64 9.71-1.86-0.01-1.23-3.11-1.04-4.19 0.46-2.57 0.8-5.21 2.03-7.55 0.85-1.61 2.67-3.99 4.73-3.98 2.66 0 5.7 0.88 7.18 3.29 1.59 2.59 2.14 5.49 2.58 8.46 0.46 3.06 1.11 6.16 0.99 9.27-0.05 1.15-0.18 2.31-0.27 3.46-0.04 0.53-0.14 1.98-1.01 1.82m-41.23-5.43c1.49 0.47 2.81 1.34 4.21 1.99 1.43 0.66 3.03 0.95 4.44 1.63 0.44 0.22 0.35 0.74-0.07 1.05-0.78 0.57-2.08 0.09-2.89-0.19-1.05-0.37-2.05-0.86-3.06-1.32-1.09-0.5-3.49-1.58-2.63-3.16m26.76-1.63c-1.27-0.05-1.99-1.44-3.24-1.52-0.03 0.94 0.64 1.71 1.14 2.44 0.37 0.54 1.05 1.55 0.13 1.93-0.54 0.22-0.66 0.38-1.15 0.1-1.07-0.59-1.91-1.98-3.12-2.24 0 0.72 0.26 1.39 0.52 2.05 0.2 0.52 0.73 1.26 0.61 1.83-0.11 0.53-0.7 0.73-1.12 1.01-0.68 0.44-1.7-1.22-1.93-1.64-0.27-0.5-0.36-0.88-0.43-1.44-0.1-0.87 1.59-1.71 2.17-2.09 1.08-0.71 2.06-1.75 2.91-2.73 0.72-0.82 1.42-0.95 2.33-0.25 0.83 0.63 1 1.6 1.18 2.55m-24.47-6.11c0.58 1.18 0.49 2.72 0.48 4 1.03-0.68 1.48-2.5 2.76-2.74 0.01 0.73 0.27 1.42 0.25 2.16-0.01 0.33-0.09 1.57 0.22 1.84 0.32 0.26 0.55-0.13 0.64-0.33 0.2-0.46 0.54-0.84 0.81-1.26 0.26-0.41 0.35-0.89 0.54-1.33 0.15-0.36 0.88 0.6 0.92 0.77 0.27 1.15 0.09 2.49 0.08 3.67 0.88-0.58 1.43-2.03 2.51-2.24-0.04 1.12 0.22 2.09-0.01 3.21-0.15 0.71-0.97 2.23-1.59 2.67-1.22 0.85-3.08 0.05-4.28-0.45-1.59-0.67-3.18-1.39-4.62-2.35-1.01-0.67-1.24-1.4-1.26-2.57 0-1.84 0.82-4.14 2.55-5.05m17.95 10.58c-0.02-0.39-0.36-0.72-0.75-0.75-0.05 0.51 0.29 0.7 0.75 0.75m8.53-6.22c0.47-0.24 1-0.34 1.5-0.49-0.46-0.88-1.58-1.5-1.88-2.42-0.19-0.58 0.43-0.5 0.9-0.47 0.59 0.04 1.15 0.12 1.74 0.14-0.06-1.84-1.99-3.36-1.98-5.26 1.06 0.19 1.87 0.98 2.91 1.22 0.38 0.09 0.61-0.43 0.81-0.67 0.82-1.03 0.46-2.85 1.03-4.03 0.79 0.55 0.84 2.2 1.02 3.05 0.16 0.74 0.4 2.93 1.5 2.99 0.91 0.04 1.79 0.04 2.69 0-0.45 1.58-1.94 2.58-2.34 4.17-0.16 0.72 1.76 1.73 2.12 2.24 0.33 0.47 0.62 0.73 0.03 1.03-0.81 0.42-2.42 0.4-2.61 1.54 1.09 0.23 2.71 1.89 2.74 3.01-0.96 0.03-1.77-0.47-2.54-0.99-0.83-0.57-1.73-1.04-2.56-1.62-0.85-0.59-1.71-1.16-2.59-1.7-0.85-0.55-1.8-0.98-2.49-1.74m-4.27 3.99c0.03-0.13-0.03-0.93-0.31-0.7-0.24 0.2-0.32 0.41-0.44 0.69 0.25 0.01 0.5 0.01 0.75 0.01m13.26-1.19c0.74-0.41 1.49 0.23 1.5 1.01-0.63 0.02-1.42-0.32-1.5-1.01m-19.5-0.19c-0.38-0.09-0.77-0.18-1.15-0.27-0.36-0.09-0.45-0.93-0.26-1.17 0.46-0.62 1.28-0.86 1.89-1.29 0.78-0.56 2.83-3.37 3.89-2.78 0.44 0.25 0.76 0.3 0.7 0.87-0.11 0.95-1.28 1.99-1.94 2.62-0.91 0.86-2.01 1.48-3.13 2.02m8.75-0.61c0.12-0.52 0.23-1 0.75-1.25 0.09 0.51-0.24 1.09-0.75 1.25m7.26-1.23c0.66-0.31 0.87-1.71 0.73-2.38-0.08-0.43-0.03-1.04-0.45-1.22-0.41-0.17-1.04-0.63-1.47-0.43-0.81 0.38-0.81 1.84-0.78 2.58 0.03 0.51 0.16 0.84 0.61 1.09 0.33 0.18 0.98 0.66 1.36 0.36m-0.5-0.67c-0.47 0.04-0.7-0.63-0.73-1.01-0.05-0.6 0.23-1.01 0.69-1.3 0.38-0.24 0.8 0.84 0.8 1.11-0.01 0.34-0.42 1.12-0.76 1.2m-6.4-23.85c-0.16 0.85-1.01 1.27-1.7 1.64-0.96 0.51-1.61 1.35-2.39 2.08-1.13 1.03-0.64 3.57-0.67 4.91-0.04 1.92-0.19 3.84-0.58 5.72-0.33 1.6-1.05 3.68-2.99 3.62 0.54 0.63 1.92 1.76 1.56 2.76-0.32 0.88-1.51 1.73-2.26 2.25-0.65 0.45-1.53 0.93-2.35 0.76-0.92-0.19-1.22-1.21-1.13-2.03 0.24-2.11 1.71-4.08 2.61-5.95 1.08-2.22 1.57-4.62 2.28-6.96 0.36-1.17 0.87-2.27 1.27-3.42 0.36-1.02 0.55-2.11 1.12-3.05 1.16-1.93 3.11-2.34 5.23-2.33m10.16 22.3c0.04-1.3 1.59-0.83 2 0.01-0.66 0.33-1.32 0.12-2-0.01m-37.48-6.42c1.14-0.61 3.04 0.97 4.01 1.47 1.64 0.84 3.28 1.67 4.99 2.36 1.14 0.45 2.35 0.75 3.45 1.3 0.36 0.18 1.89 1 0.87 1.35-1.16 0.41-2.65-0.4-3.71-0.83-1.44-0.59-2.8-1.33-4.21-1.99-1.6-0.76-5.07-1.55-5.4-3.66m0.28-7c0.62 0.75-0.04 2.05 0.49 2.85 0.38 0.57 0.85-0.58 0.96-0.81 0.27-0.55 0.66-1.36 1.31-1.53 0 1.09 0.24 2.15 0.24 3.25 1.08-0.21 1.56-1.72 2.51-2.24 0.57 1.13 0.09 2.55 0.48 3.75 0.7-0.76 1.44-2.28 2.51-2.49 0.31 1.25 0.22 2.49 0.48 3.75 0.69-0.76 1.44-2.29 2.51-2.49 0.25 0.99 0.3 2.03 0.57 3.02 0.13 0.48 0.44 0.72 0.83 0.16 0.48-0.7 0.81-1.48 1.59-1.92 0.23 1.16 0.29 2.38 0.46 3.55 0.13 0.99-0.22 1.9-0.84 2.66-0.7 0.84-2.13 0.14-2.94-0.14-1.54-0.57-3.03-1.19-4.5-1.93s-2.92-1.52-4.36-2.31c-0.99-0.54-2.23-1.08-2.37-2.35-0.1-0.83-0.21-1.66-0.18-2.49 0.02-0.78 0.31-1.53 0.25-2.29m27.46 8.87c1.17 0.09 1.93 0.57 2.24 1.76-1.16-0.2-2.21-0.3-2.24-1.76m-4.5-0.02c-0.35-0.66-0.26-1.46-0.24-2.17 0.02-1.02 0.01-2.04 0.02-3.06 0.01-0.91 0.26-1.78 0.25-2.69-0.01-0.77-0.1-1.61 0.26-2.32 0.58 0.35 0.58 1.33 0.53 1.91-0.08 0.99-0.28 1.94-0.3 2.93-0.02 1.1-0.04 2.2-0.01 3.29 0.02 0.65 0.12 1.69-0.51 2.11m14.02-4.2c0.48 0.28 0.02 1.69 0 2.23-0.02 0.67-0.06 2.05-0.99 1.27-1.08-0.92-0.41-3.26 0.99-3.5m12.24 2.56c0.17-0.6 0.08-1.14 0.01-1.75-1.09 0-1.09 1.76-0.01 1.75m-18.48-5.08c0.7 0.43 1.28 1.26 1.38 2.08 0.04 0.33 0.21 2.83-0.5 2.65-1.79-0.43-1.16-3.41-0.88-4.73m-6.51 2.98c0.01-1.24-0.01-2.49 0.16-3.73 0.14-1.07-0.15-2.27 0.37-3.27 0.95 0.57 0.55 2.49 0.49 3.37-0.03 0.55-0.13 3.84-1.02 3.63m25.77-5.15c-0.55 0.06-0.92-0.52-0.99-1-0.48 0.13-0.7 0.57-1.06 0.85-0.33 0.25-0.79 0.36-0.63 0.88 0.31 1.02 0.71 1.95 0.92 3.01-0.79-0.09-1.54 0.42-1.51 1.24 0.62 0.02 1.04-0.14 1.61-0.37 0.63-0.25 0.84-1.22 1.08-1.78 0.37-0.88 0.62-1.86 0.58-2.83m-49.73-3.96c1.28 0.23 2.45 1.16 3.63 1.68 1.5 0.66 2.98 1.37 4.48 2.02 2.85 1.25 5.92 2.12 8.71 3.49 0.33 0.16 0.48 0.06 0.34 0.51-0.05 0.18-0.21 0.33-0.38 0.39-1.08 0.36-2.18-0.14-3.19-0.5-1.08-0.39-2.16-0.81-3.21-1.27-2-0.87-3.93-1.92-5.94-2.75-1.15-0.47-5.49-1.62-4.44-3.57m0.54-9.74c-0.01 1.67-0.02 3.33-0.02 5 1.06-0.61 1.46-1.91 2.51-2.49 0.55 1.09 0.24 2.83 0.23 4 1.16-0.76 1.65-2.54 3.01-2.99 0.67 1.32 0.49 3.32 0.47 4.75 0.66-0.38 1.11-0.98 1.54-1.59 0.21-0.29 0.76-1.25 1.22-1.15 0.47 0.1 0.46 1.17 0.48 1.51 0.05 0.92-0.04 1.85 0.26 2.74 0.91-1.01 1.77-2.63 3.01-3.24 0.66 1.37 0.49 3.03 0.48 4.5 1.13-0.66 1.67-2.51 3.01-2.74 0.27 1.44 0.49 2.79 0.48 4.25 0.88-0.53 1.33-1.53 2.26-1.99 0 1.27-0.47 2.42-0.84 3.61-0.18 0.57-0.54 2.24-1.34 2.25-1.74 0.01-3.46-1.1-5.06-1.69-1.79-0.65-3.54-1.45-5.28-2.23-1.63-0.74-3.31-1.46-4.87-2.34-1.15-0.65-2.34-1.25-2.49-2.7-0.09-0.91 0.08-1.83-0.01-2.75-0.07-0.7-0.08-1.4-0.11-2.1-0.02-0.8-0.14-2.62 1.06-2.61m25.19 14.11c0.01-0.79-0.12-1.76 0.26-2.5 0.83 0.49 0.44 2.06-0.26 2.5m1.51-2c-0.01-0.53 0.16-1.14 0.76-1.25 0.05 0.58-0.05 1.39-0.76 1.25m-4.74-2.27c0.66 0.02 1.31-0.09 1.96-0.17 0.63-0.07 1.19 0.34 1.79 0.43-0.17 0.78-1.55 0.97-2.19 1.15-1.07 0.3-1.6-0.41-1.56-1.41m12.75 1.05c-0.78-0.73-0.86-3.48-0.28-4.32 0.59-0.85 0.64 1.04 0.62 1.27-0.08 0.9 0.24 2.33-0.34 3.05m-6-0.28c-0.8-0.62-0.46-2.53-0.21-3.39 0.05-0.17 0.24-0.13 0.38-0.09 0.2 0.05 0.09 0.72 0.09 0.82 0.01 0.75 0.24 2.03-0.26 2.66m4.25-0.48c-0.4-0.76-0.63-3.84 0.52-4-0.01 0.92 0.41 3.39-0.52 4m-1.25-0.01c-0.81-0.65-0.82-3.6 0.27-4 0 0.69-0.01 1.38-0.01 2.07 0 0.61 0.15 1.42-0.26 1.93m-1.5 0c-0.74-0.58-0.87-3.52 0.27-3.75-0.01 0.93 0.36 2.97-0.27 3.75m-7.75-0.78c0.03-0.81 0.78-1.9 1.55-2.13 1.14-0.34 1.93-0.16 3.07 0.12 0.43 0.11 0.01 0.74-0.32 0.77-0.62 0.07-1.2 0.5-1.79 0.7-0.81 0.26-1.66 0.42-2.51 0.54m19.76-0.41c0.36-0.66 0.23-1.65-0.49-2-0.44 0.68-0.42 1.7 0.49 2m-22.75-1.1c-1.74-0.02-3.36-0.76-4.93-1.42-1.82-0.77-3.68-1.44-5.49-2.23-1.78-0.78-3.42-1.75-5.16-2.61-0.64-0.32-3.92-1.74-3.43-2.86 0.51-1.19 3.38 0.99 3.96 1.31 1.6 0.88 3.26 1.65 4.94 2.37 1.68 0.71 3.38 1.41 5.1 2.03 1.74 0.62 3.58 1.07 5.27 1.8 0.7 0.3 0.49 1.56-0.26 1.61m25.26-2.14c-0.42 0-0.82-0.02-1.22 0.07-0.22 0.05-0.96 0.42-0.46 0.71 0.71 0.41 1.84 0.35 1.68-0.78m-1.48-4.51c-0.68-0.01-1.17-0.62-1.24-1.26-0.35 0.08-0.58 0.33-0.82 0.57-0.16 0.17-0.57 0.21-0.68 0.42-0.26 0.48 0.17 1.32 0.34 1.77 0.27 0.72 0.65 1.55 0.64 2.33-0.01 0.66-1.04 0.35-1.44 0.88-0.1 0.13-0.44 0.58-0.31 0.77 0.08 0.12 0.91 0.2 1.08 0.17 1.08-0.19 1.31-1.3 1.57-2.2 0.26-0.96 1.05-2.45 0.86-3.45m-38.97-8.17c0 0.67-0.01 1.33-0.01 2 1.16-0.68 1.72-2.31 3.01-2.74 0.63 1.24 0.19 3.14 0.23 4.5 0.48-0.27 3.11-2.98 3.3-2.67 0.8 1.29 0.43 3.22 0.69 4.69 0.32-0.33 3.03-3.56 3.34-2.79 0.29 0.73 0.2 1.55 0.37 2.31 0.14 0.63 0.4 1.34 0.28 1.99 1.28-0.72 1.84-2.53 3.26-2.99 0.65 1.36 0.48 3.04 0.73 4.5 1.27-0.72 1.7-2.33 3.01-2.99 0.39 1.95-0.1 4.56-1.39 6.1-0.52 0.62-0.51 0.78-1.29 0.71-1.55-0.14-3.06-0.81-4.51-1.31-1.75-0.6-3.47-1.28-5.17-2.04-1.59-0.71-3.15-1.47-4.69-2.27-0.77-0.4-1.53-0.81-2.29-1.22-0.59-0.32-1.37-0.64-1.71-1.25-0.39-0.72 0.57-1.88 0.91-2.46 0.42-0.77 0.97-1.89 1.93-2.07m45.45 12.44c0.16-0.68 0.22-1.3 0.26-2-0.63-0.15-0.55 0.39-0.6 0.86-0.05 0.43-0.05 0.88 0.34 1.14m-27.24-1.11c0.04-0.34 0.22-0.79 0.5-1 0.09 0.49 0.28 1.19-0.5 1m1.5-0.24c-0.47-0.89-0.21-1.92-0.12-2.86 0.07-0.64 0.06-1.95 0.89-2.13 0 0.59 0.51 5.17-0.77 4.99m25.25-1.65c0.26-0.48 0.13-1 0.01-1.5-0.41 0.39-0.49 1.16-0.01 1.5m-16.99-0.82c-0.37-0.77-1.28-0.69-2-0.76-0.02 1.04 1.3 1.12 2 0.76m-5.75-1.02c0.63-1.19 0.88-3.78 0.27-5-0.61 0.61-0.49 1.72-0.51 2.5-0.02 0.74-0.3 1.86 0.24 2.5m6.25-0.23c0.28-1.16 0.3-2.09 0.01-3.25-0.55 0.64-0.66 2.7-0.01 3.25m16.01-0.93c0.12-0.51 0.26-1.01 0.01-1.5-0.37 0.37-0.45 1.18-0.01 1.5m-25.08-1.98c-0.84 0.29-1.78-0.04-2.58-0.31-1.09-0.37-2.21-0.63-3.3-1.02-2.3-0.82-4.56-1.81-6.82-2.73-0.91-0.37-5.73-2.05-4.94-3.53 0.59-1.11 5.02 1.61 5.75 1.99 1.71 0.88 3.6 1.49 5.39 2.19 1.2 0.47 2.38 0.95 3.62 1.31 0.84 0.25 2.03 0.3 2.79 0.75 0.45 0.27 0.79 1.1 0.09 1.35m24.59-0.77c0-0.67 0.07-1.39-0.24-2-0.42 0.45-0.25 1.45-0.26 2 0.16 0 0.34 0.02 0.5 0m-20-0.09c0.07-0.35 0.21-0.67 0.01-1-0.25 0.27-0.24 0.74-0.01 1m-16.69-14.82c-0.01 1.25-0.01 2.5-0.02 3.75 1.53-0.29 2.25-2.3 3.76-2.73 0.34 0.67 0.27 1.45 0.25 2.17-0.03 0.95 0.07 1.9 0.23 2.84 1.37-0.63 2.14-2.22 3.56-2.67 0.62-0.2 0.89 4.2 0.93 4.44 1.2-0.68 2.29-2.75 3.76-2.73 0.03 1.26 0.18 2.49 0.23 3.75 1.72-0.33 1.95-3.18 3.77-3.48 0.13 0.65-0.19 1.37-0.41 1.96-0.32 0.84-0.6 1.69-0.91 2.53-0.5 1.36-0.99 3.61-2.72 3.87-1.58 0.23-3.43-0.65-4.89-1.16-1.69-0.59-3.35-1.26-5.01-1.93-1.55-0.62-3.12-1.23-4.62-1.98-0.87-0.44-2.74-1.11-2.44-2.38 0.28-1.22 1.33-2.5 2.03-3.52 0.58-0.86 1.36-2.51 2.5-2.73m24.95 12.62c0.55-0.7 0.53-1.78-0.49-2-0.13 0.76-0.33 1.54 0.49 2m11-0.22c0-0.43 0-0.87 0.01-1.3 0-0.49 0.14-0.74-0.41-0.73-0.33 0.01-0.09 1.09-0.1 1.32 0 0.59-0.14 0.78 0.5 0.71m-8.49-2.77c-0.48-0.25-0.97-0.25-1.5-0.26-0.03 0.95 1.13 1.03 1.5 0.26m-3.25 0.22c-0.36-0.57-1.22-0.54-1.75-0.26 0.37 0.73 1.17 0.65 1.75 0.26m10.75 0.05c0-0.5 0-1 0.01-1.5-0.53 0.38-0.52 1.11-0.01 1.5m-10-0.78c0.2-0.59 0.4-1.19 0.6-1.78 0.19-0.57 0.29-1.52 0.63-2.01 0.25-0.37-0.11-0.41-0.34-0.58-0.38-0.3-0.62-0.71-0.87-1.12-0.34 0.33-0.61 0.72-1.05 0.94-0.35 0.18-0.41-0.01-0.44 0.45-0.05 0.65 0.35 1.58 0.52 2.21 0.18 0.64 0.4 1.45 0.95 1.89m9.26-1.72c0-0.64-0.09-1.13-0.24-1.75-0.38 0.4-0.25 1.25-0.26 1.75 0.16 0 0.34 0.02 0.5 0m-0.99-2.75c0-0.5 0.01-1 0.01-1.5-0.42 0.34-0.51 0.98-0.51 1.5 0.16 0 0.35 0.03 0.5 0m-16.99-0.16c-2.96-0.16-5.84-1.09-8.55-2.25-1.36-0.58-2.68-1.22-4-1.88-0.96-0.48-2.19-0.84-2.75-1.83-0.2-0.34 0.32-1.04 0.69-0.99 1.19 0.17 2.21 0.82 3.27 1.33 1.28 0.61 2.57 1.2 3.88 1.73 1.29 0.53 2.61 1.02 3.95 1.41 1.17 0.34 2.44 0.41 3.58 0.83 0.44 0.16 0.73 0.16 0.64 0.66-0.12 0.65-0.13 0.67-0.71 0.99m-9.69-14.7c-0.01 1.77-0.22 3.49-0.27 5.25 0.89-0.52 1.67-1.25 2.44-1.93 0.67-0.6 1.37-1.29 2.33-1.3-0.01 1.83-0.02 3.67-0.02 5.5 2.04-0.7 2.95-3.38 5.02-3.98 0.36 0.71 0.27 1.53 0.25 2.3-0.03 0.99 0.07 1.98 0.23 2.95 1.13-1.18 2.28-3.01 3.77-3.73-0.19 2.25-1.19 4.35-2 6.46-0.86 2.23-4.83 0.46-6.35 0.02-1.98-0.57-3.87-1.43-5.73-2.3-0.55-0.25-4.28-1.66-4.03-2.57 0.43-1.52 1.26-2.71 2.09-4.04 0.55-0.89 1.1-2.42 2.27-2.63m25.69 12.36c0-0.58 0-1.17 0.01-1.75-0.35 0.39-0.35 1.35-0.01 1.75m-0.98-2.76c0.08-0.38-0.14-0.88-0.24-1.25-0.34 0.39-0.14 0.95 0.24 1.25m-1.24-2c0.17-0.47 0.04-1.01 0.01-1.5-0.35 0.36-0.31 1.1-0.01 1.5m-0.99-2.26v-1.25c-0.46 0.27-0.4 0.94 0 1.25m-8.25-1.66c-2.35-0.06-4.63-0.78-6.76-1.73-2.01-0.9-4.19-1.48-6.03-2.74-0.29-0.2-0.65-0.86-0.38-1.16 0.58-0.64 2.26 0.46 2.77 0.71 1.19 0.59 2.38 1.18 3.62 1.65 1.28 0.48 2.58 0.87 3.9 1.24 0.66 0.18 1.32 0.34 1.99 0.49 0.33 0.07 1.16 0.15 1.32 0.53 0.15 0.32-0.13 0.89-0.43 1.01m7.26-1.09c0.08-0.46-0.17-1.05-0.24-1.5-0.34 0.38-0.25 1.04-0.26 1.5 0.16 0 0.34 0.02 0.5 0m-14.2-11.31c-0.01 1.75-0.45 3.5-0.52 5.25 2.34-0.49 3.47-3.43 5.52-4.47 0.46 0.91 0.24 1.99 0.24 2.96-0.01 1.19-0.04 2.39 0.23 3.55 1.57-0.92 2.71-3.08 3.77-4.48 0.79 0.48 0.57 1.92 0.52 2.67-0.08 1.28-0.27 2.43-0.87 3.58-0.62 1.21-1.23 1.51-2.53 1.36-2.47-0.31-5.1-1.21-7.36-2.25-0.69-0.32-4.46-1.77-4.22-2.85 0.23-1 0.56-2.04 1.32-2.78 0.9-0.92 2.55-2.56 3.9-2.54m13.21 9.3c0.08-0.46-0.17-1.05-0.24-1.5-0.34 0.38-0.25 1.04-0.26 1.5 0.16 0 0.34 0.03 0.5 0"/>
  </g>
  <g id="club-4">
   <path id="path34773" d="m3.35 4.66c0-1.81-1.51-3.28-3.38-3.28s-3.38 1.47-3.38 3.28 1.51 3.28 3.38 3.28 3.38-1.47 3.38-3.28z"/>
   <path id="path34775" d="m7.71-1.55c0-1.81-1.51-3.28-3.38-3.28s-3.38 1.47-3.38 3.28 1.51 3.28 3.38 3.28 3.38-1.47 3.38-3.28z"/>
   <path id="path34777" d="m-0.95-1.57c0-0.66-0.2-1.28-0.55-1.8-0.6-0.89-1.65-1.48-2.83-1.48-1.87 0-3.38 1.47-3.38 3.28s1.51 3.28 3.38 3.28 3.38-1.47 3.38-3.28z"/>
   <path id="path34779" d="m3.94-7.94c-1.67 0-2.55 1.36-3.01 2.72s-0.5 2.72-0.5 2.72h-0.86s-0.16-5.43-3.5-5.44h7.87z"/>
   <path id="path34781" d="m-2.32 2.25c1.9-1.9 1.9-4.75 1.9-4.75l0.85-0.01s0 2.91 1.85 4.76"/>
   <path id="path34783" d="m-1.94-3.85c1.9 1.9 4.75 1.9 4.75 1.9v0.85s-2.91 0-4.76 1.85"/>
   <path id="path34785" d="m1.87-3.86c-1.9 1.9-4.75 1.9-4.75 1.9v0.85s2.91 0 4.76 1.85"/>
  </g>
  <g id="base-51">
   <path id="path34770" d="m0 0c0 3.78 3.09 6.87 6.87 6.87h152.84c3.77 0 6.86-3.09 6.86-6.87v-228.4c0-3.78-3.09-6.87-6.86-6.87h-152.84c-3.78 0-6.87 3.09-6.87 6.87v228.4z" stroke="#000" stroke-width="2.5" fill="#fff"/>
  </g>
  <g id="queen-5">
   <text id="text34764" font-weight="bold" transform="scale(.56453 1)" font-size="41px" font-family="Bitstream Vera Serif">Q</text>
  </g>
 </defs>
 <g id="queen_club" transform="translate(-1842.3 .47452)">
  <use id="use35740" xlink:href="#base-51" height="1" width="1" y="0" x="1843.3199"/>
  <g id="g35742" stroke="#000" fill="none">
   <path id="path35744" d="m1851.3-175.12v177.39"/>
   <path id="path35746" d="m1851.3 2.27h132.28"/>
   <path id="path35748" d="m2002.9-54.03v-177.64"/>
   <path id="path35750" d="m2002.9-231.67h-132.28"/>
  </g>
  <g id="g35752">
   <use id="use35754" xlink:href="#club-4" transform="matrix(-2.4 0 0 -2.4 3758.8 -409.24)" height="1" width="1" y="-85.257301" x="783.08698"/>
   <rect id="rect35756" height="37.968" width="9.6926" y="-223.6" x="1860.9" fill="#fff"/>
  </g>
  <g id="g35758">
   <use id="use35760" xlink:href="#club-4" transform="scale(2.4)" height="1" width="1" y="-10.2745" x="822.84003"/>
   <rect id="rect35762" height="37.968" width="9.6926" y="-43.643" x="1984.1" fill="#fff"/>
  </g>
  <g id="g35764" transform="matrix(.99951 -.031411 .031411 .99951 4.5537 60.475)">
   <line id="line35766" stroke-width="7.25" y2="-181.85" x2="1973.4" stroke="#000" y1="-47.544" x1="1880.8"/>
   <circle id="circle35768" cy="-50.602" cx="1883.2" r="2.2" fill="#fff"/>
   <circle id="circle35770" cy="-50.602" cx="1883.2" r="0.7"/>
   <circle id="circle35772" cy="-55.516" cx="1886.6" r="2.2" fill="#fff"/>
   <circle id="circle35774" cy="-55.516" cx="1886.6" r="0.7"/>
   <circle id="circle35776" cy="-60.429" cx="1890" r="2.2" fill="#fff"/>
   <circle id="circle35778" cy="-60.429" cx="1890" r="0.7"/>
   <circle id="circle35780" cy="-65.343" cx="1893.4" r="2.2" fill="#fff"/>
   <circle id="circle35782" cy="-65.343" cx="1893.4" r="0.7"/>
   <circle id="circle35784" cy="-70.256" cx="1896.8" r="2.2" fill="#fff"/>
   <circle id="circle35786" cy="-70.256" cx="1896.8" r="0.7"/>
   <circle id="circle35788" cy="-75.17" cx="1900.2" r="2.2" fill="#fff"/>
   <circle id="circle35790" cy="-75.17" cx="1900.2" r="0.7"/>
   <circle id="circle35792" cy="-80.083" cx="1903.6" r="2.2" fill="#fff"/>
   <circle id="circle35794" cy="-80.083" cx="1903.6" r="0.7"/>
   <circle id="circle35796" cy="-84.996" cx="1907" r="2.2" fill="#fff"/>
   <circle id="circle35798" cy="-84.996" cx="1907" r="0.7"/>
   <circle id="circle35800" cy="-89.91" cx="1910.3" r="2.2" fill="#fff"/>
   <circle id="circle35802" cy="-89.91" cx="1910.3" r="0.7"/>
   <circle id="circle35804" cy="-94.823" cx="1913.7" r="2.2" fill="#fff"/>
   <circle id="circle35806" cy="-94.823" cx="1913.7" r="0.7"/>
   <circle id="circle35808" cy="-99.737" cx="1917.1" r="2.2" fill="#fff"/>
   <circle id="circle35810" cy="-99.737" cx="1917.1" r="0.7"/>
   <circle id="circle35812" cy="-104.65" cx="1920.5" r="2.2" fill="#fff"/>
   <circle id="circle35814" cy="-104.65" cx="1920.5" r="0.7"/>
   <circle id="circle35816" cy="-109.56" cx="1923.9" r="2.2" fill="#fff"/>
   <circle id="circle35818" cy="-109.56" cx="1923.9" r="0.7"/>
   <circle id="circle35820" cy="-114.48" cx="1927.3" r="2.2" fill="#fff"/>
   <circle id="circle35822" cy="-114.48" cx="1927.3" r="0.7"/>
   <circle id="circle35824" cy="-119.39" cx="1930.7" r="2.2" fill="#fff"/>
   <circle id="circle35826" cy="-119.39" cx="1930.7" r="0.7"/>
   <circle id="circle35828" cy="-124.3" cx="1934" r="2.2" fill="#fff"/>
   <circle id="circle35830" cy="-124.3" cx="1934" r="0.7"/>
   <circle id="circle35832" cy="-129.22" cx="1937.4" r="2.2" fill="#fff"/>
   <circle id="circle35834" cy="-129.22" cx="1937.4" r="0.7"/>
   <circle id="circle35836" cy="-134.13" cx="1940.8" r="2.2" fill="#fff"/>
   <circle id="circle35838" cy="-134.13" cx="1940.8" r="0.7"/>
   <circle id="circle35840" cy="-139.04" cx="1944.2" r="2.2" fill="#fff"/>
   <circle id="circle35842" cy="-139.04" cx="1944.2" r="0.7"/>
   <circle id="circle35844" cy="-143.96" cx="1947.6" r="2.2" fill="#fff"/>
   <circle id="circle35846" cy="-143.96" cx="1947.6" r="0.7"/>
   <circle id="circle35848" cy="-148.87" cx="1951" r="2.2" fill="#fff"/>
   <circle id="circle35850" cy="-148.87" cx="1951" r="0.7"/>
   <circle id="circle35852" cy="-153.78" cx="1954.4" r="2.2" fill="#fff"/>
   <circle id="circle35854" cy="-153.78" cx="1954.4" r="0.7"/>
   <circle id="circle35856" cy="-158.7" cx="1957.8" r="2.2" fill="#fff"/>
   <circle id="circle35858" cy="-158.7" cx="1957.8" r="0.7"/>
   <circle id="circle35860" cy="-163.61" cx="1961.1" r="2.2" fill="#fff"/>
   <circle id="circle35862" cy="-163.61" cx="1961.1" r="0.7"/>
   <circle id="circle35864" cy="-168.52" cx="1964.5" r="2.2" fill="#fff"/>
   <circle id="circle35866" cy="-168.52" cx="1964.5" r="0.7"/>
   <circle id="circle35868" cy="-173.44" cx="1967.9" r="2.2" fill="#fff"/>
   <circle id="circle35870" cy="-173.44" cx="1967.9" r="0.7"/>
   <circle id="circle35872" cy="-178.35" cx="1971.3" r="2.2" fill="#fff"/>
   <circle id="circle35874" cy="-178.35" cx="1971.3" r="0.7"/>
  </g>
  <use id="use35876" xlink:href="#queen-5" height="1" width="1" y="-202.737" x="1847.3199"/>
  <use id="use35878" xlink:href="#queen-5" transform="matrix(-1,0,0,-1,4013.8,-53.32)" height="1" width="1" y="-26.66" x="2006.9"/>
  <use id="use35880" xlink:href="#club-4" transform="matrix(-1 0 0 -1 3713.9 -370.23)" height="1" width="1" y="-185.117" x="1856.97"/>
  <use id="use35882" xlink:href="#club-4" height="1" width="1" y="-44.279999" x="1997.25"/>
  <use id="use1583" xlink:href="#queen_3-58" transform="matrix(.99 0 0 .99 1604.6 -403.06)" height="1215.6875" width="2178.4751" y="0" x="0"/>
  <use id="use1584" xlink:href="#queen_3-58" transform="matrix(-.99 0 0 -.99 2249.6 173.72)" height="1215.6875" width="2178.4751" y="0" x="0"/>
 </g>
</svg>
