<?xml version="1.0" encoding="UTF-8" standalone="no"?>
<!-- Created with Inkscape (http://www.inkscape.org/) -->
<svg id="svg2" xmlns:rdf="http://www.w3.org/1999/02/22-rdf-syntax-ns#" xmlns="http://www.w3.org/2000/svg" height="244.55" viewBox="-0.2 -236 169.07499 244.54905" width="169.01" version="1.1" xmlns:cc="http://creativecommons.org/ns#" xmlns:xlink="http://www.w3.org/1999/xlink" xmlns:dc="http://purl.org/dc/elements/1.1/">
 <metadata id="metadata1752">
  <rdf:RDF>
   <cc:Work rdf:about="">
    <dc:format>image/svg+xml</dc:format>
    <dc:type rdf:resource="http://purl.org/dc/dcmitype/StillImage"/>
   </cc:Work>
  </rdf:RDF>
 </metadata>
 <defs id="defs4">
  <g id="diamond-3">
   <path id="path46815" d="m0 0h-7.68c0.8747 0.039 1.619 0.605 2.322 1.0728 1.579 1.1912 3.058 2.5572 4.226 4.1552 0.545 0.804 1.1176 1.708 1.132 2.712m-7.68-7.94c1.11-0.035 2.058-0.7413 2.904-1.393 1.495-1.255 2.789-2.748 3.881-4.364 0.401-0.669 0.873-1.378 0.895-2.183v7.94m0-7.94c0.038 1.182 0.758 2.206 1.438 3.12 1.212 1.51 2.648 2.846 4.228 3.963 0.614 0.383 1.266 0.8385 2.014 0.857h-7.68m7.68 0c-1.11 0.035-2.058 0.741-2.904 1.392-1.495 1.256-2.789 2.749-3.881 4.365-0.401 0.669-0.8725 1.378-0.895 2.183v-7.94" fill="#e6180a"/>
  </g>
  <g id="base-6">
   <path id="path46797" stroke="#000" stroke-width="2.5" fill="#fff" d="m0 0c0 3.78 3.09 6.87 6.87 6.87h152.84c3.77 0 6.86-3.09 6.86-6.87v-228.4c0-3.78-3.09-6.87-6.86-6.87h-152.84c-3.78 0-6.87 3.09-6.87 6.87v228.4z"/>
  </g>
  <g id="n_5-99">
   <text id="text46770" font-size="43px" font-weight="bold" font-family="Bitstream Vera Serif" transform="scale(.56453 1.0574)">5</text>
  </g>
 </defs>
 <g id="5_diamond" transform="translate(-669.25 -242.66)">
  <use id="use48117" xlink:href="#base-6" height="1" width="1" y="243.13699" x="670.29999"/>
  <use id="use48119" xlink:href="#n_5-99" height="1" width="1" y="44.02" x="674.29999" fill="#e6180a"/>
  <use id="use48121" xlink:href="#n_5-99" transform="matrix(-1 0 0 -1 1667.8 425.71)" height="1" width="1" y="212.85699" x="833.875" fill="#e6180a"/>
  <use id="use48123" xlink:href="#diamond-3" transform="matrix(-1,0,0,-1,1367.9,116.04)" height="1" width="1" y="58.02" x="683.95001"/>
  <use id="use48125" xlink:href="#diamond-3" height="1" width="1" y="198.85699" x="824.22498"/>
  <use id="use48127" xlink:href="#diamond-3" transform="matrix(-2.4 0 0 -2.4 1428.3 89.255)" height="1" width="1" y="18.594801" x="297.56601"/>
  <use id="use48129" xlink:href="#diamond-3" transform="scale(2.4)" height="1" width="1" y="86.708298" x="297.56601"/>
  <use id="use48131" xlink:href="#diamond-3" transform="matrix(-2.4 0 0 -2.4 1588 89.255)" height="1" width="1" y="18.594801" x="330.84"/>
  <use id="use48133" xlink:href="#diamond-3" transform="scale(2.4)" height="1" width="1" y="86.708298" x="330.84"/>
  <use id="use48135" xlink:href="#diamond-3" transform="matrix(-2.4 0 0 -2.4 1508.2 243.14)" height="1" width="1" y="50.653599" x="314.203"/>
 </g>
</svg>
