<?xml version="1.0" encoding="UTF-8" standalone="no"?>
<svg xmlns:rdf="http://www.w3.org/1999/02/22-rdf-syntax-ns#" xmlns="http://www.w3.org/2000/svg" height="244.55" viewBox="-0.2 -236 169.075 244.54907" width="169.01" version="1.1" xmlns:cc="http://creativecommons.org/ns#" xmlns:xlink="http://www.w3.org/1999/xlink" xmlns:dc="http://purl.org/dc/elements/1.1/"><!-- This set of SVG files is a complete cards game with figures, numbers	--><!--										--><!--										--><!--	modify it under the terms of the GNU Lesser General Public		--><!--	version 2 of the License, or (at your option) any later version		--><!--	This library is distributed in the hope that it will be useful,		--><!--	MERCHANTABILITY or FITNESS FOR A PARTICULAR PURPOSE.  See the GNU	--><!--										--><!--	License along with this library; if not, write to the Free Software	--><!--                                                                            -->
 <defs>
  <g id="c">
   <text font-size="40px" font-weight="bold" transform="scale(.56453 1)">J</text>
  </g>
  <g id="d">
   <path stroke="#000" stroke-width="2.5" fill="#fff" d="m0 0c0 3.78 3.09 6.87 6.87 6.87h152.84c3.77 0 6.86-3.09 6.86-6.87v-228.4c0-3.78-3.09-6.87-6.86-6.87h-152.84c-3.78 0-6.87 3.09-6.87 6.87v228.4z"/>
  </g>
  <g id="a">
   <path d="m0 0h-7.68c0.8747 0.039 1.619 0.605 2.322 1.0728 1.579 1.1912 3.058 2.5572 4.226 4.1552 0.545 0.804 1.1176 1.708 1.132 2.712m-7.68-7.94c1.11-0.035 2.058-0.7413 2.904-1.393 1.495-1.255 2.789-2.748 3.881-4.364 0.401-0.669 0.873-1.378 0.895-2.183v7.94m0-7.94c0.038 1.182 0.758 2.206 1.438 3.12 1.212 1.51 2.648 2.846 4.228 3.963 0.614 0.383 1.266 0.8385 2.014 0.857h-7.68m7.68 0c-1.11 0.035-2.058 0.741-2.904 1.392-1.495 1.256-2.789 2.749-3.881 4.365-0.401 0.669-0.8725 1.378-0.895 2.183v-7.94" fill="#e6180a"/>
  </g>
  <g id="b">
   <rect height="3.11" width="1.64" y="73.95" x="143.68" fill="#1c1585"/>
   <path d="m111.96 10.83c-1.09-2.93-3.1-5.35-4.98-7.83l-0.64 0.47c-1.15 1.81-3.04 5.32-3.04 5.32l5.68 1.23" fill="#e61408"/>
   <path d="m96.91 30.68 6.37-1.75c1.52 0.3 3.04 0.61 4.55 0.91 1.09 1.25 2.18 2.5 3.28 3.74l0.59 3 1.77-0.02 0.71-2.14c2.59-4.18 4.55-8.65 6.67-13.08l1.46-3.35 0.85-2.47c-3.48-1.86-6.48-3.18-10.26-4.32-3.18-0.96-6.34-1.71-9.58-2.41-1.27 1.24-2.13 2.61-3.11 4.1 0 0-6 9.81-8.66 13.89l0.75 1.25" fill="#f8c20f"/>
   <path d="m98.65 153.28c-1.96-1.46-3.94-2.88-5.95-4.27-4.37 2.88-8.92 5.43-13.96 6.96-5.12 1.55-10.5 2.24-15.76 3.12v0.04l-7.35 0.18c-1.69 2.31-3.24 4.59-4.71 7.04l0.88 0.77c3.98 1.59 7.42 3.37 11.69 4.16v-0.27c4.37-0.31 8.54-0.93 12.86-1.66 3.68-0.62 7.74-0.76 11.31-1.73 2.36-1.79 4.28-4.04 6.51-5.98 2.45-2.14 4.94-4.23 7.44-6.31l0.29-0.9-1.65-0.2-1.6-0.95" fill="#e61408"/>
   <path d="m74.27 96.03 4.52 4.4h0.11l2.65 2.33-0.01-1.31h-0.01c-1.27-8.86-2.62-17.66-3.64-26.55l-16.47 0.14 0.01 0.86-1.54 0.24-1.39 2.39 2.99 4.11v0.05c4.34 4.36 8.53 8.88 12.78 13.34" fill="#f8c20f"/>
   <path d="m108.45 86.61c0.82 0.5 1.63 1 2.45 1.49l-0.01-1.4-2.44-0.09" fill="#e61408"/>
   <path d="m80.73 95.88 0.79 5.56h0.01l0.01 1.31c4.91 4.32 9.93 8.34 15.1 12.34 3.43-9.82 7.05-19.26 11.56-28.64l0.16 0.1 1.11-2.33-6.34-0.06 0.07-0.52-6.49 0.06-0.04-4.48-3.54 0.03-0.04-5.19-13.92 0.12v0.23l-1.34 0.05c0.83 7.19 1.73 14.29 2.9 21.42" fill="#e61408"/>
   <polyline points="101.87 118.81 101.93 118.81 101.05 118.24 101.87 118.81" fill="#e61408"/>
   <path d="m109.62 31.89-1.79-2.05c-1.52-0.3-3.04-0.61-4.55-0.91l-6.37 1.75-2.13 1.91 0.1 0.22 0.44 4.78c-1.57 5.34-3.27 10.65-4.48 16.08h0.06l-2.84 15.16 9.71-0.82c3.82-7.75 7.7-15.47 11.59-23.19l-0.23-0.37h0.12l2.77-6.28-0.9-4.59-1.5-1.69" fill="#1c1585"/>
   <path d="m77.84 69.68h-0.09v0.04l10.23-0.45c0.98-5.2 1.95-10.41 2.93-15.61h-0.12c1.06-5.44 2.99-10.77 4.54-16.09l-0.44-4.78c-0.74-1.56-1.49-3.12-2.23-4.68-0.5-0.13-1-0.27-1.5-0.4-4.79 6.88-9.25 13.99-13.84 21.01l0.01 0.26 0.41 0.91 0.1 19.79" fill="#e61408"/>
   <path d="m145.55 74.6c-0.07-7.54-0.11-15.08-0.22-22.62-0.05-3.64-0.33-6.81-1.13-10.35-0.91-4.02-1.37-8.27-3.38-11.88l-0.08 0.22 0.01 0.12c-0.82 4.14-1.65 8.27-2.42 12.42h0.11c-2.14 8.21-4.32 16.3-6.98 24.36h-0.07c-1.96 4.46-3.49 8.82-7.13 12.18-3.81 3.52-8.07 5.79-12.88 7.68l-0.25 1.52c3.09 1.86 6.33 3.41 9.55 5.02 0 0 3.56 0.63 5.42 0.71l5.15-1.9v0.03c0.42-0.22 6.08-3.13 8.19-4.42 1.57-0.96 2.73-2.66 3.96-4l1.05-4.4" fill="#1c1585"/>
   <path d="m131.27 92.11v-0.03l-5.15 1.9c-1.86-0.08-3.71-0.19-5.57-0.32-1.86 4.65-4.22 9.06-6.82 13.34-2.75 4.55-6.23 8.86-8.55 13.61l1.77 1.47 4.63-0.06 2.9-1.21 2.89-2.48c1.59-2.58 3.23-5.12 4.91-7.65l0.29 0.1c3.15-2.94 6-5.83 8.79-9.1l0.08 0.03 1.72-2.85c0.52-2.54 0.82-4.78 0.89-7.37-0.91 0.15-1.97 0.19-2.78 0.62" fill="#e61408"/>
   <path d="m110.61 112.14c3.72-6.14 7.41-12.19 10.09-18.87-4.19-2.1-8.25-4.22-12.24-6.66 0.98 0.04 1.96 0.08 2.94 0.11 4.6-1.81 8.83-3.95 12.49-7.32 3.83-3.54 5.45-7.82 7.52-12.54h0.07c2.66-8.06 4.83-16.14 6.98-24.36h-0.11c0.77-4.15 1.6-8.28 2.42-12.42-0.75-6.04-4.84-13.18-10.01-16.46 0.01 4.68 0.13 9.29-0.73 13.9-1 5.37-2.04 10.66-3.32 15.96-2.14 8-4.98 15.24-8.43 22.76h-0.17l-1.44 3.02-4.13-1.99-1.69 0.86 1.15 1.99c-1.54 1.89-3.19 3.25-5.34 4.41l-2.22-0.12c-0.42 3.25-0.85 6.5-1.27 9.75l6.34 0.06-1.11 2.33-0.16-0.1c-4.51 9.38-8.13 18.82-11.56 28.64 2.64 2.12 5.58 3.9 8.42 5.73 1.48-3.1 3.55-5.83 5.51-8.68" fill="#f8c20f"/>
   <path d="m77.84 69.68-0.1-19.78c-0.16-0.34-0.31-0.69-0.47-1.04l-13.65 21.26c4.74-0.15 9.48-0.29 14.22-0.44" fill="#f8c20f"/>
   <path d="m82.07 119.88-4.92-4.75c-4.49 0.04-9.34-0.48-13.78 0.21-1.76 3.01-3.3 6.15-4.95 9.23l1.05 0.71 2.4 0.08 2.17-5.03 1.23-1.14 3.27-0.04 0.02-0.14c2.18-0.01 4.23-0.06 6.38-0.35l2.13 1.04c3.16 3.42 6.61 6.47 10.25 9.37l3.89-0.33c-3.02-2.98-6.05-5.94-9.14-8.86" fill="#e61408"/>
   <path d="m64.31 115.25l13.44-0.12c-3.49-3.8-6.77-7.78-10.43-11.41-1.27 3.8-2.4 7.61-4.1 11.23v0.31l1.09-0.01" fill="#f8c20f"/>
   <path d="m46.16 115.47c-0.01-1.78-0.02-3.57-0.04-5.35l-3.93-6.25c-1.51 2.34-3.02 4.65-4.4 7.07l-0.15 1.02c1.6 2.08 3.13 4.2 4.66 6.34 1.29-0.32 2.58-0.65 3.87-0.97l-0.01-1.86" fill="#f8c20f"/>
   <path d="m46.19 115.44 0.02 1.69 2.89-1.59c2.74-3 4.95-5.94 7.23-9.31 1.87-2.76 2.95-6.1 4.44-9.1l1.15-0.49c-2.45-4.08-4.91-8.17-7.36-12.25l-12.15 19.16 3.7 6.29c0.03 1.87 0.06 3.74 0.08 5.6" fill="#e61408"/>
   <path d="m97.52 115.77c-7.09-5.48-14.05-11-20.55-17.18-6.57-6.24-12.62-13.03-19.02-19.45l-3.19 5.01c2.23 3.76 4.45 7.52 6.74 11.25-3.11 7.56-6.85 14.1-12.38 20.14-1.92 1.05-3.59 1.81-5.68 2.47l-0.98 0.91 2.24 2.36c3.61 1.84 7.22 2.66 11.15 3.67l2.46-0.13c3.68-6.89 6.56-13.69 9.03-21.1 4.38 4.35 8.34 9.14 12.52 13.69v0.03c3.76 3.82 7.58 7.56 11.4 11.33l2.44 0.24 1.85-2.74 3.49 0.33c2.59-1.49 5.18-2.92 7.82-4.3-3.12-2.18-6.23-4.35-9.34-6.53" fill="#1c1585"/>
   <path d="m102.68 154.38c-0.96-0.17-2.11-0.21-2.96-0.72-1.43-0.85-2.71-1.85-3.93-2.98-0.55-0.5-2.29-1.68-2.42-2.5-0.22-1.43-0.38-2.88-1.05-4.19-0.56-1.09-1.98-2.13-2-3.43-0.02-0.88-0.14-0.93 0.66-1.29 0.56-0.24 0.99 0.22 1.33 0.65 0.26 0.32 0.6 0.88 1.02 0.93 0.67 0.07 0.98-0.68 1.27-1.13 0.63-1.01 0-2.27 0.58-3.17 0.26-0.4 0.93-0.56 1.29-0.87 0.55-0.47 1.01-1.01 1.29-1.69 0.24-0.58 0.34-1.26 0.8-1.72 0.91-0.91 3.19-0.15 3.16-2.13-2.05 0.42-3.49-0.97-5.51-0.95 0.61-1.09 1.91-0.56 2.9-0.59 1.28-0.05 1.79-0.45 2.67-1.29 0.34-0.33 0.49-0.8 0.79-1.17 0.36-0.44 0.83-0.77 1.2-1.2 0.69-0.83 1.69-1.32 2.64-1.77 2.02-0.96 4.22-0.32 6.31-1.11 2.21-0.84 3.94-2.23 5.43-4.03 1.33-1.61 1.74-3.74 3.04-5.32 1.49-1.81 3.46-3.44 5.24-4.97 3.3-2.84 6.53-6.36 7.56-10.71 0.47-1.96-0.01-4.62 1.54-6.14 1.63-1.59 3.91-2.27 5.62-3.77 1.63-1.42 2.63-3.27 3.29-5.31 1.8-5.48 1.24-11.28 1.21-16.97-0.02-3.13-0.1-6.26-0.1-9.39 0-2.95 0.13-5.86-0.13-8.8s-1.03-5.92-1.6-8.81c-0.56-2.85-1.21-5.47-2.49-8.07-0.58-1.19-0.75-2.54-1.25-3.77-0.59-1.46-1.18-2.94-1.93-4.33-1.3-2.44-3.02-4.74-4.9-6.76-0.72-0.77-1.81-1.35-2.71-1.89-1.99-1.2-3.98-1.7-6.29-1.09-1.09 0.29-2.06 0.82-3.12 1.15s-2.04-0.19-3.03-0.51c-1.38-0.45-2.74-0.95-4.12-1.4-1.75-0.58-2.52-2.5-3.49-3.91-0.61-0.89-1.3-1.76-1.82-2.7-0.47-0.84-0.79-1.82-1.58-2.44-1.72 2.68-3.85 5.39-5.18 8.29 1.91-0.15 3.68 0.79 5.43 1.38 1.94 0.65 3.91 1.19 5.84 1.9 1.9 0.7 3.79 1.41 5.69 2.1 1.1 0.4 4.1 1.72 2.57 3.29-0.32 0.33-0.76 1.08-1.28 0.98-1.52-0.28-3.29-1.26-4.44-2.27 0.85-0.04 1.64-0.27 2.5-0.27-0.16-1-0.89-1.29-1.68-1.79-0.4-0.25-0.51-0.38-0.97-0.32-0.45 0.06-0.91 0.14-1.37 0.15 0.02 0.87 0.72 1.64 1.27 2.24-1.28-0.15-2.45-0.74-3.63-1.21-1.29-0.52-2.63-0.92-3.95-1.36-2.55-0.85-5.29-1.07-7.71-2.29-0.29 1.02-1.15 1.76-1.47 2.76 1.57-0.29 3.36 0.67 4.87 1.03 2.01 0.47 3.94 1.27 5.88 1.95 1.96 0.69 3.9 1.43 5.78 2.31 0.9 0.42 1.78 0.88 2.65 1.36 0.73 0.4 1.79 0.36 1.47 1.32-0.33 1.01-1.09 1.92-1.98 2.47-0.88 0.54-2.1 1.46-3.14 1.49-0.92 0.03-1.06-0.08-1.8-0.63-0.39-0.29-0.63-0.75-0.89-1.16 1.11-0.23 2.04 1.24 3.01 0.84 0.73-0.31 1.37-2.41 1.5-3.07 0.12-0.61-0.89-0.62-1.23-0.66-0.29-0.04-0.61 0.03-0.9 0.05-0.24 0.02-0.5-0.2-0.73-0.25-1.5-0.33-1.49 1.06-0.9 2.09-0.8 0.01-1.21-0.81-1.46-1.46-0.38-0.99-0.89-1.79-1.56-2.62-0.34-0.43-1.65-0.95-2.16-0.86-1.04 0.18-1.77 0.35-2.61 1 0.35-1.24-1.28-2.29-2.04-3.06-0.41-0.42-1.29 0.73-1.54 0.99-0.36 0.38-0.72 0.99-0.4 1.5 0.15 0.24 1.7 0.91 0.69 1.17-0.66 0.18-1.26-0.17-1.55-0.77-0.58-1.18-0.93-2.63-2.19-3.27-0.42 0.7-0.8 1.41-1.13 2.16-0.22 0.51-0.76 0.69-0.95 1.06-0.26 0.52-0.44 0.97-0.6 1.53-0.13 0.46 0.37 0.56 0.73 0.8 0.35 0.23 0.52 0.44 0.87 0.09 0.26-0.27 0.27-0.86 0.28-1.22 0.01-0.27 0.07-1.04 0.58-0.67 0.11 0.09 0.35 0.96 0.42 1.12 0.38 0.84 0.88 1.32 1.66 1.75 0.82 0.45 1.39 0.65 2.36 0.58 0.87-0.06 1.52-0.26 2.34-0.51-0.12 0.48-0.24 1.31 0.4 1.51 0.53 0.17 1.37 0.63 1.91 0.65 0.75 0.04 1.26 0.22 1.45-0.66 0.13-0.59 0.32-1.17 1-1.3 0.01 1.57 0.89 3.1 1.54 4.49-2.95-0.72-5.68-2.38-8.59-3.29-1.57-0.49-3.18-0.9-4.74-1.42-1-0.33-2.44-0.95-3.46-0.39 0.32 0.37 2.51 0.93 2.51 1.06 0.01 0.98-1.9 0.31-2.44 0.98-0.24 0.3-0.67 1.15-1.12 1.16-0.33 0.01-0.53-0.04-0.85-0.14-0.17-0.06-0.35 0.55-0.41 0.72-0.22 0.6-0.03 0.49 0.43 0.79 0.39 0.25 0.76 0.59 1.03 0.98 0.52 0.76 1.65 3.82 2.57 3.55 1.2-0.35 2.23-1.55 3.39-2.09 1.24-0.58 2.58-0.96 3.94-1.14 1.99-0.26 4.58 0.44 6.11 1.72 1.75 1.47 2.38 3.62 2.45 5.82 0.02 0.55 0.07 1.1 0.02 1.65-0.08 1.07-0.7 2.04-1.17 2.98-0.6 1.22-1.19 2.45-1.79 3.68-1.31 2.66-2.35 5.43-3.68 8.09-1.28 2.54-2.51 5.11-3.76 7.67-0.63 1.28-1.26 2.55-1.91 3.82-0.41 0.81-0.86 2.15-1.96 2.18 0.2-1.3 1.04-2.48 1.61-3.64 0.63-1.26 1.23-2.54 1.79-3.83 1.17-2.7 2.42-5.36 3.56-8.08 1.03-2.46 2.27-4.85 3.13-7.38 0.86-2.52 1.91-5.69 1.22-8.35-0.62-2.37-2.48-3.62-4.8-3.97-2.08-0.32-4.52 1.1-5.94 2.49-0.77 0.75-1.61 1.54-2.02 2.56-0.94 2.36-1.92 4.59-2.57 7.06-0.71 2.72-1.5 5.42-2.1 8.17-0.62 2.82-1.2 5.64-1.78 8.47-0.29 1.41-0.57 2.83-0.85 4.24-0.14 0.7-0.2 2.07-0.79 2.6-0.47 0.42-0.91 0.49-1.46 0.77-0.59-2.75 0.32-5.78 0.76-8.5 0.51-3.14 1.23-6.24 1.79-9.37 0.52-2.91 1.06-5.82 1.65-8.72 0.62-3.01 1.25-5.78 0.88-8.88-0.04-0.37-0.75-2.57-1.25-2.56-1.05 0.01-0.33 1.51-0.12 2 0.7 1.61 0.61 3.61 0.43 5.33-0.41 3.87-1.58 7.7-2.3 11.52-0.68 3.6-1.51 7.19-2.06 10.81-0.27 1.76-0.55 3.54-0.73 5.31-0.07 0.66 0.03 2.49-0.79 2.75-1.09 0.35-2.06 0.56-3.21 0.61-0.97 0.04-2.24 0.39-2.71-0.66-0.57-1.26-0.11-2.77-0.12-4.09-0.01-1.76-0.03-3.52-0.05-5.27-0.04-3.57 0.19-7.13 0.16-10.7-0.85 0.51-1.43 1.6-1.73 2.51 0.62-0.32 0.75-0.41 0.75 0.29 0.03 3.59-0.25 7.18-0.19 10.77 0.01 0.82 0.8 7.24-0.65 7.35-0.98 0.07-0.78-2.23-0.85-2.84-0.11-0.96 0.14-1.9 0.04-2.86-0.11-1.15-0.11-2.28-0.1-3.44 0.01-2.42 0.04-4.84 0.02-7.26-1.14 0.25-1.09 2.06-1.08 2.93 0.03 1.67 0.13 3.33 0.15 5 0.02 2.23 0.25 4.48 0.22 6.71-0.04 2.42-1.36 2.19-3.23 2.56-0.39 0.08-1.09 0.21-1.45 0.07-0.85-0.33-0.93-0.39-1.16-1.26-0.5-1.87-0.09-4.26-0.11-6.19-1.12 0.92-1.13 2.55-1.07 3.87 0.03 0.8 0.11 1.6 0.08 2.4-0.02 0.49-0.07 0.98-0.19 1.45-0.03 0.15-0.5 0.07-0.54-0.06-0.39-1.36-0.5-2.73-0.51-4.14-1.25 1.01-0.57 2.4-0.92 3.66-0.25 0.88-1.21 0.68-1.88 0.63-0.51-0.04-1.43 2.16-1.67 2.53-0.79 1.24-2.39 2.9-2.56 4.4-0.08 0.7-0.01 1.4-0.11 2.1-0.25-0.46-0.25-0.99-0.26-1.5-0.45 0.27-1.86 2.01-1.3 2.39 1.84 1.24 3.19 3.52 4.73 5.12 1.87 1.95 3.67 3.96 5.58 5.86 4.06 4.04 8.14 8.07 12.25 12.07 3.85 3.75 7.95 7.23 12.28 10.41 2.13 1.57 4.32 3.07 6.53 4.53s4.58 2.71 6.58 4.47c-1.12 0.18-2.03 1.07-3.03 1.54-1.23 0.57-2.43 1.44-3.68 1.91-1.05 0.39-2.04-0.02-3.11 0.1-1.38 0.16-1.8 1.45-2.74 2.27-0.51 0.45-0.86 0.34-1.43-0.02-3.85-2.39-7.11-6-10.17-9.3-3.36-3.62-6.69-7.28-9.96-10.99-3.24-3.67-6.21-7.54-8.95-11.6-1.39-2.06-2.73-4.16-4.04-6.28-0.65-1.06-1.29-2.12-1.93-3.18-0.57-0.96-1.53-2.1-1.55-3.27-1.45 1.26-1.68 3.2-1.93 4.99-0.35 2.44-0.94 4.93-1.43 7.42-0.48 2.42-0.91 4.86-1.09 7.32-0.19 2.49-0.09 4.59 0.55 6.99 0.23 0.88 0.21 1.12-0.08 1.98-0.68-0.7-1.38-1.58-1.68-2.53-0.16-0.5-0.31-0.99-0.43-1.5-0.27-1.19-3.25 2.01-3.15 0.08 0.04-0.89 1.37-1.83 1.79-2.55 1.58-2.68 2.29-5.99 3.04-8.98 0.37-1.47 0.63-2.95 0.87-4.45 0.22-1.35 1.14-3.24 0.85-4.58-0.63 0.55-0.99 1.3-1.52 1.93-0.63 0.76-0.62 0.84-0.45 1.68 0.2 0.96-0.21 2.21-0.39 3.14-0.26 1.33-0.59 2.64-0.96 3.94-0.66 2.32-1.12 4.93-2.54 6.93-0.72 1.02-1.57 1.4-2.36 0.24-0.86-1.26 0.27-2.66 1.02-3.65 1.14-1.52 1.11-2.59 1.05-4.42-0.8 0.7-0.81 1.83-1.27 2.72-0.57 1.1-1.29 2.12-1.67 3.3-0.22-0.21-0.57-0.75-0.88-0.32-0.1 0.15-0.65 0.78-0.58 0.89 1.31 2.05 2.76 4.07 3.52 6.41-0.88-0.56-1.24-1.64-1.65-2.55-0.53-1.2-1.2-2.32-1.91-3.42-0.49 0.28-0.76 0.99-0.49 1.5-0.23 0.04-0.51 0.04-0.72 0.14-0.48 0.22-0.03 2.61-0.04 3.17-0.02 1.32 0.02 2.33 1.29 2.91 0.56 0.25 1.19 0.4 1.8 0.48 0.42 0.06 0.48-0.08 0.51 0.38 0.02 0.36 0.03 0.7 0.02 1.06-0.03 0.81 0.15 3.18-1 3.34 0.36-0.68 0.37-1.76 0.32-2.52-0.04-0.56 0.09-1.16-0.41-1.52-0.39-0.29-1.05-0.42-1.51-0.56-1.17-0.38-1.43-1.06-1.46-2.21-0.03-0.99 0.1-2.05-0.53-2.9-0.7 0.61-1.4 1.69-1.81 2.52-0.18 0.36-0.54 1.11-0.53 1.5 0.02 1.01 1.45 2.31 2.02 3.05 1.02 1.32 1.63 2.63 2.39 4.09 0.9 1.74 3.67 3.2 5.37 3.94 1.03 0.45 2.15 0.6 3.25 0.82 1.24 0.24 2.41 0.68 3.61 1.08 1.22 0.4 2.42 0.61 3.71 0.62 1.11 0 2.48 0.11 3.47 0.68 0.78 0.45 0.64 0.7-0.01 1.18-0.57 0.42-2.4 0.32-3.1 0.36-0.86 0.04-2.16 0.25-2.52 1.18-0.17 0.43-0.67 1.2-0.63 1.67 0.06 0.6 0.24 1.1 0.38 1.68 0.21 0.86-0.94 1.92-1.25 2.71-0.21 0.54-0.31 0.97-0.23 1.56 0.22 1.53-0.56 1.32-1.7 1.9-1.22 0.62-0.64 2.2-0.39 3.22 0.4 1.67 0.94 3.29 1.39 4.94 0.48 1.73 0.54 3.21 0.61 4.97 0.06 1.67 0.77 3.31 1.19 4.91 0.42 1.62 0.4 2.34-0.52 3.71-0.87 1.28-1.83 2.51-2.73 3.77-0.38 0.53-1.68 1.89-1.25 2.62 0.85 1.43 3.64 1.7 5.04 2.41 2.28 1.14 4.43 2.47 7.06 2.48 4 0.01 8.02-0.92 11.94-1.61 3.91-0.69 7.87-1.19 11.81-1.65 1.86-0.22 3.27-1.83 4.52-3.1 1.35-1.37 2.71-2.7 4.16-3.97 1.52-1.34 3.05-2.69 4.67-3.92 0.81-0.66 2.96-1.56 2.96-2.84m-1.5 0.51c-0.72 1.46-2.46 2.38-3.69 3.37-1.62 1.31-3.21 2.65-4.73 4.07-1.36 1.26-2.55 2.65-3.84 3.98-1.32 1.35-2.77 1.57-4.61 1.7-4.04 0.27-7.99 0.81-11.98 1.53-3.76 0.68-7.88 1.55-11.7 0.88-2.11-0.37-3.93-1.61-5.85-2.47-0.68-0.31-3.08-0.76-2.97-1.79 0.09-0.87 0.23-0.77 1.06-1.05 0.54-0.18 1.19 0.3 1.68 0.46 1.11 0.37 2.2 0.82 3.26 1.31 1.86 0.87 3.72 2.21 5.83 2.29 1.45 0.05 3.03-0.56 4.45-0.85 1.74-0.35 3.46-0.71 5.22-0.95 3.49-0.48 7.02-1.09 10.54-1.31 1.59-0.1 2.84-0.4 4.05-1.49 1.04-0.93 1.83-2.08 2.71-3.15 2.1-2.52 5.01-4.93 7.89-6.48 0.9-0.47 1.74-0.38 2.68-0.05m-37.14 12.32c0.08-0.44 0.3-0.85 0.49-1.26 0.26 0.4-0.16 1.02-0.49 1.26m3.75-0.28c0.2-1.34 1.85-2.61 1.46-4.01-0.93 1-1.9 2.01-2.47 3.27-0.65-1.01 1.4-2.61 1.22-3.76-0.74 0.37-1.27 1.09-1.99 1.52 0.21-0.63 0.41-1.34 0.23-2-1.44 0.88-1.84 2.84-3.22 3.78 0.56-1.22 1.81-2.39 1.97-3.77-2.05 0.03-2.67 3.6-4.21 4.54 0.06-0.32 3.01-4.92 2.46-5.02-0.57-0.1-1.49 1.41-1.7 1.75-0.63 0.99-1.21 2.16-2.26 2.79 0.38-1.18 1.16-2.18 1.82-3.2 0.05-0.08 1.09-2.1 0.57-1.78-0.92 0.57-1.5 1.54-2.05 2.44-0.46 0.75-0.89 1.85-1.85 2.06 0.56-1.71 2.23-2.93 2.46-4.77-1.8 0.6-1.97 3.78-3.71 4.03 0.24-1.66 2.22-2.73 1.96-4.52-1.55 0.94-1.64 3.45-3.46 4.03 0.35-1.3 1.27-2.52 1.81-3.76 0.57-1.31 4-0.83 5.19-0.9 4.14-0.25 8.36-1.13 12.42-1.98 3.92-0.83 7.56-2.15 11.19-3.83 1.83-0.85 3.49-1.87 5.21-2.92 1.81-1.11 2.82-1.16 4.34 0.33 0.81 0.79 1.75 1.53 2.48 2.39 0.41 0.48 0.21 0.55-0.22 0.81-2.31 1.42-4.41 3.21-6.3 5.15-0.94 0.96-1.86 1.97-2.71 3.02-0.7 0.86-1.3 1.72-2.41 2.04-2.62 0.76-5.57 0.67-8.27 1.04-2.73 0.38-5.44 0.97-8.21 0.99 0.23-1.13 1.29-1.87 1.47-3.01-1.17 0.21-2.57 2.1-2.22 3.27-0.34-0.02-0.67-0.02-1-0.02m4.72-2.79c-0.49-0.06-2.25 1.01-1.67 1.58 0.64 0.63 1.61-0.99 1.67-1.58m-7.24 0.81c0.37-0.76 0.75-0.38 0 0m-11.51-1.15c-0.55-1.04 1.28-3.2 2.22-3.52-0.13 1.1-1.31 2.92-2.22 3.52m2.28-24.77c0.59-0.12 0.76 0.35 0.65 0.86-0.11 0.54-0.57 0.95-0.88 1.39 0.61-0.22 1.45-0.8 1.49-1.51 0.06-1.17-1.2-1.26-2.01-1.23 0-0.85-0.04-1.55 0.75-2.06 0.54-0.35 1.88-0.88 1.73 0.29 0.44-0.5 0.91-1.08 0.98-1.76-0.67-0.08-0.96-0.08-1.42-0.58-0.55-0.6-0.69-1.49-1.06-2.2-0.35-0.68-0.92-1.6-0.57-2.39 1.01-2.25 4.03-1.84 6.11-1.86 1.9-0.02 4.51 0.32 6.17 1.3 1.49 0.88 2.86 1.94 4.02 3.21 1.03 1.13 1.69 3.1 3.01 3.88-0.98-1.78-1.95-3.78-3.52-5.13-1.1-0.95-2.29-1.82-3.6-2.46-1.3-0.63-2.77-0.74-4.06-1.36-0.85-0.41-0.53-4.01-0.37-4.7 0.2-0.88 0.72-2.32 1.47-2.89 1.35-1.03 4.14-0.41 5.74-0.51 2.39-0.15 4.85-0.77 6.67 1.14 1.72 1.81 3.42 3.59 5.31 5.23 0.85 0.73 1.7 1.47 2.58 2.15 0.71 0.55 1.6 1.19 1.49 2.21-0.02 0.19-0.38 1.05-0.58 0.93-0.38-0.23-0.73-0.5-1.09-0.76-1.05-0.76-1.85-0.8-3.12-0.78-1.02 0.02-1.81 1.1-2.4 1.79-1.31 1.55-0.18 4.2 1.71 4.57-0.22 0.7-0.87 1.15-1.45 1.55-0.72 0.49-1.41 1.39-2.26 1.64-0.92 0.27-1.56-1.21-2.15-1.66-1.09-0.82-2.3 1.6-2.85 2.24-0.59 0.69-1.33 1.17-1.97 1.79-0.73 0.71-0.98 1.83-1.34 2.76-0.59 1.5 1.04 3.13 0.44 4.55-0.46 1.1-0.97 2.04-1.19 3.22-0.09 0.5-0.02 0.94 0.03 1.45 0.05 0.54 0.37 0.84-0.29 1-1.08 0.26-1.69 0.88-2.54 1.6 0.53-0.22 1.15-0.21 1.71-0.28 0.73-0.08 0.72 0.96 0.78 1.38 0.14 0.93-1.94 1.07-2.6 1.16-2.69 0.36-5.35 0.77-8.08 0.56-0.76-0.06-0.92-0.06-1.33-0.68-0.7-1.06-0.86-2.44-1.24-3.63-0.45-1.41-0.51-2.63-0.45-4.09 0.06-1.42-0.44-2.73-0.8-4.09-0.39-1.5-0.77-3-1.19-4.49-0.14-0.51-0.95-3.1 0.29-2.88 0.99 0.19 2.67 1.44 3.28 0.13m14.66 18.13c0-0.85 0.24-1.65 0.23-2.5 0.48 0.51 0.39 2.1-0.23 2.5m3-0.53c0.17-1.06 0.61-1.96 0.69-3.05 0.12-1.62-0.41-3.25-1.12-4.68-0.67-1.34-1.47-2.7-1.42-4.25 0.99 0.26 1.52 1.55 2.04 2.32 0.7 1.05 1.52 2.01 1.79 3.28 0.34 1.67 0.66 6.29-1.98 6.38m2.49-0.77c0.89-2.76 1.15-5.99-0.47-8.59-0.79-1.26-1.95-2.56-2.34-4.01-0.32-1.19-0.74-3.51 0.92-3.88 0.03 1.18 0.6 2.11 1.27 3.03 1.32 1.82 3.7 3.16 4.27 5.46 0.31 1.26 0.31 2.42 0.32 3.71-0.39-0.47-0.38-1.36-0.6-1.92-0.28-0.71-0.61-1.41-1.02-2.05-0.95-1.51-2.55-2.5-3.66-3.9-0.7-0.88-0.79-2.01-1.07-3.06-0.72 1.2 0.12 3.13 1.07 4 1.23 1.13 2.51 2.06 3.31 3.55 0.75 1.41 0.9 3.14 0.62 4.71-0.16 0.89-1.36 3.6-2.62 2.95m2.25-0.27c0.02-0.48 0.24-0.86 0.49-1.25 0.29 0.22 0.61 0.39 0.76 0.74-0.4 0.22-0.82 0.38-1.25 0.51m-5.5 0.05c-0.01-1.15 0.01-2.3-0.14-3.44-0.18-1.38-0.74-2.67-0.93-4.05 0.97 0.72 1.52 2.67 1.76 3.79 0.23 1.05 0.36 3.02-0.69 3.7m-3.51-0.72c-0.12-0.41-0.24-0.82-0.26-1.25 0.41 0.26 0.57 0.85 0.26 1.25m11.75-0.61c0.21-0.33 0.44-0.52 0.74-0.76-0.04 0.47-0.23 0.81-0.74 0.76m-9.25 0.08c-0.55-0.81-1.26-1.66-1.5-2.63-0.05-0.21 0.53-0.37 0.72-0.43 0.29-0.09 0.71-0.32 0.8 0.01 0.2 0.79 0.53 2.34-0.02 3.05m-5.3-5.7c-0.73 0.58-0.76 1.68-1.63 2.21-1.02 0.62-2.02 1-3.19 1.27-2.1 0.48-4.33-0.04-6.4-0.38 0.16 1.18 2.07 1.27 2.96 1.51 0.99 0.27 2.32-0.01 3.3-0.25 1.05-0.25 2.32-0.69 3.18-1.35 0.52-0.39 0.98-0.7 1.37-1.23 0.36-0.5 0.32-1.17 0.41-1.78m15.53 4.36c0.16-0.99 0.62-1.96 0.84-2.94 0.39-1.71-0.14-3.17-0.76-4.74-0.53-1.35-1.17-3.08-0.3-4.43 1.19-1.82 3.43-2.84 4.2-4.95 0.62-1.7 0.27-4.75 2.07-5.75-0.05 0.34-0.15 0.67-0.24 1 1.37-0.35 2.66-0.18 4.05-0.27 0.68-0.05 1.34-0.27 1.83-0.73 0.86-0.8 0.84-2.77 2.1-3.19 0.68-0.23 1.38 0.18 2.03 0.23 0.99 0.07 1.27-0.11 2.14-0.61 0.53-0.31 0.97-0.84 1.55-1.04-0.1 0.89-0.62 2.08-1.56 2.35-1.16 0.32-2.1-0.59-3.18-0.36-1.58 0.34-1.32 2.11-2.08 3.13-0.4 0.53-1.03 0.83-1.38 1.4-0.4 0.65-0.6 0.58-1.33 0.35-0.27-0.09-0.42-0.14-0.62-0.36-0.17-0.19 0.1-0.39-0.21-0.44-1.27-0.18-2.09-0.03-2.88 1.01-0.33 0.43-0.77 0.82-0.84 1.36-0.19 1.41-0.24 3.39-1.45 4.35-1.13 0.9-2.52 1.6-3.3 2.87-1.04 1.7 0.39 3.95 0.92 5.6 0.68 2.1 0.24 3.89-0.7 5.81-0.2 0.47-0.39 0.35-0.9 0.35m-1.25 0.02c0.06-1.75 0.57-3.67-0.05-5.39-0.57-1.56-1.79-3.44-1.75-5.14 0.02-1.18 0.29-1.79 0.79-2.88 0.69-1.52 2.74-2.66 2.93-4.4 0.11-0.97-0.04-1.63-0.59-2.45-0.31 0.2-0.62 0.45-1 0.51 0.16-1.37 2.12-0.97 2.41 0.11 0.21 0.79 0.29 1.24 0.2 2.04-0.07 0.61-0.21 1.22-0.32 1.83 0.79-0.89 1.08-1.68 1.21-2.85 0.05-0.52-0.11-1.1-0.18-1.62-0.04-0.31-0.98-0.9-1.22-1.1-1.74-1.52-4.12 1.36-2.08 2.85-0.44 0.38-0.85-0.14-1.11-0.45-0.41-0.5-0.19-1.17-0.16-1.8 0.07-1.28 1.19-1.55 2.21-1.74 0.57-0.11 0.88-0.26 1.38 0.01 0.66 0.36 1.05 0.57 1.52 1.15 0.62 0.79 0.64 2.17 0.49 3.1-0.17 1.05-0.67 2.1-1.51 2.78-0.86 0.69-1.84 1.19-2.68 1.92-0.71 0.62-1.14 2-1.2 2.92-0.11 1.87 1.47 3.15 1.99 4.8 0.22 0.68 0.18 1.34 0.19 2.05 0.01 1.21-0.47 2.94-1.47 3.75m3.75-0.29c0.04-0.99 0.21-1.96 0.33-2.95 0.26-2.21-1.4-3.79-1.58-5.83-0.07-0.85-0.3-2.25 0.65-2.71 0.05 2.21 2.19 4.13 2.94 6.16 0.7 1.9 0.22 5.33-2.34 5.33m3.48-2.03c0.04-1.36 0.35-2.68-0.4-3.95-0.66-1.11-1.95-2.48-2.16-3.78 0.38 0.18 0.69 0.48 1.01 0.74 0.1-0.62-0.26-1.35-0.27-2 1.17 0.71 2 2.96 2.22 4.23 0.15 0.95 0.59 4.09-0.4 4.76m-23.53-3.79c-0.84-0.53-0.92-1.76-2.02-1.98 0.1 0.49 0.33 0.99 0.26 1.5-1.1-0.88-2.43-0.93-3.76-0.72 0-0.33-0.01-0.67-0.01-1-1.09 0.19-1.13 2.05-1.28 2.87-0.11 0.63-1.61 3.68 0.42 3.28 1.45-0.29 2.44-1.22 3.67-1.94 0.87-0.51 2.51-0.85 2.72-2.01m5.78 3.45c-0.08-0.17-0.17-0.33-0.25-0.5 0.63-0.14 0.67 0.55 0.25 0.5m20.5-0.93c0-0.63 0.26-1.26 0.23-1.88-0.13-2.29-1.48-4.13-1.8-6.35 1.44 0.99 1.9 2.72 2.34 4.29 0.21 0.79 0.59 4.18-0.77 3.94m-1.25 0.01c-0.01-1.52-0.07-3.11-0.68-4.53-0.7-1.63-1.47-3.17-1.65-4.95 0.6 0.65 0.65 1.64 0.94 2.43 0.35 0.92 0.8 1.8 1.15 2.73 0.43 1.16 1.3 3.24 0.24 4.32m-29.76-0.24c0.37-0.63 0.99-1.17 1.74-1.27-0.15 0.69-1.07 1.24-1.74 1.27m1.48-2.26c-0.25 0.13-0.68 0.41-0.98 0.38-0.54-0.07-0.45-0.44-0.52-0.91-0.05-0.31 0.71-0.28 0.87-0.24 0.37 0.07 0.5 0.47 0.63 0.77m9.75 0.16c-0.38-1.11-0.47-2.08-0.53-3.25 0.41 0.48 1 2.74 0.53 3.25m4.7-5.54c-0.17-0.26-1.16-2.46-0.42-2.21 0.84 0.28 1.24 1.65 0.42 2.21m18.24-2.41c-0.38-0.33-0.66-0.77-1.01-1.13-0.52-0.54-0.91-0.66-1.63-0.92-0.97-0.35-1.74 1.42-2.62 1.6 0.2-1.46 1.57-3.18 3.22-2.93 1.31 0.19 3.05 2.07 2.04 3.38m-5.78-2.7c-0.01-0.94-0.05-1.63 0.34-2.49 0.42-0.92 0.64-1.91 1.88-1.78-0.39 0.66-1.1 1.08-1.48 1.76 0.53-0.11 1.02-0.35 1.55-0.47 0.88-0.21 1.79 0.06 2.67-0.13 0.86-0.18 1.64-0.59 2.51-0.71 0.02 1.77-2.14 1.85-3.36 2.05-0.66 0.11-1.66 0.13-2.24 0.48-0.66 0.4-1.22 0.9-1.87 1.29m6.24-0.8c0.49-0.76 1.69-1.62 2.48-2.02-0.03 1.26-1.32 2.01-2.48 2.02m-39.01-1.91c0.59 0.19 1.73 0.71 0.79 1.2-0.85 0.44-1.1-0.58-0.79-1.2m35.72-3.31c0.39-0.28 0.77-0.26 1.25-0.26-0.35 0.28-0.82 0.24-1.25 0.26m-1.02-2c-2.04 1.01-3.94-0.37-5.44-1.71-1.87-1.68-3.8-3.31-5.53-5.13-1.35-1.43-2.7-3.27-4.88-3.26-0.81 0-1.62 0.25-2.44 0.27-0.87 0.02-1.73 0.03-2.6 0.03-1.43 0.01-3.35-0.27-4.63 0.53-1.11 0.69-1.79 2.24-2.28 3.41-0.33 0.78-1.54 2.97-2.76 2.09-0.27-0.2-0.07-1.23 0.12-1.51 0.85-1.23 1.45-2.6 2.08-3.95 0.42-0.89 0.93-2.45 1.77-3.05 0.75-0.54 2.43-0.24 3.29-0.28 1.45-0.06 2.9-0.17 4.34-0.27 2.15-0.15 5.06-0.82 6.84 0.74 2.23 1.95 4.08 4.29 6.21 6.34 1.04 1.01 2.05 2.06 3.15 3.01 0.99 0.8 2.16 1.61 2.76 2.74m-40.05-5.65c0.51-0.9 1.34-1.55 2.11-2.21 0.87-0.75 1.63-1.62 2.42-2.46 1.55-1.64 2.75-3.61 3.8-5.59 1.11-2.08 1.91-4.3 2.66-6.54 0.74-2.19 1.68-4.35 2.3-6.57 0.95 0.57 1.55 1.55 2.23 2.39 0.74 0.92 0.96 1.75 0.67 2.89-0.93 3.7-2.35 7.21-3.84 10.71-0.72 1.69-1.42 3.39-2.28 5.01-0.65 1.22-1.72 3.56-3.15 4.07-1.01 0.36-2.14-0.24-3.09-0.54-1.26-0.39-2.53-0.84-3.83-1.16m83.49-30.73c0.02 2.24-0.07 4.4-0.94 6.51-1.72 4.15-5.48 6.87-8.66 9.82-0.82 0.77-1.48 1.68-2.23 2.52-0.69 0.77-1.54 1.44-2.02 2.38-1.06 2.05-1.91 3.95-3.69 5.51-1.68 1.47-3.44 2.66-5.69 2.97-1.23 0.17-2.21-0.13-3.4-0.45-1.23-0.32-1.2-1.36-0.69-2.27 1.16-2.05 2.85-3.85 4.1-5.87 1.5-2.43 2.96-4.88 4.4-7.35 1.3-2.21 2.6-4.42 3.67-6.76 0.67-1.47 1.22-4.84 3.18-4.97 0.97-0.06 2.05 0.19 3.02 0.32 3.29 0.46 5.81-2.33 8.95-2.36m-90.52 26.79c1.95-0.66 4.04-1.25 5.62-2.62 3.44-2.96 6.32-6.55 8.57-10.49 1.04-1.81 2.05-3.71 2.68-5.7 0.22-0.71 0.45-1.44 0.83-2.09 0.21-0.35 1.18-1.47 1.47-0.71 0.07 0.18 0.28 0.52 0.25 0.72-0.42 2.74-1.53 5.44-2.49 8.04-0.98 2.68-2.01 5.46-3.49 7.91-1.47 2.43-3.44 4.35-5.53 6.24-0.85 0.76-1.63 1.65-2.69 2.13-0.94 0.42-2.18-0.48-2.9-1-0.78-0.55-2.19-1.37-2.32-2.43m61.52 0.54c-1.4 0.21 0.3-2.16 0.52-2.46 2.93-4.01 5.66-8.19 7.99-12.58 1.14-2.15 2.18-4.36 3.16-6.6 0.35-0.8 1.44-5.29 2.93-4.64 0.63 0.28 0.39 0.96 0.36 1.52-0.05 1.1-0.75 2.11-1.22 3.07-0.53 1.08-1.03 2.18-1.58 3.24-1.24 2.37-2.56 4.71-3.94 6.99-1.36 2.26-2.82 4.47-4.3 6.66-1.04 1.56-2.11 4.03-3.92 4.8m-1.53-1.31c-0.32-1.24-0.53-2.5-0.91-3.73-0.2-0.63-0.7-1.93-0.09-2.48 1.19-1.08 2.88-1.41 4.34-1.95 0.71-0.26-0.42-3.92-0.44-4.62-0.03-1.36 0.91-1.55 1.97-1.97 0.49-0.19 0.95-0.36 1.39-0.65 0.71-0.46 0.85-0.57 1-1.41 0.25-1.46-0.68-2.88-0.34-4.36 0.2-0.88 2.73-1.53 3.39-1.94 0.56-0.35 0.48-1.12 0.4-1.68-0.15-1.02-0.2-2.03-0.21-3.06 1.03 0.33 1.31 1.24 1.53 2.21 0.26 1.13 0.64 2.27 0.53 3.43-0.08 0.82-2.18 1.26-2.79 1.53-1.21 0.55-1.03 1.66-0.87 2.72 0.13 0.94 0.47 2.15 0.15 3.07-0.77 2.19-4.82 0.82-4.46 3.93 0.14 1.17 0.51 2.14 0.39 3.33-0.17 1.69-4.21 0.61-4.29 2.62-0.07 1.68 1.17 3.88-0.69 5.01m-3.51-1.72c0.28-0.43 0.53-0.75 0.99-1.01-0.47-0.34-0.89-0.66-1.5-0.49-0.02-2.17 1.25-4.66 2-6.66 0.87-2.3 1.75-4.61 2.74-6.86 0.97-2.22 2.06-4.38 3.24-6.49 1.04-1.87 2.09-4.43 3.77-5.81 0.29-0.24 1.27 0.23 1.4 0.51 0.45 0.94 0.79 2.05 0.85 3.1 0.04 0.66 0.07 1.09-0.13 1.71-0.17 0.53-1.39 0.86-1.85 1.05-0.77 0.31-1.83 0.77-1.78 1.76 0.04 0.88 0.86 4.12-0.05 4.7-0.85 0.54-1.7 0.9-2.63 1.25-0.68 0.25-1.37 0.64-1.44 1.44-0.09 1.06 0.31 2.14 0.38 3.2 0.09 1.23-0.07 1.79-1.35 2.24-0.87 0.3-2.39 0.63-2.93 1.43-0.51 0.76-0.1 1.96 0.09 2.75 0.29 1.21 0.47 2.44 0.72 3.66-0.97 0-1.87-0.86-2.52-1.48m-57.25 1c-0.83-1.08-1.72-2.11-2.55-3.18-0.76-0.98-1.83-1.99-2-3.28 1.11 0.21 2.25 2.12 2.84 2.97 0.42 0.62 2.04 2.69 1.71 3.49m2.89-5.64c0-0.33 0.35-0.15 0.35-0.15l-0.16 5.4-0.45 0.18m1.61-0.83c-0.34-1.1-0.1-2.25-0.04-3.37 0.03-0.58-0.23-1.92 0.29-2.33 0.31-0.25 0.59-0.52 0.96-0.68 0.47-0.2 0.51-0.11 0.76 0.28 0.35 0.53 0.73 1.06 1.02 1.63 0.41 0.81 0.66 1.2 0.22 2.02-0.56 1.05-2.01 2.26-3.21 2.45m50.99-1.69c0.83-5.21 2.93-10.13 4.93-14.97 1.02-2.48 2.08-4.94 3.22-7.36 0.45-0.96 1.83-5.2 3.37-5.02 1.2 0.14 0.42 1.99 0.12 2.53-2.38 4.23-4.84 8.44-6.8 12.89-0.97 2.21-1.82 4.48-2.62 6.75-0.25 0.7-1.28 5.4-2.22 5.18m-33.5 0.29c0.07-1.84 1.13-3.6 1.71-5.31 0.34-1.01 0.66-2.02 0.99-3.03 0.19-0.57 0.33-1.93 1.14-1.94 0.35 0 0.79 0.82 1 1.06 0.67 0.78 1.54 1.59 1.79 2.62 0.12 0.47-0.46 0.64-0.46 1.18-0.01 0.43 0.63 1.06 1.08 0.82 0.48-0.26 0.48-0.61 1.05-0.21 1.28 0.89 2.49 2.36 3.37 3.64 0.16 0.24 0.29 0.54 0.34 0.82-1.79 0.02-3.57 0.3-5.37 0.3-2.22-0.01-4.43 0.03-6.64 0.05m2.94-0.69c0.59-0.3 0.46-0.78 0.35-1.32-0.07-0.37-0.92-0.42-1.26-0.51-0.1 0.47-0.19 0.94-0.29 1.41-0.01 0.1 1.05 0.37 1.2 0.42m29.3-0.34c-1.45-0.62-4.04-2.21-4.64-3.75-1.2-3.07-1.8-6.32-2.52-9.51-0.74-3.28-1.29-6.52-1.63-9.86-0.33-3.19-0.88-6.35-1.14-9.55-0.05-0.64-0.81-6.34 1-5.69 0.65 0.23 0.97 0.27 1.04 1 0.62 6.64 1.27 13.3 2.68 19.84 0.71 3.31 1.44 6.62 2.51 9.83 0.55 1.64 1.2 3.2 1.99 4.74 0.36 0.69 1.41 2.2 0.71 2.95m-26.12-0.02c0.13-0.45 0.37-0.85 0.18-1.28-0.32-0.75-1.44-0.29-1.48 0.4-0.04 0.64 0.69 1.41 1.3 0.88m3-0.28c0.04-0.38 0.09-0.76 0.14-1.13-0.39-0.04-0.77-0.09-1.16-0.13-0.02 0.2-0.22 1.02-0.11 1.16 0.11 0.13 0.93 0.08 1.13 0.1m23.61-1.7c-1.49-1.98-2.13-5.01-2.81-7.36-0.83-2.85-1.44-5.76-2.04-8.67-1.27-6.13-2.4-12.63-2.45-18.91 0.42 0.03 0.83 0.02 1.25-0.01 0 0.52 0.13 1 0.26 1.5 0.72-0.37 0.77-0.28 0.95 0.49 0.11 0.5 0.19 1 0.32 1.5 0.2-0.32 0.44-0.63 0.49-1 0.51 0.54 0.57 2.56 0.53 3.24 1.04-0.66 0.73-2.23 0.72-3.26 0.54 0.58 0.3 1.52 0.28 2.23-0.03 1.1 0.26 2.17 0.26 3.27 0.28-0.22 0.6-0.41 0.74-0.76 0.45 0.48 0.3 1.5 0.45 2.11 0.22 0.92-0.11 1.33-0.28 2.18-0.4 2.11-0.42 4.28-0.53 6.43-0.03 0.6-0.33 8.29 0.78 8.28 1.43-0.01-0.66-4.21 1.11-4.49 0.25-0.04 0.08-1.64 0.08-1.77 0.36 0.1 0.7 0.29 1 0.49 0.07-0.42 0.17-0.83 0.24-1.25 0.25 0.17 0.49 0.35 0.76 0.49 0.11-0.58 0.27-1.16 0.23-1.75 0.29 0.16 0.35 0.48 0.51 0.75 0.05-0.05 0.58-0.78 0.49-0.75 0.31-0.11 0.56 0.31 0.75 0.49 0.2-0.63 0.17-1.43-0.52-1.75 0 0.33 0.01 0.67 0.01 1-0.36-0.44-0.28-1.06-0.58-1.53-0.31-0.49-0.69-0.35-0.69-0.97-0.01-0.49-0.01-0.99-0.01-1.48-0.33 0.17-0.66 0.34-1 0.51 0-0.58-0.01-1.17-0.02-1.75-0.35 0.15-0.52 0.47-0.74 0.76-1.46-2.2 1-4.12 2.2-5.77 0.47 0.73-0.16 1.77-0.07 2.57 0.13 1.14 1.28 2.02 2.12 2.67 0.4-1.27-1.41-2.04-0.78-3.24 0.28 0.39 0.26 0.77 0.26 1.25 0.25-0.13 0.46-0.29 0.75-0.26-0.13-0.5-0.06-0.99-0.01-1.5 0.5 0.6 0.27 1.75 0.52 2.5 0.62-0.79 0.48-1.81 0.47-2.75 0.39 0.45 0.2 2 0.77 1.99 0.58 0 0.23-2.44 0.23-2.75 0.55 0.66 0.15 1.71 1.02 2.24 0-0.43 0.04-0.87 0.24-1.25 0.25 0.17 0.49 0.35 0.75 0.49 0.12-0.25 0.28-0.47 0.24-0.75 0.58 0.08 0.84 0.27 1.25 0.67 0.38 0.36 0 1.12-0.15 1.51-0.8 2.07-1.96 3.99-2.87 6.01-0.94 2.09-1.83 4.2-2.71 6.32-0.89 2.14-1.77 4.29-2.51 6.49-0.27 0.82-1.16 5.49-2.26 5.3m-52 0.45c-1.11-0.55-3-0.02-3.02-1.81-0.02-1.5-0.03-2.94-0.29-4.42 0.94 0.79 1.69 2.32 2.03 3.48-0.33 0.1-0.66 0.2-1 0.26 0.16 1.29 1.3-0.07 1.62 0.41 0.31 0.48 1.1 1.53 0.66 2.08m23.43-1.95c0.12-0.09 0.61-0.62 0.34-0.77-0.23-0.13-0.84-0.66-1.08-0.54-0.15 0.07-0.39 0.86-0.33 1.02 0.17 0.44 0.69 0.29 1.07 0.29m-15.45-0.12c-1.98-2.53-0.77-5.93-0.57-8.8 0.12-1.8 0.55-3.51 0.85-5.29 0.14-0.8 0.25-1.65 0.49-2.42 0.16-0.51 0.96-0.05 1.08-0.76 0.33 0.36 0.39 1.04 0.51 1.5 0.11-0.18 0.54-0.43 0.75-0.26 0.1 0.08 0.01 0.85 0.01 1 0.23-0.12 0.75-0.5 0.75-0.06 0.03 2.64-0.8 5.35-1.25 7.94-0.38 2.24-0.41 5.82-2.62 7.15m36.99-1.32c-0.86-0.48-1.62-1.18-2.37-1.81-0.82-0.7-5.35-6.85-5.57-7.87-0.89-4.24-1.79-8.41-2.28-12.72-0.24-2.14-0.57-4.26-0.8-6.4-0.1-0.94-0.85-4.33 0.13-4.68 1.17-0.42 2.66-0.19 3.87-0.18 0.45 0 2.11-0.23 2.48 0.2 0.46 0.52-0.01 2.13 0.01 2.77 0.05 1.48 0.28 2.97 0.43 4.44 0.32 3.15 0.8 6.27 1.22 9.41 0.42 3.16 0.87 6.29 1.58 9.41 0.35 1.52 0.73 3.03 1.08 4.55 0.18 0.74 0.79 1.96 0.33 2.69-0.03 0.06-0.07 0.13-0.11 0.19m14.24-1.88c-0.75 0.04-1.03 0.19-0.89 0.94 0.05 0.26 0.56 0.05 0.67-0.06 0.18-0.18 0.21-0.64 0.22-0.88m-47.78-2.08c0.08-2.24 0.71-4.41 0.99-6.63 0.14-1.11 0.34-2.22 0.51-3.32 0.17-1.11 0.13-2.28 0.63-3.31 0.82 0.56 0.36 1.98 0.29 2.77-0.14 1.5-0.33 3-0.48 4.5-0.19 1.92-0.02 4.82-1.94 5.99m24.73-3.47c-1.69-1.37-3.62-2.92-4.1-5.15-0.77-3.62-0.57-7.38-1.19-11.01-0.3-1.79-0.37-3.61-0.51-5.42-0.05-0.65-0.7-4.08 0.28-4.4 0.44-0.14 1.09-0.12 1.47 0.15 1.28 0.88 0.89 3.88 1 5.17 0.2 2.49 0.55 4.97 0.98 7.43 0.42 2.47 0.92 4.92 1.41 7.37 0.21 1.06 0.4 2.13 0.65 3.19 0.17 0.76 0.55 1.98 0.01 2.67m25.94-0.72c0.19-0.14 0.47-0.44 0.37-0.71-0.13-0.33-0.64-0.26-0.96-0.31 0 0.43-0.16 1.45 0.59 1.02m-47.47-2.34c-0.01-1.15-0.2-3.6 0.71-4.51 0.53 0.81 0.68 1.35 0.44 2.3-0.19 0.75-0.56 1.7-1.15 2.21m16.23-2.14c-0.79-0.75-2.64-1.95-2.64-3.17 0-1.15 0.53-3.2-1.17-3.55-0.05 0.45-0.3 0.9-0.51 1.3-0.35 0.67-0.56 0.33-1.1-0.04-0.38-0.26-0.62-1.06-0.83-1.46-0.37-0.68-0.19-1.75-0.27-2.5-0.11-1.05-0.15-2.11-0.22-3.16-0.14-2.06-0.37-4.09-0.42-6.16-0.01-0.51-0.07-1.08 0.14-1.56 0.28-0.64 1.07-0.4 1.63-0.46 1.03-0.11 3.46-0.68 3.74 0.84 0.64 3.47 0.32 7.08 0.91 10.56 0.31 1.8 0.27 3.67 0.5 5.49 0.15 1.18 1.09 2.78 0.24 3.87m37.18-8.08c-0.35 0.18-0.43 0.35-0.67 0.03-0.12-0.15-0.3-0.23-0.45-0.36-0.33-0.28-0.38-0.03-0.38-0.53 0-0.49 0.1-0.4 0.57-0.52 5.13-1.3 9.96-4.78 13.55-8.58 2.62-2.77 4.23-6.39 5.67-9.88 1.64-3.96 2.93-8.06 4.06-12.19 1.17-4.27 2.31-8.57 3.36-12.87 1.03-4.2 1.54-8.58 2.29-12.85 0.92 0.87 1.09 2.68 1.39 3.85 0.43 1.71 0.73 3.45 1.01 5.19 0.57 3.55 1.18 7.15 1.45 10.73 0.26 3.46-1.05 6.16-2.17 9.34-0.44 1.26-1.62 4.92 0.5 5.33 0.58 0.11 0.9-1.68 0.99-2.03 0.32-1.25 0.02-2.53-0.01-3.79-0.04-1.22 0.29-2.56 0.82-3.66 0.59 0.69 0.44 1.75 0.35 2.57-0.13 1.23-0.09 2.45-0.06 3.69 0.07 2.79-0.02 5.6 0.08 8.39 0.04 1.05 0.17 2.1 0.13 3.15-0.05 1.25-0.56 2.31-0.91 3.49-0.73 2.44-0.47 5.29-1.97 7.48-1.76 2.56-4.8 4.29-7.52 5.64-3.22 1.59-6.58 3.35-10.21 3.64-2 0.16-4.62-1.05-6.38-1.87-1.19-0.55-2.34-1.19-3.47-1.86-0.62-0.35-1.83-0.74-2.02-1.53m-1.46 4.02c-0.75-0.21-1.27 0.26-1.24 1.01 0.64 0.01 1.24-0.3 1.24-1.01m-43.29-3.62c-1.87-1.17-1.06-4.88-1.18-6.69-0.06-0.93-0.94-5.7 0.56-6.06 0.07 2.45 0.5 4.87 0.59 7.33 0.06 1.37 0.98 4.19 0.03 5.42m4.5-0.79c0.24-0.75 0.74-1.38 0.61-2.2-0.14-0.83-0.41-1.72-1.29-2.02-0.49-0.16-0.72 2.1-0.76 2.34-0.11 0.78 0.72 1.72 1.44 1.88m36.73-1.82c0.48-0.76 1.56-0.84 2.35-1.07 1.36-0.38 2.6-1.02 3.81-1.73 2.51-1.47 4.9-3.05 6.95-5.14 4.19-4.28 6.45-9.66 8.38-15.22 0.97-2.8 1.73-5.65 2.43-8.53 0.71-2.94 1.62-5.81 2.31-8.76 1.41-6.08 2.61-12.19 3.77-18.31 1.94 0.36 0.65 4.36 0.48 5.54-1.14 7.72-3.33 15.28-5.25 22.84-1.84 7.23-4.09 15.17-8.55 21.27-1.47 2.01-3.46 3.54-5.54 4.88-2.1 1.35-4.27 2.86-6.59 3.81-1.18 0.47-3.36 1.03-4.55 0.42m-13 0.11c-0.01-0.92-0.02-1.83-0.02-2.75 0.46 0.55 0.46 2.18 0.02 2.75m-30.25 0.26c-1.28-0.59-2-1.77-2.53-2.99-0.25-0.56 0.29-1.25 0.51-1.74 0.31-0.7 0.3-1.34 0.09-2.06-0.16-0.55-0.44-1.09-0.57-1.64-0.23-1-0.86 0.35-0.99 0.71-0.17 0.48-0.55 1.29-0.51 1.8 0.04 0.58 0.32 1.4 0.23 1.96-0.9-0.51-1.19-1.19-1.59-2.11-0.25-0.59-0.36-2.04-0.2-2.66 0.1-0.38 0.13-1.18 0.44-1.43 0.49-0.4 5.03-0.64 5.04-0.21 0.02 1.96-0.04 3.91 0.16 5.87 0.11 1.1 0.68 3.53-0.08 4.5m40.98-2.6c-0.48-0.88 0.34-2.11 1.31-1.96 0.81 0.12 2.47 0.72 3.23 0.32 1.06-0.56 1.11-2 2.01-2.69 0.87-0.67 2.23 0.17 3.17-0.08 0.74-0.2 1.06-0.13 1.35-0.83 0.42-0.98 0.07-2.19 0.67-3.11 0.5-0.76 1.95-0.68 2.74-0.86 1.16-0.26 1.96-0.83 1.97-2.11 0.01-0.81-0.65-2.79 0.03-3.42 1-0.91 2.25-1.42 3.27-2.27 1.26-1.05 0.16-2.92-0.04-4.23-0.08-0.49-0.21-0.93 0.17-1.31 1.19-1.24 3.15-1.9 2.9-3.9-0.14-1.1-0.67-2.12-0.84-3.22-0.21-1.34 1.81-2.36 2.55-3.21 1.4-1.58-1.44-3.41-0.45-5.08 0.56-0.95 1.65-1.43 2.31-2.29 0.77-1 0.78-1.76 0.37-2.95-0.31-0.91-1.06-2.31-0.71-3.28 0.36-1.02 1.72-1.66 2.45-2.43 0.99-1.05-0.88-3.41-1.09-4.52-0.37-1.99 2.17-2.13 2.69-3.71 0.49-1.5-2.73-4.71-0.1-5.36 0.1 0.45-0.16 0.9-0.2 1.33-0.14 1.3 1.21 2.31 1.55 3.49 0.52 1.82-1.32 2.18-2.1 3.39-0.46 0.71-0.51 0.79-0.35 1.6 0.12 0.57 0.34 1.1 0.54 1.65 0.4 1.08 0.83 2.11 0.11 3.08-0.63 0.84-1.93 1.4-2.31 2.42-0.66 1.78 1.43 3.43 0.58 5.19-0.46 0.96-2.73 2.2-2.58 3.28 0.16 1.09 0.68 2.11 0.79 3.18 0.07 0.67 0.17 1.02-0.32 1.53-0.39 0.4-0.89 0.75-1.31 1.13-0.89 0.8-1.57 1.54-1.26 2.8 0.27 1.08 0.69 2.11 0.88 3.21 0.19 1.16-1.21 1.8-2.07 2.39-0.97 0.67-1.09 1.59-0.8 2.66 0.19 0.7 0.93 2.61 0.31 3.24-0.88 0.88-1.72 1.49-2.77 2.16-1.04 0.67-1.27 1.41-1.26 2.62 0.01 0.85 0.27 2.79-0.53 3.36-0.85 0.6-2.18 0.46-3.08 0.94-0.7 0.37-1.15 0.91-1.35 1.68-0.17 0.67-0.11 1.95-0.63 2.47-0.81 0.8-2.85-0.03-3.88 0.16-1.67 0.31-1.54 2.49-2.94 3.13-0.68 0.31-1.87-0.29-2.57-0.39-1.03-0.17-1.6 0.14-2.41 0.8m-11.75 0.1c-0.01-0.75-0.01-1.5-0.02-2.25 0.43 0.5 0.42 1.73 0.02 2.25m3.49-1.03c-0.49-1.45-1.14-2.83-1.83-4.19-0.62-1.23-1.19-2.53-0.72-3.91 0.95-2.81 2-5.58 2.91-8.4 0.83 0.17 1.07 1 1.35 1.7 0.44 1.06 0.82 2.15 1.29 3.2 0.46 1.06 1.49 2.25 1.23 3.48-0.17 0.81-0.28 1.62-0.41 2.44-0.2 1.26-1.45 2.21-1.85 3.44-0.31 0.98-0.74 2.2-1.97 2.24m6.75-0.56c-0.22-0.47-0.5-0.97-0.51-1.5 0.29 0.05 0.58 0.12 0.88 0.16 0.36 0.05 0.63-0.04 0.63 0.37 0 0.54-0.49 0.95-1 0.97m-33.54-4.21c-0.65 0.01-0.6-0.07-0.89 0.41-0.19 0.31-0.29 0.67-0.39 1.01-0.22 0.77-0.29 1.93 0.6 2.36 0.47 0.22 0.69 0.31 1.05-0.11 0.23-0.27 0.45-0.86 0.4-1.21-0.14-0.9-0.59-1.63-0.77-2.46m36.53 2.68c0.38-0.26 0.8-0.48 1.24-0.62 0.62-0.2 0.71-0.21 0.89 0.43 0.17 0.59 0.71 0.59 0.66-0.08-0.03-0.44-0.47-0.87-0.07-1.16 4.32-3.1 7.25-8.12 9.63-12.76 2.6-5.07 4.68-10.32 6.31-15.78 1.63-5.44 3.25-11 4.41-16.56 0.61-2.91 1.13-5.85 1.56-8.79 0.2-1.35 0.31-2.69 0.43-4.05 0.11-1.26 0.65-2.87 0.39-4.11 0.52 0.07 0.67 0.63 0.81 1.05 0.2 0.6 0.87 0.88 1.11 1.47 0.4 1-0.96 1.57-0.8 2.58s0.98 1.91 1.11 2.93c0.06 0.45 0.33 1.18-0.02 1.54-0.86 0.91-1.83 1.5-2.53 2.57-0.63 0.96 1.24 3.42 1.26 4.54 0.02 1.16-1.15 1.75-1.87 2.46-1.17 1.15-0.39 2.49-0.11 3.86 0.3 1.48 0.57 2.51-0.58 3.56-0.49 0.45-2.22 1.54-2.07 2.35 0.11 0.62 0.19 1.22 0.41 1.81 0.47 1.26 0.62 1.95-0.15 3.09-0.61 0.9-1.66 1.44-2.3 2.37-0.42 0.61 0.36 2.44 0.57 3.12 0.35 1.14 0.58 1.99-0.53 2.79-0.48 0.35-2.35 1.34-2.34 2.01 0.02 1.12 0.52 2.12 0.69 3.22 0.21 1.35-0.27 1.96-1.43 2.6-0.85 0.47-2.1 1.1-2.49 2.02-0.65 1.52 0.94 3.75-1.08 4.64-1 0.44-3.49 0.38-3.68 1.81-0.07 0.54-0.07 1.14-0.25 1.66-0.31 0.88-0.28 0.97-1.15 1.27-1.11 0.38-2.24-0.33-3.31 0.32-0.58 0.36-1.27 2.28-1.91 2.33-0.9 0.06-2.15 0.26-2.81-0.49m-4.02-2.21c1.16 0.3 2.14 0.53 3.31 0.24 1.07-0.26 2.04-0.78 2.89-1.47 4.12-3.34 6.34-8.24 8.75-12.82 2.67-5.06 4.68-10.56 6.31-16.04 3.29-11.05 5.52-22.6 5.43-34.14 2.07 1.06 2.11 3.69 1.84 5.7-0.32 2.34-0.4 4.71-0.74 7.06-0.35 2.42-0.88 4.81-1.4 7.2-1.08 4.94-2.39 9.81-3.77 14.67-1.35 4.73-2.84 9.45-4.98 13.89-2.06 4.28-4.35 8.67-7.54 12.22-1.48 1.65-3.07 2.98-4.87 4.26-0.74 0.53-1.79 0.96-2.72 0.9-0.91-0.05-2.38-0.63-2.51-1.67m1.24-1.01c1.64-0.05 3.11-1.28 4.34-2.24 0.71-0.56 1.41-1.12 2.07-1.73 0.61-0.57 1.18-1.42 2.05-1.6-0.15 0.95-0.78 1.77-1.33 2.52-0.65 0.88-1.32 1.71-2.23 2.33-0.85 0.58-4.44 2.55-4.9 0.72m10.99-1.1c-0.72-0.4-1.41 0.29-0.99 1.01 0.47-0.24 0.89-0.43 0.99-1.01m-11.77-1.65c0.6-0.01 1.57 0.11 2.08-0.22 1.17-0.75 2.27-1.57 3.37-2.4 0.88-0.66 2.06-1.52 2.25-2.69-0.43 0.02-1.32-0.75-1.01-1.24 0.32-0.52 1.84 0 2.07 0.41 0.12 0.21 0.65 0.88 0.58 1.11-0.14 0.46-0.22 0.88-0.52 1.26-1.5 1.93-3.56 3.74-5.67 4.97-0.57 0.34-1.53 0.88-2.18 0.59-0.76-0.36-1.42-0.83-0.97-1.79m7.55-23.06c-0.66-0.13-1.41-1.1-2.06-1.04-0.91 0.08-1.98 0.52-2.3 1.45-0.27 0.79-0.7 1.69-0.8 2.51-0.13 1.02 0.33 2.03 0.69 2.96 0.47 1.2 0.78 2.47 1.16 3.7 0.62 2.03 2.07 4.77 0.46 6.69 0.42 0.14 0.72 0.38 1.06 0.66 0.25 0.21 0.6 1.25 0.57 1.57-0.06 0.8-1.36 1.85-1.93 2.31-0.87 0.7-1.76 1.5-2.89 1.66s-2.14-0.28-2.93-1.15c-0.99-1.1-1.32-2.73-1.89-4.06-0.62-1.47-1.67-3.6-1.15-5.23 1-3.11 2.69-5.98 4.16-8.88 0.66-1.3 1.24-2.64 1.92-3.92 0.71-1.34 1.43-1.9 2.9-2.24 0.88-0.2 1.55-0.1 2.05 0.79 0.38 0.71 0.84 1.41 0.98 2.22m8.31 20.17c0.41-0.29-0.08-1.04-0.52-0.75-0.51 0.34 0.16 0.94 0.52 0.75m-10.89-0.9c-0.05-0.62-0.06-1.28-0.76-1.49 0.01 0.52 0.2 1.3 0.76 1.49m3.95-5.54c-0.32 0.28-0.65 0.51-0.99 0.76-0.6-1.1-0.38-2.55-0.3-3.74 0.1-1.48-0.2-3.67 0.47-5.01 0.65 0.59 0.4 1.62 0.33 2.37-0.13 1.29-0.03 2.58-0.02 3.88 0.89-0.58 1.03-2.05 0.97-3.01 0.61 0.36 0.88 1.34 1.08 1.96 0.14 0.44 0.33 0.72-0.14 0.92-0.33 0.14-0.82 0.2-1.03 0.55-0.13 0.23 0.4 0.86 0.7 0.8 0.4-0.07 0.95-0.38 1.32-0.37 0.43 0.01 0.63 0.15 0.81 0.53 0.08 0.16 0.83-0.13 1.04-0.17 0.27 1.14-1.13 2.72-1.94 3.32-0.5 0.37-1.31-0.66-1.56-0.95-0.43-0.52-0.54-1.18-0.74-1.84m-42.76-0.87c-0.35 0.51-0.77 1.42-0.68 2.05s0.23 2.09 1.21 2.02c0.7-0.05 0.97-1.53 0.87-2.03-0.16-0.83-0.44-1.85-1.4-2.04m45.17 2.6c0.39-0.32 0.39-0.61 0.41-1.08 0.02-0.69-0.3-0.69-0.91-0.68-0.74 0-0.59 2.32 0.5 1.76m-27.64 0.5c0.09-2.65 0.81-5.27 1.33-7.86 0.57-2.85 1.14-5.7 1.81-8.53 1.23-5.2 2.38-10.64 5.44-15.11 1.11-1.62 3.1-3.36 5.17-3.38 1.95-0.02 4.95 1.09 4.97 3.5 0.05 5.97-2.66 11.01-5 16.35-1.17 2.66-2.24 5.35-3.51 7.96-0.68 1.39-1.38 2.76-2.13 4.11-0.47 0.86-0.73 2.08-1.74 2.48-1.84 0.75-4.39 0.46-6.34 0.48m36.23-2.32c-0.36-0.75-0.8-0.95-1.16-0.11-0.24 0.56 0.99 0.22 1.16 0.11m-7.76-1.43c0-0.68 0.36-1.45 0.98-1.76 0 0.33 0.01 0.67 0.01 1 0.79-0.5 0.56-2.19 0.72-3.01-0.49-0.09-1.38 0.64-1.39-0.18-0.01-0.61-0.21-1.22-0.38-1.8-0.39 0.52-0.58 1.03-0.86 1.61-0.24 0.5-0.33 0.39-0.9 0.35-0.33-0.03-0.66-0.01-0.98 0.07-0.02-2.94 0.09-5.88 0.14-8.82 0.02-1.21 0-2.42 0.04-3.63 0.03-0.82 0.09-2.13-0.81-2.55 0.02 1.69-0.15 3.32-0.21 5-1.69-1.28 0.8-4.5-1.3-5.49 0.01 0.84 0.32 2.16-0.47 2.75-0.55-1.02 0.23-2.9-1.03-3.49 0.01 0.84 0.16 2.09-0.48 2.75-1-1.84 0.34-4.41 1.26-5.98 2.1-3.58 3.97-7.3 5.78-11.03 0.91-1.87 1.75-3.76 2.67-5.63 0.45-0.93 0.92-1.86 1.42-2.76 0.19-0.35 0.37-0.85 0.69-1.1 0.26-0.19 0.8-0.3 0.94-0.61 0.09-0.19-0.26-1.21-0.26-1.5 0.48 0.14 0.59 0.56 0.76 0.99 1.25-0.9 2.28-2.41 2.97-3.78-1.08 0.04-1-1.26-1.02-1.99-0.4 0.21-0.65 0.57-0.91 0.93-0.48 0.66-0.75 0.54-1.49 0.4-0.43-0.08-0.95-0.43-1.04-0.91-0.12-0.58 0.53-0.71 1-0.97 1.39-0.77 4.9-1.4 6.08 0.1 0.7 0.89 1.38 1.78 1.39 2.97 0.01 1.5-0.65 16.65-1.8 16.41-0.25-0.05-0.48-0.07-0.69-0.22-0.55-0.41-0.89-0.53-0.52-1.23 0.45-0.85 1.46-1.53 1.62-2.51-0.8 0.01-1 0.23-1-0.58-0.01-0.72-0.01-1.44-0.02-2.16-0.67 0.4-0.94 1.31-1.23 1.98-0.17 0.39-0.23 0.65-0.7 0.4-0.3-0.16-0.72-0.29-1.05-0.36 0.21 0.77 1.27 3.68 0.29 3.93-0.44 0.11-0.61 0.16-0.98 0.45-0.44 0.34 0.15 0.56 0.45 0.75 0.21 0.14 0.77-0.01 1.04 0 0.76 0.03 1.45 0.48 2.23 0.55 0.59 0.05 0.58 0.12 0.48 0.7-0.19 1.07-0.95 1.88-1.04 2.98-0.08 0.99 0.15 2.33-0.61 3.12-0.49-0.89-0.27-2.28-0.28-3.25-1.13 1.47-0.75 4.24-0.86 6.05-0.06 0.92-0.11 1.85-0.23 2.77-0.02 0.17-0.02 0.53-0.15 0.67-0.22 0.23-1.17-0.17-1.18-0.52-0.01-0.64-0.01-1.29-0.02-1.94-0.45 0.29-0.75 0.85-1.08 1.26-0.52 0.64-0.82 0.51-1.65 0.52 0.25 0.84 0.55 1.68 0.7 2.54 0.23 1.3-0.14 0.7-0.98 1.04-0.38 0.15-0.67 0.25-0.47 0.67 0.23 0.49 0.65 0.42 1.14 0.47 0.3 0.03 0.35 1.98 0.42 2.26 0.35-0.18 0.68-0.43 0.88 0.08 0.13 0.33 0.02 0.75-0.04 1.08-0.13 0.69-0.41 1.51-0.81 2.09-0.75-0.56-0.52-2.17-0.53-3-2.12 1.23 0.43 5.11-1.19 6.76-0.61-1.12-0.22-3-0.18-4.22 0.05-1.51 0.06-3.06-0.39-4.52-0.19 0.2-0.41 0.36-0.67 0.48-0.19 0.07-0.28-0.59-0.31-0.75-0.33-2.25-0.07-4.7-0.09-6.97-0.79 0.94-0.76 2.15-0.73 3.3 0.04 1.39-0.04 2.79-0.11 4.18-0.16 2.85-0.05 5.67-0.02 8.52 1.06-1.26 0.87-3.19 0.77-4.72-0.04-0.7-0.38-2.86 0.66-3.05 0.02 2.45 0.02 4.9 0.09 7.35 0.01 0.28 0.02 5.15-0.79 4.89-0.56-0.15-1.09-0.35-1.69-0.18m25.74-0.98c0.01-0.79-0.11-1.76 0.23-2.5 0.47 0.51 0.36 2.1-0.23 2.5m-71.54-4.37c-1.11 0.55-1.75 3.99-0.08 4.21 0.77 0.1 1.26-1.4 1.19-1.97-0.1-0.84-0.6-1.6-1.11-2.24m40.29 3.89c-0.28-0.5-0.63-4.5-0.04-4.5 0.41 0 0.25 0.34 0.26 0.72 0 0.98 0.42 2.95-0.22 3.78m15.96-4.63c0.06-0.44-0.42-0.81-0.76-0.57-0.35 0.25-0.4 0.68-0.49 1.08 0.48-0.03 0.86-0.26 1.25-0.51m-11.75 0.35c-0.02-2.43 0.2-4.85 0.23-7.27 0.01-1.18-0.04-2.37-0.06-3.55-0.02-0.9 0.32-1.68-0.72-1.67-0.2 0-0.18 6.12-0.18 6.55-0.01 1.38-0.02 2.76-0.02 4.14v1.14c0 0.67 0.1 0.66 0.75 0.66m1.25-0.26c0.43-0.82 0.29-1.8 0.29-2.69 0-1.06 0.17-2.11 0.16-3.17l-0.06-6.9c-0.73 0.17-0.77 1.17-0.77 1.76 0 1.15 0.03 2.28-0.06 3.44-0.12 1.57-0.1 3.14-0.08 4.71 0 0.66-0.45 2.89 0.52 2.85m-5.52-1.71c-0.53-0.35-0.89-0.78-1.46-1.09-0.71-0.38-1.14 0.34-1.54 0.86-1.31-0.8-0.04-2.82 1.3-2.59 0.93 0.17 2.48 1.84 1.7 2.82m1.24-1.26c-0.73-0.64-1.6-2.09-2.65-2.18-0.46-0.04-0.9-0.04-1.37-0.03-0.05-1.45 1.56-1.72 2.52-0.89 0.6 0.52 2.26 2.18 1.5 3.1m17.2-5.4c-0.26-0.08-0.58-0.23-0.85-0.12-0.21 0.08-0.58 0.49-0.4 0.77 0.44 0.64 1.11-0.32 1.25-0.65m-6.25-0.19c-0.02-0.89 0.51-2.08 1.48-2.26-0.23 0.89-0.4 2.1-1.48 2.26m-3.5 0.03c0.44-2.29 0.23-4.68 0.19-7-1.41 0.3-0.71 4.96-0.7 5.89 0.01 0.68-0.25 1.15 0.51 1.11m4.71-4.54c0.48-1.99 0.21-4.21 0.2-6.25-0.95 0.15-0.88 2.42-0.91 3.17-0.04 0.9 0.04 2.39 0.71 3.08m-3-0.48c0.03-0.76 0.61-3-0.53-3.25 0.09 1.07-0.71 2.59 0.53 3.25m-4.52-2.21c-0.86 0.02-1.86 1.84-0.67 2.11 0.92 0.22 0.82-1.62 0.67-2.11m5.76 1.45c0.73-1.01 0.48-2.59 0.47-3.75-1.14 0.18-1.29 3.16-0.47 3.75m8.73-2.07c-0.63-0.11-1.23 0.37-1.24 1.01 0.64 0.01 1.25-0.3 1.24-1.01m-12.24 0.6c0.19-1.08-1.36-0.79-2.01-0.73-0.01 1.03 1.32 1.1 2.01 0.73m-3.01-1.22c-0.39-0.11-2.6-0.18-1.99 0.77 0.2 0.31 0.93 0.28 1.21 0.26 0.51-0.06 0.77-0.53 0.78-1.03m1 0.24c0.71-1.54 2.01-2.75 2.71-4.27-0.47-0.23-1.02-0.07-1.5 0.01-0.01-0.9-0.04-1.63-0.27-2.5-0.64 0.53-1.1 1.71-1.23 2.51-0.4-0.26-0.82-0.53-1.26-0.74-0.28 0.79 0.23 1.92 0.4 2.69 0.17 0.69 0.1 2.51 1.15 2.3m-5.3-5.2c-0.17-0.1-0.46-0.75-0.18-0.75 0.31 0 0.62-0.01 0.92-0.01-0.23 0.31-0.41 0.54-0.74 0.76m14-0.63c0.09-0.5 0.21-2.66-0.86-1.81-0.86 0.68-0.04 1.86 0.86 1.81m7.49-1.31c-0.05-0.32-0.22-1.54-0.82-0.93-0.68 0.69 0.3 0.85 0.82 0.93m-34.56-6.2c0.35-1.91-2.07-1.44-2.28-2.98 3.38 0.93 6.79 1.94 9.98 3.43 1.58 0.74 3.12 1.52 4.72 2.22 0.71 0.31 3.24 1.02 3.04 1.95-0.06 0.31-0.2 1.06-0.59 0.95-0.66-0.18-1.19-0.21-1.88-0.21-1.1 0.01-1.77-1.41-2.31-2.18-1.05-1.48-3.46-2.24-5.17-2.42-1.98-0.21-3.73 0.36-5.51-0.76m13.52 2.38c0.45-0.36 1.2-0.36 1.75-0.49 0.52-0.12 1.68-0.67 1.48 0.2-0.21 0.91-0.47 1.28-1.4 1.15-0.64-0.08-1.29-0.51-1.83-0.86m-16.25-0.36c-0.3-0.46-0.79-0.32-1.25-0.24 0.14-1.06 1.86-0.5 1.25 0.24m1.5-0.26c0.19-0.28 0.45-0.38 0.75-0.51-0.17 0.29-0.46 0.39-0.75 0.51m-0.34-10.25c0.83 0.5 0.84 1.83 1.49 2.52 0.7 0.73 1.7 1.68 2.82 1.28 1.12-0.39 1.88-0.95 2.84-1.65 1.02-0.74 1.91-1.21 3.17-0.81 0.63 0.2 1.49 1.54 1.74 2.11 0.54 1.19 0.47 2.53 1.19 3.68 0.61 0.98 1.53 1.6 2.64 1.79 1.35 0.24 2.41-0.89 3.68-1.1-0.97 1.97-3.74 2.32-5.57 1.47-2-0.93-1.54-3.9-2.79-5.4-0.88-1.06-1.35-1.94-2.81-1.44-1.01 0.34-1.66 1.27-2.64 1.64-1.22 0.46-1.97 0.76-3.18 0.15-0.98-0.49-1.58-1.26-1.96-2.27-0.23-0.63-0.53-1.29-0.62-1.97m-4.17 9.04c0.83-0.13 0.75-1.38 0.73-2.01 0.52 0.34 0.78 1.33 0.58 1.9-0.19 0.52-0.11 0.9-0.68 0.76-0.31-0.08-0.53-0.35-0.63-0.65m3.75-0.03c0-0.73 0.44-1.5 1.24-1.51 0 0.67-0.57 1.41-1.24 1.51m-1.51-0.49c0.06-0.72-0.04-1.63 0.73-2.01 0.21 0.66 0.32 2.2-0.73 2.01m39.49-1.84c-0.22-0.29-0.4-0.6-0.76-0.74-0.18 0.31-0.19 0.66-0.24 1 0.35-0.06 0.69-0.08 1-0.26m-29.53-2.75c-0.2-1.04 1.8-1.23 2-0.27-0.71 0.14-1.25 0.49-2 0.27m17.73-3.15c-0.55-0.1-0.66 0.21-0.83 0.67-0.19 0.51 0.05 0.73 0.35 1.12 0.23 0.3 0.74-0.4 0.8-0.56 0.13-0.42-0.07-0.91-0.32-1.23m-24.05-5.29c0.51-0.86 2.22-0.22 2.98-0.05 3.97 0.86 7.86 2.06 11.63 3.59 1.55 0.63 3.14 1.27 4.61 2.08 0.28 0.15 2.2 1.23 1.26 1.57-1.19 0.44-2.67-0.84-3.63-1.37-1.81-0.98-3.79-1.75-5.72-2.46-1.89-0.69-3.84-1.19-5.76-1.77-1.78-0.54-3.71-0.71-5.37-1.59m3.3 5.72c0.6 0.12 1.14 0.21 1.75 0.23-0.39 0.84-1.76 0.85-1.75-0.23m23.49-1.2c-0.3-0.16-0.65-0.38-1-0.36-0.52 0.04-0.53 0.33-0.7 0.77-0.12 0.31 0.74 0.37 0.91 0.41 0.33 0.07 0.71-0.58 0.79-0.82m-28.75-0.25c-0.2-0.23-0.45-0.43-0.51-0.75 0.31 0.09 0.91 0.4 0.51 0.75m5.41-9.55c0.59-0.47 1.46-0.2 2.13-0.04 3.37 0.82 6.75 1.61 10.04 2.69 1.57 0.51 3.15 1.07 4.64 1.77 0.99 0.46 2.55 1.07 3 2.16-1.17 0.63-3.47-0.89-4.56-1.32-1.79-0.72-3.58-1.4-5.41-2.02-1.69-0.57-3.41-1.06-5.09-1.66-1.55-0.56-3.28-0.81-4.75-1.58m6.55 4.69c-0.05-1.51-2.52-2.62-3.69-1.67-0.63 0.51 0.81 1.63 1.22 1.78 0.75 0.27 1.68-0.14 2.47-0.11m-1.05-5.24c0.16-0.27 0.46-0.31 0.75-0.26-0.39-1.94-2.82-3.14-2.79-5.23 1.09 0.05 1.76 1.45 2.26 2.25 0.84 1.33 1.99 2.46 2.53 3.97-0.79-0.03-2.21-0.04-2.75-0.73m-4.51-1.21c0.22-0.29 0.39-0.61 0.74-0.76 0 0.32 0.01 0.64 0.01 0.96 0 0.24-0.67-0.06-0.75-0.2"/>
  </g>
 </defs>
 <g transform="translate(-1674.7 -242.84)">
  <use xlink:href="#d" height="1216.1899" width="2178.99" y="243.13699" x="1675.75"/>
  <g stroke="#000" fill="none">
   <path d="m1683.8 68.02v177.39"/>
   <path d="m1683.8 245.41h132.28"/>
   <path d="m1835.3 189.11v-177.64"/>
   <path d="m1835.3 11.47h-132.28"/>
  </g>
  <use xlink:href="#a" transform="matrix(-2.4 0 0 -2.4 3423.7 77.04)" height="1216.1899" width="2178.99" y="16.049999" x="713.26398"/>
  <rect height="37.968" width="9.6926" y="19.536" x="1693.3" fill="#fff"/>
  <use xlink:href="#a" transform="scale(2.4)" height="1216.1899" width="2178.99" y="91.032799" x="753.01703"/>
  <rect height="37.968" width="9.6926" y="199.5" x="1816.5" fill="#fff"/>
  <g transform="matrix(.99951 -.031411 .031411 .99951 -3.1661 55.332)">
   <line y2="75.393" stroke-width="7.25" x2="1796.1" stroke="#000" y1="181.48" x1="1723"/>
   <circle d="m 1727.6,178.42599 c 0,1.21503 -0.9849,2.2 -2.2,2.2 -1.215,0 -2.2,-0.98497 -2.2,-2.2 0,-1.21502 0.985,-2.2 2.2,-2.2 1.2151,0 2.2,0.98498 2.2,2.2 z" cy="178.43" cx="1725.4" r="2.2" fill="#fff"/>
   <circle cy="178.43" cx="1725.4" r=".7" d="m 1726.1,178.42599 c 0,0.3866 -0.3134,0.7 -0.7,0.7 -0.3866,0 -0.7,-0.3134 -0.7,-0.7 0,-0.38659 0.3134,-0.7 0.7,-0.7 0.3866,0 0.7,0.31341 0.7,0.7 z"/>
   <circle d="m 1731.0199,173.452 c 0,1.21502 -0.9849,2.2 -2.2,2.2 -1.215,0 -2.2,-0.98498 -2.2,-2.2 0,-1.21503 0.985,-2.2 2.2,-2.2 1.2151,0 2.2,0.98497 2.2,2.2 z" cy="173.45" cx="1728.8" r="2.2" fill="#fff"/>
   <circle cy="173.45" cx="1728.8" r=".7" d="m 1729.5199,173.452 c 0,0.3866 -0.3134,0.7 -0.7,0.7 -0.3866,0 -0.7,-0.3134 -0.7,-0.7 0,-0.3866 0.3134,-0.7 0.7,-0.7 0.3866,0 0.7,0.3134 0.7,0.7 z"/>
   <circle d="m 1734.45,168.479 c 0,1.21503 -0.985,2.2 -2.2,2.2 -1.215,0 -2.2,-0.98497 -2.2,-2.2 0,-1.21502 0.985,-2.2 2.2,-2.2 1.215,0 2.2,0.98498 2.2,2.2 z" cy="168.48" cx="1732.2" r="2.2" fill="#fff"/>
   <circle cy="168.48" cx="1732.2" r=".7" d="m 1732.95,168.479 c 0,0.3866 -0.3134,0.7 -0.7,0.7 -0.3866,0 -0.7,-0.3134 -0.7,-0.7 0,-0.3866 0.3134,-0.7 0.7,-0.7 0.3866,0 0.7,0.3134 0.7,0.7 z"/>
   <circle d="m 1737.8801,163.505 c 0,1.21503 -0.985,2.2 -2.2,2.2 -1.2151,0 -2.2,-0.98497 -2.2,-2.2 0,-1.21502 0.9849,-2.2 2.2,-2.2 1.215,0 2.2,0.98498 2.2,2.2 z" cy="163.5" cx="1735.7" r="2.2" fill="#fff"/>
   <circle cy="163.5" cx="1735.7" r=".7" d="m 1736.3801,163.505 c 0,0.3866 -0.3134,0.7 -0.7,0.7 -0.3866,0 -0.7,-0.3134 -0.7,-0.7 0,-0.38659 0.3134,-0.7 0.7,-0.7 0.3866,0 0.7,0.31341 0.7,0.7 z"/>
   <circle d="m 1741.31,158.532 c 0,1.21502 -0.985,2.2 -2.2,2.2 -1.215,0 -2.2,-0.98498 -2.2,-2.2 0,-1.21503 0.985,-2.2 2.2,-2.2 1.215,0 2.2,0.98497 2.2,2.2 z" cy="158.53" cx="1739.1" r="2.2" fill="#fff"/>
   <circle cy="158.53" cx="1739.1" r=".7" d="m 1739.81,158.532 c 0,0.3866 -0.3134,0.7 -0.7,0.7 -0.3866,0 -0.7,-0.3134 -0.7,-0.7 0,-0.3866 0.3134,-0.7 0.7,-0.7 0.3866,0 0.7,0.3134 0.7,0.7 z"/>
   <circle d="m 1744.74,153.558 c 0,1.21503 -0.9849,2.2 -2.2,2.2 -1.215,0 -2.2,-0.98497 -2.2,-2.2 0,-1.21503 0.985,-2.2 2.2,-2.2 1.2151,0 2.2,0.98497 2.2,2.2 z" cy="153.56" cx="1742.5" r="2.2" fill="#fff"/>
   <circle cy="153.56" cx="1742.5" r=".7" d="m 1743.24,153.558 c 0,0.3866 -0.3134,0.7 -0.7,0.7 -0.3866,0 -0.7,-0.3134 -0.7,-0.7 0,-0.3866 0.3134,-0.7 0.7,-0.7 0.3866,0 0.7,0.3134 0.7,0.7 z"/>
   <circle d="m 1748.16,148.58501 c 0,1.21502 -0.985,2.2 -2.2,2.2 -1.2151,0 -2.2,-0.98498 -2.2,-2.2 0,-1.21503 0.9849,-2.2 2.2,-2.2 1.215,0 2.2,0.98497 2.2,2.2 z" cy="148.59" cx="1746" r="2.2" fill="#fff"/>
   <circle cy="148.59" cx="1746" r=".7" d="m 1746.66,148.58501 c 0,0.3866 -0.3134,0.7 -0.7,0.7 -0.3866,0 -0.7,-0.3134 -0.7,-0.7 0,-0.3866 0.3134,-0.7 0.7,-0.7 0.3866,0 0.7,0.3134 0.7,0.7 z"/>
   <circle d="m 1751.59,143.61099 c 0,1.21503 -0.985,2.2 -2.2,2.2 -1.215,0 -2.2,-0.98497 -2.2,-2.2 0,-1.21502 0.985,-2.2 2.2,-2.2 1.215,0 2.2,0.98498 2.2,2.2 z" cy="143.61" cx="1749.4" r="2.2" fill="#fff"/>
   <circle cy="143.61" cx="1749.4" r=".7" d="m 1750.09,143.61099 c 0,0.3866 -0.3134,0.7 -0.7,0.7 -0.3866,0 -0.7,-0.3134 -0.7,-0.7 0,-0.3866 0.3134,-0.7 0.7,-0.7 0.3866,0 0.7,0.3134 0.7,0.7 z"/>
   <circle d="m 1755.0199,138.638 c 0,1.21503 -0.9849,2.2 -2.2,2.2 -1.215,0 -2.2,-0.98497 -2.2,-2.2 0,-1.21503 0.985,-2.2 2.2,-2.2 1.2151,0 2.2,0.98497 2.2,2.2 z" cy="138.64" cx="1752.8" r="2.2" fill="#fff"/>
   <circle cy="138.64" cx="1752.8" r=".7" d="m 1753.5199,138.638 c 0,0.3866 -0.3134,0.7 -0.7,0.7 -0.3866,0 -0.7,-0.3134 -0.7,-0.7 0,-0.3866 0.3134,-0.7 0.7,-0.7 0.3866,0 0.7,0.3134 0.7,0.7 z"/>
   <circle d="m 1758.45,133.664 c 0,1.21503 -0.985,2.2 -2.2,2.2 -1.215,0 -2.2,-0.98497 -2.2,-2.2 0,-1.21503 0.985,-2.2 2.2,-2.2 1.215,0 2.2,0.98497 2.2,2.2 z" cy="133.66" cx="1756.2" r="2.2" fill="#fff"/>
   <circle cy="133.66" cx="1756.2" r=".7" d="m 1756.95,133.664 c 0,0.3866 -0.3134,0.7 -0.7,0.7 -0.3866,0 -0.7,-0.3134 -0.7,-0.7 0,-0.3866 0.3134,-0.7 0.7,-0.7 0.3866,0 0.7,0.3134 0.7,0.7 z"/>
   <circle d="m 1761.87,128.69 c 0,1.21503 -0.9849,2.2 -2.2,2.2 -1.215,0 -2.2,-0.98497 -2.2,-2.2 0,-1.21502 0.985,-2.2 2.2,-2.2 1.2151,0 2.2,0.98498 2.2,2.2 z" cy="128.69" cx="1759.7" r="2.2" fill="#fff"/>
   <circle cy="128.69" cx="1759.7" r=".7" d="m 1760.37,128.69 c 0,0.3866 -0.3134,0.7 -0.7,0.7 -0.3866,0 -0.7,-0.3134 -0.7,-0.7 0,-0.3866 0.3134,-0.7 0.7,-0.7 0.3866,0 0.7,0.3134 0.7,0.7 z"/>
   <circle d="m 1765.3,123.717 c 0,1.21503 -0.985,2.2 -2.2,2.2 -1.2151,0 -2.2,-0.98497 -2.2,-2.2 0,-1.21502 0.9849,-2.2 2.2,-2.2 1.215,0 2.2,0.98498 2.2,2.2 z" cy="123.72" cx="1763.1" r="2.2" fill="#fff"/>
   <circle cy="123.72" cx="1763.1" r=".7" d="m 1763.8,123.717 c 0,0.3866 -0.3134,0.7 -0.7,0.7 -0.3866,0 -0.7,-0.3134 -0.7,-0.7 0,-0.3866 0.3134,-0.7 0.7,-0.7 0.3866,0 0.7,0.3134 0.7,0.7 z"/>
   <circle d="m 1768.73,118.743 c 0,1.21502 -0.9849,2.2 -2.2,2.2 -1.215,0 -2.2,-0.98498 -2.2,-2.2 0,-1.21503 0.985,-2.2 2.2,-2.2 1.2151,0 2.2,0.98497 2.2,2.2 z" cy="118.74" cx="1766.5" r="2.2" fill="#fff"/>
   <circle cy="118.74" cx="1766.5" r=".7" d="m 1767.23,118.743 c 0,0.3866 -0.3134,0.7 -0.7,0.7 -0.3866,0 -0.7,-0.3134 -0.7,-0.7 0,-0.3866 0.3134,-0.7 0.7,-0.7 0.3866,0 0.7,0.3134 0.7,0.7 z"/>
   <circle d="m 1772.16,113.77 c 0,1.21502 -0.985,2.2 -2.2,2.2 -1.2151,0 -2.2,-0.98498 -2.2,-2.2 0,-1.21503 0.9849,-2.2 2.2,-2.2 1.215,0 2.2,0.98497 2.2,2.2 z" cy="113.77" cx="1770" r="2.2" fill="#fff"/>
   <circle cy="113.77" cx="1770" r=".7" d="m 1770.66,113.77 c 0,0.3866 -0.3134,0.7 -0.7,0.7 -0.3866,0 -0.7,-0.3134 -0.7,-0.7 0,-0.3866 0.3134,-0.7 0.7,-0.7 0.3866,0 0.7,0.3134 0.7,0.7 z"/>
   <circle d="m 1775.59,108.796 c 0,1.21502 -0.985,2.2 -2.2,2.2 -1.215,0 -2.2,-0.98498 -2.2,-2.2 0,-1.21503 0.985,-2.2 2.2,-2.2 1.215,0 2.2,0.98497 2.2,2.2 z" cy="108.8" cx="1773.4" r="2.2" fill="#fff"/>
   <circle cy="108.8" cx="1773.4" r=".7" d="m 1774.09,108.796 c 0,0.3866 -0.3134,0.7 -0.7,0.7 -0.3866,0 -0.7,-0.3134 -0.7,-0.7 0,-0.3866 0.3134,-0.7 0.7,-0.7 0.3866,0 0.7,0.3134 0.7,0.7 z"/>
   <circle d="m 1779.0101,103.823 c 0,1.21502 -0.985,2.2 -2.2,2.2 -1.2151,0 -2.2,-0.98498 -2.2,-2.2 0,-1.21503 0.9849,-2.2 2.2,-2.2 1.215,0 2.2,0.98497 2.2,2.2 z" cy="103.82" cx="1776.8" r="2.2" fill="#fff"/>
   <circle cy="103.82" cx="1776.8" r=".7" d="m 1777.5101,103.823 c 0,0.3866 -0.3134,0.7 -0.7,0.7 -0.3866,0 -0.7,-0.3134 -0.7,-0.7 0,-0.3866 0.3134,-0.7 0.7,-0.7 0.3866,0 0.7,0.3134 0.7,0.7 z"/>
   <circle d="m 1782.44,98.849297 c 0,1.215023 -0.985,2.200003 -2.2,2.200003 -1.215,0 -2.2,-0.98498 -2.2,-2.200003 0,-1.215027 0.985,-2.2 2.2,-2.2 1.215,0 2.2,0.984973 2.2,2.2 z" cy="98.849" cx="1780.2" r="2.2" fill="#fff"/>
   <circle cy="98.849" cx="1780.2" r=".7" d="m 1780.94,98.849297 c 0,0.386599 -0.3134,0.7 -0.7,0.7 -0.3866,0 -0.7,-0.313401 -0.7,-0.7 0,-0.3866 0.3134,-0.7 0.7,-0.7 0.3866,0 0.7,0.3134 0.7,0.7 z"/>
   <circle d="m 1785.87,93.875702 c 0,1.215026 -0.9849,2.2 -2.2,2.2 -1.215,0 -2.2,-0.984974 -2.2,-2.2 0,-1.215027 0.985,-2.2 2.2,-2.2 1.2151,0 2.2,0.984973 2.2,2.2 z" cy="93.876" cx="1783.7" r="2.2" fill="#fff"/>
   <circle cy="93.876" cx="1783.7" r=".7" d="m 1784.37,93.875702 c 0,0.386599 -0.3134,0.7 -0.7,0.7 -0.3866,0 -0.7,-0.313401 -0.7,-0.7 0,-0.386599 0.3134,-0.7 0.7,-0.7 0.3866,0 0.7,0.313401 0.7,0.7 z"/>
   <circle d="m 1789.3,88.902199 c 0,1.215026 -0.985,2.2 -2.2,2.2 -1.2151,0 -2.2,-0.984974 -2.2,-2.2 0,-1.215027 0.9849,-2.2 2.2,-2.2 1.215,0 2.2,0.984973 2.2,2.2 z" cy="88.902" cx="1787.1" r="2.2" fill="#fff"/>
   <circle cy="88.902" cx="1787.1" r=".7" d="m 1787.8,88.902199 c 0,0.386599 -0.3134,0.7 -0.7,0.7 -0.3866,0 -0.7,-0.313401 -0.7,-0.7 0,-0.3866 0.3134,-0.7 0.7,-0.7 0.3866,0 0.7,0.3134 0.7,0.7 z"/>
   <circle d="m 1792.73,83.928703 c 0,1.215027 -0.9849,2.2 -2.2,2.2 -1.215,0 -2.2,-0.984973 -2.2,-2.2 0,-1.215026 0.985,-2.2 2.2,-2.2 1.2151,0 2.2,0.984974 2.2,2.2 z" cy="83.929" cx="1790.5" r="2.2" fill="#fff"/>
   <circle cy="83.929" cx="1790.5" r=".7" d="m 1791.23,83.928703 c 0,0.3866 -0.3134,0.7 -0.7,0.7 -0.3866,0 -0.7,-0.3134 -0.7,-0.7 0,-0.386599 0.3134,-0.7 0.7,-0.7 0.3866,0 0.7,0.313401 0.7,0.7 z"/>
   <circle d="m 1796.15,78.955101 c 0,1.215026 -0.985,2.2 -2.2,2.2 -1.2151,0 -2.2,-0.984974 -2.2,-2.2 0,-1.215026 0.9849,-2.2 2.2,-2.2 1.215,0 2.2,0.984974 2.2,2.2 z" cy="78.955" cx="1794" r="2.2" fill="#fff"/>
   <circle cy="78.955" cx="1794" r=".7" d="m 1794.65,78.955101 c 0,0.386599 -0.3134,0.7 -0.7,0.7 -0.3866,0 -0.7,-0.313401 -0.7,-0.7 0,-0.386599 0.3134,-0.7 0.7,-0.7 0.3866,0 0.7,0.313401 0.7,0.7 z"/>
  </g>
  <use xlink:href="#c" height="1216.1899" width="2178.99" y="39.790001" x="1684.78" fill="#e6180a"/>
  <use xlink:href="#c" transform="matrix(-1 0 0 -1 3668.6 434.17)" height="1216.1899" width="2178.99" y="217.08701" x="1834.3" fill="#e6180a"/>
  <use xlink:href="#a" transform="matrix(-1,0,0,-1,3378.8,116.04)" height="1216.1899" width="2178.99" y="58.02" x="1689.4"/>
  <use xlink:href="#a" height="1216.1899" width="2178.99" y="198.85699" x="1829.67"/>
  <use xlink:href="#b" transform="matrix(-.99 -.0015919 .0015919 -.99 1828 183)" height="1215.6875" width="2178.4751" y="0" x="0"/>
  <use xlink:href="#b" transform="matrix(.99 .0028573 -.0028573 .99 1691.3 73.664)" height="1215.6875" width="2178.4751" y="0" x="0"/>
 </g>
</svg>
