<?xml version="1.0" encoding="UTF-8" standalone="no"?>
<!-- Created with Inkscape (http://www.inkscape.org/) -->
<svg id="svg2" xmlns:rdf="http://www.w3.org/1999/02/22-rdf-syntax-ns#" xmlns="http://www.w3.org/2000/svg" height="244.55" viewBox="-0.2 -236 169.07499 244.54905" width="169.01" version="1.1" xmlns:cc="http://creativecommons.org/ns#" xmlns:xlink="http://www.w3.org/1999/xlink" xmlns:dc="http://purl.org/dc/elements/1.1/">
 <metadata id="metadata1756">
  <rdf:RDF>
   <cc:Work rdf:about="">
    <dc:format>image/svg+xml</dc:format>
    <dc:type rdf:resource="http://purl.org/dc/dcmitype/StillImage"/>
   </cc:Work>
  </rdf:RDF>
 </metadata>
 <defs id="defs4">
  <g id="diamond-3">
   <path id="path46815" d="m0 0h-7.68c0.8747 0.039 1.619 0.605 2.322 1.0728 1.579 1.1912 3.058 2.5572 4.226 4.1552 0.545 0.804 1.1176 1.708 1.132 2.712m-7.68-7.94c1.11-0.035 2.058-0.7413 2.904-1.393 1.495-1.255 2.789-2.748 3.881-4.364 0.401-0.669 0.873-1.378 0.895-2.183v7.94m0-7.94c0.038 1.182 0.758 2.206 1.438 3.12 1.212 1.51 2.648 2.846 4.228 3.963 0.614 0.383 1.266 0.8385 2.014 0.857h-7.68m7.68 0c-1.11 0.035-2.058 0.741-2.904 1.392-1.495 1.256-2.789 2.749-3.881 4.365-0.401 0.669-0.8725 1.378-0.895 2.183v-7.94" fill="#e6180a"/>
  </g>
  <g id="base-6">
   <path id="path46797" stroke="#000" stroke-width="2.5" fill="#fff" d="m0 0c0 3.78 3.09 6.87 6.87 6.87h152.84c3.77 0 6.86-3.09 6.86-6.87v-228.4c0-3.78-3.09-6.87-6.86-6.87h-152.84c-3.78 0-6.87 3.09-6.87 6.87v228.4z"/>
  </g>
  <g id="n_9-1">
   <text id="text46782" font-size="43px" font-weight="bold" font-family="Bitstream Vera Serif" transform="scale(.56453 1.0574)">9</text>
  </g>
 </defs>
 <g id="9_diamond" transform="translate(-1339.6 -242.66)">
  <use id="use48213" xlink:href="#base-6" height="1" width="1" y="243.13699" x="1340.6"/>
  <use id="use48215" xlink:href="#n_9-1" height="1" width="1" y="44.02" x="1344.6" fill="#e6180a"/>
  <use id="use48217" xlink:href="#n_9-1" transform="matrix(-1 0 0 -1 3008.3 425.71)" height="1" width="1" y="212.85699" x="1504.17" fill="#e6180a"/>
  <use id="use48219" xlink:href="#diamond-3" transform="matrix(-1,0,0,-1,2708.5,116.04)" height="1" width="1" y="58.02" x="1354.25"/>
  <use id="use48221" xlink:href="#diamond-3" height="1" width="1" y="198.85699" x="1494.52"/>
  <use id="use48223" xlink:href="#diamond-3" transform="matrix(-2.4 0 0 -2.4 2768.9 89.255)" height="1" width="1" y="18.594801" x="576.85797"/>
  <use id="use48225" xlink:href="#diamond-3" transform="matrix(-2.4 0 0 -2.4 2768.9 197.57)" height="1" width="1" y="41.159901" x="576.85797"/>
  <use id="use48227" xlink:href="#diamond-3" transform="scale(2.4)" height="1" width="1" y="64.143204" x="576.85797"/>
  <use id="use48229" xlink:href="#diamond-3" transform="scale(2.4)" height="1" width="1" y="86.708298" x="576.85797"/>
  <use id="use48231" xlink:href="#diamond-3" transform="matrix(-2.4 0 0 -2.4 2928.6 89.255)" height="1" width="1" y="18.594801" x="610.13202"/>
  <use id="use48233" xlink:href="#diamond-3" transform="matrix(-2.4 0 0 -2.4 2928.6 197.57)" height="1" width="1" y="41.159901" x="610.13202"/>
  <use id="use48235" xlink:href="#diamond-3" transform="scale(2.4)" height="1" width="1" y="64.143204" x="610.13202"/>
  <use id="use48237" xlink:href="#diamond-3" transform="scale(2.4)" height="1" width="1" y="86.708298" x="610.13202"/>
  <use id="use48239" xlink:href="#diamond-3" transform="matrix(-2.4 0 0 -2.4 2848.8 143.41)" height="1" width="1" y="29.8773" x="593.495"/>
 </g>
</svg>
