<?xml version="1.0" encoding="UTF-8" standalone="no"?>
<!-- Created with Inkscape (http://www.inkscape.org/) -->

<svg
   xmlns:dc="http://purl.org/dc/elements/1.1/"
   xmlns:cc="http://creativecommons.org/ns#"
   xmlns:rdf="http://www.w3.org/1999/02/22-rdf-syntax-ns#"
   xmlns:svg="http://www.w3.org/2000/svg"
   xmlns="http://www.w3.org/2000/svg"
   xmlns:xlink="http://www.w3.org/1999/xlink"
   xmlns:sodipodi="http://sodipodi.sourceforge.net/DTD/sodipodi-0.dtd"
   xmlns:inkscape="http://www.inkscape.org/namespaces/inkscape"
   version="1.1"
   width="169.01215"
   height="244.54906"
   viewBox="-0.2 -236 169.075 244.54907"
   id="svg2"
   inkscape:version="0.48.1 r9760"
   sodipodi:docname="diamond1.svg">
  <metadata
     id="metadata360">
    <rdf:RDF>
      <cc:Work
         rdf:about="">
        <dc:format>image/svg+xml</dc:format>
        <dc:type
           rdf:resource="http://purl.org/dc/dcmitype/StillImage" />
      </cc:Work>
    </rdf:RDF>
  </metadata>
  <sodipodi:namedview
     pagecolor="#ffffff"
     bordercolor="#666666"
     borderopacity="1"
     objecttolerance="10"
     gridtolerance="10"
     guidetolerance="10"
     inkscape:pageopacity="0"
     inkscape:pageshadow="2"
     inkscape:window-width="640"
     inkscape:window-height="480"
     id="namedview358" />
  <defs
     id="defs4">
    <g
       id="ace">
      <text
         transform="scale(0.56453,1.05741)"
         id="text37"
         style="font-size:43px;font-weight:bold">A</text>
    </g>
    <g
       id="base">
      <path
         d="m 0,0 c 0,3.78 3.09,6.87 6.87,6.87 l 152.845,0 c 3.77,0 6.86,-3.09 6.86,-6.87 l 0,-228.4 c 0,-3.78 -3.09,-6.87 -6.86,-6.87 l -152.845,0 c -3.78,0 -6.87,3.09 -6.87,6.87 L 0,0 z"
         id="path49"
         style="fill:#ffffff;stroke:#000000;stroke-width:2.5" />
    </g>
    <g
       id="diamond">
      <path
         d="m 0,0 c -2.56,0 -5.12,0 -7.68,0 0.8747,0.039 1.619,0.605 2.322,1.0728 C -3.779,2.264 -2.3,3.63 -1.132,5.228 -0.587,6.032 -0.0144,6.936 0,7.94 M -7.68,0 c 1.11,-0.035 2.058,-0.7413 2.904,-1.393 1.495,-1.255 2.789,-2.748 3.881,-4.364 C -0.494,-6.426 -0.022,-7.135 0,-7.94 0,-5.293 0,-2.647 0,0 m 0,-7.94 c 0.038,1.182 0.758,2.206 1.438,3.12 1.212,1.51 2.648,2.846 4.228,3.963 C 6.28,-0.474 6.932,-0.0185 7.68,0 5.12,0 2.56,0 0,0 M 7.68,0 C 6.57,0.035 5.622,0.741 4.776,1.392 3.281,2.648 1.987,4.141 0.895,5.757 0.494,6.426 0.0225,7.135 0,7.94 0,5.293 0,2.647 0,0"
         id="path67"
         style="fill:#e6180a" />
    </g>
    <g
       transform="matrix(0.4,0,0,0.4,236.59,667.12)"
       id="lys"
       style="fill:#ffffff;fill-opacity:1;stroke:none">
      <path
         d="m 355.65,280.19 c 0,0 -3.75,-8.1 -8.1,-12.6 -4.36,-4.51 -9.68,-7.58 -11.04,-6.53"
         transform="translate(-1.35,-0.76)"
         id="lys_1"
         style="fill:#ffffff;fill-opacity:1;fill-rule:evenodd;stroke:none" />
      <path
         d="m 368.97,258.94 c -2.29,0.08 -5.9,1.92 -7.85,3.87 -2.59,2.6 -3.52,7.58 -3.59,9.44 -0.07,1.86 -1.32,-0.84 -2.19,-2.37 -0.86,-1.54 -1.93,-5.4 -2.22,-3.22 -0.28,2.2 -0.34,3.26 0.07,5.72 0.4,2.45 1.59,7.15 2.56,8.68 l 3.97,3.94 c 1.87,-1.88 3.1,-6.25 3.19,-6.25 l -0.07,9.34 4.35,4.32 c -1.16,-2.37 -1.94,-6.58 -1.63,-10.38 0.32,-3.8 2.3,-8.59 2.06,-10.44 -1.14,-0.4 -2.9,2.58 -5.21,1.88 -0.08,-1.75 0.74,-6.02 1.9,-7.69 1.17,-1.66 4.43,-5.7 6.41,-6.28 -0.36,-0.42 -0.99,-0.59 -1.75,-0.56 z"
         id="lys_2"
         style="fill:#ffffff;fill-opacity:1;fill-rule:evenodd;stroke:none" />
      <path
         d="m 329.36,254.28 c 9.62,-4.95 19.64,8.3 19.64,8.3 0,0 1.44,-9.25 3.32,-9.36 1.88,-0.11 4.87,7.31 4.87,7.31 0,0 5.76,-7.64 15.72,-7.58 9.97,0.05 11.57,9.13 5.87,9.57 -5.66,0.44 -2.38,-5.15 -2.27,-3.65 0.06,0.17 -5.37,-7.75 -19.15,7.86 -2.03,2.3 -3.94,-8.46 -4.93,-6.09 -1.21,2.88 -0.22,6.26 -1.11,8.53 1.39,1.71 -11.35,-13.84 -16.77,-9.58"
         transform="translate(-1.35,-0.76)"
         id="lys_3"
         style="fill:#ffffff;fill-opacity:1;fill-rule:evenodd;stroke:none" />
      <use
         transform="matrix(0,1,1,0,74.5,-74.49)"
         id="use646"
         style="fill:#ffffff;fill-opacity:1;stroke:none"
         x="0"
         y="0"
         width="2178.99"
         height="1216.1899"
         xlink:href="#lys_3" />
      <use
         transform="matrix(0,1,1,0,74.9,-74.93)"
         id="use648"
         style="fill:#ffffff;fill-opacity:1;stroke:none"
         x="0"
         y="0"
         width="2178.99"
         height="1216.1899"
         xlink:href="#lys_1" />
      <use
         transform="matrix(0,1,1,0,74.82,-74.82)"
         id="use650"
         style="fill:#ffffff;fill-opacity:1;stroke:none"
         x="0"
         y="0"
         width="2178.99"
         height="1216.1899"
         xlink:href="#lys_2" />
    </g>
  </defs>
  <g
     transform="translate(1.05,-242.84312)"
     id="1_diamond">
    <use
       id="use1305"
       x="0"
       y="243.13699"
       width="2178.99"
       height="1216.1899"
       xlink:href="#base" />
    <use
       id="use1307"
       style="fill:#e6180a"
       x="4"
       y="44.02"
       width="2178.99"
       height="1216.1899"
       xlink:href="#ace" />
    <use
       transform="matrix(-1,0,0,-1,327.15,425.714)"
       id="use1309"
       style="fill:#e6180a"
       x="163.575"
       y="212.85699"
       width="2178.99"
       height="1216.1899"
       xlink:href="#ace" />
    <use
       transform="matrix(-1,0,0,-1,27.3,116.04)"
       id="use1311"
       x="13.65"
       y="58.02"
       width="2178.99"
       height="1216.1899"
       xlink:href="#diamond" />
    <use
       id="use1313"
       x="153.925"
       y="198.85699"
       width="2178.99"
       height="1216.1899"
       xlink:href="#diamond" />
    <use
       transform="matrix(-2.4,0,0,-2.4,167.5752,243.13728)"
       id="use1315"
       x="34.911499"
       y="50.653599"
       width="2178.99"
       height="1216.1899"
       xlink:href="#diamond" />
  </g>
</svg>
