<?xml version="1.0" encoding="UTF-8" standalone="no"?>
<svg id="svg6414" xmlns:rdf="http://www.w3.org/1999/02/22-rdf-syntax-ns#" xmlns="http://www.w3.org/2000/svg" height="244.55" width="169.01" version="1.1" xmlns:cc="http://creativecommons.org/ns#" xmlns:xlink="http://www.w3.org/1999/xlink" viewBox="-0.2 -236 169.075 244.54907" xmlns:dc="http://purl.org/dc/elements/1.1/">
 <metadata id="metadata9787">
  <rdf:RDF>
   <cc:Work rdf:about="">
    <dc:format>image/svg+xml</dc:format>
    <dc:type rdf:resource="http://purl.org/dc/dcmitype/StillImage"/>
    <dc:title/>
   </cc:Work>
  </rdf:RDF>
 </metadata>
<!-- SVG-cards 2.0.1								--><!-- This set of SVG files is a complete cards game with figures, numbers	--><!--	and backs of cards completely designed in SVG.				--><!--										--><!--	Copyright (C) 2005 David Bellot						--><!--										--><!--	This library is free software; you can redistribute it and/or		--><!--	modify it under the terms of the GNU Lesser General Public		--><!--	License as published by the Free Software Foundation; either		--><!--	version 2 of the License, or (at your option) any later version		--><!--										--><!--	This library is distributed in the hope that it will be useful,		--><!--	but WITHOUT ANY WARRANTY; without even the implied warranty of		--><!--	MERCHANTABILITY or FITNESS FOR A PARTICULAR PURPOSE.  See the GNU	--><!--	Lesser General Public License for more details.				--><!--										--><!--	You should have received a copy of the GNU Lesser General Public	--><!--	License along with this library; if not, write to the Free Software	--><!--	Foundation, Inc., 59 Temple Place, Suite 330, Boston, MA 02111-1307  USA--><!--                                                                            --><!--	Contact the author David Bellot at david.bellot@free.fr			-->
 <defs id="defs6416">
  <g id="jack">
   <text id="text6458" font-size="40px" font-weight="bold" transform="scale(.56453 1)">J</text>
  </g>
  <g id="base">
   <path id="path6461" d="m0 0c0 3.78 3.09 6.87 6.87 6.87h152.84c3.77 0 6.86-3.09 6.86-6.87v-228.4c0-3.78-3.09-6.87-6.86-6.87h-152.84c-3.78 0-6.87 3.09-6.87 6.87v228.4z" stroke="#000" stroke-width="2.5" fill="#fff"/>
  </g>
  <g id="heart">
   <path id="path6482" fill="#e6180a" d="m-7.67 3.93c0.01-4.71 5.91-8.14 7.64-11.87 1.75 3.72 7.66 7.12 7.7 11.83 0.01 2.22-1.71 4.03-3.82 4.03-2.12 0-3.85-1.79-3.85-4.01 0 2.23-1.71 4.03-3.82 4.03-2.12 0.01-3.84-1.79-3.85-4.01z"/>
  </g>
  <g id="jack_2">
   <g id="g6582">
    <path id="path6584" fill="#1c1585" d="m334.7 168.45-1.48-0.79c-2.67 1.91-5.3 3.63-8.51 4.49-4.24 1.13-7.75 1.62-12.14 1.85-7 0.36-14.08-2.22-20.65-4.33l-1.79 8.47c4.73 2.33 9.28 4.86 13.77 7.63 4.04 0.88 8.8-0.37 12.85-0.81 4.38-0.48 8.25-0.46 12.68-0.21 3.65-3.03 7.26-6.09 11.06-8.94l-2.83-2.27-2.96-5.09"/>
    <path id="path6586" fill="#1c1585" d="m299.52 136.25 5.67-2.35v-0.3c-1.37 0.31-2.7 0.82-4.04 1.24 0.77-2.76 2.1-5.77 2.29-8.63 0.29-4.48 0.58-8.95 0.88-13.43 0.43-6.52 0.43-13.11 0.17-19.64l-1.72-0.29-3.21 2.16c-3.17 5.04-6.35 10.08-9.52 15.12-1.38 2.19-1.31 4.98-1.53 7.47-0.26 2.98-0.68 5.66-1.34 8.58l-0.6 0.79-0.03 0.15c-1.2 1.18-2.13 2.7-3.15 4.04-0.98 1.29-2.56 2.21-3.82 3.21l-1.25 0.44-0.02 0.02c1.46 2.61 3.26 4.89 6 6.23 2.89 1.42 5.91 2.27 8.98 3.24l2.29-4.47 3.95-3.58"/>
    <polyline id="polyline6588" points="334.03 100.96 334.04 96.22 325.41 96.2 333.06 99.79 334.03 100.96" fill="#1c1585"/>
    <path id="path6590" fill="#1c1585" d="m345.99 134.54-3.96-1.23-3.61-2.97 0.09-0.18c-7.88-10.02-12.63-21.55-15.89-33.79l0.12-0.17h-0.48c-3.27-2.53-6.25-4.51-9.92-6.42v0.27l0.06 0.03c0.91 11.28 1.78 22.19 4.38 33.22h0.11c1.14 3.52 2.3 6.82 3.84 10.17 1.62 1.46 3.19 2.95 4.85 4.37l0.06 0.16 0.05 0.05c0.13 0.48 0.28 0.95 0.45 1.42l1.98 0.27 0.27-2.63 1.28-1.46 2.61-0.18 1.51 1.29 1.03 2.61-0.77 2.46 3.97 0.96 0.17-1.1 1.64-1.53 1.69 0.25 1.3 2.03c3.61-1.08 7.06-2.52 10.69-3.54l0.13-0.62c-2.53-1.33-4.99-2.61-7.63-3.79l-0.02 0.05"/>
    <path id="path6592" fill="#f8c20f" d="m283.06 131.6c1.37-1.8 2.74-3.61 4.11-5.42 0.95-4.18 1.32-8.26 1.69-12.54l-0.7-1.59c-4.28 6.74-9.8 13.46-11.91 21.21l1.56 1.73c0.58-0.21 1.17-0.41 1.75-0.62l3.5-2.77"/>
    <path id="path6594" fill="#e61408" d="m325.65 138.02c-2.06-2.2-3.98-3.46-6.59-4.97-3.09-0.33-6.37-1.29-9.46-0.53-3.5 0.87-6.73 2.35-10.06 3.73l-3.95 3.58c-0.86 1.68-1.72 3.35-2.58 5.03l4.24 1.01 5.5-5.65 8.08-3.16 7.78 0.57 5.24 3.9 2.25-1.93c-0.13-0.51-0.26-1.01-0.39-1.52l-0.06-0.06"/>
    <path id="path6596" fill="#f8c20f" d="m304.58 108.76c-0.32 4.95-0.65 9.9-0.97 14.85-0.26 3.91-1.4 7.44-2.46 11.23 3.38-1.07 6.78-1.92 10.22-2.77 3 0.38 6 0.88 9.02 1-1.38-3.27-2.81-6.38-3.62-9.83-0.91-3.84-1.64-7.66-2.33-11.55-1.26-7.1-1.46-14.41-2.04-21.6-1.1-0.58-2.19-1.16-3.29-1.74l-4.71 2.64c0.25 5.92 0.18 11.85 0.18 17.77"/>
    <path id="path6598" fill="#1c1585" d="m353.77 137.89 0.88 0.11c0.86-0.28 1.74-0.67 2.3-1.41 0.24-0.66 0.47-1.31 0.71-1.97-1.43 0.89-2.7 2.15-4 3.22l0.11 0.05"/>
    <path id="path6600" fill="#1c1585" d="m319.18 79.69-0.01 6.36 8.52 0.01-0.11-0.12c2.36-6.65 4.72-13.3 7.07-19.96 2.22-6.28 3.43-13.09 5.12-19.54l-2.99-2.56c-1.3-0.3-2.57-0.49-3.9-0.66-4.07 6.25-8.27 12.39-12.36 18.65l-0.31 5.46h-0.24l-0.39 12.5-0.4-0.14"/>
    <path id="path6602" fill="#e61408" d="m350.78 53.22-3.07-0.93c-0.8-1.44-1.47-2.71-2.59-3.91-1.73-0.81-3.05-1.31-4.91-1.64l-0.3-0.3c-1.73 6.46-3.02 13.25-5.25 19.56-2.36 6.65-4.72 13.3-7.07 19.96 2.62 2.86 5.24 5.73 7.86 8.59 2.64-2.11 4.36-3.84 6.14-6.74 1.86-3.04 4.02-6.03 5.52-9.28 3.18-6.9 6.18-13.68 8.14-21.04-0.86-1.97-2.8-3.09-4.47-4.27"/>
    <path id="path6604" fill="#e61408" d="m350.47 25.71 5.16 2.64c1.78-1.8 3.63-3.06 5.75-4.47l4.37-1.05c-4.36-3.79-8.64-7.66-13.16-11.26-2.42 3.84-4.77 7.72-7.2 11.55 1.71 0.86 3.42 1.67 5.08 2.59"/>
    <path id="path6606" fill="#e61408" d="m324.66 104.03c3.68 9.34 7.6 18.19 13.85 26.13 1.83-3.65 3.45-7.51 5.64-10.96 2.7-4.25 5.47-8.45 8.04-12.77l-1.72-1.61-8.31 5.92c-3.03-3.65-6.06-7.3-9.09-10.95-3.23-1.51-6.45-3.02-9.68-4.54-0.26 0.37-0.52 0.74-0.78 1.11l2.05 7.67"/>
    <path id="path6608" fill="#f8c20f" d="m337.51 44.07c0.9 0.89 1.8 1.78 2.69 2.67 1.35 0.24 2.71 0.48 4.06 0.72 1.44 1.55 2.41 2.96 3.44 4.82 3.17 0.96 5.17 2.14 7.34 4.69 2.35-8.06 3.55-16.37 5.06-24.62-1.22-2.48-4.71-3.93-6.99-5.19-2.57-1.42-5.09-2.75-7.79-3.92-3.77 6.79-8.55 12.98-12.4 19.75 1.54 0.37 3.07 0.73 4.59 1.08"/>
    <path id="path6610" fill="#e61408" d="m359.65 104.55 2.59-0.5c3.71-4.11 6.17-8.94 7.93-14.15l-4.32-2.54c-2.12 0.04-3.92 0.44-5.99 0.92l1.78 3.92-4.32 0.06 1.25 3.62c-1.25-0.12-2.5-0.23-3.74-0.35l-0.43 1.35 0.32 2.61-1.51-1.17c2 2.09 3.97 4.16 6.11 6.1l0.33 0.13"/>
    <path id="path6612" fill="#1c1585" d="m386.12 49.84h-0.01l0.11-1.11-2.76-5.02-0.79 0.16c0.41 2.08 0.79 4.18 1.24 6.26h-0.04l0.42 2.75h0.31c0 1.18 0.03 2.25 0.2 3.41l-0.21 0.01c-0.14 5.4 0.33 10.93 0.35 16.35 0.01 5.01-1.02 9.52-2.42 14.28h0.06c-1.11 4.79-3.81 10.09-6.73 14v0.22h-0.17l-2.66 3.57 0.07 0.11c-2.35 2.59-4.68 4.93-7.31 7.24v0.59l0.93-0.07 7.8 2.48-0.07 0.08 3.45 0.01 0.01 0.17 1.04-0.21c2.58-3.99 4.78-7.78 6.81-12.07l-0.08-1.54h0.46l0.05-28.25h-0.12l0.06-23.42"/>
    <path id="path6614" fill="#e61408" d="m366.72 112.59c-0.52 0.04-1.04 0.07-1.56 0.11-3.43 3.53-7.03 6.87-10.53 10.37-3.3 3.3-5.94 7.63-8.62 11.44 2.53 1.13 5.06 2.25 7.58 3.38 4.12-3.38 8.11-6.61 11.7-10.56 1.77-1.94 3.09-4.48 4.57-6.65 1.35-1.99 3.11-3.77 4.65-5.62l-7.79-2.47"/>
    <path id="path6616" fill="#f8c20f" d="m343.49 120.22c-1.69 3.37-3.38 6.74-5.08 10.11l3.61 2.97 3.96 1.23c4.1-5.81 8.29-11.12 13.32-16.15 4.56-4.55 9.44-8.77 13.79-13.56l-0.07-0.11c3.98-5.34 8.02-11.17 9.55-17.79h-0.06c1.4-4.75 2.43-9.27 2.42-14.28-0.01-5.48-0.07-10.88-0.42-16.35 0.09 0 0.19-0.01 0.28-0.01-0.88-5.81-1.1-12.73-4.69-17.6-4.16-5.65-8.54-10.71-14.11-15.02 0.92 2.77 2.33 5.34 3.61 7.95 1.29 2.62 1.98 5.65 2.91 8.41 1.78 5.3 2.79 10.57 3.5 16.11h-0.38c-0.64 8.56-0.67 17.13-2.99 25.41-2.28 8.12-4.63 16.1-10.41 22.51-0.92 0.18-1.84 0.35-2.76 0.53-3.18-2.87-6.16-5.93-9.19-8.95l-0.45 0.53 0.19 6.69 2.26 3.39c-2.8 4.73-5.84 9.34-8.79 13.98"/>
    <path id="path6618" fill="#f8c20f" d="m354.39 96.89 0.43-1.35c1.25 0.12 2.5 0.23 3.74 0.35l-1.25-3.62 4.32-0.06-1.78-3.92c1.33-0.31 2.65-0.62 3.98-0.93l-2.37-1.97c-2.51-0.4-4.96-0.84-7.43-1.43-1.91 2.78-3.76 5.25-6.04 7.72 1.85 3.24 3.75 5.53 6.71 7.82l-0.31-2.61"/>
    <path id="path6620" fill="#f8c20f" d="m319.59 79.85c0.18-5.79 0.36-11.57 0.54-17.36-3.14 4.67-6.05 9.48-9.17 14.18 2.88 1.05 5.75 2.12 8.63 3.18"/>
   </g>
   <path id="path6622" d="m341.05 176.3c0-0.66 0.04-0.72-0.5-1.07-2.63-1.76-4.79-4.67-5.97-7.59-0.61-1.52-0.69-3.21-1.1-4.79-0.4-1.57-1.34-3.36-1.11-5.01 0.13-0.89 1.24-2.17 1.96-2.66 0.43-0.29 1.15-0.47 1.63-0.72 1.78-0.92 1.29-3.16 0.88-4.67 1.23-0.24 2.11-0.5 3.2-1.15 0.83-0.5 0.9-1.61 1.3-2.39 0.52-1.04 1.13-2.23 1.91-3.11 0.59-0.66 1.6-0.88 2.41-1.11 1.16-0.34 2.25-0.85 3.35-1.34 2.25-1 4.64-1.52 6.91-2.46 0.86-0.36 1.55-0.88 2.01-1.7 0.52-0.93 0.77-2.02 1.52-2.82 0.86-0.92 1.94-1.66 2.85-2.54 1.03-0.99 2.04-2.02 2.95-3.13 1.76-2.16 3.03-4.68 4.73-6.89 0.79-1.03 1.6-2.06 2.47-3.02 0.77-0.85 1.64-1.97 2.79-2.32 1.07-0.33 2.27-0.16 3.38-0.29 1.04-0.12 1.66-1.43 2.13-2.22 0.8-1.34 1.55-2.69 2.27-4.07 1.26-2.41 3.4-5 3.41-7.83 0.03-13.23 0.05-26.46 0.07-39.7 0.01-3.26-0.05-6.53 0.02-9.79 0.03-1.13 0.15-2.27 0.04-3.4-0.15-1.44-0.9-2.22-1.69-3.36-1.68-2.41-3.02-5.02-4.76-7.41-1.74-2.38-3.61-4.65-5.59-6.83-3.16-3.49-6.59-6.73-10.18-9.77-1.97-1.67-3.91-3.38-5.9-5.03-1.89-1.57-3.69-3.33-5.85-4.53 0.02 0.15-0.24 0.76-0.23 0.76 0.94 0.71 1.89 1.35 2.53 2.37 0.3 0.48 0.11 1.26 0.02 1.78-0.17 1.06-0.35 2.12-0.53 3.17-0.38 2.25-0.84 4.5-1.56 6.67-0.81-0.17-1.76-0.8-2.5-1.19-0.84-0.45-1.88-0.96-1.74-2.11 0.24-1.97 0.75-3.97 0.76-5.96-1.05 0.9-1.66 2.22-2.34 3.39-0.85 1.46-1.8 2.88-2.71 4.31-0.96 1.51-1.87 3.06-2.89 4.53-0.79 1.15-1.87 2.33-2.09 3.76 1.43-0.1 2.99 0.76 4.26 1.34 1.61 0.73 3.19 1.58 4.7 2.51 2.89 1.78 5.78 3.92 8.29 6.21 0.94 0.86 0.87 1.73 0.68 2.9-0.28 1.72-0.95 3.58-0.96 5.31-1.23-0.35-1.67 0.11-1.75 1.25-1.32-0.27-2.36-1.51-3.75-1.76 0.13-0.65 1.73-1.88 1.51-2.5-0.09-0.23-0.92-0.4-1.13-0.49-0.64-0.28-1.22-0.68-1.82-1.04-0.92-0.55-1.27 0.21-1.3 1.02-1.47-0.83-2.73-1.96-4.24-2.76 0.62-0.63 1.26-1.14 1.26-2.06 0-0.48-1.35-0.5-1.66-0.56-0.93-0.18-1.41-1.37-2.45-1.38-0.42 0-0.47 0.27-0.43 0.62 0.05 0.59-0.08 1.06-0.22 1.63-1.53-1.07-3.22-1.73-5-2.26 0.55-0.84 1.22-1.81 0.51-2.75-0.88 0.76-1.35 1.88-1.94 2.86-0.71 1.19-1.48 2.34-2.2 3.51-1.45 2.37-3.2 4.59-4.38 7.11 1.27-0.84 2.01-2.65 2.81-3.9 0.47-0.74 0.99-1.45 1.42-2.22 0.36-0.64 0.73-1.35 1.36-1.76 0.79-0.52 2.28-0.19 3.12 0.11 0.85 0.3 2.35 0.92 2.8 1.78 0.49 0.93 0.07 2.29-0.12 3.25-0.35 1.71-0.76 3.41-1.18 5.1-0.84 3.48-1.78 6.94-2.84 10.35-1.07 3.43-2.23 6.83-3.41 10.22-0.59 1.7-1.21 3.39-1.86 5.06-0.59 1.5-1.47 2.93-1.9 4.49-0.92-0.3-1.7-0.91-2.5-1.43-0.96-0.63-1.92-1.27-2.87-1.92-0.89-0.61-1.86-1.27-1.87-2.47-0.01-1.49 0-2.98 0-4.47 0-1.48 0.22-2.93 0.24-4.41 0.01-0.75 0.09-1.45 0.22-2.19 0.13-0.71 0.02-1.41 0.09-2.13 0.07-0.74 0.12-1.48 0.2-2.21 0.06-0.6 0.39-1.45 0.27-2.04-0.49 0.42-0.87 0.99-1.16 1.56-0.5 1-0.33 2.22-0.35 3.3-0.03 1.48-0.21 2.93-0.27 4.4-0.11 2.82-0.24 5.65-0.25 8.48-1.7-0.22-1.39-3.53-1.33-4.67 0.13-2.86 0.35-5.73 0.36-8.58-0.74 0.65-1.2 1.54-1.74 2.35-0.71 1.05-1.41 2.1-2.11 3.16-1.4 2.11-2.76 4.25-4.17 6.35-2.85 4.27-5.64 8.58-8.38 12.92-2.74 4.35-5.43 8.72-8.14 13.09-1.32 2.13-2.65 4.25-4 6.36-0.45 0.71-2.37 2.62-1.89 3.52 0.6 1.13 0.22 2.39 0.12 3.58-0.03 0.31-0.19 2.88-0.62 2.87-0.12 0-0.4 0.07-0.45-0.06-0.4-0.99-1.34-1.86-1.47-2.94-1.41 1.2-0.01 2.62 0.69 3.75 0.99 1.61 0.99 3.47 0.54 5.25-0.8-0.9-1.26-1.99-1.77-3.06-0.48-1.01-1.19-2.04-1.22-3.19-0.65 0.55-1.23 1.45-1.5 2.25 0.74 0.11 2.5 1.57 1.67 2.36-0.62 0.59-0.81 0.76-1.68 0.44-0.5-0.18-1.02-0.55-1.5-0.8-0.21 0.71-0.69 1.31-1.12 1.89-0.46 0.63-0.84 1.32-1.24 1.99-0.79 1.32-1.85 2.59-2.37 4.05-0.24 0.69-0.28 0.81-0.04 1.49 0.59 1.65 2.04 2.86 3.25 4.06 0.64 0.64 1.18 1.36 1.79 2.03 0.66 0.73 1.49 1.35 1.95 2.24-0.67-0.11-1.35-0.04-2-0.3-0.72-0.29-1.48-0.38-2.25-0.46 0.92 1.3 1.94 2.22 3.22 3.14 0.27 0.19 0.95-0.11 1.22-0.18 0.53-0.15 1.27-0.44 1.81-0.21 0.61 0.27 0.64 1.23 0.82 1.78 0.29 0.87 0.66 1.72 1.17 2.49-1.5 0-2.33-1.43-3.75-1.51 0.65 1 0.94 2.27 1.94 3.01 1.1 0.82 2.21 1.64 3.05 2.74-0.84-0.46-1.5-1.29-2.44-1.58-1.04-0.32-2.23-0.18-3.3-0.18 0.08 0.6 0.76 0.87 1.25 1.07 0.8 0.31 1.48 0.74 1.99 1.44-0.87-0.21-1.73-0.32-2.5 0.25 0.26 0.29 0.63 0.4 0.94 0.63 0.48 0.35 0.92 0.74 1.36 1.13 0.69 0.59 1.58 0.93 2.44 0.51-0.1 0.6-0.88 1.5-1.54 1.35-0.62-0.13-2.01-0.56-2.21 0.39 0.68 0.14 1.31 0.71 1.87 1.09 1 0.68 2.09 0.16 3.09 0.62 1.13 0.52 1.96 1.28 3.28 1.3-0.49 0.99-1 1.85-1 3 0 1.22 0.58 2.05 1.12 3.09 0.37 0.71-0.1 1.56-0.45 2.17-0.46 0.82-0.8 1.59-0.98 2.53-0.2 1.07-0.43 2.13-0.69 3.19-0.24 0.95-0.69 1.94-0.78 2.92-0.09 0.92-0.14 1.02 0.5 1.69 0.31 0.32 0.87 0.41 1.27 0.54 0.61 0.2 1.17 0.53 1.74 0.82 1.29 0.64 2.56 1.34 3.81 2.07 1.31 0.76 2.61 1.54 3.92 2.31 1.1 0.65 2.39 1.78 3.71 1.88 4.15 0.3 8.27-0.5 12.38-0.92 2.13-0.22 4.25-0.56 6.4-0.54 0.97 0.01 1.93 0.05 2.9 0.07 1.08 0.01 2.14 0.25 3.22 0.26 0.85 0.01 1.61-1.03 2.16-1.56 0.96-0.91 1.99-1.77 3-2.63 2-1.71 4.11-3.36 6.49-4.53m-49.99-0.34c2.57 0.39 5.07 1.97 7.36 3.14 1.29 0.66 2.55 1.38 3.78 2.15 1.12 0.7 2.08 1.67 3.25 2.28 1.19 0.61 2.62-0.2 3.8-0.48 1.54-0.37 3.1-0.68 4.67-0.91 2.99-0.45 5.97-0.67 8.99-0.81 1.4-0.06 2.78 0.24 4.16 0.2 1.39-0.05 2.28-1.28 3.18-2.18 0.98-0.99 2.16-1.75 3.26-2.6 1.12-0.87 2.26-1.93 3.69-2.23 0.76-0.16 1.04 0.07 1.74 0.41 0.48 0.23 0.96 0.49 0.75 1.02-0.33 0.82-1.86 1.45-2.54 1.94-1.05 0.76-2.09 1.53-3.11 2.33-1.03 0.8-2.03 1.65-2.96 2.57-0.81 0.8-1.54 1.77-2.81 1.56-3.71-0.61-7.63-0.36-11.35 0.04-1.82 0.2-3.6 0.59-5.41 0.86-0.97 0.15-1.96 0.24-2.93 0.41-0.94 0.16-1.87 0.41-2.83 0.35-1.28-0.07-2.22-0.76-3.25-1.45-1.18-0.79-2.37-1.59-3.61-2.29-2.48-1.42-5.11-2.61-7.64-3.95-0.82-0.47-0.54-1.66-0.19-2.36m15.23 6.28c-1.1-0.57-3.54-1.64-3.84-3.01-0.16-0.7 0.26-1.64 0.43-2.32 0.23-0.89 0.51-1.77 0.96-2.58 0.42-0.75 1.72-0.39 2.37-0.25 1.28 0.28 2.6 0.42 3.91 0.51 3.15 0.19 6.32-0.06 9.44-0.51 2.42-0.35 4.8-1.02 7.06-1.97 1.18-0.5 2.33-1.08 3.44-1.72 0.93-0.55 1.93-1.51 3.01-1.7 1.32-0.24 2.75 2.34 2.97 3.42 0.11 0.55 0.2 0.91-0.32 1.29-1.78 1.32-3.68 2.51-5.23 4.11-1.09 1.13-2.45 2.75-4.21 2.45-1.62-0.28-3.37-0.25-5-0.1-1.71 0.16-3.43 0.22-5.14 0.37-3.38 0.26-6.47 1.89-9.85 2.01m-5.24-3.51c0.06-1.65 0.76-3.44 1.26-5 0.75 0.83-0.2 2.95-0.45 3.88-0.17 0.61-0.08 1.21-0.81 1.12m-1.25-0.75c0.01-1.52 0.6-3.06 1.01-4.5 0.53 0.58 0.08 1.6-0.07 2.25-0.19 0.76-0.21 1.79-0.94 2.25m-1.25-1c0.05-1.32 0.4-2.83 1.01-4 0.43 0.56-0.02 1.42-0.19 2-0.19 0.65-0.23 1.55-0.82 2m-1.5-0.51c0.02-0.43 0.14-0.84 0.25-1.25 0.33 0.38 0.15 0.99-0.25 1.25m-1.24-0.75v-0.75c0.2 0.22 0.19 0.52 0 0.75m-1.5-0.5c0.01-1.16 0.35-2.79 1.01-3.75 0.35 0.55-0.02 1.32-0.17 1.87-0.18 0.64-0.29 1.44-0.84 1.88m3.25-0.5c0-0.75 0.17-1.58 0.5-2.25 0.5 0.52-0.01 1.87-0.5 2.25m-4.5-0.5c0.05-1.11 0.24-2.26 0.76-3.25 0.39 0.63-0.15 2.82-0.76 3.25m3.25-0.25c0.04-0.7 0.08-1.32 0.25-2 0.45 0.47 0.16 1.58-0.25 2m10.3-30.73c-0.33 0.64-0.91 1.1-1.43 1.57-0.66 0.59-1.21 1.29-1.83 1.92 0.9-0.53 1.65-1.27 2.46-1.93 0.88-0.72 1.89-1.28 2.88-1.83 1.99-1.1 4.02-1.48 6.26-1.47 2.01 0 4.32 0.35 5.65 2.09 1.42 1.86 3.07 3.53 4.55 5.33 1.39 1.7 2.14 3.8 2.91 5.83 0.79 2.08 0.86 4.48 1.88 6.45 0.99 1.9 2.08 3.84 2.18 6.04 0.01 0.27-0.61 1.05-0.81 1.25-0.63 0.64-1.6 1.07-2.38 1.49-1.02 0.55-2.07 1.04-3.15 1.46-2.15 0.84-4.41 1.4-6.69 1.72-2.1 0.3-4.2 0.28-6.31 0.38-1.59 0.08-3.63 0.29-4.97-0.76-2.89-2.26-2.58-5.97-3.17-9.23-0.16-0.84-0.73-1.44-1.19-2.14-0.52-0.79-0.89-1.78-1.01-2.72-0.13-0.97 0.1-1.88-0.27-2.82-0.27-0.68-1.24-1.7-1.22-2.43 0.03-0.92 0.22-1.88 0.06-2.79-0.13-0.79-0.45-1.6-0.31-2.42 0.19-1.1 1.36-2.07 2.08-2.83 0.89-0.94 2.53-1.99 3.83-2.16m-5.03 19.49c0.01 0.22-0.01 1.29-0.41 1.24-0.92-0.11-0.92-0.09-1.28-0.95-0.09-0.23 0.17-1.25 0.31-1.46 0.35-0.55 1.09-0.26 1.62-0.21 0.62 0.07 0.92-0.01 1.3 0.47 0.43 0.55 0.63 0.96 0.87 1.62 0.6 1.65 0.22 3.53 0.66 5.23 0.23 0.91 0.53 1.8 0.91 2.66 0.14 0.31 0.71 1.06 0.51 1.41-0.37 0.64-2.42-0.21-2.79-0.48-0.87-0.62-1.63-1.72-1.88-2.78-0.26-1.15-0.29-2.85 0.08-3.98 0.28-0.86 1.24-2.12 0.1-2.77m-0.77 9c-0.88-0.58-1.17-1.9-1.42-2.85-0.28-1.06-0.32-2.07-0.32-3.16 0.75 0 1.25-0.24 1.25 0.58 0 0.75-0.07 1.55 0.04 2.29 0.13 0.87 1.06 2.32 0.45 3.14m-1.5-0.5c-1.3-1.06-1.42-3.7-1.49-5.25-0.5 0.97-0.25 2.45-0.26 3.5-0.55-0.47-0.86-1.45-0.71-2.15 0.1-0.49 0.13-0.91 0.45-1.3 0.31-0.38 0.76-0.32 0.98 0.04 0.49 0.78 0.3 1.8 0.49 2.66 0.16 0.77 0.86 1.68 0.54 2.5m19.26-3.22c-1.4-0.29-2.94 0.97-4.28 1.24-1.69 0.34-3.53 0.68-5.2 0.13-0.92-0.3-1.61-1.07-2.52-1.39 0.31 0.96 1.54 1.76 2.44 2.06 2.18 0.75 4.69 0.21 6.87-0.3 0.74-0.17 2.52-0.89 2.69-1.74m-23.5 1.21c-0.18-0.86-0.23-1.62-0.25-2.5-0.51 0.79-0.33 1.7-0.75 2.5-0.61-0.43-0.29-1.39-0.09-1.97 0.35-1.07 1.05-1.13 2.05-0.77 0.53 0.19 0.46 0.52 0.52 1.06 0.03 0.22 0.15 1.07 0.02 1.19-0.44 0.4-0.54-0.36-0.57-0.58-0.06-0.38-0.17-0.78-0.17-1.17-0.33 0.67-0.11 1.76-0.76 2.24m21.01-5.46c-0.54-0.27-1.16-0.29-1.75-0.4-0.8-0.15-1.51-0.37-2.34-0.31-0.67 0.05-1.33 0.13-1.97 0.35-0.67 0.23-1.24 0.7-1.94 0.85 0.03-0.78 0.12-1.48 0.25-2.25-0.93 0.2-1.59 2.75-1.12 3.45 0.32 0.48 0.97 0.66 1.46 0.89 0.71 0.34 1.36 0.76 2.1 1.05 1.33 0.52 2.67 0.68 3.93-0.05 0.51-0.29 0.78-0.85 0.87-1.42 0.11-0.74 0.38-1.43 0.51-2.16m15.24 1.27c-1.05 0.21-1.66 1.42-2.79 1.56-0.61 0.08-2.81-0.16-2.97 0.68 1.59 0.24 5.69 0.07 5.76-2.24m-22 0.71c0.88 0.25 1.79 0.61 2.7 0.67 1.08 0.07 1.78-0.23 2.8-0.41-0.03 1.17-1.43 1.58-2.4 1.4-1.24-0.22-2.42-0.47-3.1-1.66m15.75 0.78c-0.31-0.91-0.97-1.77-1-2.75 0.58 0.84 1.63 1.76 2.73 1.41 1.17-0.37 2.53-0.93 2.52-2.4-0.74 0.46-1.08 1.1-1.94 1.42-0.64 0.23-1.91 0.71-2.06-0.42 0.51 0 1 0 1.5-0.08 0.88-0.13 2-1.29 2.33-2.09 0.21-0.52 0.05-0.95-0.58-0.83 0.48-0.83-0.5-1.62-1.25-1.75 0.32 0.51 0.65 1.01 1 1.5-0.88 0.04-1.87 0.28-2.74 0.23-0.53-0.03-0.68-0.14-0.95-0.59-0.14-0.24 0.09-0.45-0.31-0.39-0.14 0.02-0.4 0.39-0.5 0.5-0.27-1.49-0.46-2.95-0.49-4.47-0.03-1.5-0.69-2.87-2.31-2.99-0.65-0.05-1.23 0.12-1.78 0.47-0.73 0.46-1.59 0.35-2.29 0.79-0.18 0.11-0.71 0.3-0.71 0.53v1.57c0 0.68 0.64 1.21 1.34 0.84-0.23-0.28-0.59-0.46-0.75-0.8-0.18-0.4-0.17-1.01-0.25-1.45 0.59 0.12 1.72 0.71 2.29 0.32 0.6-0.42 1.39-1.41 2.11-1.56 1.79-0.37 1.74 2.93 1.84 4 0.16 1.69-0.04 3.4 0.16 5.09 0.15 1.16 0.43 3.9 2.09 3.9m-12.75-0.52c0.06-0.5 0.57-0.67 1-0.75 0.15 0.66-0.54 0.69-1 0.75m20.5-0.21c-0.35-0.65-0.5-1.38-0.84-2.04-0.42-0.82-0.79-1.65-0.94-2.56-0.2-1.22-0.96-3.68 0.55-4.41 0 0.9-0.04 1.89 0.14 2.77 0.16 0.79 0.53 1.55 0.77 2.32 0.33 1.06 1.12 2.9 0.32 3.92m-37.74-5.32c0 0.83-0.18 1.73 0.09 2.54 0.25 0.76 0.81 1.63 0.65 2.47-1.16-0.19-1.87-1.41-1.95-2.5-0.07-0.94-0.06-2.5 1.21-2.51m-2 0.75c0.04 0.67-0.09 1.38 0.13 2.04 0.23 0.7 0.71 1.45 0.62 2.22-1.06 0.04-1.63-0.86-1.8-1.82-0.15-0.82 0.06-2.22 1.05-2.44m17.99 3.78c0.12-0.84 0.64-1.24 1.42-1.29s1.56 0.04 1.58 1.04c-0.44-0.07-0.96-0.26-1.4-0.17-0.54 0.11-1.05 0.33-1.6 0.42m-1.25 0c-0.25-0.48 0.07-0.82 0.5-1 0 0.38-0.17 0.78-0.5 1m-11.49-4.27v1.5c0.28-0.39 0.56-0.77 1-1 0.04 0.6-0.11 1.2-0.16 1.8s0.21 1.15 0.4 1.7c-1.82 0.95-3.25-3.62-1.24-4m-1.5 3.99c-0.76-1-1.66-4.15 0.26-4.5-0.11 0.85-0.56 1.82-0.45 2.68 0.06 0.57 0.6 1.27 0.19 1.82m29.75-1.44c-0.05-0.52 0.29-0.7 0.75-0.75 0.1 0.55-0.2 0.85-0.75 0.75m-12.25-0.53c-0.11-0.47-0.21-0.89-0.75-1 0.14 0.41 0.39 0.77 0.75 1m11.25-0.48c0.28-0.82 2.26-1.72 2.5-0.5-0.36-0.02-0.97-0.18-1.3-0.04-0.41 0.17-0.8 0.35-1.2 0.54m-34.5-3.31c-0.05-0.34 0.28-0.53 0.5-0.75-0.36-0.08-0.71-0.37-0.75-0.75h1c-0.26-0.27-0.86-0.75-0.18-0.75 1.74 0 3.49 0.01 5.23 0.01 2.24 0 4.71 0.84 4.7 3.51-1.67 0-2.84-1.64-4.52-1.68-2.02-0.05-3.93 0.9-5.98 0.41m-5.49-1.76c0.78 0.04 1.45 0.5 2.25 0.25-0.31 0.92-1.9 0.4-2.25-0.25m44 0.33c-0.27-0.88-0.5-1.71-0.65-2.62-0.12-0.71 0.47-1.75 0.79-2.37 0.75-1.44 2.6-2.37 4.12-2.75-1.8-0.97-3.49 1.71-5 2.24-0.01-1.64 1.25-2.29 2.48-3.05 0.4-0.25 1.52-0.25 2.02-0.2 0.59 0.07 1.55 0.21 1.95 0.67 0.52 0.6-0.18 1.43-0.7 1.75-0.51 0.31-1.5 0.34-2.1 0.43-1.27 0.19-2.56 1.44-2.91 2.65 0.51-0.31 0.88-0.73 1.37-1.05 0.7-0.45 1.75-0.41 2.55-0.46 1.03-0.06 1.85-0.56 2.84-0.73 0.06 0.67-0.25 1.49-0.8 1.89-0.26 0.19-0.67 0.64-0.99 0.71-1.24 0.26-2.67 0.44-3.6 1.39-0.47 0.49-0.61 1.64-1.37 1.5m-39.75-4.57c0.66 0.22 1.32 0.64 2 0.75-1.28-1-2.11-2.63-3.44-3.53-0.95-0.65-2.44-0.63-3.05-1.73 1.62 0.35 3.21 0.42 4.38 1.76 0.66 0.76 1.13 1.29 1.94 1.92 0.85 0.66 2.17 0.73 3.2 0.79 1.31 0.08 2.65 0.02 3.92 0.42 1.61 0.51 2.54 2 2.54 3.63-1.4-0.02-2.71-1.16-4.05-1.52-1.64-0.44-3.43-0.31-5.12-0.63-0.8-0.14-2.21-0.95-2.32-1.86m0.5 2c0.74-0.15 1.81 0.51 2.5 0.75-0.72 0.68-2.09-0.06-2.5-0.75m-5-1.26c0.5 0.08 0.99 0.26 1.5 0.25 0.51 0 1-0.18 1.5-0.25-0.62 1.18-2.64 1.64-3 0m1.5-0.74c-0.36-0.37-0.68-0.72-0.75-1.25 0.4 0.22 1.06 0.74 0.75 1.25m-1.23-10.76c1.08 0.39 1.61 1.42 2.17 2.34 0.62 1.01 1.53 1.85 2.68 2.21 1.07 0.33 2.17 0.45 3.28 0.47 1.36 0.02 2.56 0.39 3.86 0.76-0.46-0.39-0.93-0.74-1.25-1.25 1.33-0.11 2.66 1.02 3.19 2.13 0.25 0.52 0.6 1.19 0.53 1.78-0.07 0.69-0.23 1.4-0.24 2.09-0.78 0.01-1.37-0.3-1.86-0.88-0.58-0.69-1.02-1.22-1.76-1.75-0.95-0.68-2.04-1.05-3.17-1.29-0.52-0.11-1.05-0.21-1.58-0.31-0.7-0.14-1.43-0.01-2.13-0.18-1.06-0.26-1.42-0.86-2.1-1.67-0.46-0.55-0.61-1.31-0.81-1.98-0.22-0.84-0.68-1.61-0.81-2.47m35.74 8.07c0.31 0.18 0.65 0.2 1 0.25-0.12-0.9-0.62-1.11-1.43-0.93-2.12 0.48-4.38 1.41-6.57 1.41 0.05 0.33 0.18 0.66 0.3 0.98 0.18 0.49 0.11 0.47 0.6 0.42 0.32-0.03 0.72-0.22 1.05-0.29 0.49-0.11 1.01 0.11 1.5 0.1 0.63-0.02 1.22-0.25 1.82-0.42 0.85-0.24 1.7-0.46 1.73-1.52m-29.75 0.19c0.44 0.11 3.85 0.69 3.25 1.5-0.3 0.4-1.43 0.02-1.75-0.09-0.62-0.21-1.41-0.69-1.5-1.41m24.75 1.05c0.52-0.42 1.3-0.52 1.94-0.62 0.94-0.15 1.85-0.61 2.81-0.62-0.33 1.03-1.15 0.98-2.04 1.16-0.46 0.09-0.92 0.28-1.4 0.23-0.43-0.04-0.87-0.23-1.31-0.15m11-0.23c-1.53-2.3-3.73-5.27-3.22-8.21 0.12-0.68 1.03-1.67 1.74-1.79-0.17 0.6-0.51 1.14-0.63 1.75-0.15 0.74-0.12 1.5-0.12 2.25 0.27-0.54 0.51-1.08 0.8-1.62 0.26-0.48 0.41-1.15 0.85-1.5 1.17-0.93 2.44-0.67 3.85-0.62-0.56 0.7-1.65 0.8-2.39 1.24-0.73 0.44-1.58 0.88-1.86 1.75 1.4-0.65 2.63-1.45 4.12-1.92 1.13-0.35 2.66-1 2.89-2.32-0.66 0.33-1.3 0.77-1.97 1.06-0.59 0.25-1.16-0.43-1.78-0.57 0.48-0.47 1.33-0.62 1.91-0.98 0.99-0.6 0.82-1.09 0.57-2.11-0.11-0.45-0.23-0.54-0.63-0.77-0.45-0.26-0.54-0.1-1.02 0.12-0.24 0.11-0.98 0.3-1.08 0.56-0.15 0.39-0.24 0.75-0.24 1.18-0.94-0.69-0.27-2.31 0.75-2.49 1.01-0.17 2.87-0.65 3.49 0.53 0.45 0.86 1.45 2.47 0.84 3.5-0.66 1.11-1.43 2.04-2.33 2.96 1.22-0.18 2.45-0.85 3.7-0.69 0.69 0.09 1.38 0.17 1.95 0.6 0.53 0.4 0.85 1.1 1.6 1.1-0.82 1.19-4.12-0.15-5.29-0.33-1.8-0.28-3.97 0.06-4.97 1.81 1.71-0.81 3.32-1.63 5.29-1.13 2.03 0.52 3.88 0.64 5.96 0.64-0.76 1.3-2.46 1.04-3.7 0.8-1.42-0.28-3.48-0.89-4.84-0.24-1.1 0.52-1.81 1.11-2.72 1.92 1.03-0.2 1.88-0.95 2.95-1.11 1.49-0.23 3.06 0.36 4.53 0.53 0.62 0.07 1.31 0.17 1.93 0.07 0.37-0.06 0.97-0.36 1.34-0.21 0.6 0.24-0.21 1.06-0.5 1.25-1.82 1.16-4.48 0.08-6.43-0.16-1.21-0.14-2.13 0.69-3.07 1.32-0.79 0.52-1.27 1.68-2.27 1.83m-37-1.57c0.3-0.21 0.63-0.29 1-0.25-0.19 0.32-0.67 0.43-1 0.25m25.5-0.2c0.65-0.44 1.49-0.82 2.25-1 0.92-0.21 1.62 0.13 2.5 0.25-0.49-1.01-1.86-0.87-2.75-0.68-0.44 0.1-2.74 0.58-2 1.43m11.25-1.23c0-0.53 0-1.02-0.25-1.5-0.34 0.38-0.24 1.04-0.25 1.5 0.16 0 0.35 0.02 0.5 0m-35-0.06c0.15-0.62-0.3-0.53-0.75-0.62-1.44-0.29-2.26-1.24-3.5-1.89-0.09 2.38 2.53 2.5 4.25 2.51m26.51-3.46c-0.02 0.23 0.05 0.66-0.13 0.81-0.41 0.34-0.82 0.69-1.23 1.03-0.68 0.57-1.13 0.02-1.89 0.15 0.69 0.9 1.96 0.3 2.82 0.07 0.72-0.2 0.68-0.3 0.98-1.02 0.18-0.42-0.02-0.96-0.55-1.04m-20.25 1.47c0.16-1.01 0.93-1.82 1.57-2.57 0.79-0.93 1.65-1.77 2.61-2.52 2.5-1.96 6.1-3 9.23-3.27 3.18-0.28 6.5 0.6 9.19 2.25 0.86 0.53 1.56 1.08 2.15 1.92 0.22 0.31 0.51 0.81 0.51 1.2 0 0.45-0.59 0.43-1 0.54 0.46 0.6 1.09 1.24 1.25 2-0.95-0.13-1.65-1.19-2.26-1.83-0.71-0.76-1.42-1.62-2.39-2.05-1.96-0.88-4.25-1.13-6.39-1.01-4.62 0.27-8.61 2.1-11.85 5.42-0.91 0.91-1.64 0.6-2.62-0.08m8.75 0.51c0-0.3 0.08-0.6-0.25-0.75 0.05 0.28 0.06 0.52 0.25 0.75m-16.5-0.78c0.55-0.45 1.71-0.11 2.32-0.02 1.04 0.16 2.13 0.51 3.17 0.53-0.57 0.54-1.68 0.09-2.34 0.01-1.07-0.13-2.15 0.02-3.15-0.52m17.5 0.03c0.18-0.31 0.2-0.65 0.25-1-0.43 0.14-0.54 0.67-0.25 1m-7.5-1.26c-0.67 0-1.41 0.58-1.5 1.25 0.78 0.02 1.4-0.47 1.5-1.25m8.5 1.01c0.12-0.49 0.29-0.99 0.25-1.5-0.41 0.33-0.6 1.07-0.25 1.5m-15-1.27c0.68-4.2 4.66-7.99 8.52-9.37 1.59-0.57 3.1-1.43 4.77-1.72 1.66-0.29 3.28-0.63 4.95-0.87 0.76-0.11 1.54 0.07 2.29 0.17 0.78 0.11 1.56 0.13 2.33 0.28 1.69 0.33 3.33 0.99 4.75 1.96 1.31 0.9 4.74 3.09 3.4 4.98-0.64 0.9-1.75 0.04-2.36-0.44-1.06-0.85-2.2-1.56-3.36-2.27-0.68-0.42-1.55-0.5-2.33-0.61-1.05-0.15-2.06-0.31-3.13-0.32-1.1-0.01-2.23-0.13-3.32 0.01-1.23 0.16-2.51 0.47-3.69 0.84-2.13 0.67-4.14 1.77-5.9 3.14-1.78 1.38-2.89 3.3-4.56 4.77-0.49 0.42-1.83-0.27-2.36-0.55m17.25 0.28c0.2-0.37 0.29-0.83 0.25-1.25-0.35 0.25-0.53 0.88-0.25 1.25m-1 0v-0.75c-0.29 0.17-0.38 0.46-0.5 0.75 0.16 0 0.34 0.02 0.5 0m-21.25-0.79c0.53-0.39 1.45 0.08 2 0.25-0.49 0.48-1.53 0.09-2-0.25m52.25 0.34c-0.45-0.56 0.02-1.41-0.65-1.59-0.21-0.06-0.45-0.02-0.67 0.01-0.73 0.09-0.71 0.05-0.99-0.57-0.16-0.35-0.13-1.08 0.23-1.32 0.63-0.42 0.71-0.37 1.46-0.21 0.43 0.09 0.83 0.29 0.9 0.8 0.11 0.8 0.58 2.3-0.28 2.88m-28.5-0.05c0.1-0.37 0.33-0.86 0.25-1.25-0.53 0.25-0.63 0.73-0.75 1.25 0.16 0 0.35 0.03 0.5 0m-10-1.77c-0.67 0.09-1.15 0.58-1.25 1.25 0.68-0.01 1.25-0.57 1.25-1.25m-23.73-7.29c1.91-0.63 3.31-2.31 4.59-3.77 0.73-0.83 1.39-1.76 2.22-2.49 0.58-0.51 1.62-1.05 1.45-1.97 0.44 0.12 0.89 0.48 1.25 0.75 0.12-0.78-0.13-1.57-0.06-2.35 0.08-0.8 0.06-1.6 0.06-2.4 0.7 0.44 0.27 1.42 0.75 2 0.16-1 0.04-2.01 0.02-3.02-0.02-1.22 0.24-2.42 0.24-3.63 0-1.17 0-2.34 0.01-3.51 0.01-1.2 0.25-2.39 0.26-3.59 0.71 0.87 0.18 2.85 0.05 3.83-0.25 1.87 0.19 3.79 0.19 5.67 0.71-0.9 0.56-2.21 0.52-3.28-0.06-1.58 0.24-3.14 0.24-4.72 0.53 0.58 0.31 1.63 0.29 2.34-0.04 1.21 0.22 2.48 0.45 3.66 0.34-0.64 0.25-1.39 0.25-2.08 0-1.03-0.01-2.07 0.03-3.1 0.06-1.79 0.35-3.57 0.74-5.32 0.62 0.68 0.16 1.96 0.05 2.75-0.18 1.29-0.03 2.73 0.19 4 0.46-0.62 0.48-1.41 0.52-2.14 0.05-0.86 0.2-1.71 0.24-2.57 0.09-1.76 0.51-3.52 0.51-5.28 0.63 0.69 0.35 2.09 0.28 2.92-0.13 1.52-0.04 3.06-0.05 4.58 0.81-1.02 0.48-2.47 0.51-3.67 0.04-1.54 0.5-3.03 0.5-4.58 0.33 0.4 0.29 0.98 0.36 1.46 0.1 0.69 0.21 1.37 0.38 2.04 0.41-0.78 0.29-1.7 0.41-2.54 0.14-0.98 0.1-1.97 0.1-2.96 0.34 0.4 0.35 2.25 0.75 2.25 0.51 0 0.62-4.6 0.76-5.25 0.35 0.42 0.3 1.05 0.32 1.56 0.04 0.82 0.2 1.62 0.17 2.44 0.43-0.81 0.28-1.78 0.36-2.66 0.1-1.12 0.4-2.21 0.4-3.34 0.74 0.7 0.5 2.35 0.49 3.25 0.42-0.78 0.5-1.77 0.58-2.64 0.05-0.55 0.03-1.63 0.68-1.86v2c0.51-0.65 0.52-1.48 0.75-2.25 0.27 0.27 0.39 0.64 0.5 1 0.39-0.74 0.53-1.92 0.5-2.75 0.29 0.36 0.37 0.81 0.5 1.25 0.16-0.26 0.29-0.53 0.5-0.75 0.61 1.2 0.25 2.95 0.24 4.25 0 1.68-0.01 3.36-0.01 5.04-0.01 3.42-0.11 6.83-0.18 10.25-0.03 1.68-0.2 3.35-0.3 5.03-0.09 1.55-0.04 3.19-0.31 4.71-0.58 3.35-1.03 6.55-2.37 9.71-0.42 0.99-1 1.91-1.86 2.57-0.97 0.74-1.94 1.39-2.75 2.31-0.83 0.94-1.52 1.84-2.06 2.97-0.23 0.48-0.74 2.11-1.23 2.38-0.36 0.2-1.04-0.15-1.37-0.28-0.69-0.27-1.37-0.54-2.07-0.79-1.58-0.54-3.16-1.03-4.68-1.71-0.73-0.33-1.51-0.63-2.19-1.06-0.61-0.38-1.08-0.94-1.59-1.44-0.85-0.81-2.06-1.92-2.08-3.22m1.98 7.26c1.18 0.37 2.3-0.29 3.5-0.24-0.37 0.87-3.66 1.63-3.5 0.24m40.5 0.07c-0.01-0.51-0.67-1.58-1.18-1.07-0.38 0.38 0.91 1.03 1.18 1.07m13.26-0.98c0.17-0.98 0.73-1.89 0.35-2.91-0.46-1.21-0.92-2.04-1.89-2.9-1.65-1.46-4.39-1.09-5.44 0.92-0.33 0.64-0.46 0.83-0.37 1.52 0.07 0.52 0.17 1.28-0.62 0.85-0.29-0.16-0.4-0.51-0.52-0.8-0.2-0.45-0.6-0.78-0.95-1.12-0.79-0.79-1.61-1.56-2.44-2.32-1.48-1.35-2.55-2.87-3.5-4.64-1.97-3.68-2.9-8.1-3.62-12.19-0.79-4.5-1.65-8.96-2.13-13.5-0.46-4.42-0.79-8.94-0.79-13.39 0-0.36 0.01-0.34 0.4-0.31 1.24 0.07 2.49 1.29 3.46 1.95 1.59 1.08 3.28 2.05 4.68 3.38 0.63 0.6 0.82 1.52 1.01 2.33 0.26 1.12 0.57 2.23 0.93 3.32 0.78 2.38 1.6 4.75 2.46 7.1 0.8 2.19 1.9 4.28 2.84 6.41 1 2.28 2.1 4.52 3.35 6.68 2.25 3.9 4.88 7.93 8.41 10.78 1.79 1.44 4.04 1.94 6.11 2.83 2.17 0.93 4.25 2.1 6.53 2.77-0.48 0.49-1.28 0.6-1.91 0.77-0.89 0.24-1.67 0.74-2.52 1.08-0.9 0.36-1.84 0.57-2.74 0.94-0.92 0.37-1.94 0.92-2.94 0.47-0.75-0.34-1.14-1.38-1.89-1.8-1.03-0.57-1.68-0.29-2.57 0.32-0.63 0.43-0.35 2.04-1.17 1.91-0.87-0.11-1.66-0.45-2.52-0.45m-28.75-1.05c-0.58 0.16-1.19 0.45-1.5 1 0.67 0.38 1.98-0.07 1.5-1m12.75 0.02c0-0.6-0.51-0.82-1-1-0.02 0.53 0.47 1.02 1 1m-9-1.01c-0.58 0.05-1.63-0.04-1.75 0.75 0.66-0.05 1.42-0.06 1.75-0.75m6.25-0.49h-1.5c0.16 0.8 1.35 0.83 1.5 0m-3.25 0.49c-0.36-0.57-1.22-0.54-1.75-0.25 0.42 0.54 1.18 0.55 1.75 0.25m18.25-0.09c-0.69 0.14-0.87-0.09-1.12-0.69-0.13-0.31 0.22-1.13 0.54-1.26 0.67-0.28 0.81 0.33 1.1 0.82 0.21 0.38-0.14 0.93-0.52 1.13m30.79-23.32c-0.7-0.14-1.36 0.65-1.77 1.1-0.7 0.76-1.49 1.45-2.22 2.18-1.58 1.57-3.23 3.13-4.62 4.87-1.4 1.76-2.94 3.39-4.2 5.26-0.62 0.93-1.24 1.86-1.86 2.8-0.42 0.65-1 1.5-1.87 1.52 0.34-1.99 1.76-3.64 2.91-5.22 1.33-1.83 2.73-3.55 4.22-5.25 1.56-1.78 3.19-3.48 4.79-5.21 1.5-1.63 2.86-3.39 4.6-4.77 0.66-0.53 1.6-1.38 2.53-1.26 0 1.63-2.47 2.3-2.51 3.98 0.79-0.78 1.55-1.59 2.38-2.33 0.98-0.86 1.72-0.83 2.93-0.53 1.1 0.27 2.16 0.59 3.24 0.93 0.96 0.3 2 0.44 2.86 0.98 0.53 0.33 0.19 0.6-0.1 1.03-0.67 0.99-1.68 1.79-2.45 2.71-0.85 1.02-1.66 2.05-2.39 3.17-1.48 2.26-2.94 4.47-4.67 6.56-0.81 0.97-1.6 2.06-2.61 2.82-0.94 0.71-1.98 1.32-2.96 1.98-1.12 0.75-2.33 1.31-3.55 1.88-1.24 0.58-2.75 1.61-4.16 0.96-1-0.46-2.01-0.92-2.9-1.58-1.01-0.75 0.23-2.11 0.79-2.78 1.09-1.3 2-2.75 3.01-4.11 1.11-1.49 2.3-2.93 3.52-4.34 1.19-1.39 2.5-2.68 3.75-4.01 0.56-0.6 1.13-1.19 1.71-1.78 0.54-0.51 0.93-1.2 1.6-1.56m-85.28 16.35c0.79 0.37 1.59 0.97 2 1.75-0.93-0.02-1.89-0.81-2-1.75m25.5 1.54c0.04-1.47 0.89-2.99 1.22-4.42 0.41-1.78 0.73-3.57 0.91-5.39 0.17-1.78 0.3-3.55 0.45-5.33 0.15-1.77 0.1-3.58 0.3-5.34 0.42-3.61 0.1-7.3 0.17-10.93 0.04-1.86 0.17-3.72 0.09-5.59-0.08-1.83-0.32-3.63-0.32-5.47 0-0.36 0.06-0.27 0.42-0.27 0.15 0 0.41 3.54 0.41 3.88 0.01 1.67-0.26 3.36-0.01 5.02 0.24 1.66-0.16 3.33-0.04 5 0.14 1.89 0.18 3.77 0.18 5.66 0 3.61-0.32 7.21-0.26 10.81 0.03 1.7 0.13 3.4-0.05 5.09-0.09 0.84-0.21 1.68-0.22 2.53-0.01 0.67 0.22 1.46-0.05 2.11-0.31 0.74-0.47 1.49-1.22 1.89-0.63 0.34-1.25 0.65-1.98 0.75m-22.5-0.29c-0.45-0.71-3.23-5.26-1.32-5.25 0.4 0 1.38 2.39 1.57 2.72 0.43 0.78 1.33 2.33-0.25 2.53m61.25-2.14c0.76-0.21 1.4-0.76 2.13-1.05 0.45-0.18 0.6-0.31 0.79 0.2 0.21 0.56 0.12 1.68-0.16 2.2-0.29 0.54-0.49 0.34-1 0.15-0.66-0.25-1.65-0.72-1.76-1.5m-29.43-41.05c0.95 0.6 0.46 2.38 0.5 3.3 0.1 2 0.48 4 0.48 6.01 0 1.93 0.33 3.79 0.56 5.69 0.24 2 0.44 4.01 0.87 5.98 0.82 3.75 1.2 7.51 2.26 11.21 0.53 1.85 0.96 3.75 1.66 5.55 0.34 0.86 0.76 1.69 1.16 2.52 0.28 0.58 0.83 1.31 0.69 2-0.83-0.11-2.3-0.54-2.78-1.26-0.86-1.3-1.03-3.1-1.36-4.59-0.39-1.72-0.76-3.44-1.09-5.17-0.65-3.37-1.06-6.78-1.65-10.16-0.6-3.43-0.41-6.96-0.84-10.41-0.45-3.54-0.46-7.12-0.46-10.67m-3.32 41.66c-0.9-0.01-1.88-1.28-1.72-2.2 0.17-1.03 0.3-2.28 1.28-2.91 1.03-0.66 1.95-0.86 3.16-1.04 1.07-0.16 2.17 0.64 3.01 1.15 1.78 1.07 1.63 5.13-0.97 4.58-0.59-0.13-0.78-0.53-1.1-0.98-0.22-0.31-0.8-1.08-1.21-0.56-0.2 0.26-0.41 0.52-0.61 0.78-0.15 0.2-0.13 0.48-0.31 0.66-0.32 0.32-1.08 0.46-1.53 0.52m-26.75 0.04c-0.4-1.22-0.57-2.5-0.4-3.78 0.08-0.6 0.21-1.19 0.31-1.78 0.03-0.2-0.06-0.8 0.1-0.94 0.37-0.32 1.72 0.29 2.06 0.42s1.91 0.67 1.8 1.19c-0.16 0.75-0.28 1.25-0.75 1.85-0.78 1.01-1.86 2.64-3.12 3.04m63.5-0.89c0-0.83 0.1-1.53-0.51-2.15-0.39-0.4-1.51 0.47-1.95 0.57-0.93 0.22-0.3-1.48-0.12-1.88 0.25-0.55 1.48-1.09 1.96-1.43 0.64-0.45 1.39-1.1 2.22-1.11 0.54-0.01 0.38 0.14 0.33 0.56-0.06 0.48-0.08 0.91-0.06 1.39 0.08 1.44-0.28 3.53-1.87 4.05m-5.5-0.76c0.01-1.97 1.3-4.17 2.15-5.89 1-2.02 2.29-3.88 3.32-5.89 2-3.9 4.44-7.6 7.31-10.92 0.23-0.27 0.57-0.62 0.93-0.68 0.9-0.13 0.85-0.03 0.85 0.85 0 0.72-0.87 1.42-1.31 1.89-0.72 0.77-1.29 1.7-1.91 2.55-1.54 2.12-2.97 4.31-4.36 6.53-1.36 2.18-2.76 4.36-4.04 6.59-0.58 1.01-1.08 2.07-1.59 3.12-0.24 0.52-0.55 2-1.35 1.85m-12.94-32.03c0.13-0.04 0.97-0.33 1.02-0.19 0.19 0.52 0.47 1.94 1.14 1.94 0.2 0 0.12-0.81 0.08-1 1.12 0.65 1.39 2.86 1.74 4 0.5-0.93 0.17-2.03 0-3 1.48 1.06 0.93 3.38 2.24 4.5 0-1.4-0.57-2.64-0.74-4 1.79 1.42 0.96 4.78 2.99 6-0.51-1-0.75-2.64-0.74-3.75 0.55 0.39 0.77 1.18 0.99 1.79 0.33 0.91 0.73 1.79 1 2.72 0.55-1-0.23-2.21-0.24-3.25 0.6 0.45 0.84 1.26 1.06 1.94 0.3 0.94 0.63 1.87 0.93 2.81 0.38-0.76-0.05-1.99-0.24-2.75 0.54 0.31 0.75 0.98 0.96 1.52 0.28 0.74 0.66 1.45 0.79 2.23 0.34-0.62 0.11-1.35 0-2 0.42 0.24 0.62 0.71 0.82 1.12 0.24 0.5 0.59 0.93 0.9 1.38 1 1.43-0.41 3.5-1.5 4.47-1.23 1.1-2.96 2.25-3.24 4.02 1.03-0.59 1.81-1.59 2.66-2.39 0.2-0.18 1.3-0.87 1.6-0.6 0.36 0.33 0.19 1.44 0.28 1.91 0.09 0.49 0.25 1 0.21 1.5-0.01 0.16-0.14 0.72 0 0.85 0.11 0.09 0.5 0.07 0.5-0.11 0-1.38 0.01-2.76 0.01-4.14 0.52 0.52 0.63 1.56 0.75 2.25 0.53-1 0.5-2.41 0.51-3.5 0.7 0.75 0.4 2.03 1.25 2.75-0.27-1.59-0.24-3.14-0.24-4.75 0.54 0.35 0.61 1.2 0.7 1.78 0.04 0.28-0.04 0.63 0.04 0.9 0.04 0.13 0.51 0.08 0.51 0.06 0-1.41 0-2.83 0.01-4.24 0.59 0.64 0.6 1.96 0.61 2.78 0.02 1.23-0.59 2.13-1.1 3.22-0.62 1.32-1.34 2.59-2.08 3.85-0.73 1.26-1.48 2.5-2.07 3.84-0.58 1.32-1.09 2.67-1.73 3.96-0.27 0.54-0.7 0.11-1.05-0.25-1.09-1.11-2.12-2.63-2.95-3.95-0.95-1.53-1.86-3.08-2.72-4.67-1.68-3.08-3.19-6.26-4.52-9.5s-2.48-6.55-3.43-9.91c-0.16-0.57-1.43-4.42-0.51-4.42 0.98 0 1.23 0.23 1.99 0.85 0.38 0.36 0.65 0.93 0.81 1.43m-47.05 28.17c0.02-0.66 0.57-1.59 1.25-1.75-0.21 0.68-0.42 1.62-1.25 1.75m27.25-0.2c0.55-3.32 7.13-3.75 7.75-0.24-1.29-0.17-2.38-1.06-3.75-1.01-1.43 0.06-2.63 1.03-4 1.25m41.25-0.18c0-0.97-0.01-1.8-0.25-2.75-0.79 0.5-1.59 0.9-2.54 0.9-0.67 0-0.37-0.5-0.26-0.93 0.13-0.48 0.24-1.07 0.55-1.47 1.06-1.38 3.57-2.51 5.25-2.74 0 1.36-0.11 2.79-0.38 4.13-0.24 1.27-0.87 2.82-2.37 2.86m-8.99-2.01c0.24-0.97 0.28-1.97 0.44-2.96 0.14-0.89 0.5-1.91-0.01-2.75-0.48-0.8-1.79 1.48-1.93 1.71-0.44 0.74-1.07 1.86-0.75 2.74 0.67-0.45 1.05-1.09 1.5-1.75 0.17 0.67 0.29 1.37 0.24 2.06-0.04 0.46-0.14 1.03 0.51 0.95m-30.5-0.95c-0.25-0.1-1-0.23-1.12-0.47-0.41-0.8-0.6-1.4-0.43-2.3 0.12-0.65 0.02-1.49 0.31-2.09 0.49-1.05 1.55-1.25 2.55-1.28 1.13-0.03 1.81 0.4 2.74 0.97 0.52 0.32 0.87 1.94 0.86 2.57-0.02 0.8-0.28 2.09-1.27 2.15-1.05 0.05-0.92-1.71-2-1.66-0.9 0.04-0.83 1.84-1.64 2.11m43.51-5.53c-1.05 0.14-1.89 0.77-3 0.75 0-0.69 0.04-1.51 0.51-2.03 0.72-0.77 1.85-1.1 2.78-1.54 1.02-0.48 2.08-1.01 3.21-1.17 0 1.93-0.21 4.22-1.21 5.93-0.25 0.43-0.86 0.79-1.23 1.12-0.18 0.16-1.13-0.07-1.27-0.27-0.57-0.88 0.39-1.9 0.21-2.79m-45-0.83c0.17-1.11 1.38-2.29 2.55-2.28 1.22 0.01 2.75 0.66 2.96 2.04-0.93-0.25-1.81-0.51-2.78-0.51-1 0.01-1.78 0.6-2.73 0.75m50.01-4.41c-0.99-0.28-2.17 0.55-3.11 0.83-0.39 0.12-0.93 0.23-1.27-0.09-0.52-0.49-0.21-1.05 0.01-1.56 0.39-0.94 1.5-1.41 2.41-1.75 1.22-0.44 2.04-0.69 3.28-0.24 0.81 0.29 1.97 0.71 2.04 1.68 0.07 0.95-0.26 2.32-0.8 3.12-0.29 0.43-0.7 0.84-1.14 1.12-0.6 0.38-0.92 0.14-1.52-0.13-0.84-0.38-0.03-2.38 0.1-2.98m10-0.48c0.22-1.17 1.49-1.93 2.32-2.66 1.17-1.03 2.2-2.21 3.2-3.39 1.98-2.34 3.9-4.75 5.38-7.44 2.81-5.09 5.22-10.66 6.38-16.38 0.35-1.75 0.86-3.45 0.88-5.24 0.02-1.62 0.02-3.24 0.02-4.86 0.01-4.88 0-9.76 0.03-14.64 0.02-2.17-0.43-4.29-0.79-6.42-0.32-1.93-0.96-4.05-0.94-6.01 0.02-2.17 2.02 3.2 2.02 3.2 0.4 0.93 0.29 2.26 0.34 3.25 0.32 7.11 0.15 14.25 0.03 21.37-0.04 2.3-0.01 4.58 0.04 6.88s-0.13 4.59-0.13 6.89c0 2.39-0.01 4.78-0.01 7.17 0 2.24 0.12 4.49-0.06 6.72-0.24 2.99-1.55 5.78-3.06 8.32-0.75 1.27-1.57 2.5-2.39 3.73-0.53 0.79-0.98 2.14-2.05 2.34-1.93 0.36-3.96-0.45-5.76-1.07-1.76-0.63-3.59-1.48-5.45-1.76m-59.22 1.83c-1.03-0.94-1.23-3.09-0.41-4.26 0.43-0.61 1.38-0.82 2.06-0.92 0.94-0.13 1.26 0.54 1.68 1.2 0.5 0.8 0.89 1.27 0.89 2.22 0 0.47-0.45 1.75-1.1 1.6-0.61-0.14-0.81-1.5-1.6-1.28-0.3 0.08-0.55 0.77-0.67 0.99-0.22 0.38-0.45 0.37-0.85 0.45m38.71 0.13c-0.38-0.72-0.25-1.6-0.25-2.38 0-1.12 0-2.25 0.01-3.37 0.62 0.68 0.42 1.94 0.58 2.78 0.2 0.97 0.57 2.23-0.34 2.97m-55.24-1.6v-2c0.41 0.46 0.36 1.54 0 2m56.25-0.15c0-1.08 0-2.17 0.01-3.25 0.6 0.64 0.8 2.7-0.01 3.25m17.25-0.97c-0.08-0.93 1.69-1.73 2.32-2.2 1.18-0.89 2.19-2.14 3.15-3.26 1.94-2.25 3.6-4.76 5.14-7.29 3.17-5.21 5.38-10.82 6.88-16.71 0.77-3 0.98-6.07 1.23-9.15 0.25-3.05 0.1-6.09 0.1-9.14 0-3.08-0.25-6.16-0.4-9.24-0.08-1.53-0.03-3.05-0.34-4.55-0.33-1.58-0.68-3.14-0.98-4.73-0.28-1.49-0.6-2.98-0.99-4.44 0.92 0.45 1.1 1.66 1.36 2.54 0.46 1.56 0.84 3.15 1.14 4.75 0.59 3.15 0.95 6.31 1.11 9.51 0.08 1.56 0.32 3.1 0.37 4.66 0.05 1.7-0.02 3.39-0.02 5.09-0.01 3.25-0.01 6.5-0.29 9.74-0.27 3.21-1.07 6.18-1.97 9.26-0.85 2.93-1.92 5.83-3.26 8.57-1.28 2.61-2.79 5.2-4.55 7.52-0.87 1.15-1.82 2.23-2.67 3.4-0.79 1.08-1.84 1.94-2.74 2.93-1.08 1.17-2.74 3.21-4.59 2.74m-1.24-3.75c0 0.55 0.01 0.98-0.16 1.49-0.13 0.4-0.46 1.16-0.9 1.31-0.76 0.26-2.6-0.61-3.18-1.06-0.19-0.15-0.85-0.97-0.48-1.15 0.72-0.35 1.41-0.34 2.18-0.41 0.85-0.07 1.69-0.18 2.54-0.18m-15.01 2.97c0-1.17 0-2.33 0.01-3.5 0.32 0.4 0.24 0.94 0.29 1.41 0.08 0.7 0.14 1.4 0.2 2.09-0.16 0-0.34 0.02-0.5 0m-6.25-1.01c-0.91-1.44-1.92-2.81-2.91-4.19-0.94-1.31-2.03-2.53-2.93-3.86-0.58-0.86-0.48-1.71-0.41-2.69 0.1-1.28 0.32-2.52 0.57-3.78 0.14-0.71 0.74-1.3 1.23-1.8 0.68-0.69 1.34-1.39 1.95-2.16 1.29-1.64 2.39-3.42 3.6-5.12 0.47-0.67 0.69-0.44 0.9 0.28 0.43 1.52 1.14 3.06 2.23 4.21 1.14 1.2 1.81 2.88 2.73 4.27 0.49 0.75 0.4 2.04 0.29 2.93-0.28 2.39-2.31 4.47-3.62 6.38-0.69 1-1.37 2-1.91 3.08-0.45 0.86-0.88 1.91-1.72 2.45m7.25-0.24c0-1.17 0-2.33 0.01-3.5 0.29 0.31 0.27 0.78 0.27 1.18 0.01 0.55 0.22 1.06 0.22 1.61 0 0.52 0.14 0.82-0.5 0.71m15.51-2.97c-0.77 0.13-1.47 0.22-2.25 0.25 0.2-1.07 1.47-1.78 2.38-2.18 1.03-0.46 2.26-1.16 3.38-1.31 0 1.45 0.21 3.65-0.98 4.77-0.86 0.8-1.24 1.08-2.37 0.68-0.7-0.25-0.26-1.69-0.16-2.21m-53.76 2.16c-0.67-0.2-1.25-0.42-1.96-0.53-0.65-0.11-1.39 0.25-2.04 0.27 0.03-1.11 1.31-1.49 2.25-1.5 0.73 0 2.3 0.87 1.75 1.76m39.26-0.68c0.11-0.73 0.01-1.52 0-2.25 0.56 0.53 0.44 1.56 0.5 2.25-0.17 0-0.34 0.01-0.5 0m0.02-11.25c0.84 0.17 1.46 0.95 2.02 1.53 0.74 0.75 1.41 1.56 2.11 2.35 1.17 1.31 2.77 2.29 3.6 3.88-0.77 0.14-2.49 0.53-3.02-0.25-0.6-0.88-1.51-1.94-1.72-3.01-0.35 0.67 0 2.25 0.52 2.77 0.26 0.26 0.71 0.93 1.07 0.98 2.3 0.31 4.63 0.66 6.83-0.29 1.04-0.45 1.98-1.81 2.67-2.67 0.91-1.13 1.71-2.34 2.42-3.6 1.4-2.47 2.46-5.1 3.39-7.78 1.03-2.98 1.89-6.01 2.64-9.07 0.35-1.41 0.62-2.83 1.15-4.19 0.6-1.52 0.75-2.95 0.94-4.56 0.18-1.51 0.54-3 0.76-4.51 0.23-1.58 0.25-3.18 0.48-4.76 0.21-1.44 0.19-2.87 0.19-4.32 0-1.59 0.04-3.13-0.26-4.7-0.58-3.09-0.97-6.18-1.76-9.24-0.8-3.11-1.78-6.16-2.9-9.17-0.75-2.02-1.47-4.06-2.35-6.03-0.77-1.72-2.15-3.46-2.43-5.35 1.16 0.38 1.67 1.6 2.22 2.58 0.79 1.42 1.55 2.84 2.25 4.3 1.37 2.87 2.39 5.85 3.26 8.91 0.85 2.99 1.84 5.93 2.46 8.97 0.59 2.92 1.01 5.94 1 8.93-0.01 6.23-0.94 12.46-2.47 18.5-1.53 6.06-3.23 12.1-5.63 17.88-0.78 1.87-1.71 3.61-2.79 5.32-1.04 1.64-2.07 3.33-3.44 4.73-1.4 1.42-3.89 2.04-5.83 2.09-1.24 0.03-2.38 0.04-3.51-0.51-1.3-0.64-2.12-2.87-2.66-4.12-0.76-1.8-1.13-3.63-1.21-5.59m-40.77 7.68c-0.97 0-2.22 2.74-2.84 0.86-0.2-0.6-0.01-1.46 0.01-2.09 0.02-0.8 0.71-1.18 1.34-1.37 0.72-0.22 1.33 0.05 2.06 0.23 0.66 0.16 0.69 1.34 0.81 1.85 0.19 0.78 0.09 1.37-0.64 1.75-0.66 0.33-0.74-0.84-0.74-1.23m-15.25 0.47v-0.75c0.21 0.22 0.19 0.52 0 0.75m61.02-9.14c-0.66-0.48-2.01-0.66-1.94 0.5 0.05 0.87 0.65 1.94 0.93 2.75-0.99-0.28-3.21-2.45-2.61-3.5 0.35-0.62 1-1.03 1.5-1.52 0.65-0.63 1.27-1.31 1.88-1.97 1.3-1.39 2.41-2.94 3.49-4.5 0.54-0.78 0.92-1.48 2-1.3 0.62 0.1 1.86 0.54 2.25 1.06-1.21 0.58-2.72 0.57-4 0.99 0.58 1.33 1.81 2.35 2.24 3.75-1.41-0.05-2.98-0.53-4.32-0.15-0.69 0.2 1.17 3.38 1.31 3.89-0.9 0.22-1.82-0.15-2.73 0 0.57 0.31 3.22 1.2 3.54 0.55 0.66-1.35-1.04-2.46-1.03-3.8 1.09 0 2.06 0.13 3.13 0.32 1.58 0.27 1.13-1.24 0.63-2.06-0.29-0.47-0.59-0.92-0.81-1.42-0.28-0.63-0.03-0.72 0.59-0.9 0.91-0.27 2.07-0.49 3.02-0.42 1.16 0.1 2.15 0.49 3.21 0.99 1.04 0.49 1.64 1.1 1.49 2.31-0.24 2-1.18 3.83-2.12 5.58-0.95 1.79-1.97 3.53-3.17 5.17-1.14 1.55-2.29 2.7-4.32 2.08-0.76-0.23-1.52-1.14-2.14-1.63-1.45-1.16-1.66-3.13-2.31-4.77-0.3-0.68-0.7-1.71 0.29-2m-19.77 8.46l0.25-0.25-0.25 0.25m33.76-2.69c-0.54 0.3-1.41 0.96-2 0.38-0.54-0.54 0.27-1.67 0.62-2.09 0.55-0.66 1.18-1.47 1.93-1.91 0.64-0.38 1.66-1.11 2.41-1.11 0.77 0 0.14 4.56-0.03 5.21-0.19 0.72-1.01 1.66-1.79 1.58-0.63-0.06-0.63-0.11-0.8-0.71-0.12-0.45-0.22-0.9-0.34-1.35m-35.51 1.44l0.25-0.25-0.25 0.25m-26.99-2.05c0.33-2.16 3.71-1.74 4 0.26-0.72-0.03-1.42-0.27-2.12-0.43-0.63-0.14-1.26 0.15-1.88 0.17m0.25-2.25c-0.64-0.9-0.7-2.49-0.13-3.42 0.22-0.36 0.89-1.13 1.41-0.87 0.48 0.23 1.45 0.48 1.72 0.95 0.38 0.66 0.51 1.18 0.46 1.94-0.04 0.54-0.06 1.52-0.77 0.98-0.47-0.36-0.86-1.25-1.49-0.75-0.47 0.37-0.49 1.06-1.2 1.17m66.51-3.88c-0.54 0.32-1.67 1.18-2.29 0.8-0.78-0.47-0.32-1.97 0.04-2.55 0.56-0.9 1.5-1.5 2.24-2.23 0.57-0.57 1.46-1.13 2.26-1.26 0.25 0.91 0.46 1.83 0.64 2.75 0.2 1.02-0.04 2.04-0.22 3.04-0.08 0.44-0.34 0.83-0.53 1.23-0.15 0.31-1.04 0.32-1.36 0.39-0.86 0.18-0.71-1.6-0.78-2.17m-51.5 0.91c-2.17-1.51-4.26-3.12-6.49-4.54-1.11-0.71-2.24-1.37-3.43-1.93-0.99-0.47-2.09-1.24-3.24-1.15-1.32 0.1-2.83 1.39-3.88 2.11-1.15 0.78-2.49 2.17-3.95 2.23 0.69-1.2 2.11-1.91 3.22-2.65 1.43-0.97 2.89-1.68 4.51-2.28 1.17-0.43 2.99 0.75 3.98 1.27 1.75 0.91 3.46 1.91 5.12 2.98 0.7 0.43 4.79 2.91 4.16 3.96m36.51-9.94c-0.42 1.5-6.73 10.52-8.24 8.8-0.08-0.09-0.54-0.5-0.48-0.61 0.62-1.11 1.5-1.79 2.35-2.72 0.78-0.86 1.54-1.72 2.16-2.71 0.66-1.06 2.12-3.87 3.76-2.98 0.15 0.08 0.3 0.15 0.45 0.22m-48.51 8.17c-0.48-0.14-1.03-0.49-1.54-0.46-0.66 0.04-1.31 0.18-1.96 0.2 0.34-1.01 1.23-1 2.15-1.22 0.6-0.15 1.75 0.82 1.35 1.48m32.83-45.95c2.46 0.05 3.21 2.81 4.29 4.47 0.56 0.86 1.84 0.85 2.73 1.1 1.08 0.31 2.23 0.95 2.97 1.8 0.91 1.04 1.34 1.75 1.53 3.13 0.2 1.44-0.79 3.28-1.22 4.62-0.56 1.72-1.2 3.38-2 5-0.81 1.63-1.4 3.36-2.08 5.04-0.7 1.72-1.54 3.39-2.38 5.05-1.7 3.38-3.56 6.6-5.68 9.73-0.82 1.22-1.56 2.46-2.48 3.61-0.38 0.48-1.5 2.15-2.29 1.76-1.2-0.59-2.16-1.5-3.06-2.47-0.98-1.07-1.99-2.13-2.92-3.24-0.46-0.54-0.21-0.98-0.04-1.6 0.38-1.36 1.31-2.58 1.85-3.89 0.63-1.52 1.29-3.03 1.88-4.56 1.25-3.24 2.32-6.56 3.42-9.86 1.11-3.3 2.06-6.64 3-9.99 0.9-3.22 1.57-6.49 2.48-9.7m12.93 36.78c0.25 1.06-1.13 2.42-1.74 3.12-1.03 1.19-1.94 2.54-3.06 3.65-0.36 0.35-1.8 2.04-2.41 1.4-0.82-0.86 1.27-2.85 1.77-3.4 1.41-1.53 2.5-3.4 4.09-4.74 0.31-0.24 0.98-0.05 1.35-0.03m-48.59 6.77c-0.51-0.27-0.81-0.24-0.71-0.82 0.06-0.34 0.38-0.69 0.69-0.86 0.64-0.33 2.04-1.17 2.73-0.43 0.52 0.55 0.46 2.03-0.51 1.7-0.32-0.11-0.76-0.64-1.09-0.61-0.37 0.04-0.88 0.78-1.11 1.02m44.37-21.03c0.05 2.39 0.8 4.69 1.13 7.04 0.16 1.14 0.39 2.34 0.3 3.49-0.09 1.25-0.17 2.42-0.04 3.67 0.06 0.64-0.55 1.29-0.88 1.79-0.44 0.66-0.95 1.28-1.46 1.89-0.71 0.84-1.58 2.56-2.83 2.6-0.94 0.03-1.88-1.47-2.19-2.18-0.64-1.47-1.3-3.18-0.96-4.81 0.24-1.17 0.91-2.21 1.52-3.22 0.74-1.23 1.36-2.54 1.98-3.83 0.59-1.24 1.08-2.52 1.67-3.75 0.34-0.75 0.83-2.48 1.76-2.69m25.22 17.54c-0.89 0-1.47 0.88-2.25 1.15-1.05 0.36-1.78-0.14-1.4-1.28 0.5-1.5 2.41-3.35 3.91-3.86 1.45-0.5 1.99 3.44 1.86 4.37-0.07 0.5-0.15 0.75-0.39 1.19s-1.2 1.12-1.55 0.41c-0.31-0.59-0.17-1.34-0.18-1.98m-8-0.01c0-0.96-0.18-1.91-0.2-2.88-0.03-1.05-0.04-2.1-0.29-3.13-0.79 1.61-0.51 3.77-0.51 5.5-1.16-0.37-0.69-2.76-0.56-3.61 0.18-1.13 0.55-3.44-0.68-4.15 0 1.31-0.05 2.62-0.08 3.93-0.03 1.08 0.1 2.33-0.43 3.32-0.53-0.55-0.39-1.28-0.29-1.95 0.13-0.93 0.05-1.91 0.05-2.85 0-2.04 0.01-4.07 0.01-6.11 0-2.1 0.01-4.19 0.01-6.29 0-1.86-0.26-3.89 0.04-5.73 0.19-1.17 1.46-1.1 1.97-2.07-0.35-0.09-1.43-0.24-1.63-0.56-0.44-0.72-0.37-1.52-0.35-2.33 0.02-0.96 0.02-1.92-0.01-2.87-0.61 0.79-0.5 1.77-0.51 2.71 0 1.12-0.06 2.23-0.08 3.35-0.02 1.09-0.19 2.17-0.18 3.26 0 1.1 0.24 2.18 0.24 3.28 0 1.09-0.25 2.16-0.25 3.26s-0.01 2.2-0.01 3.3c0 2.27 0.03 4.54-0.08 6.81-0.03 0.54-0.46 0.99-0.92 1.17-0.33 0.12-0.47 0.19-0.63-0.13-0.27-0.53 0.57-1.38 0.7-1.99 0.2-0.94 0.19-1.91 0.19-2.86 0-2.31 0.32-4.89-0.24-7.15-0.88 1.29-0.6 3.12-0.53 4.58 0.08 1.72 0.33 3.84-0.49 5.42-0.33-0.39-0.27-0.99-0.25-1.47 0.03-0.84 0.07-1.7-0.02-2.54-0.17-1.58 0.17-3.19-0.21-4.75-0.55 0.8-0.54 1.78-0.52 2.71 0.03 1.26 0.01 2.52 0 3.77 0 0.89 0.04 1.66 0.24 2.53 0.18 0.81-0.04 1.34-0.89 1.57-0.28 0.07-0.64 0.03-0.56 0.36 0.08 0.32 0.2 0.67 0.2 1.01 0 0.42-0.89 0.46-1.25 0.54 0.14-0.77-0.18-1.54-0.21-2.3-0.04-0.93 0.22-1.86 0.22-2.79 0-1.97 0.01-3.95 0.01-5.92v-2.61-1.37c0-0.01 0.46-0.01 0.48-0.01 0.12 0 0.99-0.05 1 0.04 0.04 0.35-0.02 0.94 0.18 1.25 0.39 0.6 0.57 0.34 1.15 0.02 0.37-0.21-0.03-0.85-0.25-1.07-0.49-0.48-0.8 0.07-0.8-0.74 0-0.82 0.33-0.42 0.75 0 0.28-0.83 0.54-1.68 0.86-2.5 0.31-0.8 0.78-1.61 0.65-2.5-0.18 0.11-0.96 0.38-1.03 0.14-0.15-0.47-0.33-0.93-0.47-1.4-0.28 0.36-0.46 0.7-0.66 1.1-0.21 0.42 0.02 0.36-0.49 0.32-0.28-0.02-0.58-0.13-0.86-0.18 0.02 1.4 0.91 2.89 1.24 4.25-0.39-0.12-0.81-0.16-1.21-0.07-0.51 0.12-0.46-0.45-0.52-0.86-0.12-0.91-0.02-1.9-0.02-2.82-0.61 0.29-0.7 0.95-0.74 1.55-0.02 0.31-0.02 0.62-0.02 0.92 0 0.58 0.03 0.52-0.56 0.52-0.38 0-0.19-0.72-0.19-0.94 0-0.38-0.24-0.31-0.55-0.31-0.47 0-0.07 1.1-0.95 1 0.14-0.78 0.74-1.45 0.75-2.25-1.08-0.06-2.16-0.19-3.24-0.27-0.43-0.03-1.04-0.02-0.95-0.53 0.26-1.33 0.84-2.64 1.23-3.94 0.42-1.43 0.83-2.86 1.2-4.3 0.71-2.79 1.05-5.66 1.63-8.48 0.59-2.83 0.98-5.7 1.56-8.53 0.31-1.51 0.68-3 0.92-4.52 0.16-1.06 0.69-2.26-0.16-3.15-0.81-0.86-1.55-1.54-2.56-2.17-1.29-0.8-0.81-1.58 0.07-2.48 1.53-1.57 3.74-2.5 5.8-3.11 1.3-0.39 2.11-0.02 2.79 1.1 2.05 3.35 3.4 7.05 4.79 10.7 0.73 1.91 1.35 3.83 1.91 5.8 0.41 1.45 1.42 3.23 1.29 4.76-0.04 0.5 0.03 0.27-0.37 0.47-0.19 0.09-0.43 0.12-0.63 0.18 0.18 0.85 0.95 1.79 1.39 2.53 0.18 0.29 0.54 0.9 0.15 1.06-0.42 0.17-0.86 0.16-1.3 0.17 0 1.07 1.13 0.71 1.39 1.34 0.27 0.65 0.49 1.47 0.61 2.16-0.92-0.46-0.75-0.1-0.75 0.73 0 3.05 0.09 6.13-0.03 9.18-0.06 1.48-0.24 2.94-0.24 4.42s0.04 2.96-0.26 4.42c-0.54-0.46-0.5-1.29-0.5-1.94 0-1.17 0-2.35 0.01-3.52 0.02-2.16 0.25-4.31 0.29-6.47 0.03-1.69-0.04-3.37 0.05-5.06 0.05-1.01 0.25-2.9-0.81-3.51-0.01 4.89-0.21 9.77-0.31 14.66-0.05 2.46 0.07 4.92 0.11 7.38 0.02 1.16 0.02 2.33-0.03 3.49-0.04 1.01 0.06 2.37-0.57 3.23-0.35-0.42-0.37-1.23-0.5-1.75-0.63 0.99-0.7 2.22-0.74 3.36-0.02 0.72 0.11 1.42 0.1 2.14-0.01 0.68-0.21 1.34-0.38 2-0.37-0.41-0.23-1.06-0.24-1.56-0.01-0.68-0.11-1.34-0.08-2.02 0.03-0.73 0.53-2.28 0.08-2.92-0.07-0.11-0.58-0.17-0.74-0.37-0.18-0.22-0.26-0.62-0.26-0.89-0.88 0-1.4 0.91-0.92 1.67 0.2 0.31 0.71 0.45 0.86 0.78 0.32 0.71 0.18 1.46 0.13 2.22-0.07 1.09-0.08 2.17-0.08 3.26 0.03 0.63 0.22 0.9-0.47 0.85m-4.25-1.51c-0.7-0.61-0.99-2.3 0.25-2.5 0 0.72 0.23 1.89-0.25 2.5m-36-0.56c-0.59-1.11 0.49-2.65 0.93-3.64 0.65-1.48 1.23-2.99 1.77-4.52 1.11-3.17 2.16-6.41 3.13-9.62 1-3.32 1.95-6.65 2.87-10 0.9-3.31 1.63-6.62 2.42-9.95 0.2-0.82 0.18-0.74 0.97-0.6 0.48 0.08 0.98-0.09 0.96 0.45-0.12 3.34-1.26 6.64-2.1 9.87-0.92 3.52-2.06 6.97-3.21 10.41-1.14 3.4-2.26 6.81-3.56 10.15-0.63 1.63-1.26 3.32-2.09 4.86-0.32 0.59-1.22 2.75-2.09 2.59m30-1.2c-0.68-1.05-0.34-2.34-0.47-3.51-0.03-0.29-0.5-0.41-0.55-0.11-0.18 1.06-0.23 2.05-0.23 3.12-0.83-0.13-0.76-1.38-0.75-2-0.3 0.39-0.53 0.78-0.75 1.22-0.26 0.52-0.33 0.57-0.88 0.33-1.08-0.47-1.15-1.77-1.02-2.82 0.06-0.48 0.52-0.68 0.68-1.11 0.21-0.58-0.25-0.93-0.61-1.4-0.66-0.87 0.02-2.08-0.15-2.98 1.25 0.76 0.57 3.79 2.24 4 0.14-0.82 0.53-1.82 1-2.5 0.7 0.67 0.41 1.96-0.5 2.25 0.68 1.19 2.23 0.75 2.5 2.25 0.14 0.83 0.03 2.59-0.51 3.26m19.76-2.96c-0.74 0.39-1.29 1.21-2.07 1.53-0.11 0.04-1.16 0.4-1.18 0.17-0.05-0.54-0.14-1.05-0.03-1.58 0.41-1.91 2.04-2.99 3.39-4.23 0.39-0.36 0.45-0.45 0.82-0.03 0.64 0.72 0.91 2.02 1.11 2.93 0.17 0.79 0.42 1.92 0.09 2.71-0.12 0.27-0.79 0.85-1.09 0.83-0.81-0.05-0.93-1.78-1.04-2.33m-23.5 1.45c0.2-0.37 0.29-0.83 0.25-1.25-0.55 0.12-0.7 0.92-0.25 1.25m6.25-0.98c0.42-2.09 0.2-4.24 0.33-6.35 0.05-0.86 0.42-3.61-0.81-3.9 0 1.67-0.01 3.33-0.01 5 0 1.53-0.17 3.13-0.06 4.65 0.03 0.43 0 0.73 0.55 0.6m-4.75-2.26c-0.95-0.13-1.39 0.81-0.92 1.55 0.3 0.48 0.72-0.06 0.97-0.28 0.24-0.21 0-1.03-0.05-1.27m15.56-31.98c-0.58-0.01-0.5-0.01-0.5 0.52-0.01 2.24-0.01 4.48-0.01 6.71 0 2.25 0.19 4.55-0.26 6.77-0.82-0.25-2-0.12-2 1 0.71 0.09 1.31 0.21 2 0 0.02 3.74-0.01 7.5-0.02 11.25-0.65 0-1.25-0.6-1.25-1.25 0.17 0.08 0.33 0.17 0.5 0.25 0-3.08 0.01-6.17 0.02-9.25-1.02 0.15-0.81 2.32-0.79 3 0.06 1.75-0.09 3.53 0.27 5.25-0.59-0.03-0.85 0.61-1.09 1.03-0.27 0.47-0.92 0.58-1.16 1.08-0.47 0.98 0.57 2.37 0.49 3.39-1.01-0.2-2.04 0-2 1.25 1.15-0.09 2.02-0.12 3-0.74 0.09 0.29 0.51 0.99 0.89 0.84 0.88-0.35 1.71-0.46 1.88-1.55s-0.01-2.3-0.01-3.4c0-3.01 0.01-6.03-0.01-9.04-0.01-1.37-0.08-2.81 0.14-4.16 0.22-1.33 0.12-2.76 0.13-4.11 0.01-2.97-0.1-5.89-0.22-8.84m-13.31 31.23c-0.49-0.41-0.38-1.08-0.3-1.63 0.11-0.85 0.08-1.73 0.06-2.59-0.04-1.36-0.39-3 0.26-4.28 1.07 0.64 0.55 3.16 0.5 4.17-0.06 1.12 0.62 3.58-0.52 4.33m21.26-3.71c-0.74 0.15-1.27 1.07-1.96 1.14-0.49 0.05-1.01 0.33-1.07-0.22-0.06-0.57-0.11-0.9 0.07-1.43 0.51-1.52 1.93-3.09 3.28-3.9 0.6-0.37 0.95 1.09 1.14 1.52 0.47 1.05 0.65 1.76 0.78 2.9 0.06 0.6-0.17 1.9-0.98 1.96-0.9 0.07-1.11-1.38-1.26-1.97m-10.25 2.23c0.28-1.02 0.94-2.1 1.5-3 0.41 0.43 0.07 1.4 0.01 1.92-0.11 0.89-0.8 0.92-1.51 1.08m-2.5-0.5c0.35-0.66 0.15-1.5 0.07-2.2-0.09-0.85 0.05-1.7 0.12-2.54 0.08-1 0.07-2.01 0.08-3.02 0-0.39 0.08-5.24-0.08-5.24-0.56 0-0.27-0.01-0.42 0.4-0.58 1.63-0.25 3.77-0.26 5.47 0 0.76-0.01 1.52-0.02 2.27 0 0.35-0.07 4.86 0.08 4.86h0.43m-55.25-1.1c0.11-0.74 0.56-1.37 0.94-2 0.41-0.69 0.76-1.45 1.36-2.01 0.79-0.74 1.38-0.02 2.17 0.46 0.51 0.31 0.54 1.53 0.53 2.06 0 1.01-0.17 1.39-0.73 2.25-0.16 0.24-0.73-0.07-0.99-0.15-0.3-0.09-0.21-0.68-0.31-0.9-0.15-0.34-0.52-1.43-1.05-1.23-0.84 0.32-0.74 1.56-1.92 1.52m45-1.17c-0.72-0.97 0.12-1.72 0-2.75 1.13 0.22 0.77 2.31 0 2.75m-2-0.01c-0.33-0.36-0.7-0.65-0.83-1.13-0.14-0.54-0.28-1.08-0.42-1.63 1.32 0.01 0.63 1.79 1.75 2-0.12 0.31-0.22 0.58-0.5 0.76m0.5-0.99c0.01-0.49 0-1.42 0.75-1.25-0.07 0.45-0.37 0.97-0.75 1.25m13.01-0.73c0.66-0.83 0.5-1.96 0.5-2.94 0-1.35 0.01-2.7 0.01-4.06-1.17 0.22-0.75 2.26-0.76 3.06 0 1.1-0.57 3.02 0.25 3.94m-14.5-2.53c0.85-0.43 2.02 0.26 1.5 1.25-0.6-0.14-1.41-0.58-1.5-1.25m3 0.51c0.34-0.61 0.63 0.23 0.75 0.5-0.3-0.12-0.55-0.24-0.75-0.5m-41.5-0.57c0.01-0.54 0.41-1.13 0.96-1.21 0.63-0.09 0.54 1.22 0.54 1.71-0.52-0.08-1-0.34-1.5-0.5m65.5-1.39c-0.73 0.13-1.26 0.9-1.83 1.32-0.83 0.61-1.21-0.51-1.07-1.2 0.3-1.5 1.4-3 2.2-4.28 0.57-0.91 1.01 0.21 1.35 0.74 0.41 0.65 0.91 1.57 1 2.33 0.1 0.79 0.34 1.77-0.33 2.33-0.78 0.64-1.24-0.55-1.32-1.24m-28 0.95c-0.35-0.53-0.46-1.1 0.08-1.49 0.84-0.62 1.06-0.77 2.1-0.67 1.3 0.12 2.5 0.89 3.82 0.92-0.33 2.07-3.19 0.74-4.45 0.86-0.51 0.04-1.03 0.3-1.55 0.38m11.51-4.23c-0.56-0.13-0.52 0.2-0.58 0.62-0.05 0.33-0.12 0.67-0.12 1.01 0 0.18 0.18 0.63 0.1 0.81-0.22 0.49-1.1 0.61-0.48 1.29 0.58 0.64 1.98 0.05 1.5-0.88-0.48-0.91-0.42-1.84-0.42-2.85m-11.75 1.48c0.01-0.88 0.65-1.5 1.56-1.5 0.79 0 1.71-0.12 2.44 0.25-0.63 1.27-2.81 1.21-4 1.25m16.25-4.47c-0.38 0.08-0.81 0.37-0.97 0.75-0.23 0.58 0.2 0.67 0.63 0.95 0.89 0.58 0.66-1.27 0.34-1.7m12 0.02c-0.72 0.15-0.94 0.87-1.5 1.25-1.02 0.69-0.91-0.48-0.8-1.19 0.18-1.16 0.87-2.96 2.05-3.44 0.66-0.26 0.76 0.43 1.05 0.96 0.33 0.6 0.71 1.31 0.8 1.99 0.03 0.25 0.09 2.13-0.46 1.89-0.59-0.26-1.05-0.79-1.14-1.46m-16.5 0.72c0-1.75 0.01-3.5 0.01-5.25-0.6 0.44-0.71 1.86-0.72 2.54-0.02 0.74-0.28 2.46 0.71 2.71m-1.5-1.25c0-0.61 0.3-1.36-0.5-1.25 0.04 0.5 0.09 0.92 0.5 1.25m6-0.24c0.21-0.73 0.45-1.46 0.7-2.18 0.24-0.69 0.66-1.44 0.73-2.17 0.03-0.29 0.15-0.48-0.17-0.65-0.24-0.13-0.62 0.03-0.75 0.25-0.2-0.61-0.49-1.88-1.25-2 0.06 0.69-0.29 1.36-0.5 2-0.31-0.18-0.65-0.2-1-0.25 0.05 1.5 0.96 2.92 1.34 4.35 0.19 0.67 0.17 0.65 0.9 0.65m10.01-3.48c-0.26-0.89 0.04-1.73 0.37-2.56 0.11-0.28 0.69-2.01 0.99-1.9 1.72 0.59 1.98 2.69 1.89 4.22-0.65 0-1.21-0.69-1.75-1-0.2 0.63-0.8 1.23-1.5 1.24m-11.49-2.52c0.01-0.67 0.17-1.34 0-2-0.46 0.21-0.57 0.65-0.57 1.11 0.01 0.48-0.08 1.04 0.57 0.89m-12.75-0.03c-0.83-1.12-1.91-2.06-3.12-2.75-0.65-0.37-1.35-0.67-2.07-0.86-0.56-0.15-1.29-0.14-1.62-0.69-0.43-0.71-0.71-1.44-1.21-2.12-0.55-0.75-1.14-1.46-1.89-2.01-0.79-0.58-1.78-0.8-2.72-1-1.01-0.22-1.74-0.71-2.49-1.41-1.51-1.41-3.59-2.42-5.71-2.43-0.21 0-0.74-0.14-0.39-0.5 0.4-0.41 2.79 0.19 3.19 0.32 1.67 0.56 2.74 1.68 4.09 2.72 0.73 0.56 1.39 0.61 2.24 0.8 0.88 0.2 1.68 0.63 2.42 1.13 1.39 0.95 1.93 2.41 3.07 3.55 1.17 1.17 3.16 1.42 4.56 2.3 0.65 0.42 1.88 1.74 1.78 2.6-0.02 0.14-0.04 0.23-0.13 0.35m15.75-0.22c0.2-1 0.95-5.46-0.49-5.75 0 1.14 0 2.27-0.01 3.41 0 0.75-0.2 1.83 0.5 2.34m-9.37-0.26c0.17-0.38 0.6-1.93-0.46-1.54-0.25 0.09-0.32 0.84-0.38 1.08-0.09 0.3 0.58 0.37 0.84 0.46m7.87-0.99c0.12-0.97 0.01-1.79 0.01-2.75-0.74 0.53-0.71 2.2-0.01 2.75m9.75-0.98c-0.68-1.01-0.21-2.15 0.1-3.21 0.05-0.19 0.38-1.29 0.51-1.27 0.6 0.09 0.95 0.41 1.34 0.85 0.79 0.87 1.31 1.74 1.21 2.93-0.06 0.7-0.54 0.35-0.92 0.1-0.43-0.29-0.8-0.63-1.25-0.89-0.13 0.58-0.19 1.64-0.99 1.49m-15.75-0.03c-0.05-0.33-0.08-0.6-0.21-0.9-0.09-0.2-0.78 0.08-0.96 0.13-0.41 0.11 0.07 0.58 0.25 0.66 0.27 0.1 0.63 0.11 0.92 0.11m-3.5-0.01c0.57-0.34 0.14-1.33-0.5-1-0.67 0.35-0.12 1.12 0.5 1m1.75-0.24c0.27-1.61 1.03-3.15 1.26-4.75-0.38-0.08-0.88 0.15-1.25 0.25-0.1-0.6-0.23-1.21-0.5-1.75-0.76 0.55-0.55 2-1.75 2 0.17 1.26 1.03 2.43 1.34 3.68 0.16 0.66 0.23 0.56 0.9 0.57m-11.99-3.03c-0.21-0.39-0.3-1-0.13-1.41 0.24-0.59 1.06-0.1 1.63-0.08-0.26 0.59-0.82 1.39-1.5 1.49m28.5-1.2c-0.55-1.66 0.26-3.43 0.76-5 1.45 0.3 2.18 2.12 2.86 3.24 0.2 0.33 0.1 1.13 0.13 1.52-1 0.03-1.75-0.94-2.5-1.5-0.22 0.61-0.41 1.9-1.25 1.74m-10.49-5.76c-0.27 0.05-0.75 0.27-0.75 0.6 0 0.34-0.18 1.02 0.2 1.19 0.91 0.41 0.73-1.39 0.55-1.79m-25.26 1.7c-0.28-0.53-0.24-1.17-0.25-1.75 0.57 0.11 1.16 0.26 1.75 0.25-0.12 0.72-0.84 1.28-1.5 1.5m34.76-5.69c1.3 0.05 2.89 1.59 3.34 2.76 0.19 0.49 0.33 1.89-0.43 1.64-0.56-0.19-1.12-0.83-1.66-1.14-0.21 0.58-0.39 1.16-0.71 1.69-0.38 0.61-1.1-1.03-1.14-1.15-0.2-0.53 0.06-1.15 0.17-1.67 0.14-0.71 0.29-1.42 0.43-2.13m-7.75 3.49c0.16-0.85-0.91-0.75-1.5-0.75-0.02 0.82 0.87 1.09 1.5 0.75m-2.75-0.76c-0.38-0.2-1.87-0.29-1.41 0.42 0.44 0.7 1.27 0.32 1.41-0.42m-8.75 0.74c-2.91-2.03-5.64-4.32-8.64-6.22-1.51-0.95-3.09-1.79-4.7-2.57-1.07-0.52-2.85-0.79-3.57-1.81-0.9-1.29 1.47-0.66 2.04-0.41 1.49 0.62 1.84-0.23 2.28-1.47 0.28-0.77 0.48-1.56 0.66-2.35 0.14-0.59 0.45-1.32 0.29-1.94-0.13-0.51-0.63-0.71-0.84-1.14-0.68-1.36 1.26-0.87 1.83-0.59 2.24 1.1 4.46 2.19 6.62 3.45 2 1.16 4.06 2.23 5.79 3.78 0.23 0.21 0.2 1.2 0.25 1.53-0.83-0.1-1.54-0.68-2.17-1.17-0.8-0.62-1.64-1.19-2.5-1.74-1.53-0.99-3.28-2.41-5.07-2.88-0.78-0.2-0.99 0.16-1.54 0.66-0.54 0.48-0.72 1.35-0.89 2.02-0.22 0.85-0.46 1.69-0.62 2.56-0.11 0.61 0.46 0.94 0.86 1.34 1.18 1.19 2.93 2.03 4.34 2.93 0.95 0.61 1.92 1.18 2.86 1.81 0.99 0.66 4.17 2.71 2.72 4.21m9.5-0.49c0.14-0.51 1.91-3.49 1.46-3.78-0.32-0.21-0.82-0.47-0.96-0.85-0.08-0.21-0.05-0.73-0.24-0.87-0.59-0.44-0.69 1.15-0.75 1.5-0.42-0.07-0.83-0.18-1.25-0.25 0 0.82 0.44 1.57 0.69 2.33 0.22 0.68 0.41 1.51 1.05 1.92m-9-2.01c-0.95-0.41-2.02-1.31-2.67-2.11-0.45-0.55-2.09-2.7-0.77-3.16 0.98-0.34 2.39 1.39 2.8 2.06 0.52 0.82 1.37 2.29 0.64 3.21m17.25-0.47c-0.69-0.94-0.77-2.3-0.7-3.43 0.02-0.31 0.08-0.57 0.16-0.87 0.09-0.36 0.39-0.17 0.65-0.09 1.17 0.36 2.81 0.99 3.36 2.18 0.2 0.42 0.3 1.46-0.46 1.29-0.24-0.05-1.57-0.63-1.74-0.45-0.41 0.43-0.75 1.06-1.27 1.37m-16.24-5.28c-0.82 0.2-1.5 0.24-2.34 0.15-0.35-0.03-1.94-0.53-1.44-1.17 0.43-0.55 1.4-0.75 2.12-0.55 0.8 0.23 1.63 0.62 1.66 1.57m14.25-0.22c-0.57-1.07-0.68-2.06-0.74-3.25 1.31 0.21 2.46 1.4 3.14 2.48 0.28 0.45 0.54 1.31-0.35 0.92-0.68-0.31-1.34-0.25-2.05-0.15m-25.74-1.8c1.64-0.39 2.93 0.05 4.5 0.51-0.53-0.9-1.6-1.52-2.24-2.39-0.56-0.75-1.02-1.92-1-2.87 1.06-0.12 2.21 0.99 2.78 1.78 0.75 1.04 1.47 1.86 1.04 3.17-0.42 1.28-1.08 1.69-2.4 1.49-0.93-0.14-2.69-0.45-2.68-1.69m14.38 1.28c0.25-0.42 0.4-0.62 0.28-1.1-0.16-0.66-0.29-0.56-0.96-0.67-0.43-0.07-0.3 0.92-0.27 1.09 0.07 0.38 0.51 0.9 0.95 0.68m-8.64 0.23c0-0.29 0-1.25 0.57-0.68 0.37 0.36-0.24 0.54-0.57 0.68m10.51-2.73c0.2-1.07-1.42-0.6-2-0.5 0.01-0.6 0.01-1.19 0.18-1.77 0.14-0.5 0.39-1.05 0.33-1.58-0.07-0.57 0.02-0.2-0.39-0.42-0.6-0.33-1.18-1.1-1.85-1.23 0.05 0.73-0.23 1.41-0.81 1.85-0.52 0.4 0.56 1.71 0.82 2.11 0.49 0.76 0.76 1.3 1.58 1.71 0.67 0.34 1.53 0.24 2.14-0.17m-22.5-1.04c0.29-0.93 0.55-1.18 1.45-0.77 0.45 0.21 0.91 1.28 0.8 1.77-0.85-0.12-1.54-0.57-2.25-1m30-0.95c-0.31-0.25-0.49-0.6-0.5-1 0.31 0.26 0.77 0.57 0.5 1m-15.22-14.02c2.25 0.9 1.14 3.79 0.78 5.57-0.25 1.2-0.56 2.39-0.77 3.6-0.15 0.91-0.25 2.01-0.87 2.75-0.14 0.17-0.53 0.02-0.73 0-0.37-0.05-0.33-0.09-0.49-0.45-0.3-0.7 0.21-1.7 0.37-2.38 0.23-0.97 0.42-1.94 0.61-2.92 0.39-2.06 0.59-4.14 1.1-6.17m0.48 11c0.01-1.43 0.52-2.79 0.83-4.16 0.36-1.6 0.65-3.22 0.94-4.84 1.29 0.25 2.26 1.4 3.2 2.23 1.07 0.94 2.37 1.73 3.05 3.03-1.38 0.68-2.96 0.8-4.27 1.64-1.19 0.76-2.34 1.83-3.75 2.1m-12.75-0.03c0.06-0.13 0.35-0.91 0.57-0.68 0.38 0.39-0.11 0.78-0.57 0.68m2-3.49c0.39-0.84 1.29-2.78 2.26-3 0 0.9-0.18 1.77-0.34 2.65-0.12 0.62 0 0.89-0.66 0.81-0.44-0.05-0.9-0.21-1.26-0.46"/>
  </g>
 </defs>
 <g id="jack_heart" transform="translate(-1674.7 -485.98)">
  <use id="use8562" xlink:href="#base" height="1216.1899" width="2178.99" y="486.27499" x="1675.75"/>
  <g id="g8564" stroke="#000" fill="none">
   <path id="path8566" d="m1684.9 311.16v177.39"/>
   <path id="path8568" d="m1684.9 488.54h131.15"/>
   <path id="path8570" d="m1834.2 432.24v-177.64"/>
   <path id="path8572" d="m1834.2 254.61h-131.15"/>
  </g>
  <g id="g8574">
   <use id="use8576" xlink:href="#heart" transform="matrix(-2.4 0 0 -2.4 3423.7 563.31)" height="1216.1899" width="2178.99" y="117.357" x="713.26398"/>
   <rect id="rect8578" height="37.968" width="9.6926" y="262.67" x="1693.3" fill="#fff"/>
  </g>
  <g id="g8580">
   <use id="use8582" xlink:href="#heart" transform="scale(2.4)" height="1216.1899" width="2178.99" y="192.34" x="753.01703"/>
   <rect id="rect8584" height="37.968" width="9.6926" y="442.63" x="1816.5" fill="#fff"/>
  </g>
  <g id="g8586" transform="matrix(.99951 -.031411 .031411 .99951 -10.803 55.452)">
   <line id="line8588" stroke-width="7.25" x1="1719" y1="430.42" stroke="#000" x2="1800.1" y2="312.74"/>
   <circle id="circle8590" d="m 1723.6,427.358 c 0,1.21503 -0.9849,2.2 -2.2,2.2 -1.215,0 -2.2,-0.98497 -2.2,-2.2 0,-1.21502 0.985,-2.2 2.2,-2.2 1.2151,0 2.2,0.98498 2.2,2.2 z" cx="1721.4" cy="427.36" r="2.2" fill="#fff"/>
   <circle id="circle8592" d="m 1722.1,427.358 c 0,0.3866 -0.3134,0.7 -0.7,0.7 -0.3866,0 -0.7,-0.3134 -0.7,-0.7 0,-0.3866 0.3134,-0.7 0.7,-0.7 0.3866,0 0.7,0.3134 0.7,0.7 z" cx="1721.4" cy="427.36" r="0.7"/>
   <circle id="circle8594" d="m 1726.93,422.52301 c 0,1.21503 -0.985,2.2 -2.2,2.2 -1.215,0 -2.2,-0.98497 -2.2,-2.2 0,-1.21503 0.985,-2.2 2.2,-2.2 1.215,0 2.2,0.98497 2.2,2.2 z" cx="1724.7" cy="422.52" r="2.2" fill="#fff"/>
   <circle id="circle8596" d="m 1725.43,422.52301 c 0,0.3866 -0.3134,0.7 -0.7,0.7 -0.3866,0 -0.7,-0.3134 -0.7,-0.7 0,-0.3866 0.3134,-0.7 0.7,-0.7 0.3866,0 0.7,0.3134 0.7,0.7 z" cx="1724.7" cy="422.52" r="0.7"/>
   <circle id="circle8598" d="m 1730.2699,417.689 c 0,1.21502 -0.9849,2.2 -2.2,2.2 -1.215,0 -2.2,-0.98498 -2.2,-2.2 0,-1.21503 0.985,-2.2 2.2,-2.2 1.2151,0 2.2,0.98497 2.2,2.2 z" cx="1728.1" cy="417.69" r="2.2" fill="#fff"/>
   <circle id="circle8600" d="m 1728.7699,417.689 c 0,0.38659 -0.3134,0.7 -0.7,0.7 -0.3866,0 -0.7,-0.31341 -0.7,-0.7 0,-0.3866 0.3134,-0.7 0.7,-0.7 0.3866,0 0.7,0.3134 0.7,0.7 z" cx="1728.1" cy="417.69" r="0.7"/>
   <circle id="circle8602" d="m 1733.6,412.854 c 0,1.21503 -0.9849,2.2 -2.2,2.2 -1.215,0 -2.2,-0.98497 -2.2,-2.2 0,-1.21502 0.985,-2.2 2.2,-2.2 1.2151,0 2.2,0.98498 2.2,2.2 z" cx="1731.4" cy="412.85" r="2.2" fill="#fff"/>
   <circle id="circle8604" d="m 1732.1,412.854 c 0,0.3866 -0.3134,0.7 -0.7,0.7 -0.3866,0 -0.7,-0.3134 -0.7,-0.7 0,-0.3866 0.3134,-0.7 0.7,-0.7 0.3866,0 0.7,0.3134 0.7,0.7 z" cx="1731.4" cy="412.85" r="0.7"/>
   <circle id="circle8606" d="m 1736.93,408.01901 c 0,1.21503 -0.985,2.2 -2.2,2.2 -1.215,0 -2.2,-0.98497 -2.2,-2.2 0,-1.21502 0.985,-2.2 2.2,-2.2 1.215,0 2.2,0.98498 2.2,2.2 z" cx="1734.7" cy="408.02" r="2.2" fill="#fff"/>
   <circle id="circle8608" d="m 1735.43,408.01901 c 0,0.3866 -0.3134,0.7 -0.7,0.7 -0.3866,0 -0.7,-0.3134 -0.7,-0.7 0,-0.3866 0.3134,-0.7 0.7,-0.7 0.3866,0 0.7,0.3134 0.7,0.7 z" cx="1734.7" cy="408.02" r="0.7"/>
   <circle id="circle8610" d="m 1740.2601,403.18399 c 0,1.21503 -0.985,2.2 -2.2,2.2 -1.2151,0 -2.2,-0.98497 -2.2,-2.2 0,-1.21503 0.9849,-2.2 2.2,-2.2 1.215,0 2.2,0.98497 2.2,2.2 z" cx="1738.1" cy="403.18" r="2.2" fill="#fff"/>
   <circle id="circle8612" d="m 1738.7601,403.18399 c 0,0.3866 -0.3134,0.7 -0.7,0.7 -0.3866,0 -0.7,-0.3134 -0.7,-0.7 0,-0.3866 0.3134,-0.7 0.7,-0.7 0.3866,0 0.7,0.3134 0.7,0.7 z" cx="1738.1" cy="403.18" r="0.7"/>
   <circle id="circle8614" d="m 1743.6,398.35001 c 0,1.21502 -0.9849,2.2 -2.2,2.2 -1.215,0 -2.2,-0.98498 -2.2,-2.2 0,-1.21503 0.985,-2.2 2.2,-2.2 1.2151,0 2.2,0.98497 2.2,2.2 z" cx="1741.4" cy="398.35" r="2.2" fill="#fff"/>
   <circle id="circle8616" d="m 1742.1,398.35001 c 0,0.3866 -0.3134,0.7 -0.7,0.7 -0.3866,0 -0.7,-0.3134 -0.7,-0.7 0,-0.3866 0.3134,-0.7 0.7,-0.7 0.3866,0 0.7,0.3134 0.7,0.7 z" cx="1741.4" cy="398.35" r="0.7"/>
   <circle id="circle8618" d="m 1746.93,393.51501 c 0,1.21503 -0.985,2.2 -2.2,2.2 -1.215,0 -2.2,-0.98497 -2.2,-2.2 0,-1.21502 0.985,-2.2 2.2,-2.2 1.215,0 2.2,0.98498 2.2,2.2 z" cx="1744.7" cy="393.52" r="2.2" fill="#fff"/>
   <circle id="circle8620" d="m 1745.43,393.51501 c 0,0.3866 -0.3134,0.7 -0.7,0.7 -0.3866,0 -0.7,-0.3134 -0.7,-0.7 0,-0.38659 0.3134,-0.7 0.7,-0.7 0.3866,0 0.7,0.31341 0.7,0.7 z" cx="1744.7" cy="393.52" r="0.7"/>
   <circle id="circle8622" d="m 1750.2601,388.67999 c 0,1.21503 -0.985,2.2 -2.2,2.2 -1.2151,0 -2.2,-0.98497 -2.2,-2.2 0,-1.21502 0.9849,-2.2 2.2,-2.2 1.215,0 2.2,0.98498 2.2,2.2 z" cx="1748.1" cy="388.68" r="2.2" fill="#fff"/>
   <circle id="circle8624" d="m 1748.7601,388.67999 c 0,0.3866 -0.3134,0.7 -0.7,0.7 -0.3866,0 -0.7,-0.3134 -0.7,-0.7 0,-0.3866 0.3134,-0.7 0.7,-0.7 0.3866,0 0.7,0.3134 0.7,0.7 z" cx="1748.1" cy="388.68" r="0.7"/>
   <circle id="circle8626" d="m 1753.59,383.845 c 0,1.21503 -0.985,2.2 -2.2,2.2 -1.215,0 -2.2,-0.98497 -2.2,-2.2 0,-1.21503 0.985,-2.2 2.2,-2.2 1.215,0 2.2,0.98497 2.2,2.2 z" cx="1751.4" cy="383.84" r="2.2" fill="#fff"/>
   <circle id="circle8628" d="m 1752.09,383.845 c 0,0.3866 -0.3134,0.7 -0.7,0.7 -0.3866,0 -0.7,-0.3134 -0.7,-0.7 0,-0.3866 0.3134,-0.7 0.7,-0.7 0.3866,0 0.7,0.3134 0.7,0.7 z" cx="1751.4" cy="383.84" r="0.7"/>
   <circle id="circle8630" d="m 1756.92,379.01099 c 0,1.21502 -0.985,2.2 -2.2,2.2 -1.2151,0 -2.2,-0.98498 -2.2,-2.2 0,-1.21503 0.9849,-2.2 2.2,-2.2 1.215,0 2.2,0.98497 2.2,2.2 z" cx="1754.7" cy="379.01" r="2.2" fill="#fff"/>
   <circle id="circle8632" d="m 1755.42,379.01099 c 0,0.3866 -0.3134,0.7 -0.7,0.7 -0.3866,0 -0.7,-0.3134 -0.7,-0.7 0,-0.3866 0.3134,-0.7 0.7,-0.7 0.3866,0 0.7,0.3134 0.7,0.7 z" cx="1754.7" cy="379.01" r="0.7"/>
   <circle id="circle8634" d="m 1760.2601,374.17599 c 0,1.21503 -0.985,2.2 -2.2,2.2 -1.2151,0 -2.2,-0.98497 -2.2,-2.2 0,-1.21502 0.9849,-2.2 2.2,-2.2 1.215,0 2.2,0.98498 2.2,2.2 z" cx="1758.1" cy="374.18" r="2.2" fill="#fff"/>
   <circle id="circle8636" d="m 1758.7601,374.17599 c 0,0.3866 -0.3134,0.7 -0.7,0.7 -0.3866,0 -0.7,-0.3134 -0.7,-0.7 0,-0.38659 0.3134,-0.7 0.7,-0.7 0.3866,0 0.7,0.31341 0.7,0.7 z" cx="1758.1" cy="374.18" r="0.7"/>
   <circle id="circle8638" d="m 1763.59,369.341 c 0,1.21503 -0.985,2.2 -2.2,2.2 -1.215,0 -2.2,-0.98497 -2.2,-2.2 0,-1.21502 0.985,-2.2 2.2,-2.2 1.215,0 2.2,0.98498 2.2,2.2 z" cx="1761.4" cy="369.34" r="2.2" fill="#fff"/>
   <circle id="circle8640" d="m 1762.09,369.341 c 0,0.3866 -0.3134,0.7 -0.7,0.7 -0.3866,0 -0.7,-0.3134 -0.7,-0.7 0,-0.3866 0.3134,-0.7 0.7,-0.7 0.3866,0 0.7,0.3134 0.7,0.7 z" cx="1761.4" cy="369.34" r="0.7"/>
   <circle id="circle8642" d="m 1766.92,364.50601 c 0,1.21503 -0.985,2.2 -2.2,2.2 -1.2151,0 -2.2,-0.98497 -2.2,-2.2 0,-1.21502 0.9849,-2.2 2.2,-2.2 1.215,0 2.2,0.98498 2.2,2.2 z" cx="1764.7" cy="364.51" r="2.2" fill="#fff"/>
   <circle id="circle8644" d="m 1765.42,364.50601 c 0,0.3866 -0.3134,0.7 -0.7,0.7 -0.3866,0 -0.7,-0.3134 -0.7,-0.7 0,-0.3866 0.3134,-0.7 0.7,-0.7 0.3866,0 0.7,0.3134 0.7,0.7 z" cx="1764.7" cy="364.51" r="0.7"/>
   <circle id="circle8646" d="m 1770.25,359.672 c 0,1.21502 -0.9849,2.2 -2.2,2.2 -1.215,0 -2.2,-0.98498 -2.2,-2.2 0,-1.21503 0.985,-2.2 2.2,-2.2 1.2151,0 2.2,0.98497 2.2,2.2 z" cx="1768" cy="359.67" r="2.2" fill="#fff"/>
   <circle id="circle8648" d="m 1768.75,359.672 c 0,0.3866 -0.3134,0.7 -0.7,0.7 -0.3866,0 -0.7,-0.3134 -0.7,-0.7 0,-0.3866 0.3134,-0.7 0.7,-0.7 0.3866,0 0.7,0.3134 0.7,0.7 z" cx="1768" cy="359.67" r="0.7"/>
   <circle id="circle8650" d="m 1773.59,354.83701 c 0,1.21502 -0.985,2.2 -2.2,2.2 -1.215,0 -2.2,-0.98498 -2.2,-2.2 0,-1.21503 0.985,-2.2 2.2,-2.2 1.215,0 2.2,0.98497 2.2,2.2 z" cx="1771.4" cy="354.84" r="2.2" fill="#fff"/>
   <circle id="circle8652" d="m 1772.09,354.83701 c 0,0.38659 -0.3134,0.7 -0.7,0.7 -0.3866,0 -0.7,-0.31341 -0.7,-0.7 0,-0.3866 0.3134,-0.7 0.7,-0.7 0.3866,0 0.7,0.3134 0.7,0.7 z" cx="1771.4" cy="354.84" r="0.7"/>
   <circle id="circle8654" d="m 1776.92,350.00201 c 0,1.21503 -0.985,2.2 -2.2,2.2 -1.2151,0 -2.2,-0.98497 -2.2,-2.2 0,-1.21502 0.9849,-2.2 2.2,-2.2 1.215,0 2.2,0.98498 2.2,2.2 z" cx="1774.7" cy="350" r="2.2" fill="#fff"/>
   <circle id="circle8656" d="m 1775.42,350.00201 c 0,0.3866 -0.3134,0.7 -0.7,0.7 -0.3866,0 -0.7,-0.3134 -0.7,-0.7 0,-0.3866 0.3134,-0.7 0.7,-0.7 0.3866,0 0.7,0.3134 0.7,0.7 z" cx="1774.7" cy="350" r="0.7"/>
   <circle id="circle8658" d="m 1780.25,345.16699 c 0,1.21503 -0.9849,2.2 -2.2,2.2 -1.215,0 -2.2,-0.98497 -2.2,-2.2 0,-1.21502 0.985,-2.2 2.2,-2.2 1.2151,0 2.2,0.98498 2.2,2.2 z" cx="1778" cy="345.17" r="2.2" fill="#fff"/>
   <circle id="circle8660" d="m 1778.75,345.16699 c 0,0.3866 -0.3134,0.7 -0.7,0.7 -0.3866,0 -0.7,-0.3134 -0.7,-0.7 0,-0.3866 0.3134,-0.7 0.7,-0.7 0.3866,0 0.7,0.3134 0.7,0.7 z" cx="1778" cy="345.17" r="0.7"/>
   <circle id="circle8662" d="m 1783.58,340.33301 c 0,1.21502 -0.985,2.2 -2.2,2.2 -1.215,0 -2.2,-0.98498 -2.2,-2.2 0,-1.21503 0.985,-2.2 2.2,-2.2 1.215,0 2.2,0.98497 2.2,2.2 z" cx="1781.4" cy="340.33" r="2.2" fill="#fff"/>
   <circle id="circle8664" d="m 1782.08,340.33301 c 0,0.3866 -0.3134,0.7 -0.7,0.7 -0.3866,0 -0.7,-0.3134 -0.7,-0.7 0,-0.3866 0.3134,-0.7 0.7,-0.7 0.3866,0 0.7,0.3134 0.7,0.7 z" cx="1781.4" cy="340.33" r="0.7"/>
   <circle id="circle8666" d="m 1786.91,335.49799 c 0,1.21502 -0.985,2.2 -2.2,2.2 -1.2151,0 -2.2,-0.98498 -2.2,-2.2 0,-1.21503 0.9849,-2.2 2.2,-2.2 1.215,0 2.2,0.98497 2.2,2.2 z" cx="1784.7" cy="335.5" r="2.2" fill="#fff"/>
   <circle id="circle8668" d="m 1785.41,335.49799 c 0,0.3866 -0.3134,0.7 -0.7,0.7 -0.3866,0 -0.7,-0.3134 -0.7,-0.7 0,-0.3866 0.3134,-0.7 0.7,-0.7 0.3866,0 0.7,0.3134 0.7,0.7 z" cx="1784.7" cy="335.5" r="0.7"/>
   <circle id="circle8670" d="m 1790.25,330.66299 c 0,1.21503 -0.9849,2.2 -2.2,2.2 -1.215,0 -2.2,-0.98497 -2.2,-2.2 0,-1.21502 0.985,-2.2 2.2,-2.2 1.2151,0 2.2,0.98498 2.2,2.2 z" cx="1788" cy="330.66" r="2.2" fill="#fff"/>
   <circle id="circle8672" d="m 1788.75,330.66299 c 0,0.3866 -0.3134,0.7 -0.7,0.7 -0.3866,0 -0.7,-0.3134 -0.7,-0.7 0,-0.38659 0.3134,-0.7 0.7,-0.7 0.3866,0 0.7,0.31341 0.7,0.7 z" cx="1788" cy="330.66" r="0.7"/>
   <circle id="circle8674" d="m 1793.58,325.828 c 0,1.21503 -0.985,2.2 -2.2,2.2 -1.215,0 -2.2,-0.98497 -2.2,-2.2 0,-1.21502 0.985,-2.2 2.2,-2.2 1.215,0 2.2,0.98498 2.2,2.2 z" cx="1791.4" cy="325.83" r="2.2" fill="#fff"/>
   <circle id="circle8676" d="m 1792.08,325.828 c 0,0.3866 -0.3134,0.7 -0.7,0.7 -0.3866,0 -0.7,-0.3134 -0.7,-0.7 0,-0.3866 0.3134,-0.7 0.7,-0.7 0.3866,0 0.7,0.3134 0.7,0.7 z" cx="1791.4" cy="325.83" r="0.7"/>
   <circle id="circle8678" d="m 1796.91,320.99399 c 0,1.21502 -0.985,2.2 -2.2,2.2 -1.2151,0 -2.2,-0.98498 -2.2,-2.2 0,-1.21503 0.9849,-2.2 2.2,-2.2 1.215,0 2.2,0.98497 2.2,2.2 z" cx="1794.7" cy="320.99" r="2.2" fill="#fff"/>
   <circle id="circle8680" d="m 1795.41,320.99399 c 0,0.3866 -0.3134,0.7 -0.7,0.7 -0.3866,0 -0.7,-0.3134 -0.7,-0.7 0,-0.3866 0.3134,-0.7 0.7,-0.7 0.3866,0 0.7,0.3134 0.7,0.7 z" cx="1794.7" cy="320.99" r="0.7"/>
   <circle id="circle8682" d="m 1800.24,316.159 c 0,1.21502 -0.9849,2.2 -2.2,2.2 -1.215,0 -2.2,-0.98498 -2.2,-2.2 0,-1.21503 0.985,-2.2 2.2,-2.2 1.2151,0 2.2,0.98497 2.2,2.2 z" cx="1798" cy="316.16" r="2.2" fill="#fff"/>
   <circle id="circle8684" d="m 1798.74,316.159 c 0,0.3866 -0.3134,0.7 -0.7,0.7 -0.3866,0 -0.7,-0.3134 -0.7,-0.7 0,-0.3866 0.3134,-0.7 0.7,-0.7 0.3866,0 0.7,0.3134 0.7,0.7 z" cx="1798" cy="316.16" r="0.7"/>
  </g>
  <use id="use8686" xlink:href="#jack" height="1216.1899" width="2178.99" y="282.927" x="1684.78" fill="#e6180a"/>
  <use id="use8688" xlink:href="#jack" transform="matrix(-1,0,0,-1,3668.6,920.45)" height="1216.1899" width="2178.99" y="460.22501" x="1834.3" fill="#e6180a"/>
  <use id="use8690" xlink:href="#heart" transform="matrix(-1 0 0 -1 3378.8 602.31)" height="1216.1899" width="2178.99" y="301.15701" x="1689.4"/>
  <use id="use8692" xlink:href="#heart" height="1216.1899" width="2178.99" y="441.995" x="1829.67"/>
  <use id="use1589" xlink:href="#jack_2" transform="matrix(0.99 0 0 .99 1451.7 301.83)" height="1215.6875" width="2178.4751" y="0" x="0"/>
  <use id="use1590" xlink:href="#jack_2" transform="matrix(-.99 -.00020431 .00020431 -.99 2067.3 441.42)" height="1215.6875" width="2178.4751" y="0" x="0"/>
 </g>
</svg>
