<?xml version="1.0" encoding="UTF-8" standalone="no"?>
<svg id="svg6414" xmlns:rdf="http://www.w3.org/1999/02/22-rdf-syntax-ns#" xmlns="http://www.w3.org/2000/svg" height="244.55" width="169.01" version="1.1" xmlns:cc="http://creativecommons.org/ns#" xmlns:xlink="http://www.w3.org/1999/xlink" viewBox="-0.2 -236 169.075 244.54907" xmlns:dc="http://purl.org/dc/elements/1.1/">
 <metadata id="metadata9787">
  <rdf:RDF>
   <cc:Work rdf:about="">
    <dc:format>image/svg+xml</dc:format>
    <dc:type rdf:resource="http://purl.org/dc/dcmitype/StillImage"/>
    <dc:title/>
   </cc:Work>
  </rdf:RDF>
 </metadata>
<!-- SVG-cards 2.0.1								--><!-- This set of SVG files is a complete cards game with figures, numbers	--><!--	and backs of cards completely designed in SVG.				--><!--										--><!--	Copyright (C) 2005 David Bellot						--><!--										--><!--	This library is free software; you can redistribute it and/or		--><!--	modify it under the terms of the GNU Lesser General Public		--><!--	License as published by the Free Software Foundation; either		--><!--	version 2 of the License, or (at your option) any later version		--><!--										--><!--	This library is distributed in the hope that it will be useful,		--><!--	but WITHOUT ANY WARRANTY; without even the implied warranty of		--><!--	MERCHANTABILITY or FITNESS FOR A PARTICULAR PURPOSE.  See the GNU	--><!--	Lesser General Public License for more details.				--><!--										--><!--	You should have received a copy of the GNU Lesser General Public	--><!--	License along with this library; if not, write to the Free Software	--><!--	Foundation, Inc., 59 Temple Place, Suite 330, Boston, MA 02111-1307  USA--><!--                                                                            --><!--	Contact the author David Bellot at david.bellot@free.fr			-->
 <defs id="defs6416">
  <g id="n_10">
   <text id="text6419" font-size="43px" font-weight="bold" transform="scale(.32258 1.0574)">10</text>
  </g>
  <g id="base">
   <path id="path6461" d="m0 0c0 3.78 3.09 6.87 6.87 6.87h152.84c3.77 0 6.86-3.09 6.86-6.87v-228.4c0-3.78-3.09-6.87-6.86-6.87h-152.84c-3.78 0-6.87 3.09-6.87 6.87v228.4z" stroke="#000" stroke-width="2.5" fill="#fff"/>
  </g>
  <g id="heart">
   <path id="path6482" fill="#e6180a" d="m-7.67 3.93c0.01-4.71 5.91-8.14 7.64-11.87 1.75 3.72 7.66 7.12 7.7 11.83 0.01 2.22-1.71 4.03-3.82 4.03-2.12 0-3.85-1.79-3.85-4.01 0 2.23-1.71 4.03-3.82 4.03-2.12 0.01-3.84-1.79-3.85-4.01z"/>
  </g>
 </defs>
 <g id="10_heart" transform="translate(-1507.1 -485.98)">
  <use id="use8531" xlink:href="#base" height="1216.1899" width="2178.99" y="486.27499" x="1508.17"/>
  <use id="use8533" xlink:href="#n_10" height="1216.1899" width="2178.99" y="287.15701" x="1512.17" fill="#e6180a"/>
  <use id="use8535" xlink:href="#n_10" transform="matrix(-1,0,0,-1,3343.5,911.99)" height="1216.1899" width="2178.99" y="455.995" x="1671.75" fill="#e6180a"/>
  <use id="use8537" xlink:href="#heart" transform="matrix(-1 0 0 -1 3043.7 602.31)" height="1216.1899" width="2178.99" y="301.15701" x="1521.83"/>
  <use id="use8539" xlink:href="#heart" height="1216.1899" width="2178.99" y="441.995" x="1662.1"/>
  <use id="use8541" xlink:href="#heart" transform="matrix(-2.4 0 0 -2.4 3104.1 575.53)" height="1216.1899" width="2178.99" y="119.902" x="646.68103"/>
  <use id="use8543" xlink:href="#heart" transform="matrix(-2.4 0 0 -2.4 3104.1 683.84)" height="1216.1899" width="2178.99" y="142.467" x="646.68103"/>
  <use id="use8545" xlink:href="#heart" transform="scale(2.4)" height="1216.1899" width="2178.99" y="165.451" x="646.68103"/>
  <use id="use8547" xlink:href="#heart" transform="scale(2.4)" height="1216.1899" width="2178.99" y="188.01601" x="646.68103"/>
  <use id="use8549" xlink:href="#heart" transform="matrix(-2.4 0 0 -2.4 3263.8 575.53)" height="1216.1899" width="2178.99" y="119.902" x="679.95502"/>
  <use id="use8551" xlink:href="#heart" transform="matrix(-2.4 0 0 -2.4 3263.8 683.84)" height="1216.1899" width="2178.99" y="142.467" x="679.95502"/>
  <use id="use8553" xlink:href="#heart" transform="scale(2.4)" height="1216.1899" width="2178.99" y="165.451" x="679.95502"/>
  <use id="use8555" xlink:href="#heart" transform="scale(2.4)" height="1216.1899" width="2178.99" y="188.01601" x="679.95502"/>
  <use id="use8557" xlink:href="#heart" transform="matrix(-2.4 0 0 -2.4 3183.9 629.69)" height="1216.1899" width="2178.99" y="131.185" x="663.31799"/>
  <use id="use8559" xlink:href="#heart" transform="scale(2.4)" height="1216.1899" width="2178.99" y="176.733" x="663.31799"/>
 </g>
</svg>
