<?xml version="1.0" encoding="UTF-8" standalone="no"?>
<!-- Created with Inkscape (http://www.inkscape.org/) -->

<svg
   xmlns:dc="http://purl.org/dc/elements/1.1/"
   xmlns:cc="http://creativecommons.org/ns#"
   xmlns:rdf="http://www.w3.org/1999/02/22-rdf-syntax-ns#"
   xmlns:svg="http://www.w3.org/2000/svg"
   xmlns="http://www.w3.org/2000/svg"
   xmlns:xlink="http://www.w3.org/1999/xlink"
   version="1.1"
   width="169.01215"
   height="244.54906"
   viewBox="-0.2 -236 169.075 244.54907"
   id="svg2">
  <metadata
     id="metadata419">
    <rdf:RDF>
      <cc:Work
         rdf:about="">
        <dc:format>image/svg+xml</dc:format>
        <dc:type
           rdf:resource="http://purl.org/dc/dcmitype/StillImage" />
        <dc:title></dc:title>
      </cc:Work>
    </rdf:RDF>
  </metadata>
  <defs
     id="defs4">
    <g
       id="base">
      <path
         d="m 0,0 c 0,3.78 3.09,6.87 6.87,6.87 l 152.845,0 c 3.77,0 6.86,-3.09 6.86,-6.87 l 0,-228.4 c 0,-3.78 -3.09,-6.87 -6.86,-6.87 l -152.845,0 c -3.78,0 -6.87,3.09 -6.87,6.87 L 0,0 z"
         id="path49"
         style="fill:#ffffff;stroke:#000000;stroke-width:2.5" />
    </g>
    <g
       transform="matrix(1,0,0,0.95,-190.33,54.46)"
       id="lace"
       style="fill:none;stroke:#ffffff;stroke-width:0.32088342;stroke-miterlimit:40;stroke-opacity:1;stroke-dasharray:none">
      <path
         d="m 543.24004,746.17 c -1.00959,1.66304 -0.49364,3.68202 0.15,5.43 1.25654,3.41251 2.71504,6.75059 4.02,10.15 0.69553,1.81186 0.12863,3.68622 -1.01,5.15446 -1.41045,1.7617 -2.83514,3.03998 -5.75,4.04554 1.55,-1.03 3.078,-2.16731 4.24,-3.63 1.11844,-1.40787 1.70206,-3.00239 1.08,-4.77 -1.20829,-3.43339 -2.72117,-6.76198 -4,-10.17 -0.66124,-1.76217 -1.14,-3.76 -0.26,-5.54 0.8,-1.29 2.37,-2.25 3.86,-2.45 -0.39037,0.24768 -1.88295,1.04361 -2.33,1.78 z"
         id="path638"
         style="fill:none;stroke:#ffffff;stroke-width:0.32088342;stroke-linecap:butt;stroke-linejoin:miter;stroke-miterlimit:40;stroke-opacity:1;stroke-dasharray:none" />
      <path
         d="m 544.6,774.8 c 1.01928,-1.65713 0.46,-3.67 -0.15,-5.43 -1.29,-3.4 -2.77,-6.73 -4.02,-10.15 -0.75,-1.79 -0.29844,-3.614 0.87737,-5.05263 1.17601,-1.43889 2.96788,-3.04238 5.88263,-4.14737 -1.05353,0.93217 -3.05,2.19 -4.24,3.63 -1.09,1.43 -1.70206,3.00239 -1.08,4.77 1.20829,3.43339 2.72117,6.76198 4,10.17 0.66124,1.76217 1.14,3.76 0.26,5.54 -0.8,1.29 -2.37,2.25 -3.86,2.45 0.91374,-0.6459 1.93244,-1.13365 2.33,-1.78 z"
         id="path640"
         style="fill:none;stroke:#ffffff;stroke-width:0.32088342;stroke-linecap:butt;stroke-linejoin:miter;stroke-miterlimit:40;stroke-opacity:1;stroke-dasharray:none" />
    </g>
    <g
       transform="matrix(0.4,0,0,0.4,236.59,667.12)"
       id="lys"
       style="fill:#ffffff;fill-opacity:1;stroke:none">
      <path
         d="m 355.65,280.19 c 0,0 -3.75,-8.1 -8.1,-12.6 -4.36,-4.51 -9.68,-7.58 -11.04,-6.53"
         transform="translate(-1.35,-0.76)"
         id="lys_1"
         style="fill:#ffffff;fill-opacity:1;fill-rule:evenodd;stroke:none" />
      <path
         d="m 368.97,258.94 c -2.29,0.08 -5.9,1.92 -7.85,3.87 -2.59,2.6 -3.52,7.58 -3.59,9.44 -0.07,1.86 -1.32,-0.84 -2.19,-2.37 -0.86,-1.54 -1.93,-5.4 -2.22,-3.22 -0.28,2.2 -0.34,3.26 0.07,5.72 0.4,2.45 1.59,7.15 2.56,8.68 l 3.97,3.94 c 1.87,-1.88 3.1,-6.25 3.19,-6.25 l -0.07,9.34 4.35,4.32 c -1.16,-2.37 -1.94,-6.58 -1.63,-10.38 0.32,-3.8 2.3,-8.59 2.06,-10.44 -1.14,-0.4 -2.9,2.58 -5.21,1.88 -0.08,-1.75 0.74,-6.02 1.9,-7.69 1.17,-1.66 4.43,-5.7 6.41,-6.28 -0.36,-0.42 -0.99,-0.59 -1.75,-0.56 z"
         id="lys_2"
         style="fill:#ffffff;fill-opacity:1;fill-rule:evenodd;stroke:none" />
      <path
         d="m 329.36,254.28 c 9.62,-4.95 19.64,8.3 19.64,8.3 0,0 1.44,-9.25 3.32,-9.36 1.88,-0.11 4.87,7.31 4.87,7.31 0,0 5.76,-7.64 15.72,-7.58 9.97,0.05 11.57,9.13 5.87,9.57 -5.66,0.44 -2.38,-5.15 -2.27,-3.65 0.06,0.17 -5.37,-7.75 -19.15,7.86 -2.03,2.3 -3.94,-8.46 -4.93,-6.09 -1.21,2.88 -0.22,6.26 -1.11,8.53 1.39,1.71 -11.35,-13.84 -16.77,-9.58"
         transform="translate(-1.35,-0.76)"
         id="lys_3"
         style="fill:#ffffff;fill-opacity:1;fill-rule:evenodd;stroke:none" />
      <use
         transform="matrix(0,1,1,0,74.5,-74.49)"
         id="use646"
         style="fill:#ffffff;fill-opacity:1;stroke:none"
         x="0"
         y="0"
         width="2178.99"
         height="1216.1899"
         xlink:href="#lys_3" />
      <use
         transform="matrix(0,1,1,0,74.9,-74.93)"
         id="use648"
         style="fill:#ffffff;fill-opacity:1;stroke:none"
         x="0"
         y="0"
         width="2178.99"
         height="1216.1899"
         xlink:href="#lys_1" />
      <use
         transform="matrix(0,1,1,0,74.82,-74.82)"
         id="use650"
         style="fill:#ffffff;fill-opacity:1;stroke:none"
         x="0"
         y="0"
         width="2178.99"
         height="1216.1899"
         xlink:href="#lys_2" />
    </g>
    <g
       transform="matrix(0.3394,0.3394,-0.3394,0.3394,444.557,315.274)"
       id="twist"
       style="fill:none;stroke:#ffffff;stroke-width:1.25100005;stroke-linecap:round;stroke-linejoin:round;stroke-miterlimit:4;stroke-opacity:1;stroke-dasharray:none">
      <path
         d="m 508.992,779.917 c -2.054,-1.516 -2.26,-4.512 -0.747,-6.48 1.827,-2.375 5.344,-2.595 7.638,-0.777 2.696,2.137 2.93,6.176 0.807,8.795 -2.447,3.018 -7.009,3.265 -9.953,0.837 -3.34,-2.755 -3.601,-7.842 -0.866,-11.11 2.394,-2.862 6.495,-3.76 9.915,-2.335"
         transform="matrix(0.7518,0.3005,-0.3107,0.7774,372.862,20.8342)"
         id="path653"
         style="fill:none;stroke:#ffffff;stroke-width:1.25100005;stroke-miterlimit:4;stroke-opacity:1;stroke-dasharray:none" />
      <path
         d="m 507.265,776.876 c -0.309,-2.765 1.915,-5.165 4.616,-5.421 3.211,-0.304 5.98,2.289 6.239,5.435 0.3,3.658 -2.663,6.796 -6.255,7.057 -4.104,0.297 -7.612,-3.037 -7.874,-7.075 -0.296,-4.55 3.41,-8.429 7.894,-8.692 3.474,-0.203 6.793,1.741 8.422,4.797"
         transform="matrix(0.7518,0.3005,0.3107,-0.7774,-109.566,1234.952)"
         id="path655"
         style="fill:none;stroke:#ffffff;stroke-width:1.25100005;stroke-miterlimit:4;stroke-opacity:1;stroke-dasharray:none" />
    </g>
    <path
       d="m 418.45,832.87 -1.61,0.58 c -1.01,0.51 -2.11,1.32 -2.44,1.79 -0.56,0.8 -0.64,0.8 -1.51,0.2 -1.38,-0.97 -1.66,-0.79 -1.44,0.9 0.2,1.47 0.16,1.52 -0.96,1.52 -1.39,0 -3,1.12 -4.24,2.94 -1.68,2.47 -0.64,7.28 1.7,9.12 1.48,1.17 2.11,0.6 0.74,-0.85 -1.47,-0.96 -2.59,-4.67 -1.99,-4.67 0.14,0 0.61,0.22 1.04,0.49 0.65,0.4 0.92,0.37 1.49,-0.2 0.61,-0.62 0.62,-0.69 0.05,-0.69 -1.15,0 -1.54,-2.43 -0.59,-3.69 0.58,-0.76 2.3,-1.51 3.45,-1.51 1.74,0 2.79,2.68 1.21,3.09 -0.44,0.11 -0.8,0.37 -0.8,0.57 0,0.64 1.27,0.88 2.04,0.4 1,-0.62 0.99,-0.63 1.54,0.69 0.26,0.63 0.98,1.64 1.6,2.22 l 0.72,0.7 0,-2.61 c -0.11,-0.43 -0.21,-0.83 -0.25,-1.26 -0.05,-0.68 -2.96,-3.8 -3.53,-3.8 -0.21,0 -0.82,-0.47 -1.35,-1.05 l -0.97,-1.05 1.29,0.29 c 1.14,0.24 1.35,0.15 1.68,-0.72 0.47,-1.25 1.75,-2.03 3.13,-2.18 l 0,-1.22 z m -0.2,1.98 c -1.11,0.05 -2.72,1.83 -2.36,3.27 l 0.25,0.99 1.63,-1.47 c 0.34,-0.32 0.5,-0.54 0.68,-0.78 l 0,-1.96 c -0.06,-0.02 -0.12,-0.05 -0.2,-0.05 z m -5.61,11.26 c -0.29,-0.07 -0.49,0.19 -0.49,0.83 0,0.55 -0.18,1.12 -0.4,1.26 -0.22,0.14 -0.83,0.91 -0.83,1.44 l 0.06,0.83 3.07,-1.03 c 1.49,-0.51 2.97,-1.01 3.3,-1.13 0.4,-0.14 0.21,-0.32 -0.56,-0.52 -0.71,-0.19 -1.45,-0.13 -1.89,0.15 -0.6,0.38 -0.8,0.28 -1.23,-0.62 -0.36,-0.72 -0.74,-1.13 -1.03,-1.21 z m -4.32,0.29 c -0.8,0 -0.71,0.31 0.43,1.67 0.55,0.66 1,1.51 1,1.9 0,0.94 -1.5,2.83 -2.23,2.83 -0.76,0 -0.73,0.76 0.03,1.05 0.36,0.14 0.6,0.75 0.6,1.51 0,0.7 0.21,1.5 0.48,1.76 0.38,0.38 0.64,-0.15 1.19,-2.42 0.38,-1.6 0.7,-3.64 0.71,-4.55 0.02,-1.75 -1.16,-3.75 -2.21,-3.75 z m -3.79,0.46 c -0.29,0.1 -0.97,0.46 -1.6,1.11 -0.73,1.2 -0.88,1.59 -0.91,2.9 -0.03,0.95 0.11,2.07 0.31,2.49 0.3,0.65 0.22,0.73 -0.51,0.54 -1.11,-0.29 -1.6,0.46 -0.73,1.1 0.91,0.67 0.84,0.98 -0.54,2.4 l -0.95,0.97 1.1,0 c 0.02,-0.67 1.16,-1.03 2.64,-0.63 0.85,0.22 1.21,0.44 1.2,0.63 l 2.99,0 -1.09,-0.9 c -0.89,-0.73 -1,-1.01 -0.6,-1.42 0.41,-0.41 0.36,-0.62 -0.29,-1.1 -0.75,-0.56 -0.75,-0.63 -0.1,-1 0.76,-0.43 0.95,-1.75 0.3,-2.15 -0.22,-0.14 -0.4,0.04 -0.4,0.39 0,0.85 -1.07,1.22 -1.81,0.61 -0.33,-0.27 -0.59,-0.94 -0.59,-1.48 0,-1.14 1.05,-3.32 1.6,-3.32 0.22,0 0.4,-0.27 0.4,-0.6 0,-0.45 -0.13,-0.63 -0.42,-0.54 z m 13.92,3.3 -0.55,0.84 c -0.38,0.58 -0.66,1.67 -0.63,2.42 0.05,1.5 -0.88,1.96 -1.3,0.64 -0.24,-0.74 -1.27,-1.41 -2.89,-1.86 -0.83,-0.23 -0.85,-0.17 -0.4,1.02 0.26,0.7 0.97,1.52 1.57,1.83 1.57,0.81 1.43,1.75 -0.25,1.75 -0.76,0 -1.81,0.37 -2.41,0.84 l -0.94,0.73 4.15,0 c -0.04,-0.13 0.27,-0.28 1.14,-0.53 1.24,-0.36 1.67,-0.73 1.95,-1.65 0.2,-0.66 0.46,-1.46 0.56,-1.79 l 0,-4.24 z m -1.66,5.45 c 0.3,0.04 0.56,0.22 0.56,0.54 0,0.68 -1.08,1.16 -1.41,0.62 -0.13,-0.21 -0.12,-0.55 0.01,-0.77 0.19,-0.3 0.54,-0.42 0.84,-0.39 z"
       id="center_deco"
       style="fill:#ffffff;fill-opacity:1" />
    <path
       d="m 493.12,948.77 c -1.23,0 -2.22,0.99 -2.22,2.22 0,1.22 0.99,2.22 2.22,2.22 1.22,0 2.21,-1 2.21,-2.22 0,-1.23 -0.99,-2.22 -2.21,-2.22 z m -0.03,1.14 1.11,1.1 -1.06,1.06 -1.11,-1.11 1.06,-1.05 z"
       id="squa_circ"
       style="fill:#ffffff;fill-opacity:1;fill-rule:evenodd;stroke:none" />
  </defs>
  <g
     transform="translate(-334.09999,-972.25611)"
     id="back">
    <use
       id="use3250"
       x="335.14999"
       y="972.54999"
       width="2178.99"
       height="1216.1899"
       xlink:href="#base" />
    <rect
       width="131.9648"
       height="177.42918"
       rx="2.7421434"
       ry="2.7421434"
       x="358.44342"
       y="761.04138"
       transform="matrix(1.157448,0,0,1.291938,-72.77354,-239.377)"
       id="rect3252"
       style="fill:#0062ff;fill-opacity:1;fill-rule:evenodd;stroke:none" />
    <rect
       width="131.9648"
       height="177.42918"
       rx="2.9805906"
       ry="2.8864667"
       x="358.44342"
       y="761.04138"
       transform="matrix(1.064852,0,0,1.227341,-33.46908,-184.4809)"
       id="rect3254"
       style="fill:#0062ff;fill-opacity:1;fill-rule:evenodd;stroke:#ffffff;stroke-width:1.31317055;stroke-linecap:butt;stroke-linejoin:round;stroke-miterlimit:4;stroke-opacity:1" />
    <rect
       width="131.9648"
       height="177.42918"
       rx="0"
       ry="0"
       x="358.44342"
       y="761.04138"
       transform="matrix(0.901291,0,0,1.107675,35.9519,-82.79633)"
       id="rect3256"
       style="fill:#0062ff;fill-opacity:1;fill-rule:evenodd;stroke:#ffffff;stroke-width:1.25206935;stroke-linecap:butt;stroke-linejoin:round;stroke-miterlimit:4;stroke-opacity:1" />
    <rect
       width="131.9648"
       height="177.42918"
       rx="0"
       ry="0"
       x="358.44342"
       y="761.04138"
       transform="matrix(0.829188,0,0,1.052291,66.55439,-35.73366)"
       id="rect3258"
       style="fill:#0062ff;fill-opacity:1;fill-rule:evenodd;stroke:#ffffff;stroke-width:1.33928394;stroke-linecap:butt;stroke-linejoin:round;stroke-miterlimit:4;stroke-opacity:1" />
    <g
       id="back_c1">
      <g
         id="back_c2">
        <use
           transform="translate(-120.572,-156.034)"
           id="use3262"
           x="0"
           y="0"
           width="2178.99"
           height="1216.1899"
           xlink:href="#squa_circ" />
        <use
           transform="translate(-113.479,-156.034)"
           id="use3264"
           x="0"
           y="0"
           width="2178.99"
           height="1216.1899"
           xlink:href="#squa_circ" />
        <use
           transform="translate(-106.387,-156.034)"
           id="use3266"
           x="0"
           y="0"
           width="2178.99"
           height="1216.1899"
           xlink:href="#squa_circ" />
      </g>
      <g
         id="back_c3">
        <use
           transform="translate(-113.4792,-163.1263)"
           id="use3269"
           x="0"
           y="0"
           width="2178.99"
           height="1216.1899"
           xlink:href="#squa_circ" />
        <use
           transform="translate(-106.3868,-170.2188)"
           id="use3271"
           x="0"
           y="0"
           width="2178.99"
           height="1216.1899"
           xlink:href="#squa_circ" />
        <use
           transform="translate(-106.3868,-163.1263)"
           id="use3273"
           x="0"
           y="0"
           width="2178.99"
           height="1216.1899"
           xlink:href="#squa_circ" />
      </g>
      <g
         id="back_c4">
        <g
           id="back_c5">
          <use
             transform="translate(-99.2942,-177.311)"
             id="use3277"
             x="0"
             y="0"
             width="2178.99"
             height="1216.1899"
             xlink:href="#squa_circ" />
          <use
             transform="translate(-92.2019,-177.311)"
             id="use3279"
             x="0"
             y="0"
             width="2178.99"
             height="1216.1899"
             xlink:href="#squa_circ" />
          <use
             transform="translate(-85.1094,-177.311)"
             id="use3281"
             x="0"
             y="0"
             width="2178.99"
             height="1216.1899"
             xlink:href="#squa_circ" />
          <use
             transform="translate(-78.017,-177.311)"
             id="use3283"
             x="0"
             y="0"
             width="2178.99"
             height="1216.1899"
             xlink:href="#squa_circ" />
        </g>
        <use
           transform="translate(0,7.0926)"
           id="use3285"
           x="0"
           y="0"
           width="2178.99"
           height="1216.1899"
           xlink:href="#back_c5" />
        <use
           transform="translate(1.4161e-4,14.185)"
           id="use3287"
           x="0"
           y="0"
           width="2178.99"
           height="1216.1899"
           xlink:href="#back_c5" />
        <use
           transform="translate(0,21.2775)"
           id="use3289"
           x="0"
           y="0"
           width="2178.99"
           height="1216.1899"
           xlink:href="#back_c5" />
        <use
           transform="translate(1.4161e-4,28.3699)"
           id="use3291"
           x="0"
           y="0"
           width="2178.99"
           height="1216.1899"
           xlink:href="#back_c5" />
      </g>
      <use
         transform="translate(0,35.4623)"
         id="use3293"
         x="0"
         y="0"
         width="2178.99"
         height="1216.1899"
         xlink:href="#back_c5" />
      <use
         transform="translate(1.4161e-4,42.5548)"
         id="use3295"
         x="0"
         y="0"
         width="2178.99"
         height="1216.1899"
         xlink:href="#back_c5" />
      <use
         transform="translate(0,49.6472)"
         id="use3297"
         x="0"
         y="0"
         width="2178.99"
         height="1216.1899"
         xlink:href="#back_c5" />
      <use
         transform="translate(-21.2773,56.7397)"
         id="use3299"
         x="0"
         y="0"
         width="2178.99"
         height="1216.1899"
         xlink:href="#back_c4" />
      <use
         transform="matrix(-1,0,0,-1,787.641,1618.28)"
         id="use3301"
         x="0"
         y="0"
         width="2178.99"
         height="1216.1899"
         xlink:href="#back_c3" />
      <use
         transform="translate(1.477e-4,7.0926)"
         id="use3303"
         x="0"
         y="0"
         width="2178.99"
         height="1216.1899"
         xlink:href="#back_c2" />
      <use
         transform="translate(0,14.185)"
         id="use3305"
         x="0"
         y="0"
         width="2178.99"
         height="1216.1899"
         xlink:href="#back_c2" />
      <use
         transform="translate(1.477e-4,21.2775)"
         id="use3307"
         x="0"
         y="0"
         width="2178.99"
         height="1216.1899"
         xlink:href="#back_c2" />
      <use
         transform="translate(0,28.3699)"
         id="use3309"
         x="0"
         y="0"
         width="2178.99"
         height="1216.1899"
         xlink:href="#back_c2" />
    </g>
    <rect
       width="28.4"
       height="6.5999999"
       x="369.5"
       y="856.09998"
       id="rect3311"
       style="fill:#0062ff;stroke:none" />
    <use
       transform="matrix(1,0,0,-1,0,1717.575)"
       id="use3313"
       x="0"
       y="0"
       width="2178.99"
       height="1216.1899"
       xlink:href="#back_c1" />
    <use
       transform="matrix(-1,0,0,1,837.289,0)"
       id="use3315"
       x="0"
       y="0"
       width="2178.99"
       height="1216.1899"
       xlink:href="#back_c1" />
    <rect
       width="28.4"
       height="6.5999999"
       x="440.29999"
       y="855.5"
       id="rect3317"
       style="fill:#0062ff;stroke:none" />
    <use
       transform="matrix(-1,0,0,-1,837.289,1717.575)"
       id="use3319"
       x="0"
       y="0"
       width="2178.99"
       height="1216.1899"
       xlink:href="#back_c1" />
    <use
       id="use3321"
       x="0"
       y="0"
       width="2178.99"
       height="1216.1899"
       xlink:href="#center_deco" />
    <use
       transform="matrix(-1,0,0,1,836.872,0)"
       id="use3323"
       x="0"
       y="0"
       width="2178.99"
       height="1216.1899"
       xlink:href="#center_deco" />
    <use
       transform="matrix(1,0,0,-1,0,1716.7)"
       id="use3325"
       x="0"
       y="0"
       width="2178.99"
       height="1216.1899"
       xlink:href="#center_deco" />
    <use
       transform="matrix(-1,0,0,-1,836.872,1716.7)"
       id="use3327"
       x="0"
       y="0"
       width="2178.99"
       height="1216.1899"
       xlink:href="#center_deco" />
    <use
       id="use3329"
       x="0"
       y="0"
       width="2178.99"
       height="1216.1899"
       xlink:href="#lys" />
    <use
       transform="matrix(-1,0,0,1,838.164,0)"
       id="use3331"
       x="0"
       y="0"
       width="2178.99"
       height="1216.1899"
       xlink:href="#lys" />
    <use
       transform="matrix(1,0,0,-1,0,1717.175)"
       id="use3333"
       x="0"
       y="0"
       width="2178.99"
       height="1216.1899"
       xlink:href="#lys" />
    <use
       transform="matrix(-1,0,0,-1,838.164,1717.175)"
       id="use3335"
       x="0"
       y="0"
       width="2178.99"
       height="1216.1899"
       xlink:href="#lys" />
    <use
       transform="matrix(0,-1,1,0,-401.461,1315.16)"
       id="use3337"
       x="0"
       y="0"
       width="2178.99"
       height="1216.1899"
       xlink:href="#twist" />
    <use
       transform="matrix(-1,0,0,-1,836.962,1716.621)"
       id="use3339"
       x="0"
       y="0"
       width="2178.99"
       height="1216.1899"
       xlink:href="#twist" />
    <use
       transform="matrix(0,1,-1,0,1238.423,401.461)"
       id="use3341"
       x="0"
       y="0"
       width="2178.99"
       height="1216.1899"
       xlink:href="#twist" />
    <use
       id="use3343"
       x="0"
       y="0"
       width="2178.99"
       height="1216.1899"
       xlink:href="#twist" />
    <g
       id="g_lace">
      <use
         id="use3346"
         x="0"
         y="0"
         width="2178.99"
         height="1216.1899"
         xlink:href="#lace" />
      <use
         transform="translate(0,27.18114)"
         id="use3348"
         x="0"
         y="0"
         width="2178.99"
         height="1216.1899"
         xlink:href="#lace" />
      <use
         transform="translate(0,54.37214)"
         id="use3350"
         x="0"
         y="0"
         width="2178.99"
         height="1216.1899"
         xlink:href="#lace" />
      <use
         transform="translate(0,81.5631)"
         id="use3352"
         x="0"
         y="0"
         width="2178.99"
         height="1216.1899"
         xlink:href="#lace" />
      <use
         transform="translate(0,108.7443)"
         id="use3354"
         x="0"
         y="0"
         width="2178.99"
         height="1216.1899"
         xlink:href="#lace" />
      <use
         transform="translate(0,135.9353)"
         id="use3356"
         x="0"
         y="0"
         width="2178.99"
         height="1216.1899"
         xlink:href="#lace" />
      <use
         transform="translate(0,163.1262)"
         id="use3358"
         x="0"
         y="0"
         width="2178.99"
         height="1216.1899"
         xlink:href="#lace" />
    </g>
    <use
       transform="translate(129.5877,-0.313128)"
       id="use3360"
       x="0"
       y="0"
       width="2178.99"
       height="1216.1899"
       xlink:href="#g_lace" />
    <g
       transform="translate(-145.1693,-59.66309)"
       id="g_lace2">
      <use
         transform="matrix(0,-1,1,0,-254.1121,1167.993)"
         id="use3363"
         x="0"
         y="0"
         width="2178.99"
         height="1216.1899"
         xlink:href="#lace" />
      <use
         transform="matrix(0,-1,1,0,-226.9211,1167.993)"
         id="use3365"
         x="0"
         y="0"
         width="2178.99"
         height="1216.1899"
         xlink:href="#lace" />
      <use
         transform="matrix(0,-1,1,0,-199.7301,1167.993)"
         id="use3367"
         x="0"
         y="0"
         width="2178.99"
         height="1216.1899"
         xlink:href="#lace" />
      <use
         transform="matrix(0,-1,1,0,-172.5489,1167.993)"
         id="use3369"
         x="0"
         y="0"
         width="2178.99"
         height="1216.1899"
         xlink:href="#lace" />
    </g>
    <use
       transform="translate(0,207.189)"
       id="use3371"
       x="0"
       y="0"
       width="2178.99"
       height="1216.1899"
       xlink:href="#g_lace2" />
  </g>
</svg>
