<?xml version="1.0" encoding="UTF-8" standalone="no"?>
<!-- Created with Inkscape (http://www.inkscape.org/) -->
<svg id="svg2" xmlns:rdf="http://www.w3.org/1999/02/22-rdf-syntax-ns#" xmlns="http://www.w3.org/2000/svg" height="244.55" viewBox="-0.2 -236 169.075 244.54907" width="169.01" version="1.1" xmlns:cc="http://creativecommons.org/ns#" xmlns:xlink="http://www.w3.org/1999/xlink" xmlns:dc="http://purl.org/dc/elements/1.1/">
 <metadata id="metadata419">
  <rdf:RDF>
   <cc:Work rdf:about="">
    <dc:format>image/svg+xml</dc:format>
    <dc:type rdf:resource="http://purl.org/dc/dcmitype/StillImage"/>
    <dc:title/>
   </cc:Work>
  </rdf:RDF>
 </metadata>
 <defs id="defs4">
  <g id="base">
   <path id="path49" d="m0 0c0 3.78 3.09 6.87 6.87 6.87h152.84c3.77 0 6.86-3.09 6.86-6.87v-228.4c0-3.78-3.09-6.87-6.86-6.87h-152.84c-3.78 0-6.87 3.09-6.87 6.87v228.4z" stroke="#000" stroke-width="2.5" fill="#fff"/>
  </g>
  <g id="lace" transform="matrix(1 0 0 .95 -190.33 54.46)">
   <path id="path638" d="m543.24 746.17c-1.0096 1.663-0.49364 3.682 0.15 5.43 1.2565 3.4125 2.715 6.7506 4.02 10.15 0.69553 1.8119 0.12863 3.6862-1.01 5.1545-1.4104 1.7617-2.8351 3.04-5.75 4.0455 1.55-1.03 3.078-2.1673 4.24-3.63 1.1184-1.4079 1.7021-3.0024 1.08-4.77-1.2083-3.4334-2.7212-6.762-4-10.17-0.66124-1.7622-1.14-3.76-0.26-5.54 0.8-1.29 2.37-2.25 3.86-2.45-0.39037 0.24768-1.883 1.0436-2.33 1.78z" stroke="#fff" stroke-miterlimit="40" stroke-width=".32088" fill="none"/>
   <path id="path640" d="m544.6 774.8c1.0193-1.6571 0.46-3.67-0.15-5.43-1.29-3.4-2.77-6.73-4.02-10.15-0.75-1.79-0.29844-3.614 0.87737-5.0526 1.176-1.4389 2.9679-3.0424 5.8826-4.1474-1.0535 0.93217-3.05 2.19-4.24 3.63-1.09 1.43-1.7021 3.0024-1.08 4.77 1.2083 3.4334 2.7212 6.762 4 10.17 0.66124 1.7622 1.14 3.76 0.26 5.54-0.8 1.29-2.37 2.25-3.86 2.45 0.91374-0.6459 1.9324-1.1336 2.33-1.78z" stroke="#fff" stroke-miterlimit="40" stroke-width=".32088" fill="none"/>
  </g>
  <g id="lys" transform="matrix(.4 0 0 .4 236.59 667.12)">
   <path id="lys_1" d="m355.65 280.19s-3.75-8.1-8.1-12.6c-4.36-4.51-9.68-7.58-11.04-6.53" fill="#fff" transform="translate(-1.35 -.76)" fill-rule="evenodd"/>
   <path id="lys_2" d="m368.97 258.94c-2.29 0.08-5.9 1.92-7.85 3.87-2.59 2.6-3.52 7.58-3.59 9.44s-1.32-0.84-2.19-2.37c-0.86-1.54-1.93-5.4-2.22-3.22-0.28 2.2-0.34 3.26 0.07 5.72 0.4 2.45 1.59 7.15 2.56 8.68l3.97 3.94c1.87-1.88 3.1-6.25 3.19-6.25l-0.07 9.34 4.35 4.32c-1.16-2.37-1.94-6.58-1.63-10.38 0.32-3.8 2.3-8.59 2.06-10.44-1.14-0.4-2.9 2.58-5.21 1.88-0.08-1.75 0.74-6.02 1.9-7.69 1.17-1.66 4.43-5.7 6.41-6.28-0.36-0.42-0.99-0.59-1.75-0.56z" fill="#fff" fill-rule="evenodd"/>
   <path id="lys_3" d="m329.36 254.28c9.62-4.95 19.64 8.3 19.64 8.3s1.44-9.25 3.32-9.36 4.87 7.31 4.87 7.31 5.76-7.64 15.72-7.58c9.97 0.05 11.57 9.13 5.87 9.57-5.66 0.44-2.38-5.15-2.27-3.65 0.06 0.17-5.37-7.75-19.15 7.86-2.03 2.3-3.94-8.46-4.93-6.09-1.21 2.88-0.22 6.26-1.11 8.53 1.39 1.71-11.35-13.84-16.77-9.58" fill="#fff" transform="translate(-1.35 -.76)" fill-rule="evenodd"/>
   <use id="use646" xlink:href="#lys_3" transform="matrix(0,1,1,0,74.5,-74.49)" height="1216.1899" width="2178.99" y="0" x="0" fill="#ffffff"/>
   <use id="use648" xlink:href="#lys_1" transform="matrix(0,1,1,0,74.9,-74.93)" height="1216.1899" width="2178.99" y="0" x="0" fill="#ffffff"/>
   <use id="use650" xlink:href="#lys_2" transform="matrix(0,1,1,0,74.82,-74.82)" height="1216.1899" width="2178.99" y="0" x="0" fill="#ffffff"/>
  </g>
  <g id="twist" stroke-linejoin="round" stroke-linecap="round" transform="matrix(.3394 .3394 -.3394 .3394 444.56 315.27)">
   <path id="path653" d="m508.99 779.92c-2.054-1.516-2.26-4.512-0.747-6.48 1.827-2.375 5.344-2.595 7.638-0.777 2.696 2.137 2.93 6.176 0.807 8.795-2.447 3.018-7.009 3.265-9.953 0.837-3.34-2.755-3.601-7.842-0.866-11.11 2.394-2.862 6.495-3.76 9.915-2.335" transform="matrix(.7518 .3005 -.3107 .7774 372.86 20.834)" stroke="#fff" stroke-width="1.251" fill="none"/>
   <path id="path655" d="m507.26 776.88c-0.309-2.765 1.915-5.165 4.616-5.421 3.211-0.304 5.98 2.289 6.239 5.435 0.3 3.658-2.663 6.796-6.255 7.057-4.104 0.297-7.612-3.037-7.874-7.075-0.296-4.55 3.41-8.429 7.894-8.692 3.474-0.203 6.793 1.741 8.422 4.797" transform="matrix(.7518 .3005 .3107 -.7774 -109.57 1235)" stroke="#fff" stroke-width="1.251" fill="none"/>
  </g>
  <path id="center_deco" fill="#fff" d="m418.45 832.87-1.61 0.58c-1.01 0.51-2.11 1.32-2.44 1.79-0.56 0.8-0.64 0.8-1.51 0.2-1.38-0.97-1.66-0.79-1.44 0.9 0.2 1.47 0.16 1.52-0.96 1.52-1.39 0-3 1.12-4.24 2.94-1.68 2.47-0.64 7.28 1.7 9.12 1.48 1.17 2.11 0.6 0.74-0.85-1.47-0.96-2.59-4.67-1.99-4.67 0.14 0 0.61 0.22 1.04 0.49 0.65 0.4 0.92 0.37 1.49-0.2 0.61-0.62 0.62-0.69 0.05-0.69-1.15 0-1.54-2.43-0.59-3.69 0.58-0.76 2.3-1.51 3.45-1.51 1.74 0 2.79 2.68 1.21 3.09-0.44 0.11-0.8 0.37-0.8 0.57 0 0.64 1.27 0.88 2.04 0.4 1-0.62 0.99-0.63 1.54 0.69 0.26 0.63 0.98 1.64 1.6 2.22l0.72 0.7v-2.61c-0.11-0.43-0.21-0.83-0.25-1.26-0.05-0.68-2.96-3.8-3.53-3.8-0.21 0-0.82-0.47-1.35-1.05l-0.97-1.05 1.29 0.29c1.14 0.24 1.35 0.15 1.68-0.72 0.47-1.25 1.75-2.03 3.13-2.18v-1.22zm-0.2 1.98c-1.11 0.05-2.72 1.83-2.36 3.27l0.25 0.99 1.63-1.47c0.34-0.32 0.5-0.54 0.68-0.78v-1.96c-0.06-0.02-0.12-0.05-0.2-0.05zm-5.61 11.26c-0.29-0.07-0.49 0.19-0.49 0.83 0 0.55-0.18 1.12-0.4 1.26s-0.83 0.91-0.83 1.44l0.06 0.83 3.07-1.03c1.49-0.51 2.97-1.01 3.3-1.13 0.4-0.14 0.21-0.32-0.56-0.52-0.71-0.19-1.45-0.13-1.89 0.15-0.6 0.38-0.8 0.28-1.23-0.62-0.36-0.72-0.74-1.13-1.03-1.21zm-4.32 0.29c-0.8 0-0.71 0.31 0.43 1.67 0.55 0.66 1 1.51 1 1.9 0 0.94-1.5 2.83-2.23 2.83-0.76 0-0.73 0.76 0.03 1.05 0.36 0.14 0.6 0.75 0.6 1.51 0 0.7 0.21 1.5 0.48 1.76 0.38 0.38 0.64-0.15 1.19-2.42 0.38-1.6 0.7-3.64 0.71-4.55 0.02-1.75-1.16-3.75-2.21-3.75zm-3.79 0.46c-0.29 0.1-0.97 0.46-1.6 1.11-0.73 1.2-0.88 1.59-0.91 2.9-0.03 0.95 0.11 2.07 0.31 2.49 0.3 0.65 0.22 0.73-0.51 0.54-1.11-0.29-1.6 0.46-0.73 1.1 0.91 0.67 0.84 0.98-0.54 2.4l-0.95 0.97h1.1c0.02-0.67 1.16-1.03 2.64-0.63 0.85 0.22 1.21 0.44 1.2 0.63h2.99l-1.09-0.9c-0.89-0.73-1-1.01-0.6-1.42 0.41-0.41 0.36-0.62-0.29-1.1-0.75-0.56-0.75-0.63-0.1-1 0.76-0.43 0.95-1.75 0.3-2.15-0.22-0.14-0.4 0.04-0.4 0.39 0 0.85-1.07 1.22-1.81 0.61-0.33-0.27-0.59-0.94-0.59-1.48 0-1.14 1.05-3.32 1.6-3.32 0.22 0 0.4-0.27 0.4-0.6 0-0.45-0.13-0.63-0.42-0.54zm13.92 3.3-0.55 0.84c-0.38 0.58-0.66 1.67-0.63 2.42 0.05 1.5-0.88 1.96-1.3 0.64-0.24-0.74-1.27-1.41-2.89-1.86-0.83-0.23-0.85-0.17-0.4 1.02 0.26 0.7 0.97 1.52 1.57 1.83 1.57 0.81 1.43 1.75-0.25 1.75-0.76 0-1.81 0.37-2.41 0.84l-0.94 0.73h4.15c-0.04-0.13 0.27-0.28 1.14-0.53 1.24-0.36 1.67-0.73 1.95-1.65 0.2-0.66 0.46-1.46 0.56-1.79v-4.24zm-1.66 5.45c0.3 0.04 0.56 0.22 0.56 0.54 0 0.68-1.08 1.16-1.41 0.62-0.13-0.21-0.12-0.55 0.01-0.77 0.19-0.3 0.54-0.42 0.84-0.39z"/>
  <path id="squa_circ" d="m493.12 948.77c-1.23 0-2.22 0.99-2.22 2.22 0 1.22 0.99 2.22 2.22 2.22 1.22 0 2.21-1 2.21-2.22 0-1.23-0.99-2.22-2.21-2.22zm-0.03 1.14 1.11 1.1-1.06 1.06-1.11-1.11 1.06-1.05z" fill="#fff" fill-rule="evenodd"/>
 </defs>
 <g id="back" transform="translate(-334.1 -972.26)">
  <use id="use3250" xlink:href="#base" height="1216.1899" width="2178.99" y="972.54999" x="335.14999"/>
  <rect id="rect3252" transform="matrix(1.1574 0 0 1.2919 -72.774 -239.38)" fill-rule="evenodd" rx="2.7421" ry="2.7421" height="177.43" width="131.96" y="761.04" x="358.44" fill="#0062ff"/>
  <rect id="rect3254" stroke-linejoin="round" fill-rule="evenodd" rx="2.9806" ry="2.8865" transform="matrix(1.0649 0 0 1.2273 -33.469 -184.48)" height="177.43" width="131.96" stroke="#fff" y="761.04" x="358.44" stroke-width="1.3132" fill="#0062ff"/>
  <rect id="rect3256" stroke-linejoin="round" fill-rule="evenodd" rx="0" ry="0" transform="matrix(.90129 0 0 1.1077 35.952 -82.796)" height="177.43" width="131.96" stroke="#fff" y="761.04" x="358.44" stroke-width="1.2521" fill="#0062ff"/>
  <rect id="rect3258" stroke-linejoin="round" fill-rule="evenodd" rx="0" ry="0" transform="matrix(.82919 0 0 1.0523 66.554 -35.734)" height="177.43" width="131.96" stroke="#fff" y="761.04" x="358.44" stroke-width="1.3393" fill="#0062ff"/>
  <g id="back_c1">
   <g id="back_c2">
    <use id="use3262" xlink:href="#squa_circ" transform="translate(-120.57 -156.03)" height="1216.1899" width="2178.99" y="0" x="0"/>
    <use id="use3264" xlink:href="#squa_circ" transform="translate(-113.48 -156.03)" height="1216.1899" width="2178.99" y="0" x="0"/>
    <use id="use3266" xlink:href="#squa_circ" transform="translate(-106.39 -156.03)" height="1216.1899" width="2178.99" y="0" x="0"/>
   </g>
   <g id="back_c3">
    <use id="use3269" xlink:href="#squa_circ" transform="translate(-113.48 -163.13)" height="1216.1899" width="2178.99" y="0" x="0"/>
    <use id="use3271" xlink:href="#squa_circ" transform="translate(-106.39 -170.22)" height="1216.1899" width="2178.99" y="0" x="0"/>
    <use id="use3273" xlink:href="#squa_circ" transform="translate(-106.39 -163.13)" height="1216.1899" width="2178.99" y="0" x="0"/>
   </g>
   <g id="back_c4">
    <g id="back_c5">
     <use id="use3277" xlink:href="#squa_circ" transform="translate(-99.294 -177.31)" height="1216.1899" width="2178.99" y="0" x="0"/>
     <use id="use3279" xlink:href="#squa_circ" transform="translate(-92.202 -177.31)" height="1216.1899" width="2178.99" y="0" x="0"/>
     <use id="use3281" xlink:href="#squa_circ" transform="translate(-85.109 -177.31)" height="1216.1899" width="2178.99" y="0" x="0"/>
     <use id="use3283" xlink:href="#squa_circ" transform="translate(-78.017 -177.31)" height="1216.1899" width="2178.99" y="0" x="0"/>
    </g>
    <use id="use3285" xlink:href="#back_c5" transform="translate(0,7.0926)" height="1216.1899" width="2178.99" y="0" x="0"/>
    <use id="use3287" xlink:href="#back_c5" transform="translate(1.4161e-4,14.185)" height="1216.1899" width="2178.99" y="0" x="0"/>
    <use id="use3289" xlink:href="#back_c5" transform="translate(0 21.278)" height="1216.1899" width="2178.99" y="0" x="0"/>
    <use id="use3291" xlink:href="#back_c5" transform="translate(.00014161 28.37)" height="1216.1899" width="2178.99" y="0" x="0"/>
   </g>
   <use id="use3293" xlink:href="#back_c5" transform="translate(0 35.462)" height="1216.1899" width="2178.99" y="0" x="0"/>
   <use id="use3295" xlink:href="#back_c5" transform="translate(.00014161 42.555)" height="1216.1899" width="2178.99" y="0" x="0"/>
   <use id="use3297" xlink:href="#back_c5" transform="translate(0 49.647)" height="1216.1899" width="2178.99" y="0" x="0"/>
   <use id="use3299" xlink:href="#back_c4" transform="translate(-21.277 56.74)" height="1216.1899" width="2178.99" y="0" x="0"/>
   <use id="use3301" xlink:href="#back_c3" transform="matrix(-1 0 0 -1 787.64 1618.3)" height="1216.1899" width="2178.99" y="0" x="0"/>
   <use id="use3303" xlink:href="#back_c2" transform="translate(1.477e-4,7.0926)" height="1216.1899" width="2178.99" y="0" x="0"/>
   <use id="use3305" xlink:href="#back_c2" transform="translate(0,14.185)" height="1216.1899" width="2178.99" y="0" x="0"/>
   <use id="use3307" xlink:href="#back_c2" transform="translate(.0001477 21.278)" height="1216.1899" width="2178.99" y="0" x="0"/>
   <use id="use3309" xlink:href="#back_c2" transform="translate(0 28.37)" height="1216.1899" width="2178.99" y="0" x="0"/>
  </g>
  <rect id="rect3311" height="6.6" width="28.4" y="856.1" x="369.5" fill="#0062ff"/>
  <use id="use3313" xlink:href="#back_c1" transform="matrix(1 0 0 -1 0 1717.6)" height="1216.1899" width="2178.99" y="0" x="0"/>
  <use id="use3315" xlink:href="#back_c1" transform="matrix(-1 0 0 1 837.29 0)" height="1216.1899" width="2178.99" y="0" x="0"/>
  <rect id="rect3317" height="6.6" width="28.4" y="855.5" x="440.3" fill="#0062ff"/>
  <use id="use3319" xlink:href="#back_c1" transform="matrix(-1 0 0 -1 837.29 1717.6)" height="1216.1899" width="2178.99" y="0" x="0"/>
  <use id="use3321" xlink:href="#center_deco" height="1216.1899" width="2178.99" y="0" x="0"/>
  <use id="use3323" xlink:href="#center_deco" transform="matrix(-1 0 0 1 836.87 0)" height="1216.1899" width="2178.99" y="0" x="0"/>
  <use id="use3325" xlink:href="#center_deco" transform="matrix(1,0,0,-1,0,1716.7)" height="1216.1899" width="2178.99" y="0" x="0"/>
  <use id="use3327" xlink:href="#center_deco" transform="matrix(-1 0 0 -1 836.87 1716.7)" height="1216.1899" width="2178.99" y="0" x="0"/>
  <use id="use3329" xlink:href="#lys" height="1216.1899" width="2178.99" y="0" x="0"/>
  <use id="use3331" xlink:href="#lys" transform="matrix(-1 0 0 1 838.16 0)" height="1216.1899" width="2178.99" y="0" x="0"/>
  <use id="use3333" xlink:href="#lys" transform="matrix(1 0 0 -1 0 1717.2)" height="1216.1899" width="2178.99" y="0" x="0"/>
  <use id="use3335" xlink:href="#lys" transform="matrix(-1 0 0 -1 838.16 1717.2)" height="1216.1899" width="2178.99" y="0" x="0"/>
  <use id="use3337" xlink:href="#twist" transform="matrix(0 -1 1 0 -401.46 1315.2)" height="1216.1899" width="2178.99" y="0" x="0"/>
  <use id="use3339" xlink:href="#twist" transform="matrix(-1 0 0 -1 836.96 1716.6)" height="1216.1899" width="2178.99" y="0" x="0"/>
  <use id="use3341" xlink:href="#twist" transform="matrix(0 1 -1 0 1238.4 401.46)" height="1216.1899" width="2178.99" y="0" x="0"/>
  <use id="use3343" xlink:href="#twist" height="1216.1899" width="2178.99" y="0" x="0"/>
  <g id="g_lace">
   <use id="use3346" xlink:href="#lace" height="1216.1899" width="2178.99" y="0" x="0"/>
   <use id="use3348" xlink:href="#lace" transform="translate(0 27.181)" height="1216.1899" width="2178.99" y="0" x="0"/>
   <use id="use3350" xlink:href="#lace" transform="translate(0 54.372)" height="1216.1899" width="2178.99" y="0" x="0"/>
   <use id="use3352" xlink:href="#lace" transform="translate(0 81.563)" height="1216.1899" width="2178.99" y="0" x="0"/>
   <use id="use3354" xlink:href="#lace" transform="translate(0 108.74)" height="1216.1899" width="2178.99" y="0" x="0"/>
   <use id="use3356" xlink:href="#lace" transform="translate(0 135.94)" height="1216.1899" width="2178.99" y="0" x="0"/>
   <use id="use3358" xlink:href="#lace" transform="translate(0 163.13)" height="1216.1899" width="2178.99" y="0" x="0"/>
  </g>
  <use id="use3360" xlink:href="#g_lace" transform="translate(129.59 -.31313)" height="1216.1899" width="2178.99" y="0" x="0"/>
  <g id="g_lace2" transform="translate(-145.17 -59.663)">
   <use id="use3363" xlink:href="#lace" transform="matrix(0 -1 1 0 -254.11 1168)" height="1216.1899" width="2178.99" y="0" x="0"/>
   <use id="use3365" xlink:href="#lace" transform="matrix(0 -1 1 0 -226.92 1168)" height="1216.1899" width="2178.99" y="0" x="0"/>
   <use id="use3367" xlink:href="#lace" transform="matrix(0 -1 1 0 -199.73 1168)" height="1216.1899" width="2178.99" y="0" x="0"/>
   <use id="use3369" xlink:href="#lace" transform="matrix(0 -1 1 0 -172.55 1168)" height="1216.1899" width="2178.99" y="0" x="0"/>
  </g>
  <use id="use3371" xlink:href="#g_lace2" transform="translate(0 207.19)" height="1216.1899" width="2178.99" y="0" x="0"/>
 </g>
</svg>
