<?xml version="1.0" encoding="UTF-8" standalone="no"?>
<!-- Created with Inkscape (http://www.inkscape.org/) -->
<svg id="svg2" xmlns:rdf="http://www.w3.org/1999/02/22-rdf-syntax-ns#" xmlns="http://www.w3.org/2000/svg" height="244.55" width="169.01" version="1.1" xmlns:cc="http://creativecommons.org/ns#" xmlns:xlink="http://www.w3.org/1999/xlink" viewBox="-0.2 -236 169.07499 244.54905" xmlns:dc="http://purl.org/dc/elements/1.1/">
 <metadata id="metadata1410">
  <rdf:RDF>
   <cc:Work rdf:about="">
    <dc:format>image/svg+xml</dc:format>
    <dc:type rdf:resource="http://purl.org/dc/dcmitype/StillImage"/>
   </cc:Work>
  </rdf:RDF>
 </metadata>
 <defs id="defs4">
  <g id="club-4">
   <path id="path34773" d="m3.35 4.66c0-1.81-1.51-3.28-3.38-3.28s-3.38 1.47-3.38 3.28 1.51 3.28 3.38 3.28 3.38-1.47 3.38-3.28z"/>
   <path id="path34775" d="m7.71-1.55c0-1.81-1.51-3.28-3.38-3.28s-3.38 1.47-3.38 3.28 1.51 3.28 3.38 3.28 3.38-1.47 3.38-3.28z"/>
   <path id="path34777" d="m-0.95-1.57c0-0.66-0.2-1.28-0.55-1.8-0.6-0.89-1.65-1.48-2.83-1.48-1.87 0-3.38 1.47-3.38 3.28s1.51 3.28 3.38 3.28 3.38-1.47 3.38-3.28z"/>
   <path id="path34779" d="m3.94-7.94c-1.67 0-2.55 1.36-3.01 2.72s-0.5 2.72-0.5 2.72h-0.86s-0.16-5.43-3.5-5.44h7.87z"/>
   <path id="path34781" d="m-2.32 2.25c1.9-1.9 1.9-4.75 1.9-4.75l0.85-0.01s0 2.91 1.85 4.76"/>
   <path id="path34783" d="m-1.94-3.85c1.9 1.9 4.75 1.9 4.75 1.9v0.85s-2.91 0-4.76 1.85"/>
   <path id="path34785" d="m1.87-3.86c-1.9 1.9-4.75 1.9-4.75 1.9v0.85s2.91 0 4.76 1.85"/>
  </g>
  <g id="base-51">
   <path id="path34770" d="m0 0c0 3.78 3.09 6.87 6.87 6.87h152.84c3.77 0 6.86-3.09 6.86-6.87v-228.4c0-3.78-3.09-6.87-6.86-6.87h-152.84c-3.78 0-6.87 3.09-6.87 6.87v228.4z" stroke="#000" stroke-width="2.5" fill="#fff"/>
  </g>
  <g id="n_10-89">
   <text id="text34728" font-weight="bold" transform="scale(.32258 1.0574)" font-size="43px" font-family="Bitstream Vera Serif">10</text>
  </g>
 </defs>
 <g id="10_club" transform="translate(-1507.1 .47452)">
  <use id="use35574" xlink:href="#base-51" height="1" width="1" y="0" x="1508.17"/>
  <use id="use35576" xlink:href="#n_10-89" height="1" width="1" y="-199.117" x="1512.17"/>
  <use id="use35578" xlink:href="#n_10-89" transform="matrix(-1,0,0,-1,3343.5,-60.56)" height="1" width="1" y="-30.280001" x="1671.75"/>
  <use id="use35580" xlink:href="#club-4" transform="matrix(-1 0 0 -1 3043.7 -370.23)" height="1" width="1" y="-185.117" x="1521.83"/>
  <use id="use35582" xlink:href="#club-4" height="1" width="1" y="-44.279999" x="1662.1"/>
  <use id="use35584" xlink:href="#club-4" transform="matrix(-2.4 0 0 -2.4 3104.1 -397.02)" height="1" width="1" y="-82.712502" x="646.68103"/>
  <use id="use35586" xlink:href="#club-4" transform="matrix(-2.4 0 0 -2.4 3104.1 -288.71)" height="1" width="1" y="-60.1474" x="646.68103"/>
  <use id="use35588" xlink:href="#club-4" transform="scale(2.4)" height="1" width="1" y="-37.164101" x="646.68103"/>
  <use id="use35590" xlink:href="#club-4" transform="scale(2.4)" height="1" width="1" y="-14.599" x="646.68103"/>
  <use id="use35592" xlink:href="#club-4" transform="matrix(-2.4 0 0 -2.4 3263.8 -397.02)" height="1" width="1" y="-82.712502" x="679.95502"/>
  <use id="use35594" xlink:href="#club-4" transform="matrix(-2.4 0 0 -2.4 3263.8 -288.71)" height="1" width="1" y="-60.1474" x="679.95502"/>
  <use id="use35596" xlink:href="#club-4" transform="scale(2.4)" height="1" width="1" y="-37.164101" x="679.95502"/>
  <use id="use35598" xlink:href="#club-4" transform="scale(2.4)" height="1" width="1" y="-14.599" x="679.95502"/>
  <use id="use35600" xlink:href="#club-4" transform="matrix(-2.4 0 0 -2.4 3183.9 -342.86)" height="1" width="1" y="-71.429901" x="663.31799"/>
  <use id="use35602" xlink:href="#club-4" transform="scale(2.4)" height="1" width="1" y="-25.8815" x="663.31799"/>
 </g>
</svg>
