<?xml version="1.0" encoding="UTF-8" standalone="no"?>
<svg id="svg6414" xmlns:rdf="http://www.w3.org/1999/02/22-rdf-syntax-ns#" xmlns="http://www.w3.org/2000/svg" height="244.55" width="169.01" version="1.1" xmlns:cc="http://creativecommons.org/ns#" xmlns:xlink="http://www.w3.org/1999/xlink" viewBox="-0.2 -236 169.075 244.54907" xmlns:dc="http://purl.org/dc/elements/1.1/">
 <metadata id="metadata9787">
  <rdf:RDF>
   <cc:Work rdf:about="">
    <dc:format>image/svg+xml</dc:format>
    <dc:type rdf:resource="http://purl.org/dc/dcmitype/StillImage"/>
    <dc:title/>
   </cc:Work>
  </rdf:RDF>
 </metadata>
<!-- SVG-cards 2.0.1								--><!-- This set of SVG files is a complete cards game with figures, numbers	--><!--	and backs of cards completely designed in SVG.				--><!--										--><!--	Copyright (C) 2005 David Bellot						--><!--										--><!--	This library is free software; you can redistribute it and/or		--><!--	modify it under the terms of the GNU Lesser General Public		--><!--	License as published by the Free Software Foundation; either		--><!--	version 2 of the License, or (at your option) any later version		--><!--										--><!--	This library is distributed in the hope that it will be useful,		--><!--	but WITHOUT ANY WARRANTY; without even the implied warranty of		--><!--	MERCHANTABILITY or FITNESS FOR A PARTICULAR PURPOSE.  See the GNU	--><!--	Lesser General Public License for more details.				--><!--										--><!--	You should have received a copy of the GNU Lesser General Public	--><!--	License along with this library; if not, write to the Free Software	--><!--	Foundation, Inc., 59 Temple Place, Suite 330, Boston, MA 02111-1307  USA--><!--                                                                            --><!--	Contact the author David Bellot at david.bellot@free.fr			-->
 <defs id="defs6416">
  <g id="king">
   <text id="text6452" font-size="43px" font-weight="bold" transform="scale(.56453 1.0574)">K</text>
  </g>
  <g id="base">
   <path id="path6461" d="m0 0c0 3.78 3.09 6.87 6.87 6.87h152.84c3.77 0 6.86-3.09 6.86-6.87v-228.4c0-3.78-3.09-6.87-6.86-6.87h-152.84c-3.78 0-6.87 3.09-6.87 6.87v228.4z" stroke="#000" stroke-width="2.5" fill="#fff"/>
  </g>
  <g id="spade">
   <path id="path6485" d="m3.92-7.93c-1.67 0-2.55 1.78-3.01 3.56s-0.5 3.56-0.5 3.56l-0.85 0.01s-0.16-7.13-3.5-7.13h7.86z"/>
   <path id="path6487" d="m6.75-0.8c-0.01 3.47-5.22 5.99-6.75 8.73-1.53-2.75-6.74-5.27-6.75-8.73 0-1.64 1.51-2.97 3.38-2.97 1.86 0 3.37 1.33 3.37 2.97 0-1.64 1.51-2.97 3.38-2.97s3.37 1.33 3.37 2.97z"/>
  </g>
  <g id="king_1">
   <g id="g6869">
    <path id="path6871" fill="#f8c20f" d="m177.45 564.38-0.44-13.41c-2.92 4.45-5.95 8.81-8.83 13.28l1.09 0.63 8.18-0.5"/>
    <path id="path6873" fill="#e61408" d="m215.19 599.47-0.7 2.06-2.32 0.56c-1.38-0.63-3.24-1.09-4.35-2.15-1.44-1.38-2.88-2.76-4.31-4.14l-1.42-5.79 2.12-3.55-2.86 4.23-0.92-3.6 6.73-11.31-0.12-0.3-2.13 2.88-1.53-1.67c-0.44-1.41-1.17-2.94-1.37-4.4-0.25-1.8 0.17-3.92 0.25-5.74 0.14-3.22 2.33-5.63 4.26-7.99l4.36-2.24 5.12-0.24 0.74 0.77 0.36-0.69c-1.44-4.05-2.88-8.11-4.32-12.16l-3.15 3.7 1.41-1.87c-1.95 0.47-3.97 0.78-5.8 1.64-3.84-0.79-7.79-1.17-11.54-2.4l-0.07-4.64 1.38-3.27 0.73-0.19 0.05-0.36 2.07-0.33c0.13-0.25 0.22-0.51 0.28-0.79l0.06 0.01 0.06-0.14-0.34-0.16 0.02-1.11c0.38-0.45 0.78-0.86 1.05-1.37l0.53-0.43c0.97-2.48 1.78-4.97 2.58-7.51l0.77-0.08 0.04-0.1-0.48-0.1c0.97-5.56 2-10.87 2.13-16.51l-5.6 8.61c-0.76 5.08-1.36 10.19-2.46 15.21l2.21-14.91c-1.69 2.64-3.38 5.28-5.07 7.92-1.46 2.29-4.39 5.34-4.94 8.06-2.64 2.58-4.35 6.44-6.31 9.54 0.61 6.18 1.22 12.35 1.83 18.53 0.42 4.25 0.84 8.49 1.25 12.74 0.18 1.85 0.1 3.99 0.57 5.79s1.59 3.63 2.34 5.32c1.72 3.9 3.43 7.81 5.15 11.71 2.49 5.68 4.99 11.35 7.48 17.03l14.3-9.55 1.87-4.04 0.54-0.21 0.1-4.63-0.77-0.03c-0.62 1.48-1.24 2.94-1.86 4.39"/>
    <polyline id="polyline6875" points="145.65 616.68 152.11 602.83 152.6 590.63 151.67 590.41 135.61 615.61 136.99 617.1 142.58 618.81 145.65 616.68" fill="#e61408"/>
    <path id="path6877" fill="#1c1585" d="m222.53 531.79c0.52-3.88 0.84-7.77 1.92-11.53 1.19-4.15 2.87-7.31 5-11.09l3.29-2.74c-1.5-4.24-3.42-8.3-5.24-12.41-2.52 2.72-4.84 5.37-6.85 8.5-0.94 1.46-2.44 3.09-2.99 4.73-0.81 2.42-1.63 4.85-2.44 7.27-1.25 3.74-1.68 7.77-2.4 11.64-0.67 3.6-0.34 7.16-0.24 10.82 3.5-1.47 6.72-3.21 9.95-5.19"/>
    <path id="path6879" fill="#1c1585" d="m228.93 562.01-2.26-1.05c-1.29-1.42-2.27-2.61-3.2-4.28l-1.49-19.75c-3.13 1.96-5.84 4.13-8.64 6.54 0.93 6.52 3.65 12.01 6.93 17.65l-2.15-0.61c-3.18 4.29-6.61 8.47-9.56 12.92-2.92 4.4-5.43 9.12-8.13 13.66l0.92 3.6 2.86-4.23-2.12 3.55 1.42 5.79c1.44 1.38 2.88 2.76 4.31 4.14 1.1 1.06 2.96 1.52 4.35 2.15l2.32-0.56c0.89-2.61 2.5-5.21 2.9-7.93 0.49-3.36 0.66-6.69 0.86-10.08 2.75-2.43 5.25-4.8 7.7-7.54 2.33-2.6 3.82-5.8 5.55-8.83l3.22-0.33c-1.84-1.84-3.67-3.28-5.79-4.81m-3.42 3.38c-1.68-1.19-3.23-2.34-5.09-3.2l-0.61 0.82 0.52-1.77 0.29 0.49c2.67 1.93 4.79 3.44 7.89 4.53l-3-0.87"/>
    <path id="path6881" fill="#f8c20f" d="m216.73 556.86-0.74-0.77-5.12 0.24-4.36 2.24c-1.92 2.36-4.11 4.77-4.26 7.99-0.08 1.89-0.17 3.79-0.25 5.68-0.06 1.32 0.97 3.18 1.37 4.46l1.53 1.67c4.71-6.37 9.43-12.73 14.14-19.1l-2.31-2.41"/>
    <path id="path6883" fill="#f8c20f" d="m202.42 524.52c0.26 0.05 0.52 0.11 0.78 0.16-0.37 0.04-0.74 0.08-1.11 0.12-0.8 2.54-1.61 5.03-2.58 7.51l-0.53 0.43c-0.27 0.51-0.67 0.92-1.05 1.37l-0.02 1.11c0.24 0.12 0.48 0.23 0.72 0.35-0.17-0.02-0.34-0.04-0.5-0.06l-0.21 0.9c-0.97 0.25-1.95 0.51-2.92 0.76l-1.38 3.27 0.07 4.64c3.71 1.21 7.71 1.62 11.54 2.4 2.02-0.9 4.03-1.8 6.05-2.7l-0.01-0.16c5.18-4.03 10.59-7.35 15.99-11.05 5.72-3.93 12.25-5.4 19.01-6.59l0.84-1.64-0.85-1.86-3.28 0.8-15.63-51.3-4.26 5.13-0.03 0.95c5.4 15.26 10.79 30.51 16.19 45.77l1.35 0.03c-10.76 2.63-19.76 8.6-29.74 13.08l-0.01-0.1-2.73 0.69-0.36-1.35-1.73-0.76 0.92-1.14-0.9-1.22c0.23-3.21 0.16-5.75-0.36-8.92l-0.26-0.07 3.28-23.56c-0.86 1.29-2.77 3.2-3.05 4.77-0.4 2.25-0.81 4.5-1.21 6.75-0.69 3.83-1.36 7.66-2.03 11.49"/>
    <path id="path6885" fill="#f8c20f" d="m240 547.76 3.5-1.02c0.55-1.39 0.39-3.08 0.47-4.54l-1.02-2.78-2.11-1.94 0.02-2.27-1.31-1.22-1.93 0.86-0.7 3.41-2.03 1.19 0.34 8.47 4.77-0.16"/>
    <path id="path6887" fill="#f8c20f" d="m243.91 557.43c-3.04 0.48-5.07 0.65-8.09 0.13l0.21 4.53 0.61-0.23 0.72-1.51 4.51 0.93 2.15-1.77-0.11-2.08"/>
    <path id="path6889" fill="#f8c20f" d="m236.09 570.38c0.69 10.81 1.21 21.62 1.88 32.43l5.92-0.44-0.03-38.55c-2.11-0.01-3.71-0.33-5.76-0.88 0.68 1.08 1.04 1.82 1.35 3.05l-3.37 0.54 0.01 3.85"/>
    <path id="path6891" fill="#f8c20f" d="m246.12 607.35c-0.77-1.59-1.52-3.17-2.23-4.78-1.9 0.14-3.79 0.18-5.7 0.23-0.27 1.74-0.92 3.28-1.54 4.93l-1.45 0.72 0.51 1.07 1.8 1.29c0.64 1.91 1.23 3.49 2.26 5.2l1.57 1.17-0.13 2.28 1.42-0.03 0.11-2.28 1.88-1.97c0.59-1.78 0.98-3.29 1.2-5.14l1.87-0.95 0.18-0.91-1.75-0.83"/>
    <path id="path6893" fill="#f8c20f" d="m160.76 607.56c2.89-0.98 6.88-3.05 10.05-2.4 3.88 0.8 7.37 1.71 11.1 3.05l1.07-0.91-4.97-32.02c-5.75-0.11-11.42 0.55-17.16 0.42l-3.6 5.75c0.34 9.42-0.91 19.06-1.97 28.41l1.3 0.18 4.18-2.48"/>
    <path id="path6895" fill="#f8c20f" d="m187.91 652.35-0.83-3.55-1.7-1.53c-3.2 0.73-6.44 1.71-9.68 2.2-3.4 0.51-6.95 0.53-10.38 0.79-4.96-1.62-9.27-3.35-13.91-5.73-0.89 2.17-1.47 3.73-1.41 6.08-0.98 1.02-1.91 1.84-3.05 2.68l-1 0.09-0.47 0.99-3.57 2.6 0.1 0.39c2.56 0.13 4.81-0.2 7.36-0.6l-0.08-0.85 0.6-1.76-0.51-1.2 1.38-0.7 3.26 1.51 1.03 2.63c-1.5-0.29-2.49-0.31-4-0.12l-0.49 2.49c0.56 1.81 0.96 3.46 2.01 5.03l1.94 0.02 3.76-2.04 1.02-1.87-0.3-1.44-2.89-2.54 4.54-0.85 2.35 2.7-1.23 3.02 0.49 1.71 1.65-0.24 0.73-1.62-0.22-1.54 1.08-2.08 3.89-0.41 2.2 1.31-2.45 2.68 0.58 1.65 2.84 2.94 3.41-0.41 2.62-3.04 0.16-1.07-3.76-2.12 0.46-1.01 2.54-1.57 2.7 0.61 0.85 1.56-0.07 2.27 0.71 0.98 1.31 0.39 0.65-1.94-1.68-2.57 1.96-2.88 3.83-0.62-0.42 1.45 0.24 2.96 1.84 1.14c1.86-0.2 3.62-0.18 5.49-0.14l1.28-0.97c-1.34-1.22-2.67-2.45-4.01-3.67-1.12-1.03-3.35-1.55-4.75-2.19"/>
   </g>
   <path id="path6897" d="m175.31 658.37c0.54-0.99 1.43-1.29 2.41-1.76 0.93-0.46 2 0.08 2.81 0.55 1.09 0.63 0.58 1.5 0.7 2.5 0.12 0.96 0.44 2.37 1.66 2.46 1.29 0.1 1.22-1.55 1.37-2.41 0.15-0.85-1.32-1.81-1.06-2.54 0.31-0.89 0.67-1.99 1.65-2.39 1.13-0.47 1.9-0.6 3.12-0.67-0.35 2.16-0.96 4.16 1.43 5.25 0.57 0.26 0.86 0.38 1.48 0.17 0.75-0.25 0.96-0.34 1.71-0.04 0.69 0.28 0.83 0.33 1.56 0.19 0.51-0.1 0.97-0.24 1.46-0.44 0.46-0.19 1.16-0.28 1.28-0.84 0.15-0.67-0.37-0.87-0.84-1.1-0.99-0.5-1.74-1.24-2.32-2.17-0.25-0.4-0.38-0.9-0.8-1.16-0.44-0.27-1.09-0.29-1.58-0.48-0.82-0.31-2.41-0.71-2.95-1.42-0.3-0.39-0.54-0.81-0.71-1.27-0.22-0.64 0.07-1.44-0.24-2.03-0.23-0.44-0.81-0.78-1.14-1.17-0.56-0.69-0.57-0.88-0.6-1.78-0.01-0.49 0.14-1.01 0.23-1.49 0.12-0.63 0.06-1.25 0.05-1.89-0.02-1.15 0.26-2.16 1.45-2.57-0.83-0.51-2.3 0.88-2.97 1.31 0-1.06 1.31-1.78 2.21-2.05-0.42-0.33-1-0.23-1.51-0.22 0.21-0.65 0.67-1.17 0.96-1.77-0.72 0.13-1.33 0.72-1.98 1.04 0-0.9 0.03-1.74 0.15-2.63 0.18-1.25 0.52-1.99 1.11-3.11 0.57-1.09 3.48-2.57 4.34-1.12-0.59-0.02-1.14 0.14-1.68 0.37-0.88 0.37-1.08 0.73-1.65 1.52-0.72 1.01-1.05 2.31-1.56 3.46 1.54-0.33 2.87-1.78 3.94-2.83 0.57 1.87-1.3 2.94-2.16 4.3 0.97-0.17 1.78-0.9 2.47-1.55 0.15 0.9-0.19 1.67-0.45 2.51 2.36-0.41 0.67-5.56 0.6-7.02 0.75-0.07 1.5 0.22 2.25 0.2-0.04-0.55-0.37-1.04-0.58-1.54-0.22-0.52 0.15-1.07 0.41-1.53 0.27-0.47 0.5-0.95 0.78-1.42 0.42-0.7 0.7-0.63 1.51-0.8 1.31-0.26 1.59-0.99 2.22-2.05 0.56-0.96 1.27-1.71 1.42-2.85 0.13-1.07 0.48-2.02 0.46-3.1-0.02-0.76-0.14-0.77 0.55-0.9 0.6-0.11 1.18-0.23 1.77-0.37 1.05-0.25 1.58-1.46 2.11-2.29 0.19-0.31 0.79-0.75 1.15-0.74 0.5 0.01 1.44 0.28 1.25-0.48-0.13-0.53-0.47-1.16-0.96-1.43 3.15-3.13 7.53-4.96 11.01-7.7 0.96-0.75 1.76-1.51 2.46-2.51 0.54-0.78 0.78-1.95 0.92-2.88 0.31-2.14 0.71-4.1 0.31-6.26-0.21-1.15-0.26-2.05-0.16-3.21 0.08-1.02 0.16-2.07 0.19-3.09 0.02-1.01 0.07-2.21 0.6-3.09 0.8-1.32 2.25-2.25 3.35-3.32 1.27-1.24 2.44-2.56 3.54-3.95 1.38-1.73 2.79-3.5 3.93-5.4 1.04-1.72 2.05-4.3 4.46-4.11 0.74 0.06 0.94 0.02 1.29 0.67 0.23 0.42 0.18 1 0.26 1.48 0.42 2.65 0.42 5.42 0.58 8.1 0.18 3 0.42 6.02 0.48 9.02 0.05 2.57 0.35 5.11 0.41 7.67 0.07 2.8 0.59 5.61 0.49 8.41-0.04 1.27-0.26 2.16-0.71 3.35-0.14 0.38-0.36 0.94-0.63 1.24-0.34 0.38-1.05 0.44-1.31 0.86-0.98 1.62 1.69 2.39 2.29 3.58 0.71 1.39 0.69 3.15 1.78 4.35 0.33 0.37 0.61 0.71 1.05 0.95 0.82 0.42 0.68 0.17 0.68 1.1-0.02 0.51-0.17 1.15 0.15 1.6 0.43 0.6 0.94 0.23 1.5 0.02 0.57-0.21 0.54-1.02 0.56-1.5 0.02-0.53 0.23-0.9 0.57-1.3 0.69-0.78 1.38-1.54 1.73-2.54 0.37-1.04 0.36-2.15 0.69-3.2 0.31-1.01 1.96-1.36 2.07-2.42 0.07-0.65-0.49-0.94-0.92-1.32-0.4-0.35-0.7-0.68-1.03-1.1-0.73-0.93-1.28-1.83-1.63-2.97-0.76-2.48-0.54-5.25-0.57-7.82-0.03-2.78 0.02-5.56 0.02-8.34 0-2.68-0.02-5.35 0.06-8.03 0.08-2.47-0.21-4.96-0.08-7.42 0.03-0.53 0.21-1.09 0.2-1.62-0.03-1.21-0.05-2.42-0.08-3.62-0.02-1.09-0.18-1.99 0.69-2.75 0.67-0.58 2.36-1.01 2.56-1.98 0.26-1.21-0.02-2.17-0.26-3.38-0.08-0.4-0.5-0.93-0.67-1.31-0.24-0.54-0.05-1.12 0.04-1.68 0.18-1.06-0.59-2.08-0.26-3.14 0.35-1.13-0.03-2.04-0.32-3.12-0.13-0.48-0.04-0.96-0.02-1.44 0.03-0.59-0.06-1.11-0.22-1.68-0.33-1.21-0.07-2.65-0.01-3.89 0.07-1.36 0.11-2.74 0.24-4.1 0.28-2.95-0.07-5.96 0.38-8.91 0.19-1.3 1.19-2.45 0.94-3.79-0.17-0.89-0.29-1.31-0.81-2.05-0.21-0.29-1.57-0.3-1.95-0.25-1.34 0.18-2.6 0.94-3.98 0.97 0-1.17 0.1-2.19 0.47-3.3 0.08-0.25 0.71-1.98 0.08-1.96-0.88 0.02-0.62 1.33-0.7 2.01-0.1 0.94-0.36 1.86-0.63 2.76-0.98-1.46-0.67-3.3-0.26-4.9 0.21-0.81 0.46-1.62 0.64-2.44 0.05-0.21 0.12-1.74-0.56-1.16-0.41 0.34-0.17 1.34-0.22 1.81-0.15 1.33-0.47 2.63-0.66 3.96-0.84-1.47-0.41-3.35-0.17-4.94 0.13-0.89 0.27-1.79 0.41-2.68 0.12-0.8 0.67-1.55 0.56-2.39-1.22 0.02-0.96 2.02-1.12 2.87-0.24 1.23-0.45 2.45-0.74 3.67-1.02-1.46-0.39-3.44-0.16-5.06 0.14-0.99 0.2-1.99 0.5-2.95 0.21-0.68 0.59-1.56 0.2-2.25-1.08 0.9-0.97 3.22-1.24 4.51-0.09 0.42-0.07 2.01-0.37 2.28-0.7 0.61-0.76-1.65-0.78-1.94-0.18-2.3 0.56-5.04 1.09-7.27 0.14-0.58 0.58-1.59-0.29-1.79-0.22 1.31-0.4 2.63-0.6 3.95-0.19 1.26-0.26 2.75-0.99 3.84-0.36-1.09-0.58-1.96-0.29-3.09 0.11-0.44 0.33-0.86 0.29-1.32-0.04-0.49-0.13-1.01-0.06-1.5 0.14-1.04 0.26-2.08 0.51-3.11 0.16-0.68 0.82-2.28-0.43-2.24 0.05 2.56-0.4 5.06-1.09 7.52-1.22-1.78-0.6-4.15-0.26-6.12 0.17-0.98 0.26-1.98 0.47-2.96 0.19-0.9 0.85-2.4-0.21-2.93-0.51 1.05-0.25 2.63-0.48 3.79-0.31 1.58-0.47 3.18-0.85 4.74-1.25-1.66-0.68-3.92-0.47-5.79 0.15-1.29 0.24-2.59 0.41-3.88s0.8-2.68 0.77-3.98c-0.01-0.41 0.03-0.38-0.38-0.37-0.35 0.01-0.38-0.06-0.37 0.28 0.03 1.61-0.3 3.19-0.48 4.79-0.19 1.67-0.33 3.36-0.81 4.97-0.64-1.02-1.54-2.63-1.47-3.88 0.11-1.82 0.35-3.61 0.62-5.41 0.25-1.7 0.25-3.63 0.8-5.27 0.22-0.66 0.55-1.56-0.3-1.93-0.52 1.08-0.38 2.77-0.52 3.95-0.17 1.46-0.3 2.91-0.56 4.36-0.17 0.93-0.27 1.88-0.69 2.73-0.71-2.04-1.62-3.92-1.92-6.08-0.13-0.99 0.14-2 0.33-2.97 0.22-1.14 0.27-2.29 0.39-3.44 0.12-1.08 0.41-2.15 0.69-3.2 0.06-0.21 0.34-1.14 0.15-1.32-0.04-0.04-0.71-0.02-0.75 0.02-0.1 0.09 0.02 0.81 0.02 0.96 0.03 1.36-0.4 2.77-0.56 4.12-0.19 1.58-0.49 3.14-0.76 4.7-1.01-1.44-1.73-3.55-1.99-5.28-0.15-0.99 0-2.01 0.14-2.99 0.12-0.83 0.54-2.16 0.36-2.96-0.66 0.58-0.83 2.11-1.08 2.93-0.09 0.3-0.04 0.35-0.36 0.35-0.51 0.01-0.04-0.21-0.26-0.5-0.52-0.67-0.81-0.02-1.02 0.43-0.07 0.14-0.51 1.06-0.39 1.14 0.48 0.31 0.7 0.68 0.93 1.19 0.41 0.93 0.76 2.12 0.58 3.15-0.92 5.13-1.06 10.43-2.16 15.51-0.17 0.77-0.7 1.44-1.1 2.11-0.74 1.23-1.5 3.07-2.75 3.85 0.05-2.11 0.58-4.15 0.62-6.26-0.73 0.76-0.6 2.27-0.69 3.24-0.19 1.84-0.42 3.91-0.89 5.7-0.66 2.59-1.8 5.04-2.44 7.65-0.66 2.69-1.35 5.47-1.66 8.23-0.38 3.17-0.52 6.3-0.67 9.49-0.05 0.99 0.26 2.43-0.46 3.26-0.29 0.34-0.99 0.46-1.18-0.06-0.17-0.47 0.01-1.08 0.01-1.58 0.03-3.76 1.13-7.53 1.46-11.28s0.85-7.57 1.46-11.28c0.63-3.86 0.93-7.77 1.53-11.63 0.29-1.85 0.5-3.68 0.69-5.55 0.2-1.96 0.68-3.9 0.64-5.88-0.85 0.75-0.71 1.73-0.69 2.77 0.03 1.75-0.47 3.54-0.63 5.29-0.18 1.93-0.42 3.83-0.7 5.75-0.59 4.12-0.98 8.26-1.63 12.38-0.63 3.94-0.88 7.93-1.47 11.87-0.27 1.79-0.5 3.57-0.78 5.36-0.16 1.01-0.27 2.02-0.45 3.02-0.19 1.08-0.31 1.35-1.14 2-0.34-0.97-1.09-1.71-1.31-2.72-0.22-1.02-1.12-1.79-1.04-2.88 0.09-1.17 0.33-2.29 0.39-3.47 0.09-2.04-0.88-4.06-0.46-6.11 0.76-3.71 1.07-7.63 1.59-11.4 0.26-1.94 0.62-3.86 0.9-5.79 0.2-1.4 0.96-3.49 0.65-4.9-1.03 0.66-0.81 1.78-1.02 2.81-1.24 6.43-1.6 13.03-2.8 19.46-0.07 0.36-0.08 0.74-0.17 1.1-0.13 0.52-1.3 0.1-1.67-0.02-0.2-0.06-0.4-0.15-0.61-0.21 0.49-0.97 0.44-2.47 0.57-3.53 0.19-1.6 0.43-3.2 0.69-4.79 0.25-1.53 0.45-3.06 0.68-4.6 0.18-1.21 0.19-2.79 0.66-3.92 0.31-0.72 0.8-1.49 1-2.24-0.8 0.49-1.43 1.73-1.85 2.54-0.59 1.12-0.46 2.44-0.53 3.65-0.08 1.38-0.36 2.73-0.61 4.08-0.5 2.79-0.53 5.69-1.36 8.42-0.28 0.93-0.81 1.93-1.18 2.84-0.76 1.85-1.06 3.96-1.64 5.88 0.31 0.16 0.76 0.19 1.07 0.02 0.24-0.13 0.46-0.24 0.63-0.46 0.08-0.12 0.21-0.55 0.28-0.6 0.06-0.04 0.69-0.06 0.75-0.02 0.11 0.08 0.15 0.67 0.18 0.81 0.11 0.48 0.11 0.94 0.12 1.44 0.98-0.04 1.61-1.4 2.21-2.05 0.04 0.88 0.64 1.72 1.05 2.48-1.89 0.02-3.61-0.17-5.39-0.84-0.41-0.15-0.84-0.26-1.26-0.39-0.34-0.1-0.97 0.6-1.23 0.81-0.82 0.63-0.38 1.46-0.08 2.34-0.58 0.13-1.15 0.27-1.74 0.29 0.06-3.17 1.34-6.37 1.82-9.51 0.52-3.43 1.58-7.08 1.52-10.56-1.57 1.43-1.09 3.99-1.46 5.91-0.4 2.05-0.46 4.15-0.91 6.19-0.48 2.14-0.94 4.28-1.34 6.44-0.39 2.12-2.41 3.74-2.47 5.88-0.02 0.77-0.03 1.55 0 2.32 0.03 0.72 0.3 1.45 0.13 2.17-0.29 1.2-0.68 3.28-1.77 4.02-0.06-2.73-0.9-5.58-1.32-8.28-0.46-2.88-0.97-5.75-1.03-8.67-0.4 0.25-0.68 0.69-0.93 1.08-0.24 0.38-0.7 0.84-0.27 1.13 0.71 0.47 0.65 2.24 0.8 3.02 0.88 4.46 1.42 9.03 2.13 13.52 0.72 4.56 1.5 9.11 2.32 13.65 0.83 4.57 1.94 9.14 3.25 13.59 0.63 2.14 1.13 4.32 1.9 6.41 0.71 1.92 1.68 3.86 2.03 5.88-1.3-1.61-2.32-3.87-3.03-5.81-2.78-7.54-5.3-15.07-7.04-22.92-0.9-4.05-1.84-8.1-2.66-12.17-0.79-3.93-1.68-8.05-1.88-12.05-1.07 0.65-0.96 1.73-0.69 2.76 0.68 2.62 1 5.45 1.35 8.14 0.38 2.99 1.28 5.92 1.91 8.86 1.29 6.07 2.62 12.25 4.6 18.15 1.43 4.26 3.11 8.38 4.82 12.53 1.64 3.98 4.37 7.94 7.68 10.72 1.68 1.41 3.36 2.73 5.4 3.58 1 0.42 2.15 0.64 3.21 0.26 1.04-0.38 1.88-1.1 2.83-1.64-0.5 0.87-1 1.79-1.7 2.52-1.46 1.52-3.58 2.58-5.33 3.74-1.76 1.17-3.65 2.9-5.65 3.63-0.57 0.21-1.04 0.54-1.6 0.21-0.42-0.24-0.76-0.63-1.04-1.02-1.35-1.91-2.58-3.84-3.8-5.84-2.34-3.83-3.68-8.14-5.34-12.28-1.53-3.83-2.36-7.88-3.52-11.83-1.22-4.14-2.37-8.28-3.18-12.52-0.77-4.02-1.53-8.09-1.99-12.17-0.48-4.28-1-8.69-1.1-12.99-1.48 1.31-2.44 3.59-3.5 5.24-1.02 1.61-2.42 3.2-2.48 5.14-0.11 3.15 0.07 6.33 0.15 9.48 0.02 0.87-0.08 2-1.21 2.04-0.08-3.6 0.1-7.15 0.02-10.75-0.88 0.53-0.97 1.63-0.85 2.54 0.28 2-0.01 4.17 0.04 6.19 0.02 0.82-0.14 2.05-1.21 2.07-0.05-2.45-0.38-5.07-0.16-7.5-0.69 0.64-1.79 1.57-1.64 2.61 0.15 1.05 0.51 2.51 0.23 3.54-0.14 0.52-0.16 1.25-0.68 1.53-0.43 0.23-1.28 0.18-1.74 0.13-0.51-0.05-1.16-0.62-1.42-0.2-0.3 0.48-0.64 0.97-0.8 1.52 2.91-0.09 5.84-0.23 8.75-0.2 0.75 0.01 0.74-0.1 0.76 0.65 0.01 0.61 0.22 0.85-0.4 0.86-1.53 0.04-3.07 0.11-4.6 0.07-1.56-0.04-3.09 0.45-4.64 0.28-0.57-0.06-0.68-0.65-1.06-0.06-0.23 0.36-0.44 0.77-0.51 1.19 2.15-0.09 4.26-0.34 6.41-0.38 1.47-0.03 5.76-0.73 5.09 2.01-0.09 0.38-0.11 1.28-0.54 1.41-0.54 0.15-1.13 0.38-1.69 0.42-3.33 0.2-6.76 0.08-10.07 0.53-0.51 0.07-1.43-0.4-1.87-0.18-0.34 0.17-0.66 1.17-0.72 1.52 4.4-0.26 8.77-0.46 13.18-0.52 0.97-0.01 2.45 0.82 0.84 1.43-1.11 0.41-2.45 0.09-3.6 0.14-1.49 0.07-2.96 0.03-4.44 0.04-2.11 0.01-5.05 1.31-6.96-0.06-0.32 0.65-0.84 1.3-0.96 2.02 1.02-0.37 1.9-0.54 2.99-0.56-2.86 3.16-3.35 7.23-3.26 11.32 0.04 2.02 0.46 4.01 1.05 5.94 0.63 2.05 2.18 3.53 3.68 4.97-2.33 0.04-4.43 1.27-6.72 1.39-0.03-1.51 0.44-3.02 0.41-4.53-0.06-2.42-0.05-4.85-0.18-7.27-0.13-2.47-0.76-4.98-0.37-7.45-0.7 0.42-1.08 1.24-1.48 1.92-0.56 0.97-1.2 1.9-1.8 2.84-1.13 1.76-2.42 3.46-3.27 5.38 0.89-0.39 0.49 2.23 0.39 2.74-0.19 1.04-0.19 2.13-0.34 3.18-0.3 2.08-0.81 4.14-1.28 6.18-0.95 4.15-1.97 8.29-4.02 12.01-0.39 0.71-1.01 1.18-1.65 1.65-0.54 0.4-1.06 1.4-1.66 1.63-0.58 0.21-1.06-0.08-1.63-0.26-1.43-0.44-3.27-0.83-4.53-1.65-0.11-0.07-0.98-0.96-1.04-0.87-0.29 0.46-0.63 0.9-0.86 1.4-0.36 0.8-0.36 1.03-0.23 1.9 0.16 1.07 0.24 2.06 0.12 3.14-0.27 2.38 0.63 4.39 3.22 4.64 1.1 0.1 2.14-0.34 3.25-0.15 0.93 0.15 2.18 0.93 2.06 2.04-0.12 1.05-0.92 1.84-0.98 2.94-0.07 1.16 0.16 2.14 0.8 3.11 1.31 1.97 3.9 2.13 6.03 1.84 0.15-0.02 1.3-0.3 1.3-0.13 0.01 0.63-0.06 1.19-0.16 1.82-0.13 0.88-0.14 2.25 0.11 3.12 0.28 0.95 0.95 2.3 0.82 3.3-0.14 1.17-0.81 2.11-1.03 3.22 0.82-0.02 1.82 0.3 2.03 1.21-0.75 0.02-1.5 0.03-2.25 0.05 0.3 1.6-1.02 2.88-2.32 3.54-0.63 0.32-1.48 0.38-1.95 0.94-0.41 0.5-0.61 1.26-1.2 1.6-0.54 0.32-1.08 0.64-1.61 0.96-0.34 0.2-1.13 0.1-1.52 0.13 0.01 0.89 0.71 1.67 1.61 1.64 0.56-0.02 1.03-0.02 1.57 0.07 0.74 0.11 0.99 0.08 1.69-0.16 0.88-0.31 1.82-0.25 2.69-0.55 1.23-0.45 0.98-1.17 0.91-2.42-0.96 0.47 0.04 1.99-0.96 2.02-0.46 0.01-1.03 0.17-1.48 0.1-0.47-0.06-0.83-0.42-1.28-0.54-0.29 1.49-2.87 1.03-3.98 1.08 0.28-0.54 0.84-0.78 1.35-1.06 0.77-0.41 1.43-1 2.22-1.36 0.74-0.34 1.48-0.87 2.25-1.1 0.72-0.22 1.42 0.17 2.12 0.36-0.06-0.34-0.08-0.69-0.27-0.99 1.86-0.69 4.84 0.65 4.56 2.91-1.14-0.86-2.3-0.36-3.48 0.14-0.45 0.19-0.43 1.08-0.47 1.51-0.05 0.51-0.01 1 0.17 1.48 0.28 0.74 0.29 1.42 0.49 2.18 0.18 0.7 0.95 2.7 1.83 2.75 0.77 0.04 1.17-0.17 1.88-0.31-0.37-0.26-1.13-0.16-1.58-0.2-0.6-0.06-0.7-0.8-0.87-1.25-0.16-0.44-0.8-0.91-0.74-1.39 0.06-0.5 0.8-0.79 1.1-1.12-0.41-0.4-1.07-0.65-1.54-0.99-0.46-0.34 0-1.67 0.1-2.07 0.12-0.49 1.54-0.52 1.92-0.51 0.68 0.01 1.12 0.67 1.22 1.29l-1.5 0.03c0.21 1.15 1.04 2 1.07 3.23 0.74-0.5 1.57-1.16 2.47-1.3-0.08-0.35-0.28-0.71-0.27-1.08 0.01-0.66 0.17-0.69 0.77-0.91 0.68-0.25 0.62-0.27 1.1 0.27 0.28 0.32 0.55 0.65 0.84 0.96 0.65 0.71 0.28 1.58-0.36 2.16-0.3 0.26-0.66 0.81-1.11 0.69-0.39-0.1-0.78-0.27-1.18-0.34 0.02 0.85-0.81 1.57-1.2 2.28 1.11-0.19 2.11-0.92 3.17-1.3 0.87-0.31 1.31-1.87 1.48-2.64 0.14-0.67-1.05-2.17-1.5-2.63-0.23-0.23-1.15-0.53-0.8-0.98 0.15-0.2 1.47-0.28 1.74-0.29 1.12-0.02 2.26 0.47 3.07 1.2 1.13 1.01 0.1 1.71-0.28 2.74-0.29 0.79-0.27 2.41 0.44 2.97 0.37 0.29 1.02 0.25 1.42 0.08 0.63-0.26 0.69-0.84 0.94-1.45 0.32-0.81 0.25-1.53 0.23-2.4-0.01-0.87 0.69-1.42 1.53-1.65 0.93-0.25 1.71-0.27 2.66-0.14 0.41 0.06 2.03 0.44 2.04 0.83 0.01 0.72-0.09 0.36-0.5 0.74-0.33 0.31-0.59 0.55-0.97 0.8-0.85 0.58-1.05 1.16-0.58 2.05 0.34 0.65 0.47 1.76 1.29 2.01 0.58 0.18 1.8 0.96 1.16 1.68 0.96 0.49 2.38 0.22 3.4 0.07 0.71-0.1 1.17-0.13 1.74-0.6 0.53-0.45 1-0.97 1.54-1.43 0.34-0.29 0.58-1.02 0.65-1.46 0.15-0.94 0.37-1.23-0.42-1.79-0.98-0.78-1.77-1.72-3.05-1.7m-2.91 4.32c-0.72-0.13-1.56 0.43-2.13-0.27-0.37-0.45-1.27-1.78-0.28-2.09 0.12-0.04 0.19-0.09 0.32-0.09 0.49-0.01 0.12-0.09 0.34-0.39 0.2-0.26 0.29-0.53 0.67-0.46 0.88 0.17 1.63 0.58 1.79 1.54-0.39-0.04-0.7 0-1 0.27 0.88 0.26 1.69 1.13 2.04 1.96 0.35-0.45 0.65-0.95 1.08-1.33 0.28-0.25 0.89-0.29 0.88-0.71-0.01-0.43-0.13-0.11-0.39-0.34-0.28-0.25-0.62-0.32-0.32-0.7 0.37-0.47 0.44-0.9 0.98-0.59 0.36 0.2 0.57 0.58 0.94 0.75 0.36 0.17 0.72 0.31 1.08 0.48 0.37 0.17-0.02 0.57-0.17 0.85-0.19 0.35-0.4 0.69-0.58 1.04-0.34 0.67-0.69 0.26-1.29 0.28-0.32 0.01-0.47 1.28-0.93 1.57-0.7 0.44-1.71 0.53-2.49 0.3-1.16-0.35-0.68-1.18-0.54-2.07m-10.28-1.29c0.6-0.35 0.72-1.02 1.03-1.59 0.41-0.76 0.89-1 1.22-0.05 0.25 0.7-0.08 1.54-0.6 1.97-0.29 0.24-0.55 0.63-0.95 0.45-0.35-0.15-0.56-0.41-0.7-0.78m19.48-1.41c0.39 0.18 0.69 0.46 1.02 0.73 0.02-0.7 0.05-1.32 0.21-2 0.97 0.16 1.32 1.54 0.75 2.27-0.3 0.39-0.93 0.14-1.36 0.09-0.36-0.04-0.61-0.81-0.62-1.09m-7.99 0.67c0.58 0.01 0.99 0.4 1.02 0.98-0.53 0.03-1.02-0.45-1.02-0.98m18.69-3.14c-0.62-0.1-0.59 0.35-0.89 0.77-0.17 0.23-1.1 1.08-1.39 0.69-0.35-0.48-0.87-0.6-1.43-0.74-0.5-0.13-0.49-0.04-0.5-0.53 0-0.22 0.12-0.47 0.16-0.68 0.07-0.38-0.16-1.39 0-1.67 0.16-0.26 1.33-0.42 1.68-0.5 0.42-0.1 1.61-0.48 1.52 0.23-0.06 0.49-0.42 1.06-0.68 1.47 0.49-0.18 0.93-0.28 1.45-0.37 0.43-0.07 0.98 0.42 1.46 0.43 0.2 0 0.26-0.19 0.43-0.05 0.33 0.28 0.65 0.56 0.98 0.83 0.36 0.31 0.8 0.54 1.21 0.79-0.37 0.69-1.34 0.7-2.02 0.74-0.42 0.03-0.99 0.22-1.29-0.11-0.36-0.39-0.49-0.8-0.69-1.3m-38.22 1.8c0-0.23-0.2-0.82-0.02-1 0.1-0.09 0.9-0.11 1-0.02 0.13 0.13 0.05 0.71 0.04 0.88-0.02 0.34-0.79 0.13-1.02 0.14m17.19-2.86c0.76-0.04 1.49-0.28 2.27-0.3l2.73-0.06c-0.23 0.48-0.63 0.86-1.02 1.21-0.23 0.2-0.49 0.4-0.68 0.63-0.1 0.13-0.38 0.65-0.49 0.7-0.76 0.32-2.66-1.53-2.81-2.18m-7.72 1.16c-0.24-0.49-0.63-0.96-0.78-1.48 0.87-0.49 1.91-0.19 2.75 0.19-0.36 0.72-1.15 1.26-1.97 1.29m16.71-1.85c0.49-0.81 2.34-1.19 3.22-1.32-0.08 0.82-0.74 1.58-1.18 2.24-0.16 0.24-1.79-0.77-2.04-0.92m12.24-0.51c-0.17-0.78 1.04-0.54 0 0m-7.16-7.6c0.06 0.48 0.07 0.93 0.09 1.42 0.04 0.94 0.11 0.97 0.85 1.55 0.18 0.14 0.92 0.38 0.84 0.6-0.19 0.59-0.64 0.87-1.14 1.2-1.79 1.18-4.23 1.63-6.27 2.16-2.08 0.54-4.15 0.79-6.3 0.83-1.7 0.04-3.41 0.09-5.11 0.09-0.77-0.01-0.83-0.58-1.06-1.17-0.24-0.62 0.11-1.89 0.17-2.54 0.1-1.1 0.38-1.45 1.47-1.53 0.87-0.07 1.71 0.01 2.58 0.08 1.02 0.09 1.91-0.06 2.92-0.18 1.95-0.23 3.88-0.52 5.8-0.92 1.67-0.35 3.45-1.69 5.16-1.59m-29.83 8.13c-0.45-0.64-0.79-1.44-0.8-2.23 1.06 0.16 2.72 0.36 3.28 1.43-0.84 0.26-1.61 0.63-2.48 0.8m10.49-0.47c-0.26-0.44-0.09-1.17 0.47-1.26-0.02 0.48-0.05 0.95-0.47 1.26m-1.51-0.22c-0.08-0.35-0.22-0.67-0.02-1 0.32 0.32 0.46 0.7 0.02 1m-1.5-0.22c-0.21-0.4-0.22-0.85-0.03-1.25 0.49 0.26 0.46 0.96 0.03 1.25m12.7-2.27c-0.52-0.9-1.84-1.39-2.84-1.52-0.84-0.11-3.01 0.29-2.99 1.5 0.02 0.81 2.23 1.75 2.86 1.74 0.96-0.01 2.26-1.14 2.97-1.72m-14.21 2.05c-0.45-0.8-0.2-1.77-0.07-2.62 0.11-0.7-0.22-1.88 0.46-2.39 0.35 0.66 0.39 1.65 0.28 2.38-0.1 0.73 0 2.16-0.67 2.63m9.46-2.2c0.58-0.21 1.07-0.39 1.68-0.47 0.62-0.08 1.22 0.33 1.81 0.4-0.25 1.69-3.46 1.86-3.49 0.07m-10.97 1.73c-0.31-0.53-0.23-1.37 0.47-1.51 0.04 0.53 0 1.19-0.47 1.51m27.24-1.07c0.21-0.35 0.63-0.33 0.99-0.27-0.27 0.24-0.64 0.27-0.99 0.27m-28.75 0.6c-0.03-0.34 0.12-0.7 0.48-0.76-0.11 0.3-0.2 0.57-0.48 0.76m21.74-0.82c0.95-0.22 2.31-0.48 2.81-1.38 0.55-1-0.57-1.79-1.45-1.87-0.43-0.04-1.07-0.13-1.46 0.14-0.36 0.25-1.26 0.64-1.45 1.01-0.09 0.17-0.06 1.37 0.07 1.5 0.52 0.5 0.76 0.5 1.48 0.6m-16.76-0.28c0.54-0.56 2.98-0.88 3.01 0.19 0.02 1.1-2.51 0.13-3.01-0.19m-6.49 0.39c-0.01-0.33-0.01-0.67-0.02-1 0.34 0.19 0.51 0.61 0.52 0.99-0.16 0-0.35 0.04-0.5 0.01m22.23-0.97c-0.16-0.75 0.71-0.91 1.3-1.05 0.39-0.1 1.6-0.47 1.93-0.01 0.64 0.88-2.64 1.37-3.23 1.06m-23.74 0.5c-0.22-0.7 0.1-1.35-0.04-2 0.95 0.11 1.1 2.17 0.04 2m-6.75 0.14c0.13-0.72 0.89-0.73 1.48-0.78-0.35 0.48-0.95 0.59-1.48 0.78m8.46-1.93c0.48-0.27 0.98-0.28 1.5-0.17 0.31 0.06 1.55 0.54 1.27 1.11-0.18 0.37-1.21 0.21-1.48 0.15-0.66-0.14-1.05-0.42-1.29-1.09m-3.22 1.32c-0.03-1.61-0.09-3.16 0.15-4.75 1.01 0.17 0.79 1.85 0.8 2.58 0.01 0.46-0.13 0.95-0.23 1.4-0.1 0.47-0.11 0.87-0.72 0.77m-1.27-0.72c-0.33-0.57-0.33-1.6 0.46-1.76-0.01 0.59 0.1 1.36-0.46 1.76m10.25-0.47c-0.06-0.52 0.27-0.71 0.73-0.77 0.11 0.56-0.18 0.86-0.73 0.77m22.96-1.73c0.42-0.05 0.88 0.04 1.26 0.22-0.33 0.49-1.15 0.43-1.26-0.22m-25.73 1.29c0-0.17-0.05-1.22 0.49-0.77 0.08 0.07 0.01 0.58 0.01 0.69 0.01 0.12-0.39 0.09-0.5 0.08m-8.99 0.19c-0.08-0.35-0.22-0.67-0.02-1 0.31 0.32 0.45 0.7 0.02 1m4.43-27.35c0.06 0.34 0.17 0.66 0.27 0.99-0.34-0.05-0.67-0.14-1-0.23 0.19 1.19 2.06 1.76 1.82 3.21-0.83-0.11-1.52-0.69-2.24-1.07-0.7-0.37-1.57-0.29-2.21-0.78-0.62-0.47-0.8-1.57-0.88-2.29-0.09-0.84 0.27-1.67 0.19-2.5 0.96 0.52 0.6 1.8 1.15 2.55 0.64 0.86 1.26 2.22 2.45 2.38-0.32-0.57-0.88-1.06-1.08-1.67-0.23-0.72-0.33-1.55-0.18-2.3 0.09-0.42 0.09-0.53 0.5-0.4 0.96 0.28 1.76 1.18 2.7 1.58-0.62-1.12-1.82-1.8-1.82-3.21 0.81 0.16 1.57 0.78 2.28 1.2-0.38-1.06-1.52-1.77-1.56-2.97 0.54 0.27 0.99 0.68 1.52 0.97-0.46-0.85-1-1.77-0.56-2.74 1.31 1.01 1.83 2.86 3.09 3.94-0.3-1.7-2.72-3.1-1.85-4.96 0.62 0.46 0.97 1.2 1.42 1.8 0.58 0.79 1.31 1.44 1.67 2.38 0.45-1.32-4.1-5.61-1.38-6.22-0.02 1.78 1.81 3.09 2.35 4.7 0.33-0.68-0.23-1.65-0.55-2.24-0.43-0.79-0.72-1.32-0.8-2.23 1.28 0.24 2.91 1.72 3.31 2.93 0.38-1.06-0.83-1.92-1.47-2.54-0.42-0.41-1.1-0.86-1.21-1.48-0.1-0.52 0.1-1.32 0.5-1.69 1.21-1.11 2.05 0.38 2.1 1.49 0.05 1.06-0.04 2.61 1.07 3.19-0.13-0.46-1.02-2.26 0.21-2-0.24-0.7-0.58-1.38-0.84-2.08-0.19-0.49 0.01-1.45 0.3-1.87 0.25-0.36 0.93-0.18 1.29-0.18 0.78 0 0.88 0.1 1.16 0.78 0.26 0.66 0.06 1.57 0.32 2.29 0.45-0.99-0.05-2.25 0.43-3.26 1.18 0.58 1.54 1.85 2.06 2.96 0.19-0.38 0.27-0.84 0.22-1.26 0.39 0.02 0.74 0.34 0.77 0.73 0.54-1.25-1.21-1.76-1.23-2.85-0.02-0.85 0.62-0.88 1.23-0.81 0.51 0.06 0.22 0.78-0.3 0.67 0.4 1.12 1.88 1.05 2.3 2.2 0.17-0.48-0.16-0.9-0.47-1.23-0.12-0.12-0.28-0.2-0.41-0.3-0.41-0.3-0.31-0.09-0.37-0.6-0.05-0.43 0.17-0.94-0.06-1.35-0.34-0.6-0.9-0.46-1.44-0.32-1.03 0.26-2.03 1.05-3.04 1.2-0.51 0.07-1-0.22-1.5-0.16-0.79 0.1-1.4 0.81-2.14 1.07-0.8 0.28-1.7 0.46-2.19 1.22-0.65 1.03-1.37 1.67-2.28 2.46-0.9 0.78-1.77 1.59-2.7 2.34-0.85 0.69-1.28 1.49-1.79 2.43-0.53 0.97-0.77 2-1.23 3-0.14 0.3-0.04 0.4-0.39 0.41-0.33 0.01-0.33-0.17-0.36-0.49-0.04-0.54 0.11-1.11 0.27-1.63 0.33-1.07 0.77-2.1 1.16-3.15 0.39-1.01 0.54-2.14 1.12-3.07 1.21-1.94 3.27-3.06 5.23-4.1 1.94-1.02 3.98-1.74 6.08-2.35 1.82-0.52 3.9-0.4 5.75-0.13 1.07 0.16 2.12 0.44 3.18 0.69 0.68 0.16 2.1 0.38 2.3 1.21-1.55 0.24-3.07 1.35-4.2 2.34 0.19 0 0.89-0.12 1-0.02 0.11 0.09 0.02 0.83 0.02 1 0.45-0.58 1.3-1.8 2.01-2.06 1.17-0.42 1.86-0.02 3 0.39 1.12 0.4 0.5 1.61 0.03 2.25-0.24 0.33-0.72 0.48-1 0.77-0.31 0.33-0.56 0.65-0.74 1.07 0.41-0.33 2.86-2.54 3.45-2.32 0.66 0.25 0.14 1.85 0.06 2.21-0.14 0.61-0.87 1.33-1.22 1.81 0.46-0.22 0.8-0.54 1.18-0.88 0.63-0.55 0.98-0.94 1.46-0.1 0.55 0.97-1.16 2.44-1.9 2.79-1.19 0.57-2.51 0.97-2.89 2.36-0.32 1.18 0.09 2.41-0.18 3.63 0.34-0.45 0.64-0.93 0.96-1.4 0.28-0.42 0.73-0.69 0.99-1.14-0.81 0.43-1.58-0.01-1.52-0.97 0.02-0.34 0.33-0.82 0.6-1.02 0.52-0.4 0.63 0 0.89 0.49 0.25-0.78 0.82-1.25 1.51-1.64 0.65-0.38 1.44-1.04 2.18-1.19 0.02 0.94-0.65 1.82-1.2 2.53 0.62-0.16 0.88-0.64 1.38-0.99 0.12-0.08 0.55-0.42 0.62-0.24 0.11 0.28 0.17 0.5 0.1 0.81-0.27 1.26-1.71 1.64-2.3 2.67 0.8-0.4 1.57-0.92 2.48-1.05-0.04 1.6-2.19 1.83-2.43 3.3 1.23-1.16 2.97-1.76 3.43-3.57 1.64 1.08-0.84 3.38-1.41 4.28 0.49-0.18 0.97-0.45 1.49-0.53 0.05 0.59-0.11 1.17-0.21 1.75-0.9-0.1-1.86-1.05-2.76-1.35-1.27-0.42-2.84 0.68-4.02 1.03-1.78 0.53-3.63 0.58-5.47 0.57-0.86-0.01-1.71-0.14-2.57-0.2-0.66-0.05-1.39 0.08-2.04-0.1-0.54-0.15-1.15-0.41-1.71-0.45-1.06-0.08-2.29-0.07-3.23 0.57-0.49 0.33-0.97 0.65-1.48 0.95-0.21 0.12-0.42 0.2-0.66 0.22-0.44 0.03-0.29 0.3-0.23 0.68 0.11 0.62 0.38 1.21 0.48 1.83 1.19-1.11 2.15-1.02 3.7-0.83 1.1 0.13 1.99 1.41 3.07 1.69-0.6-0.53-1.25-0.99-1.9-1.46-0.46-0.33-1.24-0.62-1.4-1.23 0.51 0.14 1 0.33 1.51 0.47-0.49-0.84-1.42-1.14-2.28-1.45 0.77-0.7 2.31 0.26 3.02 0.69-0.14-0.43-0.37-0.82-0.53-1.24 0.63-0.14 1.36 0.43 1.85 0.73 0.24 0.15 0.97 1.21 1.02 1.21 0.73-0.02 0.12-0.2 0.47-0.57 0.26-0.28 0.6-0.07 0.98-0.03 0.73 0.08 1.26 0.03 1.96 0.29-0.14-1 1-0.57 1.42-0.19 0.38 0.35 0.27 0.44 0.78 0.16 0.24-0.13 0.48-0.06 0.56 0.22 0.6-0.49 1.62-0.62 2.34-0.88 0.31-0.11 0.77-0.1 1.09-0.02 0.4 0.1 0.54-0.46 0.79-0.82 0.51-0.75 1.66-0.76 2.45-0.91 0.69-0.14 1.96 0.65 1.56 1.46-0.35-0.19-1.06-0.58-1.41-0.39-1.71 0.92-2.14 3.08-4.12 3.66-1.17 0.34-2.25-0.51-3.36-0.29-1.22 0.25-2.28 0.51-3.54 0.54 0.02 0.82 0.75 1.41 1.52 1.06 0.35-0.16 0.63-0.48 0.99-0.63 0.46-0.19 1.03-0.23 1.51-0.34 1.72-0.38 1.06 3.36 0.94 4.25-0.11 0.79-0.11 1.59-0.2 2.38-0.12 0.99-0.5 1.95-0.51 2.96-0.02 1.15 0.41 4.45 2.05 4.43-0.63-1.17-1.57-2.61-1.58-3.97 0.49 0.12 0.76 0.61 1.13 0.92 0.6 0.5 1.02 0.66 1.78 0.9 0.86 0.27 2.46-0.69 2.85-1.44-0.92 0.75-2.3 1.42-3.48 0.82 0.73-0.66 1.98-0.65 2.8-1.23 0.84-0.6 0.38-2.36 1.37-2.61 0.1 0.71 0.41 1.37 0.52 2.08 0.12 0.74 0.61 1.94 0.01 2.57-0.36 0.38-0.72 0.76-1.09 1.13-0.22 0.23-0.75 0.23-1.07 0.31-0.9 0.23-1.57 0.36-2.5 0.24 0.83 1.46 3.58 0.05 4.74-0.35 0.27 1-0.04 2.17-0.35 3.12-0.16 0.5-0.23 0.96-0.74 1.21-0.5 0.25-0.95 0.5-1.49 0.64-1.23 0.31-2.46 0.61-3.69 0.89-1.07 0.24-2.13 0.28-3.21 0.47-2.15 0.38-4.72 0.38-6.88 0.06-0.98-0.15-2.09-0.23-3.08-0.26-0.79-0.02-2.33-0.16-2.76-0.91-0.59-1.03-1.32-1.99-1.39-3.23-0.03-0.5 0.1-0.99 0.06-1.5-0.04-0.53-0.18-1.05-0.23-1.57-0.09-1.17-0.81-2.07-1.19-3.15-0.35-0.97-0.22-2.03-0.55-3.01-0.38-1.13-0.65-2.28-0.9-3.44-0.2-0.92 0.04-1.85 0-2.78-0.05-1.21-0.13-2.41-0.15-3.62-0.01-0.35 0.36-1.08 0.1-1.37-0.34-0.39-0.69-0.78-1.15-1.03-0.18-0.02-0.29-0.09-0.4-0.15m3.05 26.44c-0.01-0.23-0.01-0.46-0.02-0.7 0-0.08 0.44-0.12 0.5-0.07 0.08 0.07 0.01 0.58 0.01 0.69 0.01 0.12-0.39 0.1-0.49 0.08m-3.01-0.19c-0.07-0.22-0.42-2.12 0.47-1.51 0.24 0.17 0.17 0.8 0.18 1.04 0.01 0.43-0.26 0.54-0.65 0.47m1.5-0.28c0-0.13-0.02-1.27 0.49-0.76 0.4 0.35-0.09 0.84-0.49 0.76m-4.53-1.4c-0.02-0.53 0.13-1.14 0.72-1.26 0.01 0.36 0.01 0.73 0.02 1.09 0.01 0.3-0.49 0.16-0.74 0.17m6.74-0.39c-1.51-1.96-0.6-4.92-1.66-7.09-0.31-0.64-0.89-1.01-1.27-1.6 2.01-0.04 2.73 1.65 2.83 3.4 0.05 0.93 0.28 1.91 0.3 2.83 0.02 0.7 0.26 1.84-0.2 2.46m-1 0.02c-1.56-0.89-1.54-3.79-0.86-5.23 0.58 0.39 0.76 1.75 0.81 2.39 0.05 0.68 0.55 2.27 0.05 2.84m26.23-1.55c0.03-1.16 0.18-2.13 0.43-3.26 0.98 0.59 0.41 2.76-0.43 3.26m-29.01 0.1c-0.79-0.59-0.76-1.9-0.8-2.78-0.05-1.21-0.11-2.14 0.74-3.05 0.13-0.14 0.31-0.44 0.51-0.46 0.12-0.01 0.66-0.06 0.66 0.06 0.01 0.55 0.02 1.1 0.04 1.65 0.02 0.77-0.09 2.13-0.44 2.82-0.33-0.37-0.4-1.03-0.53-1.49-0.34 1 0.5 2.35-0.18 3.25m17.9-5.12c-0.79 0.68-0.75 1.85-1.9 2.12-0.84 0.19-2.38 0.1-2.54 1.23 1.09-0.24 2.21-0.27 3.19-0.8 0.85-0.46 1.36-1.63 1.25-2.55m-4.7 2.6c-1.16 0.08-2.24-0.07-3.38-0.06-1.13 0.01-2.05-0.4-3.14-0.56 0.74 1.09 2.07 0.75 3.15 1.02 0.97 0.23 2.82 0.82 3.37-0.4m-14.99 0.56c-0.65-0.88-0.83-2.46-0.82-3.53 0.01-0.69 0.02-1.35 0.22-2.02 0.14-0.45 0.49-1.82 1.2-1.72 0.16 0.02 0.51 0.57 0.63 0.71 0.3 0.34-0.31 1.67-0.35 2.07-0.1 1-0.17 1.94-0.34 2.93-0.09 0.52-0.09 1.22-0.54 1.56m-1.75 0.04c-0.97-1.56-1.59-3.37-1.6-5.22-0.01-0.74-0.02-2.33 0.82-2.68 0.54-0.22 0.72-0.03 0.59 0.52-0.1 0.44-0.18 0.93-0.19 1.38 0.18-0.36 0.34-0.73 0.52-1.09 0.24-0.5 0.27-0.93 0.86-0.94 0.64-0.01-0.19 2.63-0.28 3.02-0.22 0.96-0.31 1.91-0.24 2.89 0.05 0.66 0.17 1.69-0.48 2.12m17.83-8.38c0.17 0.53 0.64 1.17 0.54 1.74-0.47-0.08-0.97-0.39-1.43-0.56-0.61-0.22-1.42-0.18-2.06-0.26-1.25-0.14-2.29 0.49-3.51 0.72 0.24-0.5 0.36-0.97 0.47-1.51-0.44 0.27-0.7 0.87-0.96 1.29-0.29 0.48-0.78 0.72-1.24 1.01 0.5 0.56 0.83 0.96 1.49 1.29 0.57 0.28 1.12 0.56 1.67 0.88 1.14 0.65 2.45 1.38 3.82 1.16 1.36-0.21 2.53-0.94 2.9-2.35 0.22-0.85 0.01-1.33-0.37-2.12-0.28-0.56-0.7-1.14-1.32-1.29m-3.41 4.57c0.74-0.02 1.47-0.01 2.21 0 0.61 0.01 1.19-0.47 1.78-0.59-0.23 1.54-3.56 2.21-3.99 0.59m-14.74 0.56c-0.01-0.67-0.03-1.33-0.04-2-0.37 0.43-0.34 1.6 0.04 2m13.74-0.78c-1.05-0.28-1.97-0.91-3.03-1.19 0.61-0.59 3.23 0.27 3.03 1.19m14.47-1.56c0.39 0.02 0.74 0.34 0.77 0.73-0.52 0.07-0.71-0.27-0.77-0.73m-11.73 1c-0.01-0.33-0.01-0.67-0.02-1 0.54 0.09 0.65 0.51 0.77 0.98-0.25 0.01-0.5 0.01-0.75 0.02m-1.51-0.22c-0.68-2.27 3.16-2.71 3.24-0.57-0.36-0.2-1.23-0.95-1.62-0.64-0.44 0.38-1.05 1.3-1.62 1.21m11.99-0.5c-0.01-1.73 2.61-2.35 2.99-0.56-0.39-0.24-1.04-0.66-1.51-0.55-0.55 0.13-1.02 0.79-1.48 1.11m-1.25-0.23c0.09-0.88 0.2-1.66 0.45-2.51-0.29-0.03-0.5 0.14-0.74 0.27-0.13-0.94-0.12-1.86 0.01-2.81 0.09-0.65 0.03-1.34 0.32-1.95 0.2-0.41 0.53-0.31 0.79-0.59 0.25-0.27 0.04-0.73 0.25-1.03 0.25-0.37 0.91-0.52 1.28-0.75 0.84-0.52 1.31-1.49 2.16-1.98 0.34 0.63 0.22 1.36 0.42 2.02 0.26 0.86 0.58 1.71 0.64 2.61 0.05 0.81 0.19 1.71 0.06 2.51-0.12 0.75-0.08 1.67-0.42 2.35-0.56-0.42-1.03-0.99-1.53-1.47 0.27 0.4 0.55 0.81 0.78 1.23-0.75 0.39-1.76-0.23-2.45 0.33-0.4 0.33-0.81 0.61-1.09 1.05-0.27 0.43-0.34 0.82-0.93 0.72m-13.01-0.22c0.01-1 0.98-0.98 1.73-1.04-0.17 1.18-0.66 1.19-1.73 1.04m-21.12-5.56c1.18 0.36 2.24 0.98 3.52 0.93-0.8-0.52-1.7-0.86-2.51-1.38-0.54-0.35-1.61-1.49-0.93-2.16 0.35-0.34 0.98-0.16 1.31 0.07 0.25 0.17 0.52 0.76 0.73 0.74 0.94-0.09 2.07 0.15 2.37 1.21-0.6-0.03-1.34 0.07-1.91-0.14-0.59-0.22-1.07-0.47-1.62-0.78 0.28 1.92 3.24 1.75 4.63 1.7 2.52-0.1 5.36-0.17 7.48 1.45 0.94 0.72 1.37 1.8 1.2 2.99-0.07 0.51-0.14 0.66-0.67 0.5-1.58-0.5-2.2-2.27-3.96-2.62-1.17-0.23-2.25 0.03-3.4 0.33-1.32 0.35-2.49 0.37-3.82-0.02-0.91-0.29-3.05-1.56-2.42-2.82m12.82 2.98c-0.31-1.53-2.34-2.74-3.79-1.92 0.42 0.54 1.34 0.4 1.89 0.72 0.64 0.38 1.24 0.85 1.9 1.2m30.23-0.88c0.12-0.95 0.88-2.27 1.95-2.29-0.13 0.95-0.96 2.11-1.95 2.29m-38.32-14.95c1.99 2.64-2.23 6.42 0.45 8.77 1.27 1.11 2.99 1.25 4.62 1.54 1.49 0.27 3.13 1.16 3.45 2.76-0.83 0.04-1.62-0.35-2.39-0.61-0.91-0.3-1.69-0.24-2.63-0.32-1.51-0.13-3.72-0.84-4.53-2.23-0.48-0.84-0.82-1.45-0.81-2.44 0.01-0.96 0.18-1.86 0.35-2.8 0.17-0.92 0.6-1.76 0.79-2.67 0.14-0.64 0.16-1.54 0.7-2m35.77 12.25c0.01-1.09 1.19-1.68 1.87-2.37 0.78-0.79 1.28-1.6 1.46-2.72 0.17-1.08 0.32-2.21 0.89-3.17 0.58-0.97 1.36-1.36 2.33-1.88-2.19-0.55-3.1 2.32-3.51 3.87-0.19 0.71-0.27 1.95-0.82 2.49-0.69 0.68-1.44 1.73-2.51 1.79 0.34-0.54 0.97-0.87 1.28-1.4 0.47-0.82 0.82-1.46 1.07-2.38 0.2-0.77 0.26-1.58 0.34-2.37 0.07-0.78 0.54-1.45 0.95-2.09 0.39-0.61 1.27-0.46 1.88-0.43 0.84 0.05 1.69 0.05 2.53 0.06 0.71 0.01 1.5 0.33 2.22 0.43 0.78 0.11 1.53 0.15 2.32 0.15-0.02 1.62-1.75 1.64-2.95 1.45-1.79-0.29-3.67-0.44-4.7 1.42-0.35 0.63-0.25 1.49-0.3 2.2-0.06 0.99-0.43 1.55-0.91 2.43-0.57 1.03-2.26 2.31-3.44 2.52m-12.01-0.25c-0.27-0.75-0.33-1.36-0.5-2.12-0.06-0.28-2.53-0.33-2.8-0.3 0.38 0.48 1.21 0.46 1.68 0.83 0.62 0.49 0.74 1.43 1.62 1.59m-17.26-0.14c-0.65-1.14-2.07-1.16-3.21-1.32-0.62-0.09-1.2-0.17-1.76-0.44-0.57-0.28-1.2-0.72-1.83-0.85 0.18 1.25 2.02 1.75 3.04 1.94 1.23 0.22 2.51 0.7 3.76 0.67m3.75-0.33c-0.01-0.31-0.01-0.62-0.02-0.93 0-0.21-0.21-0.64-0.51-0.31-0.1 0.1 0.02 0.78 0.02 0.93 0.01 0.39 0.09 0.38 0.51 0.31m30.97-1.64c0.13-1 1.06-2.53 2.2-2.55 0.12 1.18-1.03 2.48-2.2 2.55m-30.49 0.64c0.25-0.49 0.1-1-0.03-1.5-0.34 0.38-0.28 1.11 0.03 1.5m-3.26-0.44c-0.92-0.17-1.9-0.85-2.76-1.23-1.17-0.51-2.06-0.88-2.68-2.01-0.24-0.44-0.63-0.89-0.61-1.41 0.02-0.61 0.02-1.16 0.18-1.74 0.15-0.54 0.31-1.07 0.39-1.62 0.08-0.62-0.1-1.22-0.21-1.84-0.19-1.05-1.64-1.59-2.54-1.67-1.09-0.1-2.29 0.39-2.8 1.4-0.26 0.52 0.05 0.91-0.68 0.84-0.52-0.04-0.89-0.31-0.74-0.83 0.17-0.58 0.23-0.97 0.72-1.33 0.55-0.42 1.02-0.67 1.66-0.94 1.14-0.49 2.89-0.42 3.83 0.53 0.71 0.72 0.94 0.95 1.13 1.92 0.27 1.37-0.14 2.99 0.47 4.27 0.31 0.65 0.68 1.24 1.33 1.61 0.97 0.55 2.98 1.09 3.26 2.3-0.77-0.12-1.4-0.69-2.03-1.09-0.87-0.54-1.86-0.86-2.77-1.31 0.56 0.93 1.47 1.31 2.38 1.82 0.63 0.34 2.86 1.32 2.47 2.33m-11.78-1c0.21-0.7 0.09-1.36-0.27-2-0.46-0.79-1.18-0.93-1.98-1.25-0.82-0.33-1.23-0.43-2.12-0.41-0.81 0.02-1.59 0.12-2.4 0.22-1.84 0.22-1.81-2.4-1.62-3.51 0.13-0.77 0.23-1.49 0.11-2.26-0.12-0.7-0.43-1.41-0.45-2.12 0.36 0.21 0.68 0.48 1.02 0.73-0.21-0.38-0.26-0.82-0.28-1.24 1.23 0.67 0.76 2.86 0.64 3.97-0.14 1.26 0.92 2.84 2.26 2.97-0.23-0.42-0.5-0.84-0.78-1.23 0.93-0.03 2.65-0.47 3.49-0.07-0.16 0.29-0.45 0.39-0.74 0.52 1 0.5 2.99-0.08 3.56 1.18 0.43 0.94 0.68 1.39 0.58 2.41-0.07 0.69-0.04 1.38-0.03 2.08 0.14-0.07 0.7-0.46 0.77-0.17 0.07 0.3 0.16 0.6 0.25 0.9-0.69 0-1.43-0.35-2.01-0.72m39.75-0.33c0.02-0.64-0.16-1.81 0.45-2.26 0.83 0.96 0.89 1.92-0.45 2.26m-23.74 0.49c0.37-0.71 0.16-1.63-0.3-2.24-0.43 0.47-0.12 1.82 0.3 2.24m-10.85-4.77c0.04 0.74-0.01 1.7 0.41 2.35 0.45 0.71 1.03 1.38 1.44 2.11-0.79 0.43-2.35-0.4-2.54-1.26-0.25-1.11-0.52-2.51 0.69-3.2m39.83 3.67c-0.04-1.15 0.46-2.67 1.63-3.15 1.24-0.51 2.56-0.25 3.85-0.13 0.85 0.08 0.17 0.95-0.28 1.17-0.58 0.29-1.37 0.18-1.99 0.29-1.29 0.22-2.01 1.56-3.21 1.82m-27.99 0.58c-0.02-0.94 0.04-1.94-0.56-2.74-0.42 0.59-0.01 2.32 0.56 2.74m21.99-0.71c-0.01-0.35-0.01-0.7-0.02-1.05 0-0.21 0.05-0.84 0.49-0.46 0.31 0.28-0.21 1.33-0.47 1.51m-24.55-2.23c0.52-0.47 1.1-1.86-0.04-2 0.13 0.6-0.48 1.46 0.04 2m-14.26 0.04c-0.13-0.57-0.72-0.91-1.27-0.97 0.42 0.37 0.8 0.68 1.27 0.97m32.73-1.43c-0.33-1.65-1.83-1.71-3.23-1.68-1.22 0.03-3.01 0.17-3.02 1.81 0.46-0.1 1.02-0.64 1.44-0.88 0.41-0.24 1.14-0.17 1.6-0.18 0.49-0.01 1.29-0.11 1.74 0.1 0.52 0.25 0.97 0.55 1.47 0.83m-16.75 0.1c-0.01-0.58-0.03-1.17-0.04-1.75-0.57 0.44-0.53 1.33 0.04 1.75m1.5-0.28c-0.16-0.78-0.68-1.46-0.8-2.23-0.58 0.64-0.03 2.09 0.8 2.23m-16.28-1.16c0.29-0.47 0.73-0.61 1.23-0.78-0.12 0.49-0.71 1.62-1.23 0.78m17.49-0.37c0.11-0.71-0.26-1.74-0.3-2.5-0.68 0.57-0.34 2.02 0.3 2.5m13.21-2.27c-0.42 0.13-0.79 0.41-1.18 0.59-0.59 0.27-1.12 0.33-1.77 0.42-0.92 0.13-2.05-0.35-2.55-1.15-0.41 0.54 0.27 0.93 0.65 1.19 0.67 0.47 1 0.46 1.84 0.5 1.11 0.06 2.64-0.38 3.01-1.55m14.25-0.3c0.79-0.66 2.36-0.09 3.22 0.1 1.09 0.24 2.58 0.42 3.26-0.74-0.28-0.04-0.84-0.04-0.67-0.42 0.18-0.41 0.39-0.87 0.38-1.32-0.41 0.41-0.89 0.91-1.48 1.03 0.25-0.76 0.75-1.15 1.37-1.62 0.59-0.44 1.34-0.42 2.03-0.67 1.47-0.54 2.29-2.11 3.76-2.61 0.01 0.94-0.97 2.84-1.96 2.94-0.68 0.07-1.62 0.06-2.2 0.51-0.61 0.48-0.75 1.29-0.78 1.99-0.16 3.3-5.18 1.7-6.93 0.81m-25.23 1.53c0.13-0.85 0.24-1.52-0.3-2.25-0.31 0.51-0.11 1.64-0.2 2.25 0.16 0 0.34 0.02 0.5 0m-23.81-2.51c-0.35 0.34-1.06 0.47-1.53 0.5-0.17 0.01-0.96-0.04-0.96 0.13 0.01 0.56 0.11 0.42 0.66 0.41 0.72-0.01 1.41-0.08 2.12 0.09 0.77 0.19 0.7 0.92 0.77 1.6-0.73-0.07-1.36-0.78-2.12-0.93-0.55-0.12-0.83 0.48-0.54 0.48 0.48-0.01 0.93 0.12 1.4 0.22-0.72 0.74-3.93 0.82-3.62-0.7 0.19-0.89 0.3-1.53 1.37-1.73 0.83-0.13 1.62-0.08 2.45-0.07m25.55 1.97c0.76-1.27 1.41-2.85 0.66-4.27-0.49 0.68 0.12 1.72-0.45 2.51-0.23-0.67-0.58-1.31-0.79-1.98-0.31 0.51 0.12 1.25 0.18 1.79 0.07 0.53 0 1.52 0.4 1.95m-3 0.06c-0.01-0.42-0.02-0.83-0.03-1.25-0.27 0.35-0.25 0.91 0.03 1.25m77.98-1.88c0-0.13-0.1-0.67-0.02-0.75 0.35-0.45 1.16 0.23 0.77 0.73-0.08 0.09-0.62 0.01-0.75 0.02m-95.98 2.01c-0.4-0.54-0.63-1.62 0.32-1.76 0.91-0.13 0.13 1.46-0.32 1.76m93.36-7.71c0.67 0.38 1.09 1.1 1.78 1.46-0.51-0.81-0.98-1.57-1.3-2.47-0.08-0.23-0.39-0.99-0.28-1.24 0.02-0.04 0.34-0.19 0.4-0.26 0.17-0.18 0.22-0.26 0.27-0.52 0.09-0.41 0.64-0.12 0.99-0.03 0.48 0.13 1.04 0.1 1.54 0.14 0.78 0.07 1.56-1.05 1.75-1.69 2.16 1.06 1.39 4.62 0.26 6.23-0.52 0.74-0.72 0.92-1.56 1.28-0.5 0.22-1.2 0.2-1.67-0.04-1.05-0.52-2.11-1.59-2.18-2.86m-53.43 4.12c-0.73-1.4-1.62-2.83-1.59-4.47 0.45 0.43 0.87 1.44 1.05 2.01 0.19 0.58 0.89 1.88 0.54 2.46m-47.74 0.75c-0.26-0.2-0.39-0.44-0.52-0.74 0.29 0.12 0.89 0.4 0.52 0.74m30.48-1.39c0.1-0.62-0.28-1.35-0.29-2-0.44 0.52-0.25 1.63 0.29 2m-32.05-1.83c2.69-1.87 4.55-4.34 6.21-7.13 1.59-2.69 2.9-5.56 3.72-8.58-0.58 0.35-0.95 1.08-1.29 1.64-1.33 2.15-2.23 4.54-3.49 6.74-0.8 1.4-1.69 3.05-3.08 3.95-0.35 0.23-0.33 0.09-0.58 0.5l-0.54 0.87c-0.31 0.49-1.13 1.4-0.95 2.01m43.48-1.66c0.22-0.23 0.54-0.42 0.48-0.76-0.3 0.1-0.89 0.43-0.48 0.76m3.72-1.08c-0.65-0.46-1.06-1.17-1.46-1.84-0.48-0.82-1.21-1.49-1.63-2.35 0.83-0.33 2.14 0.42 2.46 1.18 0.28 0.67 1.24 2.34 0.63 3.01m-16.75 0.11c-0.21-1.02-0.34-2.05-0.81-2.98-0.99 0.73-0.01 2.51 0.81 2.98m9.5-0.45c0.44-0.63 1.07-0.93 1.72-1.29-0.65-0.61-2.24 0.52-1.72 1.29m-13.76-0.22c0.12-0.63 0.61-1.14 0.71-1.77-0.64 0.15-1.19 1.23-0.71 1.77m77.66-4.87c-0.83 0.17-1.13 1.11-1.46 1.78-0.62-0.68 0.02-1.79 0.29-2.47 0.3-0.74 1.95-1.08 2.64-1.09 1.11-0.02 1.98 0.08 3.07 0.35 0.6 0.14 1.35 1.73 1.24 2.31-0.79 0.02-1.46-0.52-1.78-1.21-0.43 0.53-0.63 0.95-0.72 1.64-0.11 0.96-0.39 1.06-1.27 1.24-0.78 0.16-1.26 0.26-1.56-0.63-0.21-0.62-0.42-1.27-0.45-1.92m5.8 2.13c0.35-0.69 1.05-0.73 1.73-0.79-0.13 0.76-1.07 1.12-1.73 0.79m-10.26-0.54c0.68-0.13 1.29 0.36 1.52 0.97-0.59 0.01-1.42-0.32-1.52-0.97m-56.99 1.2c-0.19-0.96-1.4-0.64-1.75 0.04 0.58-0.02 1.17-0.03 1.75-0.04m-22.26-0.04c0.02-1.08 0.39-2.27 0.79-3.26 0.28-0.71 0.41-1.3 0.99-1.78 0.45-0.37 1.16-0.55 1.7-0.76 2.21-0.87 4.55-1.43 6.87-1.91 0.36 1.81-2.53 0.77-2.7 2.31 0.92 0 3.23-0.91 3.26 0.68-0.98-0.06-2.06 0.48-2.96 0.82-0.97 0.36-1.94 0.76-2.91 1.13-1.74 0.66-3.2 2.44-5.04 2.77m25.47-2.03c-3.31-1.52-7.24-2.39-10.82-3.02 0.44-1.45 2.58-0.84 3.73-0.83-0.36-0.86-0.96-0.87-1.81-0.9-0.42-0.02-0.99 0.11-1.28-0.22-0.29-0.32-0.45-0.62-0.46-1.06 2.52-0.05 4.9 0.66 7.34 1.23 1.03 0.24 2.43 0.51 2.92 1.55 0.37 0.78 0.97 2.48 0.38 3.25m56.69-3.44c-0.2-0.97 1.77-0.86 2.44-0.98 1.01-0.18 1.95 0.04 2.94 0.11 0.24 0.02 0.12 0.57 0.12 0.7 0 0.14-0.5 0.07-0.58 0.07-0.77 0.01-1.56-0.02-2.33 0.07-0.84 0.11-1.77 0.42-2.59 0.03m-69.01 0.34c-0.53 0.04-1.28-0.26-1.38-0.87-0.1-0.6 0.49-1.5 1.09-1.57 0.67-0.08 1.15 0.41 1.23 1.03 0.1 0.77-0.36 1.03-0.94 1.41m69.66-40.86c0.53-0.08 1.02 0.23 1.51 0.4 0.59 0.2 1.1 0.25 1.71 0.28 0.19 0.01 1.29-0.09 1.29 0.03 0.19 11.77-0.23 23.54-0.02 35.31 0.03 1.09 0.13 2.18-1.2 2.42-1.31 0.24-1.91-0.75-2.04-1.91-0.24-2.3-0.35-4.63-0.4-6.95-0.05-2.44-0.35-4.86-0.41-7.29-0.06-2.47-0.27-4.9-0.32-7.37-0.03-1.2-0.1-2.4-0.15-3.6-0.05-1.3-0.35-2.71-0.18-4.01 0.14-1.07-0.18-2.27 0.13-3.31 0.2-0.68 0.83-1.25 0.78-2.02-0.02-0.71-0.58-1.3-0.7-1.98m-81.19 39.7c-0.44-0.22-0.16-0.9-0.03-1.25 0.21-0.56 0.47-0.75 0.95-1.05 0.75-0.47 1.78-0.66 2.64-0.85 1.02-0.22 2.07-0.36 3.08-0.6 0.71-0.17 1.6-0.53 2.34-0.3 0.35 0.11 1.08 0.23 0.67 0.73-0.44 0.52-0.63 0.6-1.29 0.82-1.27 0.42-2.59 0.68-3.86 1.11-1.49 0.49-2.94 1.12-4.5 1.39m80.48-1.93c-0.5-2.5-0.61-5.25-0.67-7.79-0.06-2.75-0.36-5.47-0.42-8.23-0.06-2.73-0.43-5.48-0.62-8.21-0.09-1.37-0.1-2.74-0.25-4.11-0.16-1.46-0.38-2.95-0.15-4.42 0.09-0.58 0.15-1.09 0.13-1.68 0.11-0.09 0.23-0.11 0.37-0.07 0.27-0.03 0.31 0.15 0.14 0.55 0.01 0.67 0.03 1.34 0.04 2.01 0.03 1.38 0.04 2.76 0.11 4.14 0.15 3.08 0.5 6.14 0.64 9.22 0.13 2.77 0.01 5.56 0.32 8.32 0.33 2.85 0.48 5.72 0.56 8.59 0.03 0.58 0.15 1.22-0.2 1.68m1.24-0.28c-0.02-1.09-0.24-2.16-0.31-3.24-0.07-1.23 0-2.42-0.17-3.65-0.34-2.53-0.46-5.17-0.64-7.72-0.17-2.56-0.04-5.15-0.1-7.71-0.02-1.21-0.2-2.37-0.3-3.58-0.12-1.4-0.03-2.8-0.3-4.19-0.23-1.17-0.11-2.48 0.12-3.63 0.7 0.42 0.54 1.84 0.55 2.53 0.1 4.45 0.38 8.88 0.55 13.32 0.09 2.39 0.23 4.77 0.33 7.16 0.1 2.33 0.4 4.68 0.44 7 0.02 0.95 0.45 2.91-0.17 3.71m-58.99 1.24c-2.99-0.54-5.92-1.36-8.91-1.89-0.34-0.06-1.01-0.13-1.27-0.4-0.31-0.33-0.31-0.93 0.16-1.04 1.81-0.44 4.09-0.01 5.9 0.31 1.01 0.18 2.12 0.29 3.07 0.68 0.83 0.33 1.5 1.46 1.05 2.34m24.92-16.53c1.36 1.87 2.76 3.48 4.89 4.48 1.03 0.49 2 0.82 3.12 1.06 0.55 0.12 1.06 0.24 1.62 0.24 0.42 0.01 1.36 0.08 1.58 0.48 0.43 0.79-0.31 2.39-0.52 3.2-0.27 1.04-0.58 2.09-0.99 3.09-0.21 0.5-0.45 0.98-0.66 1.48-0.07 0.16-0.26 1.31-0.28 1.32-0.9 0.39-1.96 0.22-2.88-0.07-3.24-1-5.77-3.67-7.47-6.48-0.83-1.38-1.75-3.1-1.31-4.73 0.22-0.81 0.8-1.58 1.25-2.28 0.41-0.65 0.8-1.62 1.65-1.79m10.04 14.05c0.22-1.55 1.19-3.04 1.65-4.54 0.55 0.64 0.3 2.17 0.31 2.96 0 0.23-0.11 0.5-0.16 0.72-0.1 0.42-0.1 0.25-0.49 0.32-0.45 0.09-0.84 0.42-1.31 0.54m-46.99 0.73c-0.08-0.93-0.28-1.62-0.55-2.49l1.5-0.03c-0.11 0.54-0.23 1.06-0.22 1.61 0.01 0.52-0.15 1.01-0.73 0.91m4.44-2.84c0.31-0.84 1.1-1.51 1.57-2.28 0.62-1.01 1-1.89 1.39-3.01 0.67-1.9 0.6-3.77 0.56-5.75-0.04-1.78-0.38-3.89-0.99-5.58-0.36-1.01-0.82-2-1.37-2.92-0.47-0.78-1.35-1.49-1.37-2.47 0.96-0.06 2.08-0.31 3.04-0.21 0.52 0.06 1.11-0.06 1.33 0.48 0.21 0.52 0.26 1.07 0.36 1.63 0.27 1.57 0.12 3.2 0.32 4.78 0.2 1.59 0.4 3.26 0.47 4.86 0.14 3.17 0.95 6.35 1.47 9.48 0.03 0.19 0.43 2.17-0.1 2.08-2.22-0.39-4.44-0.73-6.68-1.09m-6 0.37c-1.11-0.35-2.18-0.75-3.02-1.58-0.75-0.73-1.22-1.85-1.65-2.79-0.88-1.92-1.26-4.24-1.3-6.33-0.02-1.08 0.07-2.11 0.18-3.19 0.11-0.99 0.16-2.1 0.45-3.05 0.28-0.94 0.66-2.27 1.34-3.01 0.67-0.73 1.56-1.9 2.64-2.03 0.13-0.02 0.28-0.03 0.4-0.01-0.46 0.81-1.43 1.26-1.95 2.07-0.66 1.01-1.13 1.87-1.54 3.01-0.7 1.94-1.07 4.05-0.85 6.11 0.21 1.91 0.17 4.17 1.1 5.92 0.56 1.06 1.07 1.93 1.89 2.8 0.71 0.75 1.7 1.27 2.56 1.82-0.08 0.09-0.15 0.21-0.25 0.26m4.49-0.84c0.6-0.79 1.31-1.45 1.86-2.28 0.53-0.79 0.99-1.71 1.29-2.6 0.63-1.88 0.62-4.16 0.41-6.12-0.19-1.81-0.34-3.91-1.17-5.58-0.84-1.67-1.92-3.75-3.83-4.39 0.71-0.7 2.04 0.43 2.54 0.9 0.92 0.87 1.34 1.7 1.9 2.83 0.91 1.81 1.23 4.26 1.27 6.26 0.05 2.07 0.34 4.14-0.29 6.16-0.55 1.75-1.91 4.46-3.98 4.82m-1.76-0.28c-0.9 0.06-2.39 0.35-3.2-0.13-1.16-0.67-1.82-1.27-2.51-2.43-0.53-0.88-0.92-1.86-1.14-2.87-0.24-1.1-0.19-2.2-0.4-3.3-0.39-2.03-0.25-4.38 0.38-6.36 0.37-1.14 0.8-2.15 1.37-3.21 0.52-0.97 1.75-1.42 2.71-1.73 2.23-0.72 4.43 0.63 5.59 2.44 1.21 1.9 1.54 4.09 1.97 6.26 0.39 1.96 0.02 4.38-0.47 6.3-0.57 2.26-1.66 4.17-3.98 4.92-0.11 0.04-0.21 0.07-0.32 0.11m0.2-14.44c1.35 0.01 1.84-1.76 1.1-2.72-0.17-0.22-0.48-0.28-0.7-0.43-0.33-0.23-0.43-0.44-0.62-0.8-0.08-0.14-0.05-0.72-0.13-0.79-0.11-0.1-0.83 0.01-1 0.02-0.81 0.07-1.13 0.18-1.59 0.85-0.34 0.49-1.21 0.84-1.38 1.38-0.23 0.7-0.28 1.28 0.11 1.93 0.34 0.57 1.07 0.63 1.24 1.38-1.96 0.3-3.96 2.61-3.22 4.62 0.2 0.53 0.39 1.05 0.8 1.47 0.12 0.12 0.35 0.3 0.52 0.35 0.41 0.13 0.24 0.26 0.1 0.6-0.2 0.48-1.34 2.57-0.49 3.01 0.11 0.06 0.52-0.14 0.65-0.21 0.27-0.13 0.61-0.12 0.9-0.15 0.61-0.07 1.02 0.66 1.39 1.05 0.25 0.26 0.93 0.68 1.22 0.43 0.49-0.43 0.9-0.91 1.38-1.36 0.63-0.59 2.32 0.6 2.59-0.55 0.13-0.55-0.04-1.04-0.15-1.59-0.1-0.49-0.71-0.83-0.59-1.4 0.14-0.69 0.71-1.29 0.97-1.95 0.21-0.52 0.23-1.64-0.02-2.14-0.33-0.67-0.83-1.21-1.5-1.55-0.63-0.32-1.55-0.59-1.58-1.45m-1.76 11.29c-0.25-0.37-0.5-1.24-0.83-1.48-0.4-0.29-0.52-0.47-1-0.39-0.32 0.05-0.63 0.15-0.95 0.17 0.41-2.88 6.61-2.97 6.75 0.11-0.94 0-1.67-0.66-2.52-0.95-0.19 0.88-0.35 2.35-1.45 2.54m38.04-10.3c0.98-0.01 1.61 1.01 2.15 1.67 0.8 0.99 1.8 1.86 2.9 2.51 0.98 0.57 1.95 0.83 3.03 1.12 0.41 0.11 0.91 0.22 1.34 0.23 0.23 0.01 1.59-0.13 1.69 0 0.39 0.44-0.42 1.02-0.68 1.15-0.6 0.32-1.08 0.24-1.76 0.23-0.96-0.02-2.22-0.2-3.11-0.54-2.31-0.87-3.78-2.14-5.25-4.1-0.52-0.69-0.43-1.5-0.31-2.27m-4.63 5.85c-1.12-2.01 0.36-4.04 1.21-5.84 2.86-6 6.95-11.49 10.89-16.81 1.29-1.74 2.58-3.63 4.25-5.02 0.65-0.55 2.25-1.22 1.71 0.29-0.38 1.06-1.4 1.86-2.06 2.74-0.97 1.29-1.92 2.6-2.85 3.91-1.75 2.47-3.5 4.95-5.15 7.49-1.55 2.39-2.78 5-4.38 7.35-0.66 0.97-1.29 1.92-1.78 3-0.46 1.02-0.95 2.16-1.84 2.89m-33.26-0.13c-1.29 0-1.89-0.53-2.03-1.88-0.06-0.59 0.05-0.96 0.46-1.33 0.37-0.32 0.92-1.06 1.43-1.07 0.68-0.02 0.98 0.25 1.56 0.61 0.53 0.32 0.57 0.84 0.77 1.42 0.33 0.93-1.49 2.06-2.19 2.25m45.23-1.62c-0.12-0.59 0.27-0.66 0.68-0.94 0.83-0.57 1.71-1.3 2.65-1.67 0.5-0.21 0.87-0.45 0.88 0.23 0.01 0.39-0.11 0.98-0.22 1.35-0.23 0.84-0.27 0.86-1.07 1.2-0.79 0.33-2.14 0.06-2.92-0.17m-47.57-2.76c-0.07 0.68-0.38 1.32-0.42 2.01-0.05 0.76 0.29 1.49 0.26 2.25-2.14-0.26-1.87-3.97 0.16-4.26m5.07 3.65c-0.02-0.74-0.03-1.47-0.05-2.21-0.01-0.6-0.44-1.19-0.54-1.78 0.39 0.1 0.73 0.25 1.04 0.5 0.61 0.49 0.61 0.66 0.77 1.43 0.21 0.98-0.09 1.87-1.22 2.06m-2.56-0.45l0.39-1.17c0.11-0.33-0.86-0.31-1.03-0.33-0.11-0.01-0.35 1.03-0.4 1.19-0.12 0.44 0.88 0.31 1.04 0.31m43.29-13.16c0.15 3.35 0.4 6.69 0.46 10.05 0.03 1.29-0.55 1.98-1.79 1.19-0.91-0.58-1.7-1.47-2.23-2.41-0.69-1.2-0.87-1.93-0.21-3.16 0.91-1.66 1.85-4.25 3.37-5.45 0.12-0.09 0.23-0.18 0.4-0.22m1.48 10.97c-0.46-0.81-0.33-1.84-0.32-2.73 0.02-1.19-0.04-2.39-0.07-3.58-0.02-1.16 0.01-2.32-0.07-3.48-0.08-1.06-0.48-2.26 0.07-3.26 0.49-0.89 1.67 1.63 1.66 2.05-0.04 2.26 0.19 4.52 0.11 6.78-0.03 0.86 0.05 2.5-0.35 3.26-0.21 0.42-0.54 0.88-1.03 0.96m-13 0.27c-0.72-0.96-0.9-2.23-1.21-3.36-0.42-1.51-0.8-3.05-1.31-4.53-0.38-1.1-1.09-2.85-0.74-3.98 0.33-1.05 1-3 2.2-3.36 0.05 1.02 0.36 2.11 0.15 3.12-0.19 0.93-0.8 2.24-0.65 3.18 0.11 0.71 0.02 1.06 0.65 1.41 0.45 0.26 0.96-0.93 1.06-1.19 0.32-0.87 0.03-1.77-0.08-2.65-0.15-1.21-0.22-2.49-0.26-3.71-0.05-1.17 0.1-2.32 0.09-3.49-0.03-2.17 0.64-4.29 1.55-6.24 1.42-3.07 3.08-6.06 4.91-8.9 0.87-1.35 1.76-2.72 2.76-3.98 0.96-1.2 2.16-2.89 3.54-3.61 0.43 0.83 0.5 1.87 0.75 2.76 0.28 0.98 0.55 1.97 0.86 2.94 0.29 0.91 0.55 1.86 0.92 2.74 0.29 0.7 0.77 1.45 0.69 2.24-1.03-0.02-2.03-0.2-3.06-0.21-1.15-0.01-2.21 0.36-3.28 0.74-2.08 0.74-3.69 2.07-5.05 3.79-0.71 0.91-1.35 1.84-1.89 2.86-0.58 1.1-0.82 2.16-1.06 3.37-0.39 1.98-0.65 4.21-0.15 6.19 0.35 1.39 0.66 2.82 1.4 4.06 0.52 0.87 1.52 2.16 0.95 3.22-0.68 1.27-1.46 2.5-2.04 3.81-0.42 0.95-0.79 2.17-1.7 2.78m15.22-1.82c-0.4-3-0.12-6.22-0.19-9.25 1.23 0.21 2.21 1.17 3.21 1.83 0.48 0.32 1 0.6 1.51 0.86 0.45 0.23 1.29 0.38 1.65 0.74 0.34 0.33 0.49 0 0.35 0.59-0.15 0.63-0.91 1.17-1.33 1.61-0.44 0.45-0.91 0.87-1.4 1.25-1.06 0.83-2.38 2.29-3.8 2.37m-49.33-2.96c0.19-0.58 0.65-0.97 1.07-1.37 0.38-0.37 0.56-0.88 0.95-1.25 0.46-0.43 0.7 0.24 0.84 0.58 0.25 0.61 0.67 0.93 1.22 1.26 0.75 0.45 0.34 0.72-0.29 1.11-0.48 0.3-0.86 0.93-1.22 1.36-0.43 0.51-0.98-0.42-1.24-0.7-0.39-0.44-0.8-0.7-1.33-0.99m57.92-4.72c-0.71 2.32-4.02 0.05-5.18-0.6-0.93-0.51-1.82-1.08-2.62-1.77-0.49-0.42-2-1.53-2.03-2.23-0.01-0.21-0.19-1.29 0.32-1.19 0.58 0.12 0.81 0.3 1.24 0.74 0.77 0.79 1.56 1.58 2.48 2.19 1.74 1.16 3.65 2.59 5.79 2.86m-19.24 0.91c-1.72-0.83-2.5-4.06-2.6-5.85-0.12-2.27-0.06-4.5 0.49-6.72 1.1-4.4 4.65-7.73 9.04-8.71 2.01-0.45 4.74 0.08 5.98 1.81 0.22 0.3 0.58 0.7 0.51 1.08-0.16 0.85-0.11 0.97-0.99 0.87-0.96-0.11-1.82-0.64-2.71-0.97-1.08-0.4-2.31-0.59-3.45-0.43-1.25 0.19-2.21 0.78-3.29 1.42-0.94 0.56-1.6 1.63-2.26 2.47-0.69 0.89-1.11 1.83-1.42 2.89-0.59 2.03-0.64 4.35-0.12 6.38 0.2 0.78 0.51 1.52 0.87 2.23 0.24 0.48 1.16 1.52 0.95 2.1-0.26 0.79-0.28 1.05-1 1.43m21.19-2.95c-1.07 2.08-4.31 0.25-5.73-0.5-0.88-0.46-1.79-1.23-2.53-1.88-0.44-0.38-0.86-0.75-1.26-1.17-0.49-0.52-0.59-0.91-0.8-1.6-0.1-0.31 0.62-0.93 0.94-0.9 0.55 0.06 1.12 0.94 1.49 1.29 0.74 0.7 1.5 1.37 2.33 1.97 1.74 1.27 3.64 1.91 5.56 2.79m-19.24 0.23c-1.1 0.17-1.13-1.93-0.9-2.56 0.32-0.89 2.13-1.46 2.06-2.39-0.04-0.5-0.87-0.46-1.21-0.48-1.72-0.1-2.56-2.41-1.64-3.78 0.71-1.05 1.71-0.91 2.74-0.39 1.64 0.83 0.78-1.02 0.39-1.72-0.63-1.12 0.38-2.2 0.92-3.1 0.63-1.05 2.08 0.07 2.5 0.69 0.43 0.64-0.14 2.56 0.81 2.8 0.37 0.09 0.77-0.63 0.79-0.95 0.04-0.71 0.16-1.15 0.42-1.82 0.18-0.46 0.52-0.8 1.07-0.81 0.36-0.01 1.33 0.26 1.51 0.58 0.44 0.75 0.28 0.82-0.1 1.61-0.21 0.44-0.67 0.81-1 1.17-0.38 0.42-0.81 0.7-1.29 1.02-0.35 0.24-1.13 0.11-1.53 0.17-0.83 0.13-2.22 0.68-2.46 1.57-0.19 0.7-0.38 1.41-0.57 2.11-0.14 0.52 0.04 0.86 0.13 1.39 0.2 1.16-0.57 2.21-1.18 3.15-0.45 0.7-0.78 1.26-1.46 1.74m21.19-3.02c-1.27 4-9.58-1.74-10.4-4.1-0.24-0.69-0.42-0.91 0.03-1.5 0.43-0.55 1.08 0.03 1.53 0.26 0.86 0.44 1.7 1.63 2.44 2.28 1.6 1.41 3.79 2.37 5.82 2.9 0.2 0.06 0.39 0.11 0.58 0.16m2.66-4.31c-0.1 1.01-0.88 2.07-1.66 2.65-1.03 0.77-2.06 0.24-3.19-0.12-2.04-0.65-4.17-2.16-5.63-3.7-0.82-0.86-1.27-1.76-0.52-2.85 0.79-1.15 1.81-0.76 2.7-0.03 1.78 1.46 3.64 2.56 5.85 3.21 0.81 0.25 1.73 0.36 2.45 0.84m-20.22 1.93c-0.9-1.59 0.58-3.2 2.07-3.52 0.87-0.19-0.37 1.65-0.5 1.82-0.45 0.64-0.88 1.28-1.57 1.7m11.34-32c0.29 2.13-0.26 4.32 0.03 6.44 0.27 2.08 0.3 4.21 0.52 6.3 0.46 4.26 0.67 9.13 5 11.33 1.32 0.67 2.54 1.27 3.75 2.15 0.95 0.69 2.44 1.52 3.06 2.53-0.91 0.4-2.1 0.25-3.06 0.18-1.08-0.09-2.18-0.39-3.2-0.74-1.89-0.65-4.14-1.78-5.54-3.22-1.57-1.61-3-3.3-4.06-5.3-1.03-1.94-2.22-3.95-2.84-6.07-0.42-1.41-0.78-2.83-1.12-4.26-0.17-0.7-0.39-1.52-0.35-2.24 0.05-1 0.22-1.33 0.86-2.11 0.99-1.22 2.49-1.84 3.67-2.84 0.93-0.79 1.96-2.12 3.28-2.15m12.3 26.5c-0.12 0.25-0.28 0.47-0.23 0.75-1.11 0-2.06-0.92-2.86-1.6-0.84-0.72-1.23-1.89-1.75-2.85-0.54-0.99-1-2.05-1.05-3.19-0.05-1.16 0.31-2.13 0.43-3.26-1.41 1.7-1 4.02-0.26 5.94 0.17 0.43 0.58 1.13 0.23 1.49-0.3 0.31-1.21-0.5-1.44-0.71-0.71-0.66-0.99-1.9-1.17-2.83-0.39-2.11-0.45-4.25-0.1-6.38 0.18-1.08 0.32-2.23 0.73-3.25 0.16-0.4 0.29-1.08 0.68-1.33 0.29-0.18 1.15-0.96 1.34-0.31 0.53 1.81 0.2 4.02 2.18 5.07-0.49-0.88-1.74-1.99-1.46-3.1 0.22-0.87 0.38-1.25 0.94-1.95 0.38-0.48 1.31-0.49 1.9-0.48-0.16 0.59-0.46 1.13-0.46 1.76 0.36-0.25 0.31-0.81 0.75-0.69 0.42 0.11 0.85 0.21 1.25 0.4 0.13-0.55-0.12-0.99-0.28-1.49 0.33-0.01 0.67-0.01 1-0.02-0.17 0.8 0.37 1.54 0.47 2.31 0.11 0.83 0.36 1.72 0.28 2.55-0.08 0.8-0.32 1.58-0.41 2.38-0.09 0.78-0.52 1.36-0.91 2.02 0.94 0.21 1.4 1.37 1.52 2.2 0.14 1.01 0.42 2.02 0.09 3.02-0.69-0.39-1.11-1.08-1.78-1.46 0.3 0.62 0.72 1.18 0.99 1.81 0.33 0.75 0.56 1.38 1.31 1.78 1.09 0.59 3.02 1.32 3.08 2.8-0.96-0.12-1.67-0.33-2.66-0.25-1.1 0.1-1.85-0.02-2.35-1.13m5.44-3.11c0.86 0.11 1.79 0.63 2.63 0.32 0.89-0.33 1.67-0.92 2.6-1.18-0.49-0.77-0.51-1.15-0.46-2.08 0.04-0.77 1.13-0.92 1.55-0.35 0.92 1.27 1.73 2.8 0.55 4.14-0.9 1.02-2.88 1.66-4.21 1.75-1.03 0.07-1.45-0.3-2.34-0.84-0.48-0.29-0.55-1.3-0.32-1.76m-42.69 3.39c-0.05-2.36 0.37-4.67-0.15-7-0.56 0.86-0.7 2.25-0.68 3.27-0.59-0.63-0.3-2.41-0.32-3.22-0.01-0.5-0.03-1.02 0-1.52 0.03-0.46 0.28-1.06 0.18-1.5-0.55 0.92-0.52 1.97-0.69 3.01-0.74-0.74-0.55-2.3-0.57-3.24-0.49 0.79-0.42 1.61-0.45 2.51-0.5-0.39-0.38-1.13-0.36-1.69 0.03-0.66-0.18-1.38-0.22-2.05-0.34 0.6-0.44 1.33-0.46 2.01-0.55-0.62-0.29-2.12-0.31-2.88-0.01-0.32-0.61 0.08-0.75 0.15 0.04-1.04 0.04-1.9 0.39-2.88 0.35-1 0.67-2.01 1.02-3.02 0.16-0.48 0.14-0.71 0.71-0.52 0.49 0.17 0.98 0.31 1.48 0.47 0.4 0.13 1.08-0.07 1.5-0.1 1-0.08 2.43 0.44 3.38 0.73 1.26 0.38 2.41 0.86 3.75 0.82 2.14-0.07 3.86-1.27 5.9-1.62-0.29 0.7-2.57 3.57-3.2 2.57-0.08 0.43-0.15 0.86-0.2 1.29-0.09 0.75-0.33 0.4-0.78-0.02 0.1 0.45-0.15 1.05-0.22 1.51-0.25-0.16-0.49-0.34-0.76-0.48 0.01 0.63-0.07 1.13-0.21 1.75-0.24-0.22-0.33-0.47-0.52-0.74-0.48 1.01-0.4 2.19-0.68 3.26-0.24-0.34-0.23-0.8-0.25-1.21-0.01-0.15 0.06-0.95-0.05-1.04-0.49-0.38-0.49 0.31-0.49 0.53 0.03 1.25-0.2 2.47-0.17 3.73-0.31-0.35-0.36-0.92-0.44-1.37-0.05-0.26-0.09-0.5-0.1-0.77-0.02-0.25-0.51-0.16-0.5 0.22 0.03 1.25-0.16 2.44-0.17 3.69-0.59-0.66-0.3-2.43-0.32-3.22 0-0.03-0.5-0.07-0.5 0.03 0.01 0.32 0.01 0.64 0.02 0.96 0.01 0.64-0.07 1.13-0.21 1.76-0.46-0.49-0.28-1.64-0.3-2.24-0.86 1.7-0.67 3.92-0.63 5.76-0.45-0.49-0.32-1.35-0.3-1.94 0.02-0.93-0.06-1.89-0.3-2.79-0.64 1.36-0.67 3.52-0.64 5.01-0.44-0.48-0.36-1.35-0.34-1.94 0.04-1.06 0.01-2.11-0.02-3.17 0-0.23-0.22-0.13-0.42-0.12-0.06 0-0.25 3.92-0.24 4.27 0.05 0.9 0.23 2.21-0.41 2.98m-1-0.23c-0.02-0.83-0.04-1.67-0.05-2.5 0.44 0.53 0.46 1.96 0.05 2.5m41.44-3.12c0.66-0.12 1.37 0.32 1.52 0.97-0.59 0.02-1.42-0.32-1.52-0.97m-0.73 0.77c-0.62-0.7-0.31-2.65-0.32-3.49 0.52 0.55 0.7 2.84 0.32 3.49m1.92-3.54c0.46-0.09 1.07 0.12 1.56 0.13 0.74 0.01 2.81-1.1 3.43-0.73 0.38 0.22 0.24 1.23 0.19 1.54-0.06 0.43-0.78 1.12-1.13 1.36-0.63 0.42-1.18 0.26-1.84 0.09-0.62-0.16-1.15-0.52-1.7-0.84-0.46-0.28-0.52-1.04-0.51-1.55m-0.96 1.77c0-0.17-0.19-2.68 0.46-2.02 0.14 0.13 0.02 1.1 0.03 1.29 0.01 0.59 0.15 0.77-0.49 0.73m-12.53-1.24c-0.61-0.89-0.88-1.93-1.17-2.96-0.25-0.88-0.39-2.12-0.43-3.04-0.05-1.17-0.14-2.33 0.13-3.48 0.23-0.99 0.61-2.28 1.33-3.03 0.57-0.61 1.26-0.88 2.06-0.57 0.07 0.03-1 3.2-1.07 3.53-0.38 1.8-0.63 3.63-0.66 5.47-0.02 1.11 0.54 3.13-0.19 4.08m14.21-2.3c-0.81 0.57-1.22 0.37-1.96-0.2-0.21-0.16-0.27-0.6-0.4-0.84-0.2-0.38-0.61-0.62-0.93-0.9 0.46-0.41 1.65-0.06 2.23-0.06 0.81 0.01 1.63 0.29 2.43 0.19 1.73-0.23 3.25-1.29 5.01-1.33 0.13 0 0.25 1.03 0.27 1.14 0.09 0.48-0.09 0.85-0.24 1.32-0.2 0.63-1.65 0.93-2.21 1.14-1.28 0.49-3.7 1.42-4.2-0.46m-3.26-0.43c-0.34-0.16-0.67-0.32-1.01-0.48 0.36-0.31 1.37-0.06 1.01 0.48m-6.76-0.36c0.31-0.61 0.63-1.34 0.71-2.02-0.6 0.32-1.18 1.42-0.71 2.02m1.24-0.27c0.15-0.61 0.52-1.16 0.71-1.76-0.59 0.16-1.17 1.23-0.71 1.76m3-0.32c0.08-0.17 0.16-0.34 0.24-0.5-0.64-0.12-0.66 0.57-0.24 0.5m-1.03-1.23c-0.39 0.03-0.72 0.37-0.73 0.77 0.38-0.05 0.66-0.4 0.73-0.77m4.7-2.34c0.84 0.04 1.74 0.33 2.58 0.15 0.78-0.17 1.54-0.58 2.27-0.91 0.77-0.34 2.66-1.41 3.46-0.71 0.66 0.58 0.12 1.4-0.13 2.02-0.23 0.58-1.18 0.78-1.72 0.92-1.46 0.39-2.91 0.65-4.42 0.72-0.01-0.33-0.01-0.67-0.02-1-0.15 0.35-0.83 1.63-1.26 0.85-0.32-0.59-0.73-1.34-0.76-2.04m-1.71 1.78c0.11-0.92 1.73-0.72 1.25 0.22-0.37-0.09-0.87-0.3-1.25-0.22m2.2-2.29c0.42-0.34 0.98-0.27 1.49-0.28-0.36 0.34-1.03 0.26-1.49 0.28m1.73-0.79c0.01-0.51 0.14-1 0.22-1.5-0.32 0.52-0.42 0.9-0.47 1.51-1.07-0.39-1.67-0.73-2.29-1.7 0.98-0.27 2.01-0.19 2.97-0.5 0.34-0.11 3.75-0.95 3.75-0.97-0.01-0.4 0.07-0.42-0.33-0.42-0.67 0.01-1.22 0.08-1.88 0.23-0.28 0.06-1.32 0.47-1.54 0.34-0.3-0.18-0.25-1.09-0.24-1.37 0.03-1.06 0.85-1.99 1.38-2.86 0.54-0.9 1.83-0.44 2.41 0.26 0.33 0.39 0.36 0.9 0.4 1.39 0.02 0.31 0.01 0.62 0.02 0.93 0.01 0.5 0.09 0.18 0.47 0.34 0.62 0.26 0.71 0.4 0.99 1.03 0.18 0.41-0.03 1.25-0.31 1.59-1.16 1.43-3.84 1.66-5.55 1.7m-3.5-0.43c-0.08-0.44 0.65-0.91 0.99-0.52 0.14 0.15 0.05 0.5-0.14 0.5-0.29 0.01-0.57 0.02-0.85 0.02m-4.79-1.4c0.26-0.36 0.35-0.76 0.46-1.19 0.14-0.55-0.04-0.53-0.49-0.56-0.5-0.04-0.81-0.06-0.95 0.47-0.11 0.41-0.13 0.89-0.02 1.3 0.35-0.21 0.64-0.19 1-0.02m4.49-0.59c-0.01-0.67-0.03-1.33-0.04-2 0.4 0.46 0.42 1.51 0.04 2m2.45-2.8c0.41 0 0.96 0.24 1.04 0.68 0.05 0.29 0.39 1.56 0.01 1.8-0.5 0.32-0.88-0.67-0.97-0.92-0.17-0.42-0.08-1.12-0.08-1.56m-0.96 2.27c-0.02-1.08-0.04-2.17-0.07-3.25 0.36 0.41 0.37 1.16 0.48 1.67 0.07 0.35 0.07 0.68 0.08 1.04 0.01 0.49 0.07 0.6-0.49 0.54m-13.99 0.29c-0.19-0.94-0.62-2.9 0.94-2.69 0.79 0.11 0.37 0.71 0.12 1.21-0.28 0.53-0.56 1.13-1.06 1.48m9.48-0.7c-0.03-0.34 0.12-0.7 0.48-0.76-0.13 0.28-0.22 0.56-0.48 0.76m-28.9-6.9c-0.49 0.26-1.04-0.03-1.51-0.22-0.09 0.37 0.04 1.17 0.55 1.21 0.5 0.04 1.18-0.56 1.3-1 0.35-1.27-1.17-1.81-2.13-1.41-2.21 0.91-2.35 3.83-0.67 5.33 1.84 1.64 4.19 0.94 6-0.45 0.44-0.34 0.89-0.68 1.34-1.01 0.46-0.34 0.95-0.46 1.46-0.73 0.94-0.49 1.91-1.34 3.05-1.08 1.18 0.27 1.83-0.8 2.81-1.2 1.06-0.42 1.75-1.06 2.65-1.72 0.99-0.72 1.8-1.59 2.81-2.28 0.77-0.53 1.3-1.52 1.7-2.35-0.48 0.3-0.84 0.77-1.3 1.1-0.24 0.17-0.48 0.18-0.77 0.26-0.53 0.13-0.24-0.15-0.54 0.34-0.67 1.09-1.69 1.55-2.53 2.49-0.48 0.54-0.93 0.45-1.56 0.26-0.31-0.09-0.55 0.67-0.77 0.95-0.36 0.47-0.79 0.84-1.3 1.13-0.71 0.4-0.69-0.26-0.86-0.83-0.53 0.27-0.96 0.73-1.43 1.1-0.55 0.44-1.24 0.7-1.88 0.99-0.15 0.07-0.62 0.31-0.68 0.18-0.11-0.25-0.2-0.49-0.22-0.76-0.04-0.57-0.18-0.42-0.73-0.41-0.34 0.01-0.7 0.11-1.03 0.16-0.59 0.1-1.37-0.29-1.7-0.77-0.32-0.47-0.25-1.49 0.18-1.89 0.32-0.29 1.42-0.44 1.7 0.02 0.41 0.7-0.87 0.77-1.23 0.78 1.31 1.76 3.95 0.42 5.64-0.13 2.04-0.67 3.88-1.79 5.79-2.73 2.1-1.03 4.14-2.13 6.07-3.47 1.67-1.16 3.79-1.74 5.62-2.61 2.18-1.04 4.45-1.75 6.75-2.46 0.47-0.14 0.99-0.22 1.34 0.12 0.28 0.27 0.86 0.94 0.39 1.24-1.3 0.81-2.95 1.17-4.34 1.82-1.59 0.74-3.32 1.09-4.89 1.9-1.88 0.98-3.78 2.16-5.52 3.38-1.8 1.26-3.45 2.71-5.25 3.97-1.76 1.24-3.27 2.8-5.08 3.96-1.88 1.21-3.81 2.64-5.97 3.29-1 0.3-2.12 0.62-3.17 0.48-0.95-0.13-2.27-0.27-2.99-1-1.69-1.71-2.58-3.54-2.03-5.97 0.18-0.81 1.09-1.94 1.91-2.21 1.2-0.4 2.02-0.63 3.23-0.11 0.85 0.36 1.09 1.8 1.31 2.61 0.15 0.57 0.09 0.85-0.35 1.25-0.6 0.55-0.78 0.61-1.59 0.71-1.41 0.17-1.66-1.13-1.91-2.15-0.04-0.15 1.1-0.8 1.27-0.92 0.38-0.24 0.98 0.6 1.06 0.84m27.12 5.44c-0.09-0.33-0.19-0.66-0.24-1.01-0.03-0.16-0.07-0.63-0.33-0.61-0.47 0.05-0.2 0.8-0.3 1.08-0.11 0.27-0.33 0.5-0.63 0.56 0.12-0.78-0.35-1.98-0.56-2.74-0.38 0.78-0.07 1.85-0.7 2.51-0.79-1.37-0.57-3.28-0.6-4.82-0.05-2.22-0.09-4.45-0.14-6.67 1.96 0.35-0.15 5.05 1.63 5.97-0.05-2.25-0.09-4.5-0.14-6.75 1.17 0.25 0.81 2.88 0.83 3.73 0.64-0.89 0.71-1.77 0.69-2.84-0.01-0.65 0.03-1.11 0.2-1.74 0.12-0.46 1.06-0.78 1.43-0.96 0.99-0.46 2.02-0.87 3.04-1.28 1.45-0.58 3.18-0.63 4.7-0.95 1.57-0.32 3.15-1.06 4.75-1.19 0.5-0.05 1.08-0.06 1.26 0.41 0.58 1.53-0.11 3.41-0.11 4.98 0.01 2-0.04 4.02-0.26 6.01-0.19 1.66 0.23 3.97-0.53 5.49-0.57-0.45-0.28-1.17-0.39-1.78-0.13-0.83-0.28-1.67-0.61-2.45-0.31-0.73-0.77-1.41-1.36-1.94-0.56-0.51-1.23-1.05-1.2-1.89 0.04-0.89-0.08-1.51-0.5-2.3-0.28-0.53-1.38-0.91-1.87-0.57-0.75 0.51-1.37 0.81-1.62 1.71-0.2 0.71-0.02 1.46-0.36 2.13-0.36-0.23-0.62-0.58-0.77-0.98-0.23 0.38-0.42 0.7-0.43 1.17 0 0.13 0.06 0.77-0.03 0.84-0.07 0.06-0.75 0.02-0.75-0.03-0.02-0.91 0.15-2.42-0.81-2.94 0.03 1.35-0.01 2.71 0.15 4.06 0.19 1.59 0 3.1 0.03 4.69-0.63-0.22-0.68-1.13-1.28-1.47 0.02 0.76 0 1.36-0.17 2.1-0.17 0.75-0.98-0.51-1.06-0.82-0.26 0.55-0.18 1.41-0.96 1.29m-32.16-7.33c-0.15 1.27-0.75 2.39-0.66 3.71 0.08 1.35 0.67 2.51 1.07 3.78-1.78 0.1-2.92-1.77-2.89-3.38 0.02-1.41 0.51-4.32 2.48-4.11m-1.02-0.98c-0.31 0.67-0.88 1.18-1.25 1.82-0.48 0.85-0.69 1.7-0.82 2.67-0.11 0.77 0.22 1.7 0.46 2.42 0.23 0.71 0.43 2.09-0.72 1.37-1.68-1.06-1.65-3.21-1.29-4.91 0.21-0.97 0.4-1.83 1.15-2.57 0.6-0.59 1.64-1 2.47-0.8m28.67 7.65c-0.62-2.59-0.36-5.44-0.42-8.09-0.02-0.71-0.11-1.49 0.21-2.15 0.67 0.45 0.53 1.54 0.55 2.24 0.03 1.9-0.06 3.87 0.19 5.75 0.06 0.56 0.5 2.48-0.53 2.25m11.17-3.98c-0.54 0.34-0.87 0.9-1.4 1.25-0.11 0.07-0.51 0.42-0.59 0.23-0.13-0.3-0.19-0.54-0.12-0.88 0.07-0.32 0.45-1.65 0.66-1.85 0.65-0.65 1.06-0.88 1.98-0.96 0.67-0.06 1.29-0.17 1.93-0.32 1.05-0.24 1.27-0.15 2.2 0.41 0.38 0.22 1.1 1.36 1.23 1.79 0.19 0.65 0.48 1.31 0.14 1.96-0.87-0.45-1.59-1.29-2.29-1.95-0.08 0.54-0.69 3.8-1.71 3.37-0.66-0.28-1.36-0.4-1.71-1.05-0.33-0.62-0.3-1.33-0.32-2m-12.68 3.51c-0.66-2.77-0.37-5.91-0.43-8.74 1.24 0.15 0.79 3.45 0.87 4.31 0.07 0.83-0.02 1.66 0.04 2.48 0.03 0.57 0.44 2.16-0.48 1.95m6.7-2.14c0.45-0.01 1.34 0.05 1.53-0.49 0.23-0.64-0.82-1.1-1.31-1.01 0.05-0.41 0.23-0.78 0.42-1.15 0.12-0.23 0.6-0.87 0.54-1.12-0.05-0.19-0.72-0.63-0.87-0.86-0.25-0.38-0.72-1.06-1.02-0.32-0.16 0.4-0.46 0.79-0.67 1.17-0.45 0.82 0.72 2.91 1.14 3.54-0.76-0.09-1.04-1.02-1.92-0.79-0.36 0.09-0.48 0.51-0.2 0.83 0.23 0.27 0.82 0.23 1.13 0.23-0.28 1.58 1.36 1.5 1.23-0.03m-8.22 1.42c-0.54-0.96-0.3-2.47-0.32-3.54-0.02-0.77-0.4-3.23 0.68-3.47 0.04 1.92 0.13 3.83 0.25 5.74 0.03 0.62 0.38 1.44-0.61 1.27m-18.27-0.61c0.27-0.43 0.49-0.88 0.83-1.26 0.54-0.64 0.79-0.67 1.63-0.79-0.17 1.11-1.51 1.76-2.46 2.05m28.46-2.35c-0.02-0.83-0.04-1.67-0.05-2.5-0.63 0.54-1.05 2.25 0.05 2.5m4.63-5.85c0.67 0.22 1.21 0.15 1.89 0.01 0.81-0.16 0.89 1.06 0.52 1.57-0.84 1.2-3.1-0.26-2.41-1.58m-4.7 2.35c-0.01-0.6-0.01-1.16-0.13-1.75-0.11-0.53 0.03-1.42-0.68-1.23 0.02 0.95-0.15 2.41 0.81 2.98m-34.78-1.02c0.56 0.15 1.61 0.28 1.77 0.96-0.69-0.02-1.78 0.02-1.77-0.96m33-0.44c0.1-0.64 0.15-1.09 0.06-1.73-0.03-0.24-0.07-0.47-0.09-0.71-0.03-0.51 0.06-0.56-0.46-0.55-0.17 0-0.05 1.5-0.04 1.71 0.01 0.68-0.27 1.34 0.53 1.28m-17.75 0.37c-0.09-4.29 1.01-8.48 1.44-12.73 0.22-2.12 0.59-4.23 0.84-6.35 0.26-2.23 0.47-4.47 1.04-6.65 0.69-2.64 2.08-4.86 3.49-7.17 0.77 0.43 0.16 2.2 0.08 2.9-0.53 4.51-1.29 8.97-1.91 13.47-0.62 4.48-0.96 9.09-1.85 13.53-0.16 0.77-0.33 1.44-0.97 1.94-0.62 0.48-1.39 0.92-2.16 1.06m-8 0.08c-1.58 0.17-3 0.04-4.56-0.15-0.74-0.09-1.51-0.31-2.18-0.63-0.21-0.1-0.78-0.31-0.79-0.62-0.01-0.27-0.16-1.01 0.34-0.98 1.64 0.11 3.22 0.79 4.87 1 0.75 0.1 1.55-0.16 2.29-0.04 0.22 0.03 0.81 0.18 0.84 0.48 0.02 0.27-0.55 0.91-0.81 0.94m11.96-2.16c-0.49-0.86-0.08-2.06 0.08-2.97 0.38-2.24 0.46-4.54 0.78-6.79 0.34-2.38 0.73-4.77 0.99-7.15 0.54-4.87 1.33-9.71 2.08-14.55 0.17-1.07 0.71-2.15 1.35-3.01 0.51-0.69 1.33-1.96 2.2-2.19 0.05 2.21-0.38 4.39-0.68 6.57-0.34 2.44-0.67 4.88-1.02 7.31-0.72 5.04-1.14 10.17-2.15 15.16-0.18 0.91-0.08 1.92-0.24 2.83-0.2 1.11-0.41 2.12-0.78 3.18-0.27 0.75-1.9 1.48-2.61 1.61m-4.76-0.4c-0.07-3.18-0.02-6.38 0.58-9.51 0.29-1.52 0.38-3.06 0.71-4.57 0.32-1.5 0.9-2.94 1.07-4.47 0.82 0.95-0.02 3.19-0.14 4.31-0.29 2.77-0.71 5.56-1.15 8.31-0.28 1.75 0.12 4.49-1.07 5.93m8.46-1.93c0.01-2.56 0.37-5.2 0.76-7.72 0.41-2.66 0.57-5.4 1.12-8.02 1.13-5.44 1.51-11.1 2.3-16.6 0.15-1.01 0.23-2.31 0.82-3.17 0.32-0.46 0.59-0.98 1.19-1.08 0.44-0.07 0.59 0.57 0.71 0.99 0.65 2.26 0.3 4.21-0.14 6.46-0.41 2.14-0.63 4.4-0.87 6.56-0.46 3.94-2.37 7.57-3.51 11.34-0.88 2.89-1.2 5.8-1.61 8.78-0.09 0.61 0.17 2.67-0.77 2.46m-18.5 0.39c-0.29-1.25-0.3-2.46-0.33-3.74-0.6 0.81-0.82 1.98-1.7 2.54 0.02-1.01 0.18-1.91 0.49-2.87 0.29-0.89 1.65-0.87 2.46-0.69 0.53 0.12 1.07 0.24 1.6 0.36 0.39 0.09 0.47 0.87 0.55 1.15 0.25 0.93-0.17 2.01-0.33 2.95-1.11-0.79-0.09-2.78-1.57-3.47 0.02 0.81 0.11 3.98-1.17 3.77m20.22-1.93c0-2.37 0.49-4.66 0.87-7 0.19-1.17 0.54-2.28 0.84-3.42 0.3-1.17 0.61-2.37 1.25-3.4 0.31 0.39 0.1 0.95 0.08 1.41-0.1 3.2-0.89 6.44-1.29 9.62-0.15 1.2-0.14 2.8-1.75 2.79m6.59-19.64c-0.88 5.34-1.18 10.77-2.07 16.1-0.15 0.94-0.34 2.4-1.22 2.91-1.38 0.79-1.11-1.24-1.1-1.96 0.03-3.42 0.71-7 1.31-10.36 0.23-1.27 0.39-2.56 0.88-3.76 0.41-1.01 0.97-2.69 2.2-2.93m-1.62 18.29c-0.41-0.74-0.25-1.66-0.16-2.45 0.55-4.72 1.42-9.38 2.06-14.09 0.22-1.61 0.3-3.9 1.9-4.79 0.12 5.53-1.36 11.13-2.09 16.6-0.19 1.47 0 4.12-1.71 4.73m18.16-4.63c0.18 0.84 0.55 1.76-0.27 2.33-0.6 0.42-1.38 0.5-2.07 0.66-0.91 0.22-1.79 0.54-2.7 0.77-0.61 0.16-1.67 0.57-2.23 0.14-0.54-0.42-0.52-1.82 0.08-2.12 0.75-0.38 1.57-0.58 2.39-0.77 1.59-0.37 3.17-0.98 4.8-1.01m-16.43 3.59c0.02-3.38 0.77-6.72 1.22-10.06 0.21-1.59 0.45-3.17 0.71-4.75 0.13-0.81 0.17-1.66 0.36-2.46 0.14-0.57 0.44-1.21 0.3-1.8 1.37 0.37 1 3.26 0.83 4.25-0.6 3.51-1.16 7.05-1.63 10.58-0.16 1.31 0.07 4.19-1.79 4.24m1.99-0.54c-0.44-0.76-0.09-1.97 0.05-2.79 0.67-3.79 0.91-7.7 1.76-11.45 0.17-0.72 0.6-0.79 0.8-0.03 0.15 0.58 0.33 1.06 0.28 1.66-0.27 2.78-0.76 5.48-1.14 8.24-0.05 0.36-0.05 0.72-0.06 1.09 0.51-1.02 0.54-2.2 0.7-3.31 0.21-1.49 0.46-3.02 0.88-4.47 0.61 0.41 0.86 1.74 0.78 2.39-0.24 1.88-0.52 3.76-0.86 5.63-0.16 0.9-0.27 2.22-1.46 2.26-0.01-0.67-0.03-1.33-0.04-2-0.52 1.05-0.38 2.32-1.69 2.78m-29.55-1.88c0.87-0.02 3.25-0.08 3.28 1.18-0.86 0.02-3.28 0.06-3.28-1.18m33.02 0.31c0.04-1.97 0.55-4.08 0.87-6.02 1.34 0.24 0.94 2.27 0.78 3.18-0.2 1.11-0.14 2.85-1.65 2.84m1.99-0.54c0.03-0.59-0.1-1.6 0.46-2.01 0.31 0.58 0.55 2.17-0.46 2.01m-9.57-14.81c0.24-2.84 0.79-5.65 1.1-8.48 0.08-0.7 0.11-1.82 0.68-2.31 0.56 0.79 0.82 1.79 1.15 2.68 0.36 0.95-0.01 2.07-0.18 3.03-0.19 1.06-0.32 2.04-0.87 2.99-0.38 0.69-1.03 1.95-1.88 2.09m3.42-4.07c-0.01-0.31-0.01-0.62-0.02-0.93 0-0.25 0.2-0.62 0.49-0.33 0.17 0.17 0.02 0.71 0.02 0.92 0.01 0.39-0.07 0.39-0.49 0.34m-12.65-6.99c-0.04-2.71 0.63-5.55 1.01-8.22 0.4-2.86 0.51-5.76 1.14-8.58-1.47 0.96-0.71 2.67-0.92 4.05-0.54 3.59-0.91 7.2-1.38 10.8-0.07 0.57-0.29 1.49 0.15 1.95m3.74-0.33c-0.04-2.2 0.34-4.64 0.72-6.8 0.41-2.4 0.59-4.84 0.99-7.24 1.09 0.2 1.54 2.32 1.82 3.21 0.41 1.32 0.73 2.54 0.5 3.93-0.25 1.52-0.44 2.72-1.27 4.05-0.58 0.95-1.7 2.42-2.76 2.85m4.4-4.84c-0.35-0.61-0.14-1.35-0.04-2 0.99 0.21 0.76 1.6 0.04 2"/>
  </g>
 </defs>
 <g id="king_spade" transform="translate(-2009.8 -729.12)">
  <use id="use9481" xlink:href="#base" height="1216.1899" width="2178.99" y="729.41199" x="2010.9"/>
  <g id="g9483" stroke="#000" fill="none">
   <path id="path9485" d="m2018.9 554.3v177.39"/>
   <path id="path9487" d="m2018.9 731.68h132.27"/>
   <path id="path9489" d="m2170.5 675.38v-177.64"/>
   <path id="path9491" d="m2170.5 497.74h-132.27"/>
  </g>
  <g id="g9493">
   <use id="use9495" xlink:href="#spade" transform="matrix(-2.4 0 0 -2.4 4094 1049.6)" height="1216.1899" width="2178.99" y="218.66499" x="852.90997"/>
   <rect id="rect9497" height="37.968" width="9.6926" y="505.81" x="2028.5" fill="#fff"/>
  </g>
  <g id="g9499">
   <use id="use9501" xlink:href="#spade" transform="scale(2.4)" height="1216.1899" width="2178.99" y="293.647" x="892.66302"/>
   <rect id="rect9503" height="37.968" width="9.6926" y="685.77" x="2151.6" fill="#fff"/>
  </g>
  <g id="g9505" transform="matrix(.99951 -.031411 .031411 .99951 -18.275 66.099)">
   <line id="line9507" stroke-width="7.25" x1="2047.5" y1="683.13" stroke="#000" x2="2141.8" y2="546.3"/>
   <circle id="circle9509" d="m 2052.15,680.07001 c 0,1.21502 -0.985,2.2 -2.2,2.2 -1.2151,0 -2.2,-0.98498 -2.2,-2.2 0,-1.21503 0.9849,-2.2 2.2,-2.2 1.215,0 2.2,0.98497 2.2,2.2 z" cx="2050" cy="680.07" r="2.2" fill="#fff"/>
   <circle id="circle9511" d="m 2050.65,680.07001 c 0,0.3866 -0.3134,0.7 -0.7,0.7 -0.3866,0 -0.7,-0.3134 -0.7,-0.7 0,-0.3866 0.3134,-0.7 0.7,-0.7 0.3866,0 0.7,0.3134 0.7,0.7 z" cx="2050" cy="680.07" r="0.7"/>
   <circle id="circle9513" d="m 2055.3699,675.409 c 0,1.21502 -0.985,2.2 -2.2,2.2 -1.215,0 -2.2,-0.98498 -2.2,-2.2 0,-1.21503 0.985,-2.2 2.2,-2.2 1.215,0 2.2,0.98497 2.2,2.2 z" cx="2053.2" cy="675.41" r="2.2" fill="#fff"/>
   <circle id="circle9515" d="m 2053.8699,675.409 c 0,0.3866 -0.3134,0.7 -0.7,0.7 -0.3866,0 -0.7,-0.3134 -0.7,-0.7 0,-0.3866 0.3134,-0.7 0.7,-0.7 0.3866,0 0.7,0.3134 0.7,0.7 z" cx="2053.2" cy="675.41" r="0.7"/>
   <circle id="circle9517" d="m 2058.5799,670.74701 c 0,1.21503 -0.985,2.2 -2.2,2.2 -1.215,0 -2.2,-0.98497 -2.2,-2.2 0,-1.21503 0.985,-2.2 2.2,-2.2 1.215,0 2.2,0.98497 2.2,2.2 z" cx="2056.4" cy="670.75" r="2.2" fill="#fff"/>
   <circle id="circle9519" d="m 2057.0799,670.74701 c 0,0.3866 -0.3134,0.7 -0.7,0.7 -0.3866,0 -0.7,-0.3134 -0.7,-0.7 0,-0.3866 0.3134,-0.7 0.7,-0.7 0.3866,0 0.7,0.3134 0.7,0.7 z" cx="2056.4" cy="670.75" r="0.7"/>
   <circle id="circle9521" d="m 2061.7901,666.086 c 0,1.21503 -0.985,2.2 -2.2,2.2 -1.215,0 -2.2,-0.98497 -2.2,-2.2 0,-1.21503 0.985,-2.2 2.2,-2.2 1.215,0 2.2,0.98497 2.2,2.2 z" cx="2059.6" cy="666.09" r="2.2" fill="#fff"/>
   <circle id="circle9523" d="m 2060.2901,666.086 c 0,0.3866 -0.3134,0.7 -0.7,0.7 -0.3866,0 -0.7,-0.3134 -0.7,-0.7 0,-0.3866 0.3134,-0.7 0.7,-0.7 0.3866,0 0.7,0.3134 0.7,0.7 z" cx="2059.6" cy="666.09" r="0.7"/>
   <circle id="circle9525" d="m 2065,661.42401 c 0,1.21503 -0.9849,2.2 -2.2,2.2 -1.215,0 -2.2,-0.98497 -2.2,-2.2 0,-1.21503 0.985,-2.2 2.2,-2.2 1.2151,0 2.2,0.98497 2.2,2.2 z" cx="2062.8" cy="661.42" r="2.2" fill="#fff"/>
   <circle id="circle9527" d="m 2063.5,661.42401 c 0,0.3866 -0.3134,0.7 -0.7,0.7 -0.3866,0 -0.7,-0.3134 -0.7,-0.7 0,-0.3866 0.3134,-0.7 0.7,-0.7 0.3866,0 0.7,0.3134 0.7,0.7 z" cx="2062.8" cy="661.42" r="0.7"/>
   <circle id="circle9529" d="m 2068.22,656.763 c 0,1.21503 -0.985,2.2 -2.2,2.2 -1.215,0 -2.2,-0.98497 -2.2,-2.2 0,-1.21503 0.985,-2.2 2.2,-2.2 1.215,0 2.2,0.98497 2.2,2.2 z" cx="2066" cy="656.76" r="2.2" fill="#fff"/>
   <circle id="circle9531" d="m 2066.72,656.763 c 0,0.3866 -0.3134,0.7 -0.7,0.7 -0.3866,0 -0.7,-0.3134 -0.7,-0.7 0,-0.3866 0.3134,-0.7 0.7,-0.7 0.3866,0 0.7,0.3134 0.7,0.7 z" cx="2066" cy="656.76" r="0.7"/>
   <circle id="circle9533" d="m 2071.43,652.10101 c 0,1.21503 -0.985,2.2 -2.2,2.2 -1.215,0 -2.2,-0.98497 -2.2,-2.2 0,-1.21502 0.985,-2.2 2.2,-2.2 1.215,0 2.2,0.98498 2.2,2.2 z" cx="2069.2" cy="652.1" r="2.2" fill="#fff"/>
   <circle id="circle9535" d="m 2069.93,652.10101 c 0,0.3866 -0.3134,0.7 -0.7,0.7 -0.3866,0 -0.7,-0.3134 -0.7,-0.7 0,-0.3866 0.3134,-0.7 0.7,-0.7 0.3866,0 0.7,0.3134 0.7,0.7 z" cx="2069.2" cy="652.1" r="0.7"/>
   <circle id="circle9537" d="m 2074.6399,647.44 c 0,1.21503 -0.9849,2.2 -2.2,2.2 -1.215,0 -2.2,-0.98497 -2.2,-2.2 0,-1.21502 0.985,-2.2 2.2,-2.2 1.2151,0 2.2,0.98498 2.2,2.2 z" cx="2072.4" cy="647.44" r="2.2" fill="#fff"/>
   <circle id="circle9539" d="m 2073.1399,647.44 c 0,0.3866 -0.3134,0.7 -0.7,0.7 -0.3866,0 -0.7,-0.3134 -0.7,-0.7 0,-0.3866 0.3134,-0.7 0.7,-0.7 0.3866,0 0.7,0.3134 0.7,0.7 z" cx="2072.4" cy="647.44" r="0.7"/>
   <circle id="circle9541" d="m 2077.8599,642.77802 c 0,1.21502 -0.985,2.2 -2.2,2.2 -1.215,0 -2.2,-0.98498 -2.2,-2.2 0,-1.21503 0.985,-2.2 2.2,-2.2 1.215,0 2.2,0.98497 2.2,2.2 z" cx="2075.7" cy="642.78" r="2.2" fill="#fff"/>
   <circle id="circle9543" d="m 2076.3599,642.77802 c 0,0.38659 -0.3134,0.7 -0.7,0.7 -0.3866,0 -0.7,-0.31341 -0.7,-0.7 0,-0.3866 0.3134,-0.7 0.7,-0.7 0.3866,0 0.7,0.3134 0.7,0.7 z" cx="2075.7" cy="642.78" r="0.7"/>
   <circle id="circle9545" d="m 2081.0701,638.117 c 0,1.21503 -0.985,2.2 -2.2,2.2 -1.215,0 -2.2,-0.98497 -2.2,-2.2 0,-1.21502 0.985,-2.2 2.2,-2.2 1.215,0 2.2,0.98498 2.2,2.2 z" cx="2078.9" cy="638.12" r="2.2" fill="#fff"/>
   <circle id="circle9547" d="m 2079.5701,638.117 c 0,0.3866 -0.3134,0.7 -0.7,0.7 -0.3866,0 -0.7,-0.3134 -0.7,-0.7 0,-0.38659 0.3134,-0.7 0.7,-0.7 0.3866,0 0.7,0.31341 0.7,0.7 z" cx="2078.9" cy="638.12" r="0.7"/>
   <circle id="circle9549" d="m 2084.2801,633.45502 c 0,1.21502 -0.985,2.2 -2.2,2.2 -1.215,0 -2.2,-0.98498 -2.2,-2.2 0,-1.21503 0.985,-2.2 2.2,-2.2 1.215,0 2.2,0.98497 2.2,2.2 z" cx="2082.1" cy="633.46" r="2.2" fill="#fff"/>
   <circle id="circle9551" d="m 2082.7801,633.45502 c 0,0.3866 -0.3134,0.7 -0.7,0.7 -0.3866,0 -0.7,-0.3134 -0.7,-0.7 0,-0.3866 0.3134,-0.7 0.7,-0.7 0.3866,0 0.7,0.3134 0.7,0.7 z" cx="2082.1" cy="633.46" r="0.7"/>
   <circle id="circle9553" d="m 2087.49,628.79401 c 0,1.21502 -0.9849,2.2 -2.2,2.2 -1.215,0 -2.2,-0.98498 -2.2,-2.2 0,-1.21503 0.985,-2.2 2.2,-2.2 1.2151,0 2.2,0.98497 2.2,2.2 z" cx="2085.3" cy="628.79" r="2.2" fill="#fff"/>
   <circle id="circle9555" d="m 2085.99,628.79401 c 0,0.3866 -0.3134,0.7 -0.7,0.7 -0.3866,0 -0.7,-0.3134 -0.7,-0.7 0,-0.3866 0.3134,-0.7 0.7,-0.7 0.3866,0 0.7,0.3134 0.7,0.7 z" cx="2085.3" cy="628.79" r="0.7"/>
   <circle id="circle9557" d="m 2090.71,624.13202 c 0,1.21503 -0.985,2.2 -2.2,2.2 -1.215,0 -2.2,-0.98497 -2.2,-2.2 0,-1.21503 0.985,-2.2 2.2,-2.2 1.215,0 2.2,0.98497 2.2,2.2 z" cx="2088.5" cy="624.13" r="2.2" fill="#fff"/>
   <circle id="circle9559" d="m 2089.21,624.13202 c 0,0.3866 -0.3134,0.7 -0.7,0.7 -0.3866,0 -0.7,-0.3134 -0.7,-0.7 0,-0.3866 0.3134,-0.7 0.7,-0.7 0.3866,0 0.7,0.3134 0.7,0.7 z" cx="2088.5" cy="624.13" r="0.7"/>
   <circle id="circle9561" d="m 2093.92,619.47101 c 0,1.21502 -0.985,2.2 -2.2,2.2 -1.2151,0 -2.2,-0.98498 -2.2,-2.2 0,-1.21503 0.9849,-2.2 2.2,-2.2 1.215,0 2.2,0.98497 2.2,2.2 z" cx="2091.7" cy="619.47" r="2.2" fill="#fff"/>
   <circle id="circle9563" d="m 2092.42,619.47101 c 0,0.3866 -0.3134,0.7 -0.7,0.7 -0.3866,0 -0.7,-0.3134 -0.7,-0.7 0,-0.3866 0.3134,-0.7 0.7,-0.7 0.3866,0 0.7,0.3134 0.7,0.7 z" cx="2091.7" cy="619.47" r="0.7"/>
   <circle id="circle9565" d="m 2097.1299,614.80902 c 0,1.21503 -0.9849,2.2 -2.2,2.2 -1.215,0 -2.2,-0.98497 -2.2,-2.2 0,-1.21503 0.985,-2.2 2.2,-2.2 1.2151,0 2.2,0.98497 2.2,2.2 z" cx="2094.9" cy="614.81" r="2.2" fill="#fff"/>
   <circle id="circle9567" d="m 2095.6299,614.80902 c 0,0.3866 -0.3134,0.7 -0.7,0.7 -0.3866,0 -0.7,-0.3134 -0.7,-0.7 0,-0.3866 0.3134,-0.7 0.7,-0.7 0.3866,0 0.7,0.3134 0.7,0.7 z" cx="2094.9" cy="614.81" r="0.7"/>
   <circle id="circle9569" d="m 2100.3499,610.14801 c 0,1.21503 -0.985,2.2 -2.2,2.2 -1.215,0 -2.2,-0.98497 -2.2,-2.2 0,-1.21503 0.985,-2.2 2.2,-2.2 1.215,0 2.2,0.98497 2.2,2.2 z" cx="2098.1" cy="610.15" r="2.2" fill="#fff"/>
   <circle id="circle9571" d="m 2098.8499,610.14801 c 0,0.3866 -0.3134,0.7 -0.7,0.7 -0.3866,0 -0.7,-0.3134 -0.7,-0.7 0,-0.3866 0.3134,-0.7 0.7,-0.7 0.3866,0 0.7,0.3134 0.7,0.7 z" cx="2098.1" cy="610.15" r="0.7"/>
   <circle id="circle9573" d="m 2103.5601,605.48602 c 0,1.21503 -0.985,2.2 -2.2,2.2 -1.215,0 -2.2,-0.98497 -2.2,-2.2 0,-1.21502 0.985,-2.2 2.2,-2.2 1.215,0 2.2,0.98498 2.2,2.2 z" cx="2101.4" cy="605.49" r="2.2" fill="#fff"/>
   <circle id="circle9575" d="m 2102.0601,605.48602 c 0,0.3866 -0.3134,0.7 -0.7,0.7 -0.3866,0 -0.7,-0.3134 -0.7,-0.7 0,-0.3866 0.3134,-0.7 0.7,-0.7 0.3866,0 0.7,0.3134 0.7,0.7 z" cx="2101.4" cy="605.49" r="0.7"/>
   <circle id="circle9577" d="m 2106.7701,600.82501 c 0,1.21503 -0.985,2.2 -2.2,2.2 -1.2151,0 -2.2,-0.98497 -2.2,-2.2 0,-1.21502 0.9849,-2.2 2.2,-2.2 1.215,0 2.2,0.98498 2.2,2.2 z" cx="2104.6" cy="600.83" r="2.2" fill="#fff"/>
   <circle id="circle9579" d="m 2105.2701,600.82501 c 0,0.3866 -0.3134,0.7 -0.7,0.7 -0.3866,0 -0.7,-0.3134 -0.7,-0.7 0,-0.3866 0.3134,-0.7 0.7,-0.7 0.3866,0 0.7,0.3134 0.7,0.7 z" cx="2104.6" cy="600.83" r="0.7"/>
   <circle id="circle9581" d="m 2109.98,596.164 c 0,1.21503 -0.9849,2.2 -2.2,2.2 -1.215,0 -2.2,-0.98497 -2.2,-2.2 0,-1.21503 0.985,-2.2 2.2,-2.2 1.2151,0 2.2,0.98497 2.2,2.2 z" cx="2107.8" cy="596.16" r="2.2" fill="#fff"/>
   <circle id="circle9583" d="m 2108.48,596.164 c 0,0.3866 -0.3134,0.7 -0.7,0.7 -0.3866,0 -0.7,-0.3134 -0.7,-0.7 0,-0.3866 0.3134,-0.7 0.7,-0.7 0.3866,0 0.7,0.3134 0.7,0.7 z" cx="2107.8" cy="596.16" r="0.7"/>
   <circle id="circle9585" d="m 2113.2,591.50201 c 0,1.21503 -0.985,2.2 -2.2,2.2 -1.215,0 -2.2,-0.98497 -2.2,-2.2 0,-1.21502 0.985,-2.2 2.2,-2.2 1.215,0 2.2,0.98498 2.2,2.2 z" cx="2111" cy="591.5" r="2.2" fill="#fff"/>
   <circle id="circle9587" d="m 2111.7,591.50201 c 0,0.3866 -0.3134,0.7 -0.7,0.7 -0.3866,0 -0.7,-0.3134 -0.7,-0.7 0,-0.3866 0.3134,-0.7 0.7,-0.7 0.3866,0 0.7,0.3134 0.7,0.7 z" cx="2111" cy="591.5" r="0.7"/>
   <circle id="circle9589" d="m 2116.41,586.841 c 0,1.21503 -0.985,2.2 -2.2,2.2 -1.2151,0 -2.2,-0.98497 -2.2,-2.2 0,-1.21502 0.9849,-2.2 2.2,-2.2 1.215,0 2.2,0.98498 2.2,2.2 z" cx="2114.2" cy="586.84" r="2.2" fill="#fff"/>
   <circle id="circle9591" d="m 2114.91,586.841 c 0,0.3866 -0.3134,0.7 -0.7,0.7 -0.3866,0 -0.7,-0.3134 -0.7,-0.7 0,-0.3866 0.3134,-0.7 0.7,-0.7 0.3866,0 0.7,0.3134 0.7,0.7 z" cx="2114.2" cy="586.84" r="0.7"/>
   <circle id="circle9593" d="m 2119.6199,582.17902 c 0,1.21502 -0.985,2.2 -2.2,2.2 -1.215,0 -2.2,-0.98498 -2.2,-2.2 0,-1.21503 0.985,-2.2 2.2,-2.2 1.215,0 2.2,0.98497 2.2,2.2 z" cx="2117.4" cy="582.18" r="2.2" fill="#fff"/>
   <circle id="circle9595" d="m 2118.1199,582.17902 c 0,0.3866 -0.3134,0.7 -0.7,0.7 -0.3866,0 -0.7,-0.3134 -0.7,-0.7 0,-0.3866 0.3134,-0.7 0.7,-0.7 0.3866,0 0.7,0.3134 0.7,0.7 z" cx="2117.4" cy="582.18" r="0.7"/>
   <circle id="circle9597" d="m 2122.8299,577.51801 c 0,1.21502 -0.985,2.2 -2.2,2.2 -1.215,0 -2.2,-0.98498 -2.2,-2.2 0,-1.21503 0.985,-2.2 2.2,-2.2 1.215,0 2.2,0.98497 2.2,2.2 z" cx="2120.6" cy="577.52" r="2.2" fill="#fff"/>
   <circle id="circle9599" d="m 2121.3299,577.51801 c 0,0.38659 -0.3134,0.7 -0.7,0.7 -0.3866,0 -0.7,-0.31341 -0.7,-0.7 0,-0.3866 0.3134,-0.7 0.7,-0.7 0.3866,0 0.7,0.3134 0.7,0.7 z" cx="2120.6" cy="577.52" r="0.7"/>
   <circle id="circle9601" d="m 2126.0501,572.85602 c 0,1.21502 -0.985,2.2 -2.2,2.2 -1.215,0 -2.2,-0.98498 -2.2,-2.2 0,-1.21503 0.985,-2.2 2.2,-2.2 1.215,0 2.2,0.98497 2.2,2.2 z" cx="2123.9" cy="572.86" r="2.2" fill="#fff"/>
   <circle id="circle9603" d="m 2124.5501,572.85602 c 0,0.3866 -0.3134,0.7 -0.7,0.7 -0.3866,0 -0.7,-0.3134 -0.7,-0.7 0,-0.3866 0.3134,-0.7 0.7,-0.7 0.3866,0 0.7,0.3134 0.7,0.7 z" cx="2123.9" cy="572.86" r="0.7"/>
   <circle id="circle9605" d="m 2129.2601,568.19501 c 0,1.21502 -0.985,2.2 -2.2,2.2 -1.2151,0 -2.2,-0.98498 -2.2,-2.2 0,-1.21503 0.9849,-2.2 2.2,-2.2 1.215,0 2.2,0.98497 2.2,2.2 z" cx="2127.1" cy="568.2" r="2.2" fill="#fff"/>
   <circle id="circle9607" d="m 2127.7601,568.19501 c 0,0.3866 -0.3134,0.7 -0.7,0.7 -0.3866,0 -0.7,-0.3134 -0.7,-0.7 0,-0.3866 0.3134,-0.7 0.7,-0.7 0.3866,0 0.7,0.3134 0.7,0.7 z" cx="2127.1" cy="568.2" r="0.7"/>
   <circle id="circle9609" d="m 2132.47,563.53302 c 0,1.21503 -0.985,2.2 -2.2,2.2 -1.215,0 -2.2,-0.98497 -2.2,-2.2 0,-1.21503 0.985,-2.2 2.2,-2.2 1.215,0 2.2,0.98497 2.2,2.2 z" cx="2130.3" cy="563.53" r="2.2" fill="#fff"/>
   <circle id="circle9611" d="m 2130.97,563.53302 c 0,0.3866 -0.3134,0.7 -0.7,0.7 -0.3866,0 -0.7,-0.3134 -0.7,-0.7 0,-0.3866 0.3134,-0.7 0.7,-0.7 0.3866,0 0.7,0.3134 0.7,0.7 z" cx="2130.3" cy="563.53" r="0.7"/>
   <circle id="circle9613" d="m 2135.69,558.87201 c 0,1.21503 -0.985,2.2 -2.2,2.2 -1.215,0 -2.2,-0.98497 -2.2,-2.2 0,-1.21503 0.985,-2.2 2.2,-2.2 1.215,0 2.2,0.98497 2.2,2.2 z" cx="2133.5" cy="558.87" r="2.2" fill="#fff"/>
   <circle id="circle9615" d="m 2134.19,558.87201 c 0,0.3866 -0.3134,0.7 -0.7,0.7 -0.3866,0 -0.7,-0.3134 -0.7,-0.7 0,-0.3866 0.3134,-0.7 0.7,-0.7 0.3866,0 0.7,0.3134 0.7,0.7 z" cx="2133.5" cy="558.87" r="0.7"/>
   <circle id="circle9617" d="m 2138.9,554.21002 c 0,1.21503 -0.985,2.2 -2.2,2.2 -1.2151,0 -2.2,-0.98497 -2.2,-2.2 0,-1.21502 0.9849,-2.2 2.2,-2.2 1.215,0 2.2,0.98498 2.2,2.2 z" cx="2136.7" cy="554.21" r="2.2" fill="#fff"/>
   <circle id="circle9619" d="m 2137.4,554.21002 c 0,0.3866 -0.3134,0.7 -0.7,0.7 -0.3866,0 -0.7,-0.3134 -0.7,-0.7 0,-0.3866 0.3134,-0.7 0.7,-0.7 0.3866,0 0.7,0.3134 0.7,0.7 z" cx="2136.7" cy="554.21" r="0.7"/>
   <circle id="circle9621" d="m 2142.1099,549.54901 c 0,1.21503 -0.985,2.2 -2.2,2.2 -1.215,0 -2.2,-0.98497 -2.2,-2.2 0,-1.21503 0.985,-2.2 2.2,-2.2 1.215,0 2.2,0.98497 2.2,2.2 z" cx="2139.9" cy="549.55" r="2.2" fill="#fff"/>
   <circle id="circle9623" d="m 2140.6099,549.54901 c 0,0.3866 -0.3134,0.7 -0.7,0.7 -0.3866,0 -0.7,-0.3134 -0.7,-0.7 0,-0.3866 0.3134,-0.7 0.7,-0.7 0.3866,0 0.7,0.3134 0.7,0.7 z" cx="2139.9" cy="549.55" r="0.7"/>
  </g>
  <use id="use9625" xlink:href="#king" height="1216.1899" width="2178.99" y="530.29498" x="2014.9"/>
  <use id="use9627" xlink:href="#king" transform="matrix(-1 0 0 -1 4348.9 1398.3)" height="1216.1899" width="2178.99" y="699.13202" x="2174.47"/>
  <use id="use9629" xlink:href="#spade" transform="matrix(-1 0 0 -1 4049.1 1088.6)" height="1216.1899" width="2178.99" y="544.29498" x="2024.55"/>
  <use id="use9631" xlink:href="#spade" height="1216.1899" width="2178.99" y="685.13202" x="2164.8201"/>
  <use id="use1571" xlink:href="#king_1" transform="matrix(0.99 0 0 .99 1919.6 75.168)" height="1215.6875" width="2178.4751" y="0" x="0"/>
  <use id="use1572" xlink:href="#king_1" transform="matrix(-0.99 0 0 -.99 2269.6 1154.5)" height="1215.6875" width="2178.4751" y="0" x="0"/>
 </g>
</svg>
