<?xml version="1.0" encoding="UTF-8" standalone="no"?>
<svg id="svg6414" xmlns:rdf="http://www.w3.org/1999/02/22-rdf-syntax-ns#" xmlns="http://www.w3.org/2000/svg" height="244.55" width="169.01" version="1.1" xmlns:cc="http://creativecommons.org/ns#" xmlns:xlink="http://www.w3.org/1999/xlink" viewBox="-0.2 -236 169.075 244.54907" xmlns:dc="http://purl.org/dc/elements/1.1/">
 <metadata id="metadata9787">
  <rdf:RDF>
   <cc:Work rdf:about="">
    <dc:format>image/svg+xml</dc:format>
    <dc:type rdf:resource="http://purl.org/dc/dcmitype/StillImage"/>
    <dc:title/>
   </cc:Work>
  </rdf:RDF>
 </metadata>
<!-- SVG-cards 2.0.1								--><!-- This set of SVG files is a complete cards game with figures, numbers	--><!--	and backs of cards completely designed in SVG.				--><!--										--><!--	Copyright (C) 2005 David Bellot						--><!--										--><!--	This library is free software; you can redistribute it and/or		--><!--	modify it under the terms of the GNU Lesser General Public		--><!--	License as published by the Free Software Foundation; either		--><!--	version 2 of the License, or (at your option) any later version		--><!--										--><!--	This library is distributed in the hope that it will be useful,		--><!--	but WITHOUT ANY WARRANTY; without even the implied warranty of		--><!--	MERCHANTABILITY or FITNESS FOR A PARTICULAR PURPOSE.  See the GNU	--><!--	Lesser General Public License for more details.				--><!--										--><!--	You should have received a copy of the GNU Lesser General Public	--><!--	License along with this library; if not, write to the Free Software	--><!--	Foundation, Inc., 59 Temple Place, Suite 330, Boston, MA 02111-1307  USA--><!--                                                                            --><!--	Contact the author David Bellot at david.bellot@free.fr			-->
 <defs id="defs6416">
  <g id="n_4">
   <text id="text6431" font-size="43px" font-weight="bold" transform="scale(.56453 1.0574)">4</text>
  </g>
  <g id="base">
   <path id="path6461" d="m0 0c0 3.78 3.09 6.87 6.87 6.87h152.84c3.77 0 6.86-3.09 6.86-6.87v-228.4c0-3.78-3.09-6.87-6.86-6.87h-152.84c-3.78 0-6.87 3.09-6.87 6.87v228.4z" stroke="#000" stroke-width="2.5" fill="#fff"/>
  </g>
  <g id="spade">
   <path id="path6485" d="m3.92-7.93c-1.67 0-2.55 1.78-3.01 3.56s-0.5 3.56-0.5 3.56l-0.85 0.01s-0.16-7.13-3.5-7.13h7.86z"/>
   <path id="path6487" d="m6.75-0.8c-0.01 3.47-5.22 5.99-6.75 8.73-1.53-2.75-6.74-5.27-6.75-8.73 0-1.64 1.51-2.97 3.38-2.97 1.86 0 3.37 1.33 3.37 2.97 0-1.64 1.51-2.97 3.38-2.97s3.37 1.33 3.37 2.97z"/>
  </g>
 </defs>
 <g id="4_spade" transform="translate(-501.68 -729.12)">
  <use id="use9032" xlink:href="#base" height="1216.1899" width="2178.99" y="729.41199" x="502.72501"/>
  <use id="use9034" xlink:href="#n_4" height="1216.1899" width="2178.99" y="530.29498" x="506.72501"/>
  <use id="use9036" xlink:href="#n_4" transform="matrix(-1 0 0 -1 1332.6 1398.3)" height="1216.1899" width="2178.99" y="699.13202" x="666.29999"/>
  <use id="use9038" xlink:href="#spade" transform="matrix(-1 0 0 -1 1032.8 1088.6)" height="1216.1899" width="2178.99" y="544.29498" x="516.375"/>
  <use id="use9040" xlink:href="#spade" height="1216.1899" width="2178.99" y="685.13202" x="656.65002"/>
  <use id="use9042" xlink:href="#spade" transform="matrix(-2.4 0 0 -2.4 1093.2 1061.8)" height="1216.1899" width="2178.99" y="221.209" x="227.743"/>
  <use id="use9044" xlink:href="#spade" transform="scale(2.4)" height="1216.1899" width="2178.99" y="289.323" x="227.743"/>
  <use id="use9046" xlink:href="#spade" transform="matrix(-2.4 0 0 -2.4 1252.9 1061.8)" height="1216.1899" width="2178.99" y="221.209" x="261.017"/>
  <use id="use9048" xlink:href="#spade" transform="scale(2.4)" height="1216.1899" width="2178.99" y="289.323" x="261.017"/>
 </g>
</svg>
