<?xml version="1.0" encoding="UTF-8" standalone="no"?>
<svg id="svg6414" xmlns:rdf="http://www.w3.org/1999/02/22-rdf-syntax-ns#" xmlns="http://www.w3.org/2000/svg" height="244.55" width="169.01" version="1.1" xmlns:cc="http://creativecommons.org/ns#" xmlns:xlink="http://www.w3.org/1999/xlink" viewBox="-0.2 -236 169.075 244.54907" xmlns:dc="http://purl.org/dc/elements/1.1/">
 <metadata id="metadata9787">
  <rdf:RDF>
   <cc:Work rdf:about="">
    <dc:format>image/svg+xml</dc:format>
    <dc:type rdf:resource="http://purl.org/dc/dcmitype/StillImage"/>
    <dc:title/>
   </cc:Work>
  </rdf:RDF>
 </metadata>
<!-- SVG-cards 2.0.1								--><!-- This set of SVG files is a complete cards game with figures, numbers	--><!--	and backs of cards completely designed in SVG.				--><!--										--><!--	Copyright (C) 2005 David Bellot						--><!--										--><!--	This library is free software; you can redistribute it and/or		--><!--	modify it under the terms of the GNU Lesser General Public		--><!--	License as published by the Free Software Foundation; either		--><!--	version 2 of the License, or (at your option) any later version		--><!--										--><!--	This library is distributed in the hope that it will be useful,		--><!--	but WITHOUT ANY WARRANTY; without even the implied warranty of		--><!--	MERCHANTABILITY or FITNESS FOR A PARTICULAR PURPOSE.  See the GNU	--><!--	Lesser General Public License for more details.				--><!--										--><!--	You should have received a copy of the GNU Lesser General Public	--><!--	License along with this library; if not, write to the Free Software	--><!--	Foundation, Inc., 59 Temple Place, Suite 330, Boston, MA 02111-1307  USA--><!--                                                                            --><!--	Contact the author David Bellot at david.bellot@free.fr			-->
 <defs id="defs6416">
  <g id="jack">
   <text id="text6458" font-size="40px" font-weight="bold" transform="scale(.56453 1)">J</text>
  </g>
  <g id="base">
   <path id="path6461" d="m0 0c0 3.78 3.09 6.87 6.87 6.87h152.84c3.77 0 6.86-3.09 6.86-6.87v-228.4c0-3.78-3.09-6.87-6.86-6.87h-152.84c-3.78 0-6.87 3.09-6.87 6.87v228.4z" stroke="#000" stroke-width="2.5" fill="#fff"/>
  </g>
  <g id="spade">
   <path id="path6485" d="m3.92-7.93c-1.67 0-2.55 1.78-3.01 3.56s-0.5 3.56-0.5 3.56l-0.85 0.01s-0.16-7.13-3.5-7.13h7.86z"/>
   <path id="path6487" d="m6.75-0.8c-0.01 3.47-5.22 5.99-6.75 8.73-1.53-2.75-6.74-5.27-6.75-8.73 0-1.64 1.51-2.97 3.38-2.97 1.86 0 3.37 1.33 3.37 2.97 0-1.64 1.51-2.97 3.38-2.97s3.37 1.33 3.37 2.97z"/>
  </g>
  <g id="jack_3">
   <g id="g6533">
    <polyline id="polyline6535" points="187.03 69.85 186.02 66.14 184.99 65.01 178.81 74.51 186.99 74.35 187.03 69.85" fill="#e61408"/>
    <path id="path6537" fill="#e61408" d="m172.6 89.2c0.86 1.15 1.82 2.08 2.87 3.07l-0.03 0.11 0.36 0.14 1.84-10.1-1.86-3.09c-1.74 2.6-3.29 5.28-4.86 7.99l0.02-0.03 1.66 1.91"/>
    <path id="path6539" fill="#e61408" d="m212.58 22.42-0.68 2.19 0.23 0.11 0.72-1.56c1.9 0.55 3.8 1.1 5.71 1.65 0.85 0.25 1.71 0.79 2.51 1.16 0.89 0.41 1.79 0.83 2.69 1.24l4.12-3.28 1.12 0.34 0.72 3.79 0.63 0.03 2.88-2.42 0.12 3.03 3.56-3.85c-0.72-2.22-1.44-4.43-2.16-6.65-0.56-1.73-1.01-3.54-1.77-5.2-1.99-4.32-4.01-8.62-6.08-12.9 0-0.01-0.01-0.02-0.01-0.03-2.51 3.85-5.01 7.7-7.52 11.55-1.54 2.37-3.09 4.74-4.63 7.12-0.81 1.22-1.4 2.48-2.16 3.68"/>
    <path id="path6541" fill="#e61408" d="m215.14 148.06c-3.59 2.03-7.19 4.07-10.76 6.13-2.17 0.63-4.34 1.26-6.51 1.89-0.93 0.27-2.01 0.28-2.96 0.41-1.17 0.16-2.35 0.32-3.52 0.49l-6.72-1.29-2.89-1.76-6.89 5.17 0.13 1.1c2.16 1.05 4.31 2.1 6.47 3.15 1.71 0.83 3.25 2.18 4.8 3.26l-0.05 0.06c1.09 0.62 2.15 1.3 3.22 1.94 2.14-0.87 4.28-1.74 6.42-2.6 0.77-0.31 1.66-0.44 2.46-0.65 1.42-0.37 2.83-0.73 4.25-1.1 4.09-1.06 8.37-1.37 12.57-1.61h0.04l1.63-2.95c1.93-2.25 3.89-4.44 5.92-6.62l-2.92-1.28-4.69-3.74"/>
    <path id="path6543" fill="#e61408" d="m214.79 118.67 1.9 0.92 1.38 2.62 3.27 0.89c-1.68-3.76-3.51-7.48-5.03-11.31-1.01-2.53-2.01-5.06-3.02-7.59-0.64-1.6-1.02-3.35-1.51-5-0.97-3.27-2.23-6.56-2.89-9.91-0.77-3.87-1.53-7.73-2.3-11.6l-7.91-1.82c0.54 4.6 1.09 9.2 1.63 13.8 0.22 1.84 0.73 3.69 1.09 5.51 0.49 2.47 0.99 4.95 1.48 7.43 0.21 1.04 0.64 2.08 0.95 3.09 0.72 2.31 1.44 4.62 2.16 6.92 0.91 2.91 1.87 5.77 2.89 8.64l0.75 0.92 0.23 1.82 0.07 0.18 1.54 0.05-0.07-2.48 0.46-2.22 2.93-0.86"/>
    <path id="path6545" fill="#e61408" d="m192.84 76.55-8.5 1.94c-0.1 1.14-0.2 2.27-0.3 3.41-0.07 0.82-0.04 1.72-0.24 2.52-0.56 2.3-1.12 4.61-1.68 6.91-0.6 2.46-1.19 4.91-1.79 7.37-0.45 1.86-1.33 3.68-1.99 5.47-0.62 1.67-1.23 3.33-1.85 5-0.55 1.49-1.44 2.92-2.15 4.34-1.42 2.86-3.01 5.62-4.57 8.41 2.28 1.07 4.35 2.61 6.46 3.97l3.53-0.62 1.53-2.13c1.62-3.84 3.24-7.68 4.86-11.53 0.54-1.29 0.98-2.45 1.34-3.8 0.21-0.82 0.33-1.78 0.69-2.55 0.42-0.9 0.84-1.79 1.26-2.69 0.98-4.69 1.69-9.43 2.48-14.15 0.25-1.48 0.61-2.97 0.66-4.47 0.08-2.47 0.17-4.93 0.26-7.4"/>
    <path id="path6547" fill="#e61408" d="m167.01 113.67 2.28-5.33c-2.11-2.68-4.18-5.38-6.29-8.07v-0.04l-0.11-0.13-1.02 0.96c-1.19 1.79-2.39 3.58-3.58 5.36l-1.06 2.82c1.13 1.75 2.27 3.51 3.4 5.26 0.94 1.46 2.3 2.73 3.43 4.05l2.95-4.88"/>
    <path id="path6549" fill="#f8c20f" d="m166.05 104.15c1.11 1.41 2.26 2.78 3.39 4.17 0.69-1.29 1.39-2.58 2.08-3.88 0.69-1.28 1.09-2.81 1.61-4.17 0.44-1.14 1-2.28 1.28-3.48l1.05-4.53c-1.65-1.56-3.03-3.26-4.52-4.98-1.32 1.83-2.58 3.7-3.78 5.61-1.28 2.05-2.76 3.96-3.99 6.04-0.06 0.45-0.11 0.89-0.17 1.34l3.05 3.88"/>
    <path id="path6551" fill="#f8c20f" d="m186.5 127.54c1.18-1.94 2.37-3.64 3.8-5.39l2.39-1.82 1.31-4.06-1.94 0.21-3.37 1.23-2.66 1.86-2.6 3.33-1.24 2.53 1.8 1.34 2.51 0.77"/>
    <path id="path6553" fill="#f8c20f" d="m208.88 121.25-2.19-2.68-3.14-1.57-2.96-0.75-1.53 0.1 0.25 2.03-0.86-2.47-4.37-0.17-0.61 4.62 2.77 0.86 3.61-1.27-0.11-0.31 1.93 0.35 4.07 2.59 2.97 2.84 1.18-1.04c-0.09-0.74-0.18-1.47-0.28-2.21l-0.73-0.92"/>
    <path id="path6555" fill="#f8c20f" d="m189.14 103.99c0.89 3.91 1.81 7.81 2.61 11.74l7.14-0.65c0.62-2.15 1.2-4.26 1.68-6.44 0.55-2.47 1.01-4.83 1.94-7.18l-1.39-2.93-0.77-0.35-0.56 0.08-0.02 0.09-3.12-0.32-0.64 0.34 0.14 4.02-0.51 2.86-1.01 0.34c-0.12-2.15-0.21-4.29-0.25-6.44l-0.28-0.7-3.83 0.08c-0.38 1.81-0.76 3.63-1.13 5.46"/>
    <path id="path6557" fill="#f8c20f" d="m181.84 163.53-6.83-3.33c-0.1-0.89-0.21-1.78-0.31-2.67l0.58-3.6 1.84-4.82-0.98-1.79-2.4-0.84-2.67 0.47-2.54 2.5-3.2 0.82-1.62 2.47-0.83 3.92 0.8 3.04-0.28 0.21-0.51 0.09 0.26 0.94 1.83 1.23-1.15 0.86 1.08 0.71 1.78 0.43-0.25 1.22 1.04 1.12-0.09 1.29c1.04 0.47 2.06 0.96 3.14 1.34 0.79 0 1.52-0.12 2.3-0.24 1.77 0.21 3.48 0.35 5.25 0.33 1.72-0.02 3.41-0.1 5.12 0.02l0.29-0.33 1.84-1.28c0.31-0.35 0.62-0.7 0.94-1.04l-4.43-3.07"/>
    <path id="path6559" fill="#e61408" d="m249.76 95.24-4.09 0.98-4.96-2.65-0.02-0.03-0.49 0.83c-3.19 2.58-6.33 5.21-9.46 7.86-2.91 2.45-5.55 5.09-8.25 7.78l-0.15 0.43 5.81 11.22 2.27-0.26 2.55-1.1c2.04-1.64 4.08-3.29 6.13-4.93 1.59-1.28 2.84-2.87 4.2-4.4l1.74-3.58 0.37-1.81 3.31-1.99 8.06-7.94 2.33-3.41 1.24-3.2 0.03-3.49-0.84 0.26c-1.74 1.85-3.48 3.69-5.22 5.54-1.39 1.47-2.96 2.64-4.56 3.89"/>
    <path id="path6561" fill="#e61408" d="m220.87 88.41c2.78-1.62 5.48-3.3 8.18-5.05l-0.52-1.64-9.8 4.85-2.17 0.25-3.36-6.82-1.76 0.6 3.57 12.3 0.11-0.07-0.1-0.38 5.85-4.04"/>
    <path id="path6563" fill="#f8c20f" d="m236.42 97.43 3.77-3.05 0.49-0.83c-1.16-1.48-2.3-2.8-3.64-4.12l0.48 0.43 0.2-0.1-0.82-1.06 2.05-0.7c1.56-1.03 3.13-1.96 4.49-3.23 2.13-1.99 4.27-3.99 6.4-5.98 1.48-1.38 2.57-3.16 3.78-4.78 1.26-1.69 2.13-3.46 3.1-5.34 0.6-1.16 1.19-2.32 1.79-3.47 1.18-4.07 2.53-8.1 3.27-12.28 0.36-2.03 0.95-4.13 1.01-6.19 0.09-2.82 0.17-5.65 0.26-8.47 0.08-2.67-0.12-5.36-0.2-8.03l0.43 0.51 0.02-0.58c-0.42-1.51-0.72-3.12-1.33-4.56-0.79-1.85-1.57-3.7-2.36-5.56l-3.48-3.74 0.27 18.13-3.22 1.34-5.95 6.35-3.09 6.9-1.35 8.1 2.34 10.26c-1.49 1.89-2.94 3.8-4.6 5.54-1.63 1.7-3.25 3.41-4.88 5.11-1.05 0.49-2.11 0.98-3.16 1.46-1.73-1.48-3.47-2.9-5.29-4.27-0.06 0.84-0.11 1.69-0.17 2.54l0.49 2.49 1.39 1.94 1.95 1.74-0.06-0.05-1.7-0.54c-2.45 1.6-4.91 3.14-7.44 4.62-2.31 1.35-4.46 2.98-6.66 4.5 0.78 3.05 1.97 5.91 3.16 8.83 0.7 1.71 1.39 3.41 2.09 5.12 0.55 1.35 1.31 2.52 2.08 3.77 2-1.98 3.9-4.13 6.05-5.95 2.69-2.28 5.37-4.54 8.04-6.8"/>
    <path id="path6565" fill="#e61408" d="m197.27 59.02c-0.4 3.71-0.84 7.4-1.01 11.13l7.47 0.64 1.72-2.58c0.58-2.25 1.15-4.49 1.72-6.74 0.43-1.67 1.08-3.4 1.27-5.11 0.58-5.2 1.16-10.39 1.74-15.59 0.37-3.31 0.69-6.62 1.02-9.93l-0.48-0.11-0.3-1-0.87-0.99-2.11 1.39-10.09 15.8v0.02l0.13-0.2-0.21 13.27"/>
    <path id="path6567" fill="#e61408" d="m229.54 76.97c1.02 0.87 2.08 1.64 3.16 2.42l2.95-1.37c2.58-2.7 4.98-5.41 7.34-8.31l-8.55-3.2c-2.02 2.92-4.61 5.36-7.05 7.94l-0.25 0.91 0.04 0.03 0.01-0.17 2.35 1.75"/>
    <path id="path6569" fill="#e61408" d="m224.25 35-0.12 0.38 0.19 0.77c-0.36 2.26-0.73 4.52-1.09 6.78-0.29 1.82-0.46 3.71-0.91 5.5-1.07 4.25-1.93 8.57-3.48 12.67-0.98 2.59-1.96 5.18-2.94 7.77-0.7 1.85-1.82 3.6-2.72 5.35l1.9 1.29 4.03-3.08 3.29-4.46c0.88-1.97 1.84-3.92 2.64-5.92 0.76-1.9 1.7-3.8 2.28-5.76 0.63-2.15 1.51-4.34 1.93-6.54 0.49-2.56 0.98-5.11 1.47-7.67 0.09-0.49 0.19-0.98 0.28-1.47l-0.44-2.24-1.42-0.77-0.78-1.42-1.9-0.85-1.23-1.22-0.12 0.37-0.86 0.52"/>
    <path id="path6571" fill="#f8c20f" d="m219.74 58.72c0.47-1.89 0.95-3.78 1.42-5.68 0.41-1.65 0.97-3.33 1.25-5.01 0.64-3.96 1.28-7.93 1.92-11.89-0.08-0.35-0.17-0.69-0.26-1.04l-0.13 0.08-1.39-1.82-1.7-3.46-1.82-1.62-2.69-0.23c-1.45 0.95-2.79 1.93-4.15 3.01l-0.98-0.21c-0.4 3.87-0.78 7.74-1.21 11.61-0.34 3.07-0.69 6.14-1.03 9.22-0.18 1.63-0.17 3.46-0.57 5.05-0.98 3.83-1.96 7.66-2.94 11.49-0.82 1.23-1.64 2.47-2.47 3.7l9.07 3.15 1.02-0.63c1.13-2.19 2.36-4.34 3.24-6.65 1.13-3.03 2.28-6.05 3.42-9.07"/>
    <path id="path6573" fill="#f8c20f" d="m187.21 70.52 9.03-1.94c0.37-3.37 0.99-6.79 1.04-10.17 0.07-4.22 0.13-8.43 0.2-12.65-3.94 6.07-7.87 12.16-11.81 18.23l-0.11 0.44 1.65 6.09"/>
    <path id="path6575" fill="#1c1585" d="m211.2 30.84 0.98 0.21c1.35-1.08 2.7-2.06 4.15-3.01l2.69 0.23 1.82 1.62 1.7 3.46 1.39 1.82 1.17-0.69c0.25-0.82 0.51-1.64 0.76-2.46l-0.21-3.5-0.85-0.83c-2.04-0.94-4.08-1.89-6.12-2.83-0.77-0.36-1.69-0.51-2.51-0.75l-3.33-0.96-1.53 3.33c0.42-1.36 0.84-2.72 1.26-4.07 0.36-0.57 0.62-1.1 0.88-1.72l-5.04 7.84 1.91 0.12-0.13 0.29c0.18 0.6 0.35 1.19 0.53 1.79l0.48 0.11"/>
    <path id="path6577" fill="#1c1585" d="m264.23 48.82-0.21-17.23c-0.38-0.46-0.77-0.91-1.16-1.37 0.14 4.48 0.23 8.87 0.08 13.35-0.06 1.91-0.15 3.68-0.48 5.55-0.38 2.15-0.58 4.44-1.18 6.54-0.92 3.17-1.84 6.35-2.75 9.52-1.13 2.2-2.26 4.39-3.39 6.59-0.98 1.9-2.49 3.55-3.76 5.25-1.13 1.51-2.54 2.7-3.92 3.99-1.15 1.08-2.31 2.16-3.46 3.23-0.5 0.46-0.99 1.07-1.56 1.44-1.16 0.77-2.32 1.53-3.48 2.3l-2.05 0.7c1.27 1.63 2.54 3.25 3.8 4.88l4.96 2.65 4.09-0.98c1.69-1.33 3.3-2.57 4.77-4.13 1.82-1.93 3.63-3.86 5.45-5.78l3.51-8.16c0.41-2.29 0.83-4.46 0.86-6.78 0.02-1.52-0.01-3.03-0.02-4.55-0.04-5.52-0.07-11.03-0.11-16.55 0.01-0.15 0.01-0.3 0.01-0.46"/>
   </g>
   <path id="path6579" d="m223.38 152.8c-1.36-0.16-2.65-1.09-3.8-1.77-1.17-0.69-2.88-1.66-3.48-2.94-0.37-0.78 0.03-1.82-0.1-2.66-0.13-0.86-0.43-1.7-0.43-2.59 0.16 0.08 1.17 0.63 1.29 0.43 0.57-0.92-0.06-1.98 0.41-2.8 0.45-0.8 0.93-1.58 1.24-2.44 0.24-0.65 0.52-1.46 1.24-1.71 0.74-0.25 1.55-0.43 2.19-0.9 0.62-0.46 0.81-1.36 1.47-1.75 0.82-0.49 1.69-0.6 2.4-1.32 0.66-0.66 1.28-1.98 1.37-2.91 0.22-2.11-0.29-4.56-1.73-6.16 1.71-0.29 3.56-1.04 5.2-1.6 1.91-0.66 3.6-1.72 5.18-2.98 2.98-2.4 6.6-5.16 8.36-8.63 0.69-1.35 0.79-3.15 1.68-4.36 0.99-1.34 3.05-1.94 4.32-3.05 2.88-2.51 5.82-5.39 8.05-8.5 1.01-1.42 1.87-2.98 2.28-4.69 0.4-1.68-0.26-3.78 0.47-5.33 0.84-1.79 1.75-3.51 2.38-5.39 0.56-1.67 0.85-3.73 1.01-5.48 0.39-4.33 0.02-8.83 0-13.18-0.02-4.59-0.05-9.18-0.07-13.77-0.02-2.94-0.03-5.88-0.04-8.82-0.02-2.95 0.33-6.07-0.72-8.88-1.79-4.77-3.21-10.05-7.68-13.07-1.25-0.85-3.17-0.3-4.46 0.13-1.86 0.62-3.63 1.49-5.29 2.52-1.53 0.95-2.97 2.02-4.39 3.13-0.77 0.6-1.52 1.21-2.28 1.82-0.43 0.34-1.31 1.33-1.94 1.2-0.64-0.13-0.78-1.42-0.92-1.91-0.34-1.18-0.67-2.36-1.04-3.53-0.73-2.32-1.64-4.57-2.55-6.82-0.91-2.24-1.87-4.44-2.95-6.61-0.5-1-1.06-1.96-1.56-2.96-0.43-0.87-0.84-1.94-1.67-2.52-0.42 0.8 0.21 1.69 0.6 2.35 0.55 0.93 1.06 1.91 1.55 2.88 1.06 2.12 2.07 4.27 3.03 6.43 0.99 2.22 1.8 4.51 2.59 6.81 0.41 1.19 0.81 2.38 1.13 3.59 0.21 0.76 1.01 2.7 0.24 3.37-0.3 0.26-1.25-0.07-1.59-0.27-1.67-0.97-1.95-2.8-2.42-4.52-0.66-2.42-1.51-4.73-2.51-7.02-0.43-0.99-0.88-1.98-1.33-2.97-0.44-0.96-1.12-1.88-1.36-2.92-0.25-1.05-0.11-2.24-0.15-3.31-0.05-1.14-0.23-2.27-0.27-3.41-1.48 0.87-0.86 2.7-0.48 4-0.58-0.35-2.09-1.72-2.25-0.24-0.36 3.34 0.58 6.89 0.85 10.29 0.15 1.84-0.02 3.69-0.01 5.53 0.01 1.47 0.4 3.51-0.05 4.91-0.24 0.73-0.51 0.76-1.24 0.75-0.68-0.01-1.77-0.72-1.83-1.44-0.12-1.55 0.47-3.23 0.71-4.76 0.24-1.59 0.52-3.19 0.69-4.8 0.31-3.05 0.41-6.17 0.39-9.23-1.41 0.83-0.96 3.03-0.98 4.38-0.03 2.01-0.16 4.05-0.46 6.04-0.28 1.88-0.64 3.76-0.91 5.65-0.09 0.61-0.1 2.48-1.06 2.44-0.07 0-1.29-0.05-1.23-0.26 1.41-4.62 2.19-9.64 2.16-14.48-1.66 1-1.25 4.21-1.4 5.86-0.14 1.61-0.45 3.13-0.79 4.71-0.27 1.25-0.43 2.26-1.38 3.18-0.66 0.65-3.82-0.82-4.37-1.21 0.8-0.28 3.03-0.79 3.24-1.77-0.8 0-2.26-0.25-2.74 0.47-0.88 1.33-1.15 2.79-1.72 4.25-0.37 0.96-0.82 2.39-1.75 2.95-0.32 0.19-1 0.02-1.19 0.16-0.22 0.17-0.38 0.49-0.52 0.72-0.45 0.72-0.92 1.47-1.27 2.25 0.96-0.3 0.65 1.44 0.59 1.9-0.22 1.6-0.1 3.25-0.3 4.87-0.46 3.79-0.54 7.59-1.07 11.38-0.25 1.78-0.25 3.59-0.49 5.38-0.28 2.04-0.72 4.07-1.1 6.1-0.05 0.28-1.79 7.81-2.56 7.12-0.52-0.47-0.57-0.62-0.46-1.34 0.89-5.41 2.11-10.83 2.39-16.31 0.13-2.61 0.41-5.21 0.54-7.82 0.07-1.35 0.22-2.7 0.21-4.04-0.01-1.32-0.1-2.68 0.27-3.97-0.76 0.45-1.37 1.72-1.74 2.51 0.63-0.32 0.79-0.36 0.68 0.32-0.37 2.3-0.25 4.76-0.37 7.09-0.14 2.73-0.32 5.44-0.65 8.16-0.62 5.11-1.7 10.12-2.49 15.2-1.4-0.17-0.93-2.79-0.82-3.66 0.28-2.13 0.47-4.25 0.64-6.4 0.23-2.84 0.42-5.71 0.58-8.55 0.09-1.53 0.24-3.05 0.23-4.59-0.01-1.44-0.07-2.88 0.23-4.3-0.81 0.47-1.36 1.69-1.74 2.51 0.94-0.39 0.5 2.7 0.48 3.13-0.07 1.31-0.01 2.56-0.17 3.87-0.19 1.62-0.25 3.26-0.25 4.89 0 2.57-0.17 5.42-0.59 7.96-0.09 0.54-0.34 4.66-1.09 4.66-0.7 0-0.07-8.67-0.07-9.52 0-2.08 0.22-4.16 0.23-6.24 0.01-0.95 0.15-1.89 0.15-2.84 0-1.13-0.18-2.26-0.18-3.4-1.38 0.85-0.71 3.46-0.72 4.79-0.01 2.18-0.25 4.33-0.22 6.52 0.03 2.29-0.17 4.52-0.24 6.81-0.03 0.87 0.07 3.71-1.21 3.9-0.01-2.96-0.28-5.91-0.3-8.87-0.01-2.88-0.28-5.76-0.3-8.63-0.54 0.47-0.92 1.09-1.15 1.76-0.27 0.79 0.35 1.55 0.1 2.28-0.23 0.69-0.48 1.72-1.32 1.96-0.59 0.17-1.63-0.43-1.85 0.53 1.1-0.21 2.73 1.13 3.07 2.11 0.32 0.92 0.37 1.28 0.22 2.24-0.07 0.46-0.73 1.43-1.26 1.46-0.63 0.04-0.95-0.86-1.33-1.29-0.53-0.6-1.01 0.24-1.16 0.7-0.27 0.83-0.52 1.21-1.43 0.8-0.55-0.25-0.86-1.18-0.84-1.77-1.27 1.06-0.62 2.94-0.29 4.28 0.1 0.42 1.18 4.71 0.51 4.72-0.06 0-0.41 0.04-0.43-0.02-0.37-1.09-0.76-2.16-1-3.29-0.16-0.75-0.31-1.96-1.02-2.43-0.08 0.11-0.77 0.96-0.72 1.04 0.54 0.8 2.47 4.61 1.5 5.45-0.29 0.25-0.52-0.09-0.57-0.29-0.34-1.47-1.2-2.63-1.21-4.2-0.35 0.21-0.6 0.57-0.83 0.9-0.44 0.65-0.25 0.87 0.13 1.48 0.5 0.78 0.83 1.71 0.97 2.62-1.03-0.66-0.93-2.19-1.77-2.99-0.2 0.28-0.39 0.55-0.6 0.82-0.28 0.35 0.23 0.67 0.38 0.93 0.37 0.68 0.6 1.47 0.49 2.25-0.58-0.64-1.04-1.39-1.26-2.24-1.1 0.9-0.03 1.91-0.23 3-0.34-0.41-0.69-0.95-0.76-1.5-0.53 0.47-0.95 1.11-1.24 1.76 0.25-0.04 0.5-0.04 0.75 0-0.22 0.71-0.88 1.24-1.64 1.26-0.34 0.01-0.79 1.06-0.92 1.31-0.9 1.61-2.13 3.03-2.9 4.71 0.13-0.07 0.74-0.46 0.75-0.15 0.04 0.99 0.45 1.96 0.76 2.89-0.72-0.1-1.22-0.92-1.72-1.38-0.36-0.33-0.17-0.4-0.61-0.12-0.77 0.48-1.31 1.86-1.8 2.6-0.74 1.13-1.7 2.25-2.07 3.57-0.07 0.37 2.23 2.04 2.48 2.09-0.19-1.23-1.56-1.78-1.77-2.99 0.91 0.42 1.43 1.27 2.12 1.95 0.79 0.77 1.66 1.66 1.91 2.78-0.57-0.53-1.2-1.33-2.01-1.49 0.01 0.53 0.29 1.03 0.51 1.5-1.22-0.09-2.15 0.89-3.24 1.27 0-0.83-0.09-1.67-0.09-2.5 0-0.68 0.15-1.36-0.18-2-1 0.58-0.98 5.56-0.37 5.49 1.26-0.13 1.98-1.17 3.14-1.51 0.13 0.43 0.29 0.86 0.51 1.25 0.56-0.39 0.46-1.16 0.49-1.75 0.28 0.3 0.91 0.81 0.85 1.29-0.09 0.66-0.23 1.3-0.33 1.96-0.12-0.25-0.84-1.66-1.05-0.8-0.11 0.47 0.15 4.56-0.51 4.56-0.54 0-0.62-0.45-0.9-0.85-0.54-0.77-1.12-1.51-1.67-2.28-0.85-1.18-2.35-2.54-2.39-4.1-0.81 0.62-0.36 1.63 0.16 2.29 0.99 1.26 1.91 2.57 2.85 3.87 0.86 1.19 1.61 2.58 1.05 4.07-1.23-0.67-2.04-1.97-2.82-3.09-0.9-1.31-2.55-2.83-2.97-4.38-0.32 0.27-0.53 0.58-0.71 0.95 0.08-0.14 2.47 2.9 2.6 3.09 0.96 1.43 2.89 3.2 3.16 4.94-1.12 0.16-2.07 0.78-3.25 0.77 0-0.4 0.22-4.76-0.06-4.75-1.09 0-2.14 0.26-3.21 0.27 0-1-0.01-2-0.02-3-1.21 1.07-1.97 2.81-2.82 4.16-0.5 0.79-0.87 1.48-0.17 2.28 1.84 2.11 3.44 4.47 5.1 6.71 0.58 0.78 0.63 1.43 0.28 2.33-0.3 0.77-0.83 1.58-1.54 2.01-0.64-1.77-2.2-3.01-3.31-4.47-1.1-1.44-2.74-3.05-2.74-5-1.04 0.96-3.35 3.84-2.49 5.31 1.49 2.53 3.56 4.64 5.06 7.15 0.64 1.06 1.26 2.16 2.13 3.05 0.95 0.98 2.23 1.5 3.3 2.32 0.91 0.69 0.55 1.95 1.25 2.79 0.5 0.59 2.11 0.58 2.24 1.38 0.17 1.03 0.14 1.92 0.62 2.87 0.4 0.79 1.52 1.21 2.33 1.38 0.98 0.21 2.03 0.15 2.93-0.33 0.07 0.54-0.18 1.08-0.29 1.6-0.13 0.63 0.02 1.16 0.2 1.75 0.23 0.75 1.96 1.67 2.58 2.11 0.67 0.48-0.42 2.75-0.43 3.47-0.01 1.08 0.25 2.14 0.7 3.12 0.46 1 0.03 1.83-0.1 2.87-0.2 1.55 1.42 2.67 1.42 4.2 0 0.83-0.27 1.65-0.17 2.47 0.11 0.86 0.49 1.81-0.35 2.43-0.89 0.66-1.73 1.4-2.65 2.02-0.88 0.6-1.7 1.48-2.78 1.72 0-0.81-0.24-2.48 0.36-3.14 0.32-0.36 0.82-0.6 1.07-0.99 0.44-0.66 0.04-1.69 0.36-2.45 0.35-0.82 0.59-1.51 0.72-2.39 0.15-0.98-1.17-1.93-1.87-2.34-1.03-0.6-1.95-0.75-3.16-0.63-0.75 0.08-1.45 0.28-2.07 0.71-0.77 0.53-1.22 1.38-1.96 1.9-1.21 0.86-3.56 0.28-4.36 1.92-0.7 1.43-0.89 2.73-1.27 4.23-0.18 0.7-0.58 1.22-0.44 1.98 0.16 0.87 0.6 1.67 0.88 2.51-0.73 0-0.87 0.67-0.57 1.24 0.31 0.58 0.98 0.93 1.33 1.51-0.16 0.03-0.92 0.06-1 0.26-0.1 0.23 0.43 0.73 0.58 0.85 0.6 0.45 1.43 0.8 2.18 0.89-0.63 0.82-0.06 1.63 0.76 2-1.04 1.48 1.78 2.05 2.62 2.52 0.96 0.53 1.95 0.39 2.99 0.3 1.06-0.08 2.09 0.12 3.14 0.18 2.59 0.16 5.18-0.08 7.77-0.09-0.61-0.49-1.61-0.29-2.32-0.25-1.38 0.08-2.78 0.02-4.16 0.03-2.18 0.01-4.3-0.46-5.95-1.96-1.71-1.56-3.16-3.24-4.14-5.36-0.83-1.79-1.99-4.5-0.54-6.24 0.47-0.56 0.94-1.14 1.03-1.89-0.38 0.06-0.68 0.31-1 0.51 0.17-0.54 0.61-1.43 0.49-2-1.43 0.38-1.68 2.88-1.8 4.06-0.1 0.94-0.04 1.9 0.1 2.83 0.15 1.03 0.87 2.05 0.75 3.11-0.66-0.58-2.38-1.07-2.51-1.99 0.53 0.28 1.17 0.23 1.75 0.24-0.28-1.3-1.76-2.04-1.77-3.49 0.25 0.33 0.58 0.66 1 0.74 0.03-0.54-0.12-1.07-0.2-1.6-0.11-0.7-0.08-0.69 0.36-1.02 0.53-0.4 0.95-2.22 0.81-2.88-0.56 0.33-0.89 1.13-0.99 1.75-0.87-1.6 1.73-3.92 3.22-3.69 2.42 0.38 0.53 3.41 0.54 4.92 0.83-0.51 1.12-1.53 1.99-2.01-0.58 1.07-1.81 2.29-1.98 3.51 1.37-0.2 1.67-2.12 2.74-2.76-0.18 1.55-1.95 2.52-1.98 4.01 1.2-0.24 1.95-1.48 2.6-2.39 0.38-0.54 0.99-2.11 1.61-2.31 1.03-0.35 1.39-0.56 2.26 0.17-1.08 0.16-2.13 0.96-2.49 2.01-0.43-0.21-0.46-0.23-0.75 0.15-0.42 0.57-1.36 1.86-0.99 2.6 0.35-0.25 0.67-0.48 1-0.75-0.52 1.75-3.47 2.29-1.98 4.51 0.43-0.55 0.42-1.31 0.85-1.86 0.56-0.72 1.57-1.5 2.38-1.9 0.01 0.54 0.13 1.32-0.07 1.84-0.21 0.54-0.89 0.97-1.27 1.4-0.56 0.64-1.12 2.72 0.12 3.02 0.06-1.25 0.12-2.11 1.03-3.03 0.82-0.83 1.73-0.53 2.71-0.24-0.48 1-1.3 2.12-0.73 3.25 0.74-0.52 0.83-2.44 2.11-2.37 0.46 0.03 0.79 0.33 1.13 0.6-1.77 0.3-2 2.36-1.27 3.64 0.78 1.38 2.91 1.56 4.3 1.59-0.25-0.38-0.72-0.49-1.13-0.57-0.71-0.13-1.24-0.42-1.78-0.9-1.02-0.92-0.8-2.37 0.39-3.02-0.24 0.76-0.54 2.79 0.76 2.75 0-0.5 0-1-0.01-1.5 0.59 0.3 1.22 0.7 1.91 0.7 0.78 0.01 1.61-0.11 2.34 0.23 0.65 0.29 1.29 1.04 0.97 1.7-0.32 0.67-1.34 0.96-1.2 1.85 0.96-0.58 1.93-1.09 2.96-1.54 0.6-0.27 2.25 1.26 2.76 1.54s1.36-0.25 1.79-0.48c0.85-0.45 1.68-0.82 2.58-1.17 2.35-0.93 4.55-1.59 7-2.2 2.46-0.61 4.89-1.04 7.39-1.46 1.19-0.2 2.39-0.29 3.59-0.39 1.23-0.11 2.79 0.01 3.96-0.43 0.69-0.26 0.87-1.31 1.14-1.9 0.49-1.08 1.37-2.1 2.14-3 0.86-1 1.82-1.91 2.78-2.82 0.69-0.64 1.89-1.35 1.88-2.37m-55.17 14.79c0-0.5 0.14-1.07-0.28-1.46-0.38-0.35-0.98-0.7-0.98-1.29 1.04 0.01 1.65 1.17 2.34 1.77 0.75 0.65 2.12 1.33 2.18 2.46-1.39 0.04-2-1.15-3.26-1.48m7.46-7.54c-0.21-1.09 1.33-0.48 1.81-0.28 1.42 0.6 2.78 1.31 4.14 2.04 1.69 0.91 3.38 1.83 4.99 2.89 0.73 0.48 1.93 1.79 2.89 1.58 1.85-0.4 3.62-1.44 5.43-2.02 2.17-0.69 4.36-1.31 6.55-1.9 2.15-0.58 4.16-0.81 6.36-1.01 0.93-0.08 1.84-0.33 2.77-0.41 0.71-0.06 1.71 0.29 2.37 0.04 1.73-0.68 2.53-3.07 3.67-4.42 0.95-1.13 2.83-3.56 4.49-3.6 0.21-0.01 0.48 0.04 0.66 0.15 0.38 0.24 0.32 0.18 0.17 0.59-0.26 0.75-1.3 1.37-1.85 1.9-0.85 0.83-1.7 1.68-2.47 2.58-0.65 0.76-1.13 1.57-1.55 2.46-0.31 0.66-0.73 1.52-1.54 1.64-2.01 0.31-4.01 0.09-6.03 0.47-2.27 0.42-4.53 0.83-6.78 1.37-2.16 0.52-4.34 1.02-6.45 1.71-1.14 0.38-2.29 0.77-3.39 1.26-0.82 0.36-1.76 0.9-2.69 0.77-1.16-0.16-2.15-1.16-3.08-1.79-1.17-0.8-2.34-1.6-3.56-2.34-2.24-1.36-4.6-2.46-6.91-3.68m-0.21 7.75c-0.15-0.57-0.62-0.97-1.01-1.38-0.47-0.48-0.58-1.21-0.84-1.8-0.51-1.21 0.64-2.19 0.81-3.31-3.32 0.6-2.01 6.48 1.04 6.49m-5.01-2.22c0.25-0.67-0.37-1.37-1.01-1.5-0.02 0.69 0.39 1.24 1.01 1.5m15.49-2.58c0.31-1.52 2.49-2.45 2.48-4.01-1.48 0.74-2.3 2.44-3.73 3.27 0.22-1.51 1.98-2.25 2.23-3.76-1.3 0.23-2.13 1.88-3.24 2.52 0.23-1.26 1.77-1.99 1.98-3.26-1.48 0.27-2.05 2.24-3.49 2.52 0.7-1.1 2.01-2.2 2.23-3.51-1.33 0.43-1.9 2.18-3.24 2.52 0.23-1.23 1.63-2.04 1.98-3.26-1.17 0.21-2.53 1.9-3.24 2.77-0.38-0.63 0.58-1.58 0.94-2 0.3-0.35 0.91-1.76 1.34-1.76 1.02 0 2.21 1.18 3.2 1.48 1.29 0.39 2.64 0.51 3.97 0.69 2.78 0.37 5.72 0.03 8.48-0.54 2.98-0.62 5.79-1.68 8.53-2.99 1.37-0.66 2.69-1.41 4.02-2.14 1.34-0.74 2.56-1.79 3.98-2.37 1.27-0.51 3.4 1.4 4.21 2.25 0.58 0.61 0.25 0.98-0.06 1.66-0.47 1.03-1.59 1.75-2.31 2.61-0.96 1.16-1.71 2.52-2.68 3.65-0.45 0.53-0.91 0.59-1.56 0.74-0.74 0.17-1.52-0.21-2.29-0.06-0.95 0.18-1.89 0.28-2.86 0.38-1.96 0.2-4 0.7-5.92 1.17-1.95 0.48-3.87 1.12-5.78 1.73-1.78 0.57-3.54 1.53-5.38 1.88-1.04 0.17-3.03-1.65-3.79-2.18m-5 0.77c0.36 0.1 0.68 0.31 1 0.5-0.37 0.32-0.93-0.07-1-0.5m11.49-2.31c-1.2 0-2.58 1.66-2.73 2.76 1.1-0.03 2.74-1.63 2.73-2.76m-3.49 2.27v-1c-0.54 0.11-0.64 0.53-0.75 1h0.75m-20 0.11c0.12-1.23-1.28-2.64-1.77-3.74-0.82 0.91 0.6 2.3 0.73 3.21 0.06 0.42 0.64 0.41 1.04 0.53m-4.5-0.73c0.42-0.37 0.98-0.46 1.25-1.01 0.44 0.34 0.67 0.97 0.76 1.5-0.69 0.03-1.45-0.09-2.01-0.49m25.48-3.14c-0.55-1.04-3.13 2.31-3.23 3.02 1.22 0.03 3.03-1.82 3.23-3.02m1.51 0.5c-1.14-0.32-2.21 1.26-2.24 2.26 1.02-0.03 2.12-1.27 2.24-2.26m-24.51-1.12c0-0.5 0-1-0.01-1.5-0.68 0.23-0.45 1.14 0.01 1.5m6.99-1.04c0.06-1.38-0.62-2.73 0.23-4 0.31 0.49 0.11 1.25 0.05 1.78-0.07 0.7 0.2 1.61-0.28 2.22m10.71-7.56c2.13 0.36 4.18 0.37 6.2-0.45 0.57-0.23 1.61-2.06 1.66-2.63 0.31-3.34-0.89-6.69-0.71-10.06 0.08-1.43 1.64-0.76 2.52-0.52 0.43 0.12 1.17 0.26 1.37 0.66 0.22 0.44-0.17 1.07-0.36 1.45 0.58-0.33 1.31-1 0.99-1.76-0.29-0.7-1.48-1.01-2.14-1.1-0.94-0.13-1.7-0.15-2.62 0.2-0.71 0.27-1.8 0.75-1.49 1.68 0.71-0.36 0.78-0.29 0.94 0.49 0.27 1.29 0.36 2.58 0.4 3.89 0.05 1.41 0.44 2.78 0.45 4.2 0 0.9-0.39 2.29-1.31 2.69-1.22 0.52-5.11 1.79-5.94 0.09-0.34-0.71-0.4-0.91-0.31-1.68 0.06-0.5 0.49-1.02 0.96-0.89 1.33 0.35 2.16 1.15 3.6 1.21-1-0.71-2.67-0.49-3.01-1.98 1.17 0.2 2.96 1.28 4.03 0.2 0.6-0.61 1.15-1.17 0.8-2.06-0.25-0.64-0.65-1.15-1.1-1.65-0.35 1.15-2.57 0.99-3.49 1.02 0-0.33 0-0.67-0.01-1-0.46 0.25-0.71 0.57-0.99 1-0.76-0.84-0.57-3.59-0.43-4.58 0.3-2.09 0.92-4.13 1.64-6.12 1.16-3.17 3.76-6.82 6.68-8.6-1.94-0.31-3.17 2.51-4.41 3.51-0.59 0.48-1.16 0.16-1.82 0.27 0.26-1.58 1.17-2.95 2.15-4.18 1.04-1.32 2.14-2.75 3.75-3.39 0.73-0.29 1.39 0.1 2.03 0.42 0.72 0.36 1.41 0.42 2.2 0.29 1.76-0.29 3.03-1.86 4.87-0.99 2.05 0.96 3.88 2.06 5.43 3.74 0.6 0.65 1.01 1.17 0.79 2.06-0.18 0.76-0.3 1.63-0.59 2.35-0.2 0.5-0.43 0.26-0.82 0.04-2.23-1.31-4.05-3-6.54-3.86-1.18-0.41-2.38-0.69-3.61-0.88-1.32-0.2-2.17 0.19-3.44 0.37 0.69 0.25 1.48 0.1 2.19 0.06 0.94-0.04 1.9 0.19 2.81 0.38 1.67 0.35 3.28 0.91 4.77 1.72 1.39 0.76 2.78 1.72 3.99 2.75 0.95 0.81 2.38 2.46 2.03 3.81-0.19 0.74-0.64 1.37-0.89 2.09-0.28 0.83-0.17 1.74-0.04 2.59 0.28 1.78 0.73 3.37-0.26 4.99-0.87 1.42-1.12 2.83-0.68 4.44 0.39 1.44 1.2 3.21 0.33 4.63-0.89 1.47-2.61 2.16-4.17 2.67-2.15 0.7-4.33 1.33-6.55 1.75-2.2 0.42-4.45 0.51-6.68 0.27-1.52-0.17-4.24-0.19-4.79-2-0.3-1.18-0.37-2.36-0.38-3.6m-0.73 3.51c-0.79-0.72-1.27-2.5-0.77-3.49 0.77 0.49 1.35 2.75 0.77 3.49m-1.75-1.24c-0.61-0.62-0.7-2.4 0.23-2.75 0 0.76 0.27 2.09-0.23 2.75m-6.53-5.47c-0.45 0.34-1.07 0.07-1.57 0.07-0.77 0.01-1.45 0.31-2.15 0.59-1.16 0.46-1.79 2.24-1.76 3.37 0.76 0.1 0.54-0.82 0.66-1.29 0.18-0.72 0.95-1.37 1.64-1.55 1.1-0.28 3.21-0.61 3.68 0.81-0.68-0.22-1.29-0.63-2-0.74 0.51 0.76 1.55 1.01 1.76 1.99-0.68-0.01-1.27-0.29-1.95-0.15-0.87 0.18-1.38 0.33-2.04 0.92 0.83-0.21 1.5-0.26 2.37-0.26 0.28 0 0.21 0.5-0.16 0.5-1.1 0-1.88 1.22-3.07 0.69-0.7-0.31-1.31-0.93-1.5-1.66-0.36-1.41 0.41-3.18 1.9-3.64 1.67-0.52 2.59-0.11 4.19 0.35m30.5 0.34c-1.46 0.73-2.13 2.11-3.93 2.25-1 0.08-2.06 0.08-3.05-0.03-0.83-0.09-1.66-0.58-2.5-0.42 0.19 1.49 4.1 1.51 5.08 1.31 1.51-0.31 4.1-1.3 4.4-3.11m2.51 2.99c-0.45-0.83-0.48-1.81-0.6-2.72-0.11-0.9-0.46-1.75-0.57-2.65-0.11-0.93 0.15-1.94 0.84-2.6 0.8-0.76 1.73-0.79 2.78-0.79-0.17 0.64-0.95 1.08-1.27 1.67-0.65 1.17-0.02 2.4 0.26 3.58 0.17 0.71 0.63 2.5-0.44 2.76-0.01-2.28-1.35-4.17-0.78-6.49-2.61 1.27 1.47 5.55-0.22 7.24m-12.75-1.19c-0.02-0.39-0.36-0.72-0.75-0.75 0.02 0.4 0.36 0.73 0.75 0.75m15.25-0.33c-0.01-1.3-0.32-2.42-0.62-3.67-0.16-0.66-0.34-1.91 0.59-2.08 0.08 1.59 0.83 2.96 0.73 4.58-0.03 0.58 0.02 1.3-0.7 1.17m-28.25-0.35c-0.81-0.73-2.08-1.6-2.26-2.74 0.81 0.31 3.18 1.59 2.26 2.74m30.24-0.66c0.25-1.41-2.2-4.56-0.28-5.5 0.03 1.43 1.93 4.45 0.28 5.5m-15-0.67c-0.41-0.56-1.34-1.3-2.01-1.49 0.01 0.97 1.16 1.49 2.01 1.49m16.99-0.84c-0.32-1.08-0.74-2.19-0.92-3.3-0.18-1.17 0.84-1.97 1.89-1.46-0.5 0.57-0.93 1.06-0.88 1.86 0.06 0.9 0.54 2.1-0.09 2.9m-9.75-1.7c-0.8-0.72-1.3-2.48-2.51-2.49 0.09 0.33 0.2 0.66 0.26 1-1.18-0.32-2.17-0.69-3.41-0.66-0.54 0.01-1.15 0.05-1.66-0.13-0.4-0.14-0.58-0.78-1.07-0.55-0.3 0.14-1.25 1.54-1.36 1.88-0.09 0.27 0.23 0.77 0.39 0.96 1.18 1.4 3.11 1.77 4.87 1.39 0.96-0.21 1.86-0.81 2.87-0.75 0.74 0.06 1.33 0.25 1.62-0.65m-18 1.35c0-0.17-0.14-0.61 0-0.75 0.07-0.07 0.68-0.07 0.75 0 0.64 0.63-0.46 0.75-0.75 0.75m-4.75 0.02c-0.6-0.53-1.51-1.09-1.51-1.99 0.52 0.27 2.08 1.3 1.51 1.99m16.75-0.33c0-0.33-0.21-1.39 0.5-1 0.54 0.29-0.2 0.79-0.5 1m-15.75 0.08c-1.79-2.2-3.69-4.26-3.79-7.23 0.61 0.36 0.73 1.17 1.04 1.75 0.41 0.74 0.94 1.42 1.46 2.09 0.58 0.72 2.18 2.41 1.29 3.39m14.5-0.58c-0.03-1.05 0.35-2.19 1.6-2.21 0.87-0.01 1.41 0.68 1.65 1.44-0.58-0.01-1.28-0.47-1.85-0.29-0.72 0.24-0.61 1.19-1.4 1.06m-9.25-0.2c-0.82-0.64-1.38-0.26-2.25 0.01 0.1-0.69 0.65-1.38 1.38-1.31 0.56 0.06 1.41 0.68 0.87 1.3m13.24-0.57c-0.31-0.25-0.5-0.6-0.51-1 0.46 0.07 0.83 0.61 0.51 1m-19.26-2.15c-0.52-0.63-1.15-1.4-1.26-2.24 0.56 0.33 1.77 1.57 1.26 2.24m30-0.4c-0.59-1.79 2.69-2.86 2.99-1.27-1.31 0.13-1.9 0.62-2.99 1.27m-1.26-1.25c-0.72-1.33-0.34-3.98 0.02-5.38 0.29-1.12 1.08-1.48 2.13-1.75 0.94-0.24 1.85 0.13 2.81 0.1-1.13-0.54-2.78-0.74-4-0.73 0.95-1.51 4.35-0.35 5.75-0.28 0.07-0.9-1.48-0.55-2.04-0.65-1.27-0.23-2.4-0.58-3.71-0.57-0.03-1.02 1.25-1.01 1.94-0.81 0.97 0.28 2.38 0.85 3.4 0.61 0.63-0.15 1.79-1.17 2.3-0.29 0.6 1.05-0.54 2.02-1.13 2.69-0.66 0.74-1.69 0.91-2.61 1.11-1.08 0.24-2.04 0.8-3.05 1.24-1.97 0.85-0.16 3.81-1.81 4.71m-2.25-0.24c-0.33-0.6-0.17-1.3-0.3-1.94-0.15-0.72-0.39-1.46-0.32-2.21 0.11-1.24 0.33-3.84 2.08-3.85 0.19 0.92-0.44 2.07-0.47 3.02-0.02 0.67 0.01 1.34 0.04 2.01 0.02 0.67 0.22 3.2-1.03 2.97m-25.75-0.61c-0.46-1.36-1.2-2.44-1.77-3.74 1.08 0.21 3.08 2.85 1.77 3.74m-1.25-0.24c-0.77-0.8-1.29-1.6-1.26-2.74 0.85 0.16 1.93 2 1.26 2.74m30.75-0.42c0.1-0.71 0.02-1.73 0.54-2.24 1.08-1.04 1.93-1.47 3.4-1.77 0.44-0.09 0.79-0.15 0.79 0.3 0 0.87-0.03 1.59-0.24 2.44-0.32-0.41-0.24-1.01-0.26-1.5-0.54 0.7-1.02 2.11-1.99 2.26 0-0.75 0.3-1.5 0.24-2.25-1.12 0.66-0.98 2.47-2.48 2.76m-3.51-0.73c-0.01-1.25-0.01-2.5-0.02-3.75-0.87 0.64-0.62 3 0.02 3.75m-26.01-2.11c-1.05-0.64-2.09-1.09-3.28-1.42-0.93-0.26-2.06-0.73-2.24-1.8 0.46 0.23 0.9 0.53 1.38 0.72 0.6 0.24 1.26 0.17 1.87 0.34 0.69 0.19 2.67 1.18 2.27 2.16m35.74-1.19c0.02-1.25 2.08-2.03 1.93-3.29-0.07-0.56-0.13-1.13-0.2-1.69-0.19-1.77-3.8 0.51-4.76-0.75 0.63-0.33 1.32-0.49 1.98-0.74 0.71-0.28 1.25-0.93 2.01-1.08 1.42-0.29 2.83 1.59 4.26 1.78-0.87-0.69-2.92-1.6-3.27-2.73 0.98 0.18 1.79 0.98 2.67 1.41 0.44 0.21 1.88 0.2 2.1 0.69 0.15 0.33-0.18 0.93-0.4 1.14-0.35 0.33-0.87 0.4-1.32 0.53-0.78 0.23-1.77-0.3-2.52-0.52 0.2 0.18 2.76 1.44 2.76 1.56 0.01 1.35-2.02 0.35-2.75 0.44 0.1 0.91 0.27 1.67-0.39 2.41-0.49 0.52-1.38 0.81-2.1 0.84m-35-0.32c-0.61-0.39-1.14-0.9-1.81-1.19-0.82-0.35-1.64-0.13-2.42-0.42-0.84-0.31-1.73-0.59-2.03-1.57-0.26-0.84-0.01-1.68-0.26-2.54-0.57 0.17-1.12 0.56-1.68 0.79-0.66 0.28-1.54-0.13-2.21-0.28-0.77-0.17-0.98-0.6-1.5-1.21-0.44-0.52-0.18-1.35-0.44-1.92-0.62-1.37-2.68-1.38-2.51-3.08 0.04-0.38 0.05-0.62 0.35-0.9 1.11-1.01 1.3 0.55 1.71 1.37-0.34-0.05-0.67-0.16-1-0.25 0.46 0.7 1.46 1 2.26 0.99-0.33-0.18-0.64-0.39-1-0.49 0.63-0.51 1.48-0.04 2.15 0.17 0.63 0.19 0.95 1.52 1.11 2.07 1.3-0.43 2.75-0.83 4-0.04 1.22 0.77 1.06 2.74 1.27 4.01 0.52-0.12 1.06-0.13 1.58-0.17 1.16-0.1 2.76 1.58 2.93 2.65-0.68-0.46-1.24-1.13-2.07-1.33-1.12-0.28-2.23-0.1-3.19-0.89 0.02 1.09 1.24 2.1 2.25 2.22 0.7 0.08 1.34-0.01 1.84 0.49 0.38 0.39 1.13 0.91 0.67 1.52m10.5-0.55c-0.96-0.87-2.79 0.17-3.51-0.98 0.48-0.08 0.97 0.14 1.46 0.09 0.58-0.06 1.14-0.14 1.73-0.13 0.12 0 2.33 0.47 2.34 0.45 0.13-0.34 0.22-0.65 0.22-1.02 0-0.6-0.24-0.42-0.79-0.42-1.57 0.01-3.4-0.11-4.91 0.34-0.58 0.17-0.79 0.04-0.79 0.69 0 0.55 0.03 0.49 0.53 0.67 1.11 0.43 2.56 0.67 3.72 0.31m24.74-2.13c-0.3-0.21-0.66-0.07-1 0 0.29 0.24 0.69 0.17 1 0m-27.75-0.11c1.1-0.85 2.15-0.81 3.5-0.77-0.66-1.01-4.18-0.31-3.5 0.77m-7-0.71c-0.51-0.43-1.42-1.01-1.51-1.74 0.73 0.01 1.99 0.93 1.51 1.74m0.99-0.25c-0.2-0.63-0.82-1.9-1.54-2.06-1.23-0.26-2.01-0.38-3.23-0.17 0-0.55-0.28-1.87 0.49-2 0.08 0.62 0.8 0.59 1.26 0.59 0.92 0.01 1.68 0.53 2.49 0.89-0.56-0.5-1.1-0.89-1.76-1.24 1.14-1.07 5.21 2.51 2.29 3.99m25-0.39c-0.04-1.42 0.73-2.31 2.03-2.78 1.68-0.61 3.15-1.03 4.67-2.03 0.78-0.51 0.86-1.92 1.01-2.73 0.54 0.34 0.54 1.42 0.51 2 0.3-0.6 0.55-1.32 0.49-2 0.6 0.41 0.77 2.46 0.39 3.02-0.31 0.48-0.59 1.19-1.1 1.46-1.43 0.74-2.77 0.95-4.35 1.17s-2.35 1.13-3.65 1.89m-1.5 0.01c-0.71-1.17-1.24-2.54-0.89-3.94 0.38-1.47 1.71-2.57 3.3-2.58 1.5-0.01 2.96 0.05 4.42-0.25 0.6-0.12 1.15-1.01 0.82-1.54-0.21-0.35-0.3-0.71-0.71-0.75-0.38-0.04-0.72 0.32-1 0.52 0.21 0.06 0.89 0.3 1 0.5 0.29 0.51-0.31 0.65-0.66 0.62-0.35-0.04-0.71-0.49-0.73-0.82-0.01-0.22-0.03-1.14 0.32-1.18 0.93-0.09 1.84-0.44 2.15 0.69 0.29 1.08 0.28 1.72-0.09 2.77-0.55 1.57-2.78 1.77-4.15 2.1-0.93 0.22-1.8 0.59-2.43 1.33-0.61 0.74-0.71 1.87-1.35 2.53m-13.76-2.17c-1.31 0.22-3.45 1.38-3.51-0.98-1.06 0.71 0.15 1.99 1.01 2.09 0.84 0.1 2.21-0.21 2.5-1.11m9.51 0.95c-0.13-0.29-0.2-0.6-0.5-0.75 0.11 0.3 0.24 0.54 0.5 0.75m-29.51-0.1c-0.34-0.42-0.89-0.56-1.28-0.92-0.49-0.45-0.91-0.98-1.49-1.32 0.01 0.7 0.43 1.11 0.91 1.54 0.66 0.59 0.98 0.59 1.86 0.7m10.25-0.55c0.08-0.33-0.26-0.38-0.5-0.5 0.12 0.24 0.17 0.58 0.5 0.5m23.75-0.63c0.88-0.81 1.84-1.63 3.02-1.91 0.82-0.19 2.26-0.35 2.46-1.37-0.3 0.03-1.91 0.83-1.5-0.24-1.62 0.01-3.89 0.17-4.49 2.02 0.71-0.25 1.31-0.74 1.96-1.12 0.68-0.41 1.52-0.4 2.28-0.4-0.74 0.39-1.55 0.52-2.28 0.94-0.59 0.35-2.02 1.18-1.45 2.08m12.23-2.81c0.92 0.3 2.21 1.16 3.17 1.11 0.6-0.03 1.33-0.31 1 0.62-0.6 1.73-4.01-0.5-4.17-1.73m-42.23 2.72c-0.43-1.06-1.7-1.49-2.76-1.49 0.38 0.31 0.91 0.25 1.3 0.53 0.45 0.32 0.89 0.85 1.46 0.96m22.75-0.37c0.08-0.33-0.26-0.38-0.5-0.5-0.08 0.34 0.25 0.38 0.5 0.5m-1.01-0.24c-0.09-0.42-0.37-0.8-0.75-1 0.09 0.44 0.38 0.77 0.75 1m-1.25-0.5c0.08-0.33-0.26-0.38-0.5-0.5 0.12 0.25 0.17 0.58 0.5 0.5m-10.05-9.7c-0.09 0.33-0.19 0.66-0.24 1 0.92-0.44 2.68-2.09 3.74-1.52-0.22 0.27-0.5 0.44-0.81 0.56-0.12 0.04-0.86 0.1-0.93 0.2-0.08 0.1 0.07 0.63 0.12 0.75 0.1 0.22 0.85 0.84 0.85 0.85-0.23 0.69-0.91 1.08-1.43 1.52-0.73 0.61-1.4 1.3-2.01 2.03s-1.17 1.51-1.68 2.32c-0.3 0.47-0.59 1.34-1.14 1.58-0.69 0.29-1.81-0.56-2.49-0.77-0.72-0.22-1.44-0.57-1.19-1.46 0.51-1.79 2.16-3.59 3.43-4.9 0.82-0.86 2.45-2.46 3.78-2.16m34.05 8.58c0.14-0.68 0.77-1.61 1.49-1.76 0.04 1.19-0.31 1.66-1.49 1.76m-44.26-0.52c0.29 0.13 0.6 0.19 0.75 0.5-0.33 0.02-0.69-0.13-0.75-0.5m1.5-0.26c-0.95-1.17 0.78-3.38 1.27-4.46 0.82-1.81 1.61-3.64 2.35-5.49 0.71-1.78 1.51-3.52 2.17-5.32 0.6-1.65 0.79-3.44 1.6-5.01 1.24 0.7 1.3 3.14 1.56 4.35 0.23 1.06 0.39 2.13 0.63 3.18 0.22 0.97 0.7 2.01 0.65 3.01-0.05 0.97-1.64 1.29-2.35 1.55-1.31 0.49-2.4 1.13-3.35 2.17-0.94 1.02-1.72 2.14-2.49 3.3-0.58 0.89-1.09 2.12-2.04 2.72m7.5-47.29c0.97 0.51 1.49 1.54 1.75 2.55 0.32 1.25-1.29 1.58-1.46 2.7-0.14 0.96 0.97 1.95 1.08 2.94 0.13 1.14-1.28 1.61-1.83 2.5-0.86 1.38 1.59 2.73 0.52 4.4-0.27 0.41-0.92 0.55-1.25 0.92-0.44 0.51-0.76 0.71-0.57 1.38 0.16 0.56 0.44 1.06 0.72 1.57 0.64 1.18-0.43 1.97-1.31 2.57-1.04 0.71-0.8 1.73-0.38 2.74 0.43 1.02 0.77 2.17-0.4 2.82-1.04 0.58-1.96 1.09-1.78 2.44 0.13 0.96 1.19 2.23 0.33 3.04-0.53 0.5-2.44 0.92-2.5 1.71-0.07 0.96 0.16 1.88 0.43 2.79 0.18 0.61 0.57 1.18-0.14 1.53-0.55 0.28-1.15 0.48-1.71 0.74-1.09 0.49-1.77 0.92-1.48 2.26 0.13 0.58 0.25 1.17 0.35 1.76 0.11 0.68-0.28 0.85-0.77 1.27-0.66 0.56-2.02 0.93-2.85 1.21 0.87 0.46 2.12-0.29 2.94-0.59 2.82-0.99-0.27-4.27 1.87-5.26 0.85-0.39 2.18-0.51 2.66-1.43 0.57-1.1-0.51-2.45-0.53-3.57-0.02-1.25 1.68-1.22 2.35-1.9 0.59-0.6 0.58-0.65 0.54-1.49-0.03-0.6-0.37-1.15-0.6-1.7-0.5-1.19 0.3-1.79 1.33-2.26 0.52-0.23 1.03-0.52 1.59-0.62-0.22 3.37-1.67 6.51-2.99 9.57-1.25 2.89-2.11 6.44-4.06 8.96-0.87 1.13-1.86 1.47-3.25 1.52-0.77 0.03-2.41 0.11-2.51-0.98-0.14-1.57 1.45-3.48 2.18-4.74 1.01-1.75 1.91-3.51 2.69-5.38 1.63-3.9 3.18-7.81 4.41-11.86 1.24-4.07 2.17-8.21 2.92-12.4 0.38-2.12 0.58-4.25 0.88-6.38 0.22-1.6-0.05-3.95 0.83-5.33m34.25 46.32c0.21-0.33 0.61-0.49 1-0.5 0.11 0.63-0.62 1.14-1 0.5m-14.25 0.33c-1.08-1.08-2.25-2.06-3.45-3-0.48-0.38-1-0.72-1.41-1.18-0.38-0.43-0.4-1.08-0.79-1.46-0.53-0.51-1.67-0.84-2.39-1.07 0.23-0.2 0.48-0.36 0.75-0.5-0.57-0.27-1.19-0.44-1.75-0.74 1.8-1.43 5.65 1.23 7.09 2.17 1.08 0.69 3.81 4.76 1.95 5.78m2.24-1.02c-0.9-1.33-1.31-2.97-1.97-4.42-0.77-1.7-1.38-3.49-1.98-5.26-1.27-3.69-2.46-7.44-3.5-11.2-0.46-1.68-0.58-3.38-1.08-5.06-0.56-1.86-0.87-3.73-1.17-5.64-0.56-3.61-1.51-7.17-1.53-10.86 0.92 0.32 1.67 0.89 2.28 1.64 1.06 1.31-1.57 2.63-0.56 4.19 0.42 0.64 2.03 1.03 1.67 1.9-0.32 0.8-1.66 1.98-0.89 2.87 0.41 0.48 0.91 0.72 1.46 1.04 2.12 1.23-1.35 3.15-0.51 4.11 0.79 0.9 1.8 1.49 2.79 2.15 0.37 0.24-0.36 1.33-0.5 1.56-0.5 0.84-1.13 1.74-1.12 2.77 0.67-0.14 2.41 0.57 2.95 0.98 1.48 1.14-1.83 3.26-0.87 4.26 0.8 0.83 2.01 1.09 2.93 1.78 0.62 0.47-0.72 2.48-0.87 2.86-0.32 0.81-0.45 0.94 0.12 1.61 0.43 0.5 3.31 1.31 3.31 1.82 0.01 0.68-0.44 1.34-0.7 1.94-0.38 0.85-0.16 1-0.04 1.78 0.07 0.42-0.13 0.87-0.18 1.29-0.06 0.6 0.44 1.37-0.04 1.89m-3.48-44.48c0.58 0.08 0.84 0.26 1.25 0.66 0.71 0.69-0.1 1.54 0.4 2.26 0.48 0.7 1.02 1.29 1.47 2.03 0.43 0.71-1.07 1.78-0.44 2.85 0.27 0.46 0.74 0.66 1.12 1.04 0.55 0.55 0.49 0.86 0.45 1.6-0.03 0.45-0.38 0.9-0.47 1.36-0.14 0.73-0.02 0.96 0.55 1.51 0.39 0.37 0.87 0.58 1.2 1.01 0.83 1.09-0.15 2.62-0.57 3.7-0.19 0.49-0.09 0.39 0.29 0.58 0.91 0.45 1.88 0.82 2.53 1.63 0.69 0.86-0.37 2.04-0.49 2.94-0.11 0.84-0.08 0.91 0.58 1.42 0.44 0.33 0.92 0.61 1.37 0.91 0.89 0.6 1.48 1.24 1.12 2.35-0.18 0.56-0.36 1.05-0.4 1.64-0.05 0.82 0.08 0.94 0.68 1.5 0.75 0.7 1.93 1.03 2.76 1.69 0.55 0.45-0.67 2.78-0.82 3.15-0.97 2.33 3.05 1.25 3.16 2.56 0.13 1.54-0.79 2.59-1.01 4.05 0.82-0.06 1.69 0.29 2.47 0.48 0.21 0.05-0.01 0.52-0.17 0.58-1.03 0.38-2.06 0.51-2.67-0.57-3.82-6.8-6.85-14.09-9.16-21.55-1.16-3.75-2.31-7.51-3.37-11.29-0.5-1.79-0.93-3.59-1.24-5.42-0.22-1.3-1.25-3.41-0.59-4.67m5.98 43.72c-0.87-0.87-0.14-2.75 0.98-3.01-1.18-0.45-1.9 1.35-2.49 2.01-0.53-0.97 0.42-1.75 0.99-2.41 0.7-0.82 1.74-0.38 2.66-0.21 0.22 0.04 0.44 0.43 0.53 0.61 0.19 0.42-0.54 0.51-0.8 0.63-1.2 0.57-1.13 1.47-1.87 2.38m-43.01-1.27c0.06-1.84 1.8-3.75 2.65-5.31 1.1-2.02 2.07-4.11 3.08-6.18 1.98-4.06 3.43-8.32 4.64-12.66 1.23-4.41 2.48-8.75 3.1-13.3 0.18-1.3 0.22-5.64 2.38-5.32 1.29 0.19 0.81 1.76 0.72 2.63-0.24 2.11-0.38 4.21-0.69 6.31-0.61 4.14-1.53 8.21-2.68 12.24-1.1 3.82-2.41 7.55-4.04 11.18-1.68 3.73-3.24 7.75-5.76 11-0.36 0.46-1.04 1.02-1.57 0.57-0.54-0.45-1.1-1.07-1.83-1.16m15.51 1.17c0.83-0.84 2.38-1.84 2.73-3.02-0.89 0.16-2.84 2.03-2.73 3.02m34.46-6.94c0.15-1.07 1.83-3.49 0.78-4.41-1.04-0.9-3.78-1.43-3.13-3.28 0.31-0.87 1.12-2.47 0.14-3.13-0.74-0.5-2.46-0.88-2.86-1.73-0.44-0.95 0.56-2.26 0.71-3.17 0.2-1.18-1.1-1.62-1.99-2.13-2-1.14 0.71-2.8-0.14-4.14-0.37-0.59-0.73-0.87-1.29-1.29-1.32-1-0.41-2.01-0.22-3.28 0.17-1.16-1.18-1.56-1.66-2.43-0.49-0.88 0.47-2.23 0.99-2.96 0.77 0.57 0.87 1.79 1.04 2.65 0.35 1.7 0.9 3.34 1.42 4.99 1.07 3.41 2.29 6.75 3.66 10.05 2.64 6.33 5.88 12.51 9.32 18.44 1.75 3.01-4.13 1.56-3.9 0.49 0.15-0.73 1.1-2.45 0.68-3.13-0.7-1.13-2.55-0.82-3.55-1.54m-0.47 6.01c-0.37-0.13-0.92-0.47-1.29-0.5-0.76-0.07-0.19-0.75-0.47-1.19-0.27-0.44-0.85-0.61-1.25-0.9-0.62-0.46-1.31-1.01-1.71-1.69-0.82-1.43-1.21-3.19-1.82-4.71-1.44-3.58-2.94-7.24-3.89-10.98-0.98-3.86-2.09-7.68-2.99-11.56-0.91-3.97-2.18-8.04-2.31-12.13 1.29-0.01 1.61 0.72 1.89 1.87 1.85 7.46 3.89 14.82 6.05 22.2 1.02 3.5 2.45 7.03 3.88 10.38 0.71 1.68 1.41 3.36 2.2 5 0.39 0.77 2.27 3.32 1.71 4.21m-37.96-41.55c0.33-0.25 0.84-0.46 1.25-0.51 1.07-0.12 0.38 2.91 0.29 3.49-0.29 1.87-0.66 3.73-1.06 5.58-0.85 3.95-1.9 7.84-3.11 11.7-2.25 7.22-5.56 14.7-9.89 20.92-0.8 1.15-1.41-1.02-1.52-1.62-0.21-1.11-0.45-2.16 0.74-2.75 0.42-0.21 1-0.22 1.36-0.55 0.72-0.66 0.81-1.04 0.72-2.02-0.08-0.95-0.19-2 0.73-2.59 0.85-0.54 2.37-0.56 2.28-1.85-0.05-0.77-0.88-2.52-0.26-3.15 0.67-0.68 2.38-0.95 2.7-1.9 0.3-0.89-0.5-2.26-0.49-3.21 0.01-0.92 1.92-1.27 2.43-1.91 0.71-0.89-0.04-2.15-0.38-3.09-0.73-2.01 2.63-1.88 2.38-3.61-0.22-1.54-2.16-3.31-0.46-4.57 0.75-0.55 1.53-0.92 1.38-1.92-0.11-0.75-0.96-1.39-0.93-2.19 0.03-0.79 1.03-1.44 1.57-1.89 0.7-0.57 0.6-1.58 0.27-2.36m78.03 5.84c-0.18 4.37-2.24 7.79-5.26 10.85-1.61 1.63-3.2 3.28-4.84 4.87-0.8 0.78-1.58 1.4-2.57 1.92-0.7 0.38-1.9 0.76-2.31 1.48-0.77 1.37-0.79 3.11-1.53 4.55-0.86 1.68-2.15 3.04-3.57 4.26-2.76 2.38-5.84 5.21-9.2 6.69-1.04 0.46-2.02 0.54-2.69-0.49-1.07-1.65-2.07-3.35-3-5.08-0.48-0.89-0.93-1.79-1.33-2.71-0.22-0.5-0.94-1.7-0.68-2.28 0.8-1.77 2.25-2.89 3.62-4.21 1.51-1.45 2.98-2.93 4.56-4.31 1.53-1.34 3.17-2.54 4.74-3.82 1.23-1.01 2.64-2.74 4.14-3.31 0.85-0.33 0.94-0.38 1.77-0.01 1.02 0.45 1.85 1.21 2.89 1.64 1.06 0.44 2.23 0.1 3.29-0.16 2.59-0.63 4.55-2.45 6.4-4.25 1.07-1.04 2.13-2.11 3.11-3.25 0.65-0.77 1.37-2.19 2.46-2.38m-82.07 35.43c0.28-1.39-1.38 0.29 0 0m-4.75-0.48c0.36-0.22 0.39-1.21-0.19-0.85-0.54 0.34-0.63 1.01 0.19 0.85m21.97-5.11c0 0.52-0.22 1.96 0.12 2.38 0.41 0.5 0.45 0.62 1.07 0.38 0.3-0.12 0.54-0.37 0.82-0.51-0.03 0.52 0.07 1.7-0.54 1.98-0.89 0.41-1.52 0.59-2.12-0.37-0.52-0.86-0.59-3.54 0.65-3.86m-14.4-28.43c-0.67 0.35-1.99 0.92-2.36 1.59-0.43 0.79 0.55 2.34 0.9 3.09 0.4 0.85 0.13 1.53-0.58 2.07-0.39 0.29-1.57 0.81-1.54 1.43 0.06 1.2 0.56 2.22 0.76 3.38 0.19 1.11-1.67 1.44-2.26 1.94-1.41 1.17 0.87 3.4-0.43 4.29-0.25 0.17-2.85 1.65-2.88 1.54 0.21 0.74 1.38 3.45 0.35 4.11-0.59 0.37-1.45 0.57-1.94 1.03-0.64 0.6-0.76 1.17-0.59 2.02 0.08 0.41 0.45 1.67-0.03 1.95-0.75 0.43-1.48 0.76-2.29 1.09-1.46 0.59-0.1 2.7-0.68 3.8-0.99-0.28-1.58-1.06-2.1-1.88-0.46-0.73 0.69-2 1.05-2.56 0.95-1.48 1.71-3.14 2.47-4.72 1.58-3.29 3.13-6.62 4.52-10 1.4-3.41 2.5-6.96 3.38-10.53 0.42-1.71 0.78-3.43 1.07-5.17 0.18-1.07-0.04-3.11 0.89-3.87 0.62-0.5 2.04-1.65 2.87-0.97 0.95 0.79-0.93 1.93-1.29 2.38-1.17 1.45 1 2.57 0.71 3.99m26.43 32.86c-0.38-0.66-1.34-0.8-2.01-0.99 0.24 0.67 1.38 0.92 2.01 0.99m-9.51-0.2c0.12-0.66 0.24-1.33 0.24-2 0-0.66-0.24-1.36-0.01-2 0.65 0.35 1.19 1.08 1.09 1.83-0.13 0.96-0.04 2.14-1.32 2.17m24-1.12c0.05-0.25-0.12-0.88-0.5-0.5s0.25 0.55 0.5 0.5m-21.5-0.14c0.29-0.23 0.69-0.18 1 0-0.28 0.23-0.69 0.17-1 0m-30.5 0.16c0.05-0.25-0.12-0.88-0.5-0.5s0.25 0.55 0.5 0.5m42.75-0.47c0.04-1.03 0.72-2.18-0.57-2.77-0.5-0.23-2.8-0.96-2.66-1.65 0.17-0.86 0.48-1.47 0.9-2.23 0.2-0.35 1.12-1.72 0.44-1.97-0.43-0.16-0.87-0.4-1.32-0.57-1.16-0.43-2.28-0.9-1.6-2.29 0.41-0.84 1.48-2.04 0.6-2.85-0.42-0.39-2.67-1.05-2.57-1.73 0.18-1.19 0.87-2.09 1.09-3.26 0.16-0.86-1.64-1.45-2.15-1.95-0.5-0.48-0.62-0.72-0.34-1.45 0.19-0.51 0.69-0.88 0.85-1.41 0.24-0.84 0.23-0.87-0.27-1.58-0.28-0.4-0.96-0.5-1.3-0.85-0.57-0.56-0.6-0.66-0.47-1.46 0.09-0.51 0.54-0.92 0.76-1.39 0.34-0.75 0.22-0.86-0.26-1.51-0.21-0.29-0.92-0.6-1.26-0.78-0.47-0.25-0.63-0.28-0.4-0.85 0.31-0.76 1.63-2.04 1.44-2.9-0.25-1.14-1.98-1.25-2.21-2.31-0.22-0.99 1.23-2.33 1.85-2.94 0.65 1.32 0.8 3.04 1.1 4.47 0.39 1.86 0.86 3.71 1.25 5.57 0.82 3.84 1.86 7.6 2.9 11.39 0.5 1.82 0.81 3.71 1.42 5.5 0.58 1.68 1.32 3.31 1.93 4.98 0.63 1.73 1.29 3.46 1.94 5.18 0.22 0.57 1.35 2.51 0.92 3.1-0.2 0.24-1.66 0.45-2.01 0.51m-10.34-15.7c0.81 0.59 1.03 1.88 1.26 2.78 0.34 1.35 0.83 2.65 1.24 3.98 0.46 1.48 0.91 2.96 1.34 4.45 0.35 1.23 1.08 2.45 0.99 3.76-1.18-0.01-2.43-1.05-3.52-1.46-1.11-0.42-2.67-0.35-3.66-0.95-1.37-0.84 0.38-4.49 0.71-5.61 0.67-2.29 0.97-4.67 1.64-6.95m-38.67 13.95c-1.37-1.17-2.42-2.65-3.37-4.17-0.73-1.15-2.24-2.66-2.42-4.05 0.64 0.37 1.04 1.05 1.43 1.65 0.53 0.8 1.21 1.47 1.77 2.25 0.61 0.84 2.97 3.12 2.59 4.32m53.24-1.03c0.06-0.43-0.41-0.82-0.75-0.57-0.33 0.25-0.25 0.71-0.25 1.08 0.38-0.06 0.69-0.31 1-0.51m-35.75 0.19c-0.06-0.46-0.09-1.15-0.75-1 0.08 0.51 0.05 1.17 0.75 1m-5 0.03c0.19-0.3 0.38-0.56 0.47-0.91 0.07-0.27-0.79-0.31-0.97-0.34-0.01 0.53-0.02 0.97 0.5 1.25m-11.75 0.06c-1.27-2.38-3.34-4.25-4.89-6.44-0.3-0.43-1.99-4.13-0.24-3.35 1.03 0.46 1.68 2.02 2.36 2.87 0.74 0.92 1.46 1.86 2.19 2.78 0.76 0.96 2.84 3.6 0.58 4.14m29.5-0.91c-1.11-1.73-1-3.94-1.41-5.89-0.27-1.32-0.4-4.26-1.65-5.1-0.01 1.86 0.73 3.61 0.98 5.44 0.26 1.85 0.81 3.67 0.82 5.55-1.41-0.9-1.31-4.03-1.5-5.45-0.3-2.36-1.14-4.63-1.32-7-0.02-0.2 2.82-0.58 3.17-0.63 1.32-0.19 1.56 0.89 1.59 1.96 0.09 3.46 0.78 6.9 0.8 10.37-1.19-0.47-0.83-3.46-0.92-4.45-0.21-2.19-0.01-4.43-1.26-6.33-0.26-0.4-1-0.09-1.37 0.05 0.24 0.13 1.14 0.13 1.25 0.24 0.34 0.36 0.24 1.56 0.29 2.04 0.13 1.26 0.29 2.58 0.29 3.84 0 0.97-0.15 1.95 0.08 2.9 0.17 0.68 0.64 1.82 0.16 2.46m3.5-0.51c-0.59-1.08-0.3-2.9-0.23-4.09 0.06-0.93 0.21-1.86 0.28-2.79 0.07-0.94 0.12-3.93 1.64-3.78 1.64 0.16 0.43 3.4 0.17 4.23-0.3 0.94-0.53 1.9-0.76 2.86-0.24 1.06-0.13 2.85-1.1 3.57m1.25-0.26c0.06-1.81 0.57-3.58 1.03-5.32 0.21-0.82 0.43-1.65 0.62-2.48 0.14-0.62 0.58-1.79 0.22-2.41-0.17-0.28-0.88-0.66-1.21-0.64-0.38 0.02-1.17-0.1-1.47 0.15-1.15 0.95-0.63 3.79-0.74 5.08-0.16 1.92-0.46 3.69-0.45 5.63-0.56-0.62-0.31-1.82-0.27-2.57 0.06-1.22-0.03-2.45 0.01-3.68 0.02-0.9-0.24-5.59 1.17-5.84 0.95-0.17 2.29 0.09 3.07 0.69 0.53 0.4 0.77 0.57 0.68 1.25-0.25 1.92-0.71 3.76-1.18 5.63-0.33 1.24-0.28 3.72-1.48 4.51m13.24-0.32c0.04-0.46 0.04-0.9-0.51-1 0.01 0.59-0.22 1.1 0.51 1m7.5-1.04c0.02-0.11 0.05-0.5-0.06-0.5-0.12 0-0.62-0.07-0.7 0-0.05 0.05-0.03 0.5 0.06 0.5h0.7m-5.01-2.47c0.18-0.31 0.19-0.66 0.24-1-0.33 0-0.67 0-1 0.01 0.08 0.5 0.05 1.16 0.76 0.99m-35.25 0.18v-1c-1.21 0.19-1.2 0.82 0 1m4.49-1.02c-0.03-0.39-0.36-0.73-0.75-0.75 0.05 0.46 0.23 0.8 0.75 0.75m-15-0.17c-1.16-0.36-1.91-1.85-2.59-2.76-1-1.32-2.03-2.61-3-3.94-0.28-0.38-1.17-2.34-0.05-2.35 0.84-0.01 1.43 1.18 1.82 1.77 0.6 0.9 1.21 1.84 1.9 2.67 0.9 1.11 3.11 3.02 1.92 4.61m53.75-0.53c-0.64-1.17 0.93-2.63 1.66-3.34 1.33-1.3 2.7-2.59 4.06-3.85 1.81-1.68 3.75-3.21 5.57-4.87 0.76-0.69 1.65-1.2 2.41-1.88 0.84-0.76 1.67-1.58 2.71-2.05 0.32-0.14 1.03-0.46 1.26 0.04 0.19 0.4-0.24 1.04-0.5 1.31-2.79 2.88-6.32 5.04-9.36 7.64-1.41 1.21-2.71 2.55-4.06 3.83-0.98 0.92-2.34 2.89-3.75 3.17m-12.76-1.19c0.32-0.19 0.45-0.92-0.1-0.75-0.3 0.09-0.37 0.48-0.4 0.75 0.16 0 0.34 0.03 0.5 0m-34.25 0.18c0.02-0.11 0.05-0.5-0.06-0.5-0.12 0-0.62-0.07-0.69 0-0.06 0.05-0.03 0.5 0.06 0.5h0.69m46-0.99c-0.24-0.75-0.73-1.44-0.76-2.25 0.34 0 1.98 0.13 2.18-0.3 0.55-1.2 0.56-2.27 0.55-3.57 0-0.55 0.14-0.39 0.68-0.4 0.73 0 1.47 0.07 2.19 0.02 0.85-0.06 1.12-0.51 1.12-1.4 0-1.02 0.02-1.68 0.38-2.62 0.27-0.72 3.75-0.05 4.36-0.04-0.01-1.46-0.2-2.98 0.32-4.37 0.34-0.9 3.18-0.21 3.87-0.3 0.83-0.11 0.71-1.48 1.02-2.11 0.72 0.38 1.7 1.58 1.26 2.42-0.81 1.53-2.91 2.62-4.2 3.71-1.61 1.36-3.13 2.8-4.71 4.19-1.49 1.32-2.93 2.71-4.43 4.02-1 0.89-2.39 2.96-3.83 3m-4.5 0.02c0-0.13 0.08-0.67 0-0.75-0.04-0.04-0.71-0.03-0.75 0s-0.03 0.71 0 0.75c0.08 0.09 0.62 0.01 0.75 0m-47.5 0.25c-1.4-1.52-2.57-3.24-3.9-4.82-0.84-1-2.4-2.74-1.65-4.16 0.36 0.36 0.55 1.45 1.11 1.5 0.88 0.09 1.72-0.01 2.61-0.02 0.2 0 0.07 4.35 0.07 4.75 1.18-0.04 2.31-0.26 3.5-0.27-0.27 1.05-0.79 2.45-1.74 3.02m11.74-2.06v-1c-1.2 0.19-1.21 0.83 0 1m14.24-0.32c0-1.1-0.35-2.14-0.47-3.23-0.12-1.08 0.15-2.28-0.29-3.3-0.42-0.99-2.93-0.7-3.78-0.7 0.14-3.67 1.47-7.28 1.99-10.9 0.25-1.75 0.32-3.54 0.52-5.3 0.13-1.18-0.38-3.59 0.69-4.38 0.54-0.4 1.12-0.35 1.37 0.34 0.49 1.37 0.09 3.16 0.1 4.6 0.01 2.11 0.02 4.2 0.2 6.31 0.15 1.79 0.14 3.52-0.06 5.31-0.11 0.97-0.32 2.9 0.69 3.51-0.02-3.34-0.04-6.69-0.05-10.02-0.01-1.69 0.1-3.31 0.22-4.98 0.12-1.61-0.46-3.24 0.09-4.83 0.2-0.58 0.3-1.02 0.97-0.7 0.7 0.33 0.84 0.48 0.92 1.27 0.63 6.46 2.02 12.75 3 19.16 0.12 0.76-0.46 1.27-0.71 1.93-0.33 0.87-0.53 1.99-0.67 2.91-1.51-0.21 0.27-3.28 0.48-4-1.66-0.39-4.82-1.37-4.74 1.35 0.05 1.15 0.78 4.8-0.47 5.65m27.23-4.9c0.04 0.89 0.13 2.06-0.02 2.93-0.24 1.48-1.59 1-2.59 0.56-0.31-0.14-0.13-1.12-0.14-1.44 0-0.51 0.73-1 1.01-1.37 0.56-0.75 1.25-1.39 1.92-2.03 1.42-1.36 2.92-2.64 4.34-4 0.73-0.7 7.92-7.61 8.63-6.62 0.66 0.9 0.74 1.99 0.25 3.01-0.42 0.86-2.27 0.12-2.95 0.17-2.8 0.18-0.47 4.94-3.1 4.6-0.68-0.09-2.57-0.47-2.93 0.2-0.56 1.03-0.4 2.02-0.48 3.17-0.09 1.27-3.15 0.82-3.94 0.82m-10.48 4.06c0.08-0.17 0.17-0.33 0.25-0.5-0.64-0.13-0.66 0.56-0.25 0.5m-24.25-0.12c-0.2-1-1.13-1.79-1.27-2.79-0.17-1.25 1.22-1.46 1.78-2.35 0.43-0.67 0.57-0.78 0.4-1.54-0.12-0.57-0.57-1.01-0.7-1.56-0.3-1.24 0.85-1.72 1.68-2.36 1.84-1.42-1.75-3.52 0.1-5.16 0.76-0.68 1.88-1.25 1.38-2.45-0.44-1.06-1.71-2.27-0.54-3.35 0.46-0.42 0.79-0.71 1.08-1.26 0.44-0.84-0.8-2.07-1.09-2.8-0.22-0.55-0.36-0.89 0.32-0.99 0.44-0.06 1.24-0.2 1.46 0.22 0.42 0.79 0.27 1.86 0.27 2.73 0.01 1.24-0.06 2.47-0.18 3.7-0.21 2.21-0.6 4.38-0.96 6.57-0.72 4.31-1.74 8.61-3.04 12.79-0.15 0.48-0.1 0.66-0.69 0.6m-2.25 0.01c0-0.13 0.08-0.67 0-0.75-0.04-0.04-0.71-0.03-0.75 0s-0.03 0.71 0 0.75c0.08 0.08 0.62 0 0.75 0m35.75-0.69c0.18-0.31 0.19-0.65 0.25-1-0.35 0.05-0.69 0.07-1 0.25 0.21 0.44 0.16 0.9 0.75 0.75m-43.76-0.52c0.27-1.38-1.38 0.28 0 0m30-0.41c0.2-0.33 0.06-0.65-0.01-1-0.29 0.34-0.42 0.72 0.01 1m-37.75-0.05c0-0.13 0.08-0.67 0-0.75-0.04-0.04-0.71-0.03-0.75 0-0.03 0.04-0.03 0.71 0 0.75 0.08 0.09 0.62 0 0.75 0m21.5-0.61c0-0.5-0.01-1-0.01-1.5 0.25 0.17 0.49 0.35 0.75 0.5 0-0.42 0-0.83-0.01-1.25 0.34 0.41 0.25 0.99 0.26 1.5 0.24-0.13 0.46-0.29 0.75-0.25-0.15 0.77-1.05 1-1.74 1m-1.5 0.01c0.09-0.6 0.3-1.18 0.49-1.75 0.25 0.28 0.25 0.71 0.26 1.07 0 0.76 0.01 0.67-0.75 0.68m29.51-0.55c-0.98 0.36-1.52-2-1.4-2.6 0.24-1.28 1.97-2.28 2.88-3.06 1.45-1.26 2.89-2.53 4.34-3.79 1.43-1.24 2.92-2.4 4.38-3.6 0.98-0.8 2.28-2.39 3.71-2.02 1.39 0.36 1.24 1.5 0.39 2.37-0.99 1.01-2.2 1.77-3.26 2.7-1.24 1.08-2.42 2.22-3.68 3.28-1.32 1.11-2.57 2.3-3.8 3.51-1.08 1.04-2.28 2.41-3.56 3.21m-17.51 0.23c0-0.33 0-0.67-0.01-1 0.24 0.27 0.24 0.73 0.01 1m-3.25-0.23c0-0.8-0.22-2.39 0.74-2.75 0 0.84 0.02 2.17-0.74 2.75m-1.5 0.01c-0.73-0.75-0.51-2.31-0.52-3.25 1.03 0.14 1.01 2.62 0.52 3.25m17.24-0.34v-0.7c0-0.08-0.45-0.11-0.5-0.05-0.07 0.08 0 0.58 0 0.7 0 0.1 0.4 0.06 0.5 0.05m-16.49 0.08c0-0.79-0.14-1.76 0.24-2.5 0.47 0.52 0.38 2.11-0.24 2.5m-15.26-0.67c0.18-0.31 0.19-0.65 0.24-1-0.18 0.03-1 0.07-1 0.33 0.01 0.52 0.19 0.78 0.76 0.67m11.5-0.31c0-0.5-0.01-1-0.01-1.5 0.35 0.42 0.34 1.08 0.01 1.5m-22.5-0.13c0.61-0.34-0.23-0.62-0.5-0.75 0.11 0.31 0.24 0.55 0.5 0.75m53.99-0.78c0.02-0.1 0.05-0.5-0.06-0.5-0.12 0-0.62-0.07-0.7 0-0.05 0.05-0.03 0.5 0.06 0.5h0.7m-4.5 0.02c0.12-0.38 0.1-0.68-0.07-1.04-0.07-0.14-0.63-0.64-0.71-0.4-0.24 0.64-0.06 1.47 0.78 1.44m-10.25-0.2c0.21-1.16-0.9-0.56-1.25 0.01 0.41 0.2 0.85 0.2 1.25-0.01m-23.75-1.62c-0.39 0.03-0.73 0.36-0.75 0.75 0.39-0.02 0.73-0.36 0.75-0.75m30.25 0.34c0-0.35 0.4-1.32 0.05-1.52-0.66-0.38-1.21-0.95-1.32-1.72 1.09 0 2.12 0.34 3.2 0.23 1.19-0.12 0.8-4.26 1.07-4.26 1.16-0.01 2.32 0.31 3.47 0.26 0.84-0.04 0.88-0.15 1.26-0.9 0.46-0.92 0.28-2.04 0.81-2.99 0.56-1 2.14-0.34 3.03-0.48 0.55-0.08 0.84-0.43 1.19-0.83 0.25-0.28 0.29-0.97 0.68-1.12 0.56-0.21 0.92 0.62 1.06 0.94 0.29 0.67-2.14 2.22-2.48 2.52-1.46 1.26-2.88 2.56-4.36 3.79-1.41 1.17-3 2.14-4.29 3.44-0.97 0.97-1.93 2.42-3.37 2.64m-51 0.27c0.15-0.79-1.05-0.52 0 0m40.24-1.46c-0.21-0.35-0.66-0.43-1-0.24 0.2 0.31 0.67 0.42 1 0.24m-26.75 0.39c0-0.13 0.08-0.67 0-0.75-0.04-0.04-0.71-0.03-0.75 0-0.03 0.04-0.03 0.71 0 0.75 0.08 0.08 0.62 0 0.75 0m-10.5-0.2c0.94-0.56-0.3-0.93-0.76-1 0.09 0.51 0.06 1.18 0.76 1m68.96-8.11c2.32-0.79 4.38-2.6 6.25-4.14 1.94-1.6 3.99-3.35 5.67-5.22 3.59-4.01 6.72-8.86 8.71-13.86 1.06-2.67 1.81-5.51 2.61-8.27 0.83-2.85 1.08-5.84 1.61-8.76 1.02-5.64 0.48-11.45 0.35-17.14 0.84 0.63 0.59 1.74 0.65 2.64 0.09 1.42 0.02 2.85 0.07 4.27 0.11 2.92 0.16 5.88 0.14 8.81-0.05 6.05 0.04 12.11 0.07 18.16 0.01 2.87 0.31 5.9-0.23 8.73-0.51 2.71-1.43 5.45-2.73 7.88-1.2 2.24-2.76 4.41-4.44 6.31-1.71 1.94-3.46 4.12-5.57 5.64-1.56 1.12-4 2.19-5.98 1.76-1.57-0.34-2.95-1.92-4.21-2.85-1.13-0.8-2.95-2.43-2.97-3.96m-25.47 6.39c-0.15-0.3-0.46-0.37-0.75-0.5 0 0.13-0.08 0.67 0 0.75 0.19 0.18 0.65-0.08 0.75-0.25m12.5-0.07c0.18-0.31 0.2-0.66 0.25-1-0.33 0-0.67 0-1 0.01 0.08 0.5 0.05 1.16 0.75 0.99m-41.5 0.22c0.18-0.31 0.19-0.66 0.24-1h-0.75c0.02 0.4 0.2 0.75 0.51 1m-11.25-0.19c-0.21-0.35-0.66-0.43-1-0.24 0.21 0.3 0.67 0.42 1 0.24m57.75-0.31c0.27-1.38-1.38 0.29 0 0m-14.26-1.17c0.21-1.13 2.13-2.59 3.24-2.77 0.01 0.92 0.25 2.29-0.1 3.16-0.3 0.78-2.61-0.23-3.14-0.39m-7.24 0.29c0.14-0.29 0.23-1.8-0.51-1.25-0.17 0.13-0.14 0.58-0.14 0.76 0 0.45 0.23 0.56 0.65 0.49m13.49-1.07c-0.13-0.58-0.49-0.78-1-1-0.41 0.72 0.29 1.41 1 1m-34.25-0.07c0.61-0.34-0.23-0.62-0.5-0.75 0.11 0.3 0.24 0.54 0.5 0.75m16.99-1.09c0-0.33 0-0.67-0.01-1-0.49 0.24-0.91 1.22 0.01 1m25.5-0.89c-0.05-0.33-0.22-1.54-0.82-0.93-0.68 0.69 0.3 0.86 0.82 0.93m-14.25 0.08c0.02-0.63 0.25-1.85 0.99-2.01-0.09 0.66-0.46 1.58-0.99 2.01m-1.25 0c0.11-0.52 0.22-1 0.74-1.25-0.08 0.53-0.03 1.42-0.74 1.25m-34 0.18c0.32-0.19 0.45-0.92-0.1-0.75-0.3 0.09-0.37 0.48-0.4 0.75 0.16 0 0.35 0.03 0.5 0m54.5-0.53c0-0.29-0.11-1.39-0.75-0.75s0.47 0.75 0.75 0.75m-14.76-0.68c0.18-1.22 2.68-2.71 3.73-3.02 0.5 0.94-0.07 2.29-0.52 3.13-0.44 0.85-2.54 0.07-3.21-0.11m-3.24 0.52c0.11-0.77 0.38-1.56 0.74-2.25 0.26 0.59-0.25 1.86-0.74 2.25m-6.26-0.47v-0.69c0-0.08-0.45-0.11-0.5-0.05-0.07 0.07 0 0.58 0 0.69 0.01 0.11 0.4 0.07 0.5 0.05m15.5-0.83c0.18-0.31 0.19-0.66 0.25-1h-0.75c0.01 0.41 0.19 0.76 0.5 1m-7.75 0.04c0.13-0.8 0.52-1.49 0.74-2.25 0.48 0.63-0.22 1.83-0.74 2.25m-34 0.18c0.18-0.31 0.19-0.66 0.24-1-0.66-0.15-0.69 0.54-0.74 1 0.16 0 0.35 0.03 0.5 0m35.25-0.68c0.01-0.81 0.62-2.3 1.49-2.51-0.21 0.85-0.7 2.05-1.49 2.51m-7.54-7.21c1.26 0.4 1.84 1.69 2.31 2.82 0.38 0.9 1.87 3.38 0.39 3.99-0.69 0.29-1.44 0.25-1.65-0.7-0.25-1.14-0.54-2.26-0.87-3.38-0.22-0.81-0.58-1.91-0.18-2.73m21.27 3.88c1.33 0.34 2.73 0.93 4.09 0.81 0.98-0.08 0.4-3.06 0.39-3.83 1.12 0.05 2.15 0.22 3.25 0.43 1.24 0.23 2.16 0.23 2.24-1.2 0.06-1.09-0.19-2.13-0.18-3.22 0.03-1.96 4.73-0.4 5.61-1.54 1.16-1.47-1.56-5.06 1.02-5.54 1.18-0.22 2.17 0.1 3.33-0.37 0.94-0.38-0.43-4.3-0.38-5.01 0.11-1.56 3.76-1.12 4.37-2.56 0.64-1.51-2.22-3.72-1.06-5.06 1.02-1.18 2.88-2.38 4.41-2.81-1.29 6.63-3.77 13.12-7.62 18.69-1.99 2.88-4.43 5.36-6.94 7.8-2.39 2.32-5.44 5.63-8.86 6.27-0.97 0.19-3.55-1.92-3.67-2.86m-26.23 2.89c-0.2-0.33-0.63-0.49-1-0.5v0.75c0.34-0.05 0.69-0.07 1-0.25m-32.75-0.08c-0.01-1.17-0.01-2.33-0.02-3.5 0.74 0.69 0.72 2.78 0.02 3.5m-1.26-0.74c0-0.93-0.2-2.14 0.23-3 0.51 0.61 0.46 2.53-0.23 3m49.65-19.51c0.33 2.59 2.09 4.45 3.21 6.7 0.49 0.98 0.33 2.02 0.38 3.08 0.06 1.35 0.38 2.5 0.87 3.74 0.22 0.55-0.17 0.69-0.63 0.91-1.48 0.7-3.01 1.3-4.5 1.99-1.46 0.68-2.93 1.97-4.54 2.22-0.66 0.1-0.8 0.24-1.25-0.23-0.96-1-1.51-2.74-1.92-4.04-0.37-1.18 0.34-3.03 0.64-4.18 0.41-1.6 1.3-2.15 2.3-3.33 1.03-1.2 2.04-2.44 2.93-3.75 0.56-0.85 1.42-2.85 2.51-3.11m-19.4 19.1c0.27-0.5-0.07-0.81-0.5-1 0 0.59-0.24 1.11 0.5 1m-15 0.08c0.32-0.33 0.87-1-0.01-1-0.76 0-0.37 0.7 0.01 1m34.25-0.43c0-0.33 0-0.67-0.01-1-0.32 0.28-0.65 0.51-1 0.76 0.67-2.43 4.29-3.37 6.48-3.54-0.21 0.92-1.42 1.46-2.15 1.89-1.07 0.63-2.06 1.64-3.32 1.89m-47 0.25c0-0.5 0-1-0.01-1.5 0.52 0.31 0.48 1.16 0.01 1.5m50.49-1.02c0.03-0.7 0.63-1.1 1.2-1.39 0.39-0.21 1.79-1.07 1.79-0.3 0 0.51 0.09 1.94-0.51 1.93-0.86-0.02-1.63-0.1-2.48-0.24m-54.25 0.29c0.07-0.48 0.12-0.93 0.49-1.25 0.26 0.49 0.24 1.4-0.49 1.25m58.49-3.06c2.07-0.02 3.75-1.38 5.35-2.53 2.04-1.47 3.83-3.19 5.57-4.99 3.4-3.53 6.33-7.68 8.92-11.82 2.57-4.1 4.61-8.75 6.03-13.37 0.75-2.42 1.27-4.91 1.63-7.41s0.37-5.04 0.74-7.53c0.84 0.45 1.64 1.24 2 2.13 0.22 0.56 0.58 1.01 0.28 1.57-0.51 0.94-1.58 1.62-2.21 2.52-0.27 0.39 0.54 1.41 0.72 1.74 0.48 0.86 1.03 1.69 1.21 2.68 0.17 0.89-1.5 1.79-2.13 2.26-2.06 1.52 0.52 4.11 0.68 5.96 0.05 0.6 0.15 0.92-0.38 1.29-0.99 0.69-2.5 1.19-3.29 2.11-0.25 0.29-0.44 0.39-0.38 0.77 0.21 1.26 0.77 2.26 1.14 3.47 0.3 0.97 0.16 1.28-0.7 1.73-1.12 0.6-3.54 0.63-3.53 2.29 0.01 1.52 0.68 2.96 0.78 4.49-0.62 0-5.01-0.16-4.99 0.55 0.03 1.04 0.13 2.11 0.34 3.13 0.11 0.53 0.52 1.84-0.1 2.22-1.54 0.95-3.76-0.38-5.16 0.62-0.63 0.46-0.39 1.35-0.32 2 0.13 1.07 0.03 2.2 0.04 3.28-1.84-0.02-3.64-0.66-5.5-0.72 0.01 0.9 0.2 1.87 0.16 2.75-0.03 0.56-0.15 0.97-0.66 1.11-1.26 0.34-2.79-0.68-4.03-0.84-0.85-0.09-2.07-0.47-2.21-1.46m-48.74 2.51v-0.75c-0.62 0.31-0.62 0.44 0 0.75m27.75-0.9c0.02-0.11 0.05-0.5-0.06-0.5-0.12 0-0.62-0.07-0.7 0-0.05 0.05-0.03 0.5 0.06 0.5h0.7m1.74-1.01c-0.49-0.33-0.96-0.64-1.38-1.04-0.74-0.7-0.18-0.98 0.42-1.58 0.7-0.71 1.53 1.91 0.96 2.62m-5 0.03c0-0.13 0.08-0.67 0-0.75-0.04-0.04-0.71-0.03-0.75 0s-0.03 0.71 0 0.75c0.09 0.08 0.62 0 0.75 0m-20.5-0.65c-0.05-0.35-0.07-0.69-0.26-1-0.32 0.23-0.49 0.61-0.49 1 0.25 0.01 0.5 0.01 0.75 0m41.46-6.71c1.12 0.22 3.28 2.1 3.52 3.23-0.42 0.02-1.26-0.01-1.5-0.37-0.36-0.53-0.65-1.1-1.01-1.62-0.24 0.95 0.17 2.21 1.1 2.55 0.96 0.35 2.07 0.59 3.06 0.2 5.12-2.05 9.03-7.15 12.15-11.48 3.38-4.69 6.79-9.63 8.92-15.02 1.06-2.67 1.93-5.43 2.44-8.26 0.56-3.11 0.37-6.25 0.77-9.37 0.39-3 0.07-6.12 0.06-9.14-0.02-3.14-0.18-6.25-0.3-9.38 0.92 0.18 1.05 1.34 1.16 2.1 0.17 1.18 0.36 2.5 0.37 3.69 0.02 3.32 0.11 6.64-0.06 9.95-0.16 3.15-0.08 6.37-0.55 9.49-0.47 3.16-1.27 6.41-2.33 9.42-2.14 6.07-5.27 11.61-9 16.83-1.93 2.7-3.91 5.32-6.35 7.59-2.16 2-4.47 4.12-7.21 5.28-0.85 0.37-2.25 0.32-3.09-0.08-1.07-0.51-1.71-1.43-2.1-2.55-0.35-0.99-0.26-2.06-0.05-3.06m-24.47 4.88c0.26-0.5-0.07-0.81-0.51-1 0.01 0.58-0.22 1.1 0.51 1m-13-0.19c0.11-0.58-0.16-0.75-0.68-0.75-0.26 0-0.29 0.82-0.32 1 0.35-0.05 0.69-0.06 1-0.25m9.5-0.3c-0.01-1.17 0-2.33-0.02-3.5 0.85 0.15 1.88 0.74 1.55 1.68-0.24 0.66-0.67 1.97-1.53 1.82m33.24-1.67c-0.31-0.34-0.94-0.76-0.9-1.25 0.05-0.67 1.09-0.97 1.53-1.34 0.39-0.34 0.63-0.79 0.97-1.17 0.37-0.41 0.87-0.65 1.27-1.02 0.83-0.76 1.19-1.79 1.99-2.55 0.39-0.38 0.79-0.8 1.01-1.31 0.16-0.39 0.26-0.9 0.63-1.15 0.78-0.52 2.51 0.36 2.53 1.24 0.01 0.73-0.77 1.44-1.23 1.91-0.8 0.82-1.56 1.69-2.34 2.53-1.47 1.6-3.19 3.73-5.46 4.11m5.44-10.78c-0.25 0.72-0.32 1.51-0.57 2.2s-1.58 0.64-1.67 1.23c-0.11 0.72 0.02 1.67-0.59 2.22-0.6 0.54-1.65 0.2-2.39 0.38 0.18 0.4 0.26 0.72 0.21 1.16-0.06 0.54-0.41 0.56-0.87 0.73-0.38 0.14-0.72 0.13-1.13 0.13-0.67 0-0.44 0.39-0.44 1-0.72-0.08-0.94-0.55-1.32-1.12-0.54-0.81 2.54-3.11 3-3.58 1.36-1.41 2.46-3.49 4.13-4.53 0.47-0.3 1.16 0.04 1.64 0.18m-10.71 6.56c1.02-1.8 2.92-3.16 4.35-4.64 0.8-0.82 1.54-1.67 2.42-2.4 0.13-0.11 1.19-0.86 1.19-0.39 0.01 2.07-2.29 3.63-3.54 5-0.88 0.94-2.89 3.62-4.42 2.43m-12.26-0.44c0.6-1.3 1.43-2.48 2.16-3.71 0.78-1.32 1.35-2.74 1.97-4.14 1.36-3.06 2.47-6.1 3.42-9.31 1.97-6.64 2.86-13.47 4.02-20.28 0.09-0.51 0.24-0.75 0.72-0.41 0.56 0.39 0.59 0.89 0.6 1.51 0.03 1.56-0.36 3.21-0.59 4.75-0.25 1.72-0.63 3.4-1.08 5.08-0.95 3.58-1.57 7.19-2.74 10.72-1.1 3.34-2.35 6.58-4.02 9.68-0.74 1.38-1.56 2.7-2.4 4.03-0.34 0.58-1.18 2.24-2.06 2.08m-3 0.02c-0.63-1.16 0.73-2.77 1.21-3.75 0.74-1.52 1.44-3.06 2.02-4.66 1.26-3.47 2.26-7.04 3.09-10.64 0.81-3.52 1.47-7.08 2.09-10.64 0.32-1.79 0.66-3.58 0.86-5.39 0.18-1.66 0.27-3.71 1.02-5.23 2.49 1.35 1.27 5.13 0.9 7.27-0.7 4-1.48 7.96-2.52 11.89-1.04 3.92-2.04 7.88-3.59 11.63-0.74 1.79-1.57 3.54-2.42 5.28-0.69 1.4-1.3 3.34-2.66 4.24m23.88-24.38c-0.51 1.08-2.33 0.7-3.28 0.97-1.2 0.34-3.02 1.16-3.46 2.44-0.27 0.78 0.16 1.79 0.37 2.54 0.33 1.19 0.63 2.39 0.93 3.59 0.59 2.34 1.09 4.84 0.53 7.24 0.48-0.02 0.97-0.13 1.45-0.2 0.82-0.11 0.8 0.42 0.74 1-0.08 0.75-1.21 1.63-1.68 2.19-0.82 0.97-1.79 1.88-2.72 2.75-0.76 0.72-1.83 1.84-2.74 0.73-1.35-1.65-2.3-4.03-2.53-6.14-0.16-1.45 0.74-2.98 1.32-4.26 0.71-1.58 1.44-3.14 2-4.79 0.49-1.44 0.9-2.9 1.34-4.35 0.36-1.2 0.59-2.65 1.61-3.48 0.57-0.46 1.27-0.89 1.99-1.03 1.16-0.23 3.16 0.1 4.13 0.8m-21.88 23.62c0.22-1.45 1.21-2.74 1.78-4.07 0.66-1.53 1.35-3.07 1.98-4.61 1.31-3.23 2.28-6.49 3.16-9.86s1.56-6.77 2.22-10.19c0.33-1.7 0.68-3.4 0.96-5.11 0.23-1.42 0.26-3.03 0.81-4.37 0.2-0.5 0.73-0.49 0.81 0.11 0.22 1.79-0.17 3.52-0.45 5.29s-0.56 3.54-0.87 5.31c-0.62 3.46-1.32 6.92-2.26 10.31-0.88 3.17-1.94 6.32-3.24 9.33-0.64 1.47-1.35 2.92-2.18 4.29-0.72 1.18-1.55 2.78-2.72 3.57m3.5-0.27c0.41-1.25 1.33-2.42 1.99-3.54 0.8-1.36 1.51-2.73 2.13-4.18 1.3-3.06 2.38-6.24 3.33-9.42 0.91-3.05 1.46-6.15 2.15-9.26 0.33-1.48 0.68-2.96 0.93-4.46 0.23-1.36 0.16-3.21 0.78-4.45 2.34 0.75 1.39 3.79 1.03 5.51-0.79 3.67-1.61 7.33-2.5 10.98-0.85 3.47-2.35 6.78-3.91 9.98-0.85 1.74-1.71 3.51-2.82 5.11-0.84 1.21-1.81 2.95-3.11 3.73m-10.26-1.95c-0.37-1.73 0.04-3.35 1.49-4.46 0.41-0.31 1.55-0.76 2.01-0.29 0.72 0.75 1.17 1.17 1.36 2.2 0.15 0.82 0.13 1.58-0.14 2.37-0.18 0.55-1.01 1.56-1.68 1.53-0.97-0.05-0.45-1.29-0.91-1.75-0.57-0.54-1.52 0.39-2.13 0.4m-2.01-1.24c-0.56-0.32 0.13-1.78 0.28-2.18 0.48-1.28 0.73-2.62 1.14-3.92 0.47-1.49 0.52-3.05 0.89-4.56 0.42-1.67 0.71-3.37 1-5.07 1.18-6.68 1.98-13.46 2.26-20.25 0.05-1.29 0.38-2.74 1.96-2.81 0.01 1.72-0.27 3.42-0.4 5.14-0.13 1.77-0.11 3.56-0.34 5.32-0.46 3.45-0.67 6.95-1.29 10.4-0.67 3.67-1.33 7.31-2.34 10.9-0.46 1.62-1.01 3.2-1.55 4.8-0.19 0.61-0.68 2.4-1.61 2.23m-1.47-1.02c-0.41-0.44-0.55-0.59-0.48-1.22 0.17-1.43 0.81-2.79 1.1-4.2 0.34-1.67 0.72-3.34 1.05-5.02 0.61-3.1 1.01-6.4 1.22-9.55 0.21-3.09 0.55-6.16 0.9-9.23 0.18-1.65 0.27-3.33 0.42-4.98 0.12-1.32-0.34-2.95 0.13-4.2 0.18-0.47 0.27-1.11 0.92-1.09 0.42 0.01 0.96 0.51 1.04 0.9 0.3 1.44 0.04 3.17-0.07 4.63-0.13 1.68-0.4 3.35-0.4 5.04-0.01 3.39-0.71 6.86-1.09 10.23-0.39 3.54-1.27 7.04-1.93 10.55-0.31 1.66-0.62 3.32-1.11 4.94-0.34 1.12-0.53 2.59-1.7 3.2m38.72-0.17c-0.49-1.52-1.14-2.87-1.42-4.46-0.33-1.89-0.54-3.76-0.55-5.68-0.04-3.71 0.33-7.26 1.44-10.81 1.11-3.54 2.64-6.75 4.98-9.64 2.04-2.51 4.62-5.71 7.86-6.65 0.69-0.2 0.75-0.08 0.75 0.61 0 0.59-0.1 1.12-0.55 1.5-0.58 0.49-1.3 0.78-1.96 1.16-0.8 0.46-1.51 1.13-2.21 1.73-1.34 1.15-2.44 2.65-3.44 4.1-2.06 2.98-3.38 6.4-4.38 9.87-1.02 3.52-1.25 7.35-0.66 10.95 0.28 1.67 0.66 3.3 1.07 4.94 0.22 0.93 0.31 2.21-0.93 2.38m-52.06-0.62c-0.18-0.04-0.84-0.1-0.92-0.25-0.23-0.42-0.46-0.83-0.69-1.25-0.21-0.38-0.13-1.53 0.08-1.89 0.45-0.8 0.95-1.07 1.72-1.57 0.58-0.38 1.61 0 2.21 0.12 0.32 0.06 1.21 1.19 1.25 1.51 0.09 0.75 0.27 1.57-0.22 2.24-0.56 0.76-1.28-0.28-1.88-0.35-0.81-0.1-0.95 1.12-1.55 1.44m50.05-0.62c-0.73-0.53-0.42-1.76-0.26-2.5 0.62 0.39 0.69 1.95 0.26 2.5m-1.75-0.24c-0.13-0.6-0.23-1.14-0.26-1.75-0.51 0.25-0.73 0.79-0.99 1.26-0.2-0.16-0.38-0.47-0.44-0.72-0.11-0.47-0.62-0.16-1.02-0.08-0.72 0.14-0.54-1.56-0.55-2.04 0-0.17 1.55-0.59 1.74-0.64 0.98-0.23 1.76 0.27 2.75-0.29-0.11 0.8-0.46 1.53-0.55 2.33-0.08 0.63-0.1 1.53-0.68 1.93m-26.26-0.36c-0.29-0.55 0.32-2.26-0.35-2.51-0.84-0.32-1.5 1.35-2.39 0.71-0.62-0.45-0.62-2.01-0.46-2.69 0.25-1 0.93-1.95 1.82-2.44 0.78-0.43 1.77-0.72 2.58-0.17 1.04 0.71 1.25 1.23 1.5 2.45 0.36 1.7-0.88 4.33-2.7 4.65m22-1.12c-0.78-0.65-0.51-2.37-0.44-3.26 0.08-0.95 0.16-1.88 0.15-2.83 0-0.4-0.18-4.16 0.31-4.16 0.53 0 0.42 0.04 0.43 0.55 0.01 1.77-0.08 3.58 0.05 5.35 0.1 1.3 0.53 3.29-0.5 4.35m-1.75-0.49c-0.41-0.77-0.01-1.9-0.01-2.73 0-0.96-0.01-1.93-0.02-2.89-0.01-0.9-0.04-1.81 0.04-2.71 0.03-0.29-0.02-1.49 0.19-1.67 0.54-0.44 0.55 0.74 0.55 1 0 1-0.03 1.99-0.03 2.99 0 0.65 0.6 6.19-0.72 6.01m5.25-0.28c-0.07-0.34-0.07-0.9-0.29-1.17-0.12-0.15-0.69-0.46-0.75-0.22-0.21 0.83 0.11 1.43 1.04 1.39m8.24-1.04c-0.7-1.09-0.71-1.83-0.56-3.1 0.09-0.74 0.38-1.57 0.99-2.03 0.67-0.51 1.43-0.19 1.72-1.13 0.15-0.48-0.79-0.66-1.13-0.44-0.29 0.19-0.72 0.94-1.08 0.94-0.36 0.01-1.47 0.22-1.74 0-0.49-0.39-0.89-0.58-1.03-1.2-0.15-0.71-0.21-1.22-0.16-1.95 0.05-0.85 0.85-2.41 1.83-2.47 0.57-0.04 1.12-0.04 1.69-0.03 0.41 0.01 1.01-0.55 0.67-0.9-0.83-0.85-2.13 0.29-2.63-1.09-0.2-0.56-0.43-1-0.35-1.59 0.07-0.57 0.59-1.1 0.9-1.58 1.11-1.7 3.23 0.78 4.05-0.16 0.81-0.92-1.74-1.13-1.95-1.72-0.18-0.5-0.59-1.18-0.54-1.71 0.07-0.71 0.13-1.15 0.43-1.79 0.22-0.46 0.98-0.89 1.37-1.23 0.27-0.24 0.77-0.34 1.09-0.18 0.32 0.17 1.47 0.53 1.61 0.85 0.12 0.29 0.36 1.31 0.65 1.42 0.62 0.22 1.13 0.15 0.91-0.71-0.25-1.01-0.97-1.78-0.8-2.9 0.17-1.07 0.36-2.23 1.06-3.1 0.32-0.4 0.82-0.74 1.28-0.97 0.54-0.27 0.84-0.45 1 0.21 0.31 1.25-0.11 2.54-0.15 3.8-0.06 1.44-0.04 2.85-0.45 4.25-0.19 0.64-0.62 0.88-1.15 1.22-0.92 0.58-1.78 1.25-2.58 1.98-1.7 1.56-2.44 3.98-2.49 6.21-0.04 1.68 0.69 3.12 1.17 4.69 0.27 0.87-0.63 2.4-1.07 3.09-0.72 1.14-1.37 2.61-2.56 3.32m-10.76-1.45c0.11-0.69 0.24-1.3 0.24-2 0.56 0.09 0.82 0.73 0.94 1.22 0.03 0.11 0.18 0.78 0.03 0.78h-1.21m2.75-0.26c-0.03-1.3 0.78-2.27 0.98-3.51-0.92 0.01-1.61-0.22-2.52 0.01-1.07 0.27-0.91-1.01-0.87-1.75 0.02-0.33-0.04-0.78 0.05-1.1s-0.03-0.4 0.32-0.4c0.31 0 0.27 0.05 0.38 0.34 0.28 0.72-0.09 1.45 0.38 2.16 0.6-2.12 0.44-4.3 0.79-6.46 0.12-0.72-1.28-1.94-1.82-2.26-0.79-0.47-2.72-0.41-2.63-1.77 0.14-2.25 1.64-4.39 2.83-6.23 0.58-0.9 1.21-1.77 1.76-2.69 0.54-0.9 1.31-2.41 2.46-2.62-0.08 1.33-0.48 2.68-0.48 4 0.72-0.34 1.36-0.82 2.02-1.27 0.36-0.25 1.72-0.74 1.72-1.24 0-0.35-0.25-0.3-0.46-0.56-0.41-0.52 0.02-1.41 0.19-1.94-0.42 0.22-0.79 0.54-1.22 0.75-0.77 0.37-0.78 0.24-1-0.55-0.32-1.17 1.01-2.14 1.69-2.88 1.21-1.34 2.47-2.65 3.83-3.84 1.2-1.05 2.49-1.94 3.88-2.7 1.22-0.67 2.95-1.91 4.38-1.93 1.33-0.02 0.57 5.63 0.46 6.42-0.13 0.88-2.28 1.56-2.95 1.81-0.57 0.22-0.7-0.62-0.84-1.12-0.44 0.58-0.98 2.2-1.84 2.23-0.38 0.02-0.77 0.04-1.15 0.03 0.07 0.45 0.48 1.19 0.27 1.61-0.87 1.74-2.3 3.14-3.4 4.74-1.06 1.55-2.29 3.33-2.94 5.09-0.21 0.58-0.95 0.14-1.38-0.16 0 0.85 0.11 1.71-0.17 2.52-0.21 0.62-1.31 0.8-1.31 1.24 0 0.4 0.14 0.17 0.38 0.42 1.17 1.21-0.24 2.59-0.35 3.97-0.07 0.86-0.06 1.73-0.1 2.59-0.01 0.23 0.06 1.35-0.14 1.53-0.05 0.05-0.5 0.02-0.5-0.04 0-2.02 0.23-3.94-0.03-5.96-0.71 0.92-0.74 2.08-0.73 3.19 0.01 1.35-0.05 2.71 0.02 4.06 0.42-0.15 0.82-0.37 1.25-0.51 0.01 0.99 0.01 1.99 0.02 2.98 0.02 0.96-0.1 1.83-1.23 1.8m-6.76-1.71c0.09-0.53-0.65-4.75 0.22-4.75 0.5 0 0.27 3.78 0.27 4.36 0.01 0.45 0.01 0.4-0.49 0.39m-16.75-1.17c0-0.74-0.16-2.62-1.21-1.54-0.81 0.83-1.69 0.83-2.11-0.36-0.63-1.81-0.47-4.65 1.58-5.62 5.7-2.67 5.68 7.59 1.74 7.52m35.73-2.68c-1.23-1.66-1.24-4.42-0.64-6.31 0.61-1.92 2.39-5.18 4.84-4.96-0.18 1.08-1.45 1.53-2.13 2.26-0.82 0.88-1.5 1.82-1.82 2.99-0.29 1.08-0.37 2.24-0.07 3.33 0.21 0.79 0.68 2.1-0.18 2.69m-20.26-1.65c0.03-0.25-0.3-0.58-0.25-0.75 0.15-0.55 2.04-1 2.49-1.17 1.07-0.4 2.13-0.18 3.11 0.44 0.3 0.19 0.42 0.09 0.36 0.48-0.03 0.2-0.16 0.36-0.32 0.47-0.66 0.45-1.82-0.06-2.54-0.1-1.03-0.05-1.86 0.59-2.85 0.63m30.5-0.66c-0.59-0.61-0.79-1.58-1.15-2.34-0.33-0.71-1.18-2.4-0.57-3.13 0.76-0.91 1.75-1.94 2.92-2.29 0.01 1.5-0.13 2.94-0.35 4.42-0.15 1.07-0.11 2.48-0.85 3.34m-9.25-0.2c-0.27-1.37-0.12-2.5 0.1-3.87 0.14-0.89 1.46-2.48 2.37-2.64-0.06 0.84-0.89 6.8-2.47 6.51m-21.75-0.64c0.2-1.29 2.03-2.33 3.24-2.52 1.1-0.17 3.01-0.26 4.05 0.15 0.72 0.29-0.76 1.06-1.04 1.13-1.01 0.26-2.01 0.04-3.02 0.16-1.16 0.15-2.03 1.09-3.23 1.08m-12.71-2.44c-0.71-0.16-0.53-1.67-1.28-1.88-1.01-0.29-1.32 2.34-2.69 1.06-1.58-1.48-0.68-4.22 0.65-5.5 0.71-0.69 1.65-1.26 2.66-0.96 1.15 0.34 1.88 0.84 2.35 1.96 0.53 1.26 0.35 3.22-0.42 4.34-0.4 0.59-0.61 0.7-1.27 0.98m12.68-1.81c-0.5-0.9 0.08-1.98 0.21-2.9 0.17-1.13 0.48-2.23 0.69-3.36 0.21-1.11 0.35-2.24 0.49-3.36 0.14-1.11-0.13-2.23 0.01-3.38 0.13-1.08 0.79-1.94 1.74-2.44 0.79-0.42 2.42-0.15 2.57-1.25 0.16-1.22 0.34-2.05 0.91-3.15 0.63-1.23 2.58-0.96 3.61-1.34 1.13-0.42 1.5-2.6 2.18-3.51 0.38-0.51 1.57-0.89 2.2-0.89 0.76 0 1.55-0.11 2.25 0.24 0.52-1.65 1.43-4.91 3.86-4.23 0.55 0.15 1.09 0.29 1.62 0.5 1.03 0.4 1.76-3.12 3.12-1.84 0.55 0.52 0.51 2.38 0.38 3.06-0.14 0.7-0.11 1-0.68 1.43-1.04 0.78-2.56 1.07-3.71 1.73-1.39 0.8-2.68 1.76-3.92 2.77-2.37 1.93-4.57 4.08-6.49 6.46-1.88 2.33-3.65 4.92-5.18 7.49-0.79 1.33-1.4 2.79-2.07 4.18-0.42 0.87-0.6 2.22-1.51 2.73-0.73 0.44-1.45 0.82-2.28 1.06m32.23-3.91c-0.87-1.06-1.7-2.2-1.98-3.55-0.22-1.07 1.47-2.41 2.45-2.7 0.01 1.19 0 2.42 0.05 3.61 0.04 0.75 0.23 2.13-0.52 2.64m-45.52-4.27c-0.23 0.84-0.8 2.12-1.86 1.91-0.44-0.09-0.93-0.91-1.22-1.23-0.29-0.33-0.38-0.92-0.4-1.36-0.06-1.28 0.2-2.22 0.87-3.3 0.69-1.11 1.73-1.33 2.89-1.71 0.85-0.28 2.11 0.39 2.65 1.03 0.81 0.96 1.05 1.84 1.05 3.08 0.01 0.94-0.1 2.29-0.73 3.05-0.2 0.24-0.94 0.86-1.24 0.92-0.57 0.12-0.78-0.45-0.93-0.88-0.2-0.62-0.54-1.11-1.08-1.51m23-0.37c-0.67 0.21-1.02 0.82-0.99 1.5 0.91 0.03 1.43-0.65 0.99-1.5m1.75 0.74c0.17-0.29 0.18-0.6 0.23-0.92 0.04-0.29-1.82-0.58-1.24 0.43 0.09 0.14 0.83 0.46 1.01 0.49m-1.75-1.49c-0.13-0.58-0.49-0.78-1.01-1-0.41 0.73 0.29 1.42 1.01 1m22.73-2.37c-0.91-0.91-1.63-1.74-2.02-2.97-0.29-0.91 1.43-2.03 2.25-2.03 0.06 1.18 0.96 4.12-0.23 5m-32-0.08c-2.94-0.6-0.47-3.85 0.54-5.1 3.17-3.91 6.77-7.44 10.76-10.51 1.98-1.53 4.04-2.99 6.21-4.24 2.12-1.22 4.3-2.39 6.8-1.95 0.43 0.08 0.68 0.58 0.63 1.01-0.07 0.64-2.04 2.08-2.61 2.36-0.61 0.3-1.23 0.03-1.87 0.02-0.84-0.01-1.57 0.34-2.25 0.81-0.98 0.66-1.46 1.63-2.19 2.55-0.42 0.54-1.22 0.47-1.83 0.5-0.74 0.04-1.34 0.35-1.93 0.79-0.56 0.42-1.03 0.96-1.35 1.59-0.25 0.5-0.51 1.32-1.07 1.57-1.13 0.5-2.2 0.59-3.21 1.38-1.2 0.93-1.5 2.19-2.05 3.53-0.43 1.05-1.89 1.3-2.66 2.05-1.02 1.03-1.28 2.38-1.92 3.64m-5.3-10.22c0.2-1.05 2.04-3 3.08-3.21 0.53-0.11 0.48 0.18 0.58 0.63 0.29 1.35 0.44 2.74 0.85 4.05 1.27-0.45 1.96-1.89 3.24-2.27 0.78 1.7-0.42 3.22-1.42 4.51-1.01 1.3-1.74 2.93-3.12 3.9-0.7 0.49-1.56 0.17-1.92-0.63-0.3-0.66-0.09-1.44-0.03-2.12 0.08-0.91 0.08-1.92-0.06-2.82-0.16-1.02-0.35-1.44-1.2-2.04m-6.72 5.53h-0.93c-0.57 0-0.39 1.24-1.03 1.55-0.54 0.25-0.91 0.53-1.42 0.08-0.41-0.37-0.77-0.82-0.88-1.4-0.23-1.26-0.15-2.12 0.35-3.31 0.51-1.19 1.79-1.43 2.88-1.63 0.99-0.18 1.97 0.38 2.67 1.03 1.03 0.96 1.89 2.91 1.47 4.34-0.25 0.85-0.2 0.98-0.99 1.32-0.44 0.19-0.94 0.58-1.37 0.14-0.5-0.51-0.73-1.39-0.75-2.12m5.5 1.48c-0.7-1.92-1.97-4.11-3.37-5.61-1.52-1.63-4.02-1.79-5.74-0.39-0.8 0.66-1.77 1.64-2.78 1.94-0.53 0.16-0.69 0.13-0.81-0.45-0.23-1.18 0.34-2.02 0.82-3.07 0.36-0.78 0.77-2.59 1.65-3 0.82-0.38 2.33 0.41 3.09 0.66 1.19 0.4 2.37 0.84 3.53 1.31s2.31 0.97 3.45 1.5c0.46 0.21 1.57 0.53 1.66 1.13 0.13 0.87 0.23 1.67 0.23 2.56 0.01 1.14-0.25 3.36-1.73 3.42m35.25-0.44c-0.01-1.67-0.02-3.33-0.03-5 0.78 0.4 2.18 1.64 2.27 2.56 0.12 1.1-1.29 2.1-2.24 2.44m2.99-3.01c-0.77-0.77-1.14-1.38-1.59-2.38-0.33-0.74 0.99-1.68 1.57-1.87 0.43 0.83 0.63 3.45 0.02 4.25m-3.02-2.99c-0.01-1.42-0.01-2.83-0.02-4.25 0.98 0.5 1.55 1.3 1.81 2.33 0.19 0.75-1.13 1.79-1.79 1.92m-25.25-0.37c0-0.5-0.01-1-0.01-1.5 1.15 0 1.06 1.37 0.01 1.5m-3.75 0.02c-0.06-0.25-0.95-4.4-0.46-4.22 0.94 0.35 1.84 0.88 2.69 1.39 0.55 0.33 0.5 0.38 0.17 0.89-0.46 0.73-1.51 1.77-2.4 1.94m-4.76-2.47c0.01-0.3 0.11-3.5 0.34-3.5 0.4 0 0.78 0.17 1.15 0.33 1.87 0.82-0.13 3.13-1.49 3.17m35.49-0.94c-0.56-0.35-1.34-1.8-0.26-2 0.09 0.61 0.68 1.44 0.26 2m-36.08-16.56c0.89 0.17 1.29 0.24 1.75 1.06 1.24 2.23 2.32 4.62 3.21 7.01 0.88 2.37 2.11 5.08 2.12 7.64-1.26-0.03-2.54-1.05-3.66-1.57-1.03-0.48-2.18-0.93-2.58-2.1-0.58-1.7-0.28-3.8-0.34-5.56-0.07-2.17-0.49-4.29-0.5-6.48m34.32 14.32c-0.17-0.77-0.23-1.46-0.26-2.25 0.69 0.39 1.03 1.78 0.26 2.25m-43.51-2.52c-0.07-0.46-0.1-0.96-0.51-1.25-0.27 0.53 0.14 0.92 0.51 1.25m9.18-12.8c0.28-0.46 0.69-0.91 1.24-1.01-0.09 0.68-0.58 1.03-1.24 1.01"/>
  </g>
 </defs>
 <g id="jack_spade" transform="translate(-1674.7 -729.12)">
  <use id="use9207" xlink:href="#base" height="1216.1899" width="2178.99" y="729.41199" x="1675.75"/>
  <g id="g9209" stroke="#000" fill="none">
   <path id="path9211" d="m1684.5 554.3v177.39"/>
   <path id="path9213" d="m1684.5 731.68h131.53"/>
   <path id="path9215" d="m1834.6 675.38v-177.64"/>
   <path id="path9217" d="m1834.6 497.74h-131.53"/>
  </g>
  <g id="g9219">
   <use id="use9221" xlink:href="#spade" transform="matrix(-2.4 0 0 -2.4 3423.7 1049.6)" height="1216.1899" width="2178.99" y="218.66499" x="713.26398"/>
   <rect id="rect9223" height="37.968" width="9.6926" y="505.81" x="1693.3" fill="#fff"/>
  </g>
  <g id="g9225">
   <use id="use9227" xlink:href="#spade" transform="scale(2.4)" height="1216.1899" width="2178.99" y="293.647" x="753.01703"/>
   <rect id="rect9229" height="37.968" width="9.6926" y="685.77" x="1816.5" fill="#fff"/>
  </g>
  <g id="g9231" transform="matrix(.99951 -.031411 .031411 .99951 -18.44 55.572)">
   <line id="line9233" stroke-width="7.25" x1="1722.9" y1="667.89" stroke="#000" x2="1796.2" y2="561.54"/>
   <circle id="circle9235" d="m 1727.5101,664.82703 c 0,1.21502 -0.985,2.2 -2.2,2.2 -1.2151,0 -2.2,-0.98498 -2.2,-2.2 0,-1.21503 0.9849,-2.2 2.2,-2.2 1.215,0 2.2,0.98497 2.2,2.2 z" cx="1725.3" cy="664.83" r="2.2" fill="#fff"/>
   <circle id="circle9237" d="m 1726.0101,664.82703 c 0,0.3866 -0.3134,0.7 -0.7,0.7 -0.3866,0 -0.7,-0.3134 -0.7,-0.7 0,-0.3866 0.3134,-0.7 0.7,-0.7 0.3866,0 0.7,0.3134 0.7,0.7 z" cx="1725.3" cy="664.83" r="0.7"/>
   <circle id="circle9239" d="m 1730.79,660.06799 c 0,1.21503 -0.985,2.2 -2.2,2.2 -1.2151,0 -2.2,-0.98497 -2.2,-2.2 0,-1.21502 0.9849,-2.2 2.2,-2.2 1.215,0 2.2,0.98498 2.2,2.2 z" cx="1728.6" cy="660.07" r="2.2" fill="#fff"/>
   <circle id="circle9241" d="m 1729.29,660.06799 c 0,0.3866 -0.3134,0.7 -0.7,0.7 -0.3866,0 -0.7,-0.3134 -0.7,-0.7 0,-0.3866 0.3134,-0.7 0.7,-0.7 0.3866,0 0.7,0.3134 0.7,0.7 z" cx="1728.6" cy="660.07" r="0.7"/>
   <circle id="circle9243" d="m 1734.07,655.30902 c 0,1.21503 -0.985,2.2 -2.2,2.2 -1.215,0 -2.2,-0.98497 -2.2,-2.2 0,-1.21503 0.985,-2.2 2.2,-2.2 1.215,0 2.2,0.98497 2.2,2.2 z" cx="1731.9" cy="655.31" r="2.2" fill="#fff"/>
   <circle id="circle9245" d="m 1732.57,655.30902 c 0,0.3866 -0.3134,0.7 -0.7,0.7 -0.3866,0 -0.7,-0.3134 -0.7,-0.7 0,-0.3866 0.3134,-0.7 0.7,-0.7 0.3866,0 0.7,0.3134 0.7,0.7 z" cx="1731.9" cy="655.31" r="0.7"/>
   <circle id="circle9247" d="m 1737.35,650.54999 c 0,1.21502 -0.9849,2.2 -2.2,2.2 -1.215,0 -2.2,-0.98498 -2.2,-2.2 0,-1.21503 0.985,-2.2 2.2,-2.2 1.2151,0 2.2,0.98497 2.2,2.2 z" cx="1735.2" cy="650.55" r="2.2" fill="#fff"/>
   <circle id="circle9249" d="m 1735.85,650.54999 c 0,0.3866 -0.3134,0.7 -0.7,0.7 -0.3866,0 -0.7,-0.3134 -0.7,-0.7 0,-0.3866 0.3134,-0.7 0.7,-0.7 0.3866,0 0.7,0.3134 0.7,0.7 z" cx="1735.2" cy="650.55" r="0.7"/>
   <circle id="circle9251" d="m 1740.6301,645.79102 c 0,1.21502 -0.985,2.2 -2.2,2.2 -1.2151,0 -2.2,-0.98498 -2.2,-2.2 0,-1.21503 0.9849,-2.2 2.2,-2.2 1.215,0 2.2,0.98497 2.2,2.2 z" cx="1738.4" cy="645.79" r="2.2" fill="#fff"/>
   <circle id="circle9253" d="m 1739.1301,645.79102 c 0,0.38659 -0.3134,0.7 -0.7,0.7 -0.3866,0 -0.7,-0.31341 -0.7,-0.7 0,-0.3866 0.3134,-0.7 0.7,-0.7 0.3866,0 0.7,0.3134 0.7,0.7 z" cx="1738.4" cy="645.79" r="0.7"/>
   <circle id="circle9255" d="m 1743.91,641.03198 c 0,1.21503 -0.985,2.2 -2.2,2.2 -1.2151,0 -2.2,-0.98497 -2.2,-2.2 0,-1.21502 0.9849,-2.2 2.2,-2.2 1.215,0 2.2,0.98498 2.2,2.2 z" cx="1741.7" cy="641.03" r="2.2" fill="#fff"/>
   <circle id="circle9257" d="m 1742.41,641.03198 c 0,0.3866 -0.3134,0.7 -0.7,0.7 -0.3866,0 -0.7,-0.3134 -0.7,-0.7 0,-0.3866 0.3134,-0.7 0.7,-0.7 0.3866,0 0.7,0.3134 0.7,0.7 z" cx="1741.7" cy="641.03" r="0.7"/>
   <circle id="circle9259" d="m 1747.19,636.27301 c 0,1.21503 -0.985,2.2 -2.2,2.2 -1.215,0 -2.2,-0.98497 -2.2,-2.2 0,-1.21503 0.985,-2.2 2.2,-2.2 1.215,0 2.2,0.98497 2.2,2.2 z" cx="1745" cy="636.27" r="2.2" fill="#fff"/>
   <circle id="circle9261" d="m 1745.69,636.27301 c 0,0.3866 -0.3134,0.7 -0.7,0.7 -0.3866,0 -0.7,-0.3134 -0.7,-0.7 0,-0.3866 0.3134,-0.7 0.7,-0.7 0.3866,0 0.7,0.3134 0.7,0.7 z" cx="1745" cy="636.27" r="0.7"/>
   <circle id="circle9263" d="m 1750.47,631.51398 c 0,1.21502 -0.985,2.2 -2.2,2.2 -1.215,0 -2.2,-0.98498 -2.2,-2.2 0,-1.21503 0.985,-2.2 2.2,-2.2 1.215,0 2.2,0.98497 2.2,2.2 z" cx="1748.3" cy="631.51" r="2.2" fill="#fff"/>
   <circle id="circle9265" d="m 1748.97,631.51398 c 0,0.3866 -0.3134,0.7 -0.7,0.7 -0.3866,0 -0.7,-0.3134 -0.7,-0.7 0,-0.3866 0.3134,-0.7 0.7,-0.7 0.3866,0 0.7,0.3134 0.7,0.7 z" cx="1748.3" cy="631.51" r="0.7"/>
   <circle id="circle9267" d="m 1753.75,626.755 c 0,1.21503 -0.9849,2.2 -2.2,2.2 -1.215,0 -2.2,-0.98497 -2.2,-2.2 0,-1.21502 0.985,-2.2 2.2,-2.2 1.2151,0 2.2,0.98498 2.2,2.2 z" cx="1751.6" cy="626.76" r="2.2" fill="#fff"/>
   <circle id="circle9269" d="m 1752.25,626.755 c 0,0.3866 -0.3134,0.7 -0.7,0.7 -0.3866,0 -0.7,-0.3134 -0.7,-0.7 0,-0.38659 0.3134,-0.7 0.7,-0.7 0.3866,0 0.7,0.31341 0.7,0.7 z" cx="1751.6" cy="626.76" r="0.7"/>
   <circle id="circle9271" d="m 1757.03,621.99701 c 0,1.21503 -0.985,2.2 -2.2,2.2 -1.2151,0 -2.2,-0.98497 -2.2,-2.2 0,-1.21503 0.9849,-2.2 2.2,-2.2 1.215,0 2.2,0.98497 2.2,2.2 z" cx="1754.8" cy="622" r="2.2" fill="#fff"/>
   <circle id="circle9273" d="m 1755.53,621.99701 c 0,0.3866 -0.3134,0.7 -0.7,0.7 -0.3866,0 -0.7,-0.3134 -0.7,-0.7 0,-0.3866 0.3134,-0.7 0.7,-0.7 0.3866,0 0.7,0.3134 0.7,0.7 z" cx="1754.8" cy="622" r="0.7"/>
   <circle id="circle9275" d="m 1760.31,617.23798 c 0,1.21502 -0.985,2.2 -2.2,2.2 -1.215,0 -2.2,-0.98498 -2.2,-2.2 0,-1.21503 0.985,-2.2 2.2,-2.2 1.215,0 2.2,0.98497 2.2,2.2 z" cx="1758.1" cy="617.24" r="2.2" fill="#fff"/>
   <circle id="circle9277" d="m 1758.81,617.23798 c 0,0.3866 -0.3134,0.7 -0.7,0.7 -0.3866,0 -0.7,-0.3134 -0.7,-0.7 0,-0.3866 0.3134,-0.7 0.7,-0.7 0.3866,0 0.7,0.3134 0.7,0.7 z" cx="1758.1" cy="617.24" r="0.7"/>
   <circle id="circle9279" d="m 1763.59,612.479 c 0,1.21503 -0.985,2.2 -2.2,2.2 -1.215,0 -2.2,-0.98497 -2.2,-2.2 0,-1.21502 0.985,-2.2 2.2,-2.2 1.215,0 2.2,0.98498 2.2,2.2 z" cx="1761.4" cy="612.48" r="2.2" fill="#fff"/>
   <circle id="circle9281" d="m 1762.09,612.479 c 0,0.3866 -0.3134,0.7 -0.7,0.7 -0.3866,0 -0.7,-0.3134 -0.7,-0.7 0,-0.3866 0.3134,-0.7 0.7,-0.7 0.3866,0 0.7,0.3134 0.7,0.7 z" cx="1761.4" cy="612.48" r="0.7"/>
   <circle id="circle9283" d="m 1766.87,607.71997 c 0,1.21503 -0.9849,2.2 -2.2,2.2 -1.215,0 -2.2,-0.98497 -2.2,-2.2 0,-1.21503 0.985,-2.2 2.2,-2.2 1.2151,0 2.2,0.98497 2.2,2.2 z" cx="1764.7" cy="607.72" r="2.2" fill="#fff"/>
   <circle id="circle9285" d="m 1765.37,607.71997 c 0,0.3866 -0.3134,0.7 -0.7,0.7 -0.3866,0 -0.7,-0.3134 -0.7,-0.7 0,-0.3866 0.3134,-0.7 0.7,-0.7 0.3866,0 0.7,0.3134 0.7,0.7 z" cx="1764.7" cy="607.72" r="0.7"/>
   <circle id="circle9287" d="m 1770.15,602.961 c 0,1.21503 -0.985,2.2 -2.2,2.2 -1.2151,0 -2.2,-0.98497 -2.2,-2.2 0,-1.21503 0.9849,-2.2 2.2,-2.2 1.215,0 2.2,0.98497 2.2,2.2 z" cx="1768" cy="602.96" r="2.2" fill="#fff"/>
   <circle id="circle9289" d="m 1768.65,602.961 c 0,0.3866 -0.3134,0.7 -0.7,0.7 -0.3866,0 -0.7,-0.3134 -0.7,-0.7 0,-0.3866 0.3134,-0.7 0.7,-0.7 0.3866,0 0.7,0.3134 0.7,0.7 z" cx="1768" cy="602.96" r="0.7"/>
   <circle id="circle9291" d="m 1773.43,598.20203 c 0,1.21502 -0.985,2.2 -2.2,2.2 -1.215,0 -2.2,-0.98498 -2.2,-2.2 0,-1.21503 0.985,-2.2 2.2,-2.2 1.215,0 2.2,0.98497 2.2,2.2 z" cx="1771.2" cy="598.2" r="2.2" fill="#fff"/>
   <circle id="circle9293" d="m 1771.93,598.20203 c 0,0.3866 -0.3134,0.7 -0.7,0.7 -0.3866,0 -0.7,-0.3134 -0.7,-0.7 0,-0.3866 0.3134,-0.7 0.7,-0.7 0.3866,0 0.7,0.3134 0.7,0.7 z" cx="1771.2" cy="598.2" r="0.7"/>
   <circle id="circle9295" d="m 1776.71,593.44299 c 0,1.21503 -0.985,2.2 -2.2,2.2 -1.215,0 -2.2,-0.98497 -2.2,-2.2 0,-1.21502 0.985,-2.2 2.2,-2.2 1.215,0 2.2,0.98498 2.2,2.2 z" cx="1774.5" cy="593.44" r="2.2" fill="#fff"/>
   <circle id="circle9297" d="m 1775.21,593.44299 c 0,0.3866 -0.3134,0.7 -0.7,0.7 -0.3866,0 -0.7,-0.3134 -0.7,-0.7 0,-0.3866 0.3134,-0.7 0.7,-0.7 0.3866,0 0.7,0.3134 0.7,0.7 z" cx="1774.5" cy="593.44" r="0.7"/>
   <circle id="circle9299" d="m 1779.99,588.68402 c 0,1.21503 -0.9849,2.2 -2.2,2.2 -1.215,0 -2.2,-0.98497 -2.2,-2.2 0,-1.21503 0.985,-2.2 2.2,-2.2 1.2151,0 2.2,0.98497 2.2,2.2 z" cx="1777.8" cy="588.68" r="2.2" fill="#fff"/>
   <circle id="circle9301" d="m 1778.49,588.68402 c 0,0.3866 -0.3134,0.7 -0.7,0.7 -0.3866,0 -0.7,-0.3134 -0.7,-0.7 0,-0.3866 0.3134,-0.7 0.7,-0.7 0.3866,0 0.7,0.3134 0.7,0.7 z" cx="1777.8" cy="588.68" r="0.7"/>
   <circle id="circle9303" d="m 1783.2699,583.92499 c 0,1.21502 -0.9849,2.2 -2.2,2.2 -1.215,0 -2.2,-0.98498 -2.2,-2.2 0,-1.21503 0.985,-2.2 2.2,-2.2 1.2151,0 2.2,0.98497 2.2,2.2 z" cx="1781.1" cy="583.92" r="2.2" fill="#fff"/>
   <circle id="circle9305" d="m 1781.7699,583.92499 c 0,0.3866 -0.3134,0.7 -0.7,0.7 -0.3866,0 -0.7,-0.3134 -0.7,-0.7 0,-0.3866 0.3134,-0.7 0.7,-0.7 0.3866,0 0.7,0.3134 0.7,0.7 z" cx="1781.1" cy="583.92" r="0.7"/>
   <circle id="circle9307" d="m 1786.55,579.16602 c 0,1.21502 -0.985,2.2 -2.2,2.2 -1.2151,0 -2.2,-0.98498 -2.2,-2.2 0,-1.21503 0.9849,-2.2 2.2,-2.2 1.215,0 2.2,0.98497 2.2,2.2 z" cx="1784.4" cy="579.17" r="2.2" fill="#fff"/>
   <circle id="circle9309" d="m 1785.05,579.16602 c 0,0.38659 -0.3134,0.7 -0.7,0.7 -0.3866,0 -0.7,-0.31341 -0.7,-0.7 0,-0.3866 0.3134,-0.7 0.7,-0.7 0.3866,0 0.7,0.3134 0.7,0.7 z" cx="1784.4" cy="579.17" r="0.7"/>
   <circle id="circle9311" d="m 1789.83,574.40698 c 0,1.21503 -0.985,2.2 -2.2,2.2 -1.215,0 -2.2,-0.98497 -2.2,-2.2 0,-1.21502 0.985,-2.2 2.2,-2.2 1.215,0 2.2,0.98498 2.2,2.2 z" cx="1787.6" cy="574.41" r="2.2" fill="#fff"/>
   <circle id="circle9313" d="m 1788.33,574.40698 c 0,0.3866 -0.3134,0.7 -0.7,0.7 -0.3866,0 -0.7,-0.3134 -0.7,-0.7 0,-0.3866 0.3134,-0.7 0.7,-0.7 0.3866,0 0.7,0.3134 0.7,0.7 z" cx="1787.6" cy="574.41" r="0.7"/>
   <circle id="circle9315" d="m 1793.11,569.64801 c 0,1.21503 -0.9849,2.2 -2.2,2.2 -1.215,0 -2.2,-0.98497 -2.2,-2.2 0,-1.21503 0.985,-2.2 2.2,-2.2 1.2151,0 2.2,0.98497 2.2,2.2 z" cx="1790.9" cy="569.65" r="2.2" fill="#fff"/>
   <circle id="circle9317" d="m 1791.61,569.64801 c 0,0.3866 -0.3134,0.7 -0.7,0.7 -0.3866,0 -0.7,-0.3134 -0.7,-0.7 0,-0.3866 0.3134,-0.7 0.7,-0.7 0.3866,0 0.7,0.3134 0.7,0.7 z" cx="1790.9" cy="569.65" r="0.7"/>
   <circle id="circle9319" d="m 1796.3899,564.89001 c 0,1.21503 -0.9849,2.2 -2.2,2.2 -1.215,0 -2.2,-0.98497 -2.2,-2.2 0,-1.21502 0.985,-2.2 2.2,-2.2 1.2151,0 2.2,0.98498 2.2,2.2 z" cx="1794.2" cy="564.89" r="2.2" fill="#fff"/>
   <circle id="circle9321" d="m 1794.8899,564.89001 c 0,0.3866 -0.3134,0.7 -0.7,0.7 -0.3866,0 -0.7,-0.3134 -0.7,-0.7 0,-0.38659 0.3134,-0.7 0.7,-0.7 0.3866,0 0.7,0.31341 0.7,0.7 z" cx="1794.2" cy="564.89" r="0.7"/>
  </g>
  <use id="use9323" xlink:href="#jack" height="1216.1899" width="2178.99" y="526.065" x="1684.78"/>
  <use id="use9325" xlink:href="#jack" transform="matrix(-1 0 0 -1 3668.6 1406.7)" height="1216.1899" width="2178.99" y="703.362" x="1834.3"/>
  <use id="use9327" xlink:href="#spade" transform="matrix(-1 0 0 -1 3378.8 1088.6)" height="1216.1899" width="2178.99" y="544.29498" x="1689.4"/>
  <use id="use9329" xlink:href="#spade" height="1216.1899" width="2178.99" y="685.13202" x="1829.67"/>
  <use id="use1591" xlink:href="#jack_3" transform="matrix(.99 0 0 .99 1572.7 562.2)" height="1215.6875" width="2178.4751" y="0" x="0"/>
  <use id="use1592" xlink:href="#jack_3" transform="matrix(-0.99 0 0 -.99 1946.6 666.61)" height="1215.6875" width="2178.4751" y="0" x="0"/>
 </g>
</svg>
