<?xml version="1.0" encoding="UTF-8" standalone="no"?>
<svg xmlns:rdf="http://www.w3.org/1999/02/22-rdf-syntax-ns#" xmlns="http://www.w3.org/2000/svg" height="244.55" width="169.02" version="1.1" xmlns:cc="http://creativecommons.org/ns#" xmlns:xlink="http://www.w3.org/1999/xlink" viewBox="-0.2 -236 169.08 244.5493" xmlns:dc="http://purl.org/dc/elements/1.1/">
 <defs>
  <g id="b">
   <text font-weight="bold" transform="scale(.56453 1.0574)" font-size="43px">9</text>
  </g>
  <g id="c">
   <path d="m0 0c0 3.78 3.09 6.87 6.87 6.87h152.85c3.76 0 6.86-3.09 6.86-6.87v-228.4c0-3.78-3.1-6.87-6.86-6.87h-152.85c-3.78 0-6.87 3.09-6.87 6.87v228.4z" stroke="#000" stroke-width="2.5" fill="#fff"/>
  </g>
  <g id="a">
   <path d="m3.92-7.93c-1.67 0-2.55 1.78-3.01 3.56s-0.5 3.56-0.5 3.56l-0.85 0.01s-0.16-7.13-3.5-7.13h7.86z"/>
   <path d="m6.75-0.8c-0.01 3.47-5.22 5.99-6.75 8.73-1.53-2.75-6.74-5.27-6.75-8.73 0-1.64 1.51-2.97 3.38-2.97 1.86 0 3.37 1.33 3.37 2.97 0-1.64 1.51-2.97 3.38-2.97s3.37 1.33 3.37 2.97z"/>
  </g>
 </defs>
 <g transform="translate(-1339.6 -729.12)">
  <use xlink:href="#c" height="1216.1899" width="2178.99" y="729.41199" x="1340.6"/>
  <use xlink:href="#b" height="1216.1899" width="2178.99" y="530.29498" x="1344.6"/>
  <use xlink:href="#b" transform="matrix(-1,0,0,-1,3008.3,1398.3)" height="1216.1899" width="2178.99" y="699.13202" x="1504.17"/>
  <use xlink:href="#a" transform="matrix(-1,0,0,-1,2708.5,1088.6)" height="1216.1899" width="2178.99" y="544.29498" x="1354.25"/>
  <use xlink:href="#a" height="1216.1899" width="2178.99" y="685.13202" x="1494.52"/>
  <use xlink:href="#a" transform="matrix(-2.4,0,0,-2.4,2768.9,1061.8)" height="1216.1899" width="2178.99" y="221.209" x="576.85797"/>
  <use xlink:href="#a" transform="matrix(-2.4,0,0,-2.4,2768.9,1170.1)" height="1216.1899" width="2178.99" y="243.774" x="576.85797"/>
  <use xlink:href="#a" transform="scale(2.4)" height="1216.1899" width="2178.99" y="266.758" x="576.85797"/>
  <use xlink:href="#a" transform="scale(2.4)" height="1216.1899" width="2178.99" y="289.323" x="576.85797"/>
  <use xlink:href="#a" transform="matrix(-2.4,0,0,-2.4,2928.6,1061.8)" height="1216.1899" width="2178.99" y="221.209" x="610.13202"/>
  <use xlink:href="#a" transform="matrix(-2.4,0,0,-2.4,2928.6,1170.1)" height="1216.1899" width="2178.99" y="243.774" x="610.13202"/>
  <use xlink:href="#a" transform="scale(2.4)" height="1216.1899" width="2178.99" y="266.758" x="610.13202"/>
  <use xlink:href="#a" transform="scale(2.4)" height="1216.1899" width="2178.99" y="289.323" x="610.13202"/>
  <use xlink:href="#a" transform="matrix(-2.4,0,0,-2.4,2848.8,1116)" height="1216.1899" width="2178.99" y="232.492" x="593.495"/>
 </g>
</svg>
