<?xml version="1.0" encoding="UTF-8" standalone="no"?>
<svg xmlns:rdf="http://www.w3.org/1999/02/22-rdf-syntax-ns#" xmlns="http://www.w3.org/2000/svg" height="244.55" viewBox="-0.2 -236 169.075 244.54907" width="169.01" version="1.1" xmlns:cc="http://creativecommons.org/ns#" xmlns:xlink="http://www.w3.org/1999/xlink" xmlns:dc="http://purl.org/dc/elements/1.1/"><!-- This set of SVG files is a complete cards game with figures, numbers	--><!--										--><!--										--><!--	modify it under the terms of the GNU Lesser General Public		--><!--	version 2 of the License, or (at your option) any later version		--><!--	This library is distributed in the hope that it will be useful,		--><!--	MERCHANTABILITY or FITNESS FOR A PARTICULAR PURPOSE.  See the GNU	--><!--										--><!--	License along with this library; if not, write to the Free Software	--><!--                                                                            -->
 <defs>
  <g id="c">
   <text font-size="43px" font-weight="bold" transform="scale(.56453 1.0574)">K</text>
  </g>
  <g id="d">
   <path stroke="#000" stroke-width="2.5" fill="#fff" d="m0 0c0 3.78 3.09 6.87 6.87 6.87h152.84c3.77 0 6.86-3.09 6.86-6.87v-228.4c0-3.78-3.09-6.87-6.86-6.87h-152.84c-3.78 0-6.87 3.09-6.87 6.87v228.4z"/>
  </g>
  <g id="a">
   <path d="m-7.67 3.93c0.01-4.71 5.91-8.14 7.64-11.87 1.75 3.72 7.66 7.12 7.7 11.83 0.01 2.22-1.71 4.03-3.82 4.03-2.12 0-3.85-1.79-3.85-4.01 0 2.23-1.71 4.03-3.82 4.03-2.12 0.01-3.84-1.79-3.85-4.01z" fill="#e6180a"/>
  </g>
  <g id="b" y="0" x="0">
   <polyline points="432.73 605.23 433.17 597.5 426.66 607.44 432.73 605.23" fill="#e61408"/>
   <path d="m447.71 609.33 8.36-6.5 1.22-0.05c3.6 1.71 7.67 3.11 11.03 5.23s5.33 6.16 7.45 9.38l3.09 0.19-4.81-15.45c-3.45-2.19-6.33-4-10.2-5.25l-2.06-7.11 1.28-7.37c-2.88 0.38-4.7 0.37-7.54-0.21 0.13 1.91 0.54 4 0.4 5.91-0.13 1.79-0.91 3.71-1.34 5.46l-2.23 2.94v0.57c-1.19 0.73-1.93 1.88-3.11 2.68-1.6 1.07-3.2 2.15-4.8 3.22l0.01-0.13-0.07 0.05c-1.16 3.99-2.21 7.92-3.1 11.97l1.66-0.75 4.76-4.78" fill="#1c1585"/>
   <path d="m464.93 555.19-0.01 3.96 6.37-0.32 0.4-20.9-6.75 10.39c0 1.73-0.3 3.68 0.29 5.35l-0.3 1.52" fill="#e61408"/>
   <polyline points="470.91 560.32 457.28 560.15 451.28 569.6 471.21 569.52 470.91 560.32" fill="#e61408"/>
   <path d="m464.93 555.19 0.3-1.52c-0.35-1.39-0.7-2.77-1.05-4.16-2.08 3.15-4.16 6.27-6.08 9.52l6.02 0.21 0.81-4.05" fill="#f8c20f"/>
   <polyline points="528.98 565.57 530.44 565.57 530.44 564.2 528.98 564.2 528.98 565.57" fill="#e61408"/>
   <polyline points="525.75 551.92 529.52 551.94 528.83 550.31 526.75 550.02 525.75 551.92" fill="#f8c20f"/>
   <polyline points="512.69 554.99 512.69 554.72 511.75 555.28 512.17 555.84 512.69 554.99" fill="#1c1585"/>
   <path d="m500.18 522.45-1.27 2.35c-0.23 8.43-2.06 16.52-4.07 24.67l-0.16-0.25v2.17l4.44 1.94 2.62 4.78-0.43 0.86h1.14c0.22-0.72 0.51-1.44 0.77-2.15l1.24 0.83-0.27-2.19 2.5-6.89 1.22 1.62c-2.42-10.57-0.31-21.64 1.75-32.02h-1.29l-8.19 4.28" fill="#1c1585"/>
   <path d="m516.59 565.53-4.76-4.3-1.34-2.59 1.68-2.79-0.43-0.57-1.11 0.66-1.99-1.79-0.74-3.95-1.22-1.62-2.5 6.89 0.27 2.19 0.14 0.09c2.93 6.19 4.49 12.5 5.32 19.29 0.83 6.77-0.1 13.42 0.14 20.19l0.75 0.04c1.18-2.86 2.16-5.41 2.81-8.42 0.63-2.96 1.83-5.22 3.21-7.93l4.01-3.62v-9.95l-0.26-0.34-0.88 0.13-3.1-1.61" fill="#e61408"/>
   <path d="m500.65 606.41c4.23-9.61 0.8-19.72-2.89-28.8 1.27-2.68 0.74-6.53 1.85-9.23 1.32-3.22 2.18-6 2.85-9.41h-1.14l0.43-0.86-2.62-4.78-4.44-1.94v-2.17l0.16 0.25c2.01-8.15 3.84-16.24 4.07-24.67l1.27-2.35c2.92-1.52 5.84-3.05 8.76-4.57 2.32-4.75 3.16-10.29 4.56-15.41l0.52-0.7c0.58-2.18 1.22-4.34 1.88-6.5l-0.49-1.04-11.64-6.02c-7.33 10.33-13.77 21.32-20.53 32.03l-3.31 40.78 1.41 47.2h22.5l-3.2-1.81" fill="#e61408"/>
   <path d="m521.7 530.23c-0.03 4.69-0.32 9.03-0.93 13.68l1.77 0.4c0.69-1.47 1.39-2.92 2-4.42 0.52-1.28 2.37-2.45 3.36-3.32-0.69-2.77-1.46-4.96-1.51-7.83l-0.87-2.1-1.44-0.54c-0.76 1.4-1.54 2.77-2.38 4.13" fill="#f8c20f"/>
   <path d="m533.73 552.56-17.86 0.26 1.25-0.74c-0.83-4.6-1.76-8.83-1.57-13.48l0.39-9.33c0.08-1.91 0.98-3.74 1.17-5.65 0.5-5.11 0.97-10.24 1.74-15.33 0.39-2.58 0.91-5.15 1.36-7.71 0.38-2.18 1.74-4.46 2.56-6.51-4.06 2.21-6.51 4.72-9.27 8.41-1.14 4.16-2.38 8.33-3.22 12.56-0.76 3.85-2.11 7.89-2.48 11.77-0.89 9.34-0.88 18.1 0.85 27.34l1.99 1.79c0.77-0.46 1.54-0.92 2.3-1.37-0.82 1.36-1.64 2.72-2.46 4.07l1.34 2.59c2.61 2.35 4.77 4.3 7.88 5.91 0.3-0.04 0.59-0.09 0.89-0.13l0.09-11.21c4.72-0.3 9.4-0.55 14.08-1.18v-1.34l-1.03-0.72" fill="#f8c20f"/>
   <polyline points="528.82 563.88 530.62 563.93 533 559.59 534.67 559.53 534.77 554.62 528.86 557.05 528.82 563.88" fill="#f8c20f"/>
   <path d="m510.21 590.19c0.51-11.24-0.76-22.19-5.61-32.44l-1.38-0.93c-1.22 3.28-1.62 6.67-2.95 9.93-1.33 3.25-1.59 6.73-3.09 9.91 3.69 9.08 7.71 20.14 3.47 29.75l2.61 0.02c3.43-2.4 5.32-4.29 6.84-8.23-0.1-2.7-0.04-5.32 0.11-8.01" fill="#f8c20f"/>
   <path d="m450.57 598.86c1.34-1.77 2.68-3.53 4.02-5.3 0.43-1.75 1.21-3.67 1.34-5.46 0.14-1.91-0.27-4-0.4-5.91 2.84 0.58 4.66 0.59 7.54 0.21l-1.28 7.37 2.06 7.11 9.12 2.94 1.52-4.28-3.52-22.78c-7.28 0.37-14.51-0.41-21.81 0.1-2.88 4.37-2.82 10.99-3.61 16.02-0.73 4.66-0.82 9.38-1.1 14.09l6.12-4.11" fill="#f8c20f"/>
   <path d="m486.11 655.47c-1.34-1.96-3.15-3.48-4.45-5.42-1.48-2.21-2.26-4.09-2.91-6.68-10.99 4.01-23.06 6.71-34.37 2.6-0.97 2.29-1.96 5.95-3.89 7.69-2.43 2.17-3.82 4.69-5.81 7.25 1.15 0.16 2.04 0.43 3.13 0.85 1.7-0.89 2.99-1.18 4.89-1.49l1.06-1.05-0.21-3.25c-0.75-0.35-1.33-0.92-1.84-1.57l1.62-1.06 2.12 0.37 2.04 1.39 0.1 1.94-0.81 2.03 0.17 3.02 0.48 0.22 1.07-0.32 0.67-1.5-0.14-3.78c0.77-0.71 1.48-1.24 2.37-1.8l3.15-0.18 0.86 1.33-2.5 1.12-1.8 1.99 0.93 2.63 2.34 0.1 0.22 2.65 3.7 0.25 2.35-1.16 0.23-1.78 1.4-0.2 0.96-0.66 0.54-2.55c-1.34-0.8-2.55-1.67-4.08-2.05l1.07-1.52 4.23-0.08 3.03 2.48 0.94 5.05 0.78 0.17 0.71-0.74 0.6-1.42c-0.63-1.23-1.26-2.47-1.88-3.71l1.38-3.39 2.96-0.85 2.38 2.02-1.62 0.35-1.81 2.6 1.74 2.71 1.62-0.45 0.48 2.14 3.72 0.88 1.5-2.31 0.5-2.43c0.93 0.31 1.87 0.63 2.8 0.95 1.47-0.04 2.86 0.02 4.32 0.14l0.54-0.89c-1.41-0.82-2.44-1.5-3.58-2.63" fill="#f8c20f"/>
   <path d="m461.16 662.05c0.98-0.03 1.53-0.03 2.11-0.86 0.56-0.8 0.59-1.69 0.73-2.64s-3.22-2.6-3.9-2.23c1.06-1.82 4.17-1.47 5.7-0.59 0.85 0.49 1.86 1.45 1.85 2.51 0 0.66-0.68 2.43-0.03 3.01 0.37 0.33 1.94 2.24 2.56 1.19 0.55-0.95 1.39-1.84 0.86-2.97-0.32-0.68-1.67-2.25-1.4-3.02 0.19-0.57 0.33-1.44 0.7-1.91 0.33-0.41 0.82-0.66 1.21-1 0.23-0.21 1.51-0.39 1.82-0.33 0.71 0.14 1.33 0.29 1.71 0.97-1.02-0.08-1.97 0.68-2.48 1.53-0.22 0.37-0.62 1.08-0.66 1.51-0.08 0.89 0.9 1.93 1.42 2.57 0.62 0.76 1.6 0.76 2.22 1.52 0.7 0.86 1.44 0.9 2.39 1.32 0.77 0.34 1.92 1.02 2.57 0.11 0.49-0.68 1-1.35 1.32-2.13 0.23-0.57 0.16-1.9 0.82-2.18 0.52-0.22 1.26 0.42 1.71 0.61 0.7 0.31 1.39 0.02 2.12 0.15 0.99 0.18 2.96 0.76 3.37-0.7 0.24-0.85-0.97-1.1-1.52-1.33-0.96-0.41-1.78-1.48-2.39-2.3-0.32-0.43-0.53-0.87-0.75-1.35-0.27-0.6-0.84-0.99-1.27-1.47-0.48-0.54-0.9-1.12-1.37-1.67-0.44-0.51-1-0.77-1.37-1.36-1.53-2.39-2.11-5.34-1.03-7.96 0.48-1.16 0.72-2.25 0.86-3.49 0.14-1.26 0.29-2.66 1.21-3.62 1.48-1.57 3.82-1.85 5.73-2.61 2.44-0.98 2.95-3.04 4.03-5.16 0.61-1.19 2.71-1.24 3.63-2.26 1.11-1.22 2.28-3.01 2.57-4.65 0.17-0.95-1.15-2.27-0.82-3.17 0.49-1.35 2.53-2.23 3.63-2.99 1.6-1.11 2.96-2.47 4.07-4.07 2.26-3.27 4.06-7.11 5.69-10.73 1.66-3.7 2.58-7.46 3.71-11.32 0.51-1.76 1.27-3.43 2.34-4.93 0.87-1.22 2.22-3.13 3.73-3.59 0.05 1.73 0.28 3.43 0.3 5.17 0.02 1.76 0.04 3.53 0.06 5.29 0.03 3.42 0.4 6.85 0.34 10.27-0.03 1.66-0.13 3.33 0.02 4.99 0.13 1.47 0.07 3.26 0.48 4.67 0.17 0.57 2.8 4.89 3.71 4.34 1.35-0.78 2.97-2.83 3.58-4.27 0.8-1.88 0.26-4.78 0.24-6.78-0.05-5.16-0.11-10.32-0.16-15.48-0.06-5.17-0.35-10.37-0.21-15.54 0.03-1.16 0.07-2.3 0.51-3.39 0.42-1.04 1.11-1.97 1.63-2.96 0.7-1.33 1.08-4.43 2.79-4.92 0.19-0.05 0.6 0.11 0.75-0.06 0.09-0.1 0.08-0.75-0.11-0.76-0.99-0.08-2.17-0.72-2.49-1.71-0.17-0.53 0.04-0.96 0.43-1.3 0.3-0.26 0.6-0.49 1-0.54 0.34-0.04 1.09 0.19 1.2-0.19 0.06-0.22 0.11-0.43 0.15-0.66 0.17-0.88-3.85-0.28-4.11-0.22-1.92 0.44-3.84 0.96-5.82 0.98-2.18 0.02-4.33-0.25-6.49-0.54-0.77-0.1-2.03-0.38-2.77-0.01-0.32 0.16-1.27 0.35-1.38 0.74-0.09 0.35-0.76 2.42 0.23 2.41 0.81-0.01 0.87 0.02 1.36-0.62 0.25-0.32 0.3-0.75 0.26-1.15 0.89 1.02 0.62 1.79-0.45 2.47-0.59 0.38-0.64 0.54-1.27 0.28-0.61-0.26-1.11-0.35-1.46-0.91-1.36-2.13 0.63-4.3 2.93-4.34 1.44-0.03 2.86-0.33 4.29-0.36 1.65-0.03 3.3 0.04 4.95-0.08 1.55-0.12 3.07-0.18 4.63-0.2 1.71-0.02 3.4 0.17 5.1 0.19 0-0.25 0.03-1.5-0.37-1.5-2.05 0.03-3.52-0.47-5.27-1.51-0.45-0.27-0.8-1.29-0.1-1.53 0.79-0.27 1.15-0.41 1.96-0.27 1.4 0.25 2.29 0.89 3.49 1.56 0.07-0.44-0.18-0.85-0.13-1.29 0.06-0.57 0.17-1.14 0.1-1.71-0.18-1.28-0.49-2.18-0.36-3.49 0.11-1.17-0.55-2.14-0.57-3.29-0.02-0.97 0.01-1.88-0.91-2.46-0.93-0.58-2.15-0.73-3.21-0.74-1.02-0.01-1.27-1.05-1.46-1.86-0.29-1.27-0.79-2.5-1.32-3.69-0.47-1.07 0.38-2.48-0.13-3.67-0.42-0.98-0.95-1.9-2.01-2.21-0.47-0.14-1.19-0.42-1.37 0.08-0.19 0.53-0.37 1.12-0.87 1.45-0.01-0.88 0.15-1.94-0.28-2.75-0.67 0.78-0.5 2.1-0.47 3.05 0.05 1.41-0.16 2.81-0.2 4.21-0.68-0.19-1.33-0.52-2.01-0.73 0.18-0.31 0.19-0.66 0.24-1 0.25 0.33 0.58 0.66 1.01 0.74 0.02-0.57 0.06-1.13 0.11-1.7 0.05-0.5-0.24-0.96-0.2-1.46s-0.08-0.54-0.48-0.74c-0.54-0.27-0.72-0.83-0.99-1.33-0.42 0.38-0.51 0.98-0.89 1.4-0.35 0.38-1.02 0.55-1.09 1.13-0.15-0.27-0.21-0.59-0.24-0.89-0.04-0.6 0.09-0.15 0.36-0.42 0.77-0.69 0.58-1.66 0.66-2.6 0.09-1.12-0.14-1.78-0.34-2.84-0.69 0.51-0.7 1.67-0.81 2.43-0.18 1.22-0.44 2.42-0.6 3.64-0.33 2.71-0.86 5.43-0.95 8.17-0.1 2.71-0.02 5.51 0.3 8.2 0.16 1.33 0.27 2.7 0.55 4.02 0.19 0.91 1.15 2.85 0.76 3.74-0.09 0.22-0.12 0.59-0.38 0.53-0.26-0.07-0.78-0.09-0.99-0.26-1.41-1.07-1.19-4.26-1.39-5.78-0.16-1.24-0.35-2.46-0.44-3.71-0.11-1.25 0.17-2.51 0.14-3.76-0.13-5.25 0.65-10.62 1.4-15.81 0.77-5.32 1.57-10.69 2.69-15.95 0.52-2.45 1.06-4.86 1.73-7.27 0.48-1.7 1.02-3.87 2.73-4.75-0.24 0.89-0.72 1.69-1.08 2.53-0.41 0.94-0.62 1.95-0.89 2.94-0.57 2.07-0.89 4.13-1.24 6.24-0.38 2.31-0.66 4.62-0.93 6.94-0.27 2.27-0.71 4.61-0.57 6.91 0.39-0.5 0.26-1.31 0.34-1.9 0.12-0.91 0.28-1.82 0.44-2.72 0.07-0.38 0.75-3.64 0.96-3.66 0.16-0.02 0.36-0.01 0.51-0.08 0.58-0.27 0.97-0.77 0.5-1.39-0.54-0.72-0.79-0.96-0.45-1.83 0.23-0.58 0.67-1.08 0.81-1.7-0.3 0-0.61 0.05-0.91 0.01-0.22-0.03-0.08-1.43-0.06-1.63 0.13-1.45 0.55-2.88 0.95-4.28 0.39-1.38 0.78-2.84 1.35-4.16 0.29-0.67 1.29-2.56 2.08-2.36 1.07 0.25 1.92 1.17 2.98 1.35-1.17-2.18-4.27-2.87-6.29-1.45-2.06 1.45-3.51 3.81-5.67 5.07 0.28-1.01 0.6-2 0.88-3.01 0.34-1.22 0.34-1.84-0.69-2.65-1.45-1.13-3.37-2.04-5.03-2.84-2-0.96-3.95-2.01-5.94-2.97-0.99-0.48-3.21 3.89-3.54 4.61 0.88-0.54 2.21-3.99 3.34-3.68 1.83 0.51 3.48 2.09 5.39 2.33-0.54 2.05-1.54 3.93-2.03 6.02-0.48 2.05-1 4.2-0.69 6.31 0.34 2.29 0.52 4.54 1.04 6.8 0.43 1.86 1.6 4.18 1.14 6.12-0.47 1.93-2.56-1.05-2.95-1.62-0.51-0.74-0.93-1.52-1.38-2.29-0.82-1.4-1.96-3.13-2.2-4.76 0.91-0.03 1.13-0.47 1.42-1.23 0.28-0.72-0.43-1.4-0.92-1.85-0.82-0.73-2.49-1.69-3.56-1.89 0.01 1.62-0.32 3.23-0.06 4.84 0.21 1.25 1.89 0.97 2.62 1.66 1.01 0.94 1.52 2.69 2.18 3.89 0.81 1.47 2.79 5.21 0.65 6.41-0.33 0.18-0.97 0.57-1.31 0.32-0.99-0.74-1.42-1.73-2.04-2.77-0.76-1.27-1.55-2.46-2.63-3.49-1.84-1.76-3.91-3.12-6.55-2.54-0.99 0.21-1.75 1.35-1.97 2.27-0.7 2.92 0.65 5.83 2.23 8.22 0.8 1.21 1.71 2.36 2.63 3.49 1.06 1.3 2.52 2.4 3.12 4.01 0.23 0.6-0.1 0.98-0.7 1.25-1.67 0.74-4.66-1.21-5.8-2.29-0.58-0.55 0.16-2.26-0.99-2.54-1-0.22-1.54-0.37-2.58-0.2-0.41 0.07-2.1 0.01-1.7 0.8 0.53 1.07 1.02 2.06 1.69 3.05 0.16 0.24 1.21 0.61 1.49 0.57 0.48-0.06 0.86-0.71 0.99-1.12 1.45 0.91 3.02 1.65 4.44 2.59 0.92 0.61 2.95 2.26 2.49 3.55-0.38 1.04-1.71 1.33-2.72 1.46-1.37 0.16-2.84-0.23-4.18-0.49-0.56-0.11-1.14-0.3-1.47-0.79-0.38-0.55-0.42-1.14-1.07-1.48-1.26-0.69-3.45 1.06-4.22 1.94-0.44 0.51 3.07 4.56 4.56 2.12 0.91-1.46 2.72-0.68 4.05-0.46 1.17 0.19 3.98 0.45 4.32 2 0.3 1.35-1.76 2.4-2.72 2.86-1.51 0.72-3.64 2.23-5.34 2.23-0.1-1.07-0.31-2.24-1.75-1.75-0.97 0.33-1.66 1.58-2.21 2.34-0.6 0.83-1.41 1.97 0.13 2.21 1.17 0.18 2.15 0.45 3.35 0.45 1.29-0.01 1.24-1.21 1.05-2.21-0.12-0.59 3.77-1.63 4.3-1.72 0.62-0.1 1.12 0.29 1.68 0.55 1.27 0.6-0.38 1.96-0.97 2.38-1.68 1.21-3.33 2.47-4.83 3.9-1.47 1.4-2.82 2.99-3.89 4.71-1 1.62-2.2 3.74-2.17 5.69-0.81-1.19-0.51-2.95-0.58-4.31-0.09-1.71-0.11-3.42-0.21-5.12-0.1-1.75 0.19-3.45 0.17-5.2-0.01-1.7-0.11-3.35 0.03-5.05 0.28-3.52 0.07-7.08 0.34-10.6 0.13-1.69 0.16-3.35 0.14-5.04-0.02-1.91 0.21-3.81 0.19-5.71-0.87 0.51-1.32 1.56-1.81 2.39-0.72 1.23-1.52 2.41-2.27 3.63-1.73 2.79-3.59 5.51-5.35 8.28-1.77 2.79-3.53 5.6-5.34 8.38-0.84 1.28-1.69 2.56-2.52 3.85-0.72 1.11-1.72 2.3-2.12 3.58-0.06 0.19 0.31 0.67 0.38 0.84 0.27 0.65 0.11 1.59 0.07 2.28-0.1 1.74-0.11 3.48-0.35 5.21-0.1 0.7-0.27 0.54-0.98 0.57-1.52 0.06-3.05 0-4.57 0.01 0.26-0.48 0.5-0.97 0.99-1.26-0.02 1.42 1.79 0.54 1.48-0.58-0.12-0.4-0.28-0.8-0.67-1-0.8-0.42-5.09 7.19-5.69 8.15-1.03 1.63-2.08 3.26-3.14 4.88-0.84 1.29-2.33 2.87-2.56 4.43 1.41-0.41 1.83 1.79 2.3 2.67 0.81 1.51 1.78 2.72 3.36 3.43 3.23 1.45 7.34 1.55 10.34-0.57 0.99-0.69 1.76-1.58 2.4-2.6 0.55-0.85 0.41-2.2 1.29-2.84 0.46-0.34 0.98-0.27 1.48-0.11 0.61 0.19 0.64 1.01 0.78 1.53 0.42 1.58-1.64 2.33-2.58 3.14-1.36 1.18-2.3 2.75-3.03 4.38-1.04 2.3-1.06 5-0.88 7.48 0.21 2.86 1.25 5.07 2.55 7.57-1.84-0.47-3.51-3.01-4-4.73-0.55-1.93-0.83-3.99-0.54-5.99 0.09-0.59 1.45-4.75 0.81-4.75-1.39 0.02-2.72 0.35-4.13 0.29-1.5-0.05-2.82-0.71-4.3-0.71 0.17 2.19 0.98 4.23 0.77 6.45-0.2 2.13-0.74 4.3-1.84 6.15-0.94 1.56-2.29 2.78-3.64 3.98-1.35 1.19-3.22 3.23-5.08 3.53 0.5-0.85 1.49-1.21 2.18-1.87 0.82-0.77 1.64-1.53 2.41-2.36 1.6-1.74 2.78-3.85 3.47-6.11 1.21-3.94 0.93-8.88-1.91-12.13-0.81-0.92-2.67-2.3-2.8-3.58-0.05-0.53 0.03-0.98 0.12-1.5-1.18 0.7-1.83 2.43-2.55 3.54-1.18 1.8-2.33 3.62-3.48 5.43-2.35 3.7-4.77 7.36-7.16 11.03-0.99 1.52-2.17 3.03-2.81 4.75-0.66 1.79-1.34 3.49-2.42 5.08-0.98 1.43-2.59 2.23-3.53 3.67-0.95 1.48-2.14 3.05-2.78 4.69-0.17 0.47-0.06 0.25 0.28 0.5 0.94 0.69 2.06 1.24 3.14 1.7 0.78 0.33 1.97 0.66 2.44 1.43 0.54 0.87 0.1 2.29-0.12 3.28-0.11 0.48-0.63 0.74-0.88 1.13-0.32 0.51-0.46 1.1-0.54 1.69-0.29 2.35 2.23 3.7 3.96 4.6 0.87 0.45 1.84 1 2.86 0.8 1.18-0.22 2.4-0.58 3.59-0.23 1.95 0.57 0.92 4.39 1.12 5.81 0.35 2.51 2.07 3.61 3.67 5.41 0.32 0.38 0.02 1.73-0.02 2.2-0.1 1.38 0.19 2.63 0.49 3.96 0.45 1.96-1.1 4.42-1.92 6.15-0.47 0.99-0.98 2-1.71 2.83-0.73 0.82-1.71 1.37-2.46 2.17-0.84 0.9-1.4 2.08-2.12 3.07-0.27 0.38-1.94 1.36-1.81 1.76 0.25 0.69 1.18 0.66 1.77 0.65 0.87-0.01 1.48 0.27 2.28 0.56 0.54 0.2 1.16-0.53 1.59-0.75 0.72-0.37 1.47 0.15 2.2-0.09 0.86-0.28 1.99-0.77 2.37-1.66 0.33-0.77-0.07-2.21-0.19-3.03-0.12-0.85-0.91-1.53-1.69-1.8 0.44-0.39 1.27-1.05 1.89-0.82 0.89 0.32 2.06 0.49 2.67 1.23 0.56 0.67 1.03 1.54 0.53 2.38-0.48 0.81-1.12 1.66-1.14 2.63-0.02 0.86 0.05 1.93 0.97 2.34 0.93 0.41 1.71 0.18 2.14-0.83 0.74-1.69-0.45-3.57 0.45-5.25-0.38 0.06-0.68 0.31-0.99 0.51-0.32-0.94-0.74-1.9-1.28-2.74 1.61-0.34 3.12 0.16 4.75 0.2-0.62 0.77-1.72 0.88-2.23 1.77 1.86-0.65 3.11-0.82 5-0.3-0.97 0.51-4.09 1.75-4.11 3.1 0 0.82 0.33 2.03 0.84 2.71 0.29 0.4 0.59 0.74 1.09 0.86 0.39 0.09 0.98-0.12 1.02 0.46 0.05 0.88 0.48 1.97 1.4 2.2 0.96 0.23 1.83 0.51 2.82 0.55 0.75 0.03 1.79-0.85 2.44-1.18 0.69-0.33 0.81-1.52 0.78-2.25m-4.74 1.8c-0.76 0.18-1.58 0.24-1.79-0.67-0.13-0.57 0.46-1.59 0.76-2.07-1.11-0.09-2.12 0.54-3.25 0.54-0.01-0.78-0.97-2.13-0.58-2.78 0.26-0.45 0.93-0.47 1.31-0.77 0.41-0.32 0.71-0.9 1.25-1.03 0.83-0.2 1.55 0.66 2.07 1.16 0.38 0.36 1.43 0.77 1.43 1.37 0.01 0.57-0.42 0.78-0.99 0.76 0.02 0.97 0.77 1.75 0.78 2.74 0.63-0.84 0.81-1.97 1.37-2.87 0.52-0.83-0.01-1.93 0.78-2.6 0.43-0.36 1.15-0.48 1.67-0.24 0.44 0.2 0.3 0.73 0.63 0.92 0.16 0.08 0.6-0.21 0.83-0.11 0.85 0.35 0.86 0.79 0.5 1.6-0.25 0.56-0.34 1.47-1.02 1.55-0.77 0.09-1.29-0.38-2.04-0.52 0.1 0.64 0.63 1.58 0.39 2.19-0.4 0.99-1.03 0.8-1.86 0.33-0.2 0.66-0.25 1.07-0.96 1.17-0.63 0.07-1.12 0.12-1.28-0.67m19.95-4.96c-0.78 0.14-1.46 0.64-2.24 0.77 0.19-1.04-1.52-1.99-0.97-2.77 0.8-1.13 1.55-1.49 2.92-1.5-0.19 0.71-0.67 1.34-0.98 2.01 1.24 0.19 1.9 0.8 2.27 1.97 0.3-0.3 0.37-0.59 0.75-0.33 0.26 0.17 0.44 0.52 0.51 0.82 0.25-0.6 0.42-1.22 0.67-1.82 0.14-0.34 0.81-0.87 0.74-1.24-0.08-0.4 0-0.81 0.04-1.21-0.51 0.01-1 0.21-1.01-0.49s-0.5-0.5-1.01-0.49c0.2-0.68 0.96-1.09 1.64-0.79 0.35 0.15 0.56 0.53 0.84 0.76 0.33 0.27 0.79 0.35 1.19 0.47 0.28 0.09-0.07 1.76 0.07 2.06 0.23 0.49-0.42 0.65-0.54 1.09-0.16 0.6 0.38 1.26-0.02 1.83-0.55 0.76-1.07 2.83-2.3 2.2-0.51-0.26-1.79-0.57-2.09-1-0.48-0.75-0.46-1.43-0.48-2.34m-6.96 3.33c-0.29-0.54-0.41-1.39-0.38-2 0.02-0.3 0.23-0.6 0.33-0.88 0.1-0.3-0.56-0.44-0.74-0.61 2.02-1.07 3.09 3.15 0.79 3.49m-22-0.02c-0.41-0.21-0.2-0.95-0.13-1.29 0.16-0.74 0.19-1.52-0.15-2.21 1-0.52 1.87 0.1 1.96 1.23 0.07 0.96-0.76 2.11-1.68 2.27m-10.01-0.65c-0.23-0.69-0.82-1.27-1.52-1.48 0.33 0.55-0.36 0.69-0.74 0.76 0.7-1.24 1.74-2.28 2.46-3.53 0.28 0.39 0.26 0.77 0.26 1.25 0.41-0.3 0.62-0.77 1.01-1.11 0.54-0.47 1.01-0.06 1.48 0.34 0.12-0.54 0.23-1.08 0.35-1.62 0.1-0.46 1.08-0.38 1.37-0.4 0.46-0.03 1.19-0.12 1.35 0.54 0.09 0.36-0.36 1.15-0.56 1.46 0.8 0.17 0.78 0.69 0.79 1.39 0 0.35-1.3 0.82-1.65 0.92-0.64 0.19-1.3 0.56-1.76-0.16-0.34-0.54-0.61-1.21-0.63-1.87-0.57 1.14-0.37 3.45-2.21 3.51m18.73-2.2c-0.42 0.01-0.83 0.01-1.25 0.01 0.22 0.58 1.14 0.72 1.25-0.01m26.47-2.77c-0.07-1.1-0.73-1.84-0.98-2.84-0.1-0.47-0.03-0.34 0.34-0.51 0.33-0.16 0.73-0.33 1.1-0.4 0 0.33 0.01 0.67 0.01 1 0.45-0.08 1.05-0.35 1.5-0.27-0.1 0.54-0.52 0.65-0.99 0.76 0.14 0.74 0.86 1.87 1.52 2.23 0-0.42-0.01-0.83-0.01-1.25 0.75 0.13 1.32 0.66 1.82 1.2 0.68 0.73 1.58 1.24 2.21 2.01-0.94 0.5-1.57-0.04-2.46-0.26-0.69-0.17-1.32 0.38-1.96 0.18-0.98-0.3-0.89-1.85-2.1-1.85m-5.5 0.31c0.24-0.44 0.48-0.85 0.99-1.01 0.12 0.36 0.29 0.78 0.14 1.16-0.21 0.57-0.68 0.06-1.13-0.15m-19.99 0.45c-0.35-1.08-1.24-1.77-1.78-2.73 1.83-0.28 3.44-0.04 5.25-0.06-0.57 0.69-1.38 1.14-1.99 1.8-0.53 0.59-0.66 0.99-1.48 0.99m11.5-0.37c-1.04-1.21-2.13-1.97-3.53-2.71 0.52-0.53 1.36-0.53 2.04-0.66 1.07-0.19 2.08-0.71 3.2-0.64-0.09 0.8-0.54 1.5-0.85 2.22-0.27 0.58-0.31 1.37-0.86 1.79m-30.02-0.68c0.05-0.5 0.56-0.68 0.99-0.76-0.09 0.54-0.51 0.65-0.99 0.76m38.73-2.66c0.01-0.66 0.32-1.73 1-2.01 0.69-0.29 1.72-0.13 2.39 0.1 0.4 0.14 0.42 0.44 0.12 0.78-0.38 0.44-1.07 0.28-1.57 0.39-0.68 0.15-1.26 0.58-1.94 0.74m-18.25 0.19c-0.02-1.24 0.94-1.73 1.45-2.71 0.36-0.69-1.79-1.9-0.67-2.47 1.31-0.67 3.04-0.31 4.46-0.58 1.61-0.3 3.21-0.66 4.82-0.98 1.67-0.34 3.24-0.87 4.84-1.44 1.51-0.54 3.12-1.53 4.75-1.53-0.41 0.51-0.93 0.88-1.34 1.41-0.61 0.77-0.58 1.02-0.14 1.9 0.19 0.37 1.28 0.87 1.7 0.83 0.41-0.04 0.82-0.07 1.22-0.14 0.28-0.05 0.32 0.7 0.35 0.9 0.14 0.82-7.33 2.41-7.71 2.41 0.25-1.36 1.91-2.02 2.34-3.33 0.46-1.41-2.85-1.15-3.58-0.87-0.81 0.31-3.2 1.34-3.15 2.49 0.04 0.98 2.91 1.37 3.64 1.72-1.18 1.2-3.97 1.26-5.51 1.55-2.46 0.44-4.96 0.81-7.47 0.84m17.25-0.43c-0.69-0.44-1.28-0.87-2.01-1.23 0.49-0.72 1.97-0.77 2.74-0.78-0.19 0.62-0.31 1.51-0.73 2.01m-35.25 0.37c0.18-0.91 1.59-1.7 2.24-0.77-0.66 0.34-1.49 0.75-2.24 0.77m15-0.4c0.51-1.06 0.78 0.15 0 0m-1.51-0.24c-0.03-0.14 0.01-0.93 0.31-0.7 0.25 0.19 0.3 0.4 0.44 0.69-0.25 0.01-0.5 0.01-0.75 0.01m-1.5 0.02c0.03-0.58 0.01-1.37 0.73-1.51 0 0.41 0.01 0.82 0.01 1.23 0.02 0.45-0.33 0.27-0.74 0.28m-1.25 0.01c-0.39-0.72-0.47-4.51 0.63-4.51 0.46 0-0.03 4.09-0.63 4.51m-1.75-0.23c-0.02-0.53 0.15-1.14 0.74-1.26 0.06 0.57-0.03 1.38-0.74 1.26m14.99-0.66c0.35-0.27 0.65-0.44 0.84-0.84 0.3-0.63 0.33-0.65 0.06-1.28-0.23-0.54-0.31-0.77-0.78-1.11-0.36-0.26-1.08-0.01-1.5 0.04-0.66 0.07-1.29 1.4-0.89 1.89 0.51 0.63 1.24 1.88 2.27 1.3m-16.49 0.42c0.02-0.69 0.12-1.5 0.98-1.51 0.07 0.32-0.08 0.7-0.15 1.01-0.12 0.62-0.21 0.5-0.83 0.5m-1.5-0.23c0-1.3 0.16-2.71 0.35-4 0.05-0.34 0.04-1.06 0.59-0.76 0.75 0.4-0.15 3.39-0.18 4.03-0.02 0.79 0.01 0.72-0.76 0.73m9.99-0.36c0.61-0.58 2.17-1.46 2.99-1.03-0.6 0.71-2.08 1.02-2.99 1.03m-11 0.12c-0.61-0.43-0.46-1.49 0.23-1.75 0.01 0.52 0.15 1.31-0.23 1.75m18.23-2.19c-0.2 0.59 0.24 1.25 0.52 1.75-0.43 0.02-0.96-0.11-1.04-0.57-0.09-0.54-0.14-1.05 0.52-1.18m-8.73 1.84c-0.38-0.22-0.67-0.55-0.76-0.99 0.5-0.01 0.99 0.49 0.76 0.99m-11.25 0.12c-0.01-0.62-0.31-1.36 0.49-1.26-0.03 0.48-0.07 0.96-0.49 1.26m20.75-0.47c0.17-0.55 0.06-1.23-0.52-1.49 0.99-0.8 1.73 1.78 0.52 1.49m4.23-1.79c0.24-0.43 0.56-0.77 0.99-1.01 0.12 0.86 1.24 1.4 2.02 1.48-0.7 0.64-2.36-0.01-3.01-0.47m-15.75 0.16c-0.01-0.61-0.31-1.35 0.49-1.26-0.03 0.49-0.07 0.96-0.49 1.26m-10 0.11c0.14-0.55 0.62-0.94 0.73-1.51 0.57 0.18 1.13 0.63 1.26 1.24-0.67 0.17-1.29 0.22-1.99 0.27m29.99-1.07c-0.12-0.52-0.57-0.77-1.01-0.99 0.39-0.17 1.02-0.06 1.41 0.1 0.7 0.28 0.29 1.01-0.4 0.89m-23 0.24c0-0.23 0-0.46-0.01-0.69 0-0.08 0.44-0.12 0.5-0.06 0.41 0.36-0.11 0.82-0.49 0.75m-1.5-0.23c0-0.23 0-0.46-0.01-0.69 0-0.08 0.44-0.12 0.5-0.06 0.44 0.38-0.14 0.78-0.49 0.75m-3.01-0.72c0-0.25-0.02-1.67 0.74-1.01 0.17 0.14 0.01 0.77 0.01 0.96 0 0.1-0.67 0.05-0.75 0.05m32.5-0.59c-0.66-0.2-0.82-0.93-0.52-1.49 0.32 0.33 0.63 1.04 0.52 1.49m-30.79-3.68c-0.33-0.16-0.75-0.15-1.05-0.31-0.63-0.34-0.67-0.61-0.95-1.27-0.29-0.69-0.36-1.92 0.15-2.53 0.23-0.27 0.7-0.53 0.94-0.2 0.24 0.34 0.6 0.54 0.96 0.72 1.02 0.51 1.8 0.56 2.92 0.31-0.24 0.71-1.32 0.51-1.89 0.46-0.97-0.07-1.61-0.28-2.36-0.92 0.47 0.79 1.64 1.7 2.58 1.56 1.17-0.18 2.63-0.15 2.92-1.62-0.29-0.04-0.5 0.13-0.75 0.26 0.07-0.44 0.25-0.77 0.49-1.14 0.12-0.18 0.92-0.89 1.02-0.52 0.38 1.32-0.12 2.86-0.51 4.12-0.17 0.55-0.38 0.56-0.92 0.76-0.82 0.3-1.91 0.09-2.79 0.31 0.69 0.35 2.12 0.54 2.83 0.23 1.28-0.56 1.56-2 1.88-3.21 0.43-1.6-0.15-2.95-0.4-4.54-0.25-1.61-0.14-3.23-0.44-4.84-0.16-0.83-0.32-2.3 0.87-2.39 0.76-0.05 1.54-0.06 2.26 0.25 0.81 0.34 1.33 1.04 2.27 0.92 0.73-0.1 0.03 0.95-0.19 1.12-0.33 0.27-0.78 0.38-1.19 0.38 0.82 0.49 1.49-0.18 2.07-0.7 0.6-0.54 1.35-0.97 2.16-1.09-0.6-0.22-1.28 0.14-1.85-0.18-0.79-0.45-1.54-0.7-2.44-0.85-1.25-0.21-2.56-0.72-2.74-2.15 0.53 0.12 2.21-0.13 2.01 0.73 0.31-0.2 0.62-0.45 0.99-0.51-0.02 0.16 0.04 0.34 0.01 0.5 0.77-0.38 1.43-0.52 2 0.23 0.19-0.69 0.72-1.61 1.48-1.77 0.06 0.34 0.16 0.67 0.26 1 0.98-1.28 2.05-2.02 3.67-2.04 1.59-0.02 2.81 0.8 2.83 2.47-0.58-0.1-1.5-1.42-2.05-1.28-0.44 0.1-0.88 0.19-1.32 0.29-0.81 0.18-1.85 1.78-2.12 2.55 0.76-0.95 1.4-1.95 2.68-1.99 0.66-0.02 1.32-0.23 1.8 0.35 0.41 0.5 0.51 0.96 0.52 1.59 2.59-0.57 0.61-4.22-1.09-4.66-1.03-0.27-2.04-0.21-3.09-0.1-0.86 0.09-2.44 0.71-3.23 0.33-0.97-0.47-1.39-1.31-2.54-1.48-1.21-0.18-2.44-0.09-3.47 0.61-0.96 0.65-0.96 2.01-2.29 2.1-1.07 0.07-1.86-1.46-2.5-2.1-0.94-0.97-2.51 0.1-3.39-0.66-0.58-0.49-1.01-0.71-1.13-1.48-0.08-0.59-0.14-1.23-0.13-1.83 0.74 0.18 1.18 0.9 1.81 1.27 0.89 0.52 2.2 0.65 3.21 0.68-1.05-0.92-3.81-0.84-4.03-2.46 0.25 0 0.5-0.01 0.75-0.01-0.17-0.68-0.23-1.3-0.27-2 0.69 0.21 0.93 1.04 1.41 1.5 0.61 0.58 1.21 1.37 2.12 1.46-0.8-0.63-1.93-1.2-2.27-2.22 0.81-0.07 1.49 0.38 2.26 0.48-0.83-0.73-1.91-1.2-2.39-2.23-0.42-0.89-0.04-2.53 1.09-2.75-0.12 0.76-0.58 1.22-0.16 1.95 0.46 0.81 0.65 1.53 1.7 1.53-0.17-0.31-0.49-0.52-0.76-0.74 0.29-0.24 0.69-0.18 1-0.01-0.36-0.58-1.17-1.03-1.27-1.74 0.25 0 0.5-0.01 0.75-0.01-0.12-0.41-0.24-0.82-0.26-1.25 1.59 0.38 1.8 2.71 2.04 3.98 0.31-0.7 0.1-1.74 0.73-2.26 0.33 0.46 0.43 0.95 0.52 1.5 0.22-0.44 0.08-1.98 0.48-2.26 0.22-0.16 0.63 0.04 0.75 0.24 0.03-0.92 0.05-2.76 1.22-3.01 0.02 0.99 0.51 2.05 0.78 2.99 0.51-0.99-0.3-2.2 0.22-3.25 1.04 0.6 1.53 2.4 1.54 3.48 0.59-1.1-0.36-2.49-0.43-3.62-0.06-0.91-0.14-2.65 0.86-3.13 0.01 1.1 0.18 1.97 0.53 2.99 0.32-0.66 0.02-1.53 0.23-2.25 0.45 0.33 0.61 0.99 0.77 1.49 0.35-0.7 0.41-1.4 0.84-2.09 0.45-0.73 1-1.11 1.88-0.68-0.38 0.37-0.92 0.97-0.99 1.51 0.59-0.1 1.17 0.29 1.51 0.73 0.1-0.37 0.32-0.87 0.24-1.25 0.99 0.62 0.3 2.17 0.03 3 0.21-0.16 0.57-0.38 0.85-0.42 0.48-0.06 0.52 0.03 0.54 0.53 0.02 0.77-0.63 1.43-0.86 2.13 0.69-0.5 0.89-1.04 1.26-1.77 0.17-0.33 0.17-0.32 0.2-0.65 0.01-0.16 0.51-0.18 0.51 0.02 0.01 0.55 0.01 1.09 0.02 1.64 0.84-1.08 0.42-2.02 0.21-3.25 0.98 0.21 1.36 1.38 1.27 2.28-0.11 1.02-0.46 1.76-0.72 2.71 1.51 0.46 2.24-1.32 2.22-2.52-0.31 0.46-0.48 1.01-0.73 1.51-0.4-0.5-0.13-1.62 0.09-2.16 0.46-1.15 1.47 1.19 1.6 1.6 0.54 1.78-1.41 3.53-1.39 5.3 0.37-0.58 0.68-1.25 1.28-1.64 0.71-0.46 1.52-0.86 1.94-1.64-0.47 0.23-0.96 0.49-1.49 0.52 0.01-0.36 0.22-3.14 1.07-3.01 0.44 0.06 1.21 0 1.48 0.44 0.32 0.51 0.77 1 0.86 1.6 0.18 1.13 0.05 2.19-0.63 3.14-0.66 0.9-1.67 1.61-2.21 2.57 0.73-0.35 1.42-0.88 2.24-1.02-0.04 0.58-0.01 1.17-0.12 1.75-0.11 0.51-0.4 0.97-0.34 1.51 1.06-0.7 1.22-2.37 1.21-3.51 0.95 0.23 0.89 1.51 0.99 2.25 0.29 2.08-1.77 3.73-2.54 5.48-0.9 2.04 0.38 4.21 1.09 6.09 0.25 0.65-0.14 0.7-0.57 1.07-0.46 0.4-0.74 1.01-0.86 1.6-0.22 1.1 0.09 2.49 1.35 2.75-0.21-0.79-0.67-1.34-0.77-2.19-0.09-0.75 1.41-1.27 1.98-1.22 2.19 0.18 2.37 2.41 2.07 4.12-0.29 1.77-1 3.47-1.33 5.25-0.07 0.38-0.77 0.29-0.96 0.05-0.73-0.9 0.5-2.51 0.28-3.53-0.61 1.01-0.98 2.12-1.09 3.3-0.03 0.34 0.02 0.79-0.09 1.12-0.12 0.38-0.79 0.06-0.85-0.21-0.18-0.79-0.19-1.47-0.1-2.28 0.18-1.85 2.09-2.94 2.46-4.68 0.07-0.39-0.1-0.96-0.14-1.35-0.07-0.73-0.79-1.12-1.49-0.88 0.86 0.71 1.47 1.4 0.93 2.56-0.77 1.62-2.37 2.95-2.94 4.62-0.46 1.36-0.36 3.1-2.03 3.48-3.83 0.87-7.75 1.73-11.71 1.45-1.86-0.13-3.72-0.1-5.56-0.43-1.19-0.21-3.32-0.36-4.07-1.5-0.71-0.99 0.57-1.71 1.4-1.93m-2.97 3.2c0.02-0.04-0.17-0.13 0.08-0.09 0.03 0.13-0.06 0.05-0.08 0.09m24.98-1.93c-0.01-0.5-0.01-1-0.02-1.5 0.45 0.31 0.93 1.7 0.02 1.5m-0.55-4.99c-0.82 0.71-1.31 1.58-2.29 2.17-1.23 0.73-2.59 0.76-3.95 1.07-1.32 0.3-2.74 0.6-4.05 0.09-0.59-0.22-1.2-0.43-1.7-0.83-0.44-0.36-0.88-0.83-1.49-0.86-0.03 1.54 1.41 2.21 2.73 2.55 1.33 0.33 2.62 0.14 3.92-0.22 1.47-0.4 3.01-0.52 4.46-1 0.99-0.34 2.85-1.73 2.37-2.97m-24.21 4.5c-1.55-0.88-1.81-3.27-1.05-4.74 0.66 0.42 0.49 1.37 0.65 2.02 0.21 0.85 1.09 1.84 0.4 2.72m29.31-19.31c-1.4-0.53-2.71 2.22-2.72 3.28-0.55-0.58 0.05-2.5 0.45-3.06 1.47-2.08 4.64-1.02 6.15-2.92 0.63-0.79 1.25-2.4 0.07-3.09 0.01 0.97 0.01 1.81-0.59 2.6-0.52 0.69-1.55 0.92-2.37 0.93 0.4-0.54 1.17-0.63 1.56-1.22 0.23-0.35 0.98-1.38 0.66-1.8-0.06-0.08-1.06-0.37-1.25-0.49-0.18 0.56-0.31 0.99-0.67 1.46-0.29 0.39-1.04 0.39-1.08-0.19-0.09-1.23 0.59-2.24 1.79-2.56 0.9-0.24 2.27 0.27 2.77 1.05 0.25 0.4 0.6 0.96 0.62 1.45 0.05 1.38-0.82 2.71-1.84 3.52-1.2 0.95-2.22 2.05-3.15 3.27-1.32 1.74-0.12 4.46 1.02 5.93 0.22 0.29 0.45 0.56 0.7 0.83-0.99-1.85-2.24-4.06-1.32-6.18 0.86-1.98 2.72-3.78 4.96-4.11-0.33-0.58-0.14-1.27 0-1.87 0.22-0.88 0.21-1.74 0.2-2.64 1.04-0.01 1.04 1.24 1.27 1.99 0.82-1.04 0.02-2.44-1.03-2.99 0.71-0.55 1.71 0.56 1.94 1.17 0.35 0.96 0.35 1.88-0.14 2.81 0.62-0.37 1.1-0.95 1.74-1.27 0.13 1.32-1.23 2.41-2.31 2.87-1.1 0.47-2.71 0.53-3.66 1.29-1.12 0.89-2.15 1.58-2.52 3-0.42 1.57 0.1 2.39 0.36 3.91 0.47-0.88 0.02-2.2 0.27-3.19 0.42-1.69 1.74-2.76 3.28-3.43 0.99-0.43 2.09-0.63 3.05-1.11 0.85-0.42 1.47-1.18 2.31-1.61-0.59 3.71-7.89 1.86-7.94 6.34 1.25-1.74 2.46-2.4 4.47-3.09 1.81-0.63 3.11-1.57 4.1-3.21 0.26-0.44 0.76-0.41 0.63 0.2 0.74-1.4-0.77-2.51-1.04-3.74 1.43 0.45 1.84 1.84 1.89 3.19 0.05 1.16-1.56 2.68-2.48 3.15-1.43 0.72-3.05 1.01-4.45 1.77-1.17 0.63-1.88 1.76-2.35 2.97 0.24-0.13 0.58-0.17 0.49-0.5 0.48 0.58 0.46 1.53 0.51 2.23 0.09 1.25 0.43 2.46 0.64 3.7 0.36 2.03 0.11 4.46-1.32 6.06-0.25 0.29-0.69 1.04-1.08 1.1-0.53 0.07-1.38 0.42-1.75-0.12-1.3-1.86 0.96-4.72 0.29-6.84-0.79-2.51-2.73-4.63-3.05-7.29-0.21-1.32 0.53-3.11 1.92-3.55m4.67 16.46c0.17-1.05 0.66-2.01 0.83-3.07 0.16-1.04 0.23-2.12 0.3-3.17 0.11-1.55 0.06-3.39 1.73-4.13 1.96-0.87 4.31-0.99 6.16-2.1 0.72-0.43 1.49-1.18 1.91-1.91 0.32-0.56 0.47-1.51 1.16-1.75 0.02 2.11-0.76 3.44-2.49 4.64-1.57 1.09-3.45 0.99-5.06 1.89-1.81 1.02-2.71 2.62-2.94 4.65-0.17 1.62-0.08 3.92-1.6 4.95m-12.29-3.13c0.42 0 0.83-0.01 1.25-0.01-0.23-1.03-1.58-1.49-2.03-2.48-0.25 0.44-0.15 0.94-0.55 1.32-0.53 0.51-0.56-0.4-1.05-0.57-0.83-0.29-2.19-0.41-2.89 0.3 0.69 0.34 1.36 1.18 1.27 1.99-0.95-0.79-1.58-0.64-2.76-0.47 0.07-0.55 0.41-1.14 0.99-1.26-0.27-0.27-0.64-0.39-1-0.49 0.26-0.37 0.42-0.81 0.49-1.26-0.56 0.1-2.55 1.92-2.42 2.54 0.24 1.14 0.1 3.47 1.73 3.46-0.17-0.49-0.44-0.97-0.52-1.49 1.14 0.67 2.12 0.84 3.38 0.29 1.1-0.48 2.14-1.43 3.36-1.61-1.09 0.9-2.51 1.51-3.22 2.79 1.04-0.15 1.71-0.89 2.53-1.46 0.52-0.37 1.48-0.83 1.44-1.59m10.03 2.4c0.37-1.16 0.87-2.19 0.91-3.43 0.04-1.05-0.39-2.46-0.98-3.32-0.52 0.82 0.35 2.16 0.5 2.99 0.25 1.32-0.7 2.51-0.93 3.76 0.16 0 0.35 0.03 0.5 0m-16.26-1.08c0.25-0.41 0.46-0.78 1-0.51-0.23 0.32-0.61 0.5-1 0.51m-12.51-0.87c0.47 0.1 0.9 0.2 1.01 0.74-0.51-0.06-1.08-0.07-1.01-0.74m2 0.23c-0.36-0.42-0.66-0.63-1.13-0.92-0.21-0.13-0.88 0.14-1.13 0.19 0.01-2.52 3.83-0.3 2.26 0.73m-5-0.2c-0.56-0.49-0.79-1.24-1.27-1.79-0.4-0.47-0.91-0.82-1.41-1.18-1.11-0.76-2.09-1.81-2.13-3.23 0.59 0.17 0.89 0.91 1.22 1.36 0.49 0.66 1.24 1.11 1.86 1.64 0.76 0.63 2.57 2.04 1.73 3.2m18.49-0.44c-0.35-0.48-0.53-1.15-0.52-1.75 0.75-0.01 1.04 0.05 1.29 0.78 0.16 0.46-0.32 0.89-0.77 0.97m-11.26-0.88c-0.66-0.46-1.19-0.92-1.77-1.48 0.13 0.49 0.3 0.99 0.27 1.5-0.66-0.29-1.26-0.69-2.01-0.75-0.67-0.05-1.45 0.41-1.99 0.79 0.08-0.94-0.59-1.74-0.94-2.55-0.39-0.89-0.53-1.71-0.36-2.67 0.15-0.83 1.02-4.29 2.21-4.29 0 0.42 0.01 0.83 0.01 1.25 0.43-0.3 0.27-0.84 0.84-0.63 0.58 0.22 1.12 1.06 1.64 1.43 0.67 0.47 1.31 0.95 1.76 1.65 0.5 0.78 0.28 1.82 0.31 2.69 0.03 0.94 0.68 2.21 0.03 3.06m-7.26-1.68c-1.15-0.9-3.48-1.5-3.53-3.21 0.82 0.28 4.25 2.08 3.53 3.21m34.47-2.86c-0.4-0.76 0.3-2.4 0.8-3.01 1.06-1.27 3-1.54 4.48-2.06 2.02-0.7 3.15-1.84 4.38-3.53 1.21 0.74-0.15 2.34-0.77 2.95-1.28 1.27-3.38 1.52-4.99 2.17-0.84 0.34-1.66 0.79-2.37 1.36s-0.83 1.57-1.53 2.12m-35.75 0.38c-0.6-0.4-1.46-0.55-1.88-1.18-0.43-0.65-0.5-1.56-0.94-2.27-0.94-1.55-0.27-4.01-1.71-5.29-0.36-0.33-1.08-0.45-1.54-0.63-0.83-0.32-1.79 0.44-2.51 0.75-1.05 0.46-2.34 0.52-3.46 0.39-0.89-0.09-2.01-1.03-2.32-1.82-0.3-0.75-0.67-2.3 0.49-2.54 0.02 1.21 1.15 2.9 2.41 3.14 0.46 0.08 0.91 0.07 1.38 0.07-0.69-0.33-1.44-0.49-2.15-0.84-0.21-0.1-0.93-1.94-0.85-2.17 0.06-0.2 0.21-1.06 0.39-1.12 0.33-0.12 0.97-0.52 1.31-0.49 0.99 0.1 0.97 1.16 1.02 1.87 0.15-0.13 0.32-0.25 0.44-0.4 0.29-0.34 0.25-0.41 0.61-0.13 0.31 0.24 0.45 0.89 0.46 1.26-1.33 0.01-2.75-0.12-3.02-1.72-0.41 0.86-0.07 1.6 0.66 2.1 1.97 1.33 4.23-0.56 6.44-0.33 0.42 0.05 0.84 0.7 1.12 0.99 1.21 1.22 0.78 3.26 1.05 4.8 0.18 1.03 0.79 1.81 1.43 2.6 0.54 0.65 1.48 1.06 1.66 1.96-0.59-0.11-1.17-0.54-1.76-0.73 0.4 0.35 1.62 1.11 1.27 1.73m29.24-0.81c-0.64-0.81-1.26-1.92-1.28-2.99 0.51 0.51 1.54 2.29 1.28 2.99m6.23-2.07c0.02-0.7 0.44-2.24 1.11-2.64 1.45-0.85 3.21-0.76 4.66-1.68 0.65-0.41 1.24-0.86 1.72-1.47 0.38-0.49 0.79-1.15 1.43-1.3-0.1 1.07-0.13 2-1.02 2.74-1.22 1.02-2.78 1.2-4.25 1.66-1.56 0.49-2.34 1.81-3.65 2.69m-35 0.12c-1.32-0.34-2.08-1.6-2.43-2.83-0.51-1.79-0.8-3.79-0.91-5.64 0.71 0.38 1.14 1.22 1.27 1.99 0.29-0.55 0.24-1.15 0.23-1.75 0.94 0.18 1.29 1.27 1.77 1.98 0.18-0.26 0.23-0.58 0.49-0.75 0.41 0.79-0.08 1.6-0.45 2.29-0.44 0.85-0.51 1.77-0.5 2.71-0.25-0.12-0.47-0.28-0.75-0.24 0.22 0.73 1.42 1.5 1.28 2.24m0.74-0.76c-0.43-0.25-0.86-0.49-1.01-0.99 0.47 0 1.37 0.42 1.01 0.99m16-0.42c0.22-0.22 0.55-0.41 0.49-0.75-0.3 0.15-0.55 0.4-0.49 0.75m-15.54-3.33c0.15-1.23 2.62-1.07 3.38-0.73 0.81 0.36 1.54 0.83 2.32 1.23 0.51 0.26 0.79 0.1 0.86 0.69 0.05 0.46 0.15 0.62-0.17 0.94-0.29 0.28-0.47 0.44-0.87 0.57-2.34 0.75-3.44-2.37-5.52-2.7m-0.21 3c-0.27-0.29-1.06-1-0.84-1.49 0.26-0.57 1.07-0.66 1.57-0.52-0.43 0.61-0.05 1.54-0.73 2.01m7.73-1.33c-0.19-0.31-0.21-0.65-0.26-1 0.29 0.29 0.55 0.62 0.26 1m-18.76-1.31c0.49-0.76 1.78-1.32 2.64-1.43 0.91-0.12 2.56-0.13 2.61 1.12-0.87 0.01-1.75-0.02-2.61 0.16-0.84 0.18-1.82 0.59-2.64 0.15m18.49-1.19c-0.03-1.68 1.33-1.98 2.73-2.21 1.33-0.21 2.86 0.22 3.27 1.64-2.04 0.33-3.92 0.55-6 0.57m43.43-6.2c-0.15 0.94-1.39 1.73-2.23 2.02 0.99 0.37 1.93-0.63 2.74-1.03-0.4 1.45-1.69 2.52-3.22 2.53 0.46 0.24 0.99 0.23 1.5 0.23-0.26 0.83-0.97 1.12-1.69 1.48-1.17 0.57-2.41-0.96-3.36-1.44-0.83-0.42-2.32-1.37-2.13-2.51 0.04-0.23 0.02-0.94 0.33-0.97 1.29-0.14 2.89 0.57 4.16 0.79 1.67 0.27 2.43-0.67 3.9-1.1m-50.7 4.53c0.73-0.01 2.25-0.56 2.51 0.47-0.76-0.05-2.28 0.64-2.51-0.47m5.73-1.81c-0.01-0.5-0.01-1-0.02-1.5-0.33 0.38-0.29 1.11 0.02 1.5m3.25-0.29c0.62-0.54 1.22-0.76 1.99-1.02-0.38-0.33-0.95-0.27-1.41-0.25-0.79 0.03-1.55-0.28-2.34-0.21 0.08 0.45 0.34 1.04 0.27 1.5 0.26-0.2 0.35-0.47 0.49-0.75 0.32 0.27 0.64 0.49 1 0.73m-2.25 0.03c0.04-0.42-0.06-0.88-0.26-1.25-0.25 0.36-0.05 0.96 0.26 1.25m-13.02-1.87c0.14 0.72-0.97 0.93-1.54 1.13-0.32 0.12-2.3 0.67-2.19-0.19 0.11-0.87 0.08-1.32 1.08-1.41 0.99-0.1 1.78-0.11 2.65 0.47m22.75 0.26c0.01-0.63 0.31-1.17 0.48-1.75-0.59 0.29-0.93 1.21-0.48 1.75m9.66-8.85c-1.77 0.01-3-0.46-4.47-1.43-0.62-0.41-1.18-0.96-1.82-1.31-0.66-0.36-1.46-0.4-2.06-0.86-0.56-0.43-0.91-0.94-1.59-1.23-0.85-0.36-1.78-0.35-2.68-0.41-1.63-0.12-3.61-0.46-4.88 0.83-0.53 0.54-0.79 0.68-1.52 0.86-0.86 0.22-1.54 0.88-2.24 1.38-1.43 1.03-2.73 2.35-3.95 3.62-1.14 1.18-1.51 2.68-1.98 4.2-0.26 0.86-1.07 1.35-1.49 2.12-0.25 0.46-0.26 1.29-0.86 1.27-0.24-0.01-0.46-0.12-0.68-0.21-0.88-0.41-0.25-2.44-0.01-3.08 0.52-1.42 1.55-2.45 2.62-3.47 1.26-1.2 2.51-2.43 3.81-3.59 2.54-2.28 5.06-4.71 8.02-6.46 1.29-0.76 2.4-0.39 3.68 0.17 1.64 0.72 3.23 1.56 4.83 2.37 1.38 0.7 2.77 1.39 4.09 2.19 1.24 0.75 2.74 1.54 3.18 3.04m18.58 7.81c0.57-0.87 3.03-0.58 3.26 0.46-1.08-0.01-2.27 0.05-3.26-0.46m-29.49 0.81c0.24-0.89 0.62-1.84 0.72-2.76-0.72 0.36-1.32 2.12-0.72 2.76m-5.26-0.45c-0.43-0.3-1.42-0.54-1.25 0.26 0.43 0 0.87-0.05 1.25-0.26m41.49-0.93c-0.23-0.66-0.67-1.3-0.77-1.99 1.22 0 1.87 2.24 0.77 1.99m-3.75-0.46c0.5-0.89 1.76-0.82 2 0.23-0.69 0.21-1.39 0.19-2-0.23m-60.25 0.63c0.44-0.83 1.17-0.79 1.99-0.77 0.01 1.13-1.21 1.29-1.99 0.77m40.46-4.43c0.45 0.26 2.24 2.07 1.87 2.76-0.12 0.23-0.39 1.04-0.64 1.12-1.23 0.35-1.44-0.24-1.52-1.36-0.05-0.88 0.08-1.66 0.29-2.52m-24.46 4.26l-0.25-0.25c0.08 0.08 0.17 0.16 0.25 0.25m-18.25 0.19c-0.02-0.65 0.28-1.38 0.98-1.51 0.06 0.7-0.16 1.48-0.98 1.51m29.5-0.81c0.52-1.02 0.45-2.43 0.21-3.5-0.39 0.43-0.13 1.04-0.24 1.54-0.16 0.65-0.38 1.29-0.47 1.96 0.15 0.01 0.35 0.04 0.5 0m-1.01-0.24c0.34-1.08 0.46-2.11 0.26-3.23-0.2-1.13 0.04-1.92 0.17-3.03-0.87 0.51-0.79 1.76-0.68 2.61 0.07 0.54 0.18 1.07 0.15 1.62-0.04 0.7-0.4 1.34-0.41 2.03 0.17 0.01 0.36 0.04 0.51 0m-17.03-3.57c0.35-1.5 0.45-2.96 1.52-4.17 1.04-1.16 2.4-2.1 3.61-3.06 2.62-2.09 5.53-4.6 8.67-5.86 1.57-0.63 3.27 0.02 4.74 0.62 1.61 0.66 3.26 1.24 4.84 1.98 3.25 1.53 6.3 3.49 9.19 5.61 0.82 0.59 1.03 2.24 1.36 3.14 0.59 1.58 1.58 3.01 2.1 4.6-1.2-0.01-2-0.08-2.69-1.16-1.98-3.05-4.06-6.77-7.42-8.53-1.66-0.87-3.36-1.65-5.01-2.52-1.79-0.94-3.56-2.04-5.54-2.5-1.33-0.31-2.67 0.93-3.61 1.69-1.46 1.18-2.94 2.31-4.39 3.5s-2.91 2.42-4.13 3.85c-0.85 1-1.87 2.53-3.24 2.81m28.24-0.54c0.15 0.5 0.27 0.93 0.36 1.45 0.07 0.44-0.48 1.1-0.58 1.55 1.44-0.21 1.94-2.99 0.22-3m-20.5-0.04c-0.17-0.48-0.42-0.99-0.46-1.5-0.02-0.29 0.15-1.01 0.45-1.13 0.36-0.15 0.8 1.56 0.87 1.79 0.24 0.76-0.2 0.73-0.86 0.84m75.99-1.29c-0.51-2.25-0.3-4.63-0.32-6.92-0.03-2.39-0.05-4.78-0.08-7.17-0.06-4.58-0.32-9.21-0.15-13.78 0.17-4.64-0.07-9.29-0.14-13.93-0.03-2.27-0.05-4.53-0.07-6.8-0.01-1.2-0.03-2.4-0.04-3.6-0.01-0.84-0.27-1.76 0.02-2.58 0.22-0.62 0.21-0.99 0.82-1.23 0.59-0.23 0.98-0.25 1.62-0.25 0.71-0.01 1-0.24 1 0.51 0.06 4.21 0.39 8.4 0.4 12.61 0.01 4.27-0.24 8.51-0.24 12.78 0 4.65 0.2 9.3 0.22 13.95 0.01 2.22 0.33 4.42 0.35 6.63 0.02 2.06 0.58 4.94-0.59 6.76-0.71 1.08-1.62 2.41-2.8 3.02m-1.01-0.74c-0.86-0.71-1.41-1.69-1.91-2.67s-0.19-2.08-0.41-3.12c-0.48-2.28-0.32-4.66-0.31-6.98 0.01-4.93-0.36-9.82-0.41-14.74-0.06-5.24 0.01-10.5-0.3-15.73-0.13-2.21-0.16-4.33-0.19-6.53-0.01-1.21-0.65-4.62 0.49-5.5 0.33-0.26 1.01-0.27 1.39-0.2 0.76 0.15 0.92 0.28 1.13 1.03 0.27 0.95 0.22 1.95 0.21 2.93 0 1.12 0.17 2.22 0.21 3.33 0.1 2.3-0.02 4.62-0.05 6.92-0.06 4.78 0.04 9.57 0.09 14.35 0.05 4.83 0.1 9.67 0.15 14.5 0.03 2.41 0.05 4.82 0.08 7.23 0.01 0.92-0.01 1.85 0.07 2.77 0.07 0.72 0.25 1.77-0.24 2.41m-73.49 0.77c-0.76-1.17-0.95-2.71 0.46-3.51 0.06 0.71-0.21 1.38-0.13 2.09 0.04 0.47 0.11 1.1-0.33 1.42m0.74-1.01c0.07-0.93 0.22-2.17 1.48-2.02-0.1 0.75-0.66 1.88-1.48 2.02m3.22-2.79c0-0.63 0.32-1.37 0.98-1.51-0.13 0.6-0.18 1.65-0.98 1.51m-1.25 0.02c0-0.48 0.21-1.13 0.74-1.26 0.06 0.57-0.03 1.38-0.74 1.26m4.1-13.8c1.28-0.28 3.37 1.09 4.42 1.71 2.12 1.23 4.32 2.3 6.45 3.53 1.45 0.83 4.08 1.9 4.78 3.51 0.23 0.53 1.06 4.1 0.3 3.97-1.46-0.24-2.75-1.28-4-2.01-1.46-0.85-2.92-1.68-4.44-2.44-1.36-0.68-2.76-1.31-4.21-1.77-1.17-0.37-2.66-0.76-3.25-1.95-0.26-0.52-0.15-1.21-0.08-1.77 0.1-0.93 0.04-1.85 0.03-2.78m25.17-31.51c0.74 0.52 1.24 0.97 2.08 1.34 0.86 0.38 1.52 0.38 2.43 0.1 3.02-0.9 5.28-3.44 7.34-5.7 0.85-0.93 1.42-1.86 2.01-2.97 0.44-0.83 1.02-1.99 2.04-2.19 0.2 2.04-1.58 4.18-2.61 5.78-0.77 1.18-1.58 2.34-2.4 3.49-0.32 0.45-1 1.66-1.67 1.58-0.65-0.08-2.04-0.44-2.41 0.41-0.66 1.5-0.7 3.46-0.74 5.08 0.81-0.18 5.47-2.25 4.63-3.61-0.29-0.47-0.67-0.54-0.58-1.08 0.17-1.09 6.29-9.4 7.57-8.18 0.49 0.48-0.84 2.27-1.1 2.7-1.02 1.67-1.78 3.54-2.68 5.28-0.96 1.86-1.89 4.16-2.37 6.21-0.52 2.23 0.05 4.47 0.71 6.6 1.33 4.29 1.7 8.6 1.65 13.09-0.02 2.17 0.02 4.35-0.39 6.48-0.17 0.92-1.14 4.92 0.16 5.35 0.53 0.17 0.89-0.73 1.01-1.09 0.51-1.54 0.37-3.75 0.25-5.34-0.13-1.82-0.16-3.73-0.05-5.55 0.11-1.89-0.08-3.9-0.38-5.77-0.3-1.83-0.97-3.98-0.72-5.84 0.08-0.59 0.48-0.86 0.8-0.24 0.96 1.88 2.09 3.77 2.67 5.81 0.65 2.28 0.92 4.56 1.17 6.91 0.26 2.46 0.47 4.86 0.4 7.33-0.06 2.25-0.16 4.82-1.48 6.74-0.42 0.61-0.52 0.62-1.25 0.81-0.47 0.12-1.05 0.01-1.53-0.07-2.19-0.38-3.9-2.13-5.01-3.98-3.34-5.62-5.42-11.9-6.79-18.26-1.49-6.94-2.65-14.13-2.76-21.22m-38.54 43.9c-0.01-0.39-0.22-3.8 0.47-3.26 0.47 0.4-0.04 2.97-0.47 3.26m56.99-1.09c0.34-2.29 0.95-4.46 0.93-6.79-0.02-2.57-0.13-5.13-0.4-7.69-0.25-2.38-0.64-4.88-1.42-7.14-0.82-2.36-2.13-4.53-2.92-6.9-0.3-0.92 0.23-1.81 0.48-2.7 2.08 1.11 2.53 4.82 3.09 6.86 0.49 1.78 0.81 3.59 1.25 5.38 0.42 1.75 0.53 3.35 0.71 5.14 0.31 3.01 0.26 6.11 0.22 9.14-0.02 1.28-0.01 4.68-1.94 4.7m-55.5 0.08c-0.01-1.17-0.02-2.33-0.04-3.5 0.8 0.49 0.8 2.97 0.04 3.5m1.49-1.02c-0.01-0.59-0.14-1.16-0.17-1.75s0.18-1.16 0.13-1.75c0.8 0.5 0.8 2.97 0.04 3.5m1.49-1.01c-0.01-1.17-0.02-2.33-0.04-3.5 0.8 0.49 0.8 2.97 0.04 3.5m54.99-0.83c-0.01-1.62 0.23-4.47 1.83-5.44 0.28-0.16 0.45-0.27 0.76-0.32 0.19-0.03 0.67 1.59 0.71 1.67 0.35 0.92 0.58 1.93 0.06 2.85-0.26 0.46-0.51 0.8-1.07 0.83-0.79 0.05-1.53 0.37-2.29 0.41m-53.5-0.19c0-0.15-0.16-4.36 0.46-3.76 0.49 0.49 0 3.44-0.46 3.76m1.49-1.01c0.09-0.65-0.54-3.5 0.38-3.5 0.25-0.01 0.17 3.11-0.38 3.5m56.49-1.6c0.06-1.81 0.34-3.61 0.41-5.42 0.08-1.92 0.01-3.85 0.02-5.77 0.01-3.67-0.05-7.34-0.57-10.98-0.53-3.69-1.58-7.33-2.46-10.95-0.43-1.77-0.93-3.46-1.69-5.12-0.76-1.67-1.3-2.85-0.93-4.71 1.49 0.28 1.98 2.59 2.44 3.74 0.75 1.86 1.53 3.69 2.05 5.63 1.02 3.77 1.92 7.87 2 11.79 0.04 2.06 0.46 4.01 0.19 6.08-0.26 1.93 0.04 3.98-0.04 5.94-0.08 1.93-0.24 3.82-0.22 5.75 0.01 1.24-0.01 3.23-1.2 4.02m-55 0.58c-0.01-0.84-0.01-1.68-0.02-2.53 0-0.19-0.1-1.48 0.49-0.98 0.32 0.28 0.07 1.46 0.04 1.83-0.04 0.54 0.36 1.71-0.51 1.68m1.49-1.02c0-0.15-0.16-4.36 0.46-3.76 0.49 0.49 0.01 3.43-0.46 3.76m1.49-0.51c-0.01-0.99-0.02-1.98-0.06-2.97-0.01-0.24-0.06-1.81 0.51-1.28 0.48 0.46 0.04 3.32 0.05 3.95 0 0.39-0.08 0.31-0.5 0.3m12.87-13.14c0 0.46 0.09 1.88-0.38 2.16-0.65 0.38-1.44 0.68-1.83 1.36 0.5-0.03 1.92-0.46 2.27-0.02 0.74 0.92 1.64 1.87 2.08 2.98 0.45 1.16-0.07 2.32-0.02 3.5 0.52-0.34 0.72-0.98 0.98-1.51 0.83 0.77 0.46 2.19 0.18 3.09-0.24 0.77-2.63 0.11-2.82-0.29-0.27-0.58-0.54-1.16-0.81-1.73-0.34-0.71 2.56-3.84 0.77-3.52-0.55 0.1-0.83 0.55-1.34 0.75-0.52 0.21-1.18 0.03-1.67-0.2-1.03-0.46-1.42-1.72-1.69-2.71-0.28-1.04 0.05-2.12 0.61-3.02 0.79-1.3 2.43-0.61 3.67-0.84m34.86 10.89c-0.02-1.19-0.08-2.4 0.23-3.55 0.3-1.11 0.89-2.05 1.26-3.11 0.33-0.98 1.04 0.18 1.24 0.54 0.6 1.1 1.14 2.27 1.33 3.52 0.11 0.72 0.16 1.5-0.44 2-0.56 0.47-1.21-0.44-1.37-0.93-0.57 0.7-1.29 1.54-2.25 1.53m-57.8-4.15c0.67 0.38 1.15 1.25 1.27 1.99 0.45-0.91-0.38-1.95-0.09-2.9 0.28-0.93 1.15-2.21 1.77-2.96 0.43-0.52 1.4-0.42 2.01-0.43-0.36-0.67-1.23-0.81-1.71-1.37-0.57-0.67-0.65-1.9-0.98-2.71-0.38-0.92-0.83-1.83-0.63-2.83 0.24-1.17-0.14-2.15-0.02-3.29 0.08-0.69 0.23-0.81 0.89-0.55 0.99 0.4 1.57 1.65 1.75 2.62 0.22 1.16-0.86 1.9-1.16 2.86-0.22 0.71-0.12 0.86 0.63 0.81 0.7-0.05 0.88-0.2 1.57 0.1 1.03 0.45 1.14 1.72 1.28 2.73 0.13 0.89-0.07 3.44-1.11 3.86-0.4 0.16-1.1-0.13-1.5-0.21 0 0.25 0.01 0.5 0.01 0.75-0.61 0.01-1.18-0.3-1.75-0.48-0.2 0.59 0.27 1.09 0.64 1.48 0.46 0.5 0.67 1.09 0.88 1.72 0.36 1.07-0.91 2.53-1.71 3.03-0.38 0.24-1.18 0.61-1.64 0.47-1.02-0.3-1.1-0.3-1.2-1.36-0.09-1.08 0.32-2.37 0.8-3.33m63.8 3.59c0.09-5.27 0.6-10.48 0.32-15.76-0.29-5.45-1.84-10.76-1.9-16.22-0.17 0.17-0.33 0.34-0.5 0.51-0.39-1.29 0.01-3.06 0.16-4.38 0.19-1.64 0.34-3.27 0.74-4.88 0.5 0.72 0.19 1.87 0.06 2.65-0.21 1.27-0.25 2.57-0.24 3.85 0.46-0.94 0.38-2.02 0.55-3.03 0.07-0.39-0.13-1.45 0.15-1.73 0.69-0.69 0.18 2.87 0.16 3.15-0.17 1.77-0.25 3.59-0.32 5.37 0.29-0.57 0.97-6.26 1-6.26 0.85-0.01 0.49 2.88 0.46 3.49 0.26-0.53 0.23-1.39 0.73-1.76 0.29 0.56 0.26 1.13 0.27 1.75 0.29-0.17 0.63-0.62 0.9-0.36 1.11 1.06 2.22 2.02 3.49 2.89 1.22 0.84 2.51 1.26 3.8 1.93 0.64 0.33 0.42 1.73 0.39 2.3-0.07 1.34 0.01 2.69 0.02 4.03 0.01 1.41 0.03 2.48-0.96 3.58-1.05 1.18-2.21 2.27-3.16 3.53-1.9 2.52-2.39 5.61-3.19 8.58-0.25 0.98-1.69 6.97-2.93 6.77m-47.77-1.5c-1.03-0.69-2.78-1.44-4-1.66-1.52-0.25-2.57 1.25-4 1.49 0.14-0.91 0.59-1.73 0.91-2.58 0.38-1.03 0.53-2.12 0.67-3.2 0.13-1.01 0.12-1.98 0.08-2.99-0.04-1.08-0.47-2.41-0.06-3.44 0 0.48 6.28 0.33 6.28 0.48 0.02 0.98-0.45 1.93-0.46 2.93-0.02 1.17-0.29 2.33-0.22 3.5 0.06 1.08 0.23 2.22 0.55 3.25 0.19 0.61 0.69 1.62 0.25 2.22m9.14-10.35c0.65 1.24 0.49 2.78 0.58 4.13 0.03 0.37 0.51 2.73-0.49 2.23-1.12-0.55-1.52-2.16-1.41-3.29 0.1-1.08 0.28-2.49 1.32-3.07m33.73-1.85c1.42-0.12 2.63 3.51 2.98 4.51 0.12 0.35 0.26 2.2-0.34 2.21-0.68 0.01-0.77-0.01-1.27-0.46-0.22-0.2-0.49-0.72-0.57-1.02-0.46 0.75-0.67 1.78-1.57 2.04-1.05 0.3-0.94-1.4-0.92-2 0.04-1.93 0.85-3.59 1.69-5.28m-58.67 8.11c0.02-1.88 0.12-4.28 0.94-6.01 1.81 0.87 1.27 5.96-0.94 6.01m22.7-5.24c-0.47-1.35-2.31-1.23-2.68-2.72-0.34-1.37 0.26-2.67 1.25-3.59 0.42-0.39 1.04-0.9 1.63-0.79 0.63 0.13 1.61 0.15 1.76 0.96 0.21 1.15 0.59 2.77 0.02 3.87-1.14-0.65-1.37-2.11-2.53-2.72 0.7 1.32 2.36 3.97 0.55 4.99m34.4-9.61c0.89 0 1.41 0.89 1.9 1.5 0.57 0.71 1.45 1.4 1.69 2.32 0.17 0.67 0.84 2.35-0.4 2.52-0.79 0.11-1.49-0.93-1.64-1.61-0.52 0.83-0.64 1.64-1.47 2.24-0.84 0.61-1.25-0.89-1.25-1.52 0.01-1.93 0.9-3.58 1.17-5.45m-48.03-3c-0.18 0.95-1.31 1.35-1.48 2.27 1.06-0.77 2.34-0.76 3.5-0.23 0.64 0.29 1.23 0.54 1.43 1.2 0.15 0.5 0.44 1.2 0.35 1.72 0.57-1.12 0.23-2.31 1.37-3.11 0.53-0.38 1.18-0.9 1.84-0.94 0.71-0.04 1.32 0.41 2.01 0.5-0.29-0.53-0.71-0.97-1.02-1.49 0.87-0.01 1.75-0.05 2.63 0 0.58 0.04 0.7 0.14 0.83 0.7 0.09 0.41 0.15 0.93-0.17 1.29-0.6 0.65-1.08 1.62-2.06 1.4-0.98-0.21-1.39-0.9-2.2-1.38-0.28 0.96 0.13 1.86 0.12 2.84-0.01 1.08-1.7 1.39-2.52 1.43-0.9 0.05-2.15 0.46-2.9-0.36-0.37-0.4-0.36-1.05-0.34-1.55 0.02-0.56-0.23-1.02-0.78-0.81-0.43 0.17-0.67 0.61-1.06 0.86-0.56 0.36-0.98 0.06-1.56-0.13-0.92-0.31-1.52-0.93-1.86-1.87-0.19-0.52-0.32-1.01-0.14-1.55 0.2-0.62 0.54-0.71 1.1-0.93 0.98-0.36 1.98-0.51 2.91 0.14m40.55 5.08c-1.06-0.94-1.16-2.84-1.25-4.15-0.15-2.32 0.67-4.31 1.56-6.4 0.75-1.77 1.67-3.47 2.42-5.23 0.5-1.17 1.13-3.23 2.57-3.52-0.41 1.74-1.53 3.24-2.29 4.83-0.79 1.66-1.48 3.36-2.21 5.04-0.63 1.44-1.43 3.06-1.16 4.68 0.15 0.92 0.13 1.81 0.44 2.71 0.21 0.64 0.5 1.48-0.08 2.04m5.92-8.06c1.51 0.24 3.96 2.04 4.46 3.55 0.29 0.9 1.06 2.39-0.45 2.41-0.61 0.01-0.91-0.03-1.37-0.5-0.18-0.19-0.42-0.88-0.6-0.98-0.57-0.31-1.32 1.98-1.6 2.37-0.74 1.05-1.74 0.21-1.85-0.83-0.19-1.96 0.83-4.19 1.41-6.02m-5.44 5.55c-0.48-2.63-0.08-5.13 1.03-7.54 0.56-1.21 1.18-2.38 1.71-3.6 0.37-0.86 0.77-1.92 1.63-2.41-0.16 2.72-1.67 4.57-2.5 7.03-0.31 0.89-0.44 6.77-1.87 6.52m-40.03-2.83c1.67-0.02 3.33-0.04 5-0.05 0 1.95-4.98 2.15-5 0.05m42.49-0.44c0.03-0.65 1.64-9.13 3.01-8.58 1.23 0.5 2.73 2.41 2.7 3.77-0.02 0.72-0.28 1.77-1.11 1.89-0.68 0.09-1.5-0.64-2.13-0.85-0.13 0.77-0.14 1.78-0.41 2.5-0.38 1-1.07 1.25-2.06 1.27m-49.25-0.24c0.03-1.46 1.67-1.61 2.8-1.61 1.85 0.01 3.71 0.04 5.56 0.02 0.95-0.01 12.51-0.21 12.39 0.53-0.11 0.7-0.13 1.05-0.95 1.08-3.22 0.11-6.41-0.16-9.63-0.12-3.39 0.03-6.77-0.08-10.17 0.1m1.96-3.27c0.24-1.16 1.17-2.1 1.73-3.12 0.36-0.66 0.91-1.9 1.78-2 2.19-0.25 4.54 0.03 6.75 0.01 2.31-0.02 4.63-0.1 6.94-0.07 1.45 0.02 1.51 0.87 1.52 2.11 0.01 0.76 0.32 2.57-0.52 2.88-1.27 0.46-2.67 0.36-4 0.31-1.52-0.05-3.05 0.01-4.57 0.02-3.21 0.03-6.42-0.17-9.63-0.14m67.89-2.83c-1.65 0.58-2.82-1.28-3.25-2.53-0.27-0.77-1.08-3.63 0.34-3.66 0.84-0.02 1.52 0.02 2.33 0.23 0.69 0.19 0.91 1.05 1.04 1.7 0.21 0.96 0.51 3.63-0.46 4.26m9.34-0.92c-0.29-2.18 2.39-0.41 0.39 0.01m-18.65-0.12c-0.01-0.58-0.01-1.17-0.02-1.75-0.35 0.39-0.34 1.36 0.02 1.75m18.23-1.7c-0.01-1.09-0.66-4.24 0.48-4.97 0.41-0.27 1.15-0.63 1.61-0.31 0.57 0.4 0.66 0.87 0.92 1.52 0.49 1.18-1.9 3.73-3.01 3.76m-34.17-16.14c0.15 1.13-1.13 1.68-1.8 2.34-1.13 1.14-2.38 2.17-3.46 3.36-1.03 1.14-1.93 2.39-2.69 3.72-0.6 1.04-1.59 2.46-1.39 3.73 0.18 1.14 0.96 2.16 2.25 1.73 2.39-0.79 4.18-2.95 5.73-4.82 0.77-0.93 1.48-1.9 2.05-2.96 0.38-0.71 0.93-1.85 1.87-1.88 0.02 2.57-2.42 4.99-4.02 6.77-1.73 1.91-4.13 4.41-6.89 4.46-1.42 0.03-2.13-0.35-2.43-1.77-0.57-2.67 1.63-6.29 3.21-8.3 1.95-2.51 4.47-5.36 7.57-6.38m12.41 15.12c-0.02-2.27 0.78-4.53 0.68-6.76 0.71 0.76 0.17 2.29 0.03 3.17-0.17 1.12 0.03 2.63-0.71 3.59m-36.75 0.39c-2.08 0.02-4.15 0.13-6.23 0.06-2.34-0.08-4.69 0.25-7.02 0.07-0.42-0.03-1-0.06-1.01-0.58-0.01-0.54 0.25-1 0.67-1.36 1.57-1.32 3.76-0.78 5.68-0.72 2.36 0.08 4.74-0.07 7.09 0.08 1.02 0.07 0.81 1.77 0.82 2.45m40.7-4.93c0.81 0.56 1.43 1.4 2.31 1.85 0.37 0.19 1.89 0.83 1.17 1.4-0.57 0.46-0.75 0.27-1.47 0.08-0.54-0.15-0.73-0.43-1.12-0.85-0.45-0.48-0.88-1.81-0.89-2.48m-17.33-7.57c0.01 0.57 0.01 1.15 0.02 1.72 0 0.25 1.89-0.34 1.78 0.22-0.19 0.92-0.82 1.84-1.29 2.64-1.34 2.34-4.44 6.71-7.57 6.26-0.31-0.04-0.58-0.85-0.5-1.15 0.58-2.21 1.73-4.1 3.19-5.85 1.14-1.35 2.58-3.34 4.37-3.84m12.59 8.87c-0.02-1.98 0.48-4.33 0.94-6.26 0.57 0.89-0.1 2.31-0.18 3.25-0.09 0.94 0.14 2.38-0.76 3.01m-12.82-6.61c-1.21-0.28-2.94 1.74-3.69 2.51-0.8 0.82-2.4 2.7-1.88 3.96 0.42 1.03 2.84-1.46 3.14-1.8 0.87-0.95 2.75-3.26 2.43-4.67m25.82 6.22c-0.98-0.86-2.27-1.75-2.28-3.22 1.03 0.01 3.67 2.3 2.28 3.22m-14-0.35c0.3-1.56 0.44-3.15 0.7-4.72 0.24-1.43 0.48-3.09 0.46-4.54 0.69 0.73 0.04 2.88 0 3.76-0.07 1.52-0.27 3.14-0.51 4.64-0.11 0.57 0.01 0.95-0.65 0.86m28.87-0.8c0.32-0.59 0.26-0.57-0.11-1.13-0.23-0.35-0.52-0.68-0.91-0.23-0.65 0.73 0.13 1.98 1.02 1.36m-63.08-18.59c-0.06 3.48-0.23 7-0.41 10.48-0.1 1.92-0.2 3.8-0.18 5.73 0.01 0.92 0.37 2.73-0.84 3.07-0.77 0.22-2.5 0.69-2.87-0.3-0.59-1.57-0.41-3.71-0.38-5.37 0.04-2.02 0.01-4.04 0.14-6.05 0.1-1.56 0.95-2.67 1.82-3.91 0.84-1.19 1.4-2.91 2.72-3.65m-5.8 19.31c-0.01-0.94-0.28-1.87-0.18-2.81 0.1-0.92 0.13-1.84 0.12-2.77-0.01-1.09-0.02-2.18-0.04-3.27-0.01-0.75-0.19-1.85 0.47-2.4 0.87 1.67 0.1 3.72 0.07 5.48-0.03 1.5 0.57 4.46-0.44 5.77m36.5-0.88c-0.4-0.62-0.58-1.34-0.87-2.01-0.34-0.78-0.92-1.49-1.45-2.15-1.17-1.47-2.62-1.79-4.26-2.49-0.65-0.28-0.44-0.47-0.3-1.1 0.52-2.27 1.29-4.46 1.79-6.74 0.52-2.38 0.94-4.78 1.45-7.16 0.48-2.25 0.77-4.39 0.88-6.69 0.06-1.19 0.05-2.34-0.01-3.53-0.04-0.75-0.07-1.68 0.58-2.18 1.29-0.98 2.99-1.54 4.42-2.29 0.81-0.42 1.66-0.76 2.45-1.22 0.68-0.4 1.36-0.92 2.16-1.03 0.16 0.76-0.35 2.24-0.93 2.72-1.84 1.54-4.02 2.37-6.02 3.64-1.19 0.76-0.68 3.1-0.73 4.26-0.1 2.22-0.47 4.4-0.78 6.59-0.29 2.08-0.58 4.15-1.02 6.2-0.44 2.08-1.27 4.08-1.69 6.15-0.15 0.7 0.89 1.42 1.39 1.74 0.94 0.6 1.79 1.2 2.61 1.96 0.36 0.32 0.72 1.37 0.59 1.84-0.19 0.63-0.59 1.33-0.53 1.99 1.23-1.39 1.97-3.12 2.68-4.81 0.81-1.94 1.01-4.11 1.96-5.98 1.13 1.33-0.86 4.81-1.34 6.1-0.46 1.19-0.98 2.35-1.45 3.54-0.35 0.9-0.67 2.12-1.58 2.65m-39.81-5.33c-0.27 0.41-0.8 1.95-0.25 2.32 0.18 0.13 0.61 0.55 0.82 0.46 0.6-0.26 0.38-1.18 0.29-1.64-0.09-0.49-0.45-0.87-0.86-1.14m49.02 1.98c0.02-0.68 0.11-1.33 0.23-2 0.53 0.14 1.07 0.32 0.88 0.89-0.16 0.46-0.71 0.88-1.11 1.11m-1.1-9.49c1.53 0.3 2.83 2.64 3.36 3.96 0.26 0.63 0.58 1.73 0.08 2.33-0.68 0.82-2-0.17-2.63-0.55-0.18 0.57-0.5 2.47-1.22 2.59-1.01 0.17-1.05-2.01-1.15-2.63-0.26-1.66 0.62-4.33 1.56-5.7m10.24-1.11c-0.79-0.15-2.22-0.61-2.75 0.28 0.61-0.01 1.36-0.03 1.89 0.32 0.68 0.44 0.99 0.85 1.16 1.65 0.09 0.46 0.6 1.59 0.24 2-0.44 0.43-1.06 0.07-1.5 0.76 1.4-0.02 3.09 0.95 4.33 0.01 0.63-0.47 1.1-1.15 1.81-1.51 0.82-0.42 1.69-0.51 2.59-0.59-0.36 0.62-1.07 1-1.3 1.7-0.21 0.62 0.05 1.12-0.57 1.55-0.5 0.34-0.73 0.46-1.34 0.29 0 0.36 0.21 1.21-0.18 1.42-1.26 0.66-3.47 0.68-4.85 0.55-1.08-0.11-2.05 0.04-2.52-1.15-1.14-2.9-1.64-6.36-1.76-9.46-0.04-1.13 0.14-2.18 1.28-2.66 1.09-0.46 2.19-0.48 3.35-0.43 1.68 0.07 0.51 4.52 0.12 5.27m-17.66 8.69c-0.77-1-1.77-1.83-2.81-2.55-0.81-0.56-1.59-1.11-1.23-2.21 1.1-3.44 1.65-6.87 2.25-10.42 0.33-1.94 0.54-3.91 0.67-5.88 0.06-0.9 0.09-1.8 0.1-2.7 0.01-0.66-0.14-1.57 0.23-2.17 0.51-0.82 1.99-1.22 2.8-1.63 0.53-0.27 2.54-1.63 3.1-1.08 0.24 0.23-0.21 1.23-0.33 1.54-0.66 1.64-2.98 1.4-3.61 2.96-0.3 0.75-0.18 1.72-0.22 2.5-0.07 1.2-0.11 2.39-0.2 3.59-0.17 2.38-0.65 4.72-1.09 7.07-0.22 1.2-0.44 2.39-0.7 3.58-0.16 0.77-1.07 2.79-0.53 3.51 0.61 0.83 2.41 1.58 2.29 2.74-0.03 0.58 0 1.28-0.72 1.15m23.49-0.75c0.35-1.8 2.33-1.29 3-0.03-1.03-0.06-1.93 0.24-3 0.03m-19-24.05c0.04 4.44-1.1 8.82-0.73 13.26 0.17 2.04-0.71 3.94-1.23 5.87-0.17 0.63-0.46 2.94-1.51 2.68-1.17-0.29-1.89-1.22-1.68-2.43 0.56-3.28 1.23-6.54 1.73-9.83 0.24-1.57 0.48-3.14 0.63-4.72 0.08-0.9-0.34-2.9 0.34-3.6 0.65-0.66 1.43-1.31 2.45-1.23m19.97 21.04c0.07-0.56 0.73-0.94 1.24-1.01-0.11 0.58-0.69 0.93-1.24 1.01m-3.78-2.96c0.63-0.54 1.6-1.47 2.41-1.66 0.9-0.2 2.82-0.35 2.59 1.1 0.99-0.89 2.37-0.69 3.47-0.15 0.54 0.27 1.45 0.46 1.59 1.11 0.16 0.77 0.21 1.44 0.22 2.23-1.01-0.02-1.87-0.05-2.78-0.52-0.88-0.45-1.24-1.4-2.19-1.84-0.86-0.39-1.85 0.01-2.72 0.15-0.85 0.14-1.83-0.02-2.59-0.42m-0.97 2.76c0.1-0.62-0.26-1.35-0.27-2 0.4-0.03 2.11 0.14 1.94 0.68-0.21 0.69-0.94 1.3-1.67 1.32m0.71-4.25c0.35 0.05 0.69 0.06 1 0.24-0.34 0.31-0.84 0.16-1-0.24m1.49-0.77c0.58-0.9 0.84-1.76 1.84-2.28 0.35-0.18 0.93-0.3 1.31-0.21 0.75 0.17 0.86 0.34 1.33 0.94 0.06-0.29 0.24-0.5 0.37-0.75 0.28-0.58 2.38 0.27 2.83 0.42 0.74 0.25 0.91 0.85 1.21 1.5 0.22 0.46-0.64 1.23-1.09 1.19-1.36-0.12-2.64-0.64-3.96-0.96-1.27-0.33-2.57 0.1-3.84 0.15m-14.07-6.35c0.86 1.36 1.98 2.86 2.23 4.48 0.11 0.71 0.1 2.02-0.56 2.44-0.77 0.51-1.7-0.66-2.58-0.24-0.76 0.37-1.34 1.12-1.99 0.14-0.4-0.59-0.41-1.8-0.21-2.5 0.41-1.44 1.37-4.02 3.11-4.32m11.07 6.88c-0.26-0.66-0.47-2.28 0.47-2.5 0.01 0.69 0.2 2.04-0.47 2.5m0.75-0.26c0-0.25-0.01-0.5-0.01-0.75 0.21 0.23 0.2 0.52 0.01 0.75m1.24-1.26c0.25-0.41 0.46-0.78 0.99-0.51-0.22 0.32-0.6 0.5-0.99 0.51m2.98-2.03c-0.49-0.88-0.02-1.36 0.62-1.93 0.68-0.61 1.54-0.01 2.11 0.4-0.04-1.13 1.05-1.29 1.93-0.94 0.63 0.25 0.98 0.6 1.48 1.06 0.17 0.16 0.1 1.18-0.06 1.35-0.56 0.61-1.81 0.22-2.48 0.07-1.2-0.28-2.41-0.41-3.6-0.01m-1.03-2.24c-0.73 0.96-1.78 1.07-1.72 2.52-1.09 0.05-1.43-0.96-0.96-1.82 0.55-0.98 1.64-0.95 2.68-0.7m-0.73 1.76c0.04-0.36 0.39-0.58 0.75-0.51-0.17 0.29-0.46 0.38-0.75 0.51m-3 0.03c-0.3-0.53-0.25-1.35 0.23-1.75 0.29 0.52 0.28 1.37-0.23 1.75m1.95-4.77c0.79-0.01 1.71-0.15 2.5-0.03 0.41 0.07 0.65 0.19 0.86 0.52 0.34 0.54 0.24 0.64 0.05 1.25-0.13 0.41-1.95 0.24-2.31 0.22-1.12-0.02-1.07-1.15-1.1-1.96m-6.22 2.31c-0.65-1.2-0.02-2.62-0.27-3.89-0.12-0.71-0.77 0.67-0.76 0.66-0.43-0.47-0.49-2.29-0.49-2.9-0.01-1.04 0.64-2.36 0.43-3.34 0.67 0.72 0 1.9 1.03 2.49-0.01-0.67-0.01-1.33-0.02-2 0.71 0.46 0.77 1.94 0.78 2.68 0-0.1-0.87 0.23-0.98 0.34-0.45 0.42-0.68 0.59-0.18 1.1 0.51 0.51 1.21 2.35 2.04 1.51 0.37-0.37 0.42-0.89 0.87-1.21 0.37-0.26 0.82-0.41 1.27-0.46-0.01 1.52-0.14 3-0.2 4.5-1.04-0.2-0.77-1.94-0.78-2.7 0-0.15-0.5-0.02-0.49 0.45 0.01 0.76-0.21 1.51-0.23 2.27-0.79-0.11-0.71-1.16-0.77-1.74-0.89 0.5-0.47 1.72-1.25 2.24m-7.03-2.17c-0.85-0.15-0.84 1.4-1.78 1.26-0.5-0.08-1.03 0.02-1.13-0.55-0.08-0.44-0.12-0.89-0.07-1.33 0.21-1.65 1.38-3.89 2.78-4.88 0.53-0.38 0.6 0 0.91 0.5 0.75 1.18 1.44 2.48 1.75 3.85 0.17 0.77 0.18 2.09-0.69 2.51-0.85 0.4-1.6-0.68-1.77-1.36m12.51 0.87c0-0.25 0-0.5-0.01-0.75 0.21 0.22 0.2 0.51 0.01 0.75m9.99-0.86c0.69-0.95 0.88-2.62 0.96-3.76-0.44 0.09-0.85 0.31-1.24 0.51 0.43-1.07 0.91-2.21 1.19-3.33 0.37-1.49-0.98-1.85-1.26-3.17-0.37 0.32-0.48 0.82-0.73 1.22s-0.86 0.69-0.64 1.25c0.3 0.79 0.55 1.61 0.76 2.43 0.4 1.54-0.76 0.26-1.37 1.34-0.13 0.21 0.21 0.67 0.3 0.89 0.24 0.54 1.34-0.04 1.22 0.71-0.05 0.32-0.13 0.61-0.09 0.93 0.06 0.53 0.29 1.1 0.9 0.98m-10.5-0.64c0.07-0.36 0.36-0.71 0.74-0.76 0.11 0.56-0.19 0.86-0.74 0.76m1.74-0.52c-0.02-0.5 0.23-1.13 0.76-1.3 0.44-0.14 1.36-0.09 1.65 0.33 0.08 0.12 0.46 0.64 0.28 0.72-0.84 0.37-1.8 0.25-2.69 0.25m-2.27-1.72c0.02-0.78 0.1-1.49 0.23-2.25 0.46 0.47 0.78 2.48-0.23 2.25m1.98-1.77c-0.01-0.61-0.03-4.87 1.28-3.74 0.63 0.55 0.85 1.47 0.61 2.28-0.18 0.6-0.17 0.83-0.69 1.14-0.43 0.26-0.69 0.28-1.2 0.32m-12.77-2.62c-0.68 0.14-1.52 1.28-2.29 0.93-0.88-0.39-0.86-1.61-0.6-2.4 0.55-1.74 1.8-3.18 3.13-4.36 0.43-0.38 0.44-0.04 0.63 0.27 0.94 1.53 2.2 4.95 1.07 6.61-0.63 0.92-1.83-0.35-1.94-1.05m-9.08-7.16c-0.46 0.83-1.49-0.81-1.71-1.14-0.8-1.23-1.59-2.48-2.54-3.6-0.8-0.94-3.88-4.13-5.13-2.36-0.32 0.45-0.8 0.92-0.87 1.46-0.25 2.22 1.78 5.04 3.15 6.59 1.2 1.35 4.35 3.48 3.41 5.59-0.87-0.25-1.44-1.06-2-1.71-0.73-0.84-1.49-1.63-2.18-2.52-1.42-1.83-2.61-3.83-3.34-6.04-0.62-1.86-0.57-4.82 1.86-5.25 2.27-0.41 4.34 1.27 5.78 2.82 1.51 1.63 3.17 3.93 3.57 6.16m18.56 5.31c0-0.29 0.1-3.37-0.53-2.74-0.28 0.27-0.02 1.3 0.01 1.64 0.04 0.5-0.24 1.16 0.52 1.1m-1.52-1.48c-0.01-0.66 0.14-2.12-0.77-2.24 0.14 0.68 0.15 1.78 0.77 2.24m6.25-0.57c0.21-0.86 0.82-1.26 1.45-1.82 0.19-0.17 0.12-0.9-0.16-0.99-0.48-0.17-0.8-0.19-1.32-0.19 0.08-1.27 0.4-2.47 0.71-3.7 0.09-0.34 0.28-0.85 0.25-1.21-0.03-0.35-0.7 0.03-0.77 0.16-0.23-0.66-0.52-1.28-0.52-2-0.56 0.4-0.45 1.41-0.48 2.01-0.43-0.01-0.84-0.13-1.25-0.24 0 1.17 1.92 4 0.67 4.78-0.34 0.21-0.8 0.4-0.98 0.79-0.26 0.53 1.77 2.43 2.4 2.41m-27.51 0.04c-0.44-0.71-1.09-1.25-1.65-1.84-0.77-0.8-1.37-1.78-1.98-2.7-0.75-1.14-2.65-3.72-1.58-5.16 0.38-0.51 1.03-0.41 1.58-0.41 1.42 0.02 2.74 1.81 3.54 2.77 0.84 1 2.63 3 2.45 4.44-0.09 0.59-0.77 0.89-1.17 1.23-0.51 0.42-0.43 0.92-0.43 1.52 0 0.29-0.5 0.15-0.76 0.15m14.22-3.65c-0.58 0.3-1.26 1.23-1.97 1.16-0.92-0.1-0.78-1.58-0.47-2.16 0.41-0.77 2.45-4.35 3.49-3.52 0.53 0.43 0.66 1.27 0.84 1.89 0.27 0.92 0.84 1.9 0.61 2.89-0.19 0.85-0.19 2-1.29 1.73-0.93-0.22-0.99-1.16-1.21-1.99m-13.48 1.64c-0.15-1.96-1.08-4.03-2.49-5.41-0.31-0.31-1.26-0.84-1.7-0.57-0.67 0.41-0.04 1.58 0.13 2.04 0.55 1.52 2.47 3.51 4.06 3.94m14.91-8.16c-0.79-0.18-0.83 1.16-1.67 1.22-0.55 0.04-0.83 0.15-1.13-0.35-0.19-0.32-0.13-0.81-0.04-1.15 0.31-1.13 0.96-2.19 1.76-3.04 0.09-0.09 1.96-1.64 2.04-1.42 0.46 1.33 0.99 2.66 1.18 4.07 0.1 0.7 0.15 2.03-0.72 2.29-1.04 0.32-1.21-0.83-1.42-1.62m20.76 1.04c0-0.5-0.01-1-0.02-1.5-0.6 0.3-1.01 1.7 0.02 1.5m-24.75-0.49c-0.88-1.61-1.18-3.77-1.57-5.55-0.44-2.02-0.83-4.07-0.83-6.14 0-1.9 0.28-3.86 0.77-5.69 0.44-1.6 1.07-3.64 2.29-4.82 0.5-0.49 0.65 0.48 0.74 0.78 0.19 0.63-0.31 1.5-0.5 2.09-0.34 1.07-0.69 2.13-0.95 3.22-0.5 2.09-0.65 4.28-0.55 6.43 0.08 1.93 0.6 3.9 1 5.79 0.25 1.14 0.76 3.05-0.4 3.89m20.24-0.46c0.19-0.37 0.36-2.62-0.52-2-0.25 0.17-0.23 0.99-0.21 1.23 0.06 0.49 0.15 0.88 0.73 0.77m3.74-1.29c0-0.33-0.01-0.67-0.01-1-0.24 0.27-0.23 0.73 0.01 1m-3.27-1.97c-0.2-0.83 0-1.68 0.19-2.49 0.05-0.21 0.49-1.41 0.19-1.56-0.42-0.21-0.87-0.43-0.94-0.95-0.67 0.2-0.87 0.95-1.64 1.01-0.39 0.02 0.88 3.42 0.94 3.75-0.58 0.01-1.17 0.01-1.75 0.02 0.01 0.73 0.07 1.24 0.85 1.26 1.28 0.06 3.13 0.56 3.58-0.89 0.18-0.53-1.21-0.27-1.42-0.15m2.74-0.53c0-0.42-0.01-0.83-0.01-1.25-0.28 0.34-0.27 0.91 0.01 1.25m-22.25-0.52c-2.55-4.65-1.11-10.89 0.69-15.52 0.53-1.37 1.85-0.76 2.82-0.26 0.36 0.19 1 0.59 1.16 0.96 0.27 0.65-0.23 1.5-0.43 2.1-0.32 0.99-0.76 1.93-1.09 2.92-0.36-0.48-0.11-1.23 0.02-1.75 0.22-0.9 0.19-1.83 0.18-2.75-1.67 2.25-1.94 4.83-1.92 7.52 1.45-0.76 0.31 1.84 0.09 2.51-0.23 0.71-0.46 1.42-0.67 2.13-0.2 0.65-0.27 1.69-0.85 2.14m3.72-2.28c-0.4 0.41-0.95 1.09-1.58 1.09-0.85 0.01-0.49-1.42-0.34-1.82 0.39-1.04 1.67-2.57 2.84-2.74 0.81-0.12 1.25 2.13 1.3 2.65s0.09 3.37-1.25 2.62c-0.59-0.34-0.76-1.21-0.97-1.8m18.01 0.81c0-0.5-0.01-1-0.02-1.5-0.33 0.38-0.28 1.11 0.02 1.5m-0.53-2.75c0-0.33-0.01-0.67-0.01-1-0.23 0.27-0.23 0.73 0.01 1m-0.76-1.49c0-0.25-0.01-0.5-0.01-0.75-0.21 0.23-0.19 0.52 0.01 0.75m-15.27-1.59c-0.77 0.37-1.34 1.03-2.24 1.02 0.01-1.03 0.72-1.91 1.32-2.68 0.51-0.66 1.16-1.93 2.08-2.06 0.42-0.07 0.34 0.13 0.44 0.53 0.33 1.26 0.48 2.53 0.35 3.84-0.05 0.52-0.59 1.08-1.11 0.84-0.49-0.22-0.66-1.04-0.84-1.49m8.74-0.84c0.64-0.18 1.84-0.32 1.37-1.18-0.41-0.76-1.66-0.45-1.63 0.43-0.53-0.36-2.41-1.57-2.18-0.06 0.13 0.84 0.95 0.27 1.35 0.63 0.33 0.29 0.09 1.06 0.1 1.44 0.76 0.01 1.22-0.52 0.99-1.26m5.75 0.19c0.07-0.39-0.16-0.88-0.26-1.25-0.28 0.36-0.23 0.82-0.24 1.25 0.16 0 0.35 0.03 0.5 0m-1.02-1.74c0-0.25 0-0.5-0.01-0.75-0.2 0.23-0.18 0.52 0.01 0.75m-5.25 0.05c0.37-0.71 0.6-1.46 0.84-2.22 0.1-0.32 0.05-0.74-0.17-1-0.13-0.16-0.83-0.71-1-0.47-0.18 0.27-0.4 0.5-0.65 0.71-0.65 0.54 0.49 2.54 0.98 2.98m4.24-2.04c0.04-0.29-0.13-0.5-0.26-0.75-0.2 0.22-0.19 0.47-0.24 0.75 0.15 0 0.34 0.03 0.5 0m-10.51-0.14c0.33-0.56 0.86-1.07 1.49-1.27 0.01 0.78-0.64 1.74-1.49 1.27"/>
  </g>
 </defs>
 <g transform="translate(-2009.8 -485.98)">
  <use xlink:href="#d" height="1216.1899" width="2178.99" y="486.27499" x="2010.9"/>
  <g stroke="#000" fill="none">
   <path d="m2018.9 311.16v177.39"/>
   <path d="m2018.9 488.54h132.27"/>
   <path d="m2170.5 432.24v-177.64"/>
   <path d="m2170.5 254.61h-132.27"/>
  </g>
  <use xlink:href="#a" transform="matrix(-2.4 0 0 -2.4 4094 563.31)" height="1216.1899" width="2178.99" y="117.357" x="852.90997"/>
  <rect height="37.968" width="9.6926" y="262.67" x="2028.5" fill="#fff"/>
  <use xlink:href="#a" transform="scale(2.4)" height="1216.1899" width="2178.99" y="192.34" x="892.66302"/>
  <rect height="37.968" width="9.6926" y="442.63" x="2151.6" fill="#fff"/>
  <g transform="matrix(.99951 -.031411 .031411 .99951 -10.638 65.979)">
   <line y2="310.85" stroke-width="7.25" x2="2136.5" stroke="#000" y1="432.31" x1="2052.8"/>
   <circle d="m 2057.45,429.24799 c 0,1.21502 -0.985,2.2 -2.2,2.2 -1.215,0 -2.2,-0.98498 -2.2,-2.2 0,-1.21503 0.985,-2.2 2.2,-2.2 1.215,0 2.2,0.98497 2.2,2.2 z" cy="429.25" cx="2055.2" r="2.2" fill="#fff"/>
   <circle cy="429.25" cx="2055.2" r=".7" d="m 2055.95,429.24799 c 0,0.3866 -0.3134,0.7 -0.7,0.7 -0.3866,0 -0.7,-0.3134 -0.7,-0.7 0,-0.3866 0.3134,-0.7 0.7,-0.7 0.3866,0 0.7,0.3134 0.7,0.7 z"/>
   <circle d="m 2060.75,424.45499 c 0,1.21502 -0.9849,2.2 -2.2,2.2 -1.215,0 -2.2,-0.98498 -2.2,-2.2 0,-1.21503 0.985,-2.2 2.2,-2.2 1.2151,0 2.2,0.98497 2.2,2.2 z" cy="424.45" cx="2058.6" r="2.2" fill="#fff"/>
   <circle cy="424.45" cx="2058.6" r=".7" d="m 2059.25,424.45499 c 0,0.3866 -0.3134,0.7 -0.7,0.7 -0.3866,0 -0.7,-0.3134 -0.7,-0.7 0,-0.3866 0.3134,-0.7 0.7,-0.7 0.3866,0 0.7,0.3134 0.7,0.7 z"/>
   <circle d="m 2064.0601,419.66299 c 0,1.21503 -0.985,2.2 -2.2,2.2 -1.215,0 -2.2,-0.98497 -2.2,-2.2 0,-1.21502 0.985,-2.2 2.2,-2.2 1.215,0 2.2,0.98498 2.2,2.2 z" cy="419.66" cx="2061.9" r="2.2" fill="#fff"/>
   <circle cy="419.66" cx="2061.9" r=".7" d="m 2062.5601,419.66299 c 0,0.3866 -0.3134,0.7 -0.7,0.7 -0.3866,0 -0.7,-0.3134 -0.7,-0.7 0,-0.38659 0.3134,-0.7 0.7,-0.7 0.3866,0 0.7,0.31341 0.7,0.7 z"/>
   <circle d="m 2067.3599,414.87 c 0,1.21502 -0.985,2.2 -2.2,2.2 -1.215,0 -2.2,-0.98498 -2.2,-2.2 0,-1.21503 0.985,-2.2 2.2,-2.2 1.215,0 2.2,0.98497 2.2,2.2 z" cy="414.87" cx="2065.2" r="2.2" fill="#fff"/>
   <circle cy="414.87" cx="2065.2" r=".7" d="m 2065.8599,414.87 c 0,0.38659 -0.3134,0.7 -0.7,0.7 -0.3866,0 -0.7,-0.31341 -0.7,-0.7 0,-0.3866 0.3134,-0.7 0.7,-0.7 0.3866,0 0.7,0.3134 0.7,0.7 z"/>
   <circle d="m 2070.66,410.078 c 0,1.21503 -0.985,2.2 -2.2,2.2 -1.2151,0 -2.2,-0.98497 -2.2,-2.2 0,-1.21502 0.9849,-2.2 2.2,-2.2 1.215,0 2.2,0.98498 2.2,2.2 z" cy="410.08" cx="2068.5" r="2.2" fill="#fff"/>
   <circle cy="410.08" cx="2068.5" r=".7" d="m 2069.16,410.078 c 0,0.3866 -0.3134,0.7 -0.7,0.7 -0.3866,0 -0.7,-0.3134 -0.7,-0.7 0,-0.3866 0.3134,-0.7 0.7,-0.7 0.3866,0 0.7,0.3134 0.7,0.7 z"/>
   <circle d="m 2073.97,405.285 c 0,1.21503 -0.985,2.2 -2.2,2.2 -1.215,0 -2.2,-0.98497 -2.2,-2.2 0,-1.21502 0.985,-2.2 2.2,-2.2 1.215,0 2.2,0.98498 2.2,2.2 z" cy="405.28" cx="2071.8" r="2.2" fill="#fff"/>
   <circle cy="405.28" cx="2071.8" r=".7" d="m 2072.47,405.285 c 0,0.3866 -0.3134,0.7 -0.7,0.7 -0.3866,0 -0.7,-0.3134 -0.7,-0.7 0,-0.3866 0.3134,-0.7 0.7,-0.7 0.3866,0 0.7,0.3134 0.7,0.7 z"/>
   <circle d="m 2077.2701,400.49301 c 0,1.21503 -0.985,2.2 -2.2,2.2 -1.2151,0 -2.2,-0.98497 -2.2,-2.2 0,-1.21503 0.9849,-2.2 2.2,-2.2 1.215,0 2.2,0.98497 2.2,2.2 z" cy="400.49" cx="2075.1" r="2.2" fill="#fff"/>
   <circle cy="400.49" cx="2075.1" r=".7" d="m 2075.7701,400.49301 c 0,0.3866 -0.3134,0.7 -0.7,0.7 -0.3866,0 -0.7,-0.3134 -0.7,-0.7 0,-0.3866 0.3134,-0.7 0.7,-0.7 0.3866,0 0.7,0.3134 0.7,0.7 z"/>
   <circle d="m 2080.5701,395.70001 c 0,1.21503 -0.985,2.2 -2.2,2.2 -1.215,0 -2.2,-0.98497 -2.2,-2.2 0,-1.21502 0.985,-2.2 2.2,-2.2 1.215,0 2.2,0.98498 2.2,2.2 z" cy="395.7" cx="2078.4" r="2.2" fill="#fff"/>
   <circle cy="395.7" cx="2078.4" r=".7" d="m 2079.0701,395.70001 c 0,0.3866 -0.3134,0.7 -0.7,0.7 -0.3866,0 -0.7,-0.3134 -0.7,-0.7 0,-0.3866 0.3134,-0.7 0.7,-0.7 0.3866,0 0.7,0.3134 0.7,0.7 z"/>
   <circle d="m 2083.8699,390.90799 c 0,1.21503 -0.985,2.2 -2.2,2.2 -1.215,0 -2.2,-0.98497 -2.2,-2.2 0,-1.21503 0.985,-2.2 2.2,-2.2 1.215,0 2.2,0.98497 2.2,2.2 z" cy="390.91" cx="2081.7" r="2.2" fill="#fff"/>
   <circle cy="390.91" cx="2081.7" r=".7" d="m 2082.3699,390.90799 c 0,0.3866 -0.3134,0.7 -0.7,0.7 -0.3866,0 -0.7,-0.3134 -0.7,-0.7 0,-0.3866 0.3134,-0.7 0.7,-0.7 0.3866,0 0.7,0.3134 0.7,0.7 z"/>
   <circle d="m 2087.18,386.11499 c 0,1.21503 -0.985,2.2 -2.2,2.2 -1.215,0 -2.2,-0.98497 -2.2,-2.2 0,-1.21503 0.985,-2.2 2.2,-2.2 1.215,0 2.2,0.98497 2.2,2.2 z" cy="386.11" cx="2085" r="2.2" fill="#fff"/>
   <circle cy="386.11" cx="2085" r=".7" d="m 2085.68,386.11499 c 0,0.3866 -0.3134,0.7 -0.7,0.7 -0.3866,0 -0.7,-0.3134 -0.7,-0.7 0,-0.3866 0.3134,-0.7 0.7,-0.7 0.3866,0 0.7,0.3134 0.7,0.7 z"/>
   <circle d="m 2090.48,381.323 c 0,1.21502 -0.9849,2.2 -2.2,2.2 -1.215,0 -2.2,-0.98498 -2.2,-2.2 0,-1.21503 0.985,-2.2 2.2,-2.2 1.2151,0 2.2,0.98497 2.2,2.2 z" cy="381.32" cx="2088.3" r="2.2" fill="#fff"/>
   <circle cy="381.32" cx="2088.3" r=".7" d="m 2088.98,381.323 c 0,0.3866 -0.3134,0.7 -0.7,0.7 -0.3866,0 -0.7,-0.3134 -0.7,-0.7 0,-0.3866 0.3134,-0.7 0.7,-0.7 0.3866,0 0.7,0.3134 0.7,0.7 z"/>
   <circle d="m 2093.7801,376.53 c 0,1.21503 -0.985,2.2 -2.2,2.2 -1.215,0 -2.2,-0.98497 -2.2,-2.2 0,-1.21503 0.985,-2.2 2.2,-2.2 1.215,0 2.2,0.98497 2.2,2.2 z" cy="376.53" cx="2091.6" r="2.2" fill="#fff"/>
   <circle cy="376.53" cx="2091.6" r=".7" d="m 2092.2801,376.53 c 0,0.3866 -0.3134,0.7 -0.7,0.7 -0.3866,0 -0.7,-0.3134 -0.7,-0.7 0,-0.3866 0.3134,-0.7 0.7,-0.7 0.3866,0 0.7,0.3134 0.7,0.7 z"/>
   <circle d="m 2097.0899,371.737 c 0,1.21503 -0.985,2.2 -2.2,2.2 -1.215,0 -2.2,-0.98497 -2.2,-2.2 0,-1.21503 0.985,-2.2 2.2,-2.2 1.215,0 2.2,0.98497 2.2,2.2 z" cy="371.74" cx="2094.9" r="2.2" fill="#fff"/>
   <circle cy="371.74" cx="2094.9" r=".7" d="m 2095.5899,371.737 c 0,0.3866 -0.3134,0.7 -0.7,0.7 -0.3866,0 -0.7,-0.3134 -0.7,-0.7 0,-0.3866 0.3134,-0.7 0.7,-0.7 0.3866,0 0.7,0.3134 0.7,0.7 z"/>
   <circle d="m 2100.3899,366.94501 c 0,1.21502 -0.9849,2.2 -2.2,2.2 -1.215,0 -2.2,-0.98498 -2.2,-2.2 0,-1.21503 0.985,-2.2 2.2,-2.2 1.2151,0 2.2,0.98497 2.2,2.2 z" cy="366.95" cx="2098.2" r="2.2" fill="#fff"/>
   <circle cy="366.95" cx="2098.2" r=".7" d="m 2098.8899,366.94501 c 0,0.3866 -0.3134,0.7 -0.7,0.7 -0.3866,0 -0.7,-0.3134 -0.7,-0.7 0,-0.3866 0.3134,-0.7 0.7,-0.7 0.3866,0 0.7,0.3134 0.7,0.7 z"/>
   <circle d="m 2103.69,362.15201 c 0,1.21502 -0.985,2.2 -2.2,2.2 -1.215,0 -2.2,-0.98498 -2.2,-2.2 0,-1.21503 0.985,-2.2 2.2,-2.2 1.215,0 2.2,0.98497 2.2,2.2 z" cy="362.15" cx="2101.5" r="2.2" fill="#fff"/>
   <circle cy="362.15" cx="2101.5" r=".7" d="m 2102.19,362.15201 c 0,0.3866 -0.3134,0.7 -0.7,0.7 -0.3866,0 -0.7,-0.3134 -0.7,-0.7 0,-0.3866 0.3134,-0.7 0.7,-0.7 0.3866,0 0.7,0.3134 0.7,0.7 z"/>
   <circle d="m 2107,357.35999 c 0,1.21502 -0.9849,2.2 -2.2,2.2 -1.215,0 -2.2,-0.98498 -2.2,-2.2 0,-1.21503 0.985,-2.2 2.2,-2.2 1.2151,0 2.2,0.98497 2.2,2.2 z" cy="357.36" cx="2104.8" r="2.2" fill="#fff"/>
   <circle cy="357.36" cx="2104.8" r=".7" d="m 2105.5,357.35999 c 0,0.38659 -0.3134,0.7 -0.7,0.7 -0.3866,0 -0.7,-0.31341 -0.7,-0.7 0,-0.3866 0.3134,-0.7 0.7,-0.7 0.3866,0 0.7,0.3134 0.7,0.7 z"/>
   <circle d="m 2110.3001,352.56699 c 0,1.21502 -0.985,2.2 -2.2,2.2 -1.215,0 -2.2,-0.98498 -2.2,-2.2 0,-1.21503 0.985,-2.2 2.2,-2.2 1.215,0 2.2,0.98497 2.2,2.2 z" cy="352.57" cx="2108.1" r="2.2" fill="#fff"/>
   <circle cy="352.57" cx="2108.1" r=".7" d="m 2108.8001,352.56699 c 0,0.3866 -0.3134,0.7 -0.7,0.7 -0.3866,0 -0.7,-0.3134 -0.7,-0.7 0,-0.3866 0.3134,-0.7 0.7,-0.7 0.3866,0 0.7,0.3134 0.7,0.7 z"/>
   <circle d="m 2113.5999,347.77499 c 0,1.21503 -0.985,2.2 -2.2,2.2 -1.215,0 -2.2,-0.98497 -2.2,-2.2 0,-1.21502 0.985,-2.2 2.2,-2.2 1.215,0 2.2,0.98498 2.2,2.2 z" cy="347.77" cx="2111.4" r="2.2" fill="#fff"/>
   <circle cy="347.77" cx="2111.4" r=".7" d="m 2112.0999,347.77499 c 0,0.3866 -0.3134,0.7 -0.7,0.7 -0.3866,0 -0.7,-0.3134 -0.7,-0.7 0,-0.3866 0.3134,-0.7 0.7,-0.7 0.3866,0 0.7,0.3134 0.7,0.7 z"/>
   <circle d="m 2116.91,342.98199 c 0,1.21503 -0.985,2.2 -2.2,2.2 -1.2151,0 -2.2,-0.98497 -2.2,-2.2 0,-1.21502 0.9849,-2.2 2.2,-2.2 1.215,0 2.2,0.98498 2.2,2.2 z" cy="342.98" cx="2114.7" r="2.2" fill="#fff"/>
   <circle cy="342.98" cx="2114.7" r=".7" d="m 2115.41,342.98199 c 0,0.3866 -0.3134,0.7 -0.7,0.7 -0.3866,0 -0.7,-0.3134 -0.7,-0.7 0,-0.38659 0.3134,-0.7 0.7,-0.7 0.3866,0 0.7,0.31341 0.7,0.7 z"/>
   <circle d="m 2120.21,338.19 c 0,1.21503 -0.985,2.2 -2.2,2.2 -1.215,0 -2.2,-0.98497 -2.2,-2.2 0,-1.21502 0.985,-2.2 2.2,-2.2 1.215,0 2.2,0.98498 2.2,2.2 z" cy="338.19" cx="2118" r="2.2" fill="#fff"/>
   <circle cy="338.19" cx="2118" r=".7" d="m 2118.71,338.19 c 0,0.3866 -0.3134,0.7 -0.7,0.7 -0.3866,0 -0.7,-0.3134 -0.7,-0.7 0,-0.3866 0.3134,-0.7 0.7,-0.7 0.3866,0 0.7,0.3134 0.7,0.7 z"/>
   <circle d="m 2123.5101,333.397 c 0,1.21503 -0.985,2.2 -2.2,2.2 -1.2151,0 -2.2,-0.98497 -2.2,-2.2 0,-1.21502 0.9849,-2.2 2.2,-2.2 1.215,0 2.2,0.98498 2.2,2.2 z" cy="333.4" cx="2121.3" r="2.2" fill="#fff"/>
   <circle cy="333.4" cx="2121.3" r=".7" d="m 2122.0101,333.397 c 0,0.3866 -0.3134,0.7 -0.7,0.7 -0.3866,0 -0.7,-0.3134 -0.7,-0.7 0,-0.3866 0.3134,-0.7 0.7,-0.7 0.3866,0 0.7,0.3134 0.7,0.7 z"/>
   <circle d="m 2126.8201,328.60501 c 0,1.21503 -0.985,2.2 -2.2,2.2 -1.215,0 -2.2,-0.98497 -2.2,-2.2 0,-1.21503 0.985,-2.2 2.2,-2.2 1.215,0 2.2,0.98497 2.2,2.2 z" cy="328.61" cx="2124.6" r="2.2" fill="#fff"/>
   <circle cy="328.61" cx="2124.6" r=".7" d="m 2125.3201,328.60501 c 0,0.3866 -0.3134,0.7 -0.7,0.7 -0.3866,0 -0.7,-0.3134 -0.7,-0.7 0,-0.3866 0.3134,-0.7 0.7,-0.7 0.3866,0 0.7,0.3134 0.7,0.7 z"/>
   <circle d="m 2130.1199,323.81201 c 0,1.21503 -0.985,2.2 -2.2,2.2 -1.215,0 -2.2,-0.98497 -2.2,-2.2 0,-1.21502 0.985,-2.2 2.2,-2.2 1.215,0 2.2,0.98498 2.2,2.2 z" cy="323.81" cx="2127.9" r="2.2" fill="#fff"/>
   <circle cy="323.81" cx="2127.9" r=".7" d="m 2128.6199,323.81201 c 0,0.3866 -0.3134,0.7 -0.7,0.7 -0.3866,0 -0.7,-0.3134 -0.7,-0.7 0,-0.3866 0.3134,-0.7 0.7,-0.7 0.3866,0 0.7,0.3134 0.7,0.7 z"/>
   <circle d="m 2133.42,319.01999 c 0,1.21503 -0.985,2.2 -2.2,2.2 -1.2151,0 -2.2,-0.98497 -2.2,-2.2 0,-1.21503 0.9849,-2.2 2.2,-2.2 1.215,0 2.2,0.98497 2.2,2.2 z" cy="319.02" cx="2131.2" r="2.2" fill="#fff"/>
   <circle cy="319.02" cx="2131.2" r=".7" d="m 2131.92,319.01999 c 0,0.3866 -0.3134,0.7 -0.7,0.7 -0.3866,0 -0.7,-0.3134 -0.7,-0.7 0,-0.3866 0.3134,-0.7 0.7,-0.7 0.3866,0 0.7,0.3134 0.7,0.7 z"/>
   <circle d="m 2136.72,314.22699 c 0,1.21503 -0.985,2.2 -2.2,2.2 -1.215,0 -2.2,-0.98497 -2.2,-2.2 0,-1.21503 0.985,-2.2 2.2,-2.2 1.215,0 2.2,0.98497 2.2,2.2 z" cy="314.23" cx="2134.5" r="2.2" fill="#fff"/>
   <circle cy="314.23" cx="2134.5" r=".7" d="m 2135.22,314.22699 c 0,0.3866 -0.3134,0.7 -0.7,0.7 -0.3866,0 -0.7,-0.3134 -0.7,-0.7 0,-0.3866 0.3134,-0.7 0.7,-0.7 0.3866,0 0.7,0.3134 0.7,0.7 z"/>
  </g>
  <use xlink:href="#c" height="1216.1899" width="2178.99" y="287.15701" x="2014.9" fill="#e6180a"/>
  <use xlink:href="#c" transform="matrix(-1 0 0 -1 4348.9 911.99)" height="1216.1899" width="2178.99" y="455.995" x="2174.47" fill="#e6180a"/>
  <use xlink:href="#a" transform="matrix(-1 0 0 -1 4049.1 602.31)" height="1216.1899" width="2178.99" y="301.15701" x="2024.55"/>
  <use xlink:href="#a" height="1216.1899" width="2178.99" y="441.995" x="2164.8201"/>
  <use xlink:href="#b" transform="matrix(.99 0 0 .99 1638.4 -170.93)" height="1215.6875" width="2178.4751" y="0" x="0"/>
  <use xlink:href="#b" transform="matrix(-.99 0 0 -.99 2551.1 914.14)" height="1215.6875" width="2178.4751" y="0" x="0"/>
 </g>
</svg>
