<?xml version="1.0" encoding="UTF-8" standalone="no"?>
<svg xmlns:rdf="http://www.w3.org/1999/02/22-rdf-syntax-ns#" xmlns="http://www.w3.org/2000/svg" height="244.55" viewBox="-0.2 -236 169.07499 244.54905" width="169.01" version="1.1" xmlns:cc="http://creativecommons.org/ns#" xmlns:xlink="http://www.w3.org/1999/xlink" xmlns:dc="http://purl.org/dc/elements/1.1/">
 <defs>
  <g id="b">
   <path fill="#e61408" d="m28.58 336.13-6.02 0.58-2.22 3.33-1.39 5.16c1.1 1.4 2.21 2.72 3.42 4.03l1.71-0.26 2.2 0.43c1.39-0.6 2.79-1.2 4.19-1.78l0.68-2.06 1.32-0.57 0.71-2.01-2.26-5.3-2.34-1.55"/>
   <path fill="#f8c20f" d="m33.49 325.32-4.27 0.56-2.01 1.72-1.44-0.06-1.87-4.28 0.06-4.02-0.57-0.67-1.01 0.02-0.26 1.83 0.67 5.19-0.48 2.41-1.75-1.36c-1.97-0.86-3.95-1.68-5.94-2.49l-1.68 3.38 1.65 3.67 1.83 0.97 2.11 0.36c1.52-1 2.81-2.28 4.15-3.5l0.78 0.16 1.03 5.61 1.94 1.05-1.05-6.83 4.28 3.38c1.7 0.48 3.35 0.79 5.1 1.08l1.78-1.29 0.24-1.63 1.61-2.25-0.31-2.26-4.59-0.75"/>
   <path fill="#f8c20f" d="m95.29 361.71-2.97 0.14-2.53-1.93-1.7-0.02-3.15 4.38c-2.39 2.4-4.75 4.5-7.42 6.58l-4.96 2.33-6.01 1.06-0.47 1.78 0.49 3.1c2.5-0.03 4.94-0.33 7.43-0.6l1.81 2.71 1.71-0.32-1.45-1.95 1.72-2.87 2.25-0.3c-0.17 0.94-0.48 1.86-0.88 2.73l0.9 1.1c1.55 0.55 3.06 1.09 4.55 1.79l1.74 0.28 1.07-3.53 0.12-4.49-0.9-0.5-2.47 1.41-1.2 0.02 1.04-3.08 2.71-2.2c1.59 1.21 3.18 2.41 4.78 3.61l1.07-0.57-1.15-2.66-2.7-1.19 0.35-2.98 2.76-2.46 0.42 2.23 1.08 0.92 2.75-0.17 0.37-1.4 2.19-0.35 1.72-1.77-2.76 0.19-2.31-1.02"/>
   <polyline points="122.93 293.22 123.49 294.19 123.88 294.32 124.27 294.76 125.84 295.02 126.88 292.71 125.41 292.48 124.39 292.55 122.93 293.22" fill="#1c1585"/>
   <path fill="#1c1585" d="m117.8 303.21-1.21 0.71c-0.93 0.93-1.73 1.99-2.56 3.01l-0.33 2.38 0.63 1.96 1.07-1.08-0.09-0.62-0.29-0.67 0.1-0.65-0.22-1.51 1.66-1.47 0.51-0.14 0.24-0.24 0.56 0.03 1.48-0.39-0.38-1.06-0.28-0.24c-0.3-0.01-0.59-0.02-0.89-0.02"/>
   <path fill="#1c1585" d="m104.03 281.1 1.53 0.46c6.87 0.87 13.33 1.49 20.25 1.49l-0.17-2.04-2.94-5.98-2.44-3.36 0.06-0.06-5.28-6.69-1.15-0.67c-1.36-1.18-2.7-2.36-4.07-3.53l-1.76-0.76-3.81-0.92 0.89 3.52-1.31-0.27-2.18-1.28-0.16 1.19 0.62 3.31-2.65-1.2-0.91-0.09 0.42 3.31-1.69-0.18 0.77 2.8 0.11 0.23 1.53 1.87 4.34 8.85"/>
   <path fill="#1c1585" d="m102.6 312.21 0.32-2.07-0.01-0.36c0.15-0.54 0.26-1.1 0.32-1.66 0.41-1 0.71-2.05 0.96-3.1l0.52-0.91 0.07-0.19c0.83-1.28 1.54-2.63 2.3-3.95l0.58-0.53 0.33-0.51c1.3-1.03 2.52-2.1 3.75-3.22l0.79-0.37 0.04-0.03c1.24-0.55 2.46-1.13 3.68-1.7l-0.39-0.86-0.34-0.07c-3.01 0.03-5.97-1.1-8.85-1.8-1.74-0.64-3.55-1.11-5.32-1.65-2.6-1.43-5.28-2.77-7.79-4.35l-0.57 1.23c-0.05 8.41-0.16 16.65 0.79 25l2.73 5.55c1.06 1.38 2.11 2.76 3.22 4.1l4.7-1.32c-0.39-1.33-0.9-2.61-1.39-3.9l-0.44-3.33"/>
   <path fill="#e61408" d="m113.89 264.25c0.71 0.41 1.42 0.83 2.13 1.24l2.66 3.8 1.33-0.11c2.4-4.05 3.99-8.49 5.81-12.83l1.14-4.94c-0.68-2.04-1.28-4.07-2.22-6 1.59-6.6 2.05-12.81 2.25-19.59l-1.14-2.99c-2.34-2.03-4.75-3.87-7.23-5.73-1.85 6.51-3.48 13.21-5.89 19.54-2.48 6.52-6 12.52-9.31 18.64 3.5 2.98 7 5.96 10.47 8.97"/>
   <path fill="#e61408" d="m96.71 317.06c-0.97-1.99-1.95-3.97-2.93-5.96-0.93-8.18-0.73-16.23-1.07-24.45l-9.61-5.59-18.13-4.76-1.45 4.03c2.83 8.49 4.66 15.92 4.7 24.92l0.67 0.09 6.19-0.18 3.53-1.02 0.06 0.06 0.03-0.01 1.5 0.96c2.18 4.16 4.52 7.43 7.56 11.01 2.38 1.66 4.71 3.51 7.27 4.89l3.1 0.93 1.72-1.08c-1.05-1.27-2.09-2.55-3.14-3.84"/>
   <path fill="#e61408" d="m91.81 280.66 0.33-1.29 0.13-6.29 2.45-2.29 2.95-1.25c-1.58-2.85-3.12-5.58-5.03-8.22l-1.32-1.26c-0.63-0.26-1.27-0.44-1.94-0.54l-0.43-0.32-0.42-0.15c-0.67-0.66-1.41-1.25-2.19-1.78-0.37-0.43-0.75-0.85-1.15-1.25-0.41-0.5-0.83-0.98-1.27-1.45l-0.45-1.05-0.55-0.81c-0.29-1.44-0.95-2.75-1.52-4.09l0.05-1.4-0.37-1.39-16.08 25.27-0.04 0.43 25.49 9.12 1.36 0.01"/>
   <path fill="#e61408" d="m99.75 225.25 1.48-0.07 0.35-5.48-0.5-3.63-0.71-0.57-6.27 10.02c1.71-0.08 3.28-0.2 4.96-0.52l0.69 0.25"/>
   <path fill="#e61408" d="m51.75 305.43 1.38-1.24c0.92-5.05 1.82-10.04 2.4-15.14l-1.01-1.43c-3.69 5.32-7.18 10.75-10.67 16.21l3.38 1.38 2.61 0.31 1.91-0.09"/>
   <path fill="#f8c20f" d="m82.55 251.35c0.46 1.07 0.91 2.15 1.36 3.22 0.81 0.9 1.61 1.8 2.42 2.7 1.01 0.75 2.03 1.5 3.04 2.25 0.76 0.15 1.51 0.31 2.27 0.46 0.26-5.48 0.34-10.97 1.08-16.4 0.88-2.62 2.02-5.01 3.23-7.5l0.48-3.24 1.6-3.1 2.99-2.59 0.5-1.25c-0.82-0.3-1.65-0.6-2.47-0.9-1.75 0.33-3.51 0.66-5.26 0.99-4.17 6.42-8.05 13.02-12.28 19.39l-0.12 3.24 1.16 2.73"/>
   <path fill="#f8c20f" d="m132.87 279.34-7-5.77-4.89-2.66c-0.24 0.25-0.48 0.51-0.72 0.76 1.73 2.38 3.46 4.75 5.19 7.13 0.13 1.47 0.25 2.95 0.38 4.42-7.28-0.14-14.76 0-21.8-2.12l-4.34-8.85c-0.68-0.84-1.37-1.67-2.05-2.51l-3.54 1.78-1.79 2.77c0.13 3.29-0.01 6.57 0.07 9.86 2.94 1.79 5.96 3.41 8.97 5.07 4.25 1.29 8.36 2.54 12.73 3.33 4.15 0.75 8.63 0.11 12.8-0.17l3.17-3.93 3.42-6.02-0.6-3.09"/>
   <path fill="#f8c20f" d="m91.01 318.72-3.2-2.49c-2.99-3.52-5.46-6.99-7.91-10.9-0.43-0.39-0.86-0.79-1.29-1.18-1.25 0.36-2.49 0.72-3.74 1.08l-4.29 0.35c-1.93-0.26-3.87-0.53-5.8-0.79l-2.36-0.74-5.27 1.42-5.65 0.26c-2.4-0.29-4.8-0.57-7.2-0.86l-0.75 1.71 0.18 0.87-0.13-0.41-0.9-1.35c-1.78 2.01-2.58 4.68-4.34 6.71l1.42 2.91c2.56 2.46 5.38 4.23 8.46 5.98l1.17-0.6-0.84-1.1c2.11 1.96 4.21 3.73 6.51 5.48l4.88 1.89 3.55-1.92 5.29-0.68 4.6 0.24 2.92 0.64 3.64 1.45 3.36 2.05 13.1-5.64-0.12-1.3c-1.76-1.03-3.53-2.06-5.29-3.08"/>
   <path fill="#f8c20f" d="m123.49 294.19-2.41-0.83-4.47 0.41c-1.35 0.51-2.69 1.02-4.04 1.53-1.53 1.21-3.05 2.41-4.58 3.62-1.07 1.66-2.14 3.33-3.21 4.99-0.52 1.4-1.03 2.8-1.55 4.2-0.21 1.36-0.42 2.73-0.63 4.09l0.44 3.33 1.14 3.03 1.64 0.82 4.11-2.53 2.04-1.78 2.5-3.37c-0.26-0.8-0.51-1.6-0.77-2.4 0.12-0.84 0.23-1.67 0.35-2.51 0.83-0.98 1.64-1.97 2.54-2.88l1.21-0.71c0.96 0.03 1.92-0.01 2.88-0.04 1.53-2.44 3.03-4.9 4.52-7.36-0.44-0.49-0.88-0.99-1.32-1.48l-0.39-0.13"/>
   <path fill="#f8c20f" d="m117.07 305.13-1.75 1.81c-0.1 0.65-0.2 1.31-0.3 1.96l0.57 1.32c1.21-1.12 2.08-2.58 3.04-3.91l0.29-1.33c-0.54-0.03-1.07-0.06-1.61-0.09l-0.24 0.24"/>
   <path d="m84 374.3c-0.31-1.09 0.16-2.16 0.9-2.98 0.62-0.68 2.12-1.6 2.99-0.88 0.77 0.63 0.38 1.78 1.51 2.27 1.13 0.5 2.38 0.8 3.62 0.82 0.02-0.95-0.08-2.05-0.6-2.87-0.26-0.4-0.44-0.87-0.81-1.18-0.53-0.43-1.37-0.49-1.98-0.77-1.73-0.79 0.71-4.76 2.14-4.97-0.33 0.6-0.28 1.22 0.14 1.76 0.31 0.4 1.12 1.44 1.69 1.4 0.82-0.05 2.72 0.02 3.16-0.93 0.15-0.31 0.08-0.84 0.49-0.89 0.48-0.06 0.9-0.01 1.37-0.2 1.03-0.41 2.67-1.54 2.69-2.79 0.01-0.33-1.79 0.03-2.01 0.05-1.36 0.13-2.29-0.26-3.48-0.83-0.93-0.44-2.14 0.33-3.17 0.01-1.18-0.37-2.22-2.31-3.52-2.15 0.03-1.68 1.11-3.14 2.08-4.42 1.14-1.52 2.18-3.09 3.18-4.71 2.16-3.51 4.04-7.16 6.12-10.7 2.11-3.58 2.55-7.31 3.12-11.34 0.27-1.91 0.91-3.75 1.32-5.62 0.32-1.42 0.88-2.66 2.31-3.25 3.42-1.46 6.01-5 8.25-7.84 2.55-3.24 4.71-6.72 6.89-10.21s4.23-7.05 6.52-10.47c1.16-1.73 2.34-3.45 3.43-5.22 0.9-1.46 2.23-3.11 1.53-4.9-0.9-2.3-3.35-3.88-5.25-5.3-1.26-0.94-2.58-1.8-3.92-2.63-1.21-0.74-2.84-1.25-3.82-2.29-0.85-0.9 0.19-2.18 0.6-3.02 0.74-1.51 1.42-3.05 2.07-4.6 1.23-2.95 2.61-5.92 3.33-9.04 0.33-1.4 0.44-2.87-0.05-4.24-0.44-1.25-1.93-2.93-1.75-4.32 0.19-1.4 0.77-2.82 1.08-4.21 0.38-1.67 0.67-3.37 0.74-5.08 0.06-1.58 0.32-3.13 0.36-4.71 0.04-1.63 0-3.22-0.08-4.85-0.16-3.27-2.35-4.71-4.68-6.66-2.57-2.14-5.33-4.1-8.1-5.96-2.73-1.83-5.63-3.97-8.65-5.28-0.59-0.26-0.62-0.3-0.99 0.25-0.33 0.49-0.77 1-1.01 1.54-0.25 0.55 0.43 1 0.54 1.62 0.18 1.01 0.18 2.12 0.64 3.06 0.54-0.24 2.4-2.01 2.85-1.45 0.8 1 0.6 2.33 0.85 3.55 1.04-0.17 1.82-1.28 2.79-1.68 0.24 1.11 0.44 2.38 0.41 3.51 1.15-0.16 1.91-1.22 3.04-1.42 0.13 0.93-0.06 2.35 0.32 3.19 0.16 0.36 0.65 0.85 0.96 0.41 0.26-0.37 0.68-0.71 1.15-0.78 0.03 0.49-0.38 3.53-1.39 3.34-1.46-0.32-2.71-1.23-3.99-1.98-1.45-0.85-2.92-1.7-4.38-2.53-2.21-1.27-5.99-2.1-5.81-5.24-0.68 0.55-1.37 1.6-1.56 2.46 0.99-0.39 0.7 2.1 0.73 2.53 0.05 0.86 0.21 1.68 0.16 2.54-0.05 0.9 0.39 2.11 0.11 2.95-0.41 1.22-2.58 0.36-3.53 0.49-1.63 0.22-3.05 0.05-3.98 1.56 0.98-0.25 7.45-2.11 7.4 0.32-0.05 1.85-2.86 1.41-3.93 1.45-0.98 0.04-2 0.25-2.94 0.55-0.45 0.14-0.89 0.32-1.35 0.41-0.31 0.06-0.92-0.16-1.13 0.17-0.42 0.63-0.92 1.3-1.18 2.02 2.76-1.21 4.92-2.62 8.07-2.54-1.17 0.95-2.74 0.98-4.15 1.25-1.57 0.3-2.65 1.17-3.94 2.03-0.35 0.24-0.7 0.21-0.99 0.55-0.38 0.46-0.66 1.01-0.94 1.53-0.77 1.44-1.64 2.56-2.05 4.17-0.93 3.59-1.25 7.69 0.23 11.17 0.57 1.33 1.37 2.53 2.44 3.49 0.78 0.7 2.38 1.87 1.93 3.12-2.71-2.04-4.63-4.53-5.66-7.78-0.51-1.64-0.82-3.4-0.74-5.11 0.06-1.27 1.05-2.8 0.84-4.02-0.64 0.49-1.01 1.26-1.34 1.97-0.45 0.95-0.29 1.6-0.27 2.62 0.04 2.25 0.54 4.55 1.4 6.63 0.76 1.83 1.85 3.33 3.35 4.63 1.36 1.17 3.16 2.09 2.84 4.17-0.07 0.43-1.06 0.51-1.4 0.4-2.3-0.77-4.73-3.26-5.99-5.28-1.59-2.55-2.48-5.97-2.52-8.96-1.58 1.24-0.48 3.81 0.06 5.3 0.44 1.24 1.05 2.52 1.14 3.84 0.1 1.49-0.41 3.03-0.74 4.47-0.67 2.94-1.46 5.85-2.39 8.72-0.42 1.31-1.63 7.15-3.71 6.83-0.58-0.09-1.03-0.27-1.53-0.58-1.29-0.79-0.5-2.57-0.25-3.73 0.43-1.98 0.89-3.95 1.33-5.93 0.87-3.87 0.89-7.9 1.66-11.79-1.34 0.74-1.26 2.35-1.38 3.64-0.17 1.92-0.37 3.85-0.73 5.75-0.34 1.81-0.54 3.64-0.94 5.44-0.39 1.73-0.68 3.92-1.74 5.38-0.62 0.84-1.98 0.29-2.79 0.03-1.5-0.48-3.01-0.9-4.47-1.49-0.45-0.18-1.11 1.31-1.28 1.59-0.64 1.07-0.61 1.79-0.32 2.98 0.55 2.25-1.4 5.81-3.94 5.77-0.3-0.01-0.6-0.07-0.88-0.18-0.53-0.21-0.54 0.3-0.81 0.74-0.62 1.02-1.3 2-1.96 3-0.52 0.8-1.02 1.62-1.43 2.48-0.35 0.76 0.52 1.53 0.41 2.3-0.38-0.49-0.72-1.13-0.7-1.77-1.49 1.22-0.04 3.28 0.22 4.75 0.2 1.16 0.54 3.25-0.69 3.99 0.06-2.35-0.6-4.47-0.83-6.77-0.76 0.59-0.61 1.49-0.46 2.32 0.24 1.34 0.41 2.71 0.53 4.06 0.21 2.42-0.05 4.91-0.17 7.33 0 0.08-0.46 0.08-0.5 0.03-0.29-0.3 0-1.31 0.04-1.68 0.12-1.12 0.07-2.29 0.1-3.42 0.04-1.46 0.08-4.99-1.86-5.46-0.3 0.88 0.33 1.87 0.64 2.66 0.32 0.81 0.37 1.72 0.35 2.58-0.05 2.31 0.09 4.54-0.56 6.77-1.43-0.5-3.01-0.21-4.48-0.54-0.17-0.04-2.64-1.06-2.77-0.84-0.14 0.22-1.61 2.16-1.19 2.47 0.45 0.32 0.53 0.67 0.63 1.21-0.29-0.15-1.16-0.68-1.49-0.54-0.45 0.2-0.67 1.11-0.9 1.5-0.6 0.96-1.32 1.87-1.71 2.94 0.45 0.26 0.98 0.26 1.49 0.29 0.02-0.81 0.27-3.32 1.67-2.11 0.45 0.39 1.12 0.86 1.19 1.52 0.02 0.21-0.77 2.45-0.44 2.52 0.86 0.17 1.97-0.62 2.38 0.59 0.06 0.18 0.68 1.89 0.24 1.88-0.61-0.02-1.16 0.09-1.66 0.46 0.37 0.69 1.62 1.11 2.26 1.54 0.14 0.09 0.01 0.91 0 1.09-0.01 0.58-1.28-0.08-1.5-0.2-1.11-0.63-1.52-1.51-1.62-2.73-0.2-2.51-2.78-3.29-4.78-3.85-0.61 2.25 1.53 3.08 2.43 4.86 0.46 0.92 0.53 1.96 0.82 2.93 0.23 0.79 0.66 1.72 0.48 2.56-1.38-0.2-2.41-1.45-3.47-2.24-1.22-0.9-2.31-1.98-3.65-2.7 0.03 0.23-0.31 0.61-0.27 0.74 0.06 0.19 1.1 0.67 1.26 0.8 0.64 0.52 1.31 1 1.99 1.47 1.35 0.93 2.76 1.9 3.89 3.09 1.05 1.1 1.33 2.34 1.69 3.77 0.44 1.77 0.92 3.53 1.41 5.29 0.96 3.47 1.8 6.97 2.72 10.45 0.46 1.74 0.87 3.49 1.35 5.21 0.2 0.72 0.42 1.43 0.63 2.14 0.14 0.45 0.64 0.98 0.5 1.48-0.36 1.24-1.24 2.15-1.37 3.5-0.13 1.37 0.61 2.56 1.44 3.56 0.88 1.06 0.42 1.92 0.62 3.15 0.22 1.37 1.11 1.97 2.27 2.63 1.16 0.67 1.56 1.93 2.29 2.99 0.84 1.22 2.02 2.24 3.23 3.08 1.11 0.77 2.31 1.43 3.55 1.98 0.53 0.23 3.32 0.85 3.34 1.59 0.06 1.21-0.21 2.22 0.06 3.46 0.13 0.62 0.21 2.2 1.06 2.16 0.66-0.04 1.11-0.18 1.74-0.41 0.09 0.36 0.29 0.7 0.47 1.01 0.95-0.77 1.68-1.43 3.02-1.47 0.69-0.02 2.27 0.04 2.3 1.03 0.02 0.51-0.26 1.03 0.32 1.2 0.83 0.24 1.67-0.2 2.52-0.07 0.63 0.09 1.49 0.29 1.84-0.42-0.78-0.11-2.4-1.67-2.11-2.5 0.38-1.08 1.75-2.38 2.98-2.23-0.2 0.53-0.49 1.01-0.71 1.54-0.3 0.76 0.11 0.99 0.61 1.6 0.82 0.99 1.9 0.85 2.98 1.19-0.24 0.13-0.48 0.74-0.11 0.75 1.23 0.03 2.34 0.35 3.54 0.56 1.4 0.23 1.57-2.51 1.85-3.34 0.5-1.5 0.3-3.51-0.04-5.04-0.13-0.61-1.53-0.79-2.02-0.77-0.92 0.06-1.39 0.76-1.84 1.39m1.56 7.03c-0.35-0.8-1.16-0.7-1.88-0.57-0.27 0.05-0.5-1.76-0.55-1.99-0.64 0.3-1.3 0.94-2.07 0.7-0.32-0.1-1.45-0.39-1.41-0.83 0.03-0.52 0.47-1.94 1.16-1.93 0.64 0.01 1.32 1.14 1.81 1.5 0.86 0.63 1.68 0.77 2.71 0.87 0.12 0.01 0.19-0.88 0.8-0.73-0.11-0.79-1.05-0.71-1.21-1.28-0.15-0.46 0.72-1.46 0.8-1.98-0.28-0.04-0.51 0.11-0.76 0.23 0.05-1.03 1.05-1.96 2.09-1.52 0.69 0.29-0.22 2.36-0.77 2.53-0.05 0.02 0.66 2.02 0.55 2.31-0.38 0.96 0.03 2.72-1.27 2.69m-9.49-0.5c0.33-0.61 0.46-0.61 0.75 0.02-0.25-0.01-0.5-0.01-0.75-0.02m-9.2-1.99c0.51-0.74 1.61-0.64 2.39-0.74 1.33-0.17 2.67-0.67 3.92-1.12 2.61-0.94 5.25-2.17 7.48-3.84 2.05-1.54 3.77-3.48 5.39-5.46 0.9-1.1 1.77-2.22 2.67-3.32 0.59-0.72 1.58-2.48 2.6-2.63 0.14 1.03-0.95 1.84-1.52 2.54-0.91 1.12-1.82 2.24-2.73 3.35-1.65 2-3.36 4.2-5.52 5.67-4.47 3.03-9.12 5.52-14.68 5.55m7.76-0.29c-0.12-0.66 0.5-0.65 1.02-0.72-0.08 0.44-0.49 1.67-1.02 0.72m-6.98-0.94c0.05-0.78-0.76-2.57-0.02-2.93 0.33-0.15 0.76-0.2 1.11-0.29 0.17 1.19-0.73 1.63 0.17 2.76-0.36 0.24-0.83 0.41-1.26 0.46m15.29-1.1c0.46 0.07 1.15 0.12 0.98 0.78-0.43-0.1-0.94-0.28-0.98-0.78m-12.52 0.42c0.09-0.45 0.37-1.04 0.29-1.49 0.26 0.27 0.35 0.63 0.41 0.99 0.11 0.65-0.08 0.53-0.7 0.5m-3.99-0.35c0.06-0.36 0.41-0.57 0.76-0.48-0.17 0.29-0.47 0.37-0.76 0.48m14.28-0.87c0.09-0.42 0.43-0.86 0.78-1.11 0.41-0.29 0.69-0.47 0.96-0.01 0.6 1.01-1.12 1.33-1.74 1.12m-6.26 0.09c0.18-0.95-0.52-1.63-0.68-2.52 0.14-0.04 0.97-0.31 1.03-0.16 0.25 0.58 0.68 1.52 0.66 2.16-0.01 0.45-0.58 0.45-1.01 0.52m-4.97-1.14c0.42-0.62 1.4-0.2 0.99 0.53-0.35-0.09-0.68-0.37-0.99-0.53m6.74 0.42c-0.08-0.33-0.18-0.66-0.22-1.01 0.54 0 1.03 0.06 1.51-0.21 0.2 0.62-0.81 1.11-1.29 1.22m1.78-0.94c-0.1-0.8 2.06-1.51 2.56-2.01 0.45-0.46 0.75-1.02 0.04-1.43-0.6-0.34-1.17 0.08-1.76 0.21 0.57-0.93 1.42-1.64 2.26-2.32 0.39-0.32 1.29-1.45 1.84-1.33 0.56 0.12 0.7 0.99 1.48 1.04-0.07 0.36-0.36 0.77-0.65 0.98-0.54 0.4-0.55-0.09-1.03-0.39-0.68-0.43-1.52 1.31-0.13 1.36-0.19 0.94-1.09 1.6-1.8 2.15-0.85 0.67-1.68 1.59-2.81 1.74m-22.79-8.61c1.28 0.81 2.09 2.31 3.21 3.32 1.38 1.24 3.08 2.02 4.92 2.21 1.82 0.18 3.64-0.24 5.44-0.48 2.03-0.27 4.05-0.59 6.05-1.06 1.63-0.38 3.36-0.9 4.68-1.98 1.48-1.2 2.45-2.95 3.52-4.49 1.07-1.56 2.13-3.11 3.28-4.61 1-1.3 2.42-2.79 2.47-4.53-1.49 0.22-1.89 2.42-3.08 3.17 0.1-1.73 0.81-3.25 1.62-4.74 0.83-1.54 0.39-3.27 0.85-4.91 1.01-3.65 2.59-7.28 3.9-10.83 1.3-3.51 2.57-7.21 4.29-10.54 0.73-1.41 1.15-3.04 2.54-3.97 0.18-0.12 3.28-1.66 3.26-1.23-0.02 1.27-1.09 2.97-1.62 4.11-0.76 1.65-1.67 3.21-2.45 4.85-0.8 1.68-1.46 3.41-2.3 5.08-0.78 1.55-1.62 3.14-2.14 4.8-0.51 1.62-0.28 3.46-0.38 5.14-0.11 1.8-0.58 3.57-1.19 5.27-1.18 3.29-2.67 6.7-4.46 9.71-3.39 5.7-8.88 11.22-15.39 13.16-3.6 1.07-7.18 0.55-10.56-0.9-2.35-1.01-6.59-3.52-6.46-6.55m21.57 7.57c-0.37-0.21-0.82-0.31-1.24-0.28 0.31-0.46 0.76-0.58 1.27-0.72 0.08 0.33 0.17 0.71-0.03 1m14.51-0.62c-0.28-0.48-0.82-0.81-1.06-1.31-0.25-0.51-0.4-1.29 0.34-1.16 0.63 0.11 0.98 0.53 1.17 1.17 0.19 0.58 0.59 1.53-0.45 1.3m-11.99-0.32c0.2-0.27 0.46-0.36 0.76-0.48-0.17 0.29-0.47 0.38-0.76 0.48m-1.99-0.3c0.24-0.37 0.58-0.65 1.02-0.72-0.21 0.37-0.6 0.66-1.02 0.72m-13.47-1.6c0.17-0.94 0.52-2.4 1.57-2.71-0.17 0.75-0.29 1.47-0.31 2.24 0.36-0.44 0.52-1.18 1.06-1.45 0.71-0.35 1.42-0.79 2.25-0.71-0.03 0.47-0.24 0.88-0.53 1.24 0.74-0.1 2.76-0.87 2.93-1.64 0.33-1.49-1.67-0.79-1.58-2.33 1.19 0.16 2.35 0.21 2.69 1.57 0.16 0.65-0.43 1.8-0.81 2.32-0.41 0.57-1.35 0.89-1.98 1.1-0.92 0.31-1.82 0.33-2.77 0.45-0.78 0.11-1.78 0.35-2.52-0.08m-5.63-4.4c1 0.64 1.73 1.37 2.84 1.89 0.96 0.45 1.91 1.38 2.05 2.48-1.22 0.01-2.48-1.02-3.51-1.58-1.07-0.57-1.43-1.62-1.38-2.79m23.9 3.88c0.09-0.08 0.17-0.16 0.26-0.24-0.09 0.07-0.17 0.15-0.26 0.24m5.02-0.61c0.03-0.57 0.45-1.13 1.03-1.22-0.01 0.4-0.02 0.8-0.03 1.21 0 0.07-0.86 0.01-1 0.01m-14.24-0.39c0.03-0.61 0.36-1.59 1.04-1.72 0.04 0.71-0.23 1.62-1.04 1.72m-16.16-3.92c0.95-0.19 0.72 1.24 0.7 1.77-2.37-1.36-3.61-5.25-3.55-7.85 0.45-0.06 0.85 0.2 1.3 0.18 0.66-0.03 1.26-0.06 1.89-0.28 0.97-0.34 1.68-0.96 2.26-1.79 1.43-2.04 0.69-4.78 0.23-7.01-0.13-0.61-1.32-6.22-0.12-6.22 0.82 0.01 1.21 0.34 1.89 0.75 0.83 0.5 1.73 0.57 2.67 0.37-0.01 0.42-0.02 0.83-0.03 1.25 0.54-0.33 0.95-1.36 0.44-1.87-0.6-0.6-1.37-0.39-2.13-0.52-0.69-0.13-1.37-0.72-2.11-0.53-0.92 0.24-1.6 0.31-1.69 1.36-0.24 2.9 0.93 5.69 0.8 8.57-0.01 0.27-0.76 0.11-1 0.11 0.22-0.91 0.17-1.51-0.7-2.02 0.08 0.33 0.18 0.66 0.22 1.01-0.57-0.01-1.19-0.1-1.71 0.18-0.48 0.26-0.74 0.93-1.33 1 0.04-0.79 0.12-1.47 0.31-2.24-0.31 0.17-0.66 0.18-1.01 0.22-0.58-4.85 0.98-9.82 3.35-14.03 1.87-3.32 5.01-6.49 9.15-5.75 2.31 0.42 4.32 1.67 6.34 2.79 1.97 1.09 3.19 3.08 5 4.36-1.89-2.47-3.94-4.4-6.72-5.88-2.88-1.53-5.6-2.38-8.82-1.6-0.99 0.25-0.99-3.7-0.78-4.25 0.57-1.42 2.47-1.66 3.78-1.9 1.84-0.33 3.72-0.36 5.59-0.32 3.53 0.1 7.88 0.87 10.55 3.36 0.98 0.91-0.16 3.29-0.42 4.33-0.45 1.78-0.81 3.54-1.08 5.35-0.12 0.77-0.15 1.41-0.72 1.98-0.35 0.35-0.95 0.93-0.91 1.49 0.17 2.14-0.05 4.08-0.17 6.21 0.67 0.17 0.68-0.95 1-1.41 0.26-0.4 4.37 4.81 2.17 4.49 0.09 0.33 0.17 0.67 0.22 1.01-0.96-0.25-0.79-1.8-1.69-2.29 0.19 0.93-1.24 0.72-1.77 0.7 0.1 0.89 0.61 1.78 0.41 2.69-0.25 1.18-1.27 2.46-1.82 3.54-1.06 2.05 0.64 4.16 0.59 6.25-1.1-0.05-1.76-0.15-2.67 0.55-0.8 0.61-0.95 1.11-1.45 1.94-0.25 0.42-0.13 0.37-0.61 0.27-0.98-0.2-2-1.04-3.07-0.81-0.78 0.17-0.96 1.11-1.59 1.48-0.72 0.43-1.67 0.36-2.43 0.75-0.71 0.35-1.26 0.9-2.04 1.13-0.8 0.24-1.77-0.44-2.33-0.95-0.7-0.62 0.03-2.34-1.27-2.65-1.27-0.28-2.2-0.19-3.12 0.73m19.68 3.02c-0.33-0.72-0.42-1.62-1.2-2.03-0.01 0.42-0.02 0.83-0.03 1.25-0.38-0.42-0.53-1.03-0.61-1.58-0.02-0.14-0.3-1.46-0.27-1.5 0.37-0.54 1.03-1.04 1.74-0.9-0.17 0.54-0.88 0.88-1.28 1.22 0.88-0.17 1.6 0.78 1.71 1.54 3.92-0.95 2.05-6.78 2.68-9.38 0.45-1.84 2.69-2.43 3.46-4.12 0.42-0.92 0.73-1.89 0.26-2.86-0.45-0.92-1.12-1.79-1.25-2.84-0.13-1.01 0.34-2.39 1.67-2.14-0.26 2.35 1.26 4.39 0.55 6.76-0.34 1.14-0.91 2.2-1.62 3.15-0.6 0.81-1.71 1.52-2.09 2.45-0.83 2.02 0.08 4.36-0.42 6.48-0.4 1.64-1.36 4.27-3.3 4.5m7.77-0.54c0.25-0.47 0.45-0.89 1.03-0.97-0.05 0.25-0.13 0.5-0.2 0.74-0.13 0.39-0.45 0.24-0.83 0.23m-24.71-1.9c-0.04-0.25 0.14-0.88 0.51-0.49s-0.26 0.55-0.51 0.49m34.24 0.65c0-0.15 0.13-0.91 0.03-1-0.17-0.15-1.01-0.03-1.25-0.03 0.02-0.98 0.58-1.46 1.06-2.22 0.23 0.39-0.1 0.89-0.28 1.24 1.05 0.07 1.03-0.08 0.97 1.03 0.63-0.14 1.12-0.22 1.76-0.21-0.05 1.19-1.44 1.1-2.29 1.19m-8.72-0.99c0.24-1.26 1.48-0.48 2.26-0.44-0.07 1.54-1.42 0.65-2.26 0.44m-5.01 0.12c0.17-0.89 0.4-1.93 0.82-2.73 0.25 0.17 0.48 0.37 0.74 0.52 0.42-1.8 0.05-3.42 0.14-5.22 0.07-1.38 0.5-3.07 1.84-3.74 0 0.66 0.16 1.39-0.08 2.03-0.22 0.58-0.61 1.08-0.83 1.67-0.36 0.97-0.51 2.38 0.48 3.05-0.28-1.54 0.06-3.65 1.62-4.46-0.05 1.75-0.38 3.55-1.39 5.01-0.53 0.77-1.12 1.5-1.65 2.27-0.42 0.61-0.87 1.5-1.69 1.6m-28.21-1.74c0.27-0.37 0.5-0.77 0.53-1.24 0.88 0.21 1.9 1.1 2.17 1.96 0.11 0.35-0.79 0.24-0.92 0.23-0.68-0.08-1.3-0.48-1.78-0.95m25.98 0.94c0.08-1.17 0.42-2.32 0.23-3.5-0.18-1.16-0.87-2.2-0.78-3.4 0.08-1.19 0.88-2.18 1.42-3.2 0.43-0.81 0.55-2.23 1.22-2.86 1.78 1.78-2.05 4.23-1.85 6.09 0.15 1.41 0.26 2.82 0.39 4.24 0.07 0.85 0.25 2.1-0.63 2.63m18.77-0.52c0.5-0.39 2.16-0.82 2.77-0.68-0.66 0.7-1.86 1.21-2.77 0.68m-8.24-0.46c-0.47-0.38-0.97-0.7-1.47-1.04 0.27-0.46 1.1-1.43 1.72-0.96 0.14 0.1 0.46 0.92 0.4 1.08-0.13 0.4-0.28 0.7-0.65 0.92m6.27-0.59c0.23-0.33 0.66-0.41 1.01-0.22-0.2 0.31-0.69 0.41-1.01 0.22m-5.2-2.14c-0.17-0.77 0.29-0.44 0.5 0.01-0.16 0-0.34 0.03-0.5-0.01m-37.48-1.23c-0.97-0.61-1.16-1.45-1.37-2.5-0.19-0.92 0.94-1.8 0.76-2.76-0.52 0.54-1.07 1.75-1.8 1.95 0.04-0.91 0.69-1.49 1.26-2.11 0.81-0.89 0.6-1.86 1.04-2.89 0.25-0.58 1.06 0.53 1.12 0.87 0.24 1.35-0.02 2.41-0.64 3.59-0.33 0.63-0.58 1.44-0.42 2.16 0.1 0.52 0.43 1.22 0.05 1.69m23.34-3.13c-0.79 0.2-1.43 0.75-2.11 1.16-0.9 0.54-1.93 0.8-2.95 0.96-1.03 0.16-1.96-0.03-2.97-0.22-1.04-0.2-2.21-0.63-3.25-0.7 2.33 3.26 9.5 2.2 11.28-1.2m5.44 2.38c0.01-0.25 0.01-0.5 0.02-0.75 0.2 0.23 0.18 0.54-0.02 0.75m-26.9-4.2c1.02 0.57 1.76 1.07 2.87 1.46 1.03 0.36 1.91-0.67 2.87-0.81 0.09 0.46-0.48 1.93-0.92 2.08-1.31 0.44-4.06 1.65-4.85-0.2-0.39-0.88-0.47-1.64 0.03-2.53m20.27-0.22c-0.17-0.96-1.16-1.76-1.68-2.54-0.24 0.27-0.27 0.64-0.28 0.99-1.24-0.85-3.82-1.36-5.24-0.64-0.08-0.33-0.18-0.66-0.22-1.01-0.75 0.38-1.27 1.39-1.31 2.22 0.49-0.08 1-0.29 1.51-0.21-0.53 0.58-1.75 1.46-0.86 2.21 1.1 0.91 2.14 1.23 3.55 0.77 1.48-0.48 3.13-1.12 4.53-1.79m-7.52 0.55c1.31 0.31 2.45 0 3.75 0.1-0.81 0.96-3.3 1.42-3.75-0.1m-11.02 0.46c0.62-0.48 1.77-0.45 2.51-0.43-0.2 0.98-1.84 0.81-2.51 0.43m0.52-0.72c0.06-0.34 0.09-0.69 0.28-0.99 0.29 0.41 0.48 1.16-0.28 0.99m11.76 0.04c0-0.3 0.14-1.37 0.77-0.73 0.03 0.04 0.02 0.71-0.02 0.75-0.09 0.09-0.63-0.01-0.75-0.02m2.79-1.67c0.42-0.03 0.88 0.08 1.24 0.28-0.35 0.47-1.16 0.37-1.24-0.28m14.23 0.88c0.22-1.19 0.51-2.27 0.59-3.49 0.88 0.87 0.39 2.89-0.59 3.49m-15.99-0.67c-0.3-0.19-0.65-0.21-0.99-0.28 0.4-0.3 0.82-0.12 1.25 0.03-0.08 0.08-0.16 0.18-0.26 0.25m-43.15-23.15c2.09 0.39 3.1 2.81 5.15 3.37 2.3 0.63 4.54 0.87 6.14-1.23 0.3-0.4 0.35-0.88 0.5-1.34 0.18-0.55 0.57-0.98 0.84-1.48 0.48-0.89 0.95-2.04 0.73-3.08-0.25-1.14-1.74-0.94-2.66-0.98-1.45-0.08-2.4-0.87-3.84-0.41-0.67 0.21-1.15 0.45-1.86 0.4-0.56-0.04-1.17 0.04-1.69 0.26-0.77 0.33-1.72 2.14-2.7 1.58-1.45-0.81-1.68-3.07-1.87-4.52-0.1-0.84-0.13-1.7-0.08-2.54 0.06-0.95-0.09-1.11-0.79-1.69-0.2-0.17-1.31-0.44-1.44-0.17-1.4 2.84 1.07 6.22-0.08 9.2-0.96-1.01-1.96-2.21-3.4-2.51-0.9-0.19-1.46-0.48-2.27-0.91-0.59-0.31-1.37-0.47-1.76 0.22 1.24 0.69 2.28 2.12 3.82 2.08 1.79-0.04 2.26 2.32 3.82 2.36-0.69 1.19-2.71 1.7-3.91 1.09-0.7-0.36-1.38-0.74-1.92-1.33-0.55-0.6-1.04-1.47-1.87-1.71 0 2.74 3.04 3.77 5.14 4.38-0.24 0.68-0.93 1.25-1.68 1.03-0.9-0.26-1.96-0.19-2.59-0.99-0.9-1.14-1.69-2.44-2.39-3.72-1.12 0.74 0.64 2.7 0.94 3.5 0.4 1.04 1.25 1.06 2.22 1.41 0.56 0.21 1.62 0.97 2.23 0.64 0.93-0.49 1.53-0.77 2.23-1.58 0.67-0.78 1.51-1.56 2.58-1.7 0.19 1.94 1.76 4.33 0.17 6.01-0.97 1.01-1.87 1.54-2.58 2.81-0.68 1.22-1.45 2.46-1.92 3.78-0.31 0.87-0.47 2.59 0.07 3.42 0.33 0.51 0.72 0.98 1.13 1.43 0.42 0.47 0.52 1.11 1 1.54 0.37 0.34 0.84 0.55 1.27 0.8 0.62 0.36 1.38-0.14 2.02-0.17 1.17-0.05 2.09 0.73 3.28 0.17 0.47-0.22 0.83-0.6 1.3-0.81 0.52-0.24 1.1-0.36 1.58-0.69 0.56-0.39 0.72-1.01 1.05-1.57 0.35-0.59 1.02-0.89 1.46-1.4 1.95-2.27-0.62-6.36-2.33-8.1-1.03-1.04-2.71-1.37-3.6-2.49-0.76-0.92-1.46-3.17-1.44-4.36m60.97 20.86c-0.15-1.11-0.38-2.13-0.41-3.26 0.73 0.5 0.97 2.58 0.41 3.26m-36.74-0.96c-1.05-2.12-1.12-4.71-1.76-6.97-0.81-2.85-1.58-5.71-2.32-8.58-0.71-2.78-1.4-5.56-2.1-8.34-0.68-2.66-1.86-5.33-1.98-8.09 0.92 0.16 1.65 0.84 2.42 1.32 1.11 0.7 2.29 1.26 3.37 2.02 0.7 0.5 0.79 1.71 0.91 2.47 0.23 1.42 0.52 2.83 0.84 4.23 0.74 3.2 1.47 6.39 2.19 9.6 0.34 1.5 0.69 3 1.01 4.5 0.22 1 0.51 2.04-0.18 2.91-0.8 1.02-1.23 1.58-1.29 2.92-0.03 0.97-0.16 1.57-1.11 2.01m-26.8-7.96c-0.02 0.69 0 1.42-0.33 2.05-0.34 0.63-1.01 1.41-0.78 2.18 0.97-0.29 1.07-1.21 1.43-2.01 0.34-0.77 1.68-1.06 2.42-1.39-0.03 1.11-0.3 2.15-0.33 3.24 1.51 0.02 1.09-1.75 1.07-2.72 0.15 0 0.91 0.13 1 0.03 0.15-0.17 0.03-1.01 0.03-1.25 1.74 0.38 1.08 2.6 2.21 3.32 0.1 0.07 0.7 0.34 0.7 0.3-0.02 0.23 0.06 1.09-0.12 1.21-0.66 0.46-1.09 0.67-1.66-0.05-0.54 0.6-0.96 1.29-1.46 1.93-0.57 0.72-1.44-0.05-1.95-0.43-1.06-0.79-1.58 0.36-2.63 0.36-0.92 0-1.71-1.34-2.15-1.99-0.61-0.9-1.37-1.53-1.06-2.72 0.09-0.32 0.09-0.81 0.45-0.95 0.92-0.34 2.17-1.12 3.16-1.11m29.57 7.29c-0.69-0.91-0.86-1.63-0.93-2.78 0.52 0.24 0.96 0.17 1.5 0.04 0.21 0.76 0.22 2.25-0.57 2.74m40.49 0.8c0.26-2.57 1.26-4.88 0.8-7.52-0.21-1.24 0.34-2.52 0.73-3.67 0.46-1.33 0.97-2.62 1.58-3.89 1.21-2.5 2.4-5.01 3.66-7.49 0.62-1.22 1.14-2.47 1.67-3.72 0.41-0.95 0.81-2.69 1.67-3.35 0.41-0.32 1.17-0.26 1.67-0.32-0.28 2.81-1.59 5.41-1.92 8.23-0.33 2.79-0.58 5.47-1.7 8.09-1.08 2.52-2.52 5.01-3.88 7.39-0.73 1.28-1.46 2.61-2.35 3.79-0.59 0.82-0.99 1.97-1.93 2.46m-8.45-1.72c-0.41-2.01 0.45-3.07 1.41-4.71 0.98-1.68-0.41-2.78-1.94-3.31-0.08 0.26-0.4 1.74-0.63 1.73-0.41-0.01-0.54-0.06-0.58-0.51-0.07-0.76 1.26-2.11 2.12-1.85 0.62 0.18 1.22 0.56 1.83 0.7-0.43-0.92-1.46-1-1.93-1.77-1-1.59-0.12-3.29 0.36-4.92 0.55-1.88 0.95-4.13 1.99-5.81 0.88-1.43 3.27-1.85 4.71-2.46 0.85-0.36 1.72-0.68 2.54-1.09 0.64-0.32 1.52-0.89 2.27-0.7-0.26 1.51-1.08 2.87-1.74 4.23-0.82 1.68-1.52 3.44-2.17 5.19-1.33 3.56-2.83 7.05-4.11 10.63-0.4-0.32-0.48-0.89-0.64-1.34-0.25-0.7-0.82-1.23-1.02-1.96-0.25 0.7 0.08 1.53 0.15 2.23 0.08 0.7-0.34 1.42-0.65 2.01-0.34 0.65-0.97 1.14-1.2 1.85-0.21 0.61-0.28 1.38-0.77 1.86m-52.93-3.48c-0.31-0.02-0.82 0.07-1.03-0.17-0.29-0.33-1.46-1.52-1.06-2.08 0.1-0.15 0.63-1.06 0.76-1.02 0.95 0.31 1.5 0.63 2.05 1.47 0.47 0.72 0.02 1.61-0.72 1.8m21.76-0.09c-0.9-3.79-1.66-7.62-2.45-11.44-0.79-3.73-2.14-7.61-2.2-11.44 1.89 0.05 3.89 1.61 5.1 2.97 1.66 1.88 1.27 4.65 1.51 7 0.13 1.27 0.16 2.54 0.33 3.81 0.17 1.34-0.41 1.88-1.11 2.91-1.17 1.74 1.09 4.8-1.18 6.19m27.02-0.3c-0.37-0.72-0.14-1.62 0.31-2.24 0.86 0.71 0.71 1.82-0.31 2.24m3.25-0.16c0.08-1.11 0.55-2.09 0.59-3.24 1.16 0.21 1.04 1.03 0.95 1.98-0.06 0.57-1.06 1.12-1.54 1.26m-60.41-4.08c-1.12 0.51-1.79 1.61-3.05 1.92-0.21-0.43-0.04-0.85 0.13-1.25 0.21-0.5 0.36-0.76 0.92-0.47 0.33-0.9 0.32-2.25 1.32-2.72 0.02 0.59-0.17 1.17-0.29 1.74 0.43-0.42 1.01-0.87 1.33-1.38 0.38-0.59 0.88 0.05 1.45 0.2 0.12-0.55 0.47-1.03 0.79-1.48 0.33 0.35 0.38 0.81 0.47 1.26 0.55-0.43 1.05-0.62 1.76-0.45 0.02-0.58-0.16-1.24 0.63-0.96 1.84 0.67 2.83 2.54 3.29 4.31-0.48-0.09-0.83-0.51-1.29-0.61-0.41-0.09-0.88-0.23-1.21 0.12-0.36 0.38-0.34 0.92-0.91 0.84-0.85-0.13-1.66-1.02-2.31-1.51-0.25 0.83-0.79 1.79-1.5 2.26-0.98 0.64-1.33-1.18-1.53-1.82m55.95 2.71c-0.05-0.1-0.52-2.55 0.15-2.21 0.85 0.46 0.61 1.77-0.15 2.21m-15.74-0.66c-0.54-0.81-2.71-0.73-3.49-0.34 0.37 0.64 2.92 0.5 3.49 0.34m2-0.19c0.18-0.49 0.45-0.97 0.54-1.49-2.08-0.06-4.16-0.45-6.24-0.11-0.82 0.13-1.04 0.64-1.04 1.42 1.22-0.79 2.65-0.66 4.03-0.66 0.52 0 1.39-0.16 1.8 0.25 0.27 0.28 0.43 0.68 0.91 0.59m15.29-1.36c-0.35-0.65 0.14-1.3 0.79-1.48 0.11 0.52-0.36 1.23-0.79 1.48m-25.74-0.67c0.01-0.52 0.11-1.16 0.54-1.49 0.19 0.52-0.07 1.21-0.54 1.49m5.27-0.61c1.2-0.57 2.48-0.63 3.76-0.4-0.26-1.52-4.41-0.7-3.76 0.4m21.07-2.44c0.73-0.12 2.72 1.31 1.64 1.65-0.77 0.25-0.9 0.11-1.63-0.26-0.4-0.21-0.06-1.12-0.01-1.39m-18.02 0.52c-0.46-0.35-1.73-0.13-1.96-0.68-0.31-0.74-0.82-1.71-0.06-2.34 0.7-0.58 1.18-1.28 2.15-1.09 1 0.19 1.66 0.57 2.71 0.44-0.11-0.91-1.99-1.06-2.68-1.24-1.06-0.26-2.13 0.98-2.63 1.72-0.64 0.96-0.82 1.77-0.1 2.72 0.47 0.62 0.49 0.75 1.25 0.82 0.39 0.02 0.97-0.19 1.32-0.35m11.74 0.56c-0.07-0.36-0.35-0.72-0.73-0.77 0.01 0.39 0.34 0.73 0.73 0.77m-1.47-1.04c-0.13-0.29-0.18-0.6-0.48-0.76 0.11 0.31 0.22 0.55 0.48 0.76m-17-0.45c-0.5-1.72-0.69-3.52-0.83-5.3-0.04-0.51-0.57-4.69-0.21-4.8 1.26-0.42 3.1 0.8 3.32 2.06 0.51 2.87 0.69 6.45-2.28 8.04m16.01-0.08c-0.12-0.44-0.23-0.88-0.72-1.02 0.07 0.44 0.35 0.78 0.72 1.02m10.75 0.03c0.07-1.39 0.75-2.68 1.19-3.97 0.5-1.49 0.76-3.07 1.53-4.46 0.47 0.51-0.02 1.41-0.2 1.94-0.31 0.92-0.56 1.86-0.82 2.79-0.17 0.62-0.84 3.94-1.7 3.7m-60.31-17.59c0.32 0.67 0.25 1.48 0.38 2.2 0.13 0.71 0.26 1.39 0.29 2.12 0.04 1.21 0.13 2.62 0.87 3.64 0.37 0.51-0.02 0.81-0.08 1.35-0.07 0.64 0.13 1.34 0.29 1.96 0.41 1.59 1.12 3.19 1.33 4.82-1.2 0.03-1.36-1.68-1.47-2.54-0.23-1.68-0.64-3.4-1.22-5-0.29-0.81-0.21-1.38-0.19-2.22 0.02-0.87-0.19-1.81-0.29-2.67-0.13-0.94-0.89-2.93 0.09-3.66m48.33 17.04c-0.04-0.34-0.14-0.67-0.22-1.01-0.31 0.36-0.07 0.7 0.22 1.01m10.75-0.23c0.02-0.77 0.3-1.51 0.56-2.24 0.49 0.57 0.04 1.89-0.56 2.24m-11.98-0.57c-0.12-0.44-0.23-0.88-0.72-1.02 0.07 0.45 0.35 0.78 0.72 1.02m-1.24-0.52c-0.07-0.42-0.35-0.81-0.72-1.02 0.06 0.43 0.22 0.94 0.72 1.02m-1.5-0.3c-0.03-0.16-0.4-1.57-0.78-1.21-0.4 0.39 0.43 1 0.78 1.21m-37.93-2.99c2.31-0.03 3.93-1.07 5.57-2.6-0.85 0.12-1.55 0.76-2.29 1.15-0.86 0.45-1.88 0.61-2.84 0.55-1.58-0.09-3.55-0.72-4.36-2.2 0.44 0.12 1.21 0.28 1.62 0.1 0.83-0.36 1.18-1.34 1.93-1.79 0.68-0.41 1.43 0.41 2.22 0.01 0.96-0.52 1.45-0.89 2.57-0.52 1.13 0.37 2.43-0.06 3.5 0.45 0.37 0.18 0.48 0.96 0.43 1.33-0.07 0.61-0.37 1.06-0.8 1.48-0.17 0.17-1.51 0.88-1.51 1.03-0.02 0.77 1.24 0.61 0.74 1.44-0.8 1.32-2.6 1.47-3.99 1.26-0.88-0.13-2.67-0.62-2.79-1.69m53.47 1.9c0.06-0.93 0.51-3.99 1.61-4.21-0.14 0.81-0.52 1.56-0.82 2.32-0.25 0.63-0.28 1.4-0.79 1.89m-23.22-1.6c0.03-1.16-0.72-2.96-0.14-4.01 0.47 0.51 0.84 3.59 0.14 4.01m-0.85-5.54c0.02-1.47 3.53-2.07 4.52-2.33 2.63-0.68 5.41-0.75 8.11-0.58 2.57 0.16 5.07 0.91 7.49 1.74 1.33 0.46 4.6 1.21 4.6 3.08-1.8 0.04-3.79-1.61-5.35-2.37-1.88-0.92-3.89-1.32-5.97-1.42-2.29-0.1-4.67-0.32-6.93 0.14-1.08 0.22-2.18 0.41-3.21 0.81-1.07 0.41-2.11 0.97-3.26 0.93m27.5 0.22c-0.11-0.73 1.39-1.57 1.84-1.99 0.85-0.8 1.7-1.83 2.83-2.22 0.73-0.25 1.59 0.49 2.14 0.87 0.72 0.5 0.39 0.94-0.25 1.33-0.98 0.6-2.18 0.85-3.22 1.33-0.9 0.43-2.34 1.22-3.34 0.68m-2.5-0.06c-0.98-0.7-2.11-1.15-3.21-1.61-1.14-0.47-2.25-1.07-3.47-1.31 0.95-0.76 2.79 0.57 3.7 0.93 0.62 0.25 3.23 1.01 2.98 1.99m1.78-0.83c-0.56-0.19-1.68-0.37-1.51-1.19 0.2-1.02 1.14-1.89 1.75-2.69 0.55-0.71 1.47-1.93 2.53-1.63 0.67 0.19 1.06 0.56 1.4 1.16 0.82 1.47-3.17 3.88-4.17 4.35m-28.25-0.61c0.19-1.16 2.57-1.71 3.45-2.02 1.78-0.62 3.59-1 5.47-1.15 3.67-0.29 7.14-0.02 10.64 1.17-0.85 0.61-3.03-0.41-3.97-0.54-1.77-0.25-3.71-0.29-5.5-0.24-1.88 0.05-3.69 0.61-5.52 1.01-1.54 0.35-3 1.74-4.57 1.77m-2.49-0.32c-1.79-0.83-3.16-2.33-4.55-3.69-1.44-1.41-2.53-2.99-3.39-4.81-0.92-1.95-1.7-4-2.23-6.09-0.24-0.95-1.3-3.58-0.26-4.32 0.77-0.54 2.08 0.05 2.89 0.18 1.58 0.25 3.19 0.36 4.79 0.43 3.38 0.15 6.56-0.51 9.76-1.52 1.21-0.38 2.66 0.4 3.86 0.68 1.56 0.35 3.23 0.8 4.83 0.81 1.57 0.01 3.33-0.14 4.85-0.52 0.82-0.21 2.94-1.54 3.52-0.57 2.07 3.55 4.13 7.09 7.02 10.05 2.75 2.81 6.13 5.86 9.9 7.17 0.15 0.05 0.17 0.5 0.03 0.56-2.12 0.78-4.82-1.71-6.34-2.93-1.98-1.62-3.89-3.33-5.61-5.22-1.65-1.82-3.11-3.76-4.25-5.94-0.36-0.69-0.96-1.67-1.8-1.83-1.31-0.24-2.87 0.36-4.2 0.44-2.58 0.15-5.18 0.05-7.72-0.46-0.98-0.21-2.08-0.85-3.1-0.58-1.25 0.34-2.49 0.77-3.78 0.95-2.48 0.35-5.14 0.62-7.63 0.28-0.8-0.11-5.99-1.3-6.14 0.02-0.35 3.16 1.51 6.57 3.17 9.15 0.94 1.46 2 2.84 3.19 4.11 1.1 1.18 2.05 2.6 3.47 3.42-0.1 0.06-0.19 0.19-0.28 0.23m36.14-0.04c0.42-0.27-0.06-1.07-0.49-0.77-0.4 0.28 0.08 1.03 0.49 0.77m-44.27-14.17c1 0.62 1.44 1.96 1.98 2.94 0.78 1.41 1.81 2.71 2.76 4.01 0.88 1.21 1.89 2.4 3 3.4 0.81 0.73 2.16 1.68 2.16 2.91-1.2 0.02-2.14-0.96-2.9-1.77-1.04-1.11-2.08-2.21-2.96-3.46-1.74-2.44-3.16-5.16-4.04-8.03m37.84 6.5c1.32 0.27 1.79 1.17 2.32 2.28 0.22 0.44-0.9 1.83-1.14 2.11-0.8 0.9-1.65 1.75-2.58 2.53-0.56 0.46-1.57-0.18-1.66-0.77-0.12-0.84 0.84-1.89 1.24-2.57 0.67-1.16 1.43-2.3 1.82-3.58m-37.28-8.99c1.09 0.13 2.2 0.12 3.28 0.34 0.63 0.12 2.55 0.05 2.95 0.67 1.21 1.92 1.67 4.18 2.57 6.24 0.46 1.06 0.91 2.12 1.45 3.14 0.48 0.92 1.27 1.79 1.45 2.85 0.09 0.52 0.26 1.1-0.4 1.31-1.46 0.47-2.83-0.98-3.72-1.95-1.2-1.31-2.34-2.66-3.38-4.1-1.07-1.48-2.1-3.02-2.97-4.62-0.54-0.98-1.86-2.71-1.23-3.88m34.36 5.91c0.72 0.17 1.48 0.96 1.88 1.55 0.88 1.33-0.28 3.1-0.85 4.32-0.37 0.79-1.13 2.75-2.16 2.87-0.8 0.08-2.3 0.12-2.08-1.15 0.48-2.66 2.39-5.02 3.21-7.59m6.41 8.67c0.42-0.27-0.04-1.05-0.49-0.77-0.53 0.31 0.12 0.94 0.49 0.77m-33.53-13.89c0.86-0.01 3.89-0.91 4.47 0.02 0.57 0.9 0.68 2.18 0.92 3.19 0.34 1.4 0.69 2.81 1.09 4.19 0.39 1.34 0.9 2.63 1.27 3.97 0.34 1.25-0.43 1.58-1.52 1.52-1.79-0.09-2.89-3.89-3.45-5.22-1-2.36-2.54-5.07-2.78-7.67m23.5 0.11c1.3 0.06 3.08 3.29 2.97 4.42-0.24 2.53-1.78 4.81-2.82 7.07-0.45 0.98-1.29 1.69-2.35 1.11-0.37-0.2-1.1-0.42-1.04-0.97 0.22-2.05 0.94-4.02 1.54-5.99 0.55-1.83 1.42-3.74 1.7-5.64m-13.57 12.3c-1.84-0.17-2.35-3.08-2.68-4.47-0.24-1.04-0.54-2.07-0.8-3.11-0.35-1.4-1.01-3-1.07-4.43-0.1-1.99 4.44-2.66 5.28-1.03 0.38 0.76 0.16 1.78 0.08 2.58-0.1 1.02-0.03 2.06 0.09 3.08 0.12 1.13 0.29 2.26 0.45 3.38 0.13 0.88 0.74 2.51 0.3 3.35-0.29 0.54-1.12 0.59-1.65 0.65m-16.72-1.59c0.52 0.26 0.62 0.74 0.72 1.27-0.68 0-1.07-0.69-0.72-1.27m45.44-6.56c1.08 1.63 2.05 3.34 3.27 4.88 0.55 0.7 2.73 2.22 2.38 3.24-0.73 2.04-5.09-0.64-5.97-1.18-1.11-0.69-2.1-1.54-3.18-2.27-0.61-0.41-1.83-1.03-1.95-1.85-0.09-0.64-0.01-0.94 0.66-1.2 1.57-0.59 3.19-1.11 4.79-1.62m-15.88-4.92c-0.18 2.23-0.88 4.26-1.57 6.37-0.63 1.95-0.82 4.59-2.09 6.25-0.19 0.25-1.04 0.31-1.34 0.19-0.63-0.25-1.01-0.31-1.03-1.04-0.07-2.04 0.14-4 0.34-6.02 0.1-0.95 0.09-1.91 0.26-2.85 0.08-0.45 0.2-2.02 0.79-2.16 1.46-0.38 3.13-0.85 4.64-0.74m-7.58 12.72c-1.16 0.07-2.21-0.01-2.8-1.1-0.78-1.4-0.83-3.68-0.95-5.25-0.15-2.01-0.34-4.11 0.38-6.03 0.26-0.67 4.21-0.17 4.64 0.31 1.04 1.2 0 4.44-0.09 5.79-0.09 1.32-0.08 2.65-0.11 3.98-0.03 0.86-0.09 2.01-1.07 2.3m23.67-35.05c1.5 0.3 2.91 1.69 4.28 2.36 1.78 0.88 3.53 1.79 5.4 2.47 2 0.72 4.05 1.32 6.11 1.85 1.99 0.52 4.03 0.68 6.03 1.13-0.53 0.69-2.01 1.12-2.76 1.55-1.09 0.64-2.11 1.36-3.09 2.15-1.92 1.55-3.74 3.73-4.81 5.96-1.2 2.5-1.97 4.9-2.29 7.67-0.16 1.38-0.12 2.72 0.12 4.09 0.11 0.61 0.24 1.22 0.41 1.81s0.6 1.27 0.55 1.89c-0.06 0.79-0.16 0.88-0.95 1.09-1.3 0.35-1.93 0.35-2.67-0.86-1.39-2.26-2.39-4.74-3.31-7.22-1.01-2.73-1.46-5.53-2.28-8.31-0.81-2.74-0.79-5.65-0.73-8.48 0.08-3.03-0.09-6.09-0.01-9.15m-8.88 33.79c0.25 0.08 0.59 0.26 0.85 0.15 0.2-0.09 0.58-0.46 0.42-0.75-0.39-0.71-1.11 0.28-1.27 0.6m39.86-22.98c-1.51-0.04-2.79-1.09-4.35-1.15-1.5-0.05-2.99 0.01-4.42 0.52-2.75 0.98-5.11 2.94-6.91 5.22-1.77 2.25-3.02 4.88-3.81 7.63-0.47 1.65-0.47 3.37-0.29 5.06 0.09 0.86 0.26 1.71 0.52 2.54 0.27 0.87 0.76 1.76 0.65 2.7-2.92-0.42-3-5.42-2.85-7.72 0.21-3.21 1.4-6.26 3.08-8.99 1.63-2.66 3.86-5.17 6.67-6.62 2.69-1.38 6.39-2.35 9.36-1.47 1 0.31 2.54 1 2.35 2.28m-26.33 21.83c-3.72-2.97-4.87-9.43-4.89-13.89 0.8 0.62 0.89 1.9 1.11 2.8 0.37 1.48 0.76 2.98 1.33 4.4 0.55 1.34 1.01 2.75 1.69 4.02 0.34 0.62 1.25 1.94 0.76 2.67m25.55-20.59c-0.31 0.5-1.77-0.02-2.18-0.12-1.06-0.25-2.15-0.31-3.23-0.13-2.79 0.46-5.76 2.47-7.58 4.58-1.93 2.23-3.41 4.63-4 7.56-0.3 1.49-0.15 2.9 0.09 4.38 0.11 0.7 0.25 1.41 0.54 2.06 0.15 0.34 0.53 0.92 0.41 1.31-0.11 0.34-0.4 1.27-0.91 0.68-1.89-2.21-1.77-5.84-1.27-8.53 0.57-3.01 2.06-5.72 3.92-8.12 1.99-2.59 4.27-4.33 7.48-5.14 1.48-0.37 6.28-0.92 6.73 1.47m-82.52 18.59c-0.68-0.39-1.35-1.1-1.7-1.79 0.76-0.14 2.24 0.96 1.7 1.79m42.02-0.15c-0.48-0.29-1.21-0.07-1.15 0.57 0.09 1.01 1-0.26 1.15-0.57m39.48-17.73c0.08 1.43-1.01 2.84-1.8 3.94-0.3 0.41-0.66 0.71-1.16 0.82-0.32 0.07-1.41-0.08-1.43 0.38-0.01 0.48 0.49 0.08 0.74 0.52-0.37 0.33-0.92 0.4-1.38 0.5-0.73 0.16-1.22 0.68-1.91 0.91 0.54-0.88 1.54-1.31 2.06-2.2-2.21 1.07-4.41 2.89-4.41 5.6 0 1.18 0.75 2.54 0.18 3.64-0.57 1.11-1.49 2.07-2.32 3-0.49 0.54-0.9 0.34-1.42 0.04-0.82-0.48-1.02-2.13-0.5-2.95 0.57-0.89 2.3-0.74 2.74-1.62 0.11-0.21 0.73-1.11 0.18-1.24-0.96-0.23-1.7-0.02-2.65 0.01-0.72 0.03-1.69-0.14-1.84-0.99-0.17-0.95 0.61-2.41 1.49-2.83 1.04-0.5 1.99 0.94 3.17 0.42 0.52-0.23-1.63-2.35-1.68-2.53-0.31-0.98 1-1.87 1.74-2.09 1.28-0.38 1.47 1.29 2.69 1.13 0.48-0.06 0.29-0.73 0.19-1.01-0.26-0.75-0.33-1.27-0.22-2.06 0.12-0.92 1.88-1.38 2.64-1.06 1.17 0.5-0.17 2.21 0.88 2.79 1.02 0.53 1.29-1.91 1.79-2.23 0.81-0.5 1.28-0.91 2.23-0.89m-30.04 10.47c0.11 0.83 0.3 1.57 0.3 2.41 0.01 1.05-1.93 1.54-2.68 1.83-0.81 0.31-2.77 1.23-3.63 0.76-0.31-0.17-0.86-0.31-0.93-0.69-0.23-1.05 2.11-1.78 2.71-2.15 1-0.6 3-2.39 4.23-2.16m-13.17 4.41c0.23-0.12 0.49-0.46 0.4-0.74-0.03-0.09-0.93-0.66-1.01-0.64-0.73 0.21-0.2 1.8 0.61 1.38m5.09-1.36c-0.34-1.13-0.1-2.34-0.16-3.5-0.43 0.06-0.92 0.35-1.3 0.55-0.56 0.3-0.73-0.22-0.56-0.71 0.58-1.67 1.93-3.14 2.86-4.63 1.05-1.69 1.77-3.42 2.28-5.34 0.55-2.1 0.72-4.13 0.46-6.28-0.12-1.02-0.31-2.03-0.54-3.03-0.24-1.02-0.87-2.23-0.85-3.27 1.14 0.83 1.77 2.96 2.34 4.2 0.85 1.82 1.55 3.7 2.11 5.63 0.59 2.03 0.93 4.13 0.88 6.24-0.03 0.95-0.05 1.9-0.07 2.85-0.02 0.83 0.34 1.94 0.17 2.73-0.6-0.24-0.52-1.21-0.54-1.72-0.04-1.11-0.26-2.27-0.51-3.35-0.35-1.5-0.74-3.67-2.19-4.52-0.83 2.93-1.32 5.96-2.04 8.92-0.31 1.21-0.69 5.01-2.34 5.23m-33.53-1.14c0.09-0.19 0.48-0.75 0.43-0.94-0.05-0.24-0.79-0.45-0.98-0.35-0.07 0.04-0.3 0.88-0.27 0.96 0.11 0.33 0.55 0.49 0.82 0.33m6.5-0.08c0.61-0.26 0.01-1.58-0.61-1.27-0.61 0.31-0.14 1.66 0.61 1.27m29.06 0.26c0.14-1.99 0.94-3.86 1.48-5.76 0.38-1.36 1.3-3.48 1.05-4.92 1.58 0.36 1.59 4.62 1.76 5.78 0.35 2.47-1.83 4.6-4.29 4.9m-12.5-0.32c0.51-0.02 1.98-0.33 1.22-1.17-0.12-0.13-0.89-0.05-0.98 0.1-0.19 0.37-0.2 0.66-0.24 1.07m-4.82-0.37c0.06-0.18 0.37-0.78 0.3-0.94-0.08-0.19-0.63-0.44-0.82-0.33-0.49 0.27-0.22 1.71 0.52 1.27m-7.17-0.2c0.31-0.01 0.9 0.06 1.14-0.22 0.16-0.18 0.22-0.91 0.03-1.12-0.28-0.32-0.83-0.12-1.02 0.15-0.19 0.3-0.13 0.88-0.15 1.19m52.5 0.88c-0.76-0.69-0.44-2.36-0.41-3.26 0.36 0.42 0.74 2.84 0.41 3.26m0.79-1.48c-0.44-1.71 1.22-4.37 3.11-4.17-0.16 1.04-0.95 1.93-1.51 2.78-0.51 0.78-0.62 1.41-1.6 1.39m-31.38-5.08c-0.12 0.78-1.82 3.7-2.74 2.46-0.59-0.79-0.02-1.4 0.65-1.78 0.48-0.26 1.52-0.81 2.09-0.68m-29.03 0.74c0.22-3.66 0.96-7.31 1.41-10.95 0.2-1.65 0.14-3.33 0.5-4.96 0.37-1.67-0.09-3.38-0.11-5.06 0.92 1.06 0.41 3.67 0.37 4.9-0.06 2.14-0.09 4.26-0.17 6.4-0.04 1.1-0.13 10.08-2 9.67m-1.5-0.02c0.17-2.6 0.9-5.17 1.45-7.71 0.38 0.44 0.25 1.12 0.14 1.63-0.2 0.92-0.24 1.88-0.36 2.82-0.09 0.6-0.09 3.5-1.23 3.26m17.31-2.06c0.09 0.54-0.26 1.19-0.29 1.74-0.58-0.64-0.5-1.69-0.56-2.49-0.09-1.19-0.07-2.34-0.03-3.53 0.8 0.67 1 2.07 1.61 2.92 0.82 1.13 2.1 1.93 2.73 3.19-1.53 0-2.12-1.52-3.46-1.83m-2.05 1.69c0.41-2.21-0.13-4.53-0.07-6.76 0.53 0.6 0.43 2.7 0.42 3.46 0 0.55 0.7 3.48-0.35 3.3m-2-0.05c0.11-3.88-0.39-7.64-0.79-11.48-0.19-1.86-0.67-3.73-1.18-5.52-0.48-1.66-1.25-3.34-1.2-5.1 1.19 0.95 1.49 3.68 1.94 5.04 0.67 2.04 1.23 4.06 1.59 6.18 0.36 2.15 0.59 4.43 0.7 6.61 0.04 0.93 0.51 4.27-1.06 4.27m-4.18-21.6c1.04 0.76 1.27 3.46 1.58 4.62 0.58 2.16 0.99 4.38 1.26 6.6 0.27 2.23 0.39 4.47 0.66 6.69 0.1 0.8 0.41 3.18-0.6 3.51-0.37 0.12-0.98-0.4-1.03-0.73-0.23-1.46 0.29-3.16 0.28-4.66-0.01-1.86 0-3.68-0.23-5.53-0.22-1.75-0.44-3.51-0.78-5.25-0.33-1.66-1.16-3.56-1.14-5.25m-1.91 15.69c0.78 0.43 2.21 1.88 2.29 2.81 0.12 1.35-1.19 2.59-2.44 2.78-1.6 0.24-2.07-1.31-2.4-2.54-0.25-0.9 1.96-2.52 2.55-3.05m18.42-16.01c-0.57 2.02-1.46 4.13-1.8 6.2-0.16 1 0.12 2.01-0.16 3s-1 1.76-1.35 2.71c2.06-1.14 2.29-3.19 2.4-5.26 0.13-2.15 0.5-4.67 1.93-6.38 0.39-0.46 1.89 0.06 2.33 0.21 1.07 0.38 0.57 1.23 0.12 2.01-1.33 2.29-3.23 4.61-3.45 7.34-0.06 0.78 0.21 1.76 0.92 2.18 0.02-0.71-0.19-1.41-0.2-2.12-0.01-0.78 0.38-1.54 0.67-2.25 0.45-1.07 0.97-2.11 1.53-3.13 0.51-0.93 2.25-3.96 3.33-1.94 1.27 2.35 1.81 4.76 2.04 7.4 0.21 2.34 0.14 5.27-0.98 7.41-0.9 1.73-2.63 3.36-4.47 4.04-1.17 0.43-1.6-0.04-2.68-0.37-1.13-0.35-2.31 0.65-3.51 0.47-2.16-0.32-3.97-3.05-4.63-4.91-0.83-2.32-1.48-5.35-0.89-7.78 0.55-2.24 2-4.32 3.59-5.94 0.97-1 3.7-3.78 5.26-2.89m-16.68 16.32c-0.49-0.15-0.88-0.54-1.38-0.68-0.64-0.18-1.31 0.59-1.99 0.16-1.12-0.69-0.14-2.5 0.56-3.09 0.55-0.47 0.88-0.85 1.57-0.47 0.54 0.29 0.87 0.63 1.29 1.07 0.97 0.99 1.44 2.28-0.05 3.01m6.04-1.36c0.16-0.79-0.25-1.73-0.41-2.5-0.19-0.96-0.38-1.92-0.6-2.87-0.47-1.96 0.1-3.03 1.13-4.63 1.58-2.48 5.01-6.1 8.3-5.79-0.65 1.25-2.27 2.19-3.28 3.15-1.3 1.21-2.28 2.72-3.15 4.26-0.82 1.46-1.16 2.8-1.4 4.44-0.1 0.68-0.27 1.34-0.27 2.03 0.01 0.61 0.11 1.41-0.32 1.91m-13.23-0.84c0.02-0.83 0.04-1.67 0.07-2.5 0.41 0.55 0.36 1.97-0.07 2.5m37.03-1.03c-0.87-1.74-1.32-3.66-2.14-5.43-0.71-1.54-1.92-3.15-1.84-4.92 1.63 0.58 2.55 2.71 3.1 4.21 0.49 1.34 1.97 4.82 0.88 6.14m-33.48-0.88c-0.7-1.09-0.01-1.95 0.7-2.82 0.91-1.12 1.68-1.21 2.71-0.25 0.39 0.37 0.65 0.83 0.74 1.35 0.16 0.94-0.99 0.99-1.56 0.88-1.07-0.19-1.58 0.7-2.59 0.84m65.61-1.94c0.52-0.03 1.96-0.44 1.95 0.38-0.01 0.48-0.46 1.32-1.04 1.3-0.71-0.02-1.41-0.38-1.72-1.04m-30.24-10.3c1.22 0.27 2.23 1.27 3.27 1.92 1.22 0.77 2.48 1.47 3.76 2.12 2.87 1.45 5.88 2.49 9.04 3.1 3.03 0.59 6.3 0.98 9.38 0.99 1.5 0.01 3-0.04 4.5-0.04 1.09 0 3.13-0.47 4.12 0.05-0.78 0.94-2.81 0.9-3.92 0.91-1.65 0.02-3.28 0.04-4.92 0.09-3.37 0.1-6.59-0.37-9.83-1.23-3.35-0.89-6.65-1.87-9.74-3.47-1.5-0.76-5.72-2.36-5.66-4.44m-31.2 7.19c-0.98-0.05-1.58 0.02-2.53 0.21-1.11 0.22-0.73-1.51-0.38-2.04 0.59-0.86 1.28-1.24 2.21-0.61 0.78 0.52 1.06 1.59 0.7 2.44m31.01-9.45c0.53-0.74 1.98-0.56 2.43 0.12 0.49 0.75 1.09 2.34 2.02 2.63 1.04 0.32 2.3-0.37 3.12 0.57 0.4 0.47 0.79 1.24 1.32 1.56 0.59 0.35 1.45 0.03 2.09 0.03 1.7-0.01 2.23 1.29 3.65 1.81 1.38 0.5 2.56-1.1 3.95-0.74 1.1 0.29 2.21 2.22 3.35 1.91 1.26-0.34 2.44-0.9 3.71-1.21 1.29-0.31 2.19 1.27 3.4 1.47 1.59 0.27 3.56-2.33 5.06-0.96 0.46 0.41 1.06 0.85 1.17 1.5-0.72-0.03-2.09-1.37-2.77-1.1-1.12 0.46-2.14 1.18-3.34 1.45-1.04 0.24-1.84-0.76-2.52-1.37-1.19-1.09-3.53 0.69-4.83 0.96-1.51 0.32-2.35-2.01-4.01-1.66-0.99 0.21-2.2 1.18-3.24 0.98-0.88-0.17-1.66-1.6-2.43-2.07-1.01-0.6-2.42 0.47-3.5-0.04-0.76-0.36-1.05-1.26-1.56-1.87-0.73-0.87-2.09-0.76-3.12-0.83-1-0.08-1.47-2.3-2.31-2.82-0.47-0.33-1.12-0.04-1.64-0.32m-26.46 7.82c-1.03-2.04 0.8-3.75 2.26-4.93 1.23-0.99 3.95-3.02 5.69-2.62-0.38 0.61-1.07 0.98-1.68 1.33-0.86 0.49-1.62 1.07-2.34 1.75-1.38 1.3-2.34 3.46-3.93 4.47m25.24 0.42c-0.27-0.95-1.01-1.83-1.18-2.78 1.34-0.2 1.92 1.89 1.18 2.78m-30.19-2.31c-0.86-0.04-1.37 0.18-2.17 0.3-1.27 0.16-1.22-0.95-0.79-1.82 0.2-0.41 0.52-0.64 0.88-0.9 0.34-0.25 0.9 0.14 1.27 0.28 0.94 0.36 0.83 1.33 0.81 2.14m34.45-7.35c0.85 0.42 1.41 1.23 1.95 1.97 0.47 0.63 1.17 0.47 1.89 0.46 1.18-0.02 1.35 0.72 2.15 1.39 0.87 0.74 1.31 0.69 2.44 0.61 2.15-0.15 2.95 2.24 5.24 1.48 1.09-0.37 2.19-0.74 3.29-0.18 0.61 0.31 1.67 1.5 2.41 1.4 1.13-0.16 2.09-0.83 3.22-0.96 1.6-0.18 2.45 1.76 4.03 1.5 1.55-0.25 2.91-1.89 4.54-0.88 0.77 0.47 1.66 1.05 2.12 1.85-0.87 0.35-2.1-0.96-2.9-1.25-1.48-0.52-2.93 1.9-4.26 1.33-1.08-0.47-2.04-1.69-3.29-1.6-1.42 0.11-2.87 1.82-4.33 1-0.52-0.29-2.08-1.9-2.69-1.74-1.06 0.26-2.17 0.74-3.24 0.84-1.2 0.11-1.86-1-2.75-1.59-1.12-0.72-2.07 0.27-3.19-0.02-1.02-0.25-1.35-1.55-2.05-2.2-0.93-0.86-2.25 0.29-3.14-0.54-0.72-0.64-1.34-1.88-1.44-2.87m-30.42 6.22c-0.5-0.97-3.3-6.06-1.08-6.53 2.28-0.48 5.25 0.68 7.46 1.19-0.27 1.2-1.85 1.86-2.79 2.43-1.33 0.79-2.17 2.27-3.59 2.91m-4.95-2.14c-0.67-0.23-1.12 0.09-1.75 0.25-0.7 0.17-1.29-0.22-0.8-1.01 0.63-1.04 3.41-0.65 2.55 0.76m32-8.92c1.21 0.68 2.03 1.89 3.08 2.77 1.31 1.1 2.83 1.96 4.35 2.72 3.34 1.67 6.85 2.51 10.55 2.89 3.57 0.36 7.14 0.58 10.72 0.73 1.86 0.08 3.73 0.04 5.59 0.07 1.84 0.03 3.64-0.43 5.48-0.37-1.22 2.19-5.72 1.39-7.73 1.23-2.04-0.17-4.08-0.01-6.13-0.1-2.26-0.1-4.45-0.5-6.68-0.79-4.07-0.53-7.85-1.16-11.57-2.98-1.58-0.77-3.35-1.36-4.73-2.48-1.08-0.88-2.8-2.17-2.93-3.69m-29.46 7.5c-0.24-0.36-0.41-0.83-0.47-1.26 0.5 0.14 0.77 0.8 0.47 1.26m34.63-14.1c0.61 0.35 1.28 0.93 1.97 1.05-0.04-1.61-0.7-2.96-0.88-4.52 1.49 0.27 2.49 1.71 3.95 2.11 0.05-1.77-1.14-3.3-1.12-5.03 1.39 0.31 3.23 2.88 4.69 2.37-0.69-1.35-1.5-3.08-1.88-4.55 1.18-0.06 2.3 0.67 3.36 1.08 1.31 0.5 2.37 1.03 3.46 1.91 2.32 1.89 4.35 3.98 6.22 6.32 1.76 2.19 3.37 4.51 4.7 6.99 0.69 1.28 1.34 2.59 1.99 3.89 0.19 0.37 1.7 2.76 0.85 2.92-3.24 0.61-6.59-0.23-9.83-0.33-3.22-0.08-6.65-0.38-9.79-1.09-2.25-0.52-3.05-3.31-3.78-5.18-0.51-1.32-1.21-2.53-1.89-3.77-0.65-1.19-2.05-2.75-2.02-4.17m-35.45 7.31c-1.29 0.25-0.85 2.02-1.35 2.88-0.25 0.44-0.76 1.07-1.25 1.24-0.74 0.25-0.93 0.54-1.3 1.27 3.01-0.01 3.83-2.93 3.9-5.39m68.11 6.04c0.03-0.85 0.29-1.64 0.32-2.49-0.57 0.59-1.07 1.3-1.8 1.71 0.13-0.75 0.41-1.49 0.56-2.24-0.69 0.36-1.1 1.07-1.79 1.45 0.02-0.87 0.44-1.64 0.56-2.49-0.82 0.39-1.29 1.22-2.04 1.7 0.03-1.03 0.62-1.96 0.58-2.99-0.66 0.34-1.02 1.37-1.79 1.45 0.02-0.63 0.41-1.39 0.3-1.99-0.44 0.21-0.79 0.6-1.27 0.72 0.02-0.58 0.03-1.17 0.05-1.75-0.32 0.19-0.63 0.43-1.01 0.47 0.11-0.41 0.13-0.84 0.03-1.25-1.19 0.37-2.34-1.25-2.44-2.31 1.36 0.26 2.56 1.25 3.72 1.94 1.35 0.79 2.65 1.69 3.88 2.65 1.04 0.81 5.18 3.43 4.15 5.23-0.27-0.36-0.22-0.82-0.22-1.26-0.61 0.3-1.09 1.6-1.79 1.45m-37.78-18.5c0.83-0.13 1.76 1.86 2.12 2.46 0.58 0.96 2 2.7 1.98 3.85-0.02 0.64-1.63 1.17-2.08 1.4-1.01 0.52-1.8 1.16-2.46 2.09-1.54 2.17-0.02 4.61-0.71 6.91-0.2 0.7-0.62 0.69-1.27 0.49-0.98-0.29-4.68-1.33-4.58-2.78 0.07-1.08 1.12-2.37 1.63-3.3 0.68-1.24 1.38-2.46 1.99-3.74 1.16-2.43 2.09-4.99 3.38-7.38m-0.18 16.5c-0.13-0.84 0.91-0.81 1.51-0.83 0.75-0.03 1.38 0.21 1.74 0.92-1.04-0.19-2.3 0.48-3.25-0.09m8.54-1.26c-0.18-0.68-0.3-1.43-0.7-2.02-0.1 0.33-0.21 0.65-0.28 0.99-0.67-0.6-0.67-2.69-0.66-3.52-0.51 0.75-0.54 1.56-0.57 2.43 0 0.09-0.49 0.13-0.51-0.02-0.04-0.28-0.03-0.48-0.08-0.79-0.2-1.12-0.07-2.27-0.05-3.39-0.48 0.76-0.79 1.57-0.81 2.48-0.69-0.62-0.45-1.93-0.43-2.76-0.74 0.57-1.01 1.83-1.07 2.72-0.51-0.63-0.46-2.5-0.09-3.12 0.34-0.56 1.09-0.57 1.65-0.7 1.45-0.35 4.85 7 3.6 7.7m-16.48-1.2c0.08-1.25 1-2.34 1.64-3.35 0.89-1.43 1.59-2.98 2.27-4.51 0.59-1.32 1.35-2.57 1.76-3.97 0.29-0.97 0.82-3.1 1.73-3.72 0.52 1.02-0.2 2.41-0.65 3.33-0.76 1.57-1.41 3.21-2.27 4.72-0.83 1.45-1.61 2.91-2.35 4.41-0.29 0.6-1.21 3.29-2.13 3.09m-1.18-21.54c1.22 0.28 2.16 1.78 3.08 2.55 1.03 0.87 2.24 1.62 3.51 2.08 1.33 0.49 0.99 0.86 0.56 1.99-0.57 1.49-1.24 2.95-1.86 4.41-1.28 3.02-2.64 6.15-4.5 8.87-0.97 1.42-1.5 1.54-3.15 1.01-0.91-0.29-2.36-0.51-2.91-1.4-0.55-0.91 0.32-2.26 0.63-3.11 0.6-1.71 1.25-3.34 1.74-5.1 1.04-3.73 1.94-7.52 2.9-11.3m11.03 17.81c-0.22-0.23-0.39-0.56-0.74-0.52 0.29-0.45 0.71-0.88 1.28-0.97 0.08 0.44-0.21 1.18-0.54 1.49m29.94-25.98c3.94 2.51 1.01 8.71-0.28 11.81-0.99 2.35-1.96 4.71-2.97 7.05-0.35 0.82-0.72 1.99-1.44 2.57-0.82 0.67-1.72-0.49-2.17-1.06-0.66-0.83-1.14-1.43-0.88-2.51 0.33-1.37 1.22-2.66 1.83-3.92 0.76-1.56 1.48-3.13 2.18-4.71 1.33-3.01 2.15-6.36 3.73-9.23m-17.07 12.05c-1.17-0.27-2.37-0.88-3.53-0.7-0.53 0.08 0.61 3.04 0.71 3.38-1.21-0.06-2.73-1.17-3.7-1.85-0.43 1.33 0.41 3.18 0.63 4.52-1.34 0.01-2.25-1.18-3.46-1.59-0.36 1.26 0.43 2.71 0.4 4.01-0.92-0.14-1.81-0.86-2.45-1.5-0.26-0.26-0.98-1.31-0.77-1.7 0.86-1.55 2.19-2.77 3.56-3.86 1.39-1.1 2.76-2.4 4.5-2.93 1.44-0.44 3.47 0.97 4.11 2.22m18.64-33.52c0.92 0.61 0.37 2.24 0.5 3.14 0.22 1.58-0.14 3.35-0.17 4.97-0.02 0.86-0.21 1.71-0.29 2.57-0.08 0.96-0.02 1.97-0.26 2.91-0.4 1.56-0.63 3.19-1.08 4.72-1.01 3.46-2.38 6.83-3.79 10.15-1.48 3.48-2.97 7-4.86 10.28-0.32 0.54-0.37 0.54-0.88 0.21-0.96-0.62-3.21-2.13-2.47-3.52 0.73-1.34 1.92-2.44 2.75-3.72 0.87-1.34 1.66-2.74 2.37-4.17 1.45-2.94 2.68-6.16 3.43-9.36 0.38-1.63 0.58-3.3 0.65-4.97 0.03-0.68-0.21-1.39-0.11-2.06 0.1-0.73 0.5-1.46 0.76-2.15 0.57-1.49 1.13-2.99 1.75-4.46s0.92-3.14 1.7-4.54m-31.74 37.43c-1.03-1.53 1.29-3.32 2.28-4.17 1.15-0.98 4.17-4.24 5.87-3.23 1.15 0.68-2.59 2.95-2.96 3.24-0.89 0.71-1.76 1.44-2.63 2.19-0.78 0.68-1.53 1.68-2.56 1.97m-1.21-1.78c-0.75-1.48 1.48-3.25 2.37-4.13 1.31-1.29 2.99-3.35 5.08-2.96 0.88 0.16-2.22 2.54-2.35 2.64-1.03 0.84-1.95 1.74-2.87 2.71-0.63 0.66-1.27 1.58-2.23 1.74m28.09-22.01c-0.11 3.96-1.39 7.81-2.92 11.43-1.44 3.4-3.32 7.03-6.03 9.61-0.77 0.73-2.25-0.01-2.59-0.9-0.52-1.39 1.88-3.69 2.58-4.74 1.27-1.9 2.35-3.92 3.49-5.89 1.1-1.91 2.26-3.84 3.24-5.81 0.44-0.9 1.05-3.48 2.23-3.7m-28.79 20.25c-1-2.08-0.11-4.56-0.08-6.75 0.04-2.55 0.01-5.07 0.34-7.61 0.32-2.45 1.11-4.41 2.21-6.59 1.21-2.4 1.76-4.87 2.52-7.43 0.43 0.48 0.13 1.31 0.01 1.85-0.21 0.87-0.23 1.77-0.12 2.65 0.48-0.86 0.52-1.86 0.74-2.8 0.21-0.89 0.56-1.75 0.97-2.57 0.64-1.27 1.69-2.87 3.25-3-0.17 1.13-1.12 2-1.45 3.09-0.38 1.25-0.7 2.6-0.73 3.91-0.01 0.5-0.14 0.99-0.15 1.49-0.01 0.55 0.26 1.14 0.36 1.67 0.27 1.45 0.14 2.96 0.06 4.42-0.11 1.99-0.35 4.04-0.72 6.01-0.24 1.26-0.83 3.09-2.48 2.53 0.23 0.98 0.97 1.82 0.18 2.76 0.31 0.1 0.62 0.2 0.91 0.36 0.49 0.27 0.22 0.52-0.08 0.88-0.8 0.98-2.02 1.72-2.91 2.64-0.7 0.71-1.75 2.36-2.83 2.49m15.79-1.34c-1.36-0.41-2.96-1.41-3.9-2.49-0.92-1.07 0.65-3.08 1.25-3.99 1.08-1.65 2.1-3.26 3-5.02 1.82-3.57 3.45-7.27 4.79-11.05 1.32-3.69 2.27-7.52 3.49-11.25 0.48-1.45 0.73-2.91 1.02-4.41 0.09-0.46 0.41-2.45 1.24-2.1 1.46 0.62 2.73 1.8 3.97 2.77 1.11 0.88 3.06 2.26 2.64 3.91-0.81 3.18-2.29 6.19-3.43 9.25-1.22 3.27-2.65 6.47-4.27 9.57-1.58 3-3.29 5.91-5.07 8.79-0.81 1.32-1.55 2.67-2.41 3.95-0.44 0.66-1.35 2.24-2.32 2.07m-7.27-8.95c0.36 0.76 0.21 1.7 0.19 2.51 0.65-0.21 1.17-0.66 1.78-0.95 0.23 0.47 0.14 1 0.26 1.49 0.11 0.45 0.74 0.69 0.67 1.19-0.07 0.51-0.69 0.95-1.15 0.92-0.83-0.05-1.81-0.7-2.57-1.04-0.89-0.4-1.63-1.04-1.49-2.1 0.12-0.94 1.48-1.81 2.31-2.02m-9.59 3.25c-0.08-0.42-0.18-0.85 0.03-1.25 0.28 0.36 0.26 0.91-0.03 1.25m-1.72-1.29c-0.89-1.72 1.38-4.05 1.65-5.71-0.44-0.01-4.54 0.22-4.47-0.66 0.07-0.86 0.99-1.21 1.6-1.63 0.37-0.26 1.69-0.4 1.7-0.99 0.02-0.77-3.71-2.06-2.66-3.32 0.63-0.77 3.86 0.28 4.49 0.62 0.16-1.06-0.58-1.96-0.87-2.93-0.3-1.01-0.47-2.05-0.48-3.11 1.67 0.14 2.16 2.04 3.43 2.84 0.33-1.45 0.64-3.94 2.13-4.7-0.04 1.7-0.17 3.43-0.87 5-0.65 1.45-1.46 2.83-2.05 4.3-0.6 1.48-0.98 3.07-1.14 4.66-0.13 1.29 0.19 2.99-0.44 4.17-0.38 0.67-1.28 1.28-2.02 1.46m15.03-0.85c-0.31-0.28-0.65-0.52-0.98-0.78 0.46-0.29 1.34 0.23 0.98 0.78m0.29-1.25c0.04-0.77 0.76-1.48 1.54-1.46 0.02 0.51-0.16 0.87-0.35 1.34-0.19 0.46-0.83 0.2-1.19 0.12m-1.75-0.05c-0.78-0.18-2.35-1.22-2.45-2.06 0.67 0.22 2.67 1.2 2.45 2.06m-15.98-1.17c0.03-0.64 0.46-1.1 1.01-1.35 0.2-0.09 1.79-0.73 1.78-0.23-0.02 0.68-0.43 1.17-0.91 1.63-0.43 0.41-1.37 0.03-1.88-0.05m15.11-3.85c-0.02 0.96 0 1.81 0.18 2.76 0.61-0.37 1.29-0.88 2.03-0.95-0.01 0.51 0.12 1.67-0.42 1.99-0.72 0.42-2.14-0.81-2.7-1.22-1.29-0.92-0.44-2.3 0.91-2.58m-1.18-2.79c1.55 0.11 2.72 1.52 3.91 2.36 0.9 0.64 2.67 1.53 2.71 2.81-1.56-0.07-2.63-1.62-3.84-2.4-0.92-0.58-2.8-1.48-2.78-2.77m2.36-4.19c0.17 0.96 0.2 1.78 0.18 2.76 0.26-0.05 1.98-1.06 2.05-0.88 0.34 0.92 0.17 1.97 0.15 2.94 0.76-0.42 1.43-1.21 2.29-1.44 0.37 0.75 0.03 1.55 0.28 2.3 0.14 0.43 0.69 0.87 0.53 1.37-0.46 1.49-2.1 0.2-2.8-0.37-1.47-1.18-3.17-2.06-4.52-3.38-0.74-0.74-0.27-1.31 0.2-2 0.45-0.65 0.79-1.22 1.64-1.3m-16.65 5.32c-0.08-0.49 0.12-0.62 0.54-0.74 0.22-0.06 1.03-0.2 1.22 0.04 0.08 0.09-0.01 0.57-0.02 0.69 0 0.42-1.61 0.09-1.74 0.01m14.73-8.36c1.14-0.07 2.21 0.84 3.1 1.44 1.1 0.73 2.21 1.45 3.31 2.19 0.24 0.16 3.54 2.5 2.42 2.86-0.95 0.3-3.42-2.12-4.08-2.61-1.03-0.75-2.08-1.48-3.16-2.16-0.6-0.38-1.63-0.89-1.59-1.72m1.51-0.22c0.01-0.5-0.1-0.69 0.36-0.91 0.45-0.22 0.91-0.59 1.39-0.71 0.54-0.14 0.61 0.81 1.41 0.58 0.53-0.15 1.27-1.39 1.59-0.34 0.25 0.8 0.31 1.69 0.48 2.51 0.83-0.24 1.29-1.04 2.04-1.45 0.25 0.53 0.22 1.12 0.23 1.69 0 0.61 0.3 1.21 0.18 1.82 0.41-0.27 0.82-0.51 1.27-0.72-0.01 0.31-0.48 2.87-0.88 2.7-2.99-1.2-4.98-4.11-8.07-5.17m-14.57 2.37c0.82 0.02 2.27 0.58 1.83 1.71-0.23 0.59-0.79 0.08-1.16-0.24-0.44-0.39-0.68-0.87-0.67-1.47m4.11-4.38c1.21 0.28 1.47 1.49 0.97 2.46-0.25 0.47-1.05-0.87-1.12-1.04-0.18-0.46-0.08-1 0.15-1.42m12.58-2.93c1.49-0.78 3.5 1.13 4.76 1.76 0.74 0.38 3.8 1.73 3.12 2.95-1.56-0.48-2.8-1.61-4.24-2.32-1.24-0.61-2.92-1.11-3.64-2.39m-4.36 4.38c0.26-1.37 2.25-2.29 3.56-2.16-0.58 1.07-2.33 2.17-3.56 2.16m4.92-6.62c-0.5 0.13-0.92 0.43-1.44 0.48-1.69 0.17-2.45-2.2-2.42-3.52 0.03-1.01 0.27-1.65 1.06-2.3 0.27-0.23 1.07-1 1.46-0.71 0.29 0.21 0.22 1.16 0.25 1.47 0.06 0.78 0.26 1.53 0.4 2.3 0.25-0.14 2.19-1.95 2.32-1.63 0.42 1.03 0.34 2.14 0.64 3.21 0.89-0.48 1.7-1.71 2.79-1.68-0.03 1.09 0.19 2.15 0.16 3.25 1.02-0.11 1.55-1.39 2.54-1.68 0.37 0.87 0.09 1.82 0.43 2.7 0.38 0.99 0.36 2.01-0.16 2.97-0.54 1.03-4.18-1.71-4.78-2.05-1.19-0.66-3.09-1.2-3.25-2.81m-4.11 4.15c-0.71-1.45 2.01-2.9 3.08-3.17-0.02 1.32-2.04 2.57-3.08 3.17m0.11-13.76c1.27-0.23 2.77 1.17 3.82 1.73 1.65 0.89 3.31 1.74 4.95 2.66 0.32 0.18 5.93 3.09 5.21 3.78-0.59 0.56-2.11-0.67-2.59-0.98-1.38-0.9-2.84-1.71-4.26-2.53-1.57-0.9-3.18-1.74-4.82-2.52-0.94-0.43-2.39-0.84-2.31-2.14m2.7-7.43c-0.29-1.85 4.88 1.56 5.23 1.76 1.57 0.91 3.03 1.97 4.52 2.99 1.07 0.73 2.85 1.44 3.4 2.7 0.4 0.94-0.79 0.28-1.13 0.08-1.09-0.65-2.12-1.42-3.15-2.17-2.73-1.98-5.64-4.25-8.87-5.36"/>
  </g>
  <g id="a">
   <path fill="#e6180a" d="m0 0h-7.68c0.8747 0.039 1.619 0.605 2.322 1.0728 1.579 1.1912 3.058 2.5572 4.226 4.1552 0.545 0.804 1.1176 1.708 1.132 2.712m-7.68-7.94c1.11-0.035 2.058-0.7413 2.904-1.393 1.495-1.255 2.789-2.748 3.881-4.364 0.401-0.669 0.873-1.378 0.895-2.183v7.94m0-7.94c0.038 1.182 0.758 2.206 1.438 3.12 1.212 1.51 2.648 2.846 4.228 3.963 0.614 0.383 1.266 0.8385 2.014 0.857h-7.68m7.68 0c-1.11 0.035-2.058 0.741-2.904 1.392-1.495 1.256-2.789 2.749-3.881 4.365-0.401 0.669-0.8725 1.378-0.895 2.183v-7.94"/>
  </g>
  <g id="d">
   <path d="m0 0c0 3.78 3.09 6.87 6.87 6.87h152.84c3.77 0 6.86-3.09 6.86-6.87v-228.4c0-3.78-3.09-6.87-6.86-6.87h-152.84c-3.78 0-6.87 3.09-6.87 6.87v228.4z" stroke="#000" stroke-width="2.5" fill="#fff"/>
  </g>
  <g id="c">
   <text font-size="41px" font-weight="bold" font-family="Bitstream Vera Serif" transform="scale(.56453 1)">Q</text>
  </g>
 </defs>
 <g transform="translate(-1842.3 -242.66)">
  <use xlink:href="#d" height="1" width="1" y="243.13699" x="1843.3199"/>
  <g stroke="#000" fill="none">
   <path d="m1851.3 68.02v177.39"/>
   <path d="m1851.3 245.41h132.28"/>
   <path d="m2002.9 189.11v-177.64"/>
   <path d="m2002.9 11.47h-132.28"/>
  </g>
  <use xlink:href="#a" transform="matrix(-2.4 0 0 -2.4 3758.8 77.04)" height="1" width="1" y="16.049999" x="783.08698"/>
  <rect height="37.968" width="9.6926" y="19.536" x="1860.9" fill="#fff"/>
  <use xlink:href="#a" transform="scale(2.4)" height="1" width="1" y="91.032799" x="822.84003"/>
  <rect height="37.968" width="9.6926" y="199.5" x="1984.1" fill="#fff"/>
  <g transform="matrix(.99951 -.031411 .031411 .99951 -3.0835 60.595)">
   <line y2="72.622" stroke-width="7.25" x2="1965.6" stroke="#000" y1="184.26" x1="1888.6"/>
   <circle cy="181.2" cx="1891.1" r="2.2" fill="#fff"/>
   <circle cy="181.2" cx="1891.1" r=".7"/>
   <circle cy="176.41" cx="1894.4" r="2.2" fill="#fff"/>
   <circle cy="176.41" cx="1894.4" r=".7"/>
   <circle cy="171.63" cx="1897.6" r="2.2" fill="#fff"/>
   <circle cy="171.63" cx="1897.6" r=".7"/>
   <circle cy="166.85" cx="1901" r="2.2" fill="#fff"/>
   <circle cy="166.85" cx="1901" r=".7"/>
   <circle cy="162.07" cx="1904.2" r="2.2" fill="#fff"/>
   <circle cy="162.07" cx="1904.2" r=".7"/>
   <circle cy="157.29" cx="1907.5" r="2.2" fill="#fff"/>
   <circle cy="157.29" cx="1907.5" r=".7"/>
   <circle cy="152.5" cx="1910.8" r="2.2" fill="#fff"/>
   <circle cy="152.5" cx="1910.8" r=".7"/>
   <circle cy="147.72" cx="1914.1" r="2.2" fill="#fff"/>
   <circle cy="147.72" cx="1914.1" r=".7"/>
   <circle cy="142.94" cx="1917.4" r="2.2" fill="#fff"/>
   <circle cy="142.94" cx="1917.4" r=".7"/>
   <circle cy="138.16" cx="1920.7" r="2.2" fill="#fff"/>
   <circle cy="138.16" cx="1920.7" r=".7"/>
   <circle cy="133.38" cx="1924" r="2.2" fill="#fff"/>
   <circle cy="133.38" cx="1924" r=".7"/>
   <circle cy="128.6" cx="1927.3" r="2.2" fill="#fff"/>
   <circle cy="128.6" cx="1927.3" r=".7"/>
   <circle cy="123.81" cx="1930.6" r="2.2" fill="#fff"/>
   <circle cy="123.81" cx="1930.6" r=".7"/>
   <circle cy="119.03" cx="1933.9" r="2.2" fill="#fff"/>
   <circle cy="119.03" cx="1933.9" r=".7"/>
   <circle cy="114.25" cx="1937.2" r="2.2" fill="#fff"/>
   <circle cy="114.25" cx="1937.2" r=".7"/>
   <circle cy="109.47" cx="1940.5" r="2.2" fill="#fff"/>
   <circle cy="109.47" cx="1940.5" r=".7"/>
   <circle cy="104.68" cx="1943.8" r="2.2" fill="#fff"/>
   <circle cy="104.68" cx="1943.8" r=".7"/>
   <circle cy="99.902" cx="1947.1" r="2.2" fill="#fff"/>
   <circle cy="99.902" cx="1947.1" r=".7"/>
   <circle cy="95.12" cx="1950.4" r="2.2" fill="#fff"/>
   <circle cy="95.12" cx="1950.4" r=".7"/>
   <circle cy="90.338" cx="1953.7" r="2.2" fill="#fff"/>
   <circle cy="90.338" cx="1953.7" r=".7"/>
   <circle cy="85.556" cx="1957" r="2.2" fill="#fff"/>
   <circle cy="85.556" cx="1957" r=".7"/>
   <circle cy="80.774" cx="1960.3" r="2.2" fill="#fff"/>
   <circle cy="80.774" cx="1960.3" r=".7"/>
   <circle cy="75.992" cx="1963.6" r="2.2" fill="#fff"/>
   <circle cy="75.992" cx="1963.6" r=".7"/>
  </g>
  <use xlink:href="#c" height="1" width="1" y="40.400002" x="1847.3199" fill="#e6180a"/>
  <use xlink:href="#c" transform="matrix(-1 0 0 -1 4013.8 432.95)" height="1" width="1" y="216.47701" x="2006.9" fill="#e6180a"/>
  <use xlink:href="#a" transform="matrix(-1 0 0 -1 3713.9 116.04)" height="1" width="1" y="58.02" x="1856.97"/>
  <use xlink:href="#a" height="1" width="1" y="198.85699" x="1997.25"/>
  <use xlink:href="#b" transform="matrix(.99 0 0 .99 1862.4 -132.84)" height="1215.6875" width="2178.4751" y="0" x="0"/>
  <use xlink:href="#b" transform="matrix(-.99 0 0 -.99 1992 389.63)" height="1215.6875" width="2178.4751" y="0" x="0"/>
 </g>
</svg>
