<?xml version="1.0" encoding="UTF-8" standalone="no"?>
<svg xmlns:rdf="http://www.w3.org/1999/02/22-rdf-syntax-ns#" xmlns="http://www.w3.org/2000/svg" height="244.55" viewBox="-0.2 -236 169.07501 244.54905" width="169.01" version="1.1" xmlns:cc="http://creativecommons.org/ns#" xmlns:xlink="http://www.w3.org/1999/xlink" xmlns:dc="http://purl.org/dc/elements/1.1/">
 <defs>
  <g id="a">
   <path fill="#e6180a" d="m0 0h-7.68c0.8747 0.039 1.619 0.605 2.322 1.0728 1.579 1.1912 3.058 2.5572 4.226 4.1552 0.545 0.804 1.1176 1.708 1.132 2.712m-7.68-7.94c1.11-0.035 2.058-0.7413 2.904-1.393 1.495-1.255 2.789-2.748 3.881-4.364 0.401-0.669 0.873-1.378 0.895-2.183v7.94m0-7.94c0.038 1.182 0.758 2.206 1.438 3.12 1.212 1.51 2.648 2.846 4.228 3.963 0.614 0.383 1.266 0.8385 2.014 0.857h-7.68m7.68 0c-1.11 0.035-2.058 0.741-2.904 1.392-1.495 1.256-2.789 2.749-3.881 4.365-0.401 0.669-0.8725 1.378-0.895 2.183v-7.94"/>
  </g>
  <g id="c">
   <path d="m0 0c0 3.78 3.09 6.87 6.87 6.87h152.84c3.77 0 6.86-3.09 6.86-6.87v-228.4c0-3.78-3.09-6.87-6.86-6.87h-152.84c-3.78 0-6.87 3.09-6.87 6.87v228.4z" stroke="#000" stroke-width="2.5" fill="#fff"/>
  </g>
  <g id="b">
   <text font-size="43px" font-weight="bold" font-family="Bitstream Vera Serif" transform="scale(.56453 1.0574)">8</text>
  </g>
 </defs>
 <g transform="translate(-1172 -242.66)">
  <use xlink:href="#c" height="1" width="1" y="243.13699" x="1173.02"/>
  <use xlink:href="#b" height="1" width="1" y="44.02" x="1177.02" fill="#e6180a"/>
  <use xlink:href="#b" transform="matrix(-1 0 0 -1 2673.2 425.71)" height="1" width="1" y="212.85699" x="1336.6" fill="#e6180a"/>
  <use xlink:href="#a" transform="matrix(-1 0 0 -1 2373.3 116.04)" height="1" width="1" y="58.02" x="1186.67"/>
  <use xlink:href="#a" height="1" width="1" y="198.85699" x="1326.95"/>
  <use xlink:href="#a" transform="matrix(-2.4 0 0 -2.4 2433.8 89.255)" height="1" width="1" y="18.594801" x="507.035"/>
  <use xlink:href="#a" transform="matrix(-2.4 0 0 -2.4 2433.8 197.57)" height="1" width="1" y="41.159901" x="507.035"/>
  <use xlink:href="#a" transform="scale(2.4)" height="1" width="1" y="64.143204" x="507.035"/>
  <use xlink:href="#a" transform="scale(2.4)" height="1" width="1" y="86.708298" x="507.035"/>
  <use xlink:href="#a" transform="matrix(-2.4 0 0 -2.4 2593.5 89.255)" height="1" width="1" y="18.594801" x="540.30902"/>
  <use xlink:href="#a" transform="matrix(-2.4 0 0 -2.4 2593.5 197.57)" height="1" width="1" y="41.159901" x="540.30902"/>
  <use xlink:href="#a" transform="scale(2.4)" height="1" width="1" y="64.143204" x="540.30902"/>
  <use xlink:href="#a" transform="scale(2.4)" height="1" width="1" y="86.708298" x="540.30902"/>
 </g>
</svg>
